solid OpenSCAD_Model
  facet normal -1 0 0
    outer loop
      vertex 0 -6 1.33227e-15
      vertex 0 -6 45
      vertex 0 0 0
    endloop
  endfacet
  facet normal -1 0 0
    outer loop
      vertex 0 1.33227e-15 6
      vertex 0 -6 45
      vertex 0 9.99201e-15 45
    endloop
  endfacet
  facet normal -1 0 0
    outer loop
      vertex 0 0 0
      vertex 0 -6 45
      vertex 0 1.33227e-15 6
    endloop
  endfacet
  facet normal -1 0 0
    outer loop
      vertex 0 1.33227e-15 6
      vertex 0 40 6
      vertex 0 0 0
    endloop
  endfacet
  facet normal -1 0 0
    outer loop
      vertex 0 0 0
      vertex 0 40 6
      vertex 0 40 0
    endloop
  endfacet
  facet normal 0 -1 2.22045e-16
    outer loop
      vertex 8.875 -6 14.0514
      vertex 0 -6 1.33227e-15
      vertex 20 -6 1.33227e-15
    endloop
  endfacet
  facet normal 0 -1 2.22045e-16
    outer loop
      vertex 7.94452 -6 35.0848
      vertex 0 -6 45
      vertex 20 -6 1.33227e-15
    endloop
  endfacet
  facet normal 0 -1 2.22045e-16
    outer loop
      vertex 8.875 -6 37.9486
      vertex 9.30471 -6 38.1399
      vertex 20 -6 45
    endloop
  endfacet
  facet normal 0 -1 2.22045e-16
    outer loop
      vertex 0 -6 45
      vertex 0 -6 1.33227e-15
      vertex 7.79917 -6 15.5322
    endloop
  endfacet
  facet normal 0 -1 2.22045e-16
    outer loop
      vertex 9.30471 -6 13.8601
      vertex 8.875 -6 14.0514
      vertex 20 -6 1.33227e-15
    endloop
  endfacet
  facet normal 0 -1 2.22045e-16
    outer loop
      vertex 0 -6 45
      vertex 7.79917 -6 15.5322
      vertex 7.75 -6 16
    endloop
  endfacet
  facet normal 0 -1 2.22045e-16
    outer loop
      vertex 9.76481 -6 13.7623
      vertex 9.30471 -6 13.8601
      vertex 20 -6 1.33227e-15
    endloop
  endfacet
  facet normal 0 -1 2.22045e-16
    outer loop
      vertex 0 -6 45
      vertex 7.75 -6 16
      vertex 7.79917 -6 16.4678
    endloop
  endfacet
  facet normal 0 -1 2.22045e-16
    outer loop
      vertex 10.2352 -6 38.2377
      vertex 10.6953 -6 38.1399
      vertex 20 -6 45
    endloop
  endfacet
  facet normal 0 -1 2.22045e-16
    outer loop
      vertex 0 -6 45
      vertex 7.79917 -6 16.4678
      vertex 7.94452 -6 16.9152
    endloop
  endfacet
  facet normal 0 -1 2.22045e-16
    outer loop
      vertex 0 -6 45
      vertex 7.94452 -6 16.9152
      vertex 8.17971 -6 17.3225
    endloop
  endfacet
  facet normal 0 -1 2.22045e-16
    outer loop
      vertex 10.6953 -6 13.8601
      vertex 10.2352 -6 13.7623
      vertex 20 -6 1.33227e-15
    endloop
  endfacet
  facet normal 0 -1 2.22045e-16
    outer loop
      vertex 0 -6 45
      vertex 8.17971 -6 17.3225
      vertex 8.49446 -6 17.6721
    endloop
  endfacet
  facet normal 0 -1 2.22045e-16
    outer loop
      vertex 11.125 -6 14.0514
      vertex 10.6953 -6 13.8601
      vertex 20 -6 1.33227e-15
    endloop
  endfacet
  facet normal 0 -1 2.22045e-16
    outer loop
      vertex 0 -6 45
      vertex 8.49446 -6 17.6721
      vertex 8.875 -6 17.9486
    endloop
  endfacet
  facet normal 0 -1 2.22045e-16
    outer loop
      vertex 11.5055 -6 14.3279
      vertex 11.125 -6 14.0514
      vertex 20 -6 1.33227e-15
    endloop
  endfacet
  facet normal 0 -1 2.22045e-16
    outer loop
      vertex 0 -6 45
      vertex 8.875 -6 17.9486
      vertex 9.30471 -6 18.1399
    endloop
  endfacet
  facet normal 0 -1 2.22045e-16
    outer loop
      vertex 10.2352 -6 13.7623
      vertex 9.76481 -6 13.7623
      vertex 20 -6 1.33227e-15
    endloop
  endfacet
  facet normal 0 -1 2.22045e-16
    outer loop
      vertex 0 -6 45
      vertex 9.30471 -6 18.1399
      vertex 9.76481 -6 18.2377
    endloop
  endfacet
  facet normal 0 -1 2.22045e-16
    outer loop
      vertex 0 -6 45
      vertex 9.76481 -6 18.2377
      vertex 10.2352 -6 18.2377
    endloop
  endfacet
  facet normal 0 -1 2.22045e-16
    outer loop
      vertex 12.0555 -6 15.0848
      vertex 11.8203 -6 14.6775
      vertex 20 -6 1.33227e-15
    endloop
  endfacet
  facet normal 0 -1 2.22045e-16
    outer loop
      vertex 0 -6 45
      vertex 10.2352 -6 18.2377
      vertex 10.6953 -6 18.1399
    endloop
  endfacet
  facet normal 0 -1 2.22045e-16
    outer loop
      vertex 12.2008 -6 15.5322
      vertex 12.0555 -6 15.0848
      vertex 20 -6 1.33227e-15
    endloop
  endfacet
  facet normal 0 -1 2.22045e-16
    outer loop
      vertex 0 -6 45
      vertex 10.6953 -6 18.1399
      vertex 11.125 -6 17.9486
    endloop
  endfacet
  facet normal 0 -1 2.22045e-16
    outer loop
      vertex 12.25 -6 16
      vertex 12.2008 -6 15.5322
      vertex 20 -6 1.33227e-15
    endloop
  endfacet
  facet normal 0 -1 2.22045e-16
    outer loop
      vertex 0 -6 45
      vertex 11.125 -6 17.9486
      vertex 11.5055 -6 17.6721
    endloop
  endfacet
  facet normal 0 -1 2.22045e-16
    outer loop
      vertex 12.2008 -6 16.4678
      vertex 12.25 -6 16
      vertex 20 -6 1.33227e-15
    endloop
  endfacet
  facet normal 0 -1 2.22045e-16
    outer loop
      vertex 0 -6 45
      vertex 11.5055 -6 17.6721
      vertex 11.8203 -6 17.3225
    endloop
  endfacet
  facet normal 0 -1 2.22045e-16
    outer loop
      vertex 0 -6 45
      vertex 12.0555 -6 16.9152
      vertex 20 -6 1.33227e-15
    endloop
  endfacet
  facet normal 0 -1 2.22045e-16
    outer loop
      vertex 0 -6 45
      vertex 11.8203 -6 17.3225
      vertex 12.0555 -6 16.9152
    endloop
  endfacet
  facet normal 0 -1 2.22045e-16
    outer loop
      vertex 8.49446 -6 14.3279
      vertex 0 -6 1.33227e-15
      vertex 8.875 -6 14.0514
    endloop
  endfacet
  facet normal 0 -1 2.22045e-16
    outer loop
      vertex 8.17971 -6 14.6775
      vertex 0 -6 1.33227e-15
      vertex 8.49446 -6 14.3279
    endloop
  endfacet
  facet normal 0 -1 2.22045e-16
    outer loop
      vertex 7.94452 -6 15.0848
      vertex 0 -6 1.33227e-15
      vertex 8.17971 -6 14.6775
    endloop
  endfacet
  facet normal 0 -1 2.22045e-16
    outer loop
      vertex 7.79917 -6 15.5322
      vertex 0 -6 1.33227e-15
      vertex 7.94452 -6 15.0848
    endloop
  endfacet
  facet normal 0 -1 2.22045e-16
    outer loop
      vertex 7.75 -6 36
      vertex 0 -6 45
      vertex 7.79917 -6 35.5322
    endloop
  endfacet
  facet normal 0 -1 2.22045e-16
    outer loop
      vertex 7.79917 -6 36.4678
      vertex 0 -6 45
      vertex 7.75 -6 36
    endloop
  endfacet
  facet normal 0 -1 2.22045e-16
    outer loop
      vertex 10.6953 -6 38.1399
      vertex 11.125 -6 37.9486
      vertex 20 -6 45
    endloop
  endfacet
  facet normal 0 -1 2.22045e-16
    outer loop
      vertex 7.94452 -6 36.9152
      vertex 0 -6 45
      vertex 7.79917 -6 36.4678
    endloop
  endfacet
  facet normal 0 -1 2.22045e-16
    outer loop
      vertex 8.17971 -6 37.3225
      vertex 0 -6 45
      vertex 7.94452 -6 36.9152
    endloop
  endfacet
  facet normal 0 -1 2.22045e-16
    outer loop
      vertex 8.49446 -6 37.6721
      vertex 0 -6 45
      vertex 8.17971 -6 37.3225
    endloop
  endfacet
  facet normal 0 -1 2.22045e-16
    outer loop
      vertex 8.875 -6 37.9486
      vertex 0 -6 45
      vertex 8.49446 -6 37.6721
    endloop
  endfacet
  facet normal 0 -1 2.22045e-16
    outer loop
      vertex 9.30471 -6 38.1399
      vertex 9.76481 -6 38.2377
      vertex 20 -6 45
    endloop
  endfacet
  facet normal 0 -1 2.22045e-16
    outer loop
      vertex 20 -6 45
      vertex 0 -6 45
      vertex 8.875 -6 37.9486
    endloop
  endfacet
  facet normal 0 -1 2.22045e-16
    outer loop
      vertex 9.76481 -6 38.2377
      vertex 10.2352 -6 38.2377
      vertex 20 -6 45
    endloop
  endfacet
  facet normal 0 -1 2.22045e-16
    outer loop
      vertex 12.2008 -6 36.4678
      vertex 12.25 -6 36
      vertex 20 -6 1.33227e-15
    endloop
  endfacet
  facet normal 0 -1 2.22045e-16
    outer loop
      vertex 8.17971 -6 34.6775
      vertex 7.94452 -6 35.0848
      vertex 20 -6 1.33227e-15
    endloop
  endfacet
  facet normal 0 -1 2.22045e-16
    outer loop
      vertex 12.0555 -6 35.0848
      vertex 11.8203 -6 34.6775
      vertex 20 -6 1.33227e-15
    endloop
  endfacet
  facet normal 0 -1 2.22045e-16
    outer loop
      vertex 20 -6 45
      vertex 11.125 -6 37.9486
      vertex 11.5055 -6 37.6721
    endloop
  endfacet
  facet normal 0 -1 2.22045e-16
    outer loop
      vertex 12.2008 -6 35.5322
      vertex 12.0555 -6 35.0848
      vertex 20 -6 1.33227e-15
    endloop
  endfacet
  facet normal 0 -1 2.22045e-16
    outer loop
      vertex 20 -6 45
      vertex 11.5055 -6 37.6721
      vertex 11.8203 -6 37.3225
    endloop
  endfacet
  facet normal 0 -1 2.22045e-16
    outer loop
      vertex 12.25 -6 36
      vertex 12.2008 -6 35.5322
      vertex 20 -6 1.33227e-15
    endloop
  endfacet
  facet normal 0 -1 2.22045e-16
    outer loop
      vertex 20 -6 45
      vertex 11.8203 -6 37.3225
      vertex 12.0555 -6 36.9152
    endloop
  endfacet
  facet normal 0 -1 2.22045e-16
    outer loop
      vertex 20 -6 45
      vertex 12.2008 -6 36.4678
      vertex 20 -6 1.33227e-15
    endloop
  endfacet
  facet normal 0 -1 2.22045e-16
    outer loop
      vertex 20 -6 45
      vertex 12.0555 -6 36.9152
      vertex 12.2008 -6 36.4678
    endloop
  endfacet
  facet normal 0 -1 2.22045e-16
    outer loop
      vertex 11.8203 -6 34.6775
      vertex 11.5055 -6 34.3279
      vertex 20 -6 1.33227e-15
    endloop
  endfacet
  facet normal 0 -1 2.22045e-16
    outer loop
      vertex 11.5055 -6 34.3279
      vertex 11.125 -6 34.0514
      vertex 20 -6 1.33227e-15
    endloop
  endfacet
  facet normal 0 -1 2.22045e-16
    outer loop
      vertex 11.125 -6 34.0514
      vertex 10.6953 -6 33.8601
      vertex 20 -6 1.33227e-15
    endloop
  endfacet
  facet normal 0 -1 2.22045e-16
    outer loop
      vertex 10.6953 -6 33.8601
      vertex 10.2352 -6 33.7623
      vertex 20 -6 1.33227e-15
    endloop
  endfacet
  facet normal 0 -1 2.22045e-16
    outer loop
      vertex 10.2352 -6 33.7623
      vertex 9.76481 -6 33.7623
      vertex 20 -6 1.33227e-15
    endloop
  endfacet
  facet normal 0 -1 2.22045e-16
    outer loop
      vertex 9.76481 -6 33.7623
      vertex 9.30471 -6 33.8601
      vertex 20 -6 1.33227e-15
    endloop
  endfacet
  facet normal 0 -1 2.22045e-16
    outer loop
      vertex 9.30471 -6 33.8601
      vertex 8.875 -6 34.0514
      vertex 20 -6 1.33227e-15
    endloop
  endfacet
  facet normal 0 -1 2.22045e-16
    outer loop
      vertex 8.875 -6 34.0514
      vertex 8.49446 -6 34.3279
      vertex 20 -6 1.33227e-15
    endloop
  endfacet
  facet normal 0 -1 2.22045e-16
    outer loop
      vertex 8.49446 -6 34.3279
      vertex 8.17971 -6 34.6775
      vertex 20 -6 1.33227e-15
    endloop
  endfacet
  facet normal 0 -1 2.22045e-16
    outer loop
      vertex 7.79917 -6 35.5322
      vertex 0 -6 45
      vertex 7.94452 -6 35.0848
    endloop
  endfacet
  facet normal 0 -1 2.22045e-16
    outer loop
      vertex 12.0555 -6 16.9152
      vertex 12.2008 -6 16.4678
      vertex 20 -6 1.33227e-15
    endloop
  endfacet
  facet normal 0 -1 2.22045e-16
    outer loop
      vertex 11.8203 -6 14.6775
      vertex 11.5055 -6 14.3279
      vertex 20 -6 1.33227e-15
    endloop
  endfacet
  facet normal 0 -2.22045e-16 -1
    outer loop
      vertex 0 -6 1.33227e-15
      vertex 0 0 0
      vertex 20 -6 1.33227e-15
    endloop
  endfacet
  facet normal 0 -2.22045e-16 -1
    outer loop
      vertex 20 -6 1.33227e-15
      vertex 0 0 0
      vertex 20 0 0
    endloop
  endfacet
  facet normal 0 0 -1
    outer loop
      vertex 12.0555 11.9152 0
      vertex 0 40 0
      vertex 20 0 0
    endloop
  endfacet
  facet normal 0 0 -1
    outer loop
      vertex 10.2352 33.2377 0
      vertex 0 40 0
      vertex 20 40 0
    endloop
  endfacet
  facet normal 0 0 -1
    outer loop
      vertex 0 0 0
      vertex 0 40 0
      vertex 7.75 11 0
    endloop
  endfacet
  facet normal 0 0 -1
    outer loop
      vertex 0 0 0
      vertex 7.75 11 0
      vertex 7.79917 10.5322 0
    endloop
  endfacet
  facet normal 0 0 -1
    outer loop
      vertex 0 0 0
      vertex 7.79917 10.5322 0
      vertex 7.94452 10.0848 0
    endloop
  endfacet
  facet normal 0 0 -1
    outer loop
      vertex 0 0 0
      vertex 7.94452 10.0848 0
      vertex 8.17971 9.67748 0
    endloop
  endfacet
  facet normal 0 0 -1
    outer loop
      vertex 0 0 0
      vertex 8.17971 9.67748 0
      vertex 8.49446 9.32792 0
    endloop
  endfacet
  facet normal 0 0 -1
    outer loop
      vertex 0 0 0
      vertex 8.49446 9.32792 0
      vertex 20 0 0
    endloop
  endfacet
  facet normal 0 0 -1
    outer loop
      vertex 8.49446 9.32792 0
      vertex 8.875 9.05144 0
      vertex 20 0 0
    endloop
  endfacet
  facet normal 0 0 -1
    outer loop
      vertex 9.76481 8.76233 0
      vertex 20 0 0
      vertex 9.30471 8.86012 0
    endloop
  endfacet
  facet normal 0 0 -1
    outer loop
      vertex 10.2352 8.76233 0
      vertex 20 0 0
      vertex 9.76481 8.76233 0
    endloop
  endfacet
  facet normal 0 0 -1
    outer loop
      vertex 10.6953 8.86012 0
      vertex 20 0 0
      vertex 10.2352 8.76233 0
    endloop
  endfacet
  facet normal 0 0 -1
    outer loop
      vertex 8.17971 29.6775 0
      vertex 20 0 0
      vertex 7.94452 30.0848 0
    endloop
  endfacet
  facet normal 0 0 -1
    outer loop
      vertex 11.8203 12.3225 0
      vertex 0 40 0
      vertex 12.0555 11.9152 0
    endloop
  endfacet
  facet normal 0 0 -1
    outer loop
      vertex 8.875 12.9486 0
      vertex 0 40 0
      vertex 9.30471 13.1399 0
    endloop
  endfacet
  facet normal 0 0 -1
    outer loop
      vertex 10.6953 8.86012 0
      vertex 11.125 9.05144 0
      vertex 20 0 0
    endloop
  endfacet
  facet normal 0 0 -1
    outer loop
      vertex 9.30471 13.1399 0
      vertex 0 40 0
      vertex 9.76481 13.2377 0
    endloop
  endfacet
  facet normal 0 0 -1
    outer loop
      vertex 11.125 9.05144 0
      vertex 11.5055 9.32792 0
      vertex 20 0 0
    endloop
  endfacet
  facet normal 0 0 -1
    outer loop
      vertex 9.76481 13.2377 0
      vertex 0 40 0
      vertex 10.2352 13.2377 0
    endloop
  endfacet
  facet normal 0 0 -1
    outer loop
      vertex 11.5055 9.32792 0
      vertex 11.8203 9.67748 0
      vertex 20 0 0
    endloop
  endfacet
  facet normal 0 0 -1
    outer loop
      vertex 10.2352 13.2377 0
      vertex 0 40 0
      vertex 10.6953 13.1399 0
    endloop
  endfacet
  facet normal 0 0 -1
    outer loop
      vertex 11.8203 9.67748 0
      vertex 12.0555 10.0848 0
      vertex 20 0 0
    endloop
  endfacet
  facet normal 0 0 -1
    outer loop
      vertex 10.6953 13.1399 0
      vertex 0 40 0
      vertex 11.125 12.9486 0
    endloop
  endfacet
  facet normal 0 0 -1
    outer loop
      vertex 12.0555 10.0848 0
      vertex 12.2008 10.5322 0
      vertex 20 0 0
    endloop
  endfacet
  facet normal 0 0 -1
    outer loop
      vertex 11.125 12.9486 0
      vertex 0 40 0
      vertex 11.5055 12.6721 0
    endloop
  endfacet
  facet normal 0 0 -1
    outer loop
      vertex 12.2008 10.5322 0
      vertex 12.25 11 0
      vertex 20 0 0
    endloop
  endfacet
  facet normal 0 0 -1
    outer loop
      vertex 11.5055 12.6721 0
      vertex 0 40 0
      vertex 11.8203 12.3225 0
    endloop
  endfacet
  facet normal 0 0 -1
    outer loop
      vertex 12.25 11 0
      vertex 12.2008 11.4678 0
      vertex 20 0 0
    endloop
  endfacet
  facet normal 0 0 -1
    outer loop
      vertex 12.2008 11.4678 0
      vertex 12.0555 11.9152 0
      vertex 20 0 0
    endloop
  endfacet
  facet normal 0 0 -1
    outer loop
      vertex 8.49446 12.6721 0
      vertex 0 40 0
      vertex 8.875 12.9486 0
    endloop
  endfacet
  facet normal 0 0 -1
    outer loop
      vertex 8.17971 12.3225 0
      vertex 0 40 0
      vertex 8.49446 12.6721 0
    endloop
  endfacet
  facet normal 0 0 -1
    outer loop
      vertex 7.94452 11.9152 0
      vertex 0 40 0
      vertex 8.17971 12.3225 0
    endloop
  endfacet
  facet normal 0 0 -1
    outer loop
      vertex 7.79917 11.4678 0
      vertex 0 40 0
      vertex 7.94452 11.9152 0
    endloop
  endfacet
  facet normal 0 0 -1
    outer loop
      vertex 7.75 11 0
      vertex 0 40 0
      vertex 7.79917 11.4678 0
    endloop
  endfacet
  facet normal 0 0 -1
    outer loop
      vertex 7.79917 30.5322 0
      vertex 0 40 0
      vertex 7.75 31 0
    endloop
  endfacet
  facet normal 0 0 -1
    outer loop
      vertex 7.94452 30.0848 0
      vertex 0 40 0
      vertex 7.79917 30.5322 0
    endloop
  endfacet
  facet normal 0 0 -1
    outer loop
      vertex 20 0 0
      vertex 0 40 0
      vertex 7.94452 30.0848 0
    endloop
  endfacet
  facet normal 0 0 -1
    outer loop
      vertex 8.49446 29.3279 0
      vertex 20 0 0
      vertex 8.17971 29.6775 0
    endloop
  endfacet
  facet normal 0 0 -1
    outer loop
      vertex 12.0555 30.0848 0
      vertex 20 40 0
      vertex 11.8203 29.6775 0
    endloop
  endfacet
  facet normal 0 0 -1
    outer loop
      vertex 20 0 0
      vertex 8.49446 29.3279 0
      vertex 8.875 29.0514 0
    endloop
  endfacet
  facet normal 0 0 -1
    outer loop
      vertex 20 0 0
      vertex 8.875 29.0514 0
      vertex 9.30471 28.8601 0
    endloop
  endfacet
  facet normal 0 0 -1
    outer loop
      vertex 20 0 0
      vertex 9.30471 28.8601 0
      vertex 9.76481 28.7623 0
    endloop
  endfacet
  facet normal 0 0 -1
    outer loop
      vertex 20 0 0
      vertex 9.76481 28.7623 0
      vertex 10.2352 28.7623 0
    endloop
  endfacet
  facet normal 0 0 -1
    outer loop
      vertex 20 0 0
      vertex 10.2352 28.7623 0
      vertex 10.6953 28.8601 0
    endloop
  endfacet
  facet normal 0 0 -1
    outer loop
      vertex 20 0 0
      vertex 10.6953 28.8601 0
      vertex 11.125 29.0514 0
    endloop
  endfacet
  facet normal 0 0 -1
    outer loop
      vertex 20 0 0
      vertex 11.125 29.0514 0
      vertex 11.5055 29.3279 0
    endloop
  endfacet
  facet normal 0 0 -1
    outer loop
      vertex 20 0 0
      vertex 11.5055 29.3279 0
      vertex 11.8203 29.6775 0
    endloop
  endfacet
  facet normal 0 0 -1
    outer loop
      vertex 20 0 0
      vertex 11.8203 29.6775 0
      vertex 20 40 0
    endloop
  endfacet
  facet normal 0 0 -1
    outer loop
      vertex 12.2008 30.5322 0
      vertex 20 40 0
      vertex 12.0555 30.0848 0
    endloop
  endfacet
  facet normal 0 0 -1
    outer loop
      vertex 12.25 31 0
      vertex 20 40 0
      vertex 12.2008 30.5322 0
    endloop
  endfacet
  facet normal 0 0 -1
    outer loop
      vertex 12.2008 31.4678 0
      vertex 20 40 0
      vertex 12.25 31 0
    endloop
  endfacet
  facet normal 0 0 -1
    outer loop
      vertex 12.0555 31.9152 0
      vertex 20 40 0
      vertex 12.2008 31.4678 0
    endloop
  endfacet
  facet normal 0 0 -1
    outer loop
      vertex 11.8203 32.3225 0
      vertex 20 40 0
      vertex 12.0555 31.9152 0
    endloop
  endfacet
  facet normal 0 0 -1
    outer loop
      vertex 11.5055 32.6721 0
      vertex 20 40 0
      vertex 11.8203 32.3225 0
    endloop
  endfacet
  facet normal 0 0 -1
    outer loop
      vertex 10.2352 33.2377 0
      vertex 20 40 0
      vertex 10.6953 33.1399 0
    endloop
  endfacet
  facet normal 0 0 -1
    outer loop
      vertex 11.5055 32.6721 0
      vertex 11.125 32.9486 0
      vertex 20 40 0
    endloop
  endfacet
  facet normal 0 0 -1
    outer loop
      vertex 11.125 32.9486 0
      vertex 10.6953 33.1399 0
      vertex 20 40 0
    endloop
  endfacet
  facet normal 0 0 -1
    outer loop
      vertex 9.76481 33.2377 0
      vertex 0 40 0
      vertex 10.2352 33.2377 0
    endloop
  endfacet
  facet normal 0 0 -1
    outer loop
      vertex 9.30471 33.1399 0
      vertex 0 40 0
      vertex 9.76481 33.2377 0
    endloop
  endfacet
  facet normal 0 0 -1
    outer loop
      vertex 8.875 32.9486 0
      vertex 0 40 0
      vertex 9.30471 33.1399 0
    endloop
  endfacet
  facet normal 0 0 -1
    outer loop
      vertex 8.49446 32.6721 0
      vertex 0 40 0
      vertex 8.875 32.9486 0
    endloop
  endfacet
  facet normal 0 0 -1
    outer loop
      vertex 8.17971 32.3225 0
      vertex 0 40 0
      vertex 8.49446 32.6721 0
    endloop
  endfacet
  facet normal 0 0 -1
    outer loop
      vertex 7.94452 31.9152 0
      vertex 0 40 0
      vertex 8.17971 32.3225 0
    endloop
  endfacet
  facet normal 0 0 -1
    outer loop
      vertex 7.79917 31.4678 0
      vertex 0 40 0
      vertex 7.94452 31.9152 0
    endloop
  endfacet
  facet normal 0 0 -1
    outer loop
      vertex 7.75 31 0
      vertex 0 40 0
      vertex 7.79917 31.4678 0
    endloop
  endfacet
  facet normal 0 0 -1
    outer loop
      vertex 9.30471 8.86012 0
      vertex 20 0 0
      vertex 8.875 9.05144 0
    endloop
  endfacet
  facet normal 0 1 0
    outer loop
      vertex 0 40 0
      vertex 0 40 6
      vertex 20 40 0
    endloop
  endfacet
  facet normal 0 1 0
    outer loop
      vertex 20 40 0
      vertex 0 40 6
      vertex 20 40 6
    endloop
  endfacet
  facet normal 0 0 1
    outer loop
      vertex 9.76481 8.76233 6
      vertex 0 1.33227e-15 6
      vertex 20 1.33227e-15 6
    endloop
  endfacet
  facet normal 0 0 1
    outer loop
      vertex 7.94452 30.0848 6
      vertex 0 40 6
      vertex 20 1.33227e-15 6
    endloop
  endfacet
  facet normal 0 0 1
    outer loop
      vertex 8.875 32.9486 6
      vertex 9.30471 33.1399 6
      vertex 20 40 6
    endloop
  endfacet
  facet normal 0 0 1
    outer loop
      vertex 0 40 6
      vertex 0 1.33227e-15 6
      vertex 7.79917 10.5322 6
    endloop
  endfacet
  facet normal 0 0 1
    outer loop
      vertex 10.2352 8.76233 6
      vertex 9.76481 8.76233 6
      vertex 20 1.33227e-15 6
    endloop
  endfacet
  facet normal 0 0 1
    outer loop
      vertex 0 40 6
      vertex 7.79917 10.5322 6
      vertex 7.75 11 6
    endloop
  endfacet
  facet normal 0 0 1
    outer loop
      vertex 10.2352 33.2377 6
      vertex 10.6953 33.1399 6
      vertex 20 40 6
    endloop
  endfacet
  facet normal 0 0 1
    outer loop
      vertex 0 40 6
      vertex 7.75 11 6
      vertex 7.79917 11.4678 6
    endloop
  endfacet
  facet normal 0 0 1
    outer loop
      vertex 0 40 6
      vertex 7.79917 11.4678 6
      vertex 7.94452 11.9152 6
    endloop
  endfacet
  facet normal 0 0 1
    outer loop
      vertex 11.125 9.05144 6
      vertex 10.6953 8.86012 6
      vertex 20 1.33227e-15 6
    endloop
  endfacet
  facet normal 0 0 1
    outer loop
      vertex 0 40 6
      vertex 7.94452 11.9152 6
      vertex 8.17971 12.3225 6
    endloop
  endfacet
  facet normal 0 0 1
    outer loop
      vertex 11.5055 9.32792 6
      vertex 11.125 9.05144 6
      vertex 20 1.33227e-15 6
    endloop
  endfacet
  facet normal 0 0 1
    outer loop
      vertex 0 40 6
      vertex 8.17971 12.3225 6
      vertex 8.49446 12.6721 6
    endloop
  endfacet
  facet normal 0 0 1
    outer loop
      vertex 10.6953 8.86012 6
      vertex 10.2352 8.76233 6
      vertex 20 1.33227e-15 6
    endloop
  endfacet
  facet normal 0 0 1
    outer loop
      vertex 0 40 6
      vertex 8.49446 12.6721 6
      vertex 8.875 12.9486 6
    endloop
  endfacet
  facet normal 0 0 1
    outer loop
      vertex 0 40 6
      vertex 8.875 12.9486 6
      vertex 9.30471 13.1399 6
    endloop
  endfacet
  facet normal 0 0 1
    outer loop
      vertex 12.0555 10.0848 6
      vertex 11.8203 9.67748 6
      vertex 20 1.33227e-15 6
    endloop
  endfacet
  facet normal 0 0 1
    outer loop
      vertex 0 40 6
      vertex 9.30471 13.1399 6
      vertex 9.76481 13.2377 6
    endloop
  endfacet
  facet normal 0 0 1
    outer loop
      vertex 12.2008 10.5322 6
      vertex 12.0555 10.0848 6
      vertex 20 1.33227e-15 6
    endloop
  endfacet
  facet normal 0 0 1
    outer loop
      vertex 0 40 6
      vertex 9.76481 13.2377 6
      vertex 10.2352 13.2377 6
    endloop
  endfacet
  facet normal 0 0 1
    outer loop
      vertex 11.8203 9.67748 6
      vertex 11.5055 9.32792 6
      vertex 20 1.33227e-15 6
    endloop
  endfacet
  facet normal 0 0 1
    outer loop
      vertex 0 40 6
      vertex 10.2352 13.2377 6
      vertex 10.6953 13.1399 6
    endloop
  endfacet
  facet normal 0 0 1
    outer loop
      vertex 0 40 6
      vertex 10.6953 13.1399 6
      vertex 11.125 12.9486 6
    endloop
  endfacet
  facet normal 0 0 1
    outer loop
      vertex 12.2008 11.4678 6
      vertex 12.25 11 6
      vertex 20 1.33227e-15 6
    endloop
  endfacet
  facet normal 0 0 1
    outer loop
      vertex 0 40 6
      vertex 11.125 12.9486 6
      vertex 11.5055 12.6721 6
    endloop
  endfacet
  facet normal 0 0 1
    outer loop
      vertex 0 40 6
      vertex 11.8203 12.3225 6
      vertex 20 1.33227e-15 6
    endloop
  endfacet
  facet normal 0 0 1
    outer loop
      vertex 0 40 6
      vertex 11.5055 12.6721 6
      vertex 11.8203 12.3225 6
    endloop
  endfacet
  facet normal 0 0 1
    outer loop
      vertex 11.8203 12.3225 6
      vertex 12.0555 11.9152 6
      vertex 20 1.33227e-15 6
    endloop
  endfacet
  facet normal 0 0 1
    outer loop
      vertex 9.30471 8.86012 6
      vertex 0 1.33227e-15 6
      vertex 9.76481 8.76233 6
    endloop
  endfacet
  facet normal 0 0 1
    outer loop
      vertex 8.875 9.05144 6
      vertex 0 1.33227e-15 6
      vertex 9.30471 8.86012 6
    endloop
  endfacet
  facet normal 0 0 1
    outer loop
      vertex 8.49446 9.32792 6
      vertex 0 1.33227e-15 6
      vertex 8.875 9.05144 6
    endloop
  endfacet
  facet normal 0 0 1
    outer loop
      vertex 8.17971 9.67748 6
      vertex 0 1.33227e-15 6
      vertex 8.49446 9.32792 6
    endloop
  endfacet
  facet normal 0 0 1
    outer loop
      vertex 7.94452 10.0848 6
      vertex 0 1.33227e-15 6
      vertex 8.17971 9.67748 6
    endloop
  endfacet
  facet normal 0 0 1
    outer loop
      vertex 7.79917 10.5322 6
      vertex 0 1.33227e-15 6
      vertex 7.94452 10.0848 6
    endloop
  endfacet
  facet normal 0 0 1
    outer loop
      vertex 7.75 31 6
      vertex 0 40 6
      vertex 7.79917 30.5322 6
    endloop
  endfacet
  facet normal 0 0 1
    outer loop
      vertex 7.79917 31.4678 6
      vertex 0 40 6
      vertex 7.75 31 6
    endloop
  endfacet
  facet normal 0 0 1
    outer loop
      vertex 10.6953 33.1399 6
      vertex 11.125 32.9486 6
      vertex 20 40 6
    endloop
  endfacet
  facet normal 0 0 1
    outer loop
      vertex 7.94452 31.9152 6
      vertex 0 40 6
      vertex 7.79917 31.4678 6
    endloop
  endfacet
  facet normal 0 0 1
    outer loop
      vertex 8.17971 32.3225 6
      vertex 0 40 6
      vertex 7.94452 31.9152 6
    endloop
  endfacet
  facet normal 0 0 1
    outer loop
      vertex 8.49446 32.6721 6
      vertex 0 40 6
      vertex 8.17971 32.3225 6
    endloop
  endfacet
  facet normal 0 0 1
    outer loop
      vertex 8.875 32.9486 6
      vertex 0 40 6
      vertex 8.49446 32.6721 6
    endloop
  endfacet
  facet normal 0 0 1
    outer loop
      vertex 9.30471 33.1399 6
      vertex 9.76481 33.2377 6
      vertex 20 40 6
    endloop
  endfacet
  facet normal 0 0 1
    outer loop
      vertex 20 40 6
      vertex 0 40 6
      vertex 8.875 32.9486 6
    endloop
  endfacet
  facet normal 0 0 1
    outer loop
      vertex 9.76481 33.2377 6
      vertex 10.2352 33.2377 6
      vertex 20 40 6
    endloop
  endfacet
  facet normal 0 0 1
    outer loop
      vertex 12.2008 31.4678 6
      vertex 12.25 31 6
      vertex 20 1.33227e-15 6
    endloop
  endfacet
  facet normal 0 0 1
    outer loop
      vertex 8.17971 29.6775 6
      vertex 7.94452 30.0848 6
      vertex 20 1.33227e-15 6
    endloop
  endfacet
  facet normal 0 0 1
    outer loop
      vertex 12.0555 30.0848 6
      vertex 11.8203 29.6775 6
      vertex 20 1.33227e-15 6
    endloop
  endfacet
  facet normal 0 0 1
    outer loop
      vertex 20 40 6
      vertex 11.125 32.9486 6
      vertex 11.5055 32.6721 6
    endloop
  endfacet
  facet normal 0 0 1
    outer loop
      vertex 12.2008 30.5322 6
      vertex 12.0555 30.0848 6
      vertex 20 1.33227e-15 6
    endloop
  endfacet
  facet normal 0 0 1
    outer loop
      vertex 20 40 6
      vertex 11.5055 32.6721 6
      vertex 11.8203 32.3225 6
    endloop
  endfacet
  facet normal 0 0 1
    outer loop
      vertex 12.25 31 6
      vertex 12.2008 30.5322 6
      vertex 20 1.33227e-15 6
    endloop
  endfacet
  facet normal 0 0 1
    outer loop
      vertex 20 40 6
      vertex 11.8203 32.3225 6
      vertex 12.0555 31.9152 6
    endloop
  endfacet
  facet normal 0 0 1
    outer loop
      vertex 20 40 6
      vertex 12.2008 31.4678 6
      vertex 20 1.33227e-15 6
    endloop
  endfacet
  facet normal 0 0 1
    outer loop
      vertex 20 40 6
      vertex 12.0555 31.9152 6
      vertex 12.2008 31.4678 6
    endloop
  endfacet
  facet normal 0 0 1
    outer loop
      vertex 11.8203 29.6775 6
      vertex 11.5055 29.3279 6
      vertex 20 1.33227e-15 6
    endloop
  endfacet
  facet normal 0 0 1
    outer loop
      vertex 11.5055 29.3279 6
      vertex 11.125 29.0514 6
      vertex 20 1.33227e-15 6
    endloop
  endfacet
  facet normal 0 0 1
    outer loop
      vertex 11.125 29.0514 6
      vertex 10.6953 28.8601 6
      vertex 20 1.33227e-15 6
    endloop
  endfacet
  facet normal 0 0 1
    outer loop
      vertex 10.6953 28.8601 6
      vertex 10.2352 28.7623 6
      vertex 20 1.33227e-15 6
    endloop
  endfacet
  facet normal 0 0 1
    outer loop
      vertex 10.2352 28.7623 6
      vertex 9.76481 28.7623 6
      vertex 20 1.33227e-15 6
    endloop
  endfacet
  facet normal 0 0 1
    outer loop
      vertex 9.76481 28.7623 6
      vertex 9.30471 28.8601 6
      vertex 20 1.33227e-15 6
    endloop
  endfacet
  facet normal 0 0 1
    outer loop
      vertex 9.30471 28.8601 6
      vertex 8.875 29.0514 6
      vertex 20 1.33227e-15 6
    endloop
  endfacet
  facet normal 0 0 1
    outer loop
      vertex 8.875 29.0514 6
      vertex 8.49446 29.3279 6
      vertex 20 1.33227e-15 6
    endloop
  endfacet
  facet normal 0 0 1
    outer loop
      vertex 8.49446 29.3279 6
      vertex 8.17971 29.6775 6
      vertex 20 1.33227e-15 6
    endloop
  endfacet
  facet normal 0 0 1
    outer loop
      vertex 7.79917 30.5322 6
      vertex 0 40 6
      vertex 7.94452 30.0848 6
    endloop
  endfacet
  facet normal 0 0 1
    outer loop
      vertex 12.0555 11.9152 6
      vertex 12.2008 11.4678 6
      vertex 20 1.33227e-15 6
    endloop
  endfacet
  facet normal 0 0 1
    outer loop
      vertex 12.25 11 6
      vertex 12.2008 10.5322 6
      vertex 20 1.33227e-15 6
    endloop
  endfacet
  facet normal 0 1 -2.22045e-16
    outer loop
      vertex 12.0555 3.75592e-15 16.9152
      vertex 0 9.99201e-15 45
      vertex 20 1.33227e-15 6
    endloop
  endfacet
  facet normal 0 1 -2.22045e-16
    outer loop
      vertex 10.2352 8.49047e-15 38.2377
      vertex 0 9.99201e-15 45
      vertex 20 9.99201e-15 45
    endloop
  endfacet
  facet normal 0 1 -2.22045e-16
    outer loop
      vertex 0 1.33227e-15 6
      vertex 0 9.99201e-15 45
      vertex 7.75 3.55271e-15 16
    endloop
  endfacet
  facet normal 0 1 -2.22045e-16
    outer loop
      vertex 0 1.33227e-15 6
      vertex 7.75 3.55271e-15 16
      vertex 7.79917 3.44884e-15 15.5322
    endloop
  endfacet
  facet normal 0 1 -2.22045e-16
    outer loop
      vertex 0 1.33227e-15 6
      vertex 7.79917 3.44884e-15 15.5322
      vertex 7.94452 3.34951e-15 15.0848
    endloop
  endfacet
  facet normal 0 1 -2.22045e-16
    outer loop
      vertex 0 1.33227e-15 6
      vertex 7.94452 3.34951e-15 15.0848
      vertex 8.17971 3.25906e-15 14.6775
    endloop
  endfacet
  facet normal 0 1 -2.22045e-16
    outer loop
      vertex 0 1.33227e-15 6
      vertex 8.17971 3.25906e-15 14.6775
      vertex 8.49446 3.18144e-15 14.3279
    endloop
  endfacet
  facet normal 0 1 -2.22045e-16
    outer loop
      vertex 0 1.33227e-15 6
      vertex 8.49446 3.18144e-15 14.3279
      vertex 8.875 3.12005e-15 14.0514
    endloop
  endfacet
  facet normal 0 1 -2.22045e-16
    outer loop
      vertex 0 1.33227e-15 6
      vertex 8.875 3.12005e-15 14.0514
      vertex 20 1.33227e-15 6
    endloop
  endfacet
  facet normal 0 1 -2.22045e-16
    outer loop
      vertex 9.76481 3.05585e-15 13.7623
      vertex 20 1.33227e-15 6
      vertex 9.30471 3.07757e-15 13.8601
    endloop
  endfacet
  facet normal 0 1 -2.22045e-16
    outer loop
      vertex 10.2352 3.05585e-15 13.7623
      vertex 20 1.33227e-15 6
      vertex 9.76481 3.05585e-15 13.7623
    endloop
  endfacet
  facet normal 0 1 -2.22045e-16
    outer loop
      vertex 10.6953 3.07757e-15 13.8601
      vertex 20 1.33227e-15 6
      vertex 10.2352 3.05585e-15 13.7623
    endloop
  endfacet
  facet normal 0 1 -2.22045e-16
    outer loop
      vertex 8.17971 7.69995e-15 34.6775
      vertex 20 1.33227e-15 6
      vertex 7.94452 7.7904e-15 35.0848
    endloop
  endfacet
  facet normal 0 1 -2.22045e-16
    outer loop
      vertex 11.8203 3.84637e-15 17.3225
      vertex 0 9.99201e-15 45
      vertex 12.0555 3.75592e-15 16.9152
    endloop
  endfacet
  facet normal 0 1 -2.22045e-16
    outer loop
      vertex 8.875 3.98538e-15 17.9486
      vertex 0 9.99201e-15 45
      vertex 9.30471 4.02786e-15 18.1399
    endloop
  endfacet
  facet normal 0 1 -2.22045e-16
    outer loop
      vertex 10.6953 3.07757e-15 13.8601
      vertex 11.125 3.12005e-15 14.0514
      vertex 20 1.33227e-15 6
    endloop
  endfacet
  facet normal 0 1 -2.22045e-16
    outer loop
      vertex 9.30471 4.02786e-15 18.1399
      vertex 0 9.99201e-15 45
      vertex 9.76481 4.04958e-15 18.2377
    endloop
  endfacet
  facet normal 0 1 -2.22045e-16
    outer loop
      vertex 11.125 3.12005e-15 14.0514
      vertex 11.5055 3.18144e-15 14.3279
      vertex 20 1.33227e-15 6
    endloop
  endfacet
  facet normal 0 1 -2.22045e-16
    outer loop
      vertex 9.76481 4.04958e-15 18.2377
      vertex 0 9.99201e-15 45
      vertex 10.2352 4.04958e-15 18.2377
    endloop
  endfacet
  facet normal 0 1 -2.22045e-16
    outer loop
      vertex 11.5055 3.18144e-15 14.3279
      vertex 11.8203 3.25906e-15 14.6775
      vertex 20 1.33227e-15 6
    endloop
  endfacet
  facet normal 0 1 -2.22045e-16
    outer loop
      vertex 10.2352 4.04958e-15 18.2377
      vertex 0 9.99201e-15 45
      vertex 10.6953 4.02786e-15 18.1399
    endloop
  endfacet
  facet normal 0 1 -2.22045e-16
    outer loop
      vertex 11.8203 3.25906e-15 14.6775
      vertex 12.0555 3.34951e-15 15.0848
      vertex 20 1.33227e-15 6
    endloop
  endfacet
  facet normal 0 1 -2.22045e-16
    outer loop
      vertex 10.6953 4.02786e-15 18.1399
      vertex 0 9.99201e-15 45
      vertex 11.125 3.98538e-15 17.9486
    endloop
  endfacet
  facet normal 0 1 -2.22045e-16
    outer loop
      vertex 12.0555 3.34951e-15 15.0848
      vertex 12.2008 3.44884e-15 15.5322
      vertex 20 1.33227e-15 6
    endloop
  endfacet
  facet normal 0 1 -2.22045e-16
    outer loop
      vertex 11.125 3.98538e-15 17.9486
      vertex 0 9.99201e-15 45
      vertex 11.5055 3.92399e-15 17.6721
    endloop
  endfacet
  facet normal 0 1 -2.22045e-16
    outer loop
      vertex 12.2008 3.44884e-15 15.5322
      vertex 12.25 3.55271e-15 16
      vertex 20 1.33227e-15 6
    endloop
  endfacet
  facet normal 0 1 -2.22045e-16
    outer loop
      vertex 11.5055 3.92399e-15 17.6721
      vertex 0 9.99201e-15 45
      vertex 11.8203 3.84637e-15 17.3225
    endloop
  endfacet
  facet normal 0 1 -2.22045e-16
    outer loop
      vertex 12.25 3.55271e-15 16
      vertex 12.2008 3.65659e-15 16.4678
      vertex 20 1.33227e-15 6
    endloop
  endfacet
  facet normal 0 1 -2.22045e-16
    outer loop
      vertex 12.2008 3.65659e-15 16.4678
      vertex 12.0555 3.75592e-15 16.9152
      vertex 20 1.33227e-15 6
    endloop
  endfacet
  facet normal 0 1 -2.22045e-16
    outer loop
      vertex 8.49446 3.92399e-15 17.6721
      vertex 0 9.99201e-15 45
      vertex 8.875 3.98538e-15 17.9486
    endloop
  endfacet
  facet normal 0 1 -2.22045e-16
    outer loop
      vertex 8.17971 3.84637e-15 17.3225
      vertex 0 9.99201e-15 45
      vertex 8.49446 3.92399e-15 17.6721
    endloop
  endfacet
  facet normal 0 1 -2.22045e-16
    outer loop
      vertex 7.94452 3.75592e-15 16.9152
      vertex 0 9.99201e-15 45
      vertex 8.17971 3.84637e-15 17.3225
    endloop
  endfacet
  facet normal 0 1 -2.22045e-16
    outer loop
      vertex 7.79917 3.65659e-15 16.4678
      vertex 0 9.99201e-15 45
      vertex 7.94452 3.75592e-15 16.9152
    endloop
  endfacet
  facet normal 0 1 -2.22045e-16
    outer loop
      vertex 7.75 3.55271e-15 16
      vertex 0 9.99201e-15 45
      vertex 7.79917 3.65659e-15 16.4678
    endloop
  endfacet
  facet normal 0 1 -2.22045e-16
    outer loop
      vertex 7.79917 7.88973e-15 35.5322
      vertex 0 9.99201e-15 45
      vertex 7.75 7.99361e-15 36
    endloop
  endfacet
  facet normal 0 1 -2.22045e-16
    outer loop
      vertex 7.94452 7.7904e-15 35.0848
      vertex 0 9.99201e-15 45
      vertex 7.79917 7.88973e-15 35.5322
    endloop
  endfacet
  facet normal 0 1 -2.22045e-16
    outer loop
      vertex 20 1.33227e-15 6
      vertex 0 9.99201e-15 45
      vertex 7.94452 7.7904e-15 35.0848
    endloop
  endfacet
  facet normal 0 1 -2.22045e-16
    outer loop
      vertex 8.49446 7.62233e-15 34.3279
      vertex 20 1.33227e-15 6
      vertex 8.17971 7.69995e-15 34.6775
    endloop
  endfacet
  facet normal 0 1 -2.22045e-16
    outer loop
      vertex 12.0555 7.7904e-15 35.0848
      vertex 20 9.99201e-15 45
      vertex 11.8203 7.69995e-15 34.6775
    endloop
  endfacet
  facet normal 0 1 -2.22045e-16
    outer loop
      vertex 20 1.33227e-15 6
      vertex 8.49446 7.62233e-15 34.3279
      vertex 8.875 7.56094e-15 34.0514
    endloop
  endfacet
  facet normal 0 1 -2.22045e-16
    outer loop
      vertex 20 1.33227e-15 6
      vertex 8.875 7.56094e-15 34.0514
      vertex 9.30471 7.51846e-15 33.8601
    endloop
  endfacet
  facet normal 0 1 -2.22045e-16
    outer loop
      vertex 20 1.33227e-15 6
      vertex 9.30471 7.51846e-15 33.8601
      vertex 9.76481 7.49674e-15 33.7623
    endloop
  endfacet
  facet normal 0 1 -2.22045e-16
    outer loop
      vertex 20 1.33227e-15 6
      vertex 9.76481 7.49674e-15 33.7623
      vertex 10.2352 7.49674e-15 33.7623
    endloop
  endfacet
  facet normal 0 1 -2.22045e-16
    outer loop
      vertex 20 1.33227e-15 6
      vertex 10.2352 7.49674e-15 33.7623
      vertex 10.6953 7.51846e-15 33.8601
    endloop
  endfacet
  facet normal 0 1 -2.22045e-16
    outer loop
      vertex 20 1.33227e-15 6
      vertex 10.6953 7.51846e-15 33.8601
      vertex 11.125 7.56094e-15 34.0514
    endloop
  endfacet
  facet normal 0 1 -2.22045e-16
    outer loop
      vertex 20 1.33227e-15 6
      vertex 11.125 7.56094e-15 34.0514
      vertex 11.5055 7.62233e-15 34.3279
    endloop
  endfacet
  facet normal 0 1 -2.22045e-16
    outer loop
      vertex 20 1.33227e-15 6
      vertex 11.5055 7.62233e-15 34.3279
      vertex 11.8203 7.69995e-15 34.6775
    endloop
  endfacet
  facet normal 0 1 -2.22045e-16
    outer loop
      vertex 20 1.33227e-15 6
      vertex 11.8203 7.69995e-15 34.6775
      vertex 20 9.99201e-15 45
    endloop
  endfacet
  facet normal 0 1 -2.22045e-16
    outer loop
      vertex 12.2008 7.88973e-15 35.5322
      vertex 20 9.99201e-15 45
      vertex 12.0555 7.7904e-15 35.0848
    endloop
  endfacet
  facet normal 0 1 -2.22045e-16
    outer loop
      vertex 12.25 7.99361e-15 36
      vertex 20 9.99201e-15 45
      vertex 12.2008 7.88973e-15 35.5322
    endloop
  endfacet
  facet normal 0 1 -2.22045e-16
    outer loop
      vertex 12.2008 8.09748e-15 36.4678
      vertex 20 9.99201e-15 45
      vertex 12.25 7.99361e-15 36
    endloop
  endfacet
  facet normal 0 1 -2.22045e-16
    outer loop
      vertex 12.0555 8.19681e-15 36.9152
      vertex 20 9.99201e-15 45
      vertex 12.2008 8.09748e-15 36.4678
    endloop
  endfacet
  facet normal 0 1 -2.22045e-16
    outer loop
      vertex 11.8203 8.28726e-15 37.3225
      vertex 20 9.99201e-15 45
      vertex 12.0555 8.19681e-15 36.9152
    endloop
  endfacet
  facet normal 0 1 -2.22045e-16
    outer loop
      vertex 11.5055 8.36488e-15 37.6721
      vertex 20 9.99201e-15 45
      vertex 11.8203 8.28726e-15 37.3225
    endloop
  endfacet
  facet normal 0 1 -2.22045e-16
    outer loop
      vertex 10.2352 8.49047e-15 38.2377
      vertex 20 9.99201e-15 45
      vertex 10.6953 8.46875e-15 38.1399
    endloop
  endfacet
  facet normal 0 1 -2.22045e-16
    outer loop
      vertex 11.5055 8.36488e-15 37.6721
      vertex 11.125 8.42627e-15 37.9486
      vertex 20 9.99201e-15 45
    endloop
  endfacet
  facet normal 0 1 -2.22045e-16
    outer loop
      vertex 11.125 8.42627e-15 37.9486
      vertex 10.6953 8.46875e-15 38.1399
      vertex 20 9.99201e-15 45
    endloop
  endfacet
  facet normal 0 1 -2.22045e-16
    outer loop
      vertex 9.76481 8.49047e-15 38.2377
      vertex 0 9.99201e-15 45
      vertex 10.2352 8.49047e-15 38.2377
    endloop
  endfacet
  facet normal 0 1 -2.22045e-16
    outer loop
      vertex 9.30471 8.46875e-15 38.1399
      vertex 0 9.99201e-15 45
      vertex 9.76481 8.49047e-15 38.2377
    endloop
  endfacet
  facet normal 0 1 -2.22045e-16
    outer loop
      vertex 8.875 8.42627e-15 37.9486
      vertex 0 9.99201e-15 45
      vertex 9.30471 8.46875e-15 38.1399
    endloop
  endfacet
  facet normal 0 1 -2.22045e-16
    outer loop
      vertex 8.49446 8.36488e-15 37.6721
      vertex 0 9.99201e-15 45
      vertex 8.875 8.42627e-15 37.9486
    endloop
  endfacet
  facet normal 0 1 -2.22045e-16
    outer loop
      vertex 8.17971 8.28726e-15 37.3225
      vertex 0 9.99201e-15 45
      vertex 8.49446 8.36488e-15 37.6721
    endloop
  endfacet
  facet normal 0 1 -2.22045e-16
    outer loop
      vertex 7.94452 8.19681e-15 36.9152
      vertex 0 9.99201e-15 45
      vertex 8.17971 8.28726e-15 37.3225
    endloop
  endfacet
  facet normal 0 1 -2.22045e-16
    outer loop
      vertex 7.79917 8.09748e-15 36.4678
      vertex 0 9.99201e-15 45
      vertex 7.94452 8.19681e-15 36.9152
    endloop
  endfacet
  facet normal 0 1 -2.22045e-16
    outer loop
      vertex 7.75 7.99361e-15 36
      vertex 0 9.99201e-15 45
      vertex 7.79917 8.09748e-15 36.4678
    endloop
  endfacet
  facet normal 0 1 -2.22045e-16
    outer loop
      vertex 9.30471 3.07757e-15 13.8601
      vertex 20 1.33227e-15 6
      vertex 8.875 3.12005e-15 14.0514
    endloop
  endfacet
  facet normal 0 2.22045e-16 1
    outer loop
      vertex 0 9.99201e-15 45
      vertex 0 -6 45
      vertex 20 -6 45
    endloop
  endfacet
  facet normal 0 2.22045e-16 1
    outer loop
      vertex 20 9.99201e-15 45
      vertex 0 9.99201e-15 45
      vertex 20 -6 45
    endloop
  endfacet
  facet normal 1 0 0
    outer loop
      vertex 20 -6 45
      vertex 20 -6 1.33227e-15
      vertex 20 0 0
    endloop
  endfacet
  facet normal 1 0 0
    outer loop
      vertex 20 1.33227e-15 6
      vertex 20 9.99201e-15 45
      vertex 20 -6 45
    endloop
  endfacet
  facet normal 1 0 0
    outer loop
      vertex 20 1.33227e-15 6
      vertex 20 -6 45
      vertex 20 0 0
    endloop
  endfacet
  facet normal 1 0 0
    outer loop
      vertex 20 40 0
      vertex 20 1.33227e-15 6
      vertex 20 0 0
    endloop
  endfacet
  facet normal 1 0 0
    outer loop
      vertex 20 40 6
      vertex 20 1.33227e-15 6
      vertex 20 40 0
    endloop
  endfacet
  facet normal 0.994522 2.321e-17 0.104529
    outer loop
      vertex 7.79917 -6 15.5322
      vertex 7.79917 3.44884e-15 15.5322
      vertex 7.75 3.55271e-15 16
    endloop
  endfacet
  facet normal 0.994522 2.321e-17 0.104529
    outer loop
      vertex 7.75 -6 16
      vertex 7.79917 -6 15.5322
      vertex 7.75 3.55271e-15 16
    endloop
  endfacet
  facet normal 0.951056 6.86157e-17 0.309017
    outer loop
      vertex 7.94452 -6 15.0848
      vertex 7.94452 3.34951e-15 15.0848
      vertex 7.79917 3.44884e-15 15.5322
    endloop
  endfacet
  facet normal 0.951056 6.86157e-17 0.309017
    outer loop
      vertex 7.79917 -6 15.5322
      vertex 7.94452 -6 15.0848
      vertex 7.79917 3.44884e-15 15.5322
    endloop
  endfacet
  facet normal 0.866026 1.11022e-16 0.499999
    outer loop
      vertex 8.17971 -6 14.6775
      vertex 8.17971 3.25906e-15 14.6775
      vertex 7.94452 3.34951e-15 15.0848
    endloop
  endfacet
  facet normal 0.866026 1.11022e-16 0.499999
    outer loop
      vertex 7.94452 -6 15.0848
      vertex 8.17971 -6 14.6775
      vertex 7.94452 3.34951e-15 15.0848
    endloop
  endfacet
  facet normal 0.743145 1.48577e-16 0.66913
    outer loop
      vertex 8.49446 -6 14.3279
      vertex 8.49446 3.18144e-15 14.3279
      vertex 8.17971 3.25906e-15 14.6775
    endloop
  endfacet
  facet normal 0.743145 1.48577e-16 0.66913
    outer loop
      vertex 8.17971 -6 14.6775
      vertex 8.49446 -6 14.3279
      vertex 8.17971 3.25906e-15 14.6775
    endloop
  endfacet
  facet normal 0.587785 1.79638e-16 0.809017
    outer loop
      vertex 8.875 -6 14.0514
      vertex 8.875 3.12005e-15 14.0514
      vertex 8.49446 3.18144e-15 14.3279
    endloop
  endfacet
  facet normal 0.587785 1.79638e-16 0.809017
    outer loop
      vertex 8.49446 -6 14.3279
      vertex 8.875 -6 14.0514
      vertex 8.49446 3.18144e-15 14.3279
    endloop
  endfacet
  facet normal 0.406736 2.02848e-16 0.913546
    outer loop
      vertex 9.30471 -6 13.8601
      vertex 9.30471 3.07757e-15 13.8601
      vertex 8.875 3.12005e-15 14.0514
    endloop
  endfacet
  facet normal 0.406736 2.02848e-16 0.913546
    outer loop
      vertex 8.875 -6 14.0514
      vertex 9.30471 -6 13.8601
      vertex 8.875 3.12005e-15 14.0514
    endloop
  endfacet
  facet normal 0.207912 2.17192e-16 0.978148
    outer loop
      vertex 9.76481 -6 13.7623
      vertex 9.76481 3.05585e-15 13.7623
      vertex 9.30471 3.07757e-15 13.8601
    endloop
  endfacet
  facet normal 0.207912 2.17192e-16 0.978148
    outer loop
      vertex 9.30471 -6 13.8601
      vertex 9.76481 -6 13.7623
      vertex 9.30471 3.07757e-15 13.8601
    endloop
  endfacet
  facet normal 0 2.22045e-16 1
    outer loop
      vertex 10.2352 -6 13.7623
      vertex 10.2352 3.05585e-15 13.7623
      vertex 9.76481 3.05585e-15 13.7623
    endloop
  endfacet
  facet normal 0 2.22045e-16 1
    outer loop
      vertex 9.76481 -6 13.7623
      vertex 10.2352 -6 13.7623
      vertex 9.76481 3.05585e-15 13.7623
    endloop
  endfacet
  facet normal -0.207912 2.17192e-16 0.978148
    outer loop
      vertex 10.6953 -6 13.8601
      vertex 10.6953 3.07757e-15 13.8601
      vertex 10.2352 3.05585e-15 13.7623
    endloop
  endfacet
  facet normal -0.207912 2.17192e-16 0.978148
    outer loop
      vertex 10.2352 -6 13.7623
      vertex 10.6953 -6 13.8601
      vertex 10.2352 3.05585e-15 13.7623
    endloop
  endfacet
  facet normal -0.406736 2.02848e-16 0.913546
    outer loop
      vertex 11.125 -6 14.0514
      vertex 11.125 3.12005e-15 14.0514
      vertex 10.6953 3.07757e-15 13.8601
    endloop
  endfacet
  facet normal -0.406736 2.02848e-16 0.913546
    outer loop
      vertex 10.6953 -6 13.8601
      vertex 11.125 -6 14.0514
      vertex 10.6953 3.07757e-15 13.8601
    endloop
  endfacet
  facet normal -0.587785 1.79638e-16 0.809017
    outer loop
      vertex 11.5055 -6 14.3279
      vertex 11.5055 3.18144e-15 14.3279
      vertex 11.125 3.12005e-15 14.0514
    endloop
  endfacet
  facet normal -0.587785 1.79638e-16 0.809017
    outer loop
      vertex 11.125 -6 14.0514
      vertex 11.5055 -6 14.3279
      vertex 11.125 3.12005e-15 14.0514
    endloop
  endfacet
  facet normal -0.743145 1.48577e-16 0.66913
    outer loop
      vertex 11.8203 3.25906e-15 14.6775
      vertex 11.5055 3.18144e-15 14.3279
      vertex 11.8203 -6 14.6775
    endloop
  endfacet
  facet normal -0.743145 1.48577e-16 0.66913
    outer loop
      vertex 11.8203 -6 14.6775
      vertex 11.5055 3.18144e-15 14.3279
      vertex 11.5055 -6 14.3279
    endloop
  endfacet
  facet normal -0.866026 1.11022e-16 0.499999
    outer loop
      vertex 12.0555 3.34951e-15 15.0848
      vertex 11.8203 3.25906e-15 14.6775
      vertex 12.0555 -6 15.0848
    endloop
  endfacet
  facet normal -0.866026 1.11022e-16 0.499999
    outer loop
      vertex 12.0555 -6 15.0848
      vertex 11.8203 3.25906e-15 14.6775
      vertex 11.8203 -6 14.6775
    endloop
  endfacet
  facet normal -0.951056 6.86157e-17 0.309017
    outer loop
      vertex 12.2008 3.44884e-15 15.5322
      vertex 12.0555 3.34951e-15 15.0848
      vertex 12.2008 -6 15.5322
    endloop
  endfacet
  facet normal -0.951056 6.86157e-17 0.309017
    outer loop
      vertex 12.2008 -6 15.5322
      vertex 12.0555 3.34951e-15 15.0848
      vertex 12.0555 -6 15.0848
    endloop
  endfacet
  facet normal -0.994522 2.321e-17 0.104529
    outer loop
      vertex 12.25 3.55271e-15 16
      vertex 12.2008 3.44884e-15 15.5322
      vertex 12.25 -6 16
    endloop
  endfacet
  facet normal -0.994522 2.321e-17 0.104529
    outer loop
      vertex 12.25 -6 16
      vertex 12.2008 3.44884e-15 15.5322
      vertex 12.2008 -6 15.5322
    endloop
  endfacet
  facet normal -0.994522 -2.321e-17 -0.104529
    outer loop
      vertex 12.25 3.55271e-15 16
      vertex 12.25 -6 16
      vertex 12.2008 3.65659e-15 16.4678
    endloop
  endfacet
  facet normal -0.994522 -2.321e-17 -0.104529
    outer loop
      vertex 12.2008 3.65659e-15 16.4678
      vertex 12.25 -6 16
      vertex 12.2008 -6 16.4678
    endloop
  endfacet
  facet normal -0.951056 -6.86157e-17 -0.309017
    outer loop
      vertex 12.2008 3.65659e-15 16.4678
      vertex 12.2008 -6 16.4678
      vertex 12.0555 3.75592e-15 16.9152
    endloop
  endfacet
  facet normal -0.951056 -6.86157e-17 -0.309017
    outer loop
      vertex 12.0555 3.75592e-15 16.9152
      vertex 12.2008 -6 16.4678
      vertex 12.0555 -6 16.9152
    endloop
  endfacet
  facet normal -0.866026 -1.11022e-16 -0.499999
    outer loop
      vertex 12.0555 3.75592e-15 16.9152
      vertex 12.0555 -6 16.9152
      vertex 11.8203 3.84637e-15 17.3225
    endloop
  endfacet
  facet normal -0.866026 -1.11022e-16 -0.499999
    outer loop
      vertex 11.8203 3.84637e-15 17.3225
      vertex 12.0555 -6 16.9152
      vertex 11.8203 -6 17.3225
    endloop
  endfacet
  facet normal -0.743145 -1.48577e-16 -0.66913
    outer loop
      vertex 11.8203 3.84637e-15 17.3225
      vertex 11.8203 -6 17.3225
      vertex 11.5055 3.92399e-15 17.6721
    endloop
  endfacet
  facet normal -0.743145 -1.48577e-16 -0.66913
    outer loop
      vertex 11.5055 3.92399e-15 17.6721
      vertex 11.8203 -6 17.3225
      vertex 11.5055 -6 17.6721
    endloop
  endfacet
  facet normal -0.587785 -1.79638e-16 -0.809017
    outer loop
      vertex 11.5055 3.92399e-15 17.6721
      vertex 11.5055 -6 17.6721
      vertex 11.125 3.98538e-15 17.9486
    endloop
  endfacet
  facet normal -0.587785 -1.79638e-16 -0.809017
    outer loop
      vertex 11.125 3.98538e-15 17.9486
      vertex 11.5055 -6 17.6721
      vertex 11.125 -6 17.9486
    endloop
  endfacet
  facet normal -0.406736 -2.02848e-16 -0.913546
    outer loop
      vertex 11.125 3.98538e-15 17.9486
      vertex 11.125 -6 17.9486
      vertex 10.6953 4.02786e-15 18.1399
    endloop
  endfacet
  facet normal -0.406736 -2.02848e-16 -0.913546
    outer loop
      vertex 10.6953 4.02786e-15 18.1399
      vertex 11.125 -6 17.9486
      vertex 10.6953 -6 18.1399
    endloop
  endfacet
  facet normal -0.207912 -2.17192e-16 -0.978148
    outer loop
      vertex 10.6953 4.02786e-15 18.1399
      vertex 10.6953 -6 18.1399
      vertex 10.2352 4.04958e-15 18.2377
    endloop
  endfacet
  facet normal -0.207912 -2.17192e-16 -0.978148
    outer loop
      vertex 10.2352 4.04958e-15 18.2377
      vertex 10.6953 -6 18.1399
      vertex 10.2352 -6 18.2377
    endloop
  endfacet
  facet normal 0 -2.22045e-16 -1
    outer loop
      vertex 10.2352 4.04958e-15 18.2377
      vertex 10.2352 -6 18.2377
      vertex 9.76481 4.04958e-15 18.2377
    endloop
  endfacet
  facet normal 0 -2.22045e-16 -1
    outer loop
      vertex 9.76481 4.04958e-15 18.2377
      vertex 10.2352 -6 18.2377
      vertex 9.76481 -6 18.2377
    endloop
  endfacet
  facet normal 0.207912 -2.17192e-16 -0.978148
    outer loop
      vertex 9.76481 4.04958e-15 18.2377
      vertex 9.76481 -6 18.2377
      vertex 9.30471 4.02786e-15 18.1399
    endloop
  endfacet
  facet normal 0.207912 -2.17192e-16 -0.978148
    outer loop
      vertex 9.30471 4.02786e-15 18.1399
      vertex 9.76481 -6 18.2377
      vertex 9.30471 -6 18.1399
    endloop
  endfacet
  facet normal 0.406736 -2.02848e-16 -0.913546
    outer loop
      vertex 9.30471 4.02786e-15 18.1399
      vertex 9.30471 -6 18.1399
      vertex 8.875 3.98538e-15 17.9486
    endloop
  endfacet
  facet normal 0.406736 -2.02848e-16 -0.913546
    outer loop
      vertex 8.875 3.98538e-15 17.9486
      vertex 9.30471 -6 18.1399
      vertex 8.875 -6 17.9486
    endloop
  endfacet
  facet normal 0.587785 -1.79638e-16 -0.809017
    outer loop
      vertex 8.875 3.98538e-15 17.9486
      vertex 8.875 -6 17.9486
      vertex 8.49446 3.92399e-15 17.6721
    endloop
  endfacet
  facet normal 0.587785 -1.79638e-16 -0.809017
    outer loop
      vertex 8.49446 3.92399e-15 17.6721
      vertex 8.875 -6 17.9486
      vertex 8.49446 -6 17.6721
    endloop
  endfacet
  facet normal 0.743145 -1.48577e-16 -0.66913
    outer loop
      vertex 8.17971 3.84637e-15 17.3225
      vertex 8.49446 3.92399e-15 17.6721
      vertex 8.49446 -6 17.6721
    endloop
  endfacet
  facet normal 0.743145 -1.48577e-16 -0.66913
    outer loop
      vertex 8.17971 -6 17.3225
      vertex 8.17971 3.84637e-15 17.3225
      vertex 8.49446 -6 17.6721
    endloop
  endfacet
  facet normal 0.866026 -1.11022e-16 -0.499999
    outer loop
      vertex 7.94452 3.75592e-15 16.9152
      vertex 8.17971 3.84637e-15 17.3225
      vertex 8.17971 -6 17.3225
    endloop
  endfacet
  facet normal 0.866026 -1.11022e-16 -0.499999
    outer loop
      vertex 7.94452 -6 16.9152
      vertex 7.94452 3.75592e-15 16.9152
      vertex 8.17971 -6 17.3225
    endloop
  endfacet
  facet normal 0.951056 -6.86157e-17 -0.309017
    outer loop
      vertex 7.79917 3.65659e-15 16.4678
      vertex 7.94452 3.75592e-15 16.9152
      vertex 7.94452 -6 16.9152
    endloop
  endfacet
  facet normal 0.951056 -6.86157e-17 -0.309017
    outer loop
      vertex 7.79917 -6 16.4678
      vertex 7.79917 3.65659e-15 16.4678
      vertex 7.94452 -6 16.9152
    endloop
  endfacet
  facet normal 0.994522 -2.321e-17 -0.104529
    outer loop
      vertex 7.75 3.55271e-15 16
      vertex 7.79917 3.65659e-15 16.4678
      vertex 7.79917 -6 16.4678
    endloop
  endfacet
  facet normal 0.994522 -2.321e-17 -0.104529
    outer loop
      vertex 7.75 -6 16
      vertex 7.75 3.55271e-15 16
      vertex 7.79917 -6 16.4678
    endloop
  endfacet
  facet normal 0.951056 6.86157e-17 0.309017
    outer loop
      vertex 7.94452 -6 35.0848
      vertex 7.94452 7.7904e-15 35.0848
      vertex 7.79917 7.88973e-15 35.5322
    endloop
  endfacet
  facet normal 0.951056 6.86157e-17 0.309017
    outer loop
      vertex 7.79917 -6 35.5322
      vertex 7.94452 -6 35.0848
      vertex 7.79917 7.88973e-15 35.5322
    endloop
  endfacet
  facet normal 0.994522 2.321e-17 0.104529
    outer loop
      vertex 7.79917 -6 35.5322
      vertex 7.79917 7.88973e-15 35.5322
      vertex 7.75 7.99361e-15 36
    endloop
  endfacet
  facet normal 0.994522 2.321e-17 0.104529
    outer loop
      vertex 7.75 -6 36
      vertex 7.79917 -6 35.5322
      vertex 7.75 7.99361e-15 36
    endloop
  endfacet
  facet normal 0.866026 1.11022e-16 0.499999
    outer loop
      vertex 8.17971 -6 34.6775
      vertex 8.17971 7.69995e-15 34.6775
      vertex 7.94452 7.7904e-15 35.0848
    endloop
  endfacet
  facet normal 0.866026 1.11022e-16 0.499999
    outer loop
      vertex 7.94452 -6 35.0848
      vertex 8.17971 -6 34.6775
      vertex 7.94452 7.7904e-15 35.0848
    endloop
  endfacet
  facet normal 0.743145 1.48577e-16 0.66913
    outer loop
      vertex 8.49446 -6 34.3279
      vertex 8.49446 7.62233e-15 34.3279
      vertex 8.17971 7.69995e-15 34.6775
    endloop
  endfacet
  facet normal 0.743145 1.48577e-16 0.66913
    outer loop
      vertex 8.17971 -6 34.6775
      vertex 8.49446 -6 34.3279
      vertex 8.17971 7.69995e-15 34.6775
    endloop
  endfacet
  facet normal 0.587785 1.79638e-16 0.809017
    outer loop
      vertex 8.875 -6 34.0514
      vertex 8.875 7.56094e-15 34.0514
      vertex 8.49446 7.62233e-15 34.3279
    endloop
  endfacet
  facet normal 0.587785 1.79638e-16 0.809017
    outer loop
      vertex 8.49446 -6 34.3279
      vertex 8.875 -6 34.0514
      vertex 8.49446 7.62233e-15 34.3279
    endloop
  endfacet
  facet normal 0.406736 2.02848e-16 0.913546
    outer loop
      vertex 9.30471 -6 33.8601
      vertex 9.30471 7.51846e-15 33.8601
      vertex 8.875 7.56094e-15 34.0514
    endloop
  endfacet
  facet normal 0.406736 2.02848e-16 0.913546
    outer loop
      vertex 8.875 -6 34.0514
      vertex 9.30471 -6 33.8601
      vertex 8.875 7.56094e-15 34.0514
    endloop
  endfacet
  facet normal 0.207912 2.17192e-16 0.978148
    outer loop
      vertex 9.76481 -6 33.7623
      vertex 9.76481 7.49674e-15 33.7623
      vertex 9.30471 7.51846e-15 33.8601
    endloop
  endfacet
  facet normal 0.207912 2.17192e-16 0.978148
    outer loop
      vertex 9.30471 -6 33.8601
      vertex 9.76481 -6 33.7623
      vertex 9.30471 7.51846e-15 33.8601
    endloop
  endfacet
  facet normal 0 2.22045e-16 1
    outer loop
      vertex 10.2352 -6 33.7623
      vertex 10.2352 7.49674e-15 33.7623
      vertex 9.76481 7.49674e-15 33.7623
    endloop
  endfacet
  facet normal 0 2.22045e-16 1
    outer loop
      vertex 9.76481 -6 33.7623
      vertex 10.2352 -6 33.7623
      vertex 9.76481 7.49674e-15 33.7623
    endloop
  endfacet
  facet normal -0.207912 2.17192e-16 0.978148
    outer loop
      vertex 10.6953 -6 33.8601
      vertex 10.6953 7.51846e-15 33.8601
      vertex 10.2352 7.49674e-15 33.7623
    endloop
  endfacet
  facet normal -0.207912 2.17192e-16 0.978148
    outer loop
      vertex 10.2352 -6 33.7623
      vertex 10.6953 -6 33.8601
      vertex 10.2352 7.49674e-15 33.7623
    endloop
  endfacet
  facet normal -0.406736 2.02848e-16 0.913546
    outer loop
      vertex 11.125 -6 34.0514
      vertex 11.125 7.56094e-15 34.0514
      vertex 10.6953 7.51846e-15 33.8601
    endloop
  endfacet
  facet normal -0.406736 2.02848e-16 0.913546
    outer loop
      vertex 10.6953 -6 33.8601
      vertex 11.125 -6 34.0514
      vertex 10.6953 7.51846e-15 33.8601
    endloop
  endfacet
  facet normal -0.587785 1.79638e-16 0.809017
    outer loop
      vertex 11.5055 -6 34.3279
      vertex 11.5055 7.62233e-15 34.3279
      vertex 11.125 7.56094e-15 34.0514
    endloop
  endfacet
  facet normal -0.587785 1.79638e-16 0.809017
    outer loop
      vertex 11.125 -6 34.0514
      vertex 11.5055 -6 34.3279
      vertex 11.125 7.56094e-15 34.0514
    endloop
  endfacet
  facet normal -0.743145 1.48577e-16 0.66913
    outer loop
      vertex 11.8203 7.69995e-15 34.6775
      vertex 11.5055 7.62233e-15 34.3279
      vertex 11.8203 -6 34.6775
    endloop
  endfacet
  facet normal -0.743145 1.48577e-16 0.66913
    outer loop
      vertex 11.8203 -6 34.6775
      vertex 11.5055 7.62233e-15 34.3279
      vertex 11.5055 -6 34.3279
    endloop
  endfacet
  facet normal -0.866026 1.11022e-16 0.499999
    outer loop
      vertex 12.0555 7.7904e-15 35.0848
      vertex 11.8203 7.69995e-15 34.6775
      vertex 12.0555 -6 35.0848
    endloop
  endfacet
  facet normal -0.866026 1.11022e-16 0.499999
    outer loop
      vertex 12.0555 -6 35.0848
      vertex 11.8203 7.69995e-15 34.6775
      vertex 11.8203 -6 34.6775
    endloop
  endfacet
  facet normal -0.951056 6.86157e-17 0.309017
    outer loop
      vertex 12.2008 7.88973e-15 35.5322
      vertex 12.0555 7.7904e-15 35.0848
      vertex 12.2008 -6 35.5322
    endloop
  endfacet
  facet normal -0.951056 6.86157e-17 0.309017
    outer loop
      vertex 12.2008 -6 35.5322
      vertex 12.0555 7.7904e-15 35.0848
      vertex 12.0555 -6 35.0848
    endloop
  endfacet
  facet normal -0.994522 2.321e-17 0.104529
    outer loop
      vertex 12.25 7.99361e-15 36
      vertex 12.2008 7.88973e-15 35.5322
      vertex 12.25 -6 36
    endloop
  endfacet
  facet normal -0.994522 2.321e-17 0.104529
    outer loop
      vertex 12.25 -6 36
      vertex 12.2008 7.88973e-15 35.5322
      vertex 12.2008 -6 35.5322
    endloop
  endfacet
  facet normal -0.994522 -2.321e-17 -0.104529
    outer loop
      vertex 12.25 7.99361e-15 36
      vertex 12.25 -6 36
      vertex 12.2008 8.09748e-15 36.4678
    endloop
  endfacet
  facet normal -0.994522 -2.321e-17 -0.104529
    outer loop
      vertex 12.2008 8.09748e-15 36.4678
      vertex 12.25 -6 36
      vertex 12.2008 -6 36.4678
    endloop
  endfacet
  facet normal -0.951056 -6.86157e-17 -0.309017
    outer loop
      vertex 12.2008 8.09748e-15 36.4678
      vertex 12.2008 -6 36.4678
      vertex 12.0555 8.19681e-15 36.9152
    endloop
  endfacet
  facet normal -0.951056 -6.86157e-17 -0.309017
    outer loop
      vertex 12.0555 8.19681e-15 36.9152
      vertex 12.2008 -6 36.4678
      vertex 12.0555 -6 36.9152
    endloop
  endfacet
  facet normal -0.866026 -1.11022e-16 -0.499999
    outer loop
      vertex 12.0555 8.19681e-15 36.9152
      vertex 12.0555 -6 36.9152
      vertex 11.8203 8.28726e-15 37.3225
    endloop
  endfacet
  facet normal -0.866026 -1.11022e-16 -0.499999
    outer loop
      vertex 11.8203 8.28726e-15 37.3225
      vertex 12.0555 -6 36.9152
      vertex 11.8203 -6 37.3225
    endloop
  endfacet
  facet normal -0.743145 -1.48577e-16 -0.66913
    outer loop
      vertex 11.8203 8.28726e-15 37.3225
      vertex 11.8203 -6 37.3225
      vertex 11.5055 8.36488e-15 37.6721
    endloop
  endfacet
  facet normal -0.743145 -1.48577e-16 -0.66913
    outer loop
      vertex 11.5055 8.36488e-15 37.6721
      vertex 11.8203 -6 37.3225
      vertex 11.5055 -6 37.6721
    endloop
  endfacet
  facet normal -0.587785 -1.79638e-16 -0.809017
    outer loop
      vertex 11.5055 8.36488e-15 37.6721
      vertex 11.5055 -6 37.6721
      vertex 11.125 8.42627e-15 37.9486
    endloop
  endfacet
  facet normal -0.587785 -1.79638e-16 -0.809017
    outer loop
      vertex 11.125 8.42627e-15 37.9486
      vertex 11.5055 -6 37.6721
      vertex 11.125 -6 37.9486
    endloop
  endfacet
  facet normal -0.406736 -2.02848e-16 -0.913546
    outer loop
      vertex 11.125 8.42627e-15 37.9486
      vertex 11.125 -6 37.9486
      vertex 10.6953 8.46875e-15 38.1399
    endloop
  endfacet
  facet normal -0.406736 -2.02848e-16 -0.913546
    outer loop
      vertex 10.6953 8.46875e-15 38.1399
      vertex 11.125 -6 37.9486
      vertex 10.6953 -6 38.1399
    endloop
  endfacet
  facet normal -0.207912 -2.17192e-16 -0.978148
    outer loop
      vertex 10.6953 8.46875e-15 38.1399
      vertex 10.6953 -6 38.1399
      vertex 10.2352 8.49047e-15 38.2377
    endloop
  endfacet
  facet normal -0.207912 -2.17192e-16 -0.978148
    outer loop
      vertex 10.2352 8.49047e-15 38.2377
      vertex 10.6953 -6 38.1399
      vertex 10.2352 -6 38.2377
    endloop
  endfacet
  facet normal 0 -2.22045e-16 -1
    outer loop
      vertex 10.2352 8.49047e-15 38.2377
      vertex 10.2352 -6 38.2377
      vertex 9.76481 8.49047e-15 38.2377
    endloop
  endfacet
  facet normal 0 -2.22045e-16 -1
    outer loop
      vertex 9.76481 8.49047e-15 38.2377
      vertex 10.2352 -6 38.2377
      vertex 9.76481 -6 38.2377
    endloop
  endfacet
  facet normal 0.207912 -2.17192e-16 -0.978148
    outer loop
      vertex 9.76481 8.49047e-15 38.2377
      vertex 9.76481 -6 38.2377
      vertex 9.30471 8.46875e-15 38.1399
    endloop
  endfacet
  facet normal 0.207912 -2.17192e-16 -0.978148
    outer loop
      vertex 9.30471 8.46875e-15 38.1399
      vertex 9.76481 -6 38.2377
      vertex 9.30471 -6 38.1399
    endloop
  endfacet
  facet normal 0.406736 -2.02848e-16 -0.913546
    outer loop
      vertex 9.30471 8.46875e-15 38.1399
      vertex 9.30471 -6 38.1399
      vertex 8.875 8.42627e-15 37.9486
    endloop
  endfacet
  facet normal 0.406736 -2.02848e-16 -0.913546
    outer loop
      vertex 8.875 8.42627e-15 37.9486
      vertex 9.30471 -6 38.1399
      vertex 8.875 -6 37.9486
    endloop
  endfacet
  facet normal 0.587785 -1.79638e-16 -0.809017
    outer loop
      vertex 8.875 8.42627e-15 37.9486
      vertex 8.875 -6 37.9486
      vertex 8.49446 8.36488e-15 37.6721
    endloop
  endfacet
  facet normal 0.587785 -1.79638e-16 -0.809017
    outer loop
      vertex 8.49446 8.36488e-15 37.6721
      vertex 8.875 -6 37.9486
      vertex 8.49446 -6 37.6721
    endloop
  endfacet
  facet normal 0.743145 -1.48577e-16 -0.66913
    outer loop
      vertex 8.17971 8.28726e-15 37.3225
      vertex 8.49446 8.36488e-15 37.6721
      vertex 8.49446 -6 37.6721
    endloop
  endfacet
  facet normal 0.743145 -1.48577e-16 -0.66913
    outer loop
      vertex 8.17971 -6 37.3225
      vertex 8.17971 8.28726e-15 37.3225
      vertex 8.49446 -6 37.6721
    endloop
  endfacet
  facet normal 0.866026 -1.11022e-16 -0.499999
    outer loop
      vertex 7.94452 8.19681e-15 36.9152
      vertex 8.17971 8.28726e-15 37.3225
      vertex 8.17971 -6 37.3225
    endloop
  endfacet
  facet normal 0.866026 -1.11022e-16 -0.499999
    outer loop
      vertex 7.94452 -6 36.9152
      vertex 7.94452 8.19681e-15 36.9152
      vertex 8.17971 -6 37.3225
    endloop
  endfacet
  facet normal 0.951056 -6.86157e-17 -0.309017
    outer loop
      vertex 7.79917 8.09748e-15 36.4678
      vertex 7.94452 8.19681e-15 36.9152
      vertex 7.94452 -6 36.9152
    endloop
  endfacet
  facet normal 0.951056 -6.86157e-17 -0.309017
    outer loop
      vertex 7.79917 -6 36.4678
      vertex 7.79917 8.09748e-15 36.4678
      vertex 7.94452 -6 36.9152
    endloop
  endfacet
  facet normal 0.994522 -2.321e-17 -0.104529
    outer loop
      vertex 7.75 7.99361e-15 36
      vertex 7.79917 8.09748e-15 36.4678
      vertex 7.79917 -6 36.4678
    endloop
  endfacet
  facet normal 0.994522 -2.321e-17 -0.104529
    outer loop
      vertex 7.75 -6 36
      vertex 7.75 7.99361e-15 36
      vertex 7.79917 -6 36.4678
    endloop
  endfacet
  facet normal 0.994522 -0.104529 0
    outer loop
      vertex 7.79917 11.4678 0
      vertex 7.79917 11.4678 6
      vertex 7.75 11 6
    endloop
  endfacet
  facet normal 0.994522 -0.104529 0
    outer loop
      vertex 7.75 11 0
      vertex 7.79917 11.4678 0
      vertex 7.75 11 6
    endloop
  endfacet
  facet normal 0.994522 0.104529 0
    outer loop
      vertex 7.75 11 6
      vertex 7.79917 10.5322 6
      vertex 7.79917 10.5322 0
    endloop
  endfacet
  facet normal 0.994522 0.104529 0
    outer loop
      vertex 7.75 11 0
      vertex 7.75 11 6
      vertex 7.79917 10.5322 0
    endloop
  endfacet
  facet normal 0.951056 -0.309017 0
    outer loop
      vertex 7.94452 11.9152 0
      vertex 7.94452 11.9152 6
      vertex 7.79917 11.4678 6
    endloop
  endfacet
  facet normal 0.951056 -0.309017 0
    outer loop
      vertex 7.79917 11.4678 0
      vertex 7.94452 11.9152 0
      vertex 7.79917 11.4678 6
    endloop
  endfacet
  facet normal 0.866026 -0.499999 0
    outer loop
      vertex 8.17971 12.3225 0
      vertex 8.17971 12.3225 6
      vertex 7.94452 11.9152 6
    endloop
  endfacet
  facet normal 0.866026 -0.499999 0
    outer loop
      vertex 7.94452 11.9152 0
      vertex 8.17971 12.3225 0
      vertex 7.94452 11.9152 6
    endloop
  endfacet
  facet normal 0.743145 -0.66913 0
    outer loop
      vertex 8.49446 12.6721 0
      vertex 8.49446 12.6721 6
      vertex 8.17971 12.3225 6
    endloop
  endfacet
  facet normal 0.743145 -0.66913 0
    outer loop
      vertex 8.17971 12.3225 0
      vertex 8.49446 12.6721 0
      vertex 8.17971 12.3225 6
    endloop
  endfacet
  facet normal 0.587785 -0.809017 0
    outer loop
      vertex 8.875 12.9486 0
      vertex 8.875 12.9486 6
      vertex 8.49446 12.6721 6
    endloop
  endfacet
  facet normal 0.587785 -0.809017 0
    outer loop
      vertex 8.49446 12.6721 0
      vertex 8.875 12.9486 0
      vertex 8.49446 12.6721 6
    endloop
  endfacet
  facet normal 0.406736 -0.913546 0
    outer loop
      vertex 9.30471 13.1399 0
      vertex 9.30471 13.1399 6
      vertex 8.875 12.9486 6
    endloop
  endfacet
  facet normal 0.406736 -0.913546 0
    outer loop
      vertex 8.875 12.9486 0
      vertex 9.30471 13.1399 0
      vertex 8.875 12.9486 6
    endloop
  endfacet
  facet normal 0.207912 -0.978148 0
    outer loop
      vertex 9.76481 13.2377 0
      vertex 9.76481 13.2377 6
      vertex 9.30471 13.1399 6
    endloop
  endfacet
  facet normal 0.207912 -0.978148 0
    outer loop
      vertex 9.30471 13.1399 0
      vertex 9.76481 13.2377 0
      vertex 9.30471 13.1399 6
    endloop
  endfacet
  facet normal 0 -1 0
    outer loop
      vertex 10.2352 13.2377 0
      vertex 10.2352 13.2377 6
      vertex 9.76481 13.2377 6
    endloop
  endfacet
  facet normal 0 -1 0
    outer loop
      vertex 9.76481 13.2377 0
      vertex 10.2352 13.2377 0
      vertex 9.76481 13.2377 6
    endloop
  endfacet
  facet normal -0.207912 -0.978148 0
    outer loop
      vertex 10.6953 13.1399 0
      vertex 10.6953 13.1399 6
      vertex 10.2352 13.2377 6
    endloop
  endfacet
  facet normal -0.207912 -0.978148 0
    outer loop
      vertex 10.2352 13.2377 0
      vertex 10.6953 13.1399 0
      vertex 10.2352 13.2377 6
    endloop
  endfacet
  facet normal -0.406736 -0.913546 0
    outer loop
      vertex 11.125 12.9486 0
      vertex 11.125 12.9486 6
      vertex 10.6953 13.1399 6
    endloop
  endfacet
  facet normal -0.406736 -0.913546 0
    outer loop
      vertex 10.6953 13.1399 0
      vertex 11.125 12.9486 0
      vertex 10.6953 13.1399 6
    endloop
  endfacet
  facet normal -0.587785 -0.809017 0
    outer loop
      vertex 11.5055 12.6721 0
      vertex 11.5055 12.6721 6
      vertex 11.125 12.9486 6
    endloop
  endfacet
  facet normal -0.587785 -0.809017 0
    outer loop
      vertex 11.125 12.9486 0
      vertex 11.5055 12.6721 0
      vertex 11.125 12.9486 6
    endloop
  endfacet
  facet normal -0.743145 -0.66913 0
    outer loop
      vertex 11.8203 12.3225 6
      vertex 11.5055 12.6721 6
      vertex 11.8203 12.3225 0
    endloop
  endfacet
  facet normal -0.743145 -0.66913 0
    outer loop
      vertex 11.8203 12.3225 0
      vertex 11.5055 12.6721 6
      vertex 11.5055 12.6721 0
    endloop
  endfacet
  facet normal -0.866026 -0.499999 0
    outer loop
      vertex 12.0555 11.9152 6
      vertex 11.8203 12.3225 6
      vertex 12.0555 11.9152 0
    endloop
  endfacet
  facet normal -0.866026 -0.499999 0
    outer loop
      vertex 12.0555 11.9152 0
      vertex 11.8203 12.3225 6
      vertex 11.8203 12.3225 0
    endloop
  endfacet
  facet normal -0.951056 -0.309017 0
    outer loop
      vertex 12.2008 11.4678 6
      vertex 12.0555 11.9152 6
      vertex 12.2008 11.4678 0
    endloop
  endfacet
  facet normal -0.951056 -0.309017 0
    outer loop
      vertex 12.2008 11.4678 0
      vertex 12.0555 11.9152 6
      vertex 12.0555 11.9152 0
    endloop
  endfacet
  facet normal -0.994522 -0.104529 0
    outer loop
      vertex 12.25 11 6
      vertex 12.2008 11.4678 6
      vertex 12.25 11 0
    endloop
  endfacet
  facet normal -0.994522 -0.104529 0
    outer loop
      vertex 12.25 11 0
      vertex 12.2008 11.4678 6
      vertex 12.2008 11.4678 0
    endloop
  endfacet
  facet normal -0.994522 0.104529 0
    outer loop
      vertex 12.25 11 6
      vertex 12.25 11 0
      vertex 12.2008 10.5322 6
    endloop
  endfacet
  facet normal -0.994522 0.104529 0
    outer loop
      vertex 12.2008 10.5322 6
      vertex 12.25 11 0
      vertex 12.2008 10.5322 0
    endloop
  endfacet
  facet normal -0.951056 0.309017 0
    outer loop
      vertex 12.2008 10.5322 6
      vertex 12.2008 10.5322 0
      vertex 12.0555 10.0848 6
    endloop
  endfacet
  facet normal -0.951056 0.309017 0
    outer loop
      vertex 12.0555 10.0848 6
      vertex 12.2008 10.5322 0
      vertex 12.0555 10.0848 0
    endloop
  endfacet
  facet normal -0.866026 0.499999 0
    outer loop
      vertex 12.0555 10.0848 6
      vertex 12.0555 10.0848 0
      vertex 11.8203 9.67748 6
    endloop
  endfacet
  facet normal -0.866026 0.499999 0
    outer loop
      vertex 11.8203 9.67748 6
      vertex 12.0555 10.0848 0
      vertex 11.8203 9.67748 0
    endloop
  endfacet
  facet normal -0.743145 0.66913 0
    outer loop
      vertex 11.8203 9.67748 6
      vertex 11.8203 9.67748 0
      vertex 11.5055 9.32792 6
    endloop
  endfacet
  facet normal -0.743145 0.66913 0
    outer loop
      vertex 11.5055 9.32792 6
      vertex 11.8203 9.67748 0
      vertex 11.5055 9.32792 0
    endloop
  endfacet
  facet normal -0.587785 0.809017 0
    outer loop
      vertex 11.5055 9.32792 6
      vertex 11.5055 9.32792 0
      vertex 11.125 9.05144 6
    endloop
  endfacet
  facet normal -0.587785 0.809017 0
    outer loop
      vertex 11.125 9.05144 6
      vertex 11.5055 9.32792 0
      vertex 11.125 9.05144 0
    endloop
  endfacet
  facet normal -0.406736 0.913546 0
    outer loop
      vertex 11.125 9.05144 6
      vertex 11.125 9.05144 0
      vertex 10.6953 8.86012 6
    endloop
  endfacet
  facet normal -0.406736 0.913546 0
    outer loop
      vertex 10.6953 8.86012 6
      vertex 11.125 9.05144 0
      vertex 10.6953 8.86012 0
    endloop
  endfacet
  facet normal -0.207912 0.978148 0
    outer loop
      vertex 10.6953 8.86012 6
      vertex 10.6953 8.86012 0
      vertex 10.2352 8.76233 6
    endloop
  endfacet
  facet normal -0.207912 0.978148 0
    outer loop
      vertex 10.2352 8.76233 6
      vertex 10.6953 8.86012 0
      vertex 10.2352 8.76233 0
    endloop
  endfacet
  facet normal 0 1 0
    outer loop
      vertex 10.2352 8.76233 6
      vertex 10.2352 8.76233 0
      vertex 9.76481 8.76233 6
    endloop
  endfacet
  facet normal 0 1 0
    outer loop
      vertex 9.76481 8.76233 6
      vertex 10.2352 8.76233 0
      vertex 9.76481 8.76233 0
    endloop
  endfacet
  facet normal 0.207912 0.978148 0
    outer loop
      vertex 9.76481 8.76233 6
      vertex 9.76481 8.76233 0
      vertex 9.30471 8.86012 6
    endloop
  endfacet
  facet normal 0.207912 0.978148 0
    outer loop
      vertex 9.30471 8.86012 6
      vertex 9.76481 8.76233 0
      vertex 9.30471 8.86012 0
    endloop
  endfacet
  facet normal 0.406736 0.913546 0
    outer loop
      vertex 9.30471 8.86012 6
      vertex 9.30471 8.86012 0
      vertex 8.875 9.05144 6
    endloop
  endfacet
  facet normal 0.406736 0.913546 0
    outer loop
      vertex 8.875 9.05144 6
      vertex 9.30471 8.86012 0
      vertex 8.875 9.05144 0
    endloop
  endfacet
  facet normal 0.587785 0.809017 0
    outer loop
      vertex 8.875 9.05144 6
      vertex 8.875 9.05144 0
      vertex 8.49446 9.32792 6
    endloop
  endfacet
  facet normal 0.587785 0.809017 0
    outer loop
      vertex 8.49446 9.32792 6
      vertex 8.875 9.05144 0
      vertex 8.49446 9.32792 0
    endloop
  endfacet
  facet normal 0.743145 0.66913 0
    outer loop
      vertex 8.17971 9.67748 6
      vertex 8.49446 9.32792 6
      vertex 8.49446 9.32792 0
    endloop
  endfacet
  facet normal 0.743145 0.66913 0
    outer loop
      vertex 8.17971 9.67748 0
      vertex 8.17971 9.67748 6
      vertex 8.49446 9.32792 0
    endloop
  endfacet
  facet normal 0.866026 0.499999 0
    outer loop
      vertex 7.94452 10.0848 6
      vertex 8.17971 9.67748 6
      vertex 8.17971 9.67748 0
    endloop
  endfacet
  facet normal 0.866026 0.499999 0
    outer loop
      vertex 7.94452 10.0848 0
      vertex 7.94452 10.0848 6
      vertex 8.17971 9.67748 0
    endloop
  endfacet
  facet normal 0.951056 0.309017 0
    outer loop
      vertex 7.79917 10.5322 6
      vertex 7.94452 10.0848 6
      vertex 7.94452 10.0848 0
    endloop
  endfacet
  facet normal 0.951056 0.309017 0
    outer loop
      vertex 7.79917 10.5322 0
      vertex 7.79917 10.5322 6
      vertex 7.94452 10.0848 0
    endloop
  endfacet
  facet normal 0.994522 -0.104529 0
    outer loop
      vertex 7.79917 31.4678 0
      vertex 7.79917 31.4678 6
      vertex 7.75 31 6
    endloop
  endfacet
  facet normal 0.994522 -0.104529 0
    outer loop
      vertex 7.75 31 0
      vertex 7.79917 31.4678 0
      vertex 7.75 31 6
    endloop
  endfacet
  facet normal 0.994522 0.104529 0
    outer loop
      vertex 7.75 31 6
      vertex 7.79917 30.5322 6
      vertex 7.79917 30.5322 0
    endloop
  endfacet
  facet normal 0.994522 0.104529 0
    outer loop
      vertex 7.75 31 0
      vertex 7.75 31 6
      vertex 7.79917 30.5322 0
    endloop
  endfacet
  facet normal 0.951056 -0.309017 0
    outer loop
      vertex 7.94452 31.9152 0
      vertex 7.94452 31.9152 6
      vertex 7.79917 31.4678 6
    endloop
  endfacet
  facet normal 0.951056 -0.309017 0
    outer loop
      vertex 7.79917 31.4678 0
      vertex 7.94452 31.9152 0
      vertex 7.79917 31.4678 6
    endloop
  endfacet
  facet normal 0.866026 -0.499999 0
    outer loop
      vertex 8.17971 32.3225 0
      vertex 8.17971 32.3225 6
      vertex 7.94452 31.9152 6
    endloop
  endfacet
  facet normal 0.866026 -0.499999 0
    outer loop
      vertex 7.94452 31.9152 0
      vertex 8.17971 32.3225 0
      vertex 7.94452 31.9152 6
    endloop
  endfacet
  facet normal 0.743145 -0.66913 0
    outer loop
      vertex 8.49446 32.6721 0
      vertex 8.49446 32.6721 6
      vertex 8.17971 32.3225 6
    endloop
  endfacet
  facet normal 0.743145 -0.66913 0
    outer loop
      vertex 8.17971 32.3225 0
      vertex 8.49446 32.6721 0
      vertex 8.17971 32.3225 6
    endloop
  endfacet
  facet normal 0.587785 -0.809017 0
    outer loop
      vertex 8.875 32.9486 0
      vertex 8.875 32.9486 6
      vertex 8.49446 32.6721 6
    endloop
  endfacet
  facet normal 0.587785 -0.809017 0
    outer loop
      vertex 8.49446 32.6721 0
      vertex 8.875 32.9486 0
      vertex 8.49446 32.6721 6
    endloop
  endfacet
  facet normal 0.406736 -0.913546 0
    outer loop
      vertex 9.30471 33.1399 0
      vertex 9.30471 33.1399 6
      vertex 8.875 32.9486 6
    endloop
  endfacet
  facet normal 0.406736 -0.913546 0
    outer loop
      vertex 8.875 32.9486 0
      vertex 9.30471 33.1399 0
      vertex 8.875 32.9486 6
    endloop
  endfacet
  facet normal 0.207912 -0.978148 0
    outer loop
      vertex 9.76481 33.2377 0
      vertex 9.76481 33.2377 6
      vertex 9.30471 33.1399 6
    endloop
  endfacet
  facet normal 0.207912 -0.978148 0
    outer loop
      vertex 9.30471 33.1399 0
      vertex 9.76481 33.2377 0
      vertex 9.30471 33.1399 6
    endloop
  endfacet
  facet normal 0 -1 0
    outer loop
      vertex 10.2352 33.2377 0
      vertex 10.2352 33.2377 6
      vertex 9.76481 33.2377 6
    endloop
  endfacet
  facet normal 0 -1 0
    outer loop
      vertex 9.76481 33.2377 0
      vertex 10.2352 33.2377 0
      vertex 9.76481 33.2377 6
    endloop
  endfacet
  facet normal -0.207912 -0.978148 0
    outer loop
      vertex 10.6953 33.1399 0
      vertex 10.6953 33.1399 6
      vertex 10.2352 33.2377 6
    endloop
  endfacet
  facet normal -0.207912 -0.978148 0
    outer loop
      vertex 10.2352 33.2377 0
      vertex 10.6953 33.1399 0
      vertex 10.2352 33.2377 6
    endloop
  endfacet
  facet normal -0.406736 -0.913546 0
    outer loop
      vertex 11.125 32.9486 0
      vertex 11.125 32.9486 6
      vertex 10.6953 33.1399 6
    endloop
  endfacet
  facet normal -0.406736 -0.913546 0
    outer loop
      vertex 10.6953 33.1399 0
      vertex 11.125 32.9486 0
      vertex 10.6953 33.1399 6
    endloop
  endfacet
  facet normal -0.587785 -0.809017 0
    outer loop
      vertex 11.5055 32.6721 0
      vertex 11.5055 32.6721 6
      vertex 11.125 32.9486 6
    endloop
  endfacet
  facet normal -0.587785 -0.809017 0
    outer loop
      vertex 11.125 32.9486 0
      vertex 11.5055 32.6721 0
      vertex 11.125 32.9486 6
    endloop
  endfacet
  facet normal -0.743145 -0.66913 0
    outer loop
      vertex 11.8203 32.3225 6
      vertex 11.5055 32.6721 6
      vertex 11.8203 32.3225 0
    endloop
  endfacet
  facet normal -0.743145 -0.66913 0
    outer loop
      vertex 11.8203 32.3225 0
      vertex 11.5055 32.6721 6
      vertex 11.5055 32.6721 0
    endloop
  endfacet
  facet normal -0.866026 -0.499999 0
    outer loop
      vertex 12.0555 31.9152 6
      vertex 11.8203 32.3225 6
      vertex 12.0555 31.9152 0
    endloop
  endfacet
  facet normal -0.866026 -0.499999 0
    outer loop
      vertex 12.0555 31.9152 0
      vertex 11.8203 32.3225 6
      vertex 11.8203 32.3225 0
    endloop
  endfacet
  facet normal -0.951056 -0.309017 0
    outer loop
      vertex 12.2008 31.4678 6
      vertex 12.0555 31.9152 6
      vertex 12.2008 31.4678 0
    endloop
  endfacet
  facet normal -0.951056 -0.309017 0
    outer loop
      vertex 12.2008 31.4678 0
      vertex 12.0555 31.9152 6
      vertex 12.0555 31.9152 0
    endloop
  endfacet
  facet normal -0.994522 -0.104529 0
    outer loop
      vertex 12.25 31 6
      vertex 12.2008 31.4678 6
      vertex 12.25 31 0
    endloop
  endfacet
  facet normal -0.994522 -0.104529 0
    outer loop
      vertex 12.25 31 0
      vertex 12.2008 31.4678 6
      vertex 12.2008 31.4678 0
    endloop
  endfacet
  facet normal -0.994522 0.104529 0
    outer loop
      vertex 12.25 31 6
      vertex 12.25 31 0
      vertex 12.2008 30.5322 6
    endloop
  endfacet
  facet normal -0.994522 0.104529 0
    outer loop
      vertex 12.2008 30.5322 6
      vertex 12.25 31 0
      vertex 12.2008 30.5322 0
    endloop
  endfacet
  facet normal -0.951056 0.309017 0
    outer loop
      vertex 12.2008 30.5322 6
      vertex 12.2008 30.5322 0
      vertex 12.0555 30.0848 6
    endloop
  endfacet
  facet normal -0.951056 0.309017 0
    outer loop
      vertex 12.0555 30.0848 6
      vertex 12.2008 30.5322 0
      vertex 12.0555 30.0848 0
    endloop
  endfacet
  facet normal -0.866026 0.499999 0
    outer loop
      vertex 12.0555 30.0848 6
      vertex 12.0555 30.0848 0
      vertex 11.8203 29.6775 6
    endloop
  endfacet
  facet normal -0.866026 0.499999 0
    outer loop
      vertex 11.8203 29.6775 6
      vertex 12.0555 30.0848 0
      vertex 11.8203 29.6775 0
    endloop
  endfacet
  facet normal -0.743145 0.66913 0
    outer loop
      vertex 11.8203 29.6775 6
      vertex 11.8203 29.6775 0
      vertex 11.5055 29.3279 6
    endloop
  endfacet
  facet normal -0.743145 0.66913 0
    outer loop
      vertex 11.5055 29.3279 6
      vertex 11.8203 29.6775 0
      vertex 11.5055 29.3279 0
    endloop
  endfacet
  facet normal -0.587785 0.809017 0
    outer loop
      vertex 11.5055 29.3279 6
      vertex 11.5055 29.3279 0
      vertex 11.125 29.0514 6
    endloop
  endfacet
  facet normal -0.587785 0.809017 0
    outer loop
      vertex 11.125 29.0514 6
      vertex 11.5055 29.3279 0
      vertex 11.125 29.0514 0
    endloop
  endfacet
  facet normal -0.406736 0.913546 0
    outer loop
      vertex 11.125 29.0514 6
      vertex 11.125 29.0514 0
      vertex 10.6953 28.8601 6
    endloop
  endfacet
  facet normal -0.406736 0.913546 0
    outer loop
      vertex 10.6953 28.8601 6
      vertex 11.125 29.0514 0
      vertex 10.6953 28.8601 0
    endloop
  endfacet
  facet normal -0.207912 0.978148 0
    outer loop
      vertex 10.6953 28.8601 6
      vertex 10.6953 28.8601 0
      vertex 10.2352 28.7623 6
    endloop
  endfacet
  facet normal -0.207912 0.978148 0
    outer loop
      vertex 10.2352 28.7623 6
      vertex 10.6953 28.8601 0
      vertex 10.2352 28.7623 0
    endloop
  endfacet
  facet normal 0 1 0
    outer loop
      vertex 10.2352 28.7623 6
      vertex 10.2352 28.7623 0
      vertex 9.76481 28.7623 6
    endloop
  endfacet
  facet normal 0 1 0
    outer loop
      vertex 9.76481 28.7623 6
      vertex 10.2352 28.7623 0
      vertex 9.76481 28.7623 0
    endloop
  endfacet
  facet normal 0.207912 0.978148 0
    outer loop
      vertex 9.76481 28.7623 6
      vertex 9.76481 28.7623 0
      vertex 9.30471 28.8601 6
    endloop
  endfacet
  facet normal 0.207912 0.978148 0
    outer loop
      vertex 9.30471 28.8601 6
      vertex 9.76481 28.7623 0
      vertex 9.30471 28.8601 0
    endloop
  endfacet
  facet normal 0.406736 0.913546 0
    outer loop
      vertex 9.30471 28.8601 6
      vertex 9.30471 28.8601 0
      vertex 8.875 29.0514 6
    endloop
  endfacet
  facet normal 0.406736 0.913546 0
    outer loop
      vertex 8.875 29.0514 6
      vertex 9.30471 28.8601 0
      vertex 8.875 29.0514 0
    endloop
  endfacet
  facet normal 0.587785 0.809017 0
    outer loop
      vertex 8.875 29.0514 6
      vertex 8.875 29.0514 0
      vertex 8.49446 29.3279 6
    endloop
  endfacet
  facet normal 0.587785 0.809017 0
    outer loop
      vertex 8.49446 29.3279 6
      vertex 8.875 29.0514 0
      vertex 8.49446 29.3279 0
    endloop
  endfacet
  facet normal 0.743145 0.66913 0
    outer loop
      vertex 8.17971 29.6775 6
      vertex 8.49446 29.3279 6
      vertex 8.49446 29.3279 0
    endloop
  endfacet
  facet normal 0.743145 0.66913 0
    outer loop
      vertex 8.17971 29.6775 0
      vertex 8.17971 29.6775 6
      vertex 8.49446 29.3279 0
    endloop
  endfacet
  facet normal 0.866026 0.499999 0
    outer loop
      vertex 7.94452 30.0848 6
      vertex 8.17971 29.6775 6
      vertex 8.17971 29.6775 0
    endloop
  endfacet
  facet normal 0.866026 0.499999 0
    outer loop
      vertex 7.94452 30.0848 0
      vertex 7.94452 30.0848 6
      vertex 8.17971 29.6775 0
    endloop
  endfacet
  facet normal 0.951056 0.309017 0
    outer loop
      vertex 7.79917 30.5322 6
      vertex 7.94452 30.0848 6
      vertex 7.94452 30.0848 0
    endloop
  endfacet
  facet normal 0.951056 0.309017 0
    outer loop
      vertex 7.79917 30.5322 0
      vertex 7.79917 30.5322 6
      vertex 7.94452 30.0848 0
    endloop
  endfacet
endsolid OpenSCAD_Model
