solid OpenSCAD_Model
  facet normal -1 -2.4037e-16 0
    outer loop
      vertex -1.20672e-14 49.997 0
      vertex -2.82496e-15 11.547 0
      vertex -1.20672e-14 49.997 6
    endloop
  endfacet
  facet normal -1 -2.4037e-16 0
    outer loop
      vertex -1.20672e-14 49.997 6
      vertex -2.82496e-15 11.547 0
      vertex -2.82496e-15 11.547 26
    endloop
  endfacet
  facet normal -1 -2.4037e-16 0
    outer loop
      vertex -1.20672e-14 49.997 6
      vertex -2.82496e-15 11.547 26
      vertex -4.26718e-15 17.547 26
    endloop
  endfacet
  facet normal 0 0 -1
    outer loop
      vertex -1.20672e-14 49.997 0
      vertex 0 49.997 0
      vertex -2.82496e-15 11.547 0
    endloop
  endfacet
  facet normal 0 0 -1
    outer loop
      vertex 6 50 0
      vertex 0 49.997 0
      vertex 0 50 0
    endloop
  endfacet
  facet normal 0 0 -1
    outer loop
      vertex -2.82496e-15 11.547 0
      vertex 0 49.997 0
      vertex 6 50 0
    endloop
  endfacet
  facet normal 0 0 -1
    outer loop
      vertex 14.7063 42.895 0
      vertex 6 50 0
      vertex 20 41.9171 0
    endloop
  endfacet
  facet normal 0 0 -1
    outer loop
      vertex 15.4943 20.4698 0
      vertex 20 41.9171 0
      vertex 20 6.9282 0
    endloop
  endfacet
  facet normal 0 0 -1
    outer loop
      vertex 10.5048 5.48205 0
      vertex 20 6.9282 0
      vertex 17 1.73205 0
    endloop
  endfacet
  facet normal 0 0 -1
    outer loop
      vertex 1.12147e-14 11.547 0
      vertex 20 6.9282 0
      vertex 1.32023e-07 11.547 0
    endloop
  endfacet
  facet normal 0 0 -1
    outer loop
      vertex 10.5048 5.48205 0
      vertex 9.50481 3.75 0
      vertex 6.17468 7.98205 0
    endloop
  endfacet
  facet normal 0 0 -1
    outer loop
      vertex 10.5048 5.48205 0
      vertex 6.17468 7.98205 0
      vertex 20 6.9282 0
    endloop
  endfacet
  facet normal 0 0 -1
    outer loop
      vertex 6.17468 7.98205 0
      vertex 1.32023e-07 11.547 0
      vertex 20 6.9282 0
    endloop
  endfacet
  facet normal 0 0 -1
    outer loop
      vertex -2.82496e-15 11.547 0
      vertex 20 41.9171 0
      vertex 1.12147e-14 11.547 0
    endloop
  endfacet
  facet normal 0 0 -1
    outer loop
      vertex 11.2937 19.105 0
      vertex 20 6.9282 0
      vertex 10.937 19.5011 0
    endloop
  endfacet
  facet normal 0 0 -1
    outer loop
      vertex 14.7063 39.105 0
      vertex 20 41.9171 0
      vertex 14.275 38.7916 0
    endloop
  endfacet
  facet normal 0 0 -1
    outer loop
      vertex 1.12147e-14 11.547 0
      vertex 10.45 21 0
      vertex 10.5057 20.4698 0
    endloop
  endfacet
  facet normal 0 0 -1
    outer loop
      vertex 1.12147e-14 11.547 0
      vertex 10.5057 20.4698 0
      vertex 10.6705 19.9628 0
    endloop
  endfacet
  facet normal 0 0 -1
    outer loop
      vertex 1.12147e-14 11.547 0
      vertex 10.6705 19.9628 0
      vertex 10.937 19.5011 0
    endloop
  endfacet
  facet normal 0 0 -1
    outer loop
      vertex 1.12147e-14 11.547 0
      vertex 10.937 19.5011 0
      vertex 20 6.9282 0
    endloop
  endfacet
  facet normal 0 0 -1
    outer loop
      vertex 11.725 18.7916 0
      vertex 20 6.9282 0
      vertex 11.2937 19.105 0
    endloop
  endfacet
  facet normal 0 0 -1
    outer loop
      vertex 12.212 18.5748 0
      vertex 20 6.9282 0
      vertex 11.725 18.7916 0
    endloop
  endfacet
  facet normal 0 0 -1
    outer loop
      vertex 11.2937 22.895 0
      vertex 20 41.9171 0
      vertex 11.725 23.2084 0
    endloop
  endfacet
  facet normal 0 0 -1
    outer loop
      vertex 15.55 21 0
      vertex 20 41.9171 0
      vertex 15.4943 20.4698 0
    endloop
  endfacet
  facet normal 0 0 -1
    outer loop
      vertex 12.212 18.5748 0
      vertex 12.7335 18.464 0
      vertex 20 6.9282 0
    endloop
  endfacet
  facet normal 0 0 -1
    outer loop
      vertex 13.788 23.4252 0
      vertex 20 41.9171 0
      vertex 14.275 23.2084 0
    endloop
  endfacet
  facet normal 0 0 -1
    outer loop
      vertex 12.7335 18.464 0
      vertex 13.2665 18.464 0
      vertex 20 6.9282 0
    endloop
  endfacet
  facet normal 0 0 -1
    outer loop
      vertex 14.275 23.2084 0
      vertex 20 41.9171 0
      vertex 14.7063 22.895 0
    endloop
  endfacet
  facet normal 0 0 -1
    outer loop
      vertex 13.2665 18.464 0
      vertex 13.788 18.5748 0
      vertex 20 6.9282 0
    endloop
  endfacet
  facet normal 0 0 -1
    outer loop
      vertex 14.7063 22.895 0
      vertex 20 41.9171 0
      vertex 15.063 22.4989 0
    endloop
  endfacet
  facet normal 0 0 -1
    outer loop
      vertex 13.788 18.5748 0
      vertex 14.275 18.7916 0
      vertex 20 6.9282 0
    endloop
  endfacet
  facet normal 0 0 -1
    outer loop
      vertex 15.063 22.4989 0
      vertex 20 41.9171 0
      vertex 15.3295 22.0372 0
    endloop
  endfacet
  facet normal 0 0 -1
    outer loop
      vertex 14.275 18.7916 0
      vertex 14.7063 19.105 0
      vertex 20 6.9282 0
    endloop
  endfacet
  facet normal 0 0 -1
    outer loop
      vertex 15.3295 22.0372 0
      vertex 20 41.9171 0
      vertex 15.4943 21.5302 0
    endloop
  endfacet
  facet normal 0 0 -1
    outer loop
      vertex 14.7063 19.105 0
      vertex 15.063 19.5011 0
      vertex 20 6.9282 0
    endloop
  endfacet
  facet normal 0 0 -1
    outer loop
      vertex 15.4943 21.5302 0
      vertex 20 41.9171 0
      vertex 15.55 21 0
    endloop
  endfacet
  facet normal 0 0 -1
    outer loop
      vertex 15.063 19.5011 0
      vertex 15.3295 19.9628 0
      vertex 20 6.9282 0
    endloop
  endfacet
  facet normal 0 0 -1
    outer loop
      vertex 15.3295 19.9628 0
      vertex 15.4943 20.4698 0
      vertex 20 6.9282 0
    endloop
  endfacet
  facet normal 0 0 -1
    outer loop
      vertex 13.2665 23.536 0
      vertex 20 41.9171 0
      vertex 13.788 23.4252 0
    endloop
  endfacet
  facet normal 0 0 -1
    outer loop
      vertex 12.7335 23.536 0
      vertex 20 41.9171 0
      vertex 13.2665 23.536 0
    endloop
  endfacet
  facet normal 0 0 -1
    outer loop
      vertex 12.212 23.4252 0
      vertex 20 41.9171 0
      vertex 12.7335 23.536 0
    endloop
  endfacet
  facet normal 0 0 -1
    outer loop
      vertex 11.725 23.2084 0
      vertex 20 41.9171 0
      vertex 12.212 23.4252 0
    endloop
  endfacet
  facet normal 0 0 -1
    outer loop
      vertex 1.12147e-14 11.547 0
      vertex 20 41.9171 0
      vertex 11.2937 22.895 0
    endloop
  endfacet
  facet normal 0 0 -1
    outer loop
      vertex 1.12147e-14 11.547 0
      vertex 11.2937 22.895 0
      vertex 10.937 22.4989 0
    endloop
  endfacet
  facet normal 0 0 -1
    outer loop
      vertex 1.12147e-14 11.547 0
      vertex 10.937 22.4989 0
      vertex 10.6705 22.0372 0
    endloop
  endfacet
  facet normal 0 0 -1
    outer loop
      vertex 1.12147e-14 11.547 0
      vertex 10.6705 22.0372 0
      vertex 10.5057 21.5302 0
    endloop
  endfacet
  facet normal 0 0 -1
    outer loop
      vertex 1.12147e-14 11.547 0
      vertex 10.5057 21.5302 0
      vertex 10.45 21 0
    endloop
  endfacet
  facet normal 0 0 -1
    outer loop
      vertex -2.82496e-15 11.547 0
      vertex 6 50 0
      vertex 10.45 41 0
    endloop
  endfacet
  facet normal 0 0 -1
    outer loop
      vertex -2.82496e-15 11.547 0
      vertex 10.45 41 0
      vertex 10.5057 40.4698 0
    endloop
  endfacet
  facet normal 0 0 -1
    outer loop
      vertex -2.82496e-15 11.547 0
      vertex 10.5057 40.4698 0
      vertex 10.6705 39.9628 0
    endloop
  endfacet
  facet normal 0 0 -1
    outer loop
      vertex -2.82496e-15 11.547 0
      vertex 10.6705 39.9628 0
      vertex 10.937 39.5011 0
    endloop
  endfacet
  facet normal 0 0 -1
    outer loop
      vertex -2.82496e-15 11.547 0
      vertex 10.937 39.5011 0
      vertex 11.2937 39.105 0
    endloop
  endfacet
  facet normal 0 0 -1
    outer loop
      vertex -2.82496e-15 11.547 0
      vertex 11.2937 39.105 0
      vertex 11.725 38.7916 0
    endloop
  endfacet
  facet normal 0 0 -1
    outer loop
      vertex -2.82496e-15 11.547 0
      vertex 11.725 38.7916 0
      vertex 12.212 38.5748 0
    endloop
  endfacet
  facet normal 0 0 -1
    outer loop
      vertex -2.82496e-15 11.547 0
      vertex 12.212 38.5748 0
      vertex 12.7335 38.464 0
    endloop
  endfacet
  facet normal 0 0 -1
    outer loop
      vertex -2.82496e-15 11.547 0
      vertex 12.7335 38.464 0
      vertex 13.2665 38.464 0
    endloop
  endfacet
  facet normal 0 0 -1
    outer loop
      vertex -2.82496e-15 11.547 0
      vertex 13.2665 38.464 0
      vertex 13.788 38.5748 0
    endloop
  endfacet
  facet normal 0 0 -1
    outer loop
      vertex -2.82496e-15 11.547 0
      vertex 13.788 38.5748 0
      vertex 14.275 38.7916 0
    endloop
  endfacet
  facet normal 0 0 -1
    outer loop
      vertex -2.82496e-15 11.547 0
      vertex 14.275 38.7916 0
      vertex 20 41.9171 0
    endloop
  endfacet
  facet normal 0 0 -1
    outer loop
      vertex 15.063 39.5011 0
      vertex 20 41.9171 0
      vertex 14.7063 39.105 0
    endloop
  endfacet
  facet normal 0 0 -1
    outer loop
      vertex 15.3295 39.9628 0
      vertex 20 41.9171 0
      vertex 15.063 39.5011 0
    endloop
  endfacet
  facet normal 0 0 -1
    outer loop
      vertex 15.4943 40.4698 0
      vertex 20 41.9171 0
      vertex 15.3295 39.9628 0
    endloop
  endfacet
  facet normal 0 0 -1
    outer loop
      vertex 15.55 41 0
      vertex 20 41.9171 0
      vertex 15.4943 40.4698 0
    endloop
  endfacet
  facet normal 0 0 -1
    outer loop
      vertex 15.4943 41.5302 0
      vertex 20 41.9171 0
      vertex 15.55 41 0
    endloop
  endfacet
  facet normal 0 0 -1
    outer loop
      vertex 13.788 43.4252 0
      vertex 6 50 0
      vertex 14.275 43.2084 0
    endloop
  endfacet
  facet normal 0 0 -1
    outer loop
      vertex 12.7335 43.536 0
      vertex 6 50 0
      vertex 13.2665 43.536 0
    endloop
  endfacet
  facet normal 0 0 -1
    outer loop
      vertex 15.4943 41.5302 0
      vertex 15.3295 42.0372 0
      vertex 20 41.9171 0
    endloop
  endfacet
  facet normal 0 0 -1
    outer loop
      vertex 13.2665 43.536 0
      vertex 6 50 0
      vertex 13.788 43.4252 0
    endloop
  endfacet
  facet normal 0 0 -1
    outer loop
      vertex 15.3295 42.0372 0
      vertex 15.063 42.4989 0
      vertex 20 41.9171 0
    endloop
  endfacet
  facet normal 0 0 -1
    outer loop
      vertex 14.275 43.2084 0
      vertex 6 50 0
      vertex 14.7063 42.895 0
    endloop
  endfacet
  facet normal 0 0 -1
    outer loop
      vertex 15.063 42.4989 0
      vertex 14.7063 42.895 0
      vertex 20 41.9171 0
    endloop
  endfacet
  facet normal 0 0 -1
    outer loop
      vertex 12.212 43.4252 0
      vertex 6 50 0
      vertex 12.7335 43.536 0
    endloop
  endfacet
  facet normal 0 0 -1
    outer loop
      vertex 11.725 43.2084 0
      vertex 6 50 0
      vertex 12.212 43.4252 0
    endloop
  endfacet
  facet normal 0 0 -1
    outer loop
      vertex 11.2937 42.895 0
      vertex 6 50 0
      vertex 11.725 43.2084 0
    endloop
  endfacet
  facet normal 0 0 -1
    outer loop
      vertex 10.937 42.4989 0
      vertex 6 50 0
      vertex 11.2937 42.895 0
    endloop
  endfacet
  facet normal 0 0 -1
    outer loop
      vertex 10.6705 42.0372 0
      vertex 6 50 0
      vertex 10.937 42.4989 0
    endloop
  endfacet
  facet normal 0 0 -1
    outer loop
      vertex 10.5057 41.5302 0
      vertex 6 50 0
      vertex 10.6705 42.0372 0
    endloop
  endfacet
  facet normal 0 0 -1
    outer loop
      vertex 10.45 41 0
      vertex 6 50 0
      vertex 10.5057 41.5302 0
    endloop
  endfacet
  facet normal 0 0 -1
    outer loop
      vertex 6.17468 7.98205 0
      vertex 9.50481 3.75 0
      vertex 5.17468 6.25 0
    endloop
  endfacet
  facet normal -2.4037e-16 1 0
    outer loop
      vertex -1.20672e-14 49.997 0
      vertex -1.20672e-14 49.997 6
      vertex 0 49.997 0
    endloop
  endfacet
  facet normal -2.4037e-16 1 0
    outer loop
      vertex 0 49.997 6
      vertex -1.20672e-14 49.997 6
      vertex 6 49.997 6
    endloop
  endfacet
  facet normal -2.4037e-16 1 0
    outer loop
      vertex 0 49.997 0
      vertex -1.20672e-14 49.997 6
      vertex 0 49.997 6
    endloop
  endfacet
  facet normal -1.26118e-16 0.524683 0.851298
    outer loop
      vertex 6 49.997 6
      vertex -1.20672e-14 49.997 6
      vertex -4.26718e-15 17.547 26
    endloop
  endfacet
  facet normal -1.26118e-16 0.524683 0.851298
    outer loop
      vertex 6 17.547 26
      vertex 6 49.997 6
      vertex -4.26718e-15 17.547 26
    endloop
  endfacet
  facet normal 0 0 1
    outer loop
      vertex 6 17.547 26
      vertex -4.26718e-15 17.547 26
      vertex -2.82496e-15 11.547 26
    endloop
  endfacet
  facet normal 0 0 1
    outer loop
      vertex 1.32023e-07 11.547 26
      vertex 6 17.547 26
      vertex 1.76031e-07 11.547 26
    endloop
  endfacet
  facet normal 0 0 1
    outer loop
      vertex 1.76031e-07 11.547 26
      vertex 6 17.547 26
      vertex -2.82496e-15 11.547 26
    endloop
  endfacet
  facet normal 0 0 1
    outer loop
      vertex 6 15.0111 26
      vertex 6 17.547 26
      vertex 1.32023e-07 11.547 26
    endloop
  endfacet
  facet normal 0 0 1
    outer loop
      vertex 17 1.73205 26
      vertex 6 15.0111 26
      vertex 1.32023e-07 11.547 26
    endloop
  endfacet
  facet normal 0 0 1
    outer loop
      vertex 20 6.9282 26
      vertex 6 15.0111 26
      vertex 17 1.73205 26
    endloop
  endfacet
  facet normal 2.4037e-16 -1 0
    outer loop
      vertex -2.82496e-15 11.547 26
      vertex -2.82496e-15 11.547 0
      vertex 1.12147e-14 11.547 0
    endloop
  endfacet
  facet normal 2.4037e-16 -1 0
    outer loop
      vertex 1.76031e-07 11.547 6
      vertex -2.82496e-15 11.547 26
      vertex 1.12147e-14 11.547 6
    endloop
  endfacet
  facet normal 2.4037e-16 -1 0
    outer loop
      vertex 1.12147e-14 11.547 6
      vertex -2.82496e-15 11.547 26
      vertex 1.12147e-14 11.547 0
    endloop
  endfacet
  facet normal 2.4037e-16 -1 0
    outer loop
      vertex 1.76031e-07 11.547 26
      vertex -2.82496e-15 11.547 26
      vertex 1.76031e-07 11.547 6
    endloop
  endfacet
  facet normal -0.5 -0.866025 0
    outer loop
      vertex 1.12147e-14 11.547 6
      vertex 1.12147e-14 11.547 0
      vertex 1.32023e-07 11.547 0
    endloop
  endfacet
  facet normal -0.5 -0.866025 0
    outer loop
      vertex 1.32023e-07 11.547 6
      vertex 1.12147e-14 11.547 6
      vertex 1.32023e-07 11.547 0
    endloop
  endfacet
  facet normal -0.866025 0.5 0
    outer loop
      vertex 1.32023e-07 11.547 6
      vertex 1.32023e-07 11.547 26
      vertex 1.76031e-07 11.547 26
    endloop
  endfacet
  facet normal -0.866025 0.5 0
    outer loop
      vertex 1.32023e-07 11.547 0
      vertex 1.32023e-07 11.547 26
      vertex 1.32023e-07 11.547 6
    endloop
  endfacet
  facet normal -0.866025 0.5 0
    outer loop
      vertex 1.32023e-07 11.547 6
      vertex 1.76031e-07 11.547 26
      vertex 1.76031e-07 11.547 6
    endloop
  endfacet
  facet normal -0.5 -0.866025 0
    outer loop
      vertex 1.32023e-07 11.547 26
      vertex 1.32023e-07 11.547 0
      vertex 6.17468 7.98205 0
    endloop
  endfacet
  facet normal -0.5 -0.866025 0
    outer loop
      vertex 8.28519 6.76355 14.5011
      vertex 1.32023e-07 11.547 26
      vertex 6.17468 7.98205 12
    endloop
  endfacet
  facet normal -0.5 -0.866025 0
    outer loop
      vertex 6.17468 7.98205 12
      vertex 1.32023e-07 11.547 26
      vertex 6.17468 7.98205 0
    endloop
  endfacet
  facet normal -0.5 -0.866025 0
    outer loop
      vertex 17 1.73205 0
      vertex 10.5048 5.48205 12
      vertex 10.5048 5.48205 0
    endloop
  endfacet
  facet normal -0.5 -0.866025 0
    outer loop
      vertex 11.8584 4.70055 14.5011
      vertex 10.5048 5.48205 12
      vertex 17 1.73205 0
    endloop
  endfacet
  facet normal -0.5 -0.866025 0
    outer loop
      vertex 8.28519 6.76355 14.5011
      vertex 8.05436 6.89682 14.9628
      vertex 1.32023e-07 11.547 26
    endloop
  endfacet
  facet normal -0.5 -0.866025 0
    outer loop
      vertex 7.86343 7.00705 16
      vertex 1.32023e-07 11.547 26
      vertex 7.91169 6.97919 15.4698
    endloop
  endfacet
  facet normal -0.5 -0.866025 0
    outer loop
      vertex 7.91169 6.97919 16.5302
      vertex 1.32023e-07 11.547 26
      vertex 7.86343 7.00705 16
    endloop
  endfacet
  facet normal -0.5 -0.866025 0
    outer loop
      vertex 8.05436 6.89682 17.0372
      vertex 1.32023e-07 11.547 26
      vertex 7.91169 6.97919 16.5302
    endloop
  endfacet
  facet normal -0.5 -0.866025 0
    outer loop
      vertex 9.84096 5.86532 18.536
      vertex 10.3026 5.59878 18.536
      vertex 17 1.73205 26
    endloop
  endfacet
  facet normal -0.5 -0.866025 0
    outer loop
      vertex 8.28519 6.76355 17.4989
      vertex 1.32023e-07 11.547 26
      vertex 8.05436 6.89682 17.0372
    endloop
  endfacet
  facet normal -0.5 -0.866025 0
    outer loop
      vertex 8.59411 6.58519 17.895
      vertex 1.32023e-07 11.547 26
      vertex 8.28519 6.76355 17.4989
    endloop
  endfacet
  facet normal -0.5 -0.866025 0
    outer loop
      vertex 17 1.73205 26
      vertex 1.32023e-07 11.547 26
      vertex 8.59411 6.58519 17.895
    endloop
  endfacet
  facet normal -0.5 -0.866025 0
    outer loop
      vertex 17 1.73205 26
      vertex 8.59411 6.58519 17.895
      vertex 8.96761 6.36955 18.2084
    endloop
  endfacet
  facet normal -0.5 -0.866025 0
    outer loop
      vertex 12.2802 4.45705 16
      vertex 12.2319 4.48491 15.4698
      vertex 17 1.73205 26
    endloop
  endfacet
  facet normal -0.5 -0.866025 0
    outer loop
      vertex 10.3026 5.59878 18.536
      vertex 10.7542 5.33805 18.4252
      vertex 17 1.73205 26
    endloop
  endfacet
  facet normal -0.5 -0.866025 0
    outer loop
      vertex 9.38937 6.12605 13.5748
      vertex 8.96761 6.36955 13.7916
      vertex 10.5048 5.48205 12
    endloop
  endfacet
  facet normal -0.5 -0.866025 0
    outer loop
      vertex 17 1.73205 26
      vertex 10.7542 5.33805 18.4252
      vertex 11.176 5.09455 18.2084
    endloop
  endfacet
  facet normal -0.5 -0.866025 0
    outer loop
      vertex 17 1.73205 26
      vertex 11.176 5.09455 18.2084
      vertex 11.5495 4.87891 17.895
    endloop
  endfacet
  facet normal -0.5 -0.866025 0
    outer loop
      vertex 10.7542 5.33805 13.5748
      vertex 10.3026 5.59878 13.464
      vertex 10.5048 5.48205 12
    endloop
  endfacet
  facet normal -0.5 -0.866025 0
    outer loop
      vertex 17 1.73205 26
      vertex 11.5495 4.87891 17.895
      vertex 11.8584 4.70055 17.4989
    endloop
  endfacet
  facet normal -0.5 -0.866025 0
    outer loop
      vertex 17 1.73205 26
      vertex 11.8584 4.70055 17.4989
      vertex 12.0892 4.56728 17.0372
    endloop
  endfacet
  facet normal -0.5 -0.866025 0
    outer loop
      vertex 17 1.73205 26
      vertex 12.0892 4.56728 17.0372
      vertex 12.2319 4.48491 16.5302
    endloop
  endfacet
  facet normal -0.5 -0.866025 0
    outer loop
      vertex 11.8584 4.70055 14.5011
      vertex 11.5495 4.87891 14.105
      vertex 10.5048 5.48205 12
    endloop
  endfacet
  facet normal -0.5 -0.866025 0
    outer loop
      vertex 17 1.73205 26
      vertex 12.2319 4.48491 16.5302
      vertex 12.2802 4.45705 16
    endloop
  endfacet
  facet normal -0.5 -0.866025 0
    outer loop
      vertex 17 1.73205 26
      vertex 12.2319 4.48491 15.4698
      vertex 17 1.73205 0
    endloop
  endfacet
  facet normal -0.5 -0.866025 0
    outer loop
      vertex 12.2319 4.48491 15.4698
      vertex 12.0892 4.56728 14.9628
      vertex 17 1.73205 0
    endloop
  endfacet
  facet normal -0.5 -0.866025 0
    outer loop
      vertex 12.0892 4.56728 14.9628
      vertex 11.8584 4.70055 14.5011
      vertex 17 1.73205 0
    endloop
  endfacet
  facet normal -0.5 -0.866025 0
    outer loop
      vertex 11.5495 4.87891 14.105
      vertex 11.176 5.09455 13.7916
      vertex 10.5048 5.48205 12
    endloop
  endfacet
  facet normal -0.5 -0.866025 0
    outer loop
      vertex 10.3026 5.59878 13.464
      vertex 9.84096 5.86532 13.464
      vertex 10.5048 5.48205 12
    endloop
  endfacet
  facet normal -0.5 -0.866025 0
    outer loop
      vertex 9.84096 5.86532 13.464
      vertex 9.38937 6.12605 13.5748
      vertex 10.5048 5.48205 12
    endloop
  endfacet
  facet normal -0.5 -0.866025 0
    outer loop
      vertex 10.5048 5.48205 12
      vertex 8.96761 6.36955 13.7916
      vertex 6.17468 7.98205 12
    endloop
  endfacet
  facet normal -0.5 -0.866025 0
    outer loop
      vertex 8.96761 6.36955 18.2084
      vertex 9.38937 6.12605 18.4252
      vertex 17 1.73205 26
    endloop
  endfacet
  facet normal -0.5 -0.866025 0
    outer loop
      vertex 8.96761 6.36955 13.7916
      vertex 8.59411 6.58519 14.105
      vertex 6.17468 7.98205 12
    endloop
  endfacet
  facet normal -0.5 -0.866025 0
    outer loop
      vertex 8.59411 6.58519 14.105
      vertex 8.28519 6.76355 14.5011
      vertex 6.17468 7.98205 12
    endloop
  endfacet
  facet normal -0.5 -0.866025 0
    outer loop
      vertex 9.38937 6.12605 18.4252
      vertex 9.84096 5.86532 18.536
      vertex 17 1.73205 26
    endloop
  endfacet
  facet normal -0.5 -0.866025 0
    outer loop
      vertex 8.05436 6.89682 14.9628
      vertex 7.91169 6.97919 15.4698
      vertex 1.32023e-07 11.547 26
    endloop
  endfacet
  facet normal -0.5 -0.866025 0
    outer loop
      vertex 11.176 5.09455 13.7916
      vertex 10.7542 5.33805 13.5748
      vertex 10.5048 5.48205 12
    endloop
  endfacet
  facet normal -0.866025 0.5 0
    outer loop
      vertex 5.17468 6.25 0
      vertex 5.17468 6.25 12
      vertex 6.17468 7.98205 0
    endloop
  endfacet
  facet normal -0.866025 0.5 0
    outer loop
      vertex 6.17468 7.98205 0
      vertex 5.17468 6.25 12
      vertex 6.17468 7.98205 12
    endloop
  endfacet
  facet normal -0.5 -0.866025 0
    outer loop
      vertex 5.17468 6.25 12
      vertex 5.17468 6.25 0
      vertex 9.50481 3.75 0
    endloop
  endfacet
  facet normal -0.5 -0.866025 0
    outer loop
      vertex 9.50481 3.75 12
      vertex 5.17468 6.25 12
      vertex 9.50481 3.75 0
    endloop
  endfacet
  facet normal 0.866025 -0.5 0
    outer loop
      vertex 9.50481 3.75 12
      vertex 9.50481 3.75 0
      vertex 10.5048 5.48205 0
    endloop
  endfacet
  facet normal 0.866025 -0.5 0
    outer loop
      vertex 10.5048 5.48205 12
      vertex 9.50481 3.75 12
      vertex 10.5048 5.48205 0
    endloop
  endfacet
  facet normal 0.866025 -0.5 0
    outer loop
      vertex 17 1.73205 26
      vertex 17 1.73205 0
      vertex 20 6.9282 0
    endloop
  endfacet
  facet normal 0.866025 -0.5 0
    outer loop
      vertex 20 6.9282 26
      vertex 17 1.73205 26
      vertex 20 6.9282 0
    endloop
  endfacet
  facet normal 0.5 0.866025 0
    outer loop
      vertex 14.5495 10.0751 17.895
      vertex 6 15.0111 26
      vertex 20 6.9282 26
    endloop
  endfacet
  facet normal 0.5 0.866025 0
    outer loop
      vertex 20 6.9282 6
      vertex 20 6.9282 26
      vertex 20 6.9282 0
    endloop
  endfacet
  facet normal 0.5 0.866025 0
    outer loop
      vertex 12.3894 11.3222 13.5748
      vertex 20 6.9282 6
      vertex 11.9676 11.5657 13.7916
    endloop
  endfacet
  facet normal 0.5 0.866025 0
    outer loop
      vertex 6 15.0111 6
      vertex 6 15.0111 26
      vertex 10.8634 12.2032 16
    endloop
  endfacet
  facet normal 0.5 0.866025 0
    outer loop
      vertex 11.2852 11.9597 17.4989
      vertex 6 15.0111 26
      vertex 11.5941 11.7813 17.895
    endloop
  endfacet
  facet normal 0.5 0.866025 0
    outer loop
      vertex 6 15.0111 6
      vertex 10.8634 12.2032 16
      vertex 10.9117 12.1753 15.4698
    endloop
  endfacet
  facet normal 0.5 0.866025 0
    outer loop
      vertex 6 15.0111 6
      vertex 10.9117 12.1753 15.4698
      vertex 11.0544 12.093 14.9628
    endloop
  endfacet
  facet normal 0.5 0.866025 0
    outer loop
      vertex 6 15.0111 6
      vertex 11.0544 12.093 14.9628
      vertex 11.2852 11.9597 14.5011
    endloop
  endfacet
  facet normal 0.5 0.866025 0
    outer loop
      vertex 6 15.0111 6
      vertex 11.2852 11.9597 14.5011
      vertex 11.5941 11.7813 14.105
    endloop
  endfacet
  facet normal 0.5 0.866025 0
    outer loop
      vertex 6 15.0111 6
      vertex 11.5941 11.7813 14.105
      vertex 20 6.9282 6
    endloop
  endfacet
  facet normal 0.5 0.866025 0
    outer loop
      vertex 11.5941 11.7813 14.105
      vertex 11.9676 11.5657 13.7916
      vertex 20 6.9282 6
    endloop
  endfacet
  facet normal 0.5 0.866025 0
    outer loop
      vertex 12.841 11.0615 13.464
      vertex 20 6.9282 6
      vertex 12.3894 11.3222 13.5748
    endloop
  endfacet
  facet normal 0.5 0.866025 0
    outer loop
      vertex 13.3026 10.7949 13.464
      vertex 20 6.9282 6
      vertex 12.841 11.0615 13.464
    endloop
  endfacet
  facet normal 0.5 0.866025 0
    outer loop
      vertex 14.5495 10.0751 14.105
      vertex 20 6.9282 6
      vertex 14.176 10.2907 13.7916
    endloop
  endfacet
  facet normal 0.5 0.866025 0
    outer loop
      vertex 11.0544 12.093 17.0372
      vertex 6 15.0111 26
      vertex 11.2852 11.9597 17.4989
    endloop
  endfacet
  facet normal 0.5 0.866025 0
    outer loop
      vertex 13.3026 10.7949 13.464
      vertex 13.7542 10.5342 13.5748
      vertex 20 6.9282 6
    endloop
  endfacet
  facet normal 0.5 0.866025 0
    outer loop
      vertex 13.7542 10.5342 13.5748
      vertex 14.176 10.2907 13.7916
      vertex 20 6.9282 6
    endloop
  endfacet
  facet normal 0.5 0.866025 0
    outer loop
      vertex 15.2319 9.68107 15.4698
      vertex 20 6.9282 26
      vertex 15.0892 9.76343 14.9628
    endloop
  endfacet
  facet normal 0.5 0.866025 0
    outer loop
      vertex 20 6.9282 6
      vertex 14.5495 10.0751 14.105
      vertex 14.8584 9.89671 14.5011
    endloop
  endfacet
  facet normal 0.5 0.866025 0
    outer loop
      vertex 20 6.9282 6
      vertex 14.8584 9.89671 14.5011
      vertex 15.0892 9.76343 14.9628
    endloop
  endfacet
  facet normal 0.5 0.866025 0
    outer loop
      vertex 20 6.9282 6
      vertex 15.0892 9.76343 14.9628
      vertex 20 6.9282 26
    endloop
  endfacet
  facet normal 0.5 0.866025 0
    outer loop
      vertex 15.2802 9.6532 16
      vertex 20 6.9282 26
      vertex 15.2319 9.68107 15.4698
    endloop
  endfacet
  facet normal 0.5 0.866025 0
    outer loop
      vertex 11.5941 11.7813 17.895
      vertex 6 15.0111 26
      vertex 11.9676 11.5657 18.2084
    endloop
  endfacet
  facet normal 0.5 0.866025 0
    outer loop
      vertex 13.7542 10.5342 18.4252
      vertex 6 15.0111 26
      vertex 14.176 10.2907 18.2084
    endloop
  endfacet
  facet normal 0.5 0.866025 0
    outer loop
      vertex 15.2802 9.6532 16
      vertex 15.2319 9.68107 16.5302
      vertex 20 6.9282 26
    endloop
  endfacet
  facet normal 0.5 0.866025 0
    outer loop
      vertex 12.841 11.0615 18.536
      vertex 6 15.0111 26
      vertex 13.3026 10.7949 18.536
    endloop
  endfacet
  facet normal 0.5 0.866025 0
    outer loop
      vertex 15.2319 9.68107 16.5302
      vertex 15.0892 9.76343 17.0372
      vertex 20 6.9282 26
    endloop
  endfacet
  facet normal 0.5 0.866025 0
    outer loop
      vertex 13.3026 10.7949 18.536
      vertex 6 15.0111 26
      vertex 13.7542 10.5342 18.4252
    endloop
  endfacet
  facet normal 0.5 0.866025 0
    outer loop
      vertex 15.0892 9.76343 17.0372
      vertex 14.8584 9.89671 17.4989
      vertex 20 6.9282 26
    endloop
  endfacet
  facet normal 0.5 0.866025 0
    outer loop
      vertex 14.176 10.2907 18.2084
      vertex 6 15.0111 26
      vertex 14.5495 10.0751 17.895
    endloop
  endfacet
  facet normal 0.5 0.866025 0
    outer loop
      vertex 14.8584 9.89671 17.4989
      vertex 14.5495 10.0751 17.895
      vertex 20 6.9282 26
    endloop
  endfacet
  facet normal 0.5 0.866025 0
    outer loop
      vertex 12.3894 11.3222 18.4252
      vertex 6 15.0111 26
      vertex 12.841 11.0615 18.536
    endloop
  endfacet
  facet normal 0.5 0.866025 0
    outer loop
      vertex 11.9676 11.5657 18.2084
      vertex 6 15.0111 26
      vertex 12.3894 11.3222 18.4252
    endloop
  endfacet
  facet normal 0.5 0.866025 0
    outer loop
      vertex 10.9117 12.1753 16.5302
      vertex 6 15.0111 26
      vertex 11.0544 12.093 17.0372
    endloop
  endfacet
  facet normal 0.5 0.866025 0
    outer loop
      vertex 10.8634 12.2032 16
      vertex 6 15.0111 26
      vertex 10.9117 12.1753 16.5302
    endloop
  endfacet
  facet normal 1 0 0
    outer loop
      vertex 20 6.9282 6
      vertex 20 6.9282 0
      vertex 20 41.9171 0
    endloop
  endfacet
  facet normal 1 0 0
    outer loop
      vertex 20 41.9171 6
      vertex 20 6.9282 6
      vertex 20 41.9171 0
    endloop
  endfacet
  facet normal 0.5 0.866025 0
    outer loop
      vertex 6 50 0
      vertex 6 50 6
      vertex 20 41.9171 0
    endloop
  endfacet
  facet normal 0.5 0.866025 0
    outer loop
      vertex 20 41.9171 0
      vertex 6 50 6
      vertex 20 41.9171 6
    endloop
  endfacet
  facet normal 0 1 0
    outer loop
      vertex 0 50 0
      vertex 0 50 6
      vertex 6 50 0
    endloop
  endfacet
  facet normal 0 1 0
    outer loop
      vertex 6 50 0
      vertex 0 50 6
      vertex 6 50 6
    endloop
  endfacet
  facet normal -1 0 0
    outer loop
      vertex 0 49.997 0
      vertex 0 49.997 6
      vertex 0 50 0
    endloop
  endfacet
  facet normal -1 0 0
    outer loop
      vertex 0 50 0
      vertex 0 49.997 6
      vertex 0 50 6
    endloop
  endfacet
  facet normal 0.994522 -0.104529 0
    outer loop
      vertex 10.5057 21.5302 0
      vertex 10.5057 21.5302 6
      vertex 10.45 21 6
    endloop
  endfacet
  facet normal 0.994522 -0.104529 0
    outer loop
      vertex 10.45 21 0
      vertex 10.5057 21.5302 0
      vertex 10.45 21 6
    endloop
  endfacet
  facet normal 0.994522 0.104529 0
    outer loop
      vertex 10.45 21 6
      vertex 10.5057 20.4698 6
      vertex 10.5057 20.4698 0
    endloop
  endfacet
  facet normal 0.994522 0.104529 0
    outer loop
      vertex 10.45 21 0
      vertex 10.45 21 6
      vertex 10.5057 20.4698 0
    endloop
  endfacet
  facet normal 0.951057 -0.309017 0
    outer loop
      vertex 10.6705 22.0372 0
      vertex 10.6705 22.0372 6
      vertex 10.5057 21.5302 6
    endloop
  endfacet
  facet normal 0.951057 -0.309017 0
    outer loop
      vertex 10.5057 21.5302 0
      vertex 10.6705 22.0372 0
      vertex 10.5057 21.5302 6
    endloop
  endfacet
  facet normal 0.866025 -0.500001 0
    outer loop
      vertex 10.937 22.4989 0
      vertex 10.937 22.4989 6
      vertex 10.6705 22.0372 6
    endloop
  endfacet
  facet normal 0.866025 -0.500001 0
    outer loop
      vertex 10.6705 22.0372 0
      vertex 10.937 22.4989 0
      vertex 10.6705 22.0372 6
    endloop
  endfacet
  facet normal 0.743145 -0.66913 0
    outer loop
      vertex 11.2937 22.895 0
      vertex 11.2937 22.895 6
      vertex 10.937 22.4989 6
    endloop
  endfacet
  facet normal 0.743145 -0.66913 0
    outer loop
      vertex 10.937 22.4989 0
      vertex 11.2937 22.895 0
      vertex 10.937 22.4989 6
    endloop
  endfacet
  facet normal 0.587786 -0.809016 0
    outer loop
      vertex 11.725 23.2084 0
      vertex 11.725 23.2084 6
      vertex 11.2937 22.895 6
    endloop
  endfacet
  facet normal 0.587786 -0.809016 0
    outer loop
      vertex 11.2937 22.895 0
      vertex 11.725 23.2084 0
      vertex 11.2937 22.895 6
    endloop
  endfacet
  facet normal 0.406736 -0.913546 0
    outer loop
      vertex 12.212 23.4252 0
      vertex 12.212 23.4252 6
      vertex 11.725 23.2084 6
    endloop
  endfacet
  facet normal 0.406736 -0.913546 0
    outer loop
      vertex 11.725 23.2084 0
      vertex 12.212 23.4252 0
      vertex 11.725 23.2084 6
    endloop
  endfacet
  facet normal 0.207912 -0.978147 0
    outer loop
      vertex 12.7335 23.536 0
      vertex 12.7335 23.536 6
      vertex 12.212 23.4252 6
    endloop
  endfacet
  facet normal 0.207912 -0.978147 0
    outer loop
      vertex 12.212 23.4252 0
      vertex 12.7335 23.536 0
      vertex 12.212 23.4252 6
    endloop
  endfacet
  facet normal 0 -1 0
    outer loop
      vertex 13.2665 23.536 0
      vertex 13.2665 23.536 6
      vertex 12.7335 23.536 6
    endloop
  endfacet
  facet normal 0 -1 0
    outer loop
      vertex 12.7335 23.536 0
      vertex 13.2665 23.536 0
      vertex 12.7335 23.536 6
    endloop
  endfacet
  facet normal -0.207912 -0.978147 0
    outer loop
      vertex 13.788 23.4252 0
      vertex 13.788 23.4252 6
      vertex 13.2665 23.536 6
    endloop
  endfacet
  facet normal -0.207912 -0.978147 0
    outer loop
      vertex 13.2665 23.536 0
      vertex 13.788 23.4252 0
      vertex 13.2665 23.536 6
    endloop
  endfacet
  facet normal -0.406736 -0.913546 0
    outer loop
      vertex 14.275 23.2084 0
      vertex 14.275 23.2084 6
      vertex 13.788 23.4252 6
    endloop
  endfacet
  facet normal -0.406736 -0.913546 0
    outer loop
      vertex 13.788 23.4252 0
      vertex 14.275 23.2084 0
      vertex 13.788 23.4252 6
    endloop
  endfacet
  facet normal -0.587786 -0.809016 0
    outer loop
      vertex 14.7063 22.895 0
      vertex 14.7063 22.895 6
      vertex 14.275 23.2084 6
    endloop
  endfacet
  facet normal -0.587786 -0.809016 0
    outer loop
      vertex 14.275 23.2084 0
      vertex 14.7063 22.895 0
      vertex 14.275 23.2084 6
    endloop
  endfacet
  facet normal -0.743145 -0.66913 0
    outer loop
      vertex 15.063 22.4989 6
      vertex 14.7063 22.895 6
      vertex 15.063 22.4989 0
    endloop
  endfacet
  facet normal -0.743145 -0.66913 0
    outer loop
      vertex 15.063 22.4989 0
      vertex 14.7063 22.895 6
      vertex 14.7063 22.895 0
    endloop
  endfacet
  facet normal -0.866025 -0.500001 0
    outer loop
      vertex 15.3295 22.0372 6
      vertex 15.063 22.4989 6
      vertex 15.3295 22.0372 0
    endloop
  endfacet
  facet normal -0.866025 -0.500001 0
    outer loop
      vertex 15.3295 22.0372 0
      vertex 15.063 22.4989 6
      vertex 15.063 22.4989 0
    endloop
  endfacet
  facet normal -0.951057 -0.309017 0
    outer loop
      vertex 15.4943 21.5302 6
      vertex 15.3295 22.0372 6
      vertex 15.4943 21.5302 0
    endloop
  endfacet
  facet normal -0.951057 -0.309017 0
    outer loop
      vertex 15.4943 21.5302 0
      vertex 15.3295 22.0372 6
      vertex 15.3295 22.0372 0
    endloop
  endfacet
  facet normal -0.994522 -0.104529 0
    outer loop
      vertex 15.55 21 6
      vertex 15.4943 21.5302 6
      vertex 15.55 21 0
    endloop
  endfacet
  facet normal -0.994522 -0.104529 0
    outer loop
      vertex 15.55 21 0
      vertex 15.4943 21.5302 6
      vertex 15.4943 21.5302 0
    endloop
  endfacet
  facet normal -0.994522 0.104529 0
    outer loop
      vertex 15.55 21 6
      vertex 15.55 21 0
      vertex 15.4943 20.4698 6
    endloop
  endfacet
  facet normal -0.994522 0.104529 0
    outer loop
      vertex 15.4943 20.4698 6
      vertex 15.55 21 0
      vertex 15.4943 20.4698 0
    endloop
  endfacet
  facet normal -0.951057 0.309017 0
    outer loop
      vertex 15.4943 20.4698 6
      vertex 15.4943 20.4698 0
      vertex 15.3295 19.9628 6
    endloop
  endfacet
  facet normal -0.951057 0.309017 0
    outer loop
      vertex 15.3295 19.9628 6
      vertex 15.4943 20.4698 0
      vertex 15.3295 19.9628 0
    endloop
  endfacet
  facet normal -0.866025 0.500001 0
    outer loop
      vertex 15.3295 19.9628 6
      vertex 15.3295 19.9628 0
      vertex 15.063 19.5011 6
    endloop
  endfacet
  facet normal -0.866025 0.500001 0
    outer loop
      vertex 15.063 19.5011 6
      vertex 15.3295 19.9628 0
      vertex 15.063 19.5011 0
    endloop
  endfacet
  facet normal -0.743145 0.66913 0
    outer loop
      vertex 15.063 19.5011 6
      vertex 15.063 19.5011 0
      vertex 14.7063 19.105 6
    endloop
  endfacet
  facet normal -0.743145 0.66913 0
    outer loop
      vertex 14.7063 19.105 6
      vertex 15.063 19.5011 0
      vertex 14.7063 19.105 0
    endloop
  endfacet
  facet normal -0.587786 0.809016 0
    outer loop
      vertex 14.7063 19.105 6
      vertex 14.7063 19.105 0
      vertex 14.275 18.7916 6
    endloop
  endfacet
  facet normal -0.587786 0.809016 0
    outer loop
      vertex 14.275 18.7916 6
      vertex 14.7063 19.105 0
      vertex 14.275 18.7916 0
    endloop
  endfacet
  facet normal -0.406736 0.913546 0
    outer loop
      vertex 14.275 18.7916 6
      vertex 14.275 18.7916 0
      vertex 13.788 18.5748 6
    endloop
  endfacet
  facet normal -0.406736 0.913546 0
    outer loop
      vertex 13.788 18.5748 6
      vertex 14.275 18.7916 0
      vertex 13.788 18.5748 0
    endloop
  endfacet
  facet normal -0.207912 0.978147 0
    outer loop
      vertex 13.788 18.5748 6
      vertex 13.788 18.5748 0
      vertex 13.2665 18.464 6
    endloop
  endfacet
  facet normal -0.207912 0.978147 0
    outer loop
      vertex 13.2665 18.464 6
      vertex 13.788 18.5748 0
      vertex 13.2665 18.464 0
    endloop
  endfacet
  facet normal 0 1 0
    outer loop
      vertex 13.2665 18.464 6
      vertex 13.2665 18.464 0
      vertex 12.7335 18.464 6
    endloop
  endfacet
  facet normal 0 1 0
    outer loop
      vertex 12.7335 18.464 6
      vertex 13.2665 18.464 0
      vertex 12.7335 18.464 0
    endloop
  endfacet
  facet normal 0.207912 0.978147 0
    outer loop
      vertex 12.7335 18.464 6
      vertex 12.7335 18.464 0
      vertex 12.212 18.5748 6
    endloop
  endfacet
  facet normal 0.207912 0.978147 0
    outer loop
      vertex 12.212 18.5748 6
      vertex 12.7335 18.464 0
      vertex 12.212 18.5748 0
    endloop
  endfacet
  facet normal 0.406736 0.913546 0
    outer loop
      vertex 12.212 18.5748 6
      vertex 12.212 18.5748 0
      vertex 11.725 18.7916 6
    endloop
  endfacet
  facet normal 0.406736 0.913546 0
    outer loop
      vertex 11.725 18.7916 6
      vertex 12.212 18.5748 0
      vertex 11.725 18.7916 0
    endloop
  endfacet
  facet normal 0.587786 0.809016 0
    outer loop
      vertex 11.725 18.7916 6
      vertex 11.725 18.7916 0
      vertex 11.2937 19.105 6
    endloop
  endfacet
  facet normal 0.587786 0.809016 0
    outer loop
      vertex 11.2937 19.105 6
      vertex 11.725 18.7916 0
      vertex 11.2937 19.105 0
    endloop
  endfacet
  facet normal 0.743145 0.66913 0
    outer loop
      vertex 10.937 19.5011 6
      vertex 11.2937 19.105 6
      vertex 11.2937 19.105 0
    endloop
  endfacet
  facet normal 0.743145 0.66913 0
    outer loop
      vertex 10.937 19.5011 0
      vertex 10.937 19.5011 6
      vertex 11.2937 19.105 0
    endloop
  endfacet
  facet normal 0.866025 0.500001 0
    outer loop
      vertex 10.6705 19.9628 6
      vertex 10.937 19.5011 6
      vertex 10.937 19.5011 0
    endloop
  endfacet
  facet normal 0.866025 0.500001 0
    outer loop
      vertex 10.6705 19.9628 0
      vertex 10.6705 19.9628 6
      vertex 10.937 19.5011 0
    endloop
  endfacet
  facet normal 0.951057 0.309017 0
    outer loop
      vertex 10.5057 20.4698 6
      vertex 10.6705 19.9628 6
      vertex 10.6705 19.9628 0
    endloop
  endfacet
  facet normal 0.951057 0.309017 0
    outer loop
      vertex 10.5057 20.4698 0
      vertex 10.5057 20.4698 6
      vertex 10.6705 19.9628 0
    endloop
  endfacet
  facet normal 0.994522 -0.104529 0
    outer loop
      vertex 10.5057 41.5302 0
      vertex 10.5057 41.5302 6
      vertex 10.45 41 6
    endloop
  endfacet
  facet normal 0.994522 -0.104529 0
    outer loop
      vertex 10.45 41 0
      vertex 10.5057 41.5302 0
      vertex 10.45 41 6
    endloop
  endfacet
  facet normal 0.994522 0.104529 0
    outer loop
      vertex 10.45 41 6
      vertex 10.5057 40.4698 6
      vertex 10.5057 40.4698 0
    endloop
  endfacet
  facet normal 0.994522 0.104529 0
    outer loop
      vertex 10.45 41 0
      vertex 10.45 41 6
      vertex 10.5057 40.4698 0
    endloop
  endfacet
  facet normal 0.951057 -0.309017 0
    outer loop
      vertex 10.6705 42.0372 0
      vertex 10.6705 42.0372 6
      vertex 10.5057 41.5302 6
    endloop
  endfacet
  facet normal 0.951057 -0.309017 0
    outer loop
      vertex 10.5057 41.5302 0
      vertex 10.6705 42.0372 0
      vertex 10.5057 41.5302 6
    endloop
  endfacet
  facet normal 0.866025 -0.500001 0
    outer loop
      vertex 10.937 42.4989 0
      vertex 10.937 42.4989 6
      vertex 10.6705 42.0372 6
    endloop
  endfacet
  facet normal 0.866025 -0.500001 0
    outer loop
      vertex 10.6705 42.0372 0
      vertex 10.937 42.4989 0
      vertex 10.6705 42.0372 6
    endloop
  endfacet
  facet normal 0.743145 -0.66913 0
    outer loop
      vertex 11.2937 42.895 0
      vertex 11.2937 42.895 6
      vertex 10.937 42.4989 6
    endloop
  endfacet
  facet normal 0.743145 -0.66913 0
    outer loop
      vertex 10.937 42.4989 0
      vertex 11.2937 42.895 0
      vertex 10.937 42.4989 6
    endloop
  endfacet
  facet normal 0.587786 -0.809016 0
    outer loop
      vertex 11.725 43.2084 0
      vertex 11.725 43.2084 6
      vertex 11.2937 42.895 6
    endloop
  endfacet
  facet normal 0.587786 -0.809016 0
    outer loop
      vertex 11.2937 42.895 0
      vertex 11.725 43.2084 0
      vertex 11.2937 42.895 6
    endloop
  endfacet
  facet normal 0.406736 -0.913546 0
    outer loop
      vertex 12.212 43.4252 0
      vertex 12.212 43.4252 6
      vertex 11.725 43.2084 6
    endloop
  endfacet
  facet normal 0.406736 -0.913546 0
    outer loop
      vertex 11.725 43.2084 0
      vertex 12.212 43.4252 0
      vertex 11.725 43.2084 6
    endloop
  endfacet
  facet normal 0.207912 -0.978147 0
    outer loop
      vertex 12.7335 43.536 0
      vertex 12.7335 43.536 6
      vertex 12.212 43.4252 6
    endloop
  endfacet
  facet normal 0.207912 -0.978147 0
    outer loop
      vertex 12.212 43.4252 0
      vertex 12.7335 43.536 0
      vertex 12.212 43.4252 6
    endloop
  endfacet
  facet normal 0 -1 0
    outer loop
      vertex 13.2665 43.536 0
      vertex 13.2665 43.536 6
      vertex 12.7335 43.536 6
    endloop
  endfacet
  facet normal 0 -1 0
    outer loop
      vertex 12.7335 43.536 0
      vertex 13.2665 43.536 0
      vertex 12.7335 43.536 6
    endloop
  endfacet
  facet normal -0.207912 -0.978147 0
    outer loop
      vertex 13.788 43.4252 0
      vertex 13.788 43.4252 6
      vertex 13.2665 43.536 6
    endloop
  endfacet
  facet normal -0.207912 -0.978147 0
    outer loop
      vertex 13.2665 43.536 0
      vertex 13.788 43.4252 0
      vertex 13.2665 43.536 6
    endloop
  endfacet
  facet normal -0.406736 -0.913546 0
    outer loop
      vertex 14.275 43.2084 0
      vertex 14.275 43.2084 6
      vertex 13.788 43.4252 6
    endloop
  endfacet
  facet normal -0.406736 -0.913546 0
    outer loop
      vertex 13.788 43.4252 0
      vertex 14.275 43.2084 0
      vertex 13.788 43.4252 6
    endloop
  endfacet
  facet normal -0.587786 -0.809016 0
    outer loop
      vertex 14.7063 42.895 0
      vertex 14.7063 42.895 6
      vertex 14.275 43.2084 6
    endloop
  endfacet
  facet normal -0.587786 -0.809016 0
    outer loop
      vertex 14.275 43.2084 0
      vertex 14.7063 42.895 0
      vertex 14.275 43.2084 6
    endloop
  endfacet
  facet normal -0.743145 -0.66913 0
    outer loop
      vertex 15.063 42.4989 6
      vertex 14.7063 42.895 6
      vertex 15.063 42.4989 0
    endloop
  endfacet
  facet normal -0.743145 -0.66913 0
    outer loop
      vertex 15.063 42.4989 0
      vertex 14.7063 42.895 6
      vertex 14.7063 42.895 0
    endloop
  endfacet
  facet normal -0.866025 -0.500001 0
    outer loop
      vertex 15.3295 42.0372 6
      vertex 15.063 42.4989 6
      vertex 15.3295 42.0372 0
    endloop
  endfacet
  facet normal -0.866025 -0.500001 0
    outer loop
      vertex 15.3295 42.0372 0
      vertex 15.063 42.4989 6
      vertex 15.063 42.4989 0
    endloop
  endfacet
  facet normal -0.951057 -0.309017 0
    outer loop
      vertex 15.4943 41.5302 6
      vertex 15.3295 42.0372 6
      vertex 15.4943 41.5302 0
    endloop
  endfacet
  facet normal -0.951057 -0.309017 0
    outer loop
      vertex 15.4943 41.5302 0
      vertex 15.3295 42.0372 6
      vertex 15.3295 42.0372 0
    endloop
  endfacet
  facet normal -0.994522 -0.104529 0
    outer loop
      vertex 15.55 41 6
      vertex 15.4943 41.5302 6
      vertex 15.55 41 0
    endloop
  endfacet
  facet normal -0.994522 -0.104529 0
    outer loop
      vertex 15.55 41 0
      vertex 15.4943 41.5302 6
      vertex 15.4943 41.5302 0
    endloop
  endfacet
  facet normal -0.994522 0.104529 0
    outer loop
      vertex 15.55 41 6
      vertex 15.55 41 0
      vertex 15.4943 40.4698 6
    endloop
  endfacet
  facet normal -0.994522 0.104529 0
    outer loop
      vertex 15.4943 40.4698 6
      vertex 15.55 41 0
      vertex 15.4943 40.4698 0
    endloop
  endfacet
  facet normal -0.951057 0.309017 0
    outer loop
      vertex 15.4943 40.4698 6
      vertex 15.4943 40.4698 0
      vertex 15.3295 39.9628 6
    endloop
  endfacet
  facet normal -0.951057 0.309017 0
    outer loop
      vertex 15.3295 39.9628 6
      vertex 15.4943 40.4698 0
      vertex 15.3295 39.9628 0
    endloop
  endfacet
  facet normal -0.866025 0.500001 0
    outer loop
      vertex 15.3295 39.9628 6
      vertex 15.3295 39.9628 0
      vertex 15.063 39.5011 6
    endloop
  endfacet
  facet normal -0.866025 0.500001 0
    outer loop
      vertex 15.063 39.5011 6
      vertex 15.3295 39.9628 0
      vertex 15.063 39.5011 0
    endloop
  endfacet
  facet normal -0.743145 0.66913 0
    outer loop
      vertex 15.063 39.5011 6
      vertex 15.063 39.5011 0
      vertex 14.7063 39.105 6
    endloop
  endfacet
  facet normal -0.743145 0.66913 0
    outer loop
      vertex 14.7063 39.105 6
      vertex 15.063 39.5011 0
      vertex 14.7063 39.105 0
    endloop
  endfacet
  facet normal -0.587786 0.809016 0
    outer loop
      vertex 14.7063 39.105 6
      vertex 14.7063 39.105 0
      vertex 14.275 38.7916 6
    endloop
  endfacet
  facet normal -0.587786 0.809016 0
    outer loop
      vertex 14.275 38.7916 6
      vertex 14.7063 39.105 0
      vertex 14.275 38.7916 0
    endloop
  endfacet
  facet normal -0.406736 0.913546 0
    outer loop
      vertex 14.275 38.7916 6
      vertex 14.275 38.7916 0
      vertex 13.788 38.5748 6
    endloop
  endfacet
  facet normal -0.406736 0.913546 0
    outer loop
      vertex 13.788 38.5748 6
      vertex 14.275 38.7916 0
      vertex 13.788 38.5748 0
    endloop
  endfacet
  facet normal -0.207912 0.978147 0
    outer loop
      vertex 13.788 38.5748 6
      vertex 13.788 38.5748 0
      vertex 13.2665 38.464 6
    endloop
  endfacet
  facet normal -0.207912 0.978147 0
    outer loop
      vertex 13.2665 38.464 6
      vertex 13.788 38.5748 0
      vertex 13.2665 38.464 0
    endloop
  endfacet
  facet normal 0 1 0
    outer loop
      vertex 13.2665 38.464 6
      vertex 13.2665 38.464 0
      vertex 12.7335 38.464 6
    endloop
  endfacet
  facet normal 0 1 0
    outer loop
      vertex 12.7335 38.464 6
      vertex 13.2665 38.464 0
      vertex 12.7335 38.464 0
    endloop
  endfacet
  facet normal 0.207912 0.978147 0
    outer loop
      vertex 12.7335 38.464 6
      vertex 12.7335 38.464 0
      vertex 12.212 38.5748 6
    endloop
  endfacet
  facet normal 0.207912 0.978147 0
    outer loop
      vertex 12.212 38.5748 6
      vertex 12.7335 38.464 0
      vertex 12.212 38.5748 0
    endloop
  endfacet
  facet normal 0.406736 0.913546 0
    outer loop
      vertex 12.212 38.5748 6
      vertex 12.212 38.5748 0
      vertex 11.725 38.7916 6
    endloop
  endfacet
  facet normal 0.406736 0.913546 0
    outer loop
      vertex 11.725 38.7916 6
      vertex 12.212 38.5748 0
      vertex 11.725 38.7916 0
    endloop
  endfacet
  facet normal 0.587786 0.809016 0
    outer loop
      vertex 11.725 38.7916 6
      vertex 11.725 38.7916 0
      vertex 11.2937 39.105 6
    endloop
  endfacet
  facet normal 0.587786 0.809016 0
    outer loop
      vertex 11.2937 39.105 6
      vertex 11.725 38.7916 0
      vertex 11.2937 39.105 0
    endloop
  endfacet
  facet normal 0.743145 0.66913 0
    outer loop
      vertex 10.937 39.5011 6
      vertex 11.2937 39.105 6
      vertex 11.2937 39.105 0
    endloop
  endfacet
  facet normal 0.743145 0.66913 0
    outer loop
      vertex 10.937 39.5011 0
      vertex 10.937 39.5011 6
      vertex 11.2937 39.105 0
    endloop
  endfacet
  facet normal 0.866025 0.500001 0
    outer loop
      vertex 10.6705 39.9628 6
      vertex 10.937 39.5011 6
      vertex 10.937 39.5011 0
    endloop
  endfacet
  facet normal 0.866025 0.500001 0
    outer loop
      vertex 10.6705 39.9628 0
      vertex 10.6705 39.9628 6
      vertex 10.937 39.5011 0
    endloop
  endfacet
  facet normal 0.951057 0.309017 0
    outer loop
      vertex 10.5057 40.4698 6
      vertex 10.6705 39.9628 6
      vertex 10.6705 39.9628 0
    endloop
  endfacet
  facet normal 0.951057 0.309017 0
    outer loop
      vertex 10.5057 40.4698 0
      vertex 10.5057 40.4698 6
      vertex 10.6705 39.9628 0
    endloop
  endfacet
  facet normal 0 0 1
    outer loop
      vertex 0 50 6
      vertex 0 49.997 6
      vertex 6 49.997 6
    endloop
  endfacet
  facet normal 0 0 1
    outer loop
      vertex 6 50 6
      vertex 0 50 6
      vertex 6 49.997 6
    endloop
  endfacet
  facet normal 0 0 1
    outer loop
      vertex 15.4943 21.5302 6
      vertex 15.55 21 6
      vertex 20 6.9282 6
    endloop
  endfacet
  facet normal 0 0 1
    outer loop
      vertex 13.788 43.4252 6
      vertex 20 41.9171 6
      vertex 6 49.997 6
    endloop
  endfacet
  facet normal 0 0 1
    outer loop
      vertex 20 41.9171 6
      vertex 6 50 6
      vertex 6 49.997 6
    endloop
  endfacet
  facet normal 0 0 1
    outer loop
      vertex 6 15.0111 6
      vertex 10.5057 20.4698 6
      vertex 6 49.997 6
    endloop
  endfacet
  facet normal 0 0 1
    outer loop
      vertex 10.5057 20.4698 6
      vertex 10.45 21 6
      vertex 6 49.997 6
    endloop
  endfacet
  facet normal 0 0 1
    outer loop
      vertex 10.45 21 6
      vertex 10.5057 21.5302 6
      vertex 6 49.997 6
    endloop
  endfacet
  facet normal 0 0 1
    outer loop
      vertex 10.5057 21.5302 6
      vertex 10.6705 22.0372 6
      vertex 6 49.997 6
    endloop
  endfacet
  facet normal 0 0 1
    outer loop
      vertex 10.6705 22.0372 6
      vertex 10.937 22.4989 6
      vertex 6 49.997 6
    endloop
  endfacet
  facet normal 0 0 1
    outer loop
      vertex 10.937 22.4989 6
      vertex 11.2937 22.895 6
      vertex 6 49.997 6
    endloop
  endfacet
  facet normal 0 0 1
    outer loop
      vertex 13.2665 18.464 6
      vertex 12.7335 18.464 6
      vertex 20 6.9282 6
    endloop
  endfacet
  facet normal 0 0 1
    outer loop
      vertex 11.2937 22.895 6
      vertex 11.725 23.2084 6
      vertex 6 49.997 6
    endloop
  endfacet
  facet normal 0 0 1
    outer loop
      vertex 11.725 23.2084 6
      vertex 12.212 23.4252 6
      vertex 6 49.997 6
    endloop
  endfacet
  facet normal 0 0 1
    outer loop
      vertex 12.212 23.4252 6
      vertex 12.7335 23.536 6
      vertex 6 49.997 6
    endloop
  endfacet
  facet normal 0 0 1
    outer loop
      vertex 14.275 18.7916 6
      vertex 13.788 18.5748 6
      vertex 20 6.9282 6
    endloop
  endfacet
  facet normal 0 0 1
    outer loop
      vertex 12.7335 23.536 6
      vertex 13.2665 23.536 6
      vertex 6 49.997 6
    endloop
  endfacet
  facet normal 0 0 1
    outer loop
      vertex 13.2665 23.536 6
      vertex 13.788 23.4252 6
      vertex 6 49.997 6
    endloop
  endfacet
  facet normal 0 0 1
    outer loop
      vertex 13.788 23.4252 6
      vertex 14.275 23.2084 6
      vertex 6 49.997 6
    endloop
  endfacet
  facet normal 0 0 1
    outer loop
      vertex 14.275 23.2084 6
      vertex 14.7063 22.895 6
      vertex 6 49.997 6
    endloop
  endfacet
  facet normal 0 0 1
    outer loop
      vertex 15.3295 22.0372 6
      vertex 20 41.9171 6
      vertex 15.063 22.4989 6
    endloop
  endfacet
  facet normal 0 0 1
    outer loop
      vertex 15.4943 21.5302 6
      vertex 20 41.9171 6
      vertex 15.3295 22.0372 6
    endloop
  endfacet
  facet normal 0 0 1
    outer loop
      vertex 20 6.9282 6
      vertex 20 41.9171 6
      vertex 15.4943 21.5302 6
    endloop
  endfacet
  facet normal 0 0 1
    outer loop
      vertex 15.3295 19.9628 6
      vertex 15.063 19.5011 6
      vertex 20 6.9282 6
    endloop
  endfacet
  facet normal 0 0 1
    outer loop
      vertex 15.063 19.5011 6
      vertex 14.7063 19.105 6
      vertex 20 6.9282 6
    endloop
  endfacet
  facet normal 0 0 1
    outer loop
      vertex 13.788 18.5748 6
      vertex 13.2665 18.464 6
      vertex 20 6.9282 6
    endloop
  endfacet
  facet normal 0 0 1
    outer loop
      vertex 14.275 43.2084 6
      vertex 14.7063 42.895 6
      vertex 20 41.9171 6
    endloop
  endfacet
  facet normal 0 0 1
    outer loop
      vertex 12.7335 18.464 6
      vertex 12.212 18.5748 6
      vertex 20 6.9282 6
    endloop
  endfacet
  facet normal 0 0 1
    outer loop
      vertex 12.212 18.5748 6
      vertex 11.725 18.7916 6
      vertex 20 6.9282 6
    endloop
  endfacet
  facet normal 0 0 1
    outer loop
      vertex 11.725 18.7916 6
      vertex 11.2937 19.105 6
      vertex 20 6.9282 6
    endloop
  endfacet
  facet normal 0 0 1
    outer loop
      vertex 13.788 43.4252 6
      vertex 14.275 43.2084 6
      vertex 20 41.9171 6
    endloop
  endfacet
  facet normal 0 0 1
    outer loop
      vertex 6 15.0111 6
      vertex 20 6.9282 6
      vertex 11.2937 19.105 6
    endloop
  endfacet
  facet normal 0 0 1
    outer loop
      vertex 6 15.0111 6
      vertex 11.2937 19.105 6
      vertex 10.937 19.5011 6
    endloop
  endfacet
  facet normal 0 0 1
    outer loop
      vertex 6 15.0111 6
      vertex 10.6705 19.9628 6
      vertex 10.5057 20.4698 6
    endloop
  endfacet
  facet normal 0 0 1
    outer loop
      vertex 6 15.0111 6
      vertex 10.937 19.5011 6
      vertex 10.6705 19.9628 6
    endloop
  endfacet
  facet normal 0 0 1
    outer loop
      vertex 15.063 22.4989 6
      vertex 10.5057 40.4698 6
      vertex 6 49.997 6
    endloop
  endfacet
  facet normal 0 0 1
    outer loop
      vertex 10.5057 40.4698 6
      vertex 10.45 41 6
      vertex 6 49.997 6
    endloop
  endfacet
  facet normal 0 0 1
    outer loop
      vertex 10.45 41 6
      vertex 10.5057 41.5302 6
      vertex 6 49.997 6
    endloop
  endfacet
  facet normal 0 0 1
    outer loop
      vertex 10.5057 41.5302 6
      vertex 10.6705 42.0372 6
      vertex 6 49.997 6
    endloop
  endfacet
  facet normal 0 0 1
    outer loop
      vertex 10.6705 42.0372 6
      vertex 10.937 42.4989 6
      vertex 6 49.997 6
    endloop
  endfacet
  facet normal 0 0 1
    outer loop
      vertex 10.937 42.4989 6
      vertex 11.2937 42.895 6
      vertex 6 49.997 6
    endloop
  endfacet
  facet normal 0 0 1
    outer loop
      vertex 11.2937 42.895 6
      vertex 11.725 43.2084 6
      vertex 6 49.997 6
    endloop
  endfacet
  facet normal 0 0 1
    outer loop
      vertex 11.725 43.2084 6
      vertex 12.212 43.4252 6
      vertex 6 49.997 6
    endloop
  endfacet
  facet normal 0 0 1
    outer loop
      vertex 12.212 43.4252 6
      vertex 12.7335 43.536 6
      vertex 6 49.997 6
    endloop
  endfacet
  facet normal 0 0 1
    outer loop
      vertex 14.7063 42.895 6
      vertex 15.063 42.4989 6
      vertex 20 41.9171 6
    endloop
  endfacet
  facet normal 0 0 1
    outer loop
      vertex 12.7335 43.536 6
      vertex 13.2665 43.536 6
      vertex 6 49.997 6
    endloop
  endfacet
  facet normal 0 0 1
    outer loop
      vertex 13.2665 43.536 6
      vertex 13.788 43.4252 6
      vertex 6 49.997 6
    endloop
  endfacet
  facet normal 0 0 1
    outer loop
      vertex 15.063 42.4989 6
      vertex 15.3295 42.0372 6
      vertex 20 41.9171 6
    endloop
  endfacet
  facet normal 0 0 1
    outer loop
      vertex 15.3295 42.0372 6
      vertex 15.4943 41.5302 6
      vertex 20 41.9171 6
    endloop
  endfacet
  facet normal 0 0 1
    outer loop
      vertex 15.4943 41.5302 6
      vertex 15.55 41 6
      vertex 20 41.9171 6
    endloop
  endfacet
  facet normal 0 0 1
    outer loop
      vertex 15.063 22.4989 6
      vertex 20 41.9171 6
      vertex 15.55 41 6
    endloop
  endfacet
  facet normal 0 0 1
    outer loop
      vertex 15.063 22.4989 6
      vertex 15.55 41 6
      vertex 15.4943 40.4698 6
    endloop
  endfacet
  facet normal 0 0 1
    outer loop
      vertex 15.063 22.4989 6
      vertex 15.4943 40.4698 6
      vertex 15.3295 39.9628 6
    endloop
  endfacet
  facet normal 0 0 1
    outer loop
      vertex 15.063 22.4989 6
      vertex 15.3295 39.9628 6
      vertex 15.063 39.5011 6
    endloop
  endfacet
  facet normal 0 0 1
    outer loop
      vertex 15.063 22.4989 6
      vertex 15.063 39.5011 6
      vertex 14.7063 39.105 6
    endloop
  endfacet
  facet normal 0 0 1
    outer loop
      vertex 15.063 22.4989 6
      vertex 14.7063 39.105 6
      vertex 14.275 38.7916 6
    endloop
  endfacet
  facet normal 0 0 1
    outer loop
      vertex 15.063 22.4989 6
      vertex 14.275 38.7916 6
      vertex 13.788 38.5748 6
    endloop
  endfacet
  facet normal 0 0 1
    outer loop
      vertex 15.063 22.4989 6
      vertex 13.788 38.5748 6
      vertex 13.2665 38.464 6
    endloop
  endfacet
  facet normal 0 0 1
    outer loop
      vertex 15.063 22.4989 6
      vertex 13.2665 38.464 6
      vertex 12.7335 38.464 6
    endloop
  endfacet
  facet normal 0 0 1
    outer loop
      vertex 15.063 22.4989 6
      vertex 12.7335 38.464 6
      vertex 12.212 38.5748 6
    endloop
  endfacet
  facet normal 0 0 1
    outer loop
      vertex 15.063 22.4989 6
      vertex 12.212 38.5748 6
      vertex 11.725 38.7916 6
    endloop
  endfacet
  facet normal 0 0 1
    outer loop
      vertex 15.063 22.4989 6
      vertex 11.725 38.7916 6
      vertex 11.2937 39.105 6
    endloop
  endfacet
  facet normal 0 0 1
    outer loop
      vertex 15.063 22.4989 6
      vertex 11.2937 39.105 6
      vertex 10.937 39.5011 6
    endloop
  endfacet
  facet normal 0 0 1
    outer loop
      vertex 15.063 22.4989 6
      vertex 10.6705 39.9628 6
      vertex 10.5057 40.4698 6
    endloop
  endfacet
  facet normal 0 0 1
    outer loop
      vertex 15.063 22.4989 6
      vertex 10.937 39.5011 6
      vertex 10.6705 39.9628 6
    endloop
  endfacet
  facet normal 0 0 1
    outer loop
      vertex 14.7063 19.105 6
      vertex 14.275 18.7916 6
      vertex 20 6.9282 6
    endloop
  endfacet
  facet normal 0 0 1
    outer loop
      vertex 15.4943 20.4698 6
      vertex 15.3295 19.9628 6
      vertex 20 6.9282 6
    endloop
  endfacet
  facet normal 0 0 1
    outer loop
      vertex 14.7063 22.895 6
      vertex 15.063 22.4989 6
      vertex 6 49.997 6
    endloop
  endfacet
  facet normal 0 0 1
    outer loop
      vertex 15.55 21 6
      vertex 15.4943 20.4698 6
      vertex 20 6.9282 6
    endloop
  endfacet
  facet normal 1 2.4037e-16 0
    outer loop
      vertex 6 15.0111 26
      vertex 6 15.0111 6
      vertex 6 17.547 26
    endloop
  endfacet
  facet normal 1 2.4037e-16 0
    outer loop
      vertex 6 17.547 26
      vertex 6 15.0111 6
      vertex 6 49.997 6
    endloop
  endfacet
  facet normal 0 0 1
    outer loop
      vertex 1.76031e-07 11.547 6
      vertex 1.12147e-14 11.547 6
      vertex 1.32023e-07 11.547 6
    endloop
  endfacet
  facet normal 0 0 1
    outer loop
      vertex 6.17468 7.98205 12
      vertex 5.17468 6.25 12
      vertex 9.50481 3.75 12
    endloop
  endfacet
  facet normal 0 0 1
    outer loop
      vertex 10.5048 5.48205 12
      vertex 6.17468 7.98205 12
      vertex 9.50481 3.75 12
    endloop
  endfacet
  facet normal 0.861281 -0.497261 0.104529
    outer loop
      vertex 7.91169 6.97919 15.4698
      vertex 10.9117 12.1753 15.4698
      vertex 10.8634 12.2032 16
    endloop
  endfacet
  facet normal 0.861281 -0.497261 0.104529
    outer loop
      vertex 7.86343 7.00705 16
      vertex 7.91169 6.97919 15.4698
      vertex 10.8634 12.2032 16
    endloop
  endfacet
  facet normal 0.823639 -0.475528 0.309017
    outer loop
      vertex 8.05436 6.89682 14.9628
      vertex 11.0544 12.093 14.9628
      vertex 10.9117 12.1753 15.4698
    endloop
  endfacet
  facet normal 0.823639 -0.475528 0.309017
    outer loop
      vertex 7.91169 6.97919 15.4698
      vertex 8.05436 6.89682 14.9628
      vertex 10.9117 12.1753 15.4698
    endloop
  endfacet
  facet normal 0.75 -0.433013 0.500001
    outer loop
      vertex 8.28519 6.76355 14.5011
      vertex 11.2852 11.9597 14.5011
      vertex 11.0544 12.093 14.9628
    endloop
  endfacet
  facet normal 0.75 -0.433013 0.500001
    outer loop
      vertex 8.05436 6.89682 14.9628
      vertex 8.28519 6.76355 14.5011
      vertex 11.0544 12.093 14.9628
    endloop
  endfacet
  facet normal 0.643583 -0.371573 0.66913
    outer loop
      vertex 8.59411 6.58519 14.105
      vertex 11.5941 11.7813 14.105
      vertex 11.2852 11.9597 14.5011
    endloop
  endfacet
  facet normal 0.643583 -0.371573 0.66913
    outer loop
      vertex 8.28519 6.76355 14.5011
      vertex 8.59411 6.58519 14.105
      vertex 11.2852 11.9597 14.5011
    endloop
  endfacet
  facet normal 0.509038 -0.293893 0.809016
    outer loop
      vertex 8.96761 6.36955 13.7916
      vertex 11.9676 11.5657 13.7916
      vertex 11.5941 11.7813 14.105
    endloop
  endfacet
  facet normal 0.509038 -0.293893 0.809016
    outer loop
      vertex 8.59411 6.58519 14.105
      vertex 8.96761 6.36955 13.7916
      vertex 11.5941 11.7813 14.105
    endloop
  endfacet
  facet normal 0.352244 -0.203368 0.913546
    outer loop
      vertex 9.38937 6.12605 13.5748
      vertex 12.3894 11.3222 13.5748
      vertex 11.9676 11.5657 13.7916
    endloop
  endfacet
  facet normal 0.352244 -0.203368 0.913546
    outer loop
      vertex 8.96761 6.36955 13.7916
      vertex 9.38937 6.12605 13.5748
      vertex 11.9676 11.5657 13.7916
    endloop
  endfacet
  facet normal 0.180057 -0.103956 0.978147
    outer loop
      vertex 9.84096 5.86532 13.464
      vertex 12.841 11.0615 13.464
      vertex 12.3894 11.3222 13.5748
    endloop
  endfacet
  facet normal 0.180057 -0.103956 0.978147
    outer loop
      vertex 9.38937 6.12605 13.5748
      vertex 9.84096 5.86532 13.464
      vertex 12.3894 11.3222 13.5748
    endloop
  endfacet
  facet normal 1.11022e-16 1.92296e-16 1
    outer loop
      vertex 10.3026 5.59878 13.464
      vertex 13.3026 10.7949 13.464
      vertex 12.841 11.0615 13.464
    endloop
  endfacet
  facet normal 1.11022e-16 1.92296e-16 1
    outer loop
      vertex 9.84096 5.86532 13.464
      vertex 10.3026 5.59878 13.464
      vertex 12.841 11.0615 13.464
    endloop
  endfacet
  facet normal -0.180057 0.103956 0.978147
    outer loop
      vertex 10.7542 5.33805 13.5748
      vertex 13.7542 10.5342 13.5748
      vertex 13.3026 10.7949 13.464
    endloop
  endfacet
  facet normal -0.180057 0.103956 0.978147
    outer loop
      vertex 10.3026 5.59878 13.464
      vertex 10.7542 5.33805 13.5748
      vertex 13.3026 10.7949 13.464
    endloop
  endfacet
  facet normal -0.352244 0.203368 0.913546
    outer loop
      vertex 11.176 5.09455 13.7916
      vertex 14.176 10.2907 13.7916
      vertex 13.7542 10.5342 13.5748
    endloop
  endfacet
  facet normal -0.352244 0.203368 0.913546
    outer loop
      vertex 10.7542 5.33805 13.5748
      vertex 11.176 5.09455 13.7916
      vertex 13.7542 10.5342 13.5748
    endloop
  endfacet
  facet normal -0.509038 0.293893 0.809016
    outer loop
      vertex 11.5495 4.87891 14.105
      vertex 14.5495 10.0751 14.105
      vertex 14.176 10.2907 13.7916
    endloop
  endfacet
  facet normal -0.509038 0.293893 0.809016
    outer loop
      vertex 11.176 5.09455 13.7916
      vertex 11.5495 4.87891 14.105
      vertex 14.176 10.2907 13.7916
    endloop
  endfacet
  facet normal -0.643583 0.371573 0.66913
    outer loop
      vertex 11.8584 4.70055 14.5011
      vertex 14.8584 9.89671 14.5011
      vertex 14.5495 10.0751 14.105
    endloop
  endfacet
  facet normal -0.643583 0.371573 0.66913
    outer loop
      vertex 11.5495 4.87891 14.105
      vertex 11.8584 4.70055 14.5011
      vertex 14.5495 10.0751 14.105
    endloop
  endfacet
  facet normal -0.75 0.433013 0.500001
    outer loop
      vertex 15.0892 9.76343 14.9628
      vertex 14.8584 9.89671 14.5011
      vertex 12.0892 4.56728 14.9628
    endloop
  endfacet
  facet normal -0.75 0.433013 0.500001
    outer loop
      vertex 12.0892 4.56728 14.9628
      vertex 14.8584 9.89671 14.5011
      vertex 11.8584 4.70055 14.5011
    endloop
  endfacet
  facet normal -0.823639 0.475528 0.309017
    outer loop
      vertex 15.2319 9.68107 15.4698
      vertex 15.0892 9.76343 14.9628
      vertex 12.2319 4.48491 15.4698
    endloop
  endfacet
  facet normal -0.823639 0.475528 0.309017
    outer loop
      vertex 12.2319 4.48491 15.4698
      vertex 15.0892 9.76343 14.9628
      vertex 12.0892 4.56728 14.9628
    endloop
  endfacet
  facet normal -0.861281 0.497261 0.104529
    outer loop
      vertex 15.2802 9.6532 16
      vertex 15.2319 9.68107 15.4698
      vertex 12.2802 4.45705 16
    endloop
  endfacet
  facet normal -0.861281 0.497261 0.104529
    outer loop
      vertex 12.2802 4.45705 16
      vertex 15.2319 9.68107 15.4698
      vertex 12.2319 4.48491 15.4698
    endloop
  endfacet
  facet normal -0.861281 0.497261 -0.104529
    outer loop
      vertex 15.2802 9.6532 16
      vertex 12.2802 4.45705 16
      vertex 15.2319 9.68107 16.5302
    endloop
  endfacet
  facet normal -0.861281 0.497261 -0.104529
    outer loop
      vertex 15.2319 9.68107 16.5302
      vertex 12.2802 4.45705 16
      vertex 12.2319 4.48491 16.5302
    endloop
  endfacet
  facet normal -0.823639 0.475528 -0.309017
    outer loop
      vertex 15.2319 9.68107 16.5302
      vertex 12.2319 4.48491 16.5302
      vertex 15.0892 9.76343 17.0372
    endloop
  endfacet
  facet normal -0.823639 0.475528 -0.309017
    outer loop
      vertex 15.0892 9.76343 17.0372
      vertex 12.2319 4.48491 16.5302
      vertex 12.0892 4.56728 17.0372
    endloop
  endfacet
  facet normal -0.75 0.433013 -0.500001
    outer loop
      vertex 15.0892 9.76343 17.0372
      vertex 12.0892 4.56728 17.0372
      vertex 14.8584 9.89671 17.4989
    endloop
  endfacet
  facet normal -0.75 0.433013 -0.500001
    outer loop
      vertex 14.8584 9.89671 17.4989
      vertex 12.0892 4.56728 17.0372
      vertex 11.8584 4.70055 17.4989
    endloop
  endfacet
  facet normal -0.643583 0.371573 -0.66913
    outer loop
      vertex 14.8584 9.89671 17.4989
      vertex 11.8584 4.70055 17.4989
      vertex 14.5495 10.0751 17.895
    endloop
  endfacet
  facet normal -0.643583 0.371573 -0.66913
    outer loop
      vertex 14.5495 10.0751 17.895
      vertex 11.8584 4.70055 17.4989
      vertex 11.5495 4.87891 17.895
    endloop
  endfacet
  facet normal -0.509038 0.293893 -0.809016
    outer loop
      vertex 14.5495 10.0751 17.895
      vertex 11.5495 4.87891 17.895
      vertex 14.176 10.2907 18.2084
    endloop
  endfacet
  facet normal -0.509038 0.293893 -0.809016
    outer loop
      vertex 14.176 10.2907 18.2084
      vertex 11.5495 4.87891 17.895
      vertex 11.176 5.09455 18.2084
    endloop
  endfacet
  facet normal -0.352244 0.203368 -0.913546
    outer loop
      vertex 14.176 10.2907 18.2084
      vertex 11.176 5.09455 18.2084
      vertex 13.7542 10.5342 18.4252
    endloop
  endfacet
  facet normal -0.352244 0.203368 -0.913546
    outer loop
      vertex 13.7542 10.5342 18.4252
      vertex 11.176 5.09455 18.2084
      vertex 10.7542 5.33805 18.4252
    endloop
  endfacet
  facet normal -0.180057 0.103956 -0.978147
    outer loop
      vertex 13.7542 10.5342 18.4252
      vertex 10.7542 5.33805 18.4252
      vertex 13.3026 10.7949 18.536
    endloop
  endfacet
  facet normal -0.180057 0.103956 -0.978147
    outer loop
      vertex 13.3026 10.7949 18.536
      vertex 10.7542 5.33805 18.4252
      vertex 10.3026 5.59878 18.536
    endloop
  endfacet
  facet normal -1.11022e-16 -1.92296e-16 -1
    outer loop
      vertex 13.3026 10.7949 18.536
      vertex 10.3026 5.59878 18.536
      vertex 12.841 11.0615 18.536
    endloop
  endfacet
  facet normal -1.11022e-16 -1.92296e-16 -1
    outer loop
      vertex 12.841 11.0615 18.536
      vertex 10.3026 5.59878 18.536
      vertex 9.84096 5.86532 18.536
    endloop
  endfacet
  facet normal 0.180057 -0.103956 -0.978147
    outer loop
      vertex 12.841 11.0615 18.536
      vertex 9.84096 5.86532 18.536
      vertex 12.3894 11.3222 18.4252
    endloop
  endfacet
  facet normal 0.180057 -0.103956 -0.978147
    outer loop
      vertex 12.3894 11.3222 18.4252
      vertex 9.84096 5.86532 18.536
      vertex 9.38937 6.12605 18.4252
    endloop
  endfacet
  facet normal 0.352244 -0.203368 -0.913546
    outer loop
      vertex 12.3894 11.3222 18.4252
      vertex 9.38937 6.12605 18.4252
      vertex 11.9676 11.5657 18.2084
    endloop
  endfacet
  facet normal 0.352244 -0.203368 -0.913546
    outer loop
      vertex 11.9676 11.5657 18.2084
      vertex 9.38937 6.12605 18.4252
      vertex 8.96761 6.36955 18.2084
    endloop
  endfacet
  facet normal 0.509038 -0.293893 -0.809016
    outer loop
      vertex 11.9676 11.5657 18.2084
      vertex 8.96761 6.36955 18.2084
      vertex 11.5941 11.7813 17.895
    endloop
  endfacet
  facet normal 0.509038 -0.293893 -0.809016
    outer loop
      vertex 11.5941 11.7813 17.895
      vertex 8.96761 6.36955 18.2084
      vertex 8.59411 6.58519 17.895
    endloop
  endfacet
  facet normal 0.643583 -0.371573 -0.66913
    outer loop
      vertex 11.5941 11.7813 17.895
      vertex 8.59411 6.58519 17.895
      vertex 11.2852 11.9597 17.4989
    endloop
  endfacet
  facet normal 0.643583 -0.371573 -0.66913
    outer loop
      vertex 11.2852 11.9597 17.4989
      vertex 8.59411 6.58519 17.895
      vertex 8.28519 6.76355 17.4989
    endloop
  endfacet
  facet normal 0.75 -0.433013 -0.500001
    outer loop
      vertex 11.0544 12.093 17.0372
      vertex 11.2852 11.9597 17.4989
      vertex 8.28519 6.76355 17.4989
    endloop
  endfacet
  facet normal 0.75 -0.433013 -0.500001
    outer loop
      vertex 8.05436 6.89682 17.0372
      vertex 11.0544 12.093 17.0372
      vertex 8.28519 6.76355 17.4989
    endloop
  endfacet
  facet normal 0.823639 -0.475528 -0.309017
    outer loop
      vertex 10.9117 12.1753 16.5302
      vertex 11.0544 12.093 17.0372
      vertex 8.05436 6.89682 17.0372
    endloop
  endfacet
  facet normal 0.823639 -0.475528 -0.309017
    outer loop
      vertex 7.91169 6.97919 16.5302
      vertex 10.9117 12.1753 16.5302
      vertex 8.05436 6.89682 17.0372
    endloop
  endfacet
  facet normal 0.861281 -0.497261 -0.104529
    outer loop
      vertex 10.8634 12.2032 16
      vertex 10.9117 12.1753 16.5302
      vertex 7.91169 6.97919 16.5302
    endloop
  endfacet
  facet normal 0.861281 -0.497261 -0.104529
    outer loop
      vertex 7.86343 7.00705 16
      vertex 10.8634 12.2032 16
      vertex 7.91169 6.97919 16.5302
    endloop
  endfacet
  facet normal -1 0 0
    outer loop
      vertex 0 0 0
      vertex 0 0 6
      vertex 0 5.14692e-15 0
    endloop
  endfacet
  facet normal -1 0 0
    outer loop
      vertex 0 5.14692e-15 0
      vertex 0 0 6
      vertex 0 5.14692e-15 6
    endloop
  endfacet
  facet normal 0 -1 0
    outer loop
      vertex 0 0 6
      vertex 0 0 0
      vertex 8.91472e-15 0 0
    endloop
  endfacet
  facet normal 0 -1 0
    outer loop
      vertex 8.91472e-15 0 6
      vertex 0 0 6
      vertex 8.91472e-15 0 0
    endloop
  endfacet
  facet normal 0 0 -1
    outer loop
      vertex 8.91472e-15 0 0
      vertex 0 0 0
      vertex 0 5.14692e-15 0
    endloop
  endfacet
  facet normal 0.5 0.866025 0
    outer loop
      vertex 0 5.14692e-15 0
      vertex 0 5.14692e-15 6
      vertex 8.91472e-15 0 0
    endloop
  endfacet
  facet normal 0.5 0.866025 0
    outer loop
      vertex 8.91472e-15 0 0
      vertex 0 5.14692e-15 6
      vertex 8.91472e-15 0 6
    endloop
  endfacet
  facet normal 0 0 1
    outer loop
      vertex 0 5.14692e-15 6
      vertex 0 0 6
      vertex 8.91472e-15 0 6
    endloop
  endfacet
endsolid OpenSCAD_Model
