solid OpenSCAD_Model
  facet normal -0.967268 -2.65144e-18 -0.253758
    outer loop
      vertex -10.1503 -6 38.6907
      vertex -10.1503 8.88178e-15 38.6907
      vertex -1.00228 -6 3.82046
    endloop
  endfacet
  facet normal -0.967268 -2.65144e-18 -0.253758
    outer loop
      vertex -1.00228 -6 3.82046
      vertex -10.1503 8.88178e-15 38.6907
      vertex -1.00228 8.7702e-16 3.82046
    endloop
  endfacet
  facet normal -0.253758 2.28863e-16 0.967268
    outer loop
      vertex -10.1503 8.88178e-15 38.6907
      vertex -10.1503 -6 38.6907
      vertex 9.19504 -6 43.7659
    endloop
  endfacet
  facet normal -0.253758 2.28863e-16 0.967268
    outer loop
      vertex 9.19504 8.88178e-15 43.7659
      vertex -10.1503 8.88178e-15 38.6907
      vertex 9.19504 -6 43.7659
    endloop
  endfacet
  facet normal -5.63456e-17 -1 2.14777e-16
    outer loop
      vertex -1.00228 -6 6
      vertex -10.1503 -6 38.6907
      vertex -1.00228 -6 3.82046
    endloop
  endfacet
  facet normal -5.63456e-17 -1 2.14777e-16
    outer loop
      vertex -1.66017 -6 37.2556
      vertex -10.1503 -6 38.6907
      vertex -1.00228 -6 6
    endloop
  endfacet
  facet normal -5.63456e-17 -1 2.14777e-16
    outer loop
      vertex 19.3454 -6 5.07516
      vertex 9.19504 -6 43.7659
      vertex 18.9977 -6 6
    endloop
  endfacet
  facet normal -5.63456e-17 -1 2.14777e-16
    outer loop
      vertex 19.3454 -6 5.07516
      vertex 18.9977 -6 6
      vertex 18.9977 -6 4.98396
    endloop
  endfacet
  facet normal -5.63456e-17 -1 2.14777e-16
    outer loop
      vertex -1.5906 -6 36.801
      vertex -1.66017 -6 37.2556
      vertex -1.00228 -6 6
    endloop
  endfacet
  facet normal -5.63456e-17 -1 2.14777e-16
    outer loop
      vertex -1.63369 -6 37.7147
      vertex -10.1503 -6 38.6907
      vertex -1.66017 -6 37.2556
    endloop
  endfacet
  facet normal -5.63456e-17 -1 2.14777e-16
    outer loop
      vertex -1.51233 -6 38.1584
      vertex -10.1503 -6 38.6907
      vertex -1.63369 -6 37.7147
    endloop
  endfacet
  facet normal -5.63456e-17 -1 2.14777e-16
    outer loop
      vertex -1.30138 -6 38.5671
      vertex -10.1503 -6 38.6907
      vertex -1.51233 -6 38.1584
    endloop
  endfacet
  facet normal -5.63456e-17 -1 2.14777e-16
    outer loop
      vertex 1.11791 -6 39.4812
      vertex 1.54642 -6 39.3142
      vertex 9.19504 -6 43.7659
    endloop
  endfacet
  facet normal -5.63456e-17 -1 2.14777e-16
    outer loop
      vertex -1.01008 -6 38.923
      vertex -10.1503 -6 38.6907
      vertex -1.30138 -6 38.5671
    endloop
  endfacet
  facet normal -5.63456e-17 -1 2.14777e-16
    outer loop
      vertex -0.651137 -6 39.2105
      vertex -10.1503 -6 38.6907
      vertex -1.01008 -6 38.923
    endloop
  endfacet
  facet normal -5.63456e-17 -1 2.14777e-16
    outer loop
      vertex -0.240253 -6 39.4172
      vertex -10.1503 -6 38.6907
      vertex -0.651137 -6 39.2105
    endloop
  endfacet
  facet normal -5.63456e-17 -1 2.14777e-16
    outer loop
      vertex 0.204618 -6 39.5339
      vertex 0.664032 -6 39.5556
      vertex 9.19504 -6 43.7659
    endloop
  endfacet
  facet normal -5.63456e-17 -1 2.14777e-16
    outer loop
      vertex 9.19504 -6 43.7659
      vertex -10.1503 -6 38.6907
      vertex -0.240253 -6 39.4172
    endloop
  endfacet
  facet normal -5.63456e-17 -1 2.14777e-16
    outer loop
      vertex 7.78363 -6 17.6583
      vertex 7.66227 -6 17.2147
      vertex 18.9977 -6 6
    endloop
  endfacet
  facet normal -5.63456e-17 -1 2.14777e-16
    outer loop
      vertex 1.54642 -6 39.3142
      vertex 1.93083 -6 39.0617
      vertex 9.19504 -6 43.7659
    endloop
  endfacet
  facet normal -5.63456e-17 -1 2.14777e-16
    outer loop
      vertex 2.70847 -6 37.0037
      vertex 2.58711 -6 36.5601
      vertex -1.00228 -6 6
    endloop
  endfacet
  facet normal -5.63456e-17 -1 2.14777e-16
    outer loop
      vertex 3.56283 -6 18.813
      vertex 3.77377 -6 19.2217
      vertex 9.19504 -6 43.7659
    endloop
  endfacet
  facet normal -5.63456e-17 -1 2.14777e-16
    outer loop
      vertex 1.72592 -6 35.5079
      vertex 1.31504 -6 35.3012
      vertex -1.00228 -6 6
    endloop
  endfacet
  facet normal -5.63456e-17 -1 2.14777e-16
    outer loop
      vertex 9.19504 -6 43.7659
      vertex 1.93083 -6 39.0617
      vertex 2.25434 -6 38.7348
    endloop
  endfacet
  facet normal -5.63456e-17 -1 2.14777e-16
    outer loop
      vertex 2.08486 -6 35.7955
      vertex 1.72592 -6 35.5079
      vertex -1.00228 -6 6
    endloop
  endfacet
  facet normal -5.63456e-17 -1 2.14777e-16
    outer loop
      vertex 9.19504 -6 43.7659
      vertex 2.25434 -6 38.7348
      vertex 2.50281 -6 38.3477
    endloop
  endfacet
  facet normal -5.63456e-17 -1 2.14777e-16
    outer loop
      vertex 2.37617 -6 36.1514
      vertex 2.08486 -6 35.7955
      vertex -1.00228 -6 6
    endloop
  endfacet
  facet normal -5.63456e-17 -1 2.14777e-16
    outer loop
      vertex 9.19504 -6 43.7659
      vertex 2.50281 -6 38.3477
      vertex 2.66538 -6 37.9175
    endloop
  endfacet
  facet normal -5.63456e-17 -1 2.14777e-16
    outer loop
      vertex 2.58711 -6 36.5601
      vertex 2.37617 -6 36.1514
      vertex -1.00228 -6 6
    endloop
  endfacet
  facet normal -5.63456e-17 -1 2.14777e-16
    outer loop
      vertex 9.19504 -6 43.7659
      vertex 2.66538 -6 37.9175
      vertex 2.73495 -6 37.4629
    endloop
  endfacet
  facet normal -5.63456e-17 -1 2.14777e-16
    outer loop
      vertex 9.19504 -6 43.7659
      vertex 2.70847 -6 37.0037
      vertex -1.00228 -6 6
    endloop
  endfacet
  facet normal -5.63456e-17 -1 2.14777e-16
    outer loop
      vertex 9.19504 -6 43.7659
      vertex 2.73495 -6 37.4629
      vertex 2.70847 -6 37.0037
    endloop
  endfacet
  facet normal -5.63456e-17 -1 2.14777e-16
    outer loop
      vertex 1.31504 -6 35.3012
      vertex 0.870165 -6 35.1845
      vertex -1.00228 -6 6
    endloop
  endfacet
  facet normal -5.63456e-17 -1 2.14777e-16
    outer loop
      vertex 0.870165 -6 35.1845
      vertex 0.410751 -6 35.1629
      vertex -1.00228 -6 6
    endloop
  endfacet
  facet normal -5.63456e-17 -1 2.14777e-16
    outer loop
      vertex 0.410751 -6 35.1629
      vertex -0.0431292 -6 35.2372
      vertex -1.00228 -6 6
    endloop
  endfacet
  facet normal -5.63456e-17 -1 2.14777e-16
    outer loop
      vertex -0.0431292 -6 35.2372
      vertex -0.471637 -6 35.4043
      vertex -1.00228 -6 6
    endloop
  endfacet
  facet normal -5.63456e-17 -1 2.14777e-16
    outer loop
      vertex -0.471637 -6 35.4043
      vertex -0.856046 -6 35.6568
      vertex -1.00228 -6 6
    endloop
  endfacet
  facet normal -5.63456e-17 -1 2.14777e-16
    outer loop
      vertex -0.856046 -6 35.6568
      vertex -1.17956 -6 35.9837
      vertex -1.00228 -6 6
    endloop
  endfacet
  facet normal -5.63456e-17 -1 2.14777e-16
    outer loop
      vertex -1.17956 -6 35.9837
      vertex -1.42803 -6 36.3707
      vertex -1.00228 -6 6
    endloop
  endfacet
  facet normal -5.63456e-17 -1 2.14777e-16
    outer loop
      vertex -1.42803 -6 36.3707
      vertex -1.5906 -6 36.801
      vertex -1.00228 -6 6
    endloop
  endfacet
  facet normal -5.63456e-17 -1 2.14777e-16
    outer loop
      vertex 3.56283 -6 18.813
      vertex 9.19504 -6 43.7659
      vertex 3.44147 -6 18.3694
    endloop
  endfacet
  facet normal -5.63456e-17 -1 2.14777e-16
    outer loop
      vertex 7.3295 -6 19.3894
      vertex 7.57797 -6 19.0024
      vertex 18.9977 -6 6
    endloop
  endfacet
  facet normal -5.63456e-17 -1 2.14777e-16
    outer loop
      vertex 4.06508 -6 19.5776
      vertex 9.19504 -6 43.7659
      vertex 3.77377 -6 19.2217
    endloop
  endfacet
  facet normal -5.63456e-17 -1 2.14777e-16
    outer loop
      vertex 4.42402 -6 19.8652
      vertex 9.19504 -6 43.7659
      vertex 4.06508 -6 19.5776
    endloop
  endfacet
  facet normal -5.63456e-17 -1 2.14777e-16
    outer loop
      vertex 4.83491 -6 20.0718
      vertex 9.19504 -6 43.7659
      vertex 4.42402 -6 19.8652
    endloop
  endfacet
  facet normal -5.63456e-17 -1 2.14777e-16
    outer loop
      vertex 5.27978 -6 20.1885
      vertex 9.19504 -6 43.7659
      vertex 4.83491 -6 20.0718
    endloop
  endfacet
  facet normal -5.63456e-17 -1 2.14777e-16
    outer loop
      vertex 7.66227 -6 17.2147
      vertex 7.45133 -6 16.806
      vertex 18.9977 -6 6
    endloop
  endfacet
  facet normal -5.63456e-17 -1 2.14777e-16
    outer loop
      vertex 5.73919 -6 20.2102
      vertex 9.19504 -6 43.7659
      vertex 5.27978 -6 20.1885
    endloop
  endfacet
  facet normal -5.63456e-17 -1 2.14777e-16
    outer loop
      vertex 6.19307 -6 20.1359
      vertex 9.19504 -6 43.7659
      vertex 5.73919 -6 20.2102
    endloop
  endfacet
  facet normal -5.63456e-17 -1 2.14777e-16
    outer loop
      vertex 6.62158 -6 19.9688
      vertex 9.19504 -6 43.7659
      vertex 6.19307 -6 20.1359
    endloop
  endfacet
  facet normal -5.63456e-17 -1 2.14777e-16
    outer loop
      vertex 7.00599 -6 19.7163
      vertex 9.19504 -6 43.7659
      vertex 6.62158 -6 19.9688
    endloop
  endfacet
  facet normal -5.63456e-17 -1 2.14777e-16
    outer loop
      vertex 7.3295 -6 19.3894
      vertex 9.19504 -6 43.7659
      vertex 7.00599 -6 19.7163
    endloop
  endfacet
  facet normal -5.63456e-17 -1 2.14777e-16
    outer loop
      vertex 7.57797 -6 19.0024
      vertex 7.74054 -6 18.5721
      vertex 18.9977 -6 6
    endloop
  endfacet
  facet normal -5.63456e-17 -1 2.14777e-16
    outer loop
      vertex 18.9977 -6 6
      vertex 9.19504 -6 43.7659
      vertex 7.3295 -6 19.3894
    endloop
  endfacet
  facet normal -5.63456e-17 -1 2.14777e-16
    outer loop
      vertex 7.74054 -6 18.5721
      vertex 7.81011 -6 18.1175
      vertex 18.9977 -6 6
    endloop
  endfacet
  facet normal -5.63456e-17 -1 2.14777e-16
    outer loop
      vertex 7.81011 -6 18.1175
      vertex 7.78363 -6 17.6583
      vertex 18.9977 -6 6
    endloop
  endfacet
  facet normal -5.63456e-17 -1 2.14777e-16
    outer loop
      vertex 7.45133 -6 16.806
      vertex 7.16002 -6 16.4501
      vertex 18.9977 -6 6
    endloop
  endfacet
  facet normal -5.63456e-17 -1 2.14777e-16
    outer loop
      vertex 7.16002 -6 16.4501
      vertex 6.80108 -6 16.1625
      vertex 18.9977 -6 6
    endloop
  endfacet
  facet normal -5.63456e-17 -1 2.14777e-16
    outer loop
      vertex 6.3902 -6 15.9559
      vertex 5.94532 -6 15.8392
      vertex 18.9977 -6 6
    endloop
  endfacet
  facet normal -5.63456e-17 -1 2.14777e-16
    outer loop
      vertex 18.9977 -6 6
      vertex 6.80108 -6 16.1625
      vertex 6.3902 -6 15.9559
    endloop
  endfacet
  facet normal -5.63456e-17 -1 2.14777e-16
    outer loop
      vertex -0.240253 -6 39.4172
      vertex 0.204618 -6 39.5339
      vertex 9.19504 -6 43.7659
    endloop
  endfacet
  facet normal -5.63456e-17 -1 2.14777e-16
    outer loop
      vertex 0.664032 -6 39.5556
      vertex 1.11791 -6 39.4812
      vertex 9.19504 -6 43.7659
    endloop
  endfacet
  facet normal -5.63456e-17 -1 2.14777e-16
    outer loop
      vertex -1.00228 -6 6
      vertex 3.44147 -6 18.3694
      vertex 9.19504 -6 43.7659
    endloop
  endfacet
  facet normal -5.63456e-17 -1 2.14777e-16
    outer loop
      vertex -1.00228 -6 6
      vertex 3.41499 -6 17.9102
      vertex 3.44147 -6 18.3694
    endloop
  endfacet
  facet normal -5.63456e-17 -1 2.14777e-16
    outer loop
      vertex -1.00228 -6 6
      vertex 3.48456 -6 17.4556
      vertex 3.41499 -6 17.9102
    endloop
  endfacet
  facet normal -5.63456e-17 -1 2.14777e-16
    outer loop
      vertex -1.00228 -6 6
      vertex 3.64713 -6 17.0254
      vertex 3.48456 -6 17.4556
    endloop
  endfacet
  facet normal -5.63456e-17 -1 2.14777e-16
    outer loop
      vertex -1.00228 -6 6
      vertex 3.8956 -6 16.6383
      vertex 3.64713 -6 17.0254
    endloop
  endfacet
  facet normal -5.63456e-17 -1 2.14777e-16
    outer loop
      vertex -1.00228 -6 6
      vertex 4.21911 -6 16.3114
      vertex 3.8956 -6 16.6383
    endloop
  endfacet
  facet normal -5.63456e-17 -1 2.14777e-16
    outer loop
      vertex -1.00228 -6 6
      vertex 4.60352 -6 16.0589
      vertex 4.21911 -6 16.3114
    endloop
  endfacet
  facet normal -5.63456e-17 -1 2.14777e-16
    outer loop
      vertex -1.00228 -6 6
      vertex 5.03203 -6 15.8918
      vertex 4.60352 -6 16.0589
    endloop
  endfacet
  facet normal -5.63456e-17 -1 2.14777e-16
    outer loop
      vertex -1.00228 -6 6
      vertex 5.48591 -6 15.8175
      vertex 5.03203 -6 15.8918
    endloop
  endfacet
  facet normal -5.63456e-17 -1 2.14777e-16
    outer loop
      vertex -1.00228 -6 6
      vertex 5.94532 -6 15.8392
      vertex 5.48591 -6 15.8175
    endloop
  endfacet
  facet normal -5.63456e-17 -1 2.14777e-16
    outer loop
      vertex -1.00228 -6 6
      vertex 18.9977 -6 6
      vertex 5.94532 -6 15.8392
    endloop
  endfacet
  facet normal -1 0 0
    outer loop
      vertex -1.00228 -6 0
      vertex -1.00228 -6 6
      vertex -1.00228 -6 3.82046
    endloop
  endfacet
  facet normal -1 0 0
    outer loop
      vertex -1.00228 -6 0
      vertex -1.00228 -6 3.82046
      vertex -1.00228 40 0
    endloop
  endfacet
  facet normal -1 0 0
    outer loop
      vertex -1.00228 1.34513e-15 6
      vertex -1.00228 40 0
      vertex -1.00228 8.7702e-16 3.82046
    endloop
  endfacet
  facet normal -1 0 0
    outer loop
      vertex -1.00228 -6 3.82046
      vertex -1.00228 8.7702e-16 3.82046
      vertex -1.00228 40 0
    endloop
  endfacet
  facet normal -1 0 0
    outer loop
      vertex -1.00228 40 0
      vertex -1.00228 1.34513e-15 6
      vertex -1.00228 40 6
    endloop
  endfacet
  facet normal 5.63456e-17 1 -2.14777e-16
    outer loop
      vertex -1.5906 7.99361e-15 36.801
      vertex -1.00228 1.34513e-15 6
      vertex -1.66017 8.09517e-15 37.2556
    endloop
  endfacet
  facet normal 5.63456e-17 1 -2.14777e-16
    outer loop
      vertex 18.9977 2.18222e-16 6
      vertex 9.19504 8.88178e-15 43.7659
      vertex 19.3454 0 5.07516
    endloop
  endfacet
  facet normal 5.63456e-17 1 -2.14777e-16
    outer loop
      vertex -1.00228 1.34513e-15 6
      vertex 3.44147 3.7514e-15 18.3694
      vertex 3.41499 3.65428e-15 17.9102
    endloop
  endfacet
  facet normal 5.63456e-17 1 -2.14777e-16
    outer loop
      vertex 7.81011 3.45115e-15 18.1175
      vertex 9.19504 8.88178e-15 43.7659
      vertex 18.9977 2.18222e-16 6
    endloop
  endfacet
  facet normal 5.63456e-17 1 -2.14777e-16
    outer loop
      vertex -1.00228 1.34513e-15 6
      vertex 9.19504 8.88178e-15 43.7659
      vertex 3.44147 3.7514e-15 18.3694
    endloop
  endfacet
  facet normal 5.63456e-17 1 -2.14777e-16
    outer loop
      vertex 2.08486 7.57055e-15 35.7955
      vertex 9.19504 8.88178e-15 43.7659
      vertex -1.00228 1.34513e-15 6
    endloop
  endfacet
  facet normal 5.63456e-17 1 -2.14777e-16
    outer loop
      vertex -10.1503 8.88178e-15 38.6907
      vertex -1.00228 1.34513e-15 6
      vertex -1.00228 8.7702e-16 3.82046
    endloop
  endfacet
  facet normal 5.63456e-17 1 -2.14777e-16
    outer loop
      vertex -0.240253 8.47943e-15 39.4172
      vertex -10.1503 8.88178e-15 38.6907
      vertex 0.204618 8.47943e-15 39.5339
    endloop
  endfacet
  facet normal 5.63456e-17 1 -2.14777e-16
    outer loop
      vertex -10.1503 8.88178e-15 38.6907
      vertex -1.63369 8.1923e-15 37.7147
      vertex -1.66017 8.09517e-15 37.2556
    endloop
  endfacet
  facet normal 5.63456e-17 1 -2.14777e-16
    outer loop
      vertex -10.1503 8.88178e-15 38.6907
      vertex -1.66017 8.09517e-15 37.2556
      vertex -1.00228 1.34513e-15 6
    endloop
  endfacet
  facet normal 5.63456e-17 1 -2.14777e-16
    outer loop
      vertex 1.11791 8.41666e-15 39.4812
      vertex 9.19504 8.88178e-15 43.7659
      vertex 1.54642 8.35663e-15 39.3142
    endloop
  endfacet
  facet normal 5.63456e-17 1 -2.14777e-16
    outer loop
      vertex 2.58711 7.70647e-15 36.5601
      vertex 9.19504 8.88178e-15 43.7659
      vertex 2.37617 7.63058e-15 36.1514
    endloop
  endfacet
  facet normal 5.63456e-17 1 -2.14777e-16
    outer loop
      vertex 1.54642 8.35663e-15 39.3142
      vertex 9.19504 8.88178e-15 43.7659
      vertex 1.93083 8.28074e-15 39.0617
    endloop
  endfacet
  facet normal 5.63456e-17 1 -2.14777e-16
    outer loop
      vertex -1.5906 7.99361e-15 36.801
      vertex -1.42803 7.89204e-15 36.3707
      vertex -1.00228 1.34513e-15 6
    endloop
  endfacet
  facet normal 5.63456e-17 1 -2.14777e-16
    outer loop
      vertex 1.93083 8.28074e-15 39.0617
      vertex 9.19504 8.88178e-15 43.7659
      vertex 2.25434 8.1923e-15 38.7348
    endloop
  endfacet
  facet normal 5.63456e-17 1 -2.14777e-16
    outer loop
      vertex -1.42803 7.89204e-15 36.3707
      vertex -1.17956 7.79492e-15 35.9837
      vertex -1.00228 1.34513e-15 6
    endloop
  endfacet
  facet normal 5.63456e-17 1 -2.14777e-16
    outer loop
      vertex -1.17956 7.79492e-15 35.9837
      vertex -0.856046 7.70647e-15 35.6568
      vertex -1.00228 1.34513e-15 6
    endloop
  endfacet
  facet normal 5.63456e-17 1 -2.14777e-16
    outer loop
      vertex 2.25434 8.1923e-15 38.7348
      vertex 9.19504 8.88178e-15 43.7659
      vertex 2.50281 8.09517e-15 38.3477
    endloop
  endfacet
  facet normal 5.63456e-17 1 -2.14777e-16
    outer loop
      vertex -0.856046 7.70647e-15 35.6568
      vertex -0.471637 7.63058e-15 35.4043
      vertex -1.00228 1.34513e-15 6
    endloop
  endfacet
  facet normal 5.63456e-17 1 -2.14777e-16
    outer loop
      vertex 2.50281 8.09517e-15 38.3477
      vertex 9.19504 8.88178e-15 43.7659
      vertex 2.66538 7.99361e-15 37.9175
    endloop
  endfacet
  facet normal 5.63456e-17 1 -2.14777e-16
    outer loop
      vertex -0.471637 7.63058e-15 35.4043
      vertex -0.0431292 7.57055e-15 35.2372
      vertex -1.00228 1.34513e-15 6
    endloop
  endfacet
  facet normal 5.63456e-17 1 -2.14777e-16
    outer loop
      vertex 2.66538 7.99361e-15 37.9175
      vertex 9.19504 8.88178e-15 43.7659
      vertex 2.73495 7.89204e-15 37.4629
    endloop
  endfacet
  facet normal 5.63456e-17 1 -2.14777e-16
    outer loop
      vertex -0.0431292 7.57055e-15 35.2372
      vertex 0.410751 7.52902e-15 35.1629
      vertex -1.00228 1.34513e-15 6
    endloop
  endfacet
  facet normal 5.63456e-17 1 -2.14777e-16
    outer loop
      vertex 0.410751 7.52902e-15 35.1629
      vertex 0.870165 7.50778e-15 35.1845
      vertex -1.00228 1.34513e-15 6
    endloop
  endfacet
  facet normal 5.63456e-17 1 -2.14777e-16
    outer loop
      vertex 2.73495 7.89204e-15 37.4629
      vertex 9.19504 8.88178e-15 43.7659
      vertex 2.70847 7.79492e-15 37.0037
    endloop
  endfacet
  facet normal 5.63456e-17 1 -2.14777e-16
    outer loop
      vertex 0.870165 7.50778e-15 35.1845
      vertex 1.31504 7.50778e-15 35.3012
      vertex -1.00228 1.34513e-15 6
    endloop
  endfacet
  facet normal 5.63456e-17 1 -2.14777e-16
    outer loop
      vertex 2.70847 7.79492e-15 37.0037
      vertex 9.19504 8.88178e-15 43.7659
      vertex 2.58711 7.70647e-15 36.5601
    endloop
  endfacet
  facet normal 5.63456e-17 1 -2.14777e-16
    outer loop
      vertex 1.31504 7.50778e-15 35.3012
      vertex 1.72592 7.52902e-15 35.5079
      vertex -1.00228 1.34513e-15 6
    endloop
  endfacet
  facet normal 5.63456e-17 1 -2.14777e-16
    outer loop
      vertex 2.37617 7.63058e-15 36.1514
      vertex 9.19504 8.88178e-15 43.7659
      vertex 2.08486 7.57055e-15 35.7955
    endloop
  endfacet
  facet normal 5.63456e-17 1 -2.14777e-16
    outer loop
      vertex 1.72592 7.52902e-15 35.5079
      vertex 2.08486 7.57055e-15 35.7955
      vertex -1.00228 1.34513e-15 6
    endloop
  endfacet
  facet normal 5.63456e-17 1 -2.14777e-16
    outer loop
      vertex 0.664032 8.4582e-15 39.5556
      vertex 9.19504 8.88178e-15 43.7659
      vertex 1.11791 8.41666e-15 39.4812
    endloop
  endfacet
  facet normal 5.63456e-17 1 -2.14777e-16
    outer loop
      vertex 0.204618 8.47943e-15 39.5339
      vertex 9.19504 8.88178e-15 43.7659
      vertex 0.664032 8.4582e-15 39.5556
    endloop
  endfacet
  facet normal 5.63456e-17 1 -2.14777e-16
    outer loop
      vertex -10.1503 8.88178e-15 38.6907
      vertex 9.19504 8.88178e-15 43.7659
      vertex 0.204618 8.47943e-15 39.5339
    endloop
  endfacet
  facet normal 5.63456e-17 1 -2.14777e-16
    outer loop
      vertex -0.651137 8.4582e-15 39.2105
      vertex -10.1503 8.88178e-15 38.6907
      vertex -0.240253 8.47943e-15 39.4172
    endloop
  endfacet
  facet normal 5.63456e-17 1 -2.14777e-16
    outer loop
      vertex 5.03203 3.12966e-15 15.8918
      vertex 18.9977 2.18222e-16 6
      vertex 4.60352 3.18969e-15 16.0589
    endloop
  endfacet
  facet normal 5.63456e-17 1 -2.14777e-16
    outer loop
      vertex -10.1503 8.88178e-15 38.6907
      vertex -0.651137 8.4582e-15 39.2105
      vertex -1.01008 8.41666e-15 38.923
    endloop
  endfacet
  facet normal 5.63456e-17 1 -2.14777e-16
    outer loop
      vertex -10.1503 8.88178e-15 38.6907
      vertex -1.01008 8.41666e-15 38.923
      vertex -1.30138 8.35663e-15 38.5671
    endloop
  endfacet
  facet normal 5.63456e-17 1 -2.14777e-16
    outer loop
      vertex -10.1503 8.88178e-15 38.6907
      vertex -1.30138 8.35663e-15 38.5671
      vertex -1.51233 8.28074e-15 38.1584
    endloop
  endfacet
  facet normal 5.63456e-17 1 -2.14777e-16
    outer loop
      vertex -10.1503 8.88178e-15 38.6907
      vertex -1.51233 8.28074e-15 38.1584
      vertex -1.63369 8.1923e-15 37.7147
    endloop
  endfacet
  facet normal 5.63456e-17 1 -2.14777e-16
    outer loop
      vertex 4.21911 3.26558e-15 16.3114
      vertex 4.60352 3.18969e-15 16.0589
      vertex 18.9977 2.18222e-16 6
    endloop
  endfacet
  facet normal 5.63456e-17 1 -2.14777e-16
    outer loop
      vertex 5.48591 3.08812e-15 15.8175
      vertex 18.9977 2.18222e-16 6
      vertex 5.03203 3.12966e-15 15.8918
    endloop
  endfacet
  facet normal 5.63456e-17 1 -2.14777e-16
    outer loop
      vertex 5.94532 3.06689e-15 15.8392
      vertex 18.9977 2.18222e-16 6
      vertex 5.48591 3.08812e-15 15.8175
    endloop
  endfacet
  facet normal 5.63456e-17 1 -2.14777e-16
    outer loop
      vertex 6.3902 3.06689e-15 15.9559
      vertex 18.9977 2.18222e-16 6
      vertex 5.94532 3.06689e-15 15.8392
    endloop
  endfacet
  facet normal 5.63456e-17 1 -2.14777e-16
    outer loop
      vertex 6.80108 3.08812e-15 16.1625
      vertex 18.9977 2.18222e-16 6
      vertex 6.3902 3.06689e-15 15.9559
    endloop
  endfacet
  facet normal 5.63456e-17 1 -2.14777e-16
    outer loop
      vertex 7.74054 3.55271e-15 18.5721
      vertex 9.19504 8.88178e-15 43.7659
      vertex 7.81011 3.45115e-15 18.1175
    endloop
  endfacet
  facet normal 5.63456e-17 1 -2.14777e-16
    outer loop
      vertex 7.00599 3.83985e-15 19.7163
      vertex 9.19504 8.88178e-15 43.7659
      vertex 7.3295 3.7514e-15 19.3894
    endloop
  endfacet
  facet normal 5.63456e-17 1 -2.14777e-16
    outer loop
      vertex 6.80108 3.08812e-15 16.1625
      vertex 7.16002 3.12966e-15 16.4501
      vertex 18.9977 2.18222e-16 6
    endloop
  endfacet
  facet normal 5.63456e-17 1 -2.14777e-16
    outer loop
      vertex 7.3295 3.7514e-15 19.3894
      vertex 9.19504 8.88178e-15 43.7659
      vertex 7.57797 3.65428e-15 19.0024
    endloop
  endfacet
  facet normal 5.63456e-17 1 -2.14777e-16
    outer loop
      vertex 7.16002 3.12966e-15 16.4501
      vertex 7.45133 3.18969e-15 16.806
      vertex 18.9977 2.18222e-16 6
    endloop
  endfacet
  facet normal 5.63456e-17 1 -2.14777e-16
    outer loop
      vertex 7.57797 3.65428e-15 19.0024
      vertex 9.19504 8.88178e-15 43.7659
      vertex 7.74054 3.55271e-15 18.5721
    endloop
  endfacet
  facet normal 5.63456e-17 1 -2.14777e-16
    outer loop
      vertex 7.45133 3.18969e-15 16.806
      vertex 7.66227 3.26558e-15 17.2147
      vertex 18.9977 2.18222e-16 6
    endloop
  endfacet
  facet normal 5.63456e-17 1 -2.14777e-16
    outer loop
      vertex 7.66227 3.26558e-15 17.2147
      vertex 7.78363 3.35402e-15 17.6583
      vertex 18.9977 2.18222e-16 6
    endloop
  endfacet
  facet normal 5.63456e-17 1 -2.14777e-16
    outer loop
      vertex 7.78363 3.35402e-15 17.6583
      vertex 7.81011 3.45115e-15 18.1175
      vertex 18.9977 2.18222e-16 6
    endloop
  endfacet
  facet normal 5.63456e-17 1 -2.14777e-16
    outer loop
      vertex 6.62158 3.91574e-15 19.9688
      vertex 9.19504 8.88178e-15 43.7659
      vertex 7.00599 3.83985e-15 19.7163
    endloop
  endfacet
  facet normal 5.63456e-17 1 -2.14777e-16
    outer loop
      vertex 6.19307 3.97577e-15 20.1359
      vertex 9.19504 8.88178e-15 43.7659
      vertex 6.62158 3.91574e-15 19.9688
    endloop
  endfacet
  facet normal 5.63456e-17 1 -2.14777e-16
    outer loop
      vertex 5.73919 4.0173e-15 20.2102
      vertex 9.19504 8.88178e-15 43.7659
      vertex 6.19307 3.97577e-15 20.1359
    endloop
  endfacet
  facet normal 5.63456e-17 1 -2.14777e-16
    outer loop
      vertex 5.27978 4.03854e-15 20.1885
      vertex 9.19504 8.88178e-15 43.7659
      vertex 5.73919 4.0173e-15 20.2102
    endloop
  endfacet
  facet normal 5.63456e-17 1 -2.14777e-16
    outer loop
      vertex 4.83491 4.03854e-15 20.0718
      vertex 9.19504 8.88178e-15 43.7659
      vertex 5.27978 4.03854e-15 20.1885
    endloop
  endfacet
  facet normal 5.63456e-17 1 -2.14777e-16
    outer loop
      vertex 4.42402 4.0173e-15 19.8652
      vertex 9.19504 8.88178e-15 43.7659
      vertex 4.83491 4.03854e-15 20.0718
    endloop
  endfacet
  facet normal 5.63456e-17 1 -2.14777e-16
    outer loop
      vertex 4.06508 3.97577e-15 19.5776
      vertex 9.19504 8.88178e-15 43.7659
      vertex 4.42402 4.0173e-15 19.8652
    endloop
  endfacet
  facet normal 5.63456e-17 1 -2.14777e-16
    outer loop
      vertex 3.77377 3.91574e-15 19.2217
      vertex 9.19504 8.88178e-15 43.7659
      vertex 4.06508 3.97577e-15 19.5776
    endloop
  endfacet
  facet normal 5.63456e-17 1 -2.14777e-16
    outer loop
      vertex 3.56283 3.83985e-15 18.813
      vertex 9.19504 8.88178e-15 43.7659
      vertex 3.77377 3.91574e-15 19.2217
    endloop
  endfacet
  facet normal 5.63456e-17 1 -2.14777e-16
    outer loop
      vertex 3.44147 3.7514e-15 18.3694
      vertex 9.19504 8.88178e-15 43.7659
      vertex 3.56283 3.83985e-15 18.813
    endloop
  endfacet
  facet normal 5.63456e-17 1 -2.14777e-16
    outer loop
      vertex 18.9977 2.18222e-16 6
      vertex 19.3454 0 5.07516
      vertex 18.9977 0 4.98396
    endloop
  endfacet
  facet normal 5.63456e-17 1 -2.14777e-16
    outer loop
      vertex -1.00228 1.34513e-15 6
      vertex 3.41499 3.65428e-15 17.9102
      vertex 3.48456 3.55271e-15 17.4556
    endloop
  endfacet
  facet normal 5.63456e-17 1 -2.14777e-16
    outer loop
      vertex -1.00228 1.34513e-15 6
      vertex 3.48456 3.55271e-15 17.4556
      vertex 3.64713 3.45115e-15 17.0254
    endloop
  endfacet
  facet normal 5.63456e-17 1 -2.14777e-16
    outer loop
      vertex -1.00228 1.34513e-15 6
      vertex 3.64713 3.45115e-15 17.0254
      vertex 3.8956 3.35402e-15 16.6383
    endloop
  endfacet
  facet normal 5.63456e-17 1 -2.14777e-16
    outer loop
      vertex -1.00228 1.34513e-15 6
      vertex 3.8956 3.35402e-15 16.6383
      vertex 4.21911 3.26558e-15 16.3114
    endloop
  endfacet
  facet normal 5.63456e-17 1 -2.14777e-16
    outer loop
      vertex -1.00228 1.34513e-15 6
      vertex 4.21911 3.26558e-15 16.3114
      vertex 18.9977 2.18222e-16 6
    endloop
  endfacet
  facet normal 0.967268 2.65144e-18 0.253758
    outer loop
      vertex 9.19504 8.88178e-15 43.7659
      vertex 9.19504 -6 43.7659
      vertex 19.3454 -6 5.07516
    endloop
  endfacet
  facet normal 0.967268 2.65144e-18 0.253758
    outer loop
      vertex 19.3454 0 5.07516
      vertex 9.19504 8.88178e-15 43.7659
      vertex 19.3454 -6 5.07516
    endloop
  endfacet
  facet normal 0.253758 -2.28863e-16 -0.967268
    outer loop
      vertex 18.9977 -6 4.98396
      vertex 18.9977 0 4.98396
      vertex 19.3454 -6 5.07516
    endloop
  endfacet
  facet normal 0.253758 -2.28863e-16 -0.967268
    outer loop
      vertex 19.3454 -6 5.07516
      vertex 18.9977 0 4.98396
      vertex 19.3454 0 5.07516
    endloop
  endfacet
  facet normal 1 0 0
    outer loop
      vertex 18.9977 -6 4.98396
      vertex 18.9977 -6 0
      vertex 18.9977 40 0
    endloop
  endfacet
  facet normal 1 0 0
    outer loop
      vertex 18.9977 0 4.98396
      vertex 18.9977 -6 4.98396
      vertex 18.9977 40 0
    endloop
  endfacet
  facet normal 1 0 0
    outer loop
      vertex 18.9977 40 6
      vertex 18.9977 0 4.98396
      vertex 18.9977 40 0
    endloop
  endfacet
  facet normal 1 0 0
    outer loop
      vertex 18.9977 2.18222e-16 6
      vertex 18.9977 0 4.98396
      vertex 18.9977 40 6
    endloop
  endfacet
  facet normal 0 -1 0
    outer loop
      vertex -1.00228 -6 6
      vertex -1.00228 -6 0
      vertex 18.9977 -6 0
    endloop
  endfacet
  facet normal 0 -1 0
    outer loop
      vertex 18.9977 -6 6
      vertex -1.00228 -6 6
      vertex 18.9977 -6 4.98396
    endloop
  endfacet
  facet normal 0 -1 0
    outer loop
      vertex 18.9977 -6 4.98396
      vertex -1.00228 -6 6
      vertex 18.9977 -6 0
    endloop
  endfacet
  facet normal 0.998342 -6.8201e-17 -0.0575645
    outer loop
      vertex -1.66017 8.09517e-15 37.2556
      vertex -1.63369 8.1923e-15 37.7147
      vertex -1.63369 -6 37.7147
    endloop
  endfacet
  facet normal 0.998342 -6.8201e-17 -0.0575645
    outer loop
      vertex -1.66017 -6 37.2556
      vertex -1.66017 8.09517e-15 37.2556
      vertex -1.63369 -6 37.7147
    endloop
  endfacet
  facet normal 0.988494 -2.12856e-17 0.151261
    outer loop
      vertex -1.5906 -6 36.801
      vertex -1.5906 7.99361e-15 36.801
      vertex -1.66017 8.09517e-15 37.2556
    endloop
  endfacet
  facet normal 0.988494 -2.12856e-17 0.151261
    outer loop
      vertex -1.66017 -6 37.2556
      vertex -1.5906 -6 36.801
      vertex -1.66017 8.09517e-15 37.2556
    endloop
  endfacet
  facet normal 0.935444 2.65595e-17 0.353474
    outer loop
      vertex -1.42803 -6 36.3707
      vertex -1.42803 7.89204e-15 36.3707
      vertex -1.5906 7.99361e-15 36.801
    endloop
  endfacet
  facet normal 0.935444 2.65595e-17 0.353474
    outer loop
      vertex -1.5906 -6 36.801
      vertex -1.42803 -6 36.3707
      vertex -1.5906 7.99361e-15 36.801
    endloop
  endfacet
  facet normal 0.841511 7.32443e-17 0.540241
    outer loop
      vertex -1.17956 -6 35.9837
      vertex -1.17956 7.79492e-15 35.9837
      vertex -1.42803 7.89204e-15 36.3707
    endloop
  endfacet
  facet normal 0.841511 7.32443e-17 0.540241
    outer loop
      vertex -1.42803 -6 36.3707
      vertex -1.17956 -6 35.9837
      vertex -1.42803 7.89204e-15 36.3707
    endloop
  endfacet
  facet normal 0.710799 1.16728e-16 0.703395
    outer loop
      vertex -0.856046 -6 35.6568
      vertex -0.856046 7.70647e-15 35.6568
      vertex -1.17956 7.79492e-15 35.9837
    endloop
  endfacet
  facet normal 0.710799 1.16728e-16 0.703395
    outer loop
      vertex -1.17956 -6 35.9837
      vertex -0.856046 -6 35.6568
      vertex -1.17956 7.79492e-15 35.9837
    endloop
  endfacet
  facet normal 0.549023 1.5511e-16 0.835807
    outer loop
      vertex -0.471637 -6 35.4043
      vertex -0.471637 7.63058e-15 35.4043
      vertex -0.856046 7.70647e-15 35.6568
    endloop
  endfacet
  facet normal 0.549023 1.5511e-16 0.835807
    outer loop
      vertex -0.856046 -6 35.6568
      vertex -0.471637 -6 35.4043
      vertex -0.856046 7.70647e-15 35.6568
    endloop
  endfacet
  facet normal 0.363251 1.86713e-16 0.931691
    outer loop
      vertex -0.0431292 -6 35.2372
      vertex -0.0431292 7.57055e-15 35.2372
      vertex -0.471637 7.63058e-15 35.4043
    endloop
  endfacet
  facet normal 0.363251 1.86713e-16 0.931691
    outer loop
      vertex -0.471637 -6 35.4043
      vertex -0.0431292 -6 35.2372
      vertex -0.471637 7.63058e-15 35.4043
    endloop
  endfacet
  facet normal 0.161603 2.10155e-16 0.986856
    outer loop
      vertex 0.410751 -6 35.1629
      vertex 0.410751 7.52902e-15 35.1629
      vertex -0.0431292 7.57055e-15 35.2372
    endloop
  endfacet
  facet normal 0.161603 2.10155e-16 0.986856
    outer loop
      vertex -0.0431292 -6 35.2372
      vertex 0.410751 -6 35.1629
      vertex -0.0431292 7.57055e-15 35.2372
    endloop
  endfacet
  facet normal -0.0471058 2.24413e-16 0.99889
    outer loop
      vertex 0.870165 -6 35.1845
      vertex 0.870165 7.50778e-15 35.1845
      vertex 0.410751 7.52902e-15 35.1629
    endloop
  endfacet
  facet normal -0.0471058 2.24413e-16 0.99889
    outer loop
      vertex 0.410751 -6 35.1629
      vertex 0.870165 -6 35.1845
      vertex 0.410751 7.52902e-15 35.1629
    endloop
  endfacet
  facet normal -0.253758 2.28863e-16 0.967268
    outer loop
      vertex 1.31504 -6 35.3012
      vertex 1.31504 7.50778e-15 35.3012
      vertex 0.870165 7.50778e-15 35.1845
    endloop
  endfacet
  facet normal -0.253758 2.28863e-16 0.967268
    outer loop
      vertex 0.870165 -6 35.1845
      vertex 1.31504 -6 35.3012
      vertex 0.870165 7.50778e-15 35.1845
    endloop
  endfacet
  facet normal -0.44932 2.2331e-16 0.893371
    outer loop
      vertex 1.72592 -6 35.5079
      vertex 1.72592 7.52902e-15 35.5079
      vertex 1.31504 7.50778e-15 35.3012
    endloop
  endfacet
  facet normal -0.44932 2.2331e-16 0.893371
    outer loop
      vertex 1.31504 -6 35.3012
      vertex 1.72592 -6 35.5079
      vertex 1.31504 7.50778e-15 35.3012
    endloop
  endfacet
  facet normal -0.625242 2.07998e-16 0.780431
    outer loop
      vertex 2.08486 -6 35.7955
      vertex 2.08486 7.57055e-15 35.7955
      vertex 1.72592 7.52902e-15 35.5079
    endloop
  endfacet
  facet normal -0.625242 2.07998e-16 0.780431
    outer loop
      vertex 1.72592 -6 35.5079
      vertex 2.08486 -6 35.7955
      vertex 1.72592 7.52902e-15 35.5079
    endloop
  endfacet
  facet normal -0.77384 1.83596e-16 0.633381
    outer loop
      vertex 2.37617 7.63058e-15 36.1514
      vertex 2.08486 7.57055e-15 35.7955
      vertex 2.37617 -6 36.1514
    endloop
  endfacet
  facet normal -0.77384 1.83596e-16 0.633381
    outer loop
      vertex 2.37617 -6 36.1514
      vertex 2.08486 7.57055e-15 35.7955
      vertex 2.08486 -6 35.7955
    endloop
  endfacet
  facet normal -0.888617 1.51169e-16 0.45865
    outer loop
      vertex 2.58711 7.70647e-15 36.5601
      vertex 2.37617 7.63058e-15 36.1514
      vertex 2.58711 -6 36.5601
    endloop
  endfacet
  facet normal -0.888617 1.51169e-16 0.45865
    outer loop
      vertex 2.58711 -6 36.5601
      vertex 2.37617 7.63058e-15 36.1514
      vertex 2.37617 -6 36.1514
    endloop
  endfacet
  facet normal -0.964557 1.12135e-16 0.263874
    outer loop
      vertex 2.70847 7.79492e-15 37.0037
      vertex 2.58711 7.70647e-15 36.5601
      vertex 2.70847 -6 37.0037
    endloop
  endfacet
  facet normal -0.964557 1.12135e-16 0.263874
    outer loop
      vertex 2.70847 -6 37.0037
      vertex 2.58711 7.70647e-15 36.5601
      vertex 2.58711 -6 36.5601
    endloop
  endfacet
  facet normal -0.998342 6.8201e-17 0.0575645
    outer loop
      vertex 2.73495 7.89204e-15 37.4629
      vertex 2.70847 7.79492e-15 37.0037
      vertex 2.73495 -6 37.4629
    endloop
  endfacet
  facet normal -0.998342 6.8201e-17 0.0575645
    outer loop
      vertex 2.73495 -6 37.4629
      vertex 2.70847 7.79492e-15 37.0037
      vertex 2.70847 -6 37.0037
    endloop
  endfacet
  facet normal -0.988494 2.12856e-17 -0.151261
    outer loop
      vertex 2.73495 7.89204e-15 37.4629
      vertex 2.73495 -6 37.4629
      vertex 2.66538 7.99361e-15 37.9175
    endloop
  endfacet
  facet normal -0.988494 2.12856e-17 -0.151261
    outer loop
      vertex 2.66538 7.99361e-15 37.9175
      vertex 2.73495 -6 37.4629
      vertex 2.66538 -6 37.9175
    endloop
  endfacet
  facet normal -0.935444 -2.65595e-17 -0.353474
    outer loop
      vertex 2.66538 7.99361e-15 37.9175
      vertex 2.66538 -6 37.9175
      vertex 2.50281 8.09517e-15 38.3477
    endloop
  endfacet
  facet normal -0.935444 -2.65595e-17 -0.353474
    outer loop
      vertex 2.50281 8.09517e-15 38.3477
      vertex 2.66538 -6 37.9175
      vertex 2.50281 -6 38.3477
    endloop
  endfacet
  facet normal -0.841511 -7.32443e-17 -0.540241
    outer loop
      vertex 2.50281 8.09517e-15 38.3477
      vertex 2.50281 -6 38.3477
      vertex 2.25434 8.1923e-15 38.7348
    endloop
  endfacet
  facet normal -0.841511 -7.32443e-17 -0.540241
    outer loop
      vertex 2.25434 8.1923e-15 38.7348
      vertex 2.50281 -6 38.3477
      vertex 2.25434 -6 38.7348
    endloop
  endfacet
  facet normal -0.710799 -1.16728e-16 -0.703395
    outer loop
      vertex 2.25434 8.1923e-15 38.7348
      vertex 2.25434 -6 38.7348
      vertex 1.93083 8.28074e-15 39.0617
    endloop
  endfacet
  facet normal -0.710799 -1.16728e-16 -0.703395
    outer loop
      vertex 1.93083 8.28074e-15 39.0617
      vertex 2.25434 -6 38.7348
      vertex 1.93083 -6 39.0617
    endloop
  endfacet
  facet normal -0.549023 -1.5511e-16 -0.835807
    outer loop
      vertex 1.93083 8.28074e-15 39.0617
      vertex 1.93083 -6 39.0617
      vertex 1.54642 8.35663e-15 39.3142
    endloop
  endfacet
  facet normal -0.549023 -1.5511e-16 -0.835807
    outer loop
      vertex 1.54642 8.35663e-15 39.3142
      vertex 1.93083 -6 39.0617
      vertex 1.54642 -6 39.3142
    endloop
  endfacet
  facet normal -0.363251 -1.86713e-16 -0.931691
    outer loop
      vertex 1.54642 8.35663e-15 39.3142
      vertex 1.54642 -6 39.3142
      vertex 1.11791 8.41666e-15 39.4812
    endloop
  endfacet
  facet normal -0.363251 -1.86713e-16 -0.931691
    outer loop
      vertex 1.11791 8.41666e-15 39.4812
      vertex 1.54642 -6 39.3142
      vertex 1.11791 -6 39.4812
    endloop
  endfacet
  facet normal -0.161603 -2.10155e-16 -0.986856
    outer loop
      vertex 1.11791 8.41666e-15 39.4812
      vertex 1.11791 -6 39.4812
      vertex 0.664032 8.4582e-15 39.5556
    endloop
  endfacet
  facet normal -0.161603 -2.10155e-16 -0.986856
    outer loop
      vertex 0.664032 8.4582e-15 39.5556
      vertex 1.11791 -6 39.4812
      vertex 0.664032 -6 39.5556
    endloop
  endfacet
  facet normal 0.0471058 -2.24413e-16 -0.99889
    outer loop
      vertex 0.664032 8.4582e-15 39.5556
      vertex 0.664032 -6 39.5556
      vertex 0.204618 8.47943e-15 39.5339
    endloop
  endfacet
  facet normal 0.0471058 -2.24413e-16 -0.99889
    outer loop
      vertex 0.204618 8.47943e-15 39.5339
      vertex 0.664032 -6 39.5556
      vertex 0.204618 -6 39.5339
    endloop
  endfacet
  facet normal 0.253758 -2.28863e-16 -0.967268
    outer loop
      vertex 0.204618 8.47943e-15 39.5339
      vertex 0.204618 -6 39.5339
      vertex -0.240253 8.47943e-15 39.4172
    endloop
  endfacet
  facet normal 0.253758 -2.28863e-16 -0.967268
    outer loop
      vertex -0.240253 8.47943e-15 39.4172
      vertex 0.204618 -6 39.5339
      vertex -0.240253 -6 39.4172
    endloop
  endfacet
  facet normal 0.44932 -2.2331e-16 -0.893371
    outer loop
      vertex -0.240253 8.47943e-15 39.4172
      vertex -0.240253 -6 39.4172
      vertex -0.651137 8.4582e-15 39.2105
    endloop
  endfacet
  facet normal 0.44932 -2.2331e-16 -0.893371
    outer loop
      vertex -0.651137 8.4582e-15 39.2105
      vertex -0.240253 -6 39.4172
      vertex -0.651137 -6 39.2105
    endloop
  endfacet
  facet normal 0.625242 -2.07998e-16 -0.780431
    outer loop
      vertex -0.651137 8.4582e-15 39.2105
      vertex -0.651137 -6 39.2105
      vertex -1.01008 8.41666e-15 38.923
    endloop
  endfacet
  facet normal 0.625242 -2.07998e-16 -0.780431
    outer loop
      vertex -1.01008 8.41666e-15 38.923
      vertex -0.651137 -6 39.2105
      vertex -1.01008 -6 38.923
    endloop
  endfacet
  facet normal 0.77384 -1.83596e-16 -0.633381
    outer loop
      vertex -1.30138 8.35663e-15 38.5671
      vertex -1.01008 8.41666e-15 38.923
      vertex -1.01008 -6 38.923
    endloop
  endfacet
  facet normal 0.77384 -1.83596e-16 -0.633381
    outer loop
      vertex -1.30138 -6 38.5671
      vertex -1.30138 8.35663e-15 38.5671
      vertex -1.01008 -6 38.923
    endloop
  endfacet
  facet normal 0.888617 -1.51169e-16 -0.45865
    outer loop
      vertex -1.51233 8.28074e-15 38.1584
      vertex -1.30138 8.35663e-15 38.5671
      vertex -1.30138 -6 38.5671
    endloop
  endfacet
  facet normal 0.888617 -1.51169e-16 -0.45865
    outer loop
      vertex -1.51233 -6 38.1584
      vertex -1.51233 8.28074e-15 38.1584
      vertex -1.30138 -6 38.5671
    endloop
  endfacet
  facet normal 0.964557 -1.12135e-16 -0.263874
    outer loop
      vertex -1.63369 8.1923e-15 37.7147
      vertex -1.51233 8.28074e-15 38.1584
      vertex -1.51233 -6 38.1584
    endloop
  endfacet
  facet normal 0.964557 -1.12135e-16 -0.263874
    outer loop
      vertex -1.63369 -6 37.7147
      vertex -1.63369 8.1923e-15 37.7147
      vertex -1.51233 -6 38.1584
    endloop
  endfacet
  facet normal 0.998342 -6.8201e-17 -0.0575645
    outer loop
      vertex 3.41499 3.65428e-15 17.9102
      vertex 3.44147 3.7514e-15 18.3694
      vertex 3.44147 -6 18.3694
    endloop
  endfacet
  facet normal 0.998342 -6.8201e-17 -0.0575645
    outer loop
      vertex 3.41499 -6 17.9102
      vertex 3.41499 3.65428e-15 17.9102
      vertex 3.44147 -6 18.3694
    endloop
  endfacet
  facet normal 0.988494 -2.12856e-17 0.151261
    outer loop
      vertex 3.48456 -6 17.4556
      vertex 3.48456 3.55271e-15 17.4556
      vertex 3.41499 3.65428e-15 17.9102
    endloop
  endfacet
  facet normal 0.988494 -2.12856e-17 0.151261
    outer loop
      vertex 3.41499 -6 17.9102
      vertex 3.48456 -6 17.4556
      vertex 3.41499 3.65428e-15 17.9102
    endloop
  endfacet
  facet normal 0.935444 2.65595e-17 0.353474
    outer loop
      vertex 3.64713 -6 17.0254
      vertex 3.64713 3.45115e-15 17.0254
      vertex 3.48456 3.55271e-15 17.4556
    endloop
  endfacet
  facet normal 0.935444 2.65595e-17 0.353474
    outer loop
      vertex 3.48456 -6 17.4556
      vertex 3.64713 -6 17.0254
      vertex 3.48456 3.55271e-15 17.4556
    endloop
  endfacet
  facet normal 0.841511 7.32443e-17 0.540241
    outer loop
      vertex 3.8956 -6 16.6383
      vertex 3.8956 3.35402e-15 16.6383
      vertex 3.64713 3.45115e-15 17.0254
    endloop
  endfacet
  facet normal 0.841511 7.32443e-17 0.540241
    outer loop
      vertex 3.64713 -6 17.0254
      vertex 3.8956 -6 16.6383
      vertex 3.64713 3.45115e-15 17.0254
    endloop
  endfacet
  facet normal 0.710799 1.16728e-16 0.703395
    outer loop
      vertex 4.21911 -6 16.3114
      vertex 4.21911 3.26558e-15 16.3114
      vertex 3.8956 3.35402e-15 16.6383
    endloop
  endfacet
  facet normal 0.710799 1.16728e-16 0.703395
    outer loop
      vertex 3.8956 -6 16.6383
      vertex 4.21911 -6 16.3114
      vertex 3.8956 3.35402e-15 16.6383
    endloop
  endfacet
  facet normal 0.549023 1.5511e-16 0.835807
    outer loop
      vertex 4.60352 -6 16.0589
      vertex 4.60352 3.18969e-15 16.0589
      vertex 4.21911 3.26558e-15 16.3114
    endloop
  endfacet
  facet normal 0.549023 1.5511e-16 0.835807
    outer loop
      vertex 4.21911 -6 16.3114
      vertex 4.60352 -6 16.0589
      vertex 4.21911 3.26558e-15 16.3114
    endloop
  endfacet
  facet normal 0.363251 1.86713e-16 0.931691
    outer loop
      vertex 5.03203 -6 15.8918
      vertex 5.03203 3.12966e-15 15.8918
      vertex 4.60352 3.18969e-15 16.0589
    endloop
  endfacet
  facet normal 0.363251 1.86713e-16 0.931691
    outer loop
      vertex 4.60352 -6 16.0589
      vertex 5.03203 -6 15.8918
      vertex 4.60352 3.18969e-15 16.0589
    endloop
  endfacet
  facet normal 0.161603 2.10155e-16 0.986856
    outer loop
      vertex 5.48591 -6 15.8175
      vertex 5.48591 3.08812e-15 15.8175
      vertex 5.03203 3.12966e-15 15.8918
    endloop
  endfacet
  facet normal 0.161603 2.10155e-16 0.986856
    outer loop
      vertex 5.03203 -6 15.8918
      vertex 5.48591 -6 15.8175
      vertex 5.03203 3.12966e-15 15.8918
    endloop
  endfacet
  facet normal -0.0471058 2.24413e-16 0.99889
    outer loop
      vertex 5.94532 -6 15.8392
      vertex 5.94532 3.06689e-15 15.8392
      vertex 5.48591 3.08812e-15 15.8175
    endloop
  endfacet
  facet normal -0.0471058 2.24413e-16 0.99889
    outer loop
      vertex 5.48591 -6 15.8175
      vertex 5.94532 -6 15.8392
      vertex 5.48591 3.08812e-15 15.8175
    endloop
  endfacet
  facet normal -0.253758 2.28863e-16 0.967268
    outer loop
      vertex 6.3902 -6 15.9559
      vertex 6.3902 3.06689e-15 15.9559
      vertex 5.94532 3.06689e-15 15.8392
    endloop
  endfacet
  facet normal -0.253758 2.28863e-16 0.967268
    outer loop
      vertex 5.94532 -6 15.8392
      vertex 6.3902 -6 15.9559
      vertex 5.94532 3.06689e-15 15.8392
    endloop
  endfacet
  facet normal -0.44932 2.2331e-16 0.893371
    outer loop
      vertex 6.80108 -6 16.1625
      vertex 6.80108 3.08812e-15 16.1625
      vertex 6.3902 3.06689e-15 15.9559
    endloop
  endfacet
  facet normal -0.44932 2.2331e-16 0.893371
    outer loop
      vertex 6.3902 -6 15.9559
      vertex 6.80108 -6 16.1625
      vertex 6.3902 3.06689e-15 15.9559
    endloop
  endfacet
  facet normal -0.625242 2.07998e-16 0.780431
    outer loop
      vertex 7.16002 -6 16.4501
      vertex 7.16002 3.12966e-15 16.4501
      vertex 6.80108 3.08812e-15 16.1625
    endloop
  endfacet
  facet normal -0.625242 2.07998e-16 0.780431
    outer loop
      vertex 6.80108 -6 16.1625
      vertex 7.16002 -6 16.4501
      vertex 6.80108 3.08812e-15 16.1625
    endloop
  endfacet
  facet normal -0.77384 1.83596e-16 0.633381
    outer loop
      vertex 7.45133 3.18969e-15 16.806
      vertex 7.16002 3.12966e-15 16.4501
      vertex 7.45133 -6 16.806
    endloop
  endfacet
  facet normal -0.77384 1.83596e-16 0.633381
    outer loop
      vertex 7.45133 -6 16.806
      vertex 7.16002 3.12966e-15 16.4501
      vertex 7.16002 -6 16.4501
    endloop
  endfacet
  facet normal -0.888617 1.51169e-16 0.45865
    outer loop
      vertex 7.66227 3.26558e-15 17.2147
      vertex 7.45133 3.18969e-15 16.806
      vertex 7.66227 -6 17.2147
    endloop
  endfacet
  facet normal -0.888617 1.51169e-16 0.45865
    outer loop
      vertex 7.66227 -6 17.2147
      vertex 7.45133 3.18969e-15 16.806
      vertex 7.45133 -6 16.806
    endloop
  endfacet
  facet normal -0.964557 1.12135e-16 0.263874
    outer loop
      vertex 7.78363 3.35402e-15 17.6583
      vertex 7.66227 3.26558e-15 17.2147
      vertex 7.78363 -6 17.6583
    endloop
  endfacet
  facet normal -0.964557 1.12135e-16 0.263874
    outer loop
      vertex 7.78363 -6 17.6583
      vertex 7.66227 3.26558e-15 17.2147
      vertex 7.66227 -6 17.2147
    endloop
  endfacet
  facet normal -0.998342 6.8201e-17 0.0575645
    outer loop
      vertex 7.81011 3.45115e-15 18.1175
      vertex 7.78363 3.35402e-15 17.6583
      vertex 7.81011 -6 18.1175
    endloop
  endfacet
  facet normal -0.998342 6.8201e-17 0.0575645
    outer loop
      vertex 7.81011 -6 18.1175
      vertex 7.78363 3.35402e-15 17.6583
      vertex 7.78363 -6 17.6583
    endloop
  endfacet
  facet normal -0.988494 2.12856e-17 -0.151261
    outer loop
      vertex 7.81011 3.45115e-15 18.1175
      vertex 7.81011 -6 18.1175
      vertex 7.74054 3.55271e-15 18.5721
    endloop
  endfacet
  facet normal -0.988494 2.12856e-17 -0.151261
    outer loop
      vertex 7.74054 3.55271e-15 18.5721
      vertex 7.81011 -6 18.1175
      vertex 7.74054 -6 18.5721
    endloop
  endfacet
  facet normal -0.935444 -2.65595e-17 -0.353474
    outer loop
      vertex 7.74054 3.55271e-15 18.5721
      vertex 7.74054 -6 18.5721
      vertex 7.57797 3.65428e-15 19.0024
    endloop
  endfacet
  facet normal -0.935444 -2.65595e-17 -0.353474
    outer loop
      vertex 7.57797 3.65428e-15 19.0024
      vertex 7.74054 -6 18.5721
      vertex 7.57797 -6 19.0024
    endloop
  endfacet
  facet normal -0.841511 -7.32443e-17 -0.540241
    outer loop
      vertex 7.57797 3.65428e-15 19.0024
      vertex 7.57797 -6 19.0024
      vertex 7.3295 3.7514e-15 19.3894
    endloop
  endfacet
  facet normal -0.841511 -7.32443e-17 -0.540241
    outer loop
      vertex 7.3295 3.7514e-15 19.3894
      vertex 7.57797 -6 19.0024
      vertex 7.3295 -6 19.3894
    endloop
  endfacet
  facet normal -0.710799 -1.16728e-16 -0.703395
    outer loop
      vertex 7.3295 3.7514e-15 19.3894
      vertex 7.3295 -6 19.3894
      vertex 7.00599 3.83985e-15 19.7163
    endloop
  endfacet
  facet normal -0.710799 -1.16728e-16 -0.703395
    outer loop
      vertex 7.00599 3.83985e-15 19.7163
      vertex 7.3295 -6 19.3894
      vertex 7.00599 -6 19.7163
    endloop
  endfacet
  facet normal -0.549023 -1.5511e-16 -0.835807
    outer loop
      vertex 7.00599 3.83985e-15 19.7163
      vertex 7.00599 -6 19.7163
      vertex 6.62158 3.91574e-15 19.9688
    endloop
  endfacet
  facet normal -0.549023 -1.5511e-16 -0.835807
    outer loop
      vertex 6.62158 3.91574e-15 19.9688
      vertex 7.00599 -6 19.7163
      vertex 6.62158 -6 19.9688
    endloop
  endfacet
  facet normal -0.363251 -1.86713e-16 -0.931691
    outer loop
      vertex 6.62158 3.91574e-15 19.9688
      vertex 6.62158 -6 19.9688
      vertex 6.19307 3.97577e-15 20.1359
    endloop
  endfacet
  facet normal -0.363251 -1.86713e-16 -0.931691
    outer loop
      vertex 6.19307 3.97577e-15 20.1359
      vertex 6.62158 -6 19.9688
      vertex 6.19307 -6 20.1359
    endloop
  endfacet
  facet normal -0.161603 -2.10155e-16 -0.986856
    outer loop
      vertex 6.19307 3.97577e-15 20.1359
      vertex 6.19307 -6 20.1359
      vertex 5.73919 4.0173e-15 20.2102
    endloop
  endfacet
  facet normal -0.161603 -2.10155e-16 -0.986856
    outer loop
      vertex 5.73919 4.0173e-15 20.2102
      vertex 6.19307 -6 20.1359
      vertex 5.73919 -6 20.2102
    endloop
  endfacet
  facet normal 0.0471058 -2.24413e-16 -0.99889
    outer loop
      vertex 5.73919 4.0173e-15 20.2102
      vertex 5.73919 -6 20.2102
      vertex 5.27978 4.03854e-15 20.1885
    endloop
  endfacet
  facet normal 0.0471058 -2.24413e-16 -0.99889
    outer loop
      vertex 5.27978 4.03854e-15 20.1885
      vertex 5.73919 -6 20.2102
      vertex 5.27978 -6 20.1885
    endloop
  endfacet
  facet normal 0.253758 -2.28863e-16 -0.967268
    outer loop
      vertex 5.27978 4.03854e-15 20.1885
      vertex 5.27978 -6 20.1885
      vertex 4.83491 4.03854e-15 20.0718
    endloop
  endfacet
  facet normal 0.253758 -2.28863e-16 -0.967268
    outer loop
      vertex 4.83491 4.03854e-15 20.0718
      vertex 5.27978 -6 20.1885
      vertex 4.83491 -6 20.0718
    endloop
  endfacet
  facet normal 0.44932 -2.2331e-16 -0.893371
    outer loop
      vertex 4.83491 4.03854e-15 20.0718
      vertex 4.83491 -6 20.0718
      vertex 4.42402 4.0173e-15 19.8652
    endloop
  endfacet
  facet normal 0.44932 -2.2331e-16 -0.893371
    outer loop
      vertex 4.42402 4.0173e-15 19.8652
      vertex 4.83491 -6 20.0718
      vertex 4.42402 -6 19.8652
    endloop
  endfacet
  facet normal 0.625242 -2.07998e-16 -0.780431
    outer loop
      vertex 4.42402 4.0173e-15 19.8652
      vertex 4.42402 -6 19.8652
      vertex 4.06508 3.97577e-15 19.5776
    endloop
  endfacet
  facet normal 0.625242 -2.07998e-16 -0.780431
    outer loop
      vertex 4.06508 3.97577e-15 19.5776
      vertex 4.42402 -6 19.8652
      vertex 4.06508 -6 19.5776
    endloop
  endfacet
  facet normal 0.77384 -1.83596e-16 -0.633381
    outer loop
      vertex 3.77377 3.91574e-15 19.2217
      vertex 4.06508 3.97577e-15 19.5776
      vertex 4.06508 -6 19.5776
    endloop
  endfacet
  facet normal 0.77384 -1.83596e-16 -0.633381
    outer loop
      vertex 3.77377 -6 19.2217
      vertex 3.77377 3.91574e-15 19.2217
      vertex 4.06508 -6 19.5776
    endloop
  endfacet
  facet normal 0.888617 -1.51169e-16 -0.45865
    outer loop
      vertex 3.56283 3.83985e-15 18.813
      vertex 3.77377 3.91574e-15 19.2217
      vertex 3.77377 -6 19.2217
    endloop
  endfacet
  facet normal 0.888617 -1.51169e-16 -0.45865
    outer loop
      vertex 3.56283 -6 18.813
      vertex 3.56283 3.83985e-15 18.813
      vertex 3.77377 -6 19.2217
    endloop
  endfacet
  facet normal 0.964557 -1.12135e-16 -0.263874
    outer loop
      vertex 3.44147 3.7514e-15 18.3694
      vertex 3.56283 3.83985e-15 18.813
      vertex 3.56283 -6 18.813
    endloop
  endfacet
  facet normal 0.964557 -1.12135e-16 -0.263874
    outer loop
      vertex 3.44147 -6 18.3694
      vertex 3.44147 3.7514e-15 18.3694
      vertex 3.56283 -6 18.813
    endloop
  endfacet
  facet normal 0 0 -1
    outer loop
      vertex 10.23 33.1879 0
      vertex -1.00228 40 0
      vertex 18.9977 40 0
    endloop
  endfacet
  facet normal 0 0 -1
    outer loop
      vertex -1.00228 -6 0
      vertex -1.00228 40 0
      vertex 7.8 11 0
    endloop
  endfacet
  facet normal 0 0 -1
    outer loop
      vertex 10.23 13.1879 0
      vertex -1.00228 40 0
      vertex 10.6798 13.0923 0
    endloop
  endfacet
  facet normal 0 0 -1
    outer loop
      vertex -1.00228 -6 0
      vertex 7.8 11 0
      vertex 7.84807 10.5426 0
    endloop
  endfacet
  facet normal 0 0 -1
    outer loop
      vertex -1.00228 -6 0
      vertex 7.84807 10.5426 0
      vertex 7.9902 10.1052 0
    endloop
  endfacet
  facet normal 0 0 -1
    outer loop
      vertex -1.00228 -6 0
      vertex 7.9902 10.1052 0
      vertex 8.22016 9.70687 0
    endloop
  endfacet
  facet normal 0 0 -1
    outer loop
      vertex -1.00228 -6 0
      vertex 8.22016 9.70687 0
      vertex 18.9977 -6 0
    endloop
  endfacet
  facet normal 0 0 -1
    outer loop
      vertex 8.9 9.09474 0
      vertex 18.9977 -6 0
      vertex 8.52791 9.36508 0
    endloop
  endfacet
  facet normal 0 0 -1
    outer loop
      vertex 9.32016 8.90768 0
      vertex 18.9977 -6 0
      vertex 8.9 9.09474 0
    endloop
  endfacet
  facet normal 0 0 -1
    outer loop
      vertex 8.22016 29.7069 0
      vertex 12.0098 11.8948 0
      vertex 7.9902 30.1052 0
    endloop
  endfacet
  facet normal 0 0 -1
    outer loop
      vertex 12.0098 10.1052 0
      vertex 18.9977 -6 0
      vertex 11.7798 9.70687 0
    endloop
  endfacet
  facet normal 0 0 -1
    outer loop
      vertex 7.9902 11.8948 0
      vertex -1.00228 40 0
      vertex 8.22016 12.2931 0
    endloop
  endfacet
  facet normal 0 0 -1
    outer loop
      vertex 9.32016 8.90768 0
      vertex 9.77004 8.81205 0
      vertex 18.9977 -6 0
    endloop
  endfacet
  facet normal 0 0 -1
    outer loop
      vertex 8.22016 12.2931 0
      vertex -1.00228 40 0
      vertex 8.52791 12.6349 0
    endloop
  endfacet
  facet normal 0 0 -1
    outer loop
      vertex 9.77004 8.81205 0
      vertex 10.23 8.81205 0
      vertex 18.9977 -6 0
    endloop
  endfacet
  facet normal 0 0 -1
    outer loop
      vertex 8.52791 12.6349 0
      vertex -1.00228 40 0
      vertex 8.9 12.9053 0
    endloop
  endfacet
  facet normal 0 0 -1
    outer loop
      vertex 10.23 8.81205 0
      vertex 10.6798 8.90768 0
      vertex 18.9977 -6 0
    endloop
  endfacet
  facet normal 0 0 -1
    outer loop
      vertex 8.9 12.9053 0
      vertex -1.00228 40 0
      vertex 9.32016 13.0923 0
    endloop
  endfacet
  facet normal 0 0 -1
    outer loop
      vertex 10.6798 8.90768 0
      vertex 11.1 9.09474 0
      vertex 18.9977 -6 0
    endloop
  endfacet
  facet normal 0 0 -1
    outer loop
      vertex 9.32016 13.0923 0
      vertex -1.00228 40 0
      vertex 9.77004 13.1879 0
    endloop
  endfacet
  facet normal 0 0 -1
    outer loop
      vertex 11.1 9.09474 0
      vertex 11.4721 9.36508 0
      vertex 18.9977 -6 0
    endloop
  endfacet
  facet normal 0 0 -1
    outer loop
      vertex 9.77004 13.1879 0
      vertex -1.00228 40 0
      vertex 10.23 13.1879 0
    endloop
  endfacet
  facet normal 0 0 -1
    outer loop
      vertex 11.4721 9.36508 0
      vertex 11.7798 9.70687 0
      vertex 18.9977 -6 0
    endloop
  endfacet
  facet normal 0 0 -1
    outer loop
      vertex 12.2 11 0
      vertex 18.9977 40 0
      vertex 12.1519 10.5426 0
    endloop
  endfacet
  facet normal 0 0 -1
    outer loop
      vertex 18.9977 -6 0
      vertex 12.0098 10.1052 0
      vertex 12.1519 10.5426 0
    endloop
  endfacet
  facet normal 0 0 -1
    outer loop
      vertex 18.9977 -6 0
      vertex 12.1519 10.5426 0
      vertex 18.9977 40 0
    endloop
  endfacet
  facet normal 0 0 -1
    outer loop
      vertex 10.6798 13.0923 0
      vertex -1.00228 40 0
      vertex 11.1 12.9053 0
    endloop
  endfacet
  facet normal 0 0 -1
    outer loop
      vertex 11.4721 12.6349 0
      vertex -1.00228 40 0
      vertex 11.7798 12.2931 0
    endloop
  endfacet
  facet normal 0 0 -1
    outer loop
      vertex 11.1 12.9053 0
      vertex -1.00228 40 0
      vertex 11.4721 12.6349 0
    endloop
  endfacet
  facet normal 0 0 -1
    outer loop
      vertex 12.2 11 0
      vertex 12.1519 11.4574 0
      vertex 18.9977 40 0
    endloop
  endfacet
  facet normal 0 0 -1
    outer loop
      vertex 11.7798 12.2931 0
      vertex -1.00228 40 0
      vertex 12.0098 11.8948 0
    endloop
  endfacet
  facet normal 0 0 -1
    outer loop
      vertex 12.1519 11.4574 0
      vertex 12.0098 11.8948 0
      vertex 18.9977 40 0
    endloop
  endfacet
  facet normal 0 0 -1
    outer loop
      vertex 7.84807 11.4574 0
      vertex -1.00228 40 0
      vertex 7.9902 11.8948 0
    endloop
  endfacet
  facet normal 0 0 -1
    outer loop
      vertex 7.8 11 0
      vertex -1.00228 40 0
      vertex 7.84807 11.4574 0
    endloop
  endfacet
  facet normal 0 0 -1
    outer loop
      vertex 7.84807 30.5426 0
      vertex -1.00228 40 0
      vertex 7.8 31 0
    endloop
  endfacet
  facet normal 0 0 -1
    outer loop
      vertex 12.0098 11.8948 0
      vertex -1.00228 40 0
      vertex 7.84807 30.5426 0
    endloop
  endfacet
  facet normal 0 0 -1
    outer loop
      vertex 12.0098 11.8948 0
      vertex 7.84807 30.5426 0
      vertex 7.9902 30.1052 0
    endloop
  endfacet
  facet normal 0 0 -1
    outer loop
      vertex 12.1519 30.5426 0
      vertex 18.9977 40 0
      vertex 12.0098 30.1052 0
    endloop
  endfacet
  facet normal 0 0 -1
    outer loop
      vertex 12.0098 11.8948 0
      vertex 8.22016 29.7069 0
      vertex 8.52791 29.3651 0
    endloop
  endfacet
  facet normal 0 0 -1
    outer loop
      vertex 12.0098 11.8948 0
      vertex 8.52791 29.3651 0
      vertex 8.9 29.0947 0
    endloop
  endfacet
  facet normal 0 0 -1
    outer loop
      vertex 12.0098 11.8948 0
      vertex 8.9 29.0947 0
      vertex 9.32016 28.9077 0
    endloop
  endfacet
  facet normal 0 0 -1
    outer loop
      vertex 12.0098 11.8948 0
      vertex 9.32016 28.9077 0
      vertex 9.77004 28.8121 0
    endloop
  endfacet
  facet normal 0 0 -1
    outer loop
      vertex 12.0098 11.8948 0
      vertex 9.77004 28.8121 0
      vertex 10.23 28.8121 0
    endloop
  endfacet
  facet normal 0 0 -1
    outer loop
      vertex 12.0098 11.8948 0
      vertex 10.23 28.8121 0
      vertex 10.6798 28.9077 0
    endloop
  endfacet
  facet normal 0 0 -1
    outer loop
      vertex 12.0098 11.8948 0
      vertex 10.6798 28.9077 0
      vertex 11.1 29.0947 0
    endloop
  endfacet
  facet normal 0 0 -1
    outer loop
      vertex 12.0098 11.8948 0
      vertex 11.1 29.0947 0
      vertex 11.4721 29.3651 0
    endloop
  endfacet
  facet normal 0 0 -1
    outer loop
      vertex 12.0098 11.8948 0
      vertex 11.4721 29.3651 0
      vertex 11.7798 29.7069 0
    endloop
  endfacet
  facet normal 0 0 -1
    outer loop
      vertex 12.0098 11.8948 0
      vertex 11.7798 29.7069 0
      vertex 18.9977 40 0
    endloop
  endfacet
  facet normal 0 0 -1
    outer loop
      vertex 11.7798 29.7069 0
      vertex 12.0098 30.1052 0
      vertex 18.9977 40 0
    endloop
  endfacet
  facet normal 0 0 -1
    outer loop
      vertex 12.2 31 0
      vertex 18.9977 40 0
      vertex 12.1519 30.5426 0
    endloop
  endfacet
  facet normal 0 0 -1
    outer loop
      vertex 12.1519 31.4574 0
      vertex 18.9977 40 0
      vertex 12.2 31 0
    endloop
  endfacet
  facet normal 0 0 -1
    outer loop
      vertex 12.0098 31.8948 0
      vertex 18.9977 40 0
      vertex 12.1519 31.4574 0
    endloop
  endfacet
  facet normal 0 0 -1
    outer loop
      vertex 11.7798 32.2931 0
      vertex 18.9977 40 0
      vertex 12.0098 31.8948 0
    endloop
  endfacet
  facet normal 0 0 -1
    outer loop
      vertex 11.4721 32.6349 0
      vertex 18.9977 40 0
      vertex 11.7798 32.2931 0
    endloop
  endfacet
  facet normal 0 0 -1
    outer loop
      vertex 11.1 32.9053 0
      vertex 18.9977 40 0
      vertex 11.4721 32.6349 0
    endloop
  endfacet
  facet normal 0 0 -1
    outer loop
      vertex 10.23 33.1879 0
      vertex 18.9977 40 0
      vertex 10.6798 33.0923 0
    endloop
  endfacet
  facet normal 0 0 -1
    outer loop
      vertex 11.1 32.9053 0
      vertex 10.6798 33.0923 0
      vertex 18.9977 40 0
    endloop
  endfacet
  facet normal 0 0 -1
    outer loop
      vertex 9.77004 33.1879 0
      vertex -1.00228 40 0
      vertex 10.23 33.1879 0
    endloop
  endfacet
  facet normal 0 0 -1
    outer loop
      vertex 9.32016 33.0923 0
      vertex -1.00228 40 0
      vertex 9.77004 33.1879 0
    endloop
  endfacet
  facet normal 0 0 -1
    outer loop
      vertex 8.9 32.9053 0
      vertex -1.00228 40 0
      vertex 9.32016 33.0923 0
    endloop
  endfacet
  facet normal 0 0 -1
    outer loop
      vertex 8.52791 32.6349 0
      vertex -1.00228 40 0
      vertex 8.9 32.9053 0
    endloop
  endfacet
  facet normal 0 0 -1
    outer loop
      vertex 8.22016 32.2931 0
      vertex -1.00228 40 0
      vertex 8.52791 32.6349 0
    endloop
  endfacet
  facet normal 0 0 -1
    outer loop
      vertex 7.9902 31.8948 0
      vertex -1.00228 40 0
      vertex 8.22016 32.2931 0
    endloop
  endfacet
  facet normal 0 0 -1
    outer loop
      vertex 7.84807 31.4574 0
      vertex -1.00228 40 0
      vertex 7.9902 31.8948 0
    endloop
  endfacet
  facet normal 0 0 -1
    outer loop
      vertex 7.8 31 0
      vertex -1.00228 40 0
      vertex 7.84807 31.4574 0
    endloop
  endfacet
  facet normal 0 0 -1
    outer loop
      vertex 8.52791 9.36508 0
      vertex 18.9977 -6 0
      vertex 8.22016 9.70687 0
    endloop
  endfacet
  facet normal 0 1 0
    outer loop
      vertex -1.00228 40 0
      vertex -1.00228 40 6
      vertex 18.9977 40 0
    endloop
  endfacet
  facet normal 0 1 0
    outer loop
      vertex 18.9977 40 0
      vertex -1.00228 40 6
      vertex 18.9977 40 6
    endloop
  endfacet
  facet normal 0 0 1
    outer loop
      vertex 9.32016 8.90768 6
      vertex -1.00228 1.34513e-15 6
      vertex 18.9977 2.18222e-16 6
    endloop
  endfacet
  facet normal 0 0 1
    outer loop
      vertex 7.9902 30.1052 6
      vertex -1.00228 40 6
      vertex 18.9977 2.18222e-16 6
    endloop
  endfacet
  facet normal 0 0 1
    outer loop
      vertex 8.9 32.9053 6
      vertex 9.32016 33.0923 6
      vertex 18.9977 40 6
    endloop
  endfacet
  facet normal 0 0 1
    outer loop
      vertex -1.00228 40 6
      vertex -1.00228 1.34513e-15 6
      vertex 7.84807 10.5426 6
    endloop
  endfacet
  facet normal 0 0 1
    outer loop
      vertex 9.77004 8.81205 6
      vertex 9.32016 8.90768 6
      vertex 18.9977 2.18222e-16 6
    endloop
  endfacet
  facet normal 0 0 1
    outer loop
      vertex -1.00228 40 6
      vertex 7.84807 10.5426 6
      vertex 7.8 11 6
    endloop
  endfacet
  facet normal 0 0 1
    outer loop
      vertex 10.23 8.81205 6
      vertex 9.77004 8.81205 6
      vertex 18.9977 2.18222e-16 6
    endloop
  endfacet
  facet normal 0 0 1
    outer loop
      vertex -1.00228 40 6
      vertex 7.8 11 6
      vertex 7.84807 11.4574 6
    endloop
  endfacet
  facet normal 0 0 1
    outer loop
      vertex 10.6798 8.90768 6
      vertex 10.23 8.81205 6
      vertex 18.9977 2.18222e-16 6
    endloop
  endfacet
  facet normal 0 0 1
    outer loop
      vertex -1.00228 40 6
      vertex 7.84807 11.4574 6
      vertex 7.9902 11.8948 6
    endloop
  endfacet
  facet normal 0 0 1
    outer loop
      vertex 9.32016 33.0923 6
      vertex 9.77004 33.1879 6
      vertex 18.9977 40 6
    endloop
  endfacet
  facet normal 0 0 1
    outer loop
      vertex -1.00228 40 6
      vertex 7.9902 11.8948 6
      vertex 8.22016 12.2931 6
    endloop
  endfacet
  facet normal 0 0 1
    outer loop
      vertex -1.00228 40 6
      vertex 8.22016 12.2931 6
      vertex 8.52791 12.6349 6
    endloop
  endfacet
  facet normal 0 0 1
    outer loop
      vertex 11.4721 9.36508 6
      vertex 11.1 9.09474 6
      vertex 18.9977 2.18222e-16 6
    endloop
  endfacet
  facet normal 0 0 1
    outer loop
      vertex -1.00228 40 6
      vertex 8.52791 12.6349 6
      vertex 8.9 12.9053 6
    endloop
  endfacet
  facet normal 0 0 1
    outer loop
      vertex 11.7798 9.70687 6
      vertex 11.4721 9.36508 6
      vertex 18.9977 2.18222e-16 6
    endloop
  endfacet
  facet normal 0 0 1
    outer loop
      vertex -1.00228 40 6
      vertex 8.9 12.9053 6
      vertex 9.32016 13.0923 6
    endloop
  endfacet
  facet normal 0 0 1
    outer loop
      vertex 11.1 9.09474 6
      vertex 10.6798 8.90768 6
      vertex 18.9977 2.18222e-16 6
    endloop
  endfacet
  facet normal 0 0 1
    outer loop
      vertex -1.00228 40 6
      vertex 9.32016 13.0923 6
      vertex 9.77004 13.1879 6
    endloop
  endfacet
  facet normal 0 0 1
    outer loop
      vertex -1.00228 40 6
      vertex 9.77004 13.1879 6
      vertex 10.23 13.1879 6
    endloop
  endfacet
  facet normal 0 0 1
    outer loop
      vertex 12.1519 10.5426 6
      vertex 12.0098 10.1052 6
      vertex 18.9977 2.18222e-16 6
    endloop
  endfacet
  facet normal 0 0 1
    outer loop
      vertex -1.00228 40 6
      vertex 10.23 13.1879 6
      vertex 10.6798 13.0923 6
    endloop
  endfacet
  facet normal 0 0 1
    outer loop
      vertex 12.2 11 6
      vertex 12.1519 10.5426 6
      vertex 18.9977 2.18222e-16 6
    endloop
  endfacet
  facet normal 0 0 1
    outer loop
      vertex -1.00228 40 6
      vertex 10.6798 13.0923 6
      vertex 11.1 12.9053 6
    endloop
  endfacet
  facet normal 0 0 1
    outer loop
      vertex 12.1519 11.4574 6
      vertex 12.2 11 6
      vertex 18.9977 2.18222e-16 6
    endloop
  endfacet
  facet normal 0 0 1
    outer loop
      vertex -1.00228 40 6
      vertex 11.1 12.9053 6
      vertex 11.4721 12.6349 6
    endloop
  endfacet
  facet normal 0 0 1
    outer loop
      vertex -1.00228 40 6
      vertex 11.7798 12.2931 6
      vertex 18.9977 2.18222e-16 6
    endloop
  endfacet
  facet normal 0 0 1
    outer loop
      vertex -1.00228 40 6
      vertex 11.4721 12.6349 6
      vertex 11.7798 12.2931 6
    endloop
  endfacet
  facet normal 0 0 1
    outer loop
      vertex 11.7798 12.2931 6
      vertex 12.0098 11.8948 6
      vertex 18.9977 2.18222e-16 6
    endloop
  endfacet
  facet normal 0 0 1
    outer loop
      vertex 8.9 9.09474 6
      vertex -1.00228 1.34513e-15 6
      vertex 9.32016 8.90768 6
    endloop
  endfacet
  facet normal 0 0 1
    outer loop
      vertex 8.52791 9.36508 6
      vertex -1.00228 1.34513e-15 6
      vertex 8.9 9.09474 6
    endloop
  endfacet
  facet normal 0 0 1
    outer loop
      vertex 8.22016 9.70687 6
      vertex -1.00228 1.34513e-15 6
      vertex 8.52791 9.36508 6
    endloop
  endfacet
  facet normal 0 0 1
    outer loop
      vertex 7.9902 10.1052 6
      vertex -1.00228 1.34513e-15 6
      vertex 8.22016 9.70687 6
    endloop
  endfacet
  facet normal 0 0 1
    outer loop
      vertex 7.84807 10.5426 6
      vertex -1.00228 1.34513e-15 6
      vertex 7.9902 10.1052 6
    endloop
  endfacet
  facet normal 0 0 1
    outer loop
      vertex 7.8 31 6
      vertex -1.00228 40 6
      vertex 7.84807 30.5426 6
    endloop
  endfacet
  facet normal 0 0 1
    outer loop
      vertex 7.84807 31.4574 6
      vertex -1.00228 40 6
      vertex 7.8 31 6
    endloop
  endfacet
  facet normal 0 0 1
    outer loop
      vertex 7.9902 31.8948 6
      vertex -1.00228 40 6
      vertex 7.84807 31.4574 6
    endloop
  endfacet
  facet normal 0 0 1
    outer loop
      vertex 8.22016 32.2931 6
      vertex -1.00228 40 6
      vertex 7.9902 31.8948 6
    endloop
  endfacet
  facet normal 0 0 1
    outer loop
      vertex 9.77004 33.1879 6
      vertex 10.23 33.1879 6
      vertex 18.9977 40 6
    endloop
  endfacet
  facet normal 0 0 1
    outer loop
      vertex 8.52791 32.6349 6
      vertex -1.00228 40 6
      vertex 8.22016 32.2931 6
    endloop
  endfacet
  facet normal 0 0 1
    outer loop
      vertex 8.9 32.9053 6
      vertex -1.00228 40 6
      vertex 8.52791 32.6349 6
    endloop
  endfacet
  facet normal 0 0 1
    outer loop
      vertex 18.9977 40 6
      vertex -1.00228 40 6
      vertex 8.9 32.9053 6
    endloop
  endfacet
  facet normal 0 0 1
    outer loop
      vertex 10.23 33.1879 6
      vertex 10.6798 33.0923 6
      vertex 18.9977 40 6
    endloop
  endfacet
  facet normal 0 0 1
    outer loop
      vertex 10.6798 33.0923 6
      vertex 11.1 32.9053 6
      vertex 18.9977 40 6
    endloop
  endfacet
  facet normal 0 0 1
    outer loop
      vertex 12.1519 31.4574 6
      vertex 12.2 31 6
      vertex 18.9977 2.18222e-16 6
    endloop
  endfacet
  facet normal 0 0 1
    outer loop
      vertex 8.22016 29.7069 6
      vertex 7.9902 30.1052 6
      vertex 18.9977 2.18222e-16 6
    endloop
  endfacet
  facet normal 0 0 1
    outer loop
      vertex 12.0098 30.1052 6
      vertex 11.7798 29.7069 6
      vertex 18.9977 2.18222e-16 6
    endloop
  endfacet
  facet normal 0 0 1
    outer loop
      vertex 18.9977 40 6
      vertex 11.1 32.9053 6
      vertex 11.4721 32.6349 6
    endloop
  endfacet
  facet normal 0 0 1
    outer loop
      vertex 12.1519 30.5426 6
      vertex 12.0098 30.1052 6
      vertex 18.9977 2.18222e-16 6
    endloop
  endfacet
  facet normal 0 0 1
    outer loop
      vertex 18.9977 40 6
      vertex 11.4721 32.6349 6
      vertex 11.7798 32.2931 6
    endloop
  endfacet
  facet normal 0 0 1
    outer loop
      vertex 12.2 31 6
      vertex 12.1519 30.5426 6
      vertex 18.9977 2.18222e-16 6
    endloop
  endfacet
  facet normal 0 0 1
    outer loop
      vertex 18.9977 40 6
      vertex 11.7798 32.2931 6
      vertex 12.0098 31.8948 6
    endloop
  endfacet
  facet normal 0 0 1
    outer loop
      vertex 18.9977 40 6
      vertex 12.1519 31.4574 6
      vertex 18.9977 2.18222e-16 6
    endloop
  endfacet
  facet normal 0 0 1
    outer loop
      vertex 18.9977 40 6
      vertex 12.0098 31.8948 6
      vertex 12.1519 31.4574 6
    endloop
  endfacet
  facet normal 0 0 1
    outer loop
      vertex 11.7798 29.7069 6
      vertex 11.4721 29.3651 6
      vertex 18.9977 2.18222e-16 6
    endloop
  endfacet
  facet normal 0 0 1
    outer loop
      vertex 11.4721 29.3651 6
      vertex 11.1 29.0947 6
      vertex 18.9977 2.18222e-16 6
    endloop
  endfacet
  facet normal 0 0 1
    outer loop
      vertex 11.1 29.0947 6
      vertex 10.6798 28.9077 6
      vertex 18.9977 2.18222e-16 6
    endloop
  endfacet
  facet normal 0 0 1
    outer loop
      vertex 10.6798 28.9077 6
      vertex 10.23 28.8121 6
      vertex 18.9977 2.18222e-16 6
    endloop
  endfacet
  facet normal 0 0 1
    outer loop
      vertex 10.23 28.8121 6
      vertex 9.77004 28.8121 6
      vertex 18.9977 2.18222e-16 6
    endloop
  endfacet
  facet normal 0 0 1
    outer loop
      vertex 9.77004 28.8121 6
      vertex 9.32016 28.9077 6
      vertex 18.9977 2.18222e-16 6
    endloop
  endfacet
  facet normal 0 0 1
    outer loop
      vertex 9.32016 28.9077 6
      vertex 8.9 29.0947 6
      vertex 18.9977 2.18222e-16 6
    endloop
  endfacet
  facet normal 0 0 1
    outer loop
      vertex 8.9 29.0947 6
      vertex 8.52791 29.3651 6
      vertex 18.9977 2.18222e-16 6
    endloop
  endfacet
  facet normal 0 0 1
    outer loop
      vertex 8.52791 29.3651 6
      vertex 8.22016 29.7069 6
      vertex 18.9977 2.18222e-16 6
    endloop
  endfacet
  facet normal 0 0 1
    outer loop
      vertex 7.84807 30.5426 6
      vertex -1.00228 40 6
      vertex 7.9902 30.1052 6
    endloop
  endfacet
  facet normal 0 0 1
    outer loop
      vertex 12.0098 11.8948 6
      vertex 12.1519 11.4574 6
      vertex 18.9977 2.18222e-16 6
    endloop
  endfacet
  facet normal 0 0 1
    outer loop
      vertex 12.0098 10.1052 6
      vertex 11.7798 9.70687 6
      vertex 18.9977 2.18222e-16 6
    endloop
  endfacet
  facet normal 0.994522 -0.104528 0
    outer loop
      vertex 7.84807 11.4574 0
      vertex 7.84807 11.4574 6
      vertex 7.8 11 6
    endloop
  endfacet
  facet normal 0.994522 -0.104528 0
    outer loop
      vertex 7.8 11 0
      vertex 7.84807 11.4574 0
      vertex 7.8 11 6
    endloop
  endfacet
  facet normal 0.994522 0.104528 0
    outer loop
      vertex 7.8 11 6
      vertex 7.84807 10.5426 6
      vertex 7.84807 10.5426 0
    endloop
  endfacet
  facet normal 0.994522 0.104528 0
    outer loop
      vertex 7.8 11 0
      vertex 7.8 11 6
      vertex 7.84807 10.5426 0
    endloop
  endfacet
  facet normal 0.951056 -0.309017 0
    outer loop
      vertex 7.9902 11.8948 0
      vertex 7.9902 11.8948 6
      vertex 7.84807 11.4574 6
    endloop
  endfacet
  facet normal 0.951056 -0.309017 0
    outer loop
      vertex 7.84807 11.4574 0
      vertex 7.9902 11.8948 0
      vertex 7.84807 11.4574 6
    endloop
  endfacet
  facet normal 0.866025 -0.500001 0
    outer loop
      vertex 8.22016 12.2931 0
      vertex 8.22016 12.2931 6
      vertex 7.9902 11.8948 6
    endloop
  endfacet
  facet normal 0.866025 -0.500001 0
    outer loop
      vertex 7.9902 11.8948 0
      vertex 8.22016 12.2931 0
      vertex 7.9902 11.8948 6
    endloop
  endfacet
  facet normal 0.743145 -0.669131 0
    outer loop
      vertex 8.52791 12.6349 0
      vertex 8.52791 12.6349 6
      vertex 8.22016 12.2931 6
    endloop
  endfacet
  facet normal 0.743145 -0.669131 0
    outer loop
      vertex 8.22016 12.2931 0
      vertex 8.52791 12.6349 0
      vertex 8.22016 12.2931 6
    endloop
  endfacet
  facet normal 0.587785 -0.809017 0
    outer loop
      vertex 8.9 12.9053 0
      vertex 8.9 12.9053 6
      vertex 8.52791 12.6349 6
    endloop
  endfacet
  facet normal 0.587785 -0.809017 0
    outer loop
      vertex 8.52791 12.6349 0
      vertex 8.9 12.9053 0
      vertex 8.52791 12.6349 6
    endloop
  endfacet
  facet normal 0.406736 -0.913546 0
    outer loop
      vertex 9.32016 13.0923 0
      vertex 9.32016 13.0923 6
      vertex 8.9 12.9053 6
    endloop
  endfacet
  facet normal 0.406736 -0.913546 0
    outer loop
      vertex 8.9 12.9053 0
      vertex 9.32016 13.0923 0
      vertex 8.9 12.9053 6
    endloop
  endfacet
  facet normal 0.207912 -0.978147 0
    outer loop
      vertex 9.77004 13.1879 0
      vertex 9.77004 13.1879 6
      vertex 9.32016 13.0923 6
    endloop
  endfacet
  facet normal 0.207912 -0.978147 0
    outer loop
      vertex 9.32016 13.0923 0
      vertex 9.77004 13.1879 0
      vertex 9.32016 13.0923 6
    endloop
  endfacet
  facet normal 0 -1 0
    outer loop
      vertex 10.23 13.1879 0
      vertex 10.23 13.1879 6
      vertex 9.77004 13.1879 6
    endloop
  endfacet
  facet normal 0 -1 0
    outer loop
      vertex 9.77004 13.1879 0
      vertex 10.23 13.1879 0
      vertex 9.77004 13.1879 6
    endloop
  endfacet
  facet normal -0.207912 -0.978147 0
    outer loop
      vertex 10.6798 13.0923 0
      vertex 10.6798 13.0923 6
      vertex 10.23 13.1879 6
    endloop
  endfacet
  facet normal -0.207912 -0.978147 0
    outer loop
      vertex 10.23 13.1879 0
      vertex 10.6798 13.0923 0
      vertex 10.23 13.1879 6
    endloop
  endfacet
  facet normal -0.406736 -0.913546 0
    outer loop
      vertex 11.1 12.9053 0
      vertex 11.1 12.9053 6
      vertex 10.6798 13.0923 6
    endloop
  endfacet
  facet normal -0.406736 -0.913546 0
    outer loop
      vertex 10.6798 13.0923 0
      vertex 11.1 12.9053 0
      vertex 10.6798 13.0923 6
    endloop
  endfacet
  facet normal -0.587785 -0.809017 0
    outer loop
      vertex 11.4721 12.6349 0
      vertex 11.4721 12.6349 6
      vertex 11.1 12.9053 6
    endloop
  endfacet
  facet normal -0.587785 -0.809017 0
    outer loop
      vertex 11.1 12.9053 0
      vertex 11.4721 12.6349 0
      vertex 11.1 12.9053 6
    endloop
  endfacet
  facet normal -0.743145 -0.669131 0
    outer loop
      vertex 11.7798 12.2931 6
      vertex 11.4721 12.6349 6
      vertex 11.7798 12.2931 0
    endloop
  endfacet
  facet normal -0.743145 -0.669131 0
    outer loop
      vertex 11.7798 12.2931 0
      vertex 11.4721 12.6349 6
      vertex 11.4721 12.6349 0
    endloop
  endfacet
  facet normal -0.866025 -0.500001 0
    outer loop
      vertex 12.0098 11.8948 6
      vertex 11.7798 12.2931 6
      vertex 12.0098 11.8948 0
    endloop
  endfacet
  facet normal -0.866025 -0.500001 0
    outer loop
      vertex 12.0098 11.8948 0
      vertex 11.7798 12.2931 6
      vertex 11.7798 12.2931 0
    endloop
  endfacet
  facet normal -0.951056 -0.309017 0
    outer loop
      vertex 12.1519 11.4574 6
      vertex 12.0098 11.8948 6
      vertex 12.1519 11.4574 0
    endloop
  endfacet
  facet normal -0.951056 -0.309017 0
    outer loop
      vertex 12.1519 11.4574 0
      vertex 12.0098 11.8948 6
      vertex 12.0098 11.8948 0
    endloop
  endfacet
  facet normal -0.994522 -0.104528 0
    outer loop
      vertex 12.2 11 6
      vertex 12.1519 11.4574 6
      vertex 12.2 11 0
    endloop
  endfacet
  facet normal -0.994522 -0.104528 0
    outer loop
      vertex 12.2 11 0
      vertex 12.1519 11.4574 6
      vertex 12.1519 11.4574 0
    endloop
  endfacet
  facet normal -0.994522 0.104528 0
    outer loop
      vertex 12.2 11 6
      vertex 12.2 11 0
      vertex 12.1519 10.5426 6
    endloop
  endfacet
  facet normal -0.994522 0.104528 0
    outer loop
      vertex 12.1519 10.5426 6
      vertex 12.2 11 0
      vertex 12.1519 10.5426 0
    endloop
  endfacet
  facet normal -0.951056 0.309017 0
    outer loop
      vertex 12.1519 10.5426 6
      vertex 12.1519 10.5426 0
      vertex 12.0098 10.1052 6
    endloop
  endfacet
  facet normal -0.951056 0.309017 0
    outer loop
      vertex 12.0098 10.1052 6
      vertex 12.1519 10.5426 0
      vertex 12.0098 10.1052 0
    endloop
  endfacet
  facet normal -0.866025 0.500001 0
    outer loop
      vertex 12.0098 10.1052 6
      vertex 12.0098 10.1052 0
      vertex 11.7798 9.70687 6
    endloop
  endfacet
  facet normal -0.866025 0.500001 0
    outer loop
      vertex 11.7798 9.70687 6
      vertex 12.0098 10.1052 0
      vertex 11.7798 9.70687 0
    endloop
  endfacet
  facet normal -0.743145 0.669131 0
    outer loop
      vertex 11.7798 9.70687 6
      vertex 11.7798 9.70687 0
      vertex 11.4721 9.36508 6
    endloop
  endfacet
  facet normal -0.743145 0.669131 0
    outer loop
      vertex 11.4721 9.36508 6
      vertex 11.7798 9.70687 0
      vertex 11.4721 9.36508 0
    endloop
  endfacet
  facet normal -0.587785 0.809017 0
    outer loop
      vertex 11.4721 9.36508 6
      vertex 11.4721 9.36508 0
      vertex 11.1 9.09474 6
    endloop
  endfacet
  facet normal -0.587785 0.809017 0
    outer loop
      vertex 11.1 9.09474 6
      vertex 11.4721 9.36508 0
      vertex 11.1 9.09474 0
    endloop
  endfacet
  facet normal -0.406736 0.913546 0
    outer loop
      vertex 11.1 9.09474 6
      vertex 11.1 9.09474 0
      vertex 10.6798 8.90768 6
    endloop
  endfacet
  facet normal -0.406736 0.913546 0
    outer loop
      vertex 10.6798 8.90768 6
      vertex 11.1 9.09474 0
      vertex 10.6798 8.90768 0
    endloop
  endfacet
  facet normal -0.207912 0.978147 0
    outer loop
      vertex 10.6798 8.90768 6
      vertex 10.6798 8.90768 0
      vertex 10.23 8.81205 6
    endloop
  endfacet
  facet normal -0.207912 0.978147 0
    outer loop
      vertex 10.23 8.81205 6
      vertex 10.6798 8.90768 0
      vertex 10.23 8.81205 0
    endloop
  endfacet
  facet normal 0 1 0
    outer loop
      vertex 10.23 8.81205 6
      vertex 10.23 8.81205 0
      vertex 9.77004 8.81205 6
    endloop
  endfacet
  facet normal 0 1 0
    outer loop
      vertex 9.77004 8.81205 6
      vertex 10.23 8.81205 0
      vertex 9.77004 8.81205 0
    endloop
  endfacet
  facet normal 0.207912 0.978147 0
    outer loop
      vertex 9.77004 8.81205 6
      vertex 9.77004 8.81205 0
      vertex 9.32016 8.90768 6
    endloop
  endfacet
  facet normal 0.207912 0.978147 0
    outer loop
      vertex 9.32016 8.90768 6
      vertex 9.77004 8.81205 0
      vertex 9.32016 8.90768 0
    endloop
  endfacet
  facet normal 0.406736 0.913546 0
    outer loop
      vertex 9.32016 8.90768 6
      vertex 9.32016 8.90768 0
      vertex 8.9 9.09474 6
    endloop
  endfacet
  facet normal 0.406736 0.913546 0
    outer loop
      vertex 8.9 9.09474 6
      vertex 9.32016 8.90768 0
      vertex 8.9 9.09474 0
    endloop
  endfacet
  facet normal 0.587785 0.809017 0
    outer loop
      vertex 8.9 9.09474 6
      vertex 8.9 9.09474 0
      vertex 8.52791 9.36508 6
    endloop
  endfacet
  facet normal 0.587785 0.809017 0
    outer loop
      vertex 8.52791 9.36508 6
      vertex 8.9 9.09474 0
      vertex 8.52791 9.36508 0
    endloop
  endfacet
  facet normal 0.743145 0.669131 0
    outer loop
      vertex 8.22016 9.70687 6
      vertex 8.52791 9.36508 6
      vertex 8.52791 9.36508 0
    endloop
  endfacet
  facet normal 0.743145 0.669131 0
    outer loop
      vertex 8.22016 9.70687 0
      vertex 8.22016 9.70687 6
      vertex 8.52791 9.36508 0
    endloop
  endfacet
  facet normal 0.866025 0.500001 0
    outer loop
      vertex 7.9902 10.1052 6
      vertex 8.22016 9.70687 6
      vertex 8.22016 9.70687 0
    endloop
  endfacet
  facet normal 0.866025 0.500001 0
    outer loop
      vertex 7.9902 10.1052 0
      vertex 7.9902 10.1052 6
      vertex 8.22016 9.70687 0
    endloop
  endfacet
  facet normal 0.951056 0.309017 0
    outer loop
      vertex 7.84807 10.5426 6
      vertex 7.9902 10.1052 6
      vertex 7.9902 10.1052 0
    endloop
  endfacet
  facet normal 0.951056 0.309017 0
    outer loop
      vertex 7.84807 10.5426 0
      vertex 7.84807 10.5426 6
      vertex 7.9902 10.1052 0
    endloop
  endfacet
  facet normal 0.994522 -0.104528 0
    outer loop
      vertex 7.84807 31.4574 0
      vertex 7.84807 31.4574 6
      vertex 7.8 31 6
    endloop
  endfacet
  facet normal 0.994522 -0.104528 0
    outer loop
      vertex 7.8 31 0
      vertex 7.84807 31.4574 0
      vertex 7.8 31 6
    endloop
  endfacet
  facet normal 0.994522 0.104528 0
    outer loop
      vertex 7.8 31 6
      vertex 7.84807 30.5426 6
      vertex 7.84807 30.5426 0
    endloop
  endfacet
  facet normal 0.994522 0.104528 0
    outer loop
      vertex 7.8 31 0
      vertex 7.8 31 6
      vertex 7.84807 30.5426 0
    endloop
  endfacet
  facet normal 0.951056 -0.309017 0
    outer loop
      vertex 7.9902 31.8948 0
      vertex 7.9902 31.8948 6
      vertex 7.84807 31.4574 6
    endloop
  endfacet
  facet normal 0.951056 -0.309017 0
    outer loop
      vertex 7.84807 31.4574 0
      vertex 7.9902 31.8948 0
      vertex 7.84807 31.4574 6
    endloop
  endfacet
  facet normal 0.866025 -0.500001 0
    outer loop
      vertex 8.22016 32.2931 0
      vertex 8.22016 32.2931 6
      vertex 7.9902 31.8948 6
    endloop
  endfacet
  facet normal 0.866025 -0.500001 0
    outer loop
      vertex 7.9902 31.8948 0
      vertex 8.22016 32.2931 0
      vertex 7.9902 31.8948 6
    endloop
  endfacet
  facet normal 0.743145 -0.669131 0
    outer loop
      vertex 8.52791 32.6349 0
      vertex 8.52791 32.6349 6
      vertex 8.22016 32.2931 6
    endloop
  endfacet
  facet normal 0.743145 -0.669131 0
    outer loop
      vertex 8.22016 32.2931 0
      vertex 8.52791 32.6349 0
      vertex 8.22016 32.2931 6
    endloop
  endfacet
  facet normal 0.587785 -0.809017 0
    outer loop
      vertex 8.9 32.9053 0
      vertex 8.9 32.9053 6
      vertex 8.52791 32.6349 6
    endloop
  endfacet
  facet normal 0.587785 -0.809017 0
    outer loop
      vertex 8.52791 32.6349 0
      vertex 8.9 32.9053 0
      vertex 8.52791 32.6349 6
    endloop
  endfacet
  facet normal 0.406736 -0.913546 0
    outer loop
      vertex 9.32016 33.0923 0
      vertex 9.32016 33.0923 6
      vertex 8.9 32.9053 6
    endloop
  endfacet
  facet normal 0.406736 -0.913546 0
    outer loop
      vertex 8.9 32.9053 0
      vertex 9.32016 33.0923 0
      vertex 8.9 32.9053 6
    endloop
  endfacet
  facet normal 0.207912 -0.978147 0
    outer loop
      vertex 9.77004 33.1879 0
      vertex 9.77004 33.1879 6
      vertex 9.32016 33.0923 6
    endloop
  endfacet
  facet normal 0.207912 -0.978147 0
    outer loop
      vertex 9.32016 33.0923 0
      vertex 9.77004 33.1879 0
      vertex 9.32016 33.0923 6
    endloop
  endfacet
  facet normal 0 -1 0
    outer loop
      vertex 10.23 33.1879 0
      vertex 10.23 33.1879 6
      vertex 9.77004 33.1879 6
    endloop
  endfacet
  facet normal 0 -1 0
    outer loop
      vertex 9.77004 33.1879 0
      vertex 10.23 33.1879 0
      vertex 9.77004 33.1879 6
    endloop
  endfacet
  facet normal -0.207912 -0.978147 0
    outer loop
      vertex 10.6798 33.0923 0
      vertex 10.6798 33.0923 6
      vertex 10.23 33.1879 6
    endloop
  endfacet
  facet normal -0.207912 -0.978147 0
    outer loop
      vertex 10.23 33.1879 0
      vertex 10.6798 33.0923 0
      vertex 10.23 33.1879 6
    endloop
  endfacet
  facet normal -0.406736 -0.913546 0
    outer loop
      vertex 11.1 32.9053 0
      vertex 11.1 32.9053 6
      vertex 10.6798 33.0923 6
    endloop
  endfacet
  facet normal -0.406736 -0.913546 0
    outer loop
      vertex 10.6798 33.0923 0
      vertex 11.1 32.9053 0
      vertex 10.6798 33.0923 6
    endloop
  endfacet
  facet normal -0.587785 -0.809017 0
    outer loop
      vertex 11.4721 32.6349 0
      vertex 11.4721 32.6349 6
      vertex 11.1 32.9053 6
    endloop
  endfacet
  facet normal -0.587785 -0.809017 0
    outer loop
      vertex 11.1 32.9053 0
      vertex 11.4721 32.6349 0
      vertex 11.1 32.9053 6
    endloop
  endfacet
  facet normal -0.743145 -0.669131 0
    outer loop
      vertex 11.7798 32.2931 6
      vertex 11.4721 32.6349 6
      vertex 11.7798 32.2931 0
    endloop
  endfacet
  facet normal -0.743145 -0.669131 0
    outer loop
      vertex 11.7798 32.2931 0
      vertex 11.4721 32.6349 6
      vertex 11.4721 32.6349 0
    endloop
  endfacet
  facet normal -0.866025 -0.500001 0
    outer loop
      vertex 12.0098 31.8948 6
      vertex 11.7798 32.2931 6
      vertex 12.0098 31.8948 0
    endloop
  endfacet
  facet normal -0.866025 -0.500001 0
    outer loop
      vertex 12.0098 31.8948 0
      vertex 11.7798 32.2931 6
      vertex 11.7798 32.2931 0
    endloop
  endfacet
  facet normal -0.951056 -0.309017 0
    outer loop
      vertex 12.1519 31.4574 6
      vertex 12.0098 31.8948 6
      vertex 12.1519 31.4574 0
    endloop
  endfacet
  facet normal -0.951056 -0.309017 0
    outer loop
      vertex 12.1519 31.4574 0
      vertex 12.0098 31.8948 6
      vertex 12.0098 31.8948 0
    endloop
  endfacet
  facet normal -0.994522 -0.104528 0
    outer loop
      vertex 12.2 31 6
      vertex 12.1519 31.4574 6
      vertex 12.2 31 0
    endloop
  endfacet
  facet normal -0.994522 -0.104528 0
    outer loop
      vertex 12.2 31 0
      vertex 12.1519 31.4574 6
      vertex 12.1519 31.4574 0
    endloop
  endfacet
  facet normal -0.994522 0.104528 0
    outer loop
      vertex 12.2 31 6
      vertex 12.2 31 0
      vertex 12.1519 30.5426 6
    endloop
  endfacet
  facet normal -0.994522 0.104528 0
    outer loop
      vertex 12.1519 30.5426 6
      vertex 12.2 31 0
      vertex 12.1519 30.5426 0
    endloop
  endfacet
  facet normal -0.951056 0.309017 0
    outer loop
      vertex 12.1519 30.5426 6
      vertex 12.1519 30.5426 0
      vertex 12.0098 30.1052 6
    endloop
  endfacet
  facet normal -0.951056 0.309017 0
    outer loop
      vertex 12.0098 30.1052 6
      vertex 12.1519 30.5426 0
      vertex 12.0098 30.1052 0
    endloop
  endfacet
  facet normal -0.866025 0.500001 0
    outer loop
      vertex 12.0098 30.1052 6
      vertex 12.0098 30.1052 0
      vertex 11.7798 29.7069 6
    endloop
  endfacet
  facet normal -0.866025 0.500001 0
    outer loop
      vertex 11.7798 29.7069 6
      vertex 12.0098 30.1052 0
      vertex 11.7798 29.7069 0
    endloop
  endfacet
  facet normal -0.743145 0.669131 0
    outer loop
      vertex 11.7798 29.7069 6
      vertex 11.7798 29.7069 0
      vertex 11.4721 29.3651 6
    endloop
  endfacet
  facet normal -0.743145 0.669131 0
    outer loop
      vertex 11.4721 29.3651 6
      vertex 11.7798 29.7069 0
      vertex 11.4721 29.3651 0
    endloop
  endfacet
  facet normal -0.587785 0.809017 0
    outer loop
      vertex 11.4721 29.3651 6
      vertex 11.4721 29.3651 0
      vertex 11.1 29.0947 6
    endloop
  endfacet
  facet normal -0.587785 0.809017 0
    outer loop
      vertex 11.1 29.0947 6
      vertex 11.4721 29.3651 0
      vertex 11.1 29.0947 0
    endloop
  endfacet
  facet normal -0.406736 0.913546 0
    outer loop
      vertex 11.1 29.0947 6
      vertex 11.1 29.0947 0
      vertex 10.6798 28.9077 6
    endloop
  endfacet
  facet normal -0.406736 0.913546 0
    outer loop
      vertex 10.6798 28.9077 6
      vertex 11.1 29.0947 0
      vertex 10.6798 28.9077 0
    endloop
  endfacet
  facet normal -0.207912 0.978147 0
    outer loop
      vertex 10.6798 28.9077 6
      vertex 10.6798 28.9077 0
      vertex 10.23 28.8121 6
    endloop
  endfacet
  facet normal -0.207912 0.978147 0
    outer loop
      vertex 10.23 28.8121 6
      vertex 10.6798 28.9077 0
      vertex 10.23 28.8121 0
    endloop
  endfacet
  facet normal 0 1 0
    outer loop
      vertex 10.23 28.8121 6
      vertex 10.23 28.8121 0
      vertex 9.77004 28.8121 6
    endloop
  endfacet
  facet normal 0 1 0
    outer loop
      vertex 9.77004 28.8121 6
      vertex 10.23 28.8121 0
      vertex 9.77004 28.8121 0
    endloop
  endfacet
  facet normal 0.207912 0.978147 0
    outer loop
      vertex 9.77004 28.8121 6
      vertex 9.77004 28.8121 0
      vertex 9.32016 28.9077 6
    endloop
  endfacet
  facet normal 0.207912 0.978147 0
    outer loop
      vertex 9.32016 28.9077 6
      vertex 9.77004 28.8121 0
      vertex 9.32016 28.9077 0
    endloop
  endfacet
  facet normal 0.406736 0.913546 0
    outer loop
      vertex 9.32016 28.9077 6
      vertex 9.32016 28.9077 0
      vertex 8.9 29.0947 6
    endloop
  endfacet
  facet normal 0.406736 0.913546 0
    outer loop
      vertex 8.9 29.0947 6
      vertex 9.32016 28.9077 0
      vertex 8.9 29.0947 0
    endloop
  endfacet
  facet normal 0.587785 0.809017 0
    outer loop
      vertex 8.9 29.0947 6
      vertex 8.9 29.0947 0
      vertex 8.52791 29.3651 6
    endloop
  endfacet
  facet normal 0.587785 0.809017 0
    outer loop
      vertex 8.52791 29.3651 6
      vertex 8.9 29.0947 0
      vertex 8.52791 29.3651 0
    endloop
  endfacet
  facet normal 0.743145 0.669131 0
    outer loop
      vertex 8.22016 29.7069 6
      vertex 8.52791 29.3651 6
      vertex 8.52791 29.3651 0
    endloop
  endfacet
  facet normal 0.743145 0.669131 0
    outer loop
      vertex 8.22016 29.7069 0
      vertex 8.22016 29.7069 6
      vertex 8.52791 29.3651 0
    endloop
  endfacet
  facet normal 0.866025 0.500001 0
    outer loop
      vertex 7.9902 30.1052 6
      vertex 8.22016 29.7069 6
      vertex 8.22016 29.7069 0
    endloop
  endfacet
  facet normal 0.866025 0.500001 0
    outer loop
      vertex 7.9902 30.1052 0
      vertex 7.9902 30.1052 6
      vertex 8.22016 29.7069 0
    endloop
  endfacet
  facet normal 0.951056 0.309017 0
    outer loop
      vertex 7.84807 30.5426 6
      vertex 7.9902 30.1052 6
      vertex 7.9902 30.1052 0
    endloop
  endfacet
  facet normal 0.951056 0.309017 0
    outer loop
      vertex 7.84807 30.5426 0
      vertex 7.84807 30.5426 6
      vertex 7.9902 30.1052 0
    endloop
  endfacet
endsolid OpenSCAD_Model
