solid OpenSCAD_Model
  facet normal 1 0 0
    outer loop
      vertex -3 0 0
      vertex -3 60 0
      vertex -3 60 12
    endloop
  endfacet
  facet normal 1 0 0
    outer loop
      vertex -3 12.5 14.01
      vertex -3 0 0
      vertex -3 12.5 12
    endloop
  endfacet
  facet normal 1 0 -0
    outer loop
      vertex -3 12.5 12
      vertex -3 0 0
      vertex -3 60 12
    endloop
  endfacet
  facet normal 1 0 -0
    outer loop
      vertex -3 7.5 12
      vertex -3 0 0
      vertex -3 12.5 14.01
    endloop
  endfacet
  facet normal 1 0 -0
    outer loop
      vertex -3 7.5 14.01
      vertex -3 7.5 12
      vertex -3 12.5 14.01
    endloop
  endfacet
  facet normal 1 0 0
    outer loop
      vertex -3 7.5 12
      vertex -3 0 12
      vertex -3 0 0
    endloop
  endfacet
  facet normal -0 0 -1
    outer loop
      vertex -43 20 0
      vertex -22.9695 60 0
      vertex -43 0 0
    endloop
  endfacet
  facet normal 0 -0 -1
    outer loop
      vertex -12.7805 52.0885 0
      vertex -22.9695 60 0
      vertex -3 60 0
    endloop
  endfacet
  facet normal -0 0 -1
    outer loop
      vertex -10.9459 9.56338 0
      vertex -3 60 0
      vertex -3 0 0
    endloop
  endfacet
  facet normal -0 0 -1
    outer loop
      vertex -10.9 30 0
      vertex -3 60 0
      vertex -10.9459 29.5634 0
    endloop
  endfacet
  facet normal 0 0 -1
    outer loop
      vertex -43 0 0
      vertex -15.1 10 0
      vertex -15.0541 9.56338 0
    endloop
  endfacet
  facet normal 0 0 -1
    outer loop
      vertex -43 0 0
      vertex -15.0541 9.56338 0
      vertex -14.9184 9.14585 0
    endloop
  endfacet
  facet normal 0 0 -1
    outer loop
      vertex -43 0 0
      vertex -14.9184 9.14585 0
      vertex -14.6989 8.76565 0
    endloop
  endfacet
  facet normal 0 0 -1
    outer loop
      vertex -43 0 0
      vertex -14.6989 8.76565 0
      vertex -14.4052 8.4394 0
    endloop
  endfacet
  facet normal -0 0 -1
    outer loop
      vertex -43 0 0
      vertex -14.4052 8.4394 0
      vertex -3 0 0
    endloop
  endfacet
  facet normal 0 0 -1
    outer loop
      vertex -14.4052 8.4394 0
      vertex -14.05 8.18135 0
      vertex -3 0 0
    endloop
  endfacet
  facet normal 0 0 -1
    outer loop
      vertex -13.2195 7.9115 0
      vertex -3 0 0
      vertex -13.6489 8.00278 0
    endloop
  endfacet
  facet normal 0 0 -1
    outer loop
      vertex -12.7805 7.9115 0
      vertex -3 0 0
      vertex -13.2195 7.9115 0
    endloop
  endfacet
  facet normal 0 0 -1
    outer loop
      vertex -12.3511 8.00278 0
      vertex -3 0 0
      vertex -12.7805 7.9115 0
    endloop
  endfacet
  facet normal 0 0 -1
    outer loop
      vertex -14.9184 10.8541 0
      vertex -3 60 0
      vertex -14.6989 11.2343 0
    endloop
  endfacet
  facet normal -0 0 -1
    outer loop
      vertex -10.9459 10.4366 0
      vertex -3 60 0
      vertex -10.9 10 0
    endloop
  endfacet
  facet normal -0 0 -1
    outer loop
      vertex -11.95 11.8187 0
      vertex -3 60 0
      vertex -11.5948 11.5606 0
    endloop
  endfacet
  facet normal -0 0 -1
    outer loop
      vertex -12.3511 8.00278 0
      vertex -11.95 8.18135 0
      vertex -3 0 0
    endloop
  endfacet
  facet normal -0 0 -1
    outer loop
      vertex -11.5948 11.5606 0
      vertex -3 60 0
      vertex -11.3011 11.2343 0
    endloop
  endfacet
  facet normal -0 0 -1
    outer loop
      vertex -11.95 8.18135 0
      vertex -11.5948 8.4394 0
      vertex -3 0 0
    endloop
  endfacet
  facet normal -0 0 -1
    outer loop
      vertex -11.3011 11.2343 0
      vertex -3 60 0
      vertex -11.0816 10.8541 0
    endloop
  endfacet
  facet normal -0 0 -1
    outer loop
      vertex -11.5948 8.4394 0
      vertex -11.3011 8.76565 0
      vertex -3 0 0
    endloop
  endfacet
  facet normal -0 0 -1
    outer loop
      vertex -11.0816 10.8541 0
      vertex -3 60 0
      vertex -10.9459 10.4366 0
    endloop
  endfacet
  facet normal -0 0 -1
    outer loop
      vertex -11.3011 8.76565 0
      vertex -11.0816 9.14585 0
      vertex -3 0 0
    endloop
  endfacet
  facet normal -0 0 -1
    outer loop
      vertex -10.9 10 0
      vertex -3 60 0
      vertex -10.9459 9.56338 0
    endloop
  endfacet
  facet normal -0 0 -1
    outer loop
      vertex -11.0816 9.14585 0
      vertex -10.9459 9.56338 0
      vertex -3 0 0
    endloop
  endfacet
  facet normal -0 0 -1
    outer loop
      vertex -12.3511 11.9972 0
      vertex -3 60 0
      vertex -11.95 11.8187 0
    endloop
  endfacet
  facet normal -0 0 -1
    outer loop
      vertex -12.7805 12.0885 0
      vertex -3 60 0
      vertex -12.3511 11.9972 0
    endloop
  endfacet
  facet normal -0 0 -1
    outer loop
      vertex -13.2195 12.0885 0
      vertex -3 60 0
      vertex -12.7805 12.0885 0
    endloop
  endfacet
  facet normal 0 0 -1
    outer loop
      vertex -13.6489 11.9972 0
      vertex -3 60 0
      vertex -13.2195 12.0885 0
    endloop
  endfacet
  facet normal 0 0 -1
    outer loop
      vertex -14.05 11.8187 0
      vertex -3 60 0
      vertex -13.6489 11.9972 0
    endloop
  endfacet
  facet normal 0 0 -1
    outer loop
      vertex -14.4052 11.5606 0
      vertex -3 60 0
      vertex -14.05 11.8187 0
    endloop
  endfacet
  facet normal 0 0 -1
    outer loop
      vertex -14.6989 11.2343 0
      vertex -3 60 0
      vertex -14.4052 11.5606 0
    endloop
  endfacet
  facet normal -0 0 -1
    outer loop
      vertex -10.9459 29.5634 0
      vertex -3 60 0
      vertex -14.9184 10.8541 0
    endloop
  endfacet
  facet normal 0 0 -1
    outer loop
      vertex -43 0 0
      vertex -14.9184 10.8541 0
      vertex -15.0541 10.4366 0
    endloop
  endfacet
  facet normal 0 0 -1
    outer loop
      vertex -43 0 0
      vertex -15.0541 10.4366 0
      vertex -15.1 10 0
    endloop
  endfacet
  facet normal -0 0 -1
    outer loop
      vertex -11.0816 49.1459 0
      vertex -3 60 0
      vertex -11.3011 48.7657 0
    endloop
  endfacet
  facet normal 0 0 -1
    outer loop
      vertex -30.9459 9.56338 0
      vertex -15.1 30 0
      vertex -14.9184 10.8541 0
    endloop
  endfacet
  facet normal 0 0 -1
    outer loop
      vertex -14.6989 31.2343 0
      vertex -3 60 0
      vertex -14.4052 31.5606 0
    endloop
  endfacet
  facet normal 0 0 -1
    outer loop
      vertex -15.1 30 0
      vertex -15.0541 29.5634 0
      vertex -14.9184 10.8541 0
    endloop
  endfacet
  facet normal 0 0 -1
    outer loop
      vertex -14.4052 31.5606 0
      vertex -3 60 0
      vertex -14.05 31.8187 0
    endloop
  endfacet
  facet normal 0 0 -1
    outer loop
      vertex -15.0541 29.5634 0
      vertex -14.9184 29.1459 0
      vertex -14.9184 10.8541 0
    endloop
  endfacet
  facet normal 0 0 -1
    outer loop
      vertex -14.05 31.8187 0
      vertex -3 60 0
      vertex -13.6489 31.9972 0
    endloop
  endfacet
  facet normal 0 0 -1
    outer loop
      vertex -14.9184 29.1459 0
      vertex -14.6989 28.7657 0
      vertex -14.9184 10.8541 0
    endloop
  endfacet
  facet normal 0 0 -1
    outer loop
      vertex -13.6489 31.9972 0
      vertex -3 60 0
      vertex -13.2195 32.0885 0
    endloop
  endfacet
  facet normal 0 0 -1
    outer loop
      vertex -14.6989 28.7657 0
      vertex -14.4052 28.4394 0
      vertex -14.9184 10.8541 0
    endloop
  endfacet
  facet normal -0 0 -1
    outer loop
      vertex -13.2195 32.0885 0
      vertex -3 60 0
      vertex -12.7805 32.0885 0
    endloop
  endfacet
  facet normal 0 0 -1
    outer loop
      vertex -14.4052 28.4394 0
      vertex -14.05 28.1813 0
      vertex -14.9184 10.8541 0
    endloop
  endfacet
  facet normal -0 0 -1
    outer loop
      vertex -12.7805 32.0885 0
      vertex -3 60 0
      vertex -12.3511 31.9972 0
    endloop
  endfacet
  facet normal 0 0 -1
    outer loop
      vertex -14.05 28.1813 0
      vertex -13.6489 28.0028 0
      vertex -14.9184 10.8541 0
    endloop
  endfacet
  facet normal 0 0 -1
    outer loop
      vertex -13.6489 28.0028 0
      vertex -13.2195 27.9115 0
      vertex -14.9184 10.8541 0
    endloop
  endfacet
  facet normal -0 0 -1
    outer loop
      vertex -12.3511 31.9972 0
      vertex -3 60 0
      vertex -11.95 31.8187 0
    endloop
  endfacet
  facet normal 0 0 -1
    outer loop
      vertex -13.2195 27.9115 0
      vertex -12.7805 27.9115 0
      vertex -14.9184 10.8541 0
    endloop
  endfacet
  facet normal -0 0 -1
    outer loop
      vertex -11.95 31.8187 0
      vertex -3 60 0
      vertex -11.5948 31.5606 0
    endloop
  endfacet
  facet normal -0 0 -1
    outer loop
      vertex -12.7805 27.9115 0
      vertex -12.3511 28.0028 0
      vertex -14.9184 10.8541 0
    endloop
  endfacet
  facet normal -0 0 -1
    outer loop
      vertex -11.5948 31.5606 0
      vertex -3 60 0
      vertex -11.3011 31.2343 0
    endloop
  endfacet
  facet normal -0 0 -1
    outer loop
      vertex -12.3511 28.0028 0
      vertex -11.95 28.1813 0
      vertex -14.9184 10.8541 0
    endloop
  endfacet
  facet normal -0 0 -1
    outer loop
      vertex -11.3011 31.2343 0
      vertex -3 60 0
      vertex -11.0816 30.8541 0
    endloop
  endfacet
  facet normal -0 0 -1
    outer loop
      vertex -11.95 28.1813 0
      vertex -11.5948 28.4394 0
      vertex -14.9184 10.8541 0
    endloop
  endfacet
  facet normal -0 0 -1
    outer loop
      vertex -11.0816 30.8541 0
      vertex -3 60 0
      vertex -10.9459 30.4366 0
    endloop
  endfacet
  facet normal -0 0 -1
    outer loop
      vertex -11.5948 28.4394 0
      vertex -11.3011 28.7657 0
      vertex -14.9184 10.8541 0
    endloop
  endfacet
  facet normal -0 0 -1
    outer loop
      vertex -10.9459 30.4366 0
      vertex -3 60 0
      vertex -10.9 30 0
    endloop
  endfacet
  facet normal -0 0 -1
    outer loop
      vertex -11.3011 28.7657 0
      vertex -11.0816 29.1459 0
      vertex -14.9184 10.8541 0
    endloop
  endfacet
  facet normal -0 0 -1
    outer loop
      vertex -11.0816 29.1459 0
      vertex -10.9459 29.5634 0
      vertex -14.9184 10.8541 0
    endloop
  endfacet
  facet normal 0 0 -1
    outer loop
      vertex -33.2195 12.0885 0
      vertex -3 60 0
      vertex -14.6989 31.2343 0
    endloop
  endfacet
  facet normal -0 0 -1
    outer loop
      vertex -32.3511 11.9972 0
      vertex -15.1 30 0
      vertex -31.95 11.8187 0
    endloop
  endfacet
  facet normal 0 0 -1
    outer loop
      vertex -32.3511 11.9972 0
      vertex -15.0541 30.4366 0
      vertex -15.1 30 0
    endloop
  endfacet
  facet normal 0 0 -1
    outer loop
      vertex -43 0 0
      vertex -22.9695 60 0
      vertex -15.1 50 0
    endloop
  endfacet
  facet normal 0 0 -1
    outer loop
      vertex -43 0 0
      vertex -15.1 50 0
      vertex -15.0541 49.5634 0
    endloop
  endfacet
  facet normal 0 0 -1
    outer loop
      vertex -43 0 0
      vertex -15.0541 49.5634 0
      vertex -14.9184 49.1459 0
    endloop
  endfacet
  facet normal 0 0 -1
    outer loop
      vertex -43 0 0
      vertex -14.9184 49.1459 0
      vertex -14.6989 48.7657 0
    endloop
  endfacet
  facet normal 0 0 -1
    outer loop
      vertex -43 0 0
      vertex -14.6989 48.7657 0
      vertex -14.4052 48.4394 0
    endloop
  endfacet
  facet normal 0 0 -1
    outer loop
      vertex -43 0 0
      vertex -14.4052 48.4394 0
      vertex -14.05 48.1813 0
    endloop
  endfacet
  facet normal 0 0 -1
    outer loop
      vertex -43 0 0
      vertex -14.05 48.1813 0
      vertex -13.6489 48.0028 0
    endloop
  endfacet
  facet normal 0 0 -1
    outer loop
      vertex -43 0 0
      vertex -13.6489 48.0028 0
      vertex -13.2195 47.9115 0
    endloop
  endfacet
  facet normal 0 0 -1
    outer loop
      vertex -43 0 0
      vertex -13.2195 47.9115 0
      vertex -12.7805 47.9115 0
    endloop
  endfacet
  facet normal 0 0 -1
    outer loop
      vertex -43 0 0
      vertex -12.7805 47.9115 0
      vertex -12.3511 48.0028 0
    endloop
  endfacet
  facet normal 0 0 -1
    outer loop
      vertex -43 0 0
      vertex -12.3511 48.0028 0
      vertex -11.95 48.1813 0
    endloop
  endfacet
  facet normal 0 0 -1
    outer loop
      vertex -43 0 0
      vertex -11.95 48.1813 0
      vertex -11.5948 48.4394 0
    endloop
  endfacet
  facet normal 0 0 -1
    outer loop
      vertex -43 0 0
      vertex -11.5948 48.4394 0
      vertex -11.3011 48.7657 0
    endloop
  endfacet
  facet normal 0 0 -1
    outer loop
      vertex -43 0 0
      vertex -11.3011 48.7657 0
      vertex -3 60 0
    endloop
  endfacet
  facet normal -0 0 -1
    outer loop
      vertex -10.9459 49.5634 0
      vertex -3 60 0
      vertex -11.0816 49.1459 0
    endloop
  endfacet
  facet normal -0 0 -1
    outer loop
      vertex -10.9 50 0
      vertex -3 60 0
      vertex -10.9459 49.5634 0
    endloop
  endfacet
  facet normal -0 0 -1
    outer loop
      vertex -10.9459 50.4366 0
      vertex -3 60 0
      vertex -10.9 50 0
    endloop
  endfacet
  facet normal -0 0 -1
    outer loop
      vertex -11.0816 50.8541 0
      vertex -3 60 0
      vertex -10.9459 50.4366 0
    endloop
  endfacet
  facet normal -0 0 -1
    outer loop
      vertex -11.3011 51.2343 0
      vertex -3 60 0
      vertex -11.0816 50.8541 0
    endloop
  endfacet
  facet normal -0 0 -1
    outer loop
      vertex -11.5948 51.5606 0
      vertex -3 60 0
      vertex -11.3011 51.2343 0
    endloop
  endfacet
  facet normal -0 0 -1
    outer loop
      vertex -11.95 51.8187 0
      vertex -3 60 0
      vertex -11.5948 51.5606 0
    endloop
  endfacet
  facet normal -0 0 -1
    outer loop
      vertex -12.3511 51.9972 0
      vertex -3 60 0
      vertex -11.95 51.8187 0
    endloop
  endfacet
  facet normal -0 0 -1
    outer loop
      vertex -12.7805 52.0885 0
      vertex -3 60 0
      vertex -12.3511 51.9972 0
    endloop
  endfacet
  facet normal -0 -0 -1
    outer loop
      vertex -13.2195 52.0885 0
      vertex -22.9695 60 0
      vertex -12.7805 52.0885 0
    endloop
  endfacet
  facet normal 0 0 -1
    outer loop
      vertex -34.6989 8.76565 0
      vertex -43 0 0
      vertex -34.9184 9.14585 0
    endloop
  endfacet
  facet normal 0 -0 -1
    outer loop
      vertex -13.6489 51.9972 0
      vertex -22.9695 60 0
      vertex -13.2195 52.0885 0
    endloop
  endfacet
  facet normal 0 -0 -1
    outer loop
      vertex -14.05 51.8187 0
      vertex -22.9695 60 0
      vertex -13.6489 51.9972 0
    endloop
  endfacet
  facet normal 0 -0 -1
    outer loop
      vertex -14.4052 51.5606 0
      vertex -22.9695 60 0
      vertex -14.05 51.8187 0
    endloop
  endfacet
  facet normal 0 -0 -1
    outer loop
      vertex -14.6989 51.2343 0
      vertex -22.9695 60 0
      vertex -14.4052 51.5606 0
    endloop
  endfacet
  facet normal 0 -0 -1
    outer loop
      vertex -14.9184 50.8541 0
      vertex -22.9695 60 0
      vertex -14.6989 51.2343 0
    endloop
  endfacet
  facet normal 0 -0 -1
    outer loop
      vertex -15.0541 50.4366 0
      vertex -22.9695 60 0
      vertex -14.9184 50.8541 0
    endloop
  endfacet
  facet normal 0 -0 -1
    outer loop
      vertex -15.1 50 0
      vertex -22.9695 60 0
      vertex -15.0541 50.4366 0
    endloop
  endfacet
  facet normal 0 -0 -1
    outer loop
      vertex -34.9184 10.8541 0
      vertex -43 0 0
      vertex -34.6989 11.2343 0
    endloop
  endfacet
  facet normal 0 0 -1
    outer loop
      vertex -43 0 0
      vertex -35.1 10 0
      vertex -35.0541 9.56338 0
    endloop
  endfacet
  facet normal 0 0 -1
    outer loop
      vertex -43 0 0
      vertex -35.0541 9.56338 0
      vertex -34.9184 9.14585 0
    endloop
  endfacet
  facet normal 0 0 -1
    outer loop
      vertex -32.3511 11.9972 0
      vertex -14.6989 31.2343 0
      vertex -14.9184 30.8541 0
    endloop
  endfacet
  facet normal 0 0 -1
    outer loop
      vertex -43 0 0
      vertex -34.6989 8.76565 0
      vertex -34.4052 8.4394 0
    endloop
  endfacet
  facet normal 0 0 -1
    outer loop
      vertex -43 0 0
      vertex -34.4052 8.4394 0
      vertex -34.05 8.18135 0
    endloop
  endfacet
  facet normal 0 0 -1
    outer loop
      vertex -43 0 0
      vertex -34.05 8.18135 0
      vertex -33.6489 8.00278 0
    endloop
  endfacet
  facet normal 0 0 -1
    outer loop
      vertex -43 0 0
      vertex -33.6489 8.00278 0
      vertex -33.2195 7.9115 0
    endloop
  endfacet
  facet normal 0 0 -1
    outer loop
      vertex -43 0 0
      vertex -33.2195 7.9115 0
      vertex -32.7805 7.9115 0
    endloop
  endfacet
  facet normal 0 0 -1
    outer loop
      vertex -43 0 0
      vertex -32.7805 7.9115 0
      vertex -14.9184 10.8541 0
    endloop
  endfacet
  facet normal 0 0 -1
    outer loop
      vertex -32.7805 7.9115 0
      vertex -32.3511 8.00278 0
      vertex -14.9184 10.8541 0
    endloop
  endfacet
  facet normal -0 0 -1
    outer loop
      vertex -31.5948 8.4394 0
      vertex -14.9184 10.8541 0
      vertex -31.95 8.18135 0
    endloop
  endfacet
  facet normal -0 0 -1
    outer loop
      vertex -31.3011 8.76565 0
      vertex -14.9184 10.8541 0
      vertex -31.5948 8.4394 0
    endloop
  endfacet
  facet normal -0 0 -1
    outer loop
      vertex -31.0816 9.14585 0
      vertex -14.9184 10.8541 0
      vertex -31.3011 8.76565 0
    endloop
  endfacet
  facet normal -0 0 -1
    outer loop
      vertex -30.9459 9.56338 0
      vertex -14.9184 10.8541 0
      vertex -31.0816 9.14585 0
    endloop
  endfacet
  facet normal -0 0 -1
    outer loop
      vertex -30.9 10 0
      vertex -15.1 30 0
      vertex -30.9459 9.56338 0
    endloop
  endfacet
  facet normal -0 0 -1
    outer loop
      vertex -31.95 11.8187 0
      vertex -15.1 30 0
      vertex -31.5948 11.5606 0
    endloop
  endfacet
  facet normal -0 0 -1
    outer loop
      vertex -30.9459 10.4366 0
      vertex -15.1 30 0
      vertex -30.9 10 0
    endloop
  endfacet
  facet normal -0 0 -1
    outer loop
      vertex -31.0816 10.8541 0
      vertex -15.1 30 0
      vertex -30.9459 10.4366 0
    endloop
  endfacet
  facet normal -0 0 -1
    outer loop
      vertex -31.3011 11.2343 0
      vertex -15.1 30 0
      vertex -31.0816 10.8541 0
    endloop
  endfacet
  facet normal -0 0 -1
    outer loop
      vertex -31.5948 11.5606 0
      vertex -15.1 30 0
      vertex -31.3011 11.2343 0
    endloop
  endfacet
  facet normal 0 0 -1
    outer loop
      vertex -32.3511 11.9972 0
      vertex -14.9184 30.8541 0
      vertex -15.0541 30.4366 0
    endloop
  endfacet
  facet normal -0 0 -1
    outer loop
      vertex -31.95 8.18135 0
      vertex -14.9184 10.8541 0
      vertex -32.3511 8.00278 0
    endloop
  endfacet
  facet normal -0 0 -1
    outer loop
      vertex -32.7805 12.0885 0
      vertex -14.6989 31.2343 0
      vertex -32.3511 11.9972 0
    endloop
  endfacet
  facet normal -0 0 -1
    outer loop
      vertex -33.2195 12.0885 0
      vertex -14.6989 31.2343 0
      vertex -32.7805 12.0885 0
    endloop
  endfacet
  facet normal 0 0 -1
    outer loop
      vertex -33.6489 11.9972 0
      vertex -3 60 0
      vertex -33.2195 12.0885 0
    endloop
  endfacet
  facet normal 0 0 -1
    outer loop
      vertex -34.05 11.8187 0
      vertex -3 60 0
      vertex -33.6489 11.9972 0
    endloop
  endfacet
  facet normal 0 0 -1
    outer loop
      vertex -34.4052 11.5606 0
      vertex -3 60 0
      vertex -34.05 11.8187 0
    endloop
  endfacet
  facet normal 0 0 -1
    outer loop
      vertex -34.6989 11.2343 0
      vertex -3 60 0
      vertex -34.4052 11.5606 0
    endloop
  endfacet
  facet normal 0 0 -1
    outer loop
      vertex -43 0 0
      vertex -3 60 0
      vertex -34.6989 11.2343 0
    endloop
  endfacet
  facet normal 0 -0 -1
    outer loop
      vertex -35.0541 10.4366 0
      vertex -43 0 0
      vertex -34.9184 10.8541 0
    endloop
  endfacet
  facet normal 0 0 -1
    outer loop
      vertex -43 0 0
      vertex -35.0541 10.4366 0
      vertex -35.1 10 0
    endloop
  endfacet
  facet normal 0 0 -1
    outer loop
      vertex -13.6489 8.00278 0
      vertex -3 0 0
      vertex -14.05 8.18135 0
    endloop
  endfacet
  facet normal -0 -1 0
    outer loop
      vertex -43 0 0
      vertex -3 0 0
      vertex -3 0 12
    endloop
  endfacet
  facet normal 0 -1 0
    outer loop
      vertex -43 0 12
      vertex -43 0 0
      vertex -3 0 12
    endloop
  endfacet
  facet normal 0 0 1
    outer loop
      vertex -43 0 12
      vertex -3 0 12
      vertex -3 7.5 12
    endloop
  endfacet
  facet normal 0 -0 1
    outer loop
      vertex -12.3511 8.00278 12
      vertex -43 0 12
      vertex -10.5 7.5 12
    endloop
  endfacet
  facet normal 0 -0 1
    outer loop
      vertex -10.5 7.5 12
      vertex -43 0 12
      vertex -3 7.5 12
    endloop
  endfacet
  facet normal 0 0 1
    outer loop
      vertex -3 60 12
      vertex -10.5 12.5 12
      vertex -3 12.5 12
    endloop
  endfacet
  facet normal 0 0 1
    outer loop
      vertex -15.5 27.5 12
      vertex -13.6489 28.0028 12
      vertex -14.05 28.1813 12
    endloop
  endfacet
  facet normal 0 -0 1
    outer loop
      vertex -10.5 60 12
      vertex -10.5 52.5 12
      vertex -3 60 12
    endloop
  endfacet
  facet normal 0 0 1
    outer loop
      vertex -11.5948 28.4394 12
      vertex -10.5 27.5 12
      vertex -11.3011 28.7657 12
    endloop
  endfacet
  facet normal -0 0 1
    outer loop
      vertex -14.4052 48.4394 12
      vertex -14.6989 48.7657 12
      vertex -15.5 47.5 12
    endloop
  endfacet
  facet normal -0 0 1
    outer loop
      vertex -33.2195 7.9115 12
      vertex -33.6489 8.00278 12
      vertex -35.5 7.5 12
    endloop
  endfacet
  facet normal 0 0 1
    outer loop
      vertex -32.3511 11.9972 12
      vertex -31.95 11.8187 12
      vertex -15.5 32.5 12
    endloop
  endfacet
  facet normal 0 -0 1
    outer loop
      vertex -43 20 12
      vertex -43 12.5 12
      vertex -22.9695 60 12
    endloop
  endfacet
  facet normal 0 0 1
    outer loop
      vertex -12.7805 12.0885 12
      vertex -12.3511 11.9972 12
      vertex -10.5 12.5 12
    endloop
  endfacet
  facet normal 0 0 1
    outer loop
      vertex -10.5 21 12
      vertex -15.5 21 12
      vertex -10.5 12.5 12
    endloop
  endfacet
  facet normal 0 0 1
    outer loop
      vertex -15.5 27.5 12
      vertex -30.5 12.5 12
      vertex -15.5 21 12
    endloop
  endfacet
  facet normal 0 0 1
    outer loop
      vertex -15.5 12.5 12
      vertex -14.4052 11.5606 12
      vertex -14.05 11.8187 12
    endloop
  endfacet
  facet normal 0 0 1
    outer loop
      vertex -3 60 12
      vertex -10.5 27.5 12
      vertex -10.5 21 12
    endloop
  endfacet
  facet normal 0 0 1
    outer loop
      vertex -11.95 11.8187 12
      vertex -11.5948 11.5606 12
      vertex -10.5 12.5 12
    endloop
  endfacet
  facet normal 0 0 1
    outer loop
      vertex -3 60 12
      vertex -10.5 21 12
      vertex -10.5 12.5 12
    endloop
  endfacet
  facet normal -0 0 1
    outer loop
      vertex -15.1 30 12
      vertex -15.5 32.5 12
      vertex -15.5 27.5 12
    endloop
  endfacet
  facet normal 0 0 1
    outer loop
      vertex -31.5948 11.5606 12
      vertex -31.3011 11.2343 12
      vertex -30.5 12.5 12
    endloop
  endfacet
  facet normal 0 0 1
    outer loop
      vertex -11.3011 51.2343 12
      vertex -11.0816 50.8541 12
      vertex -10.5 52.5 12
    endloop
  endfacet
  facet normal 0 0 1
    outer loop
      vertex -15.1 50 12
      vertex -35.5 12.5 12
      vertex -15.5 47.5 12
    endloop
  endfacet
  facet normal 0 0 1
    outer loop
      vertex -3 60 12
      vertex -10.5 32.5 12
      vertex -10.5 27.5 12
    endloop
  endfacet
  facet normal 0 0 1
    outer loop
      vertex -12.7805 7.9115 12
      vertex -13.2195 7.9115 12
      vertex -43 0 12
    endloop
  endfacet
  facet normal 0 -0 1
    outer loop
      vertex -10.9 10 12
      vertex -10.9459 9.56338 12
      vertex -10.5 7.5 12
    endloop
  endfacet
  facet normal 0 0 1
    outer loop
      vertex -30.5 12.5 12
      vertex -15.5 12.5 12
      vertex -15.5 21 12
    endloop
  endfacet
  facet normal 0 0 1
    outer loop
      vertex -13.2195 12.0885 12
      vertex -12.7805 12.0885 12
      vertex -10.5 12.5 12
    endloop
  endfacet
  facet normal 0 0 1
    outer loop
      vertex -15.5 21 12
      vertex -14.05 11.8187 12
      vertex -13.6489 11.9972 12
    endloop
  endfacet
  facet normal 0 0 1
    outer loop
      vertex -15.5 21 12
      vertex -13.2195 12.0885 12
      vertex -10.5 12.5 12
    endloop
  endfacet
  facet normal 0 0 1
    outer loop
      vertex -15.5 21 12
      vertex -13.6489 11.9972 12
      vertex -13.2195 12.0885 12
    endloop
  endfacet
  facet normal 0 -0 1
    outer loop
      vertex -11.5948 8.4394 12
      vertex -11.95 8.18135 12
      vertex -10.5 7.5 12
    endloop
  endfacet
  facet normal 0 -0 1
    outer loop
      vertex -10.9459 9.56338 12
      vertex -11.0816 9.14585 12
      vertex -10.5 7.5 12
    endloop
  endfacet
  facet normal 0 0 1
    outer loop
      vertex -10.5 12.5 12
      vertex -11.5948 11.5606 12
      vertex -11.3011 11.2343 12
    endloop
  endfacet
  facet normal -0 0 1
    outer loop
      vertex -14.9184 29.1459 12
      vertex -15.0541 29.5634 12
      vertex -15.5 27.5 12
    endloop
  endfacet
  facet normal 0 0 1
    outer loop
      vertex -10.5 12.5 12
      vertex -11.3011 11.2343 12
      vertex -11.0816 10.8541 12
    endloop
  endfacet
  facet normal 0 0 1
    outer loop
      vertex -10.5 12.5 12
      vertex -10.9459 10.4366 12
      vertex -10.5 7.5 12
    endloop
  endfacet
  facet normal 0 0 1
    outer loop
      vertex -10.5 12.5 12
      vertex -11.0816 10.8541 12
      vertex -10.9459 10.4366 12
    endloop
  endfacet
  facet normal 0 0 1
    outer loop
      vertex -10.9459 10.4366 12
      vertex -10.9 10 12
      vertex -10.5 7.5 12
    endloop
  endfacet
  facet normal 0 -0 1
    outer loop
      vertex -11.0816 9.14585 12
      vertex -11.3011 8.76565 12
      vertex -10.5 7.5 12
    endloop
  endfacet
  facet normal 0 -0 1
    outer loop
      vertex -11.3011 8.76565 12
      vertex -11.5948 8.4394 12
      vertex -10.5 7.5 12
    endloop
  endfacet
  facet normal 0 -0 1
    outer loop
      vertex -11.95 8.18135 12
      vertex -12.3511 8.00278 12
      vertex -10.5 7.5 12
    endloop
  endfacet
  facet normal 0 -0 1
    outer loop
      vertex -12.7805 7.9115 12
      vertex -43 0 12
      vertex -12.3511 8.00278 12
    endloop
  endfacet
  facet normal 0 0 1
    outer loop
      vertex -11.3011 31.2343 12
      vertex -11.0816 30.8541 12
      vertex -10.5 32.5 12
    endloop
  endfacet
  facet normal 0 -0 1
    outer loop
      vertex -13.6489 8.00278 12
      vertex -43 0 12
      vertex -13.2195 7.9115 12
    endloop
  endfacet
  facet normal 0 -0 1
    outer loop
      vertex -15.5 7.5 12
      vertex -43 0 12
      vertex -13.6489 8.00278 12
    endloop
  endfacet
  facet normal -0 0 1
    outer loop
      vertex -15.0541 29.5634 12
      vertex -15.1 30 12
      vertex -15.5 27.5 12
    endloop
  endfacet
  facet normal -0 0 1
    outer loop
      vertex -15.0541 30.4366 12
      vertex -15.5 32.5 12
      vertex -15.1 30 12
    endloop
  endfacet
  facet normal -0 0 1
    outer loop
      vertex -14.9184 30.8541 12
      vertex -15.5 32.5 12
      vertex -15.0541 30.4366 12
    endloop
  endfacet
  facet normal 0 0 1
    outer loop
      vertex -15.5 47.5 12
      vertex -13.2195 47.9115 12
      vertex -13.6489 48.0028 12
    endloop
  endfacet
  facet normal 0 0 1
    outer loop
      vertex -13.2195 52.0885 12
      vertex -12.7805 52.0885 12
      vertex -10.5 52.5 12
    endloop
  endfacet
  facet normal 0 0 1
    outer loop
      vertex -15.5 47.5 12
      vertex -12.7805 47.9115 12
      vertex -13.2195 47.9115 12
    endloop
  endfacet
  facet normal 0 0 1
    outer loop
      vertex -15.5 32.5 12
      vertex -33.2195 12.0885 12
      vertex -32.7805 12.0885 12
    endloop
  endfacet
  facet normal 0 0 1
    outer loop
      vertex -11.3011 48.7657 12
      vertex -10.5 47.5 12
      vertex -3 60 12
    endloop
  endfacet
  facet normal 0 0 1
    outer loop
      vertex -11.5948 48.4394 12
      vertex -10.5 47.5 12
      vertex -11.3011 48.7657 12
    endloop
  endfacet
  facet normal 0 0 1
    outer loop
      vertex -10.5 32.5 12
      vertex -15.5 32.5 12
      vertex -13.2195 32.0885 12
    endloop
  endfacet
  facet normal 0 0 1
    outer loop
      vertex -11.95 48.1813 12
      vertex -10.5 47.5 12
      vertex -11.5948 48.4394 12
    endloop
  endfacet
  facet normal 0 0 1
    outer loop
      vertex -15.5 47.5 12
      vertex -10.5 47.5 12
      vertex -12.7805 47.9115 12
    endloop
  endfacet
  facet normal -0 0 1
    outer loop
      vertex -13.2195 32.0885 12
      vertex -15.5 32.5 12
      vertex -13.6489 31.9972 12
    endloop
  endfacet
  facet normal 0 0 1
    outer loop
      vertex -11.95 31.8187 12
      vertex -11.5948 31.5606 12
      vertex -10.5 32.5 12
    endloop
  endfacet
  facet normal -0 0 1
    outer loop
      vertex -14.05 31.8187 12
      vertex -15.5 32.5 12
      vertex -14.4052 31.5606 12
    endloop
  endfacet
  facet normal 0 0 1
    outer loop
      vertex -11.5948 31.5606 12
      vertex -11.3011 31.2343 12
      vertex -10.5 32.5 12
    endloop
  endfacet
  facet normal -0 0 1
    outer loop
      vertex -14.6989 31.2343 12
      vertex -15.5 32.5 12
      vertex -14.9184 30.8541 12
    endloop
  endfacet
  facet normal -0 0 1
    outer loop
      vertex -14.6989 28.7657 12
      vertex -14.9184 29.1459 12
      vertex -15.5 27.5 12
    endloop
  endfacet
  facet normal 0 0 1
    outer loop
      vertex -10.5 32.5 12
      vertex -10.9459 30.4366 12
      vertex -10.5 27.5 12
    endloop
  endfacet
  facet normal 0 0 1
    outer loop
      vertex -10.5 32.5 12
      vertex -11.0816 30.8541 12
      vertex -10.9459 30.4366 12
    endloop
  endfacet
  facet normal 0 0 1
    outer loop
      vertex -10.9459 30.4366 12
      vertex -10.9 30 12
      vertex -10.5 27.5 12
    endloop
  endfacet
  facet normal 0 0 1
    outer loop
      vertex -10.5 32.5 12
      vertex -12.7805 32.0885 12
      vertex -12.3511 31.9972 12
    endloop
  endfacet
  facet normal 0 -0 1
    outer loop
      vertex -10.9459 29.5634 12
      vertex -11.0816 29.1459 12
      vertex -10.5 27.5 12
    endloop
  endfacet
  facet normal 0 0 1
    outer loop
      vertex -10.5 32.5 12
      vertex -12.3511 31.9972 12
      vertex -11.95 31.8187 12
    endloop
  endfacet
  facet normal 0 0 1
    outer loop
      vertex -10.5 32.5 12
      vertex -13.2195 32.0885 12
      vertex -12.7805 32.0885 12
    endloop
  endfacet
  facet normal -0 0 1
    outer loop
      vertex -14.4052 31.5606 12
      vertex -15.5 32.5 12
      vertex -14.6989 31.2343 12
    endloop
  endfacet
  facet normal -0 0 1
    outer loop
      vertex -13.6489 31.9972 12
      vertex -15.5 32.5 12
      vertex -14.05 31.8187 12
    endloop
  endfacet
  facet normal 0 0 1
    outer loop
      vertex -15.5 32.5 12
      vertex -32.7805 12.0885 12
      vertex -32.3511 11.9972 12
    endloop
  endfacet
  facet normal 0 0 1
    outer loop
      vertex -15.5 32.5 12
      vertex -33.6489 11.9972 12
      vertex -33.2195 12.0885 12
    endloop
  endfacet
  facet normal 0 -0 1
    outer loop
      vertex -14.6989 28.7657 12
      vertex -15.5 27.5 12
      vertex -14.4052 28.4394 12
    endloop
  endfacet
  facet normal -0 0 1
    outer loop
      vertex -15.0541 49.5634 12
      vertex -15.1 50 12
      vertex -15.5 47.5 12
    endloop
  endfacet
  facet normal 0 0 1
    outer loop
      vertex -15.0541 50.4366 12
      vertex -35.5 12.5 12
      vertex -15.1 50 12
    endloop
  endfacet
  facet normal 0 0 1
    outer loop
      vertex -14.9184 50.8541 12
      vertex -35.5 12.5 12
      vertex -15.0541 50.4366 12
    endloop
  endfacet
  facet normal 0 0 1
    outer loop
      vertex -43 12.5 12
      vertex -15.5 60 12
      vertex -22.9695 60 12
    endloop
  endfacet
  facet normal 0 0 1
    outer loop
      vertex -43 12.5 12
      vertex -14.9184 50.8541 12
      vertex -15.5 52.5 12
    endloop
  endfacet
  facet normal 0 0 1
    outer loop
      vertex -43 12.5 12
      vertex -15.5 52.5 12
      vertex -15.5 60 12
    endloop
  endfacet
  facet normal 0 0 1
    outer loop
      vertex -15.5 7.5 12
      vertex -30.5 7.5 12
      vertex -43 0 12
    endloop
  endfacet
  facet normal 0 0 1
    outer loop
      vertex -43 12.5 12
      vertex -35.5 12.5 12
      vertex -14.9184 50.8541 12
    endloop
  endfacet
  facet normal 0 0 1
    outer loop
      vertex -11.5948 51.5606 12
      vertex -11.3011 51.2343 12
      vertex -10.5 52.5 12
    endloop
  endfacet
  facet normal 0 0 1
    outer loop
      vertex -30.5 7.5 12
      vertex -31.0816 9.14585 12
      vertex -31.3011 8.76565 12
    endloop
  endfacet
  facet normal 0 0 1
    outer loop
      vertex -30.5 7.5 12
      vertex -31.3011 8.76565 12
      vertex -31.5948 8.4394 12
    endloop
  endfacet
  facet normal -0 0 1
    outer loop
      vertex -34.4052 8.4394 12
      vertex -34.6989 8.76565 12
      vertex -35.5 7.5 12
    endloop
  endfacet
  facet normal -0 0 1
    outer loop
      vertex -14.9184 49.1459 12
      vertex -15.0541 49.5634 12
      vertex -15.5 47.5 12
    endloop
  endfacet
  facet normal 0 0 1
    outer loop
      vertex -12.7805 52.0885 12
      vertex -12.3511 51.9972 12
      vertex -10.5 52.5 12
    endloop
  endfacet
  facet normal 0 0 1
    outer loop
      vertex -12.3511 51.9972 12
      vertex -11.95 51.8187 12
      vertex -10.5 52.5 12
    endloop
  endfacet
  facet normal 0 0 1
    outer loop
      vertex -11.95 51.8187 12
      vertex -11.5948 51.5606 12
      vertex -10.5 52.5 12
    endloop
  endfacet
  facet normal -0 0 1
    outer loop
      vertex -14.6989 48.7657 12
      vertex -14.9184 49.1459 12
      vertex -15.5 47.5 12
    endloop
  endfacet
  facet normal 0 -0 1
    outer loop
      vertex -10.5 47.5 12
      vertex -10.5 32.5 12
      vertex -3 60 12
    endloop
  endfacet
  facet normal 0 -0 1
    outer loop
      vertex -10.5 52.5 12
      vertex -11.0816 50.8541 12
      vertex -3 60 12
    endloop
  endfacet
  facet normal 0 0 1
    outer loop
      vertex -11.0816 50.8541 12
      vertex -10.9459 50.4366 12
      vertex -3 60 12
    endloop
  endfacet
  facet normal 0 0 1
    outer loop
      vertex -10.9459 50.4366 12
      vertex -10.9 50 12
      vertex -3 60 12
    endloop
  endfacet
  facet normal 0 0 1
    outer loop
      vertex -15.5 27.5 12
      vertex -12.7805 27.9115 12
      vertex -13.2195 27.9115 12
    endloop
  endfacet
  facet normal 0 -0 1
    outer loop
      vertex -10.9 50 12
      vertex -10.9459 49.5634 12
      vertex -3 60 12
    endloop
  endfacet
  facet normal 0 0 1
    outer loop
      vertex -15.5 27.5 12
      vertex -13.2195 27.9115 12
      vertex -13.6489 28.0028 12
    endloop
  endfacet
  facet normal 0 -0 1
    outer loop
      vertex -10.9459 49.5634 12
      vertex -11.0816 49.1459 12
      vertex -3 60 12
    endloop
  endfacet
  facet normal 0 0 1
    outer loop
      vertex -12.7805 47.9115 12
      vertex -10.5 47.5 12
      vertex -12.3511 48.0028 12
    endloop
  endfacet
  facet normal 0 -0 1
    outer loop
      vertex -11.0816 49.1459 12
      vertex -11.3011 48.7657 12
      vertex -3 60 12
    endloop
  endfacet
  facet normal 0 0 1
    outer loop
      vertex -12.3511 48.0028 12
      vertex -10.5 47.5 12
      vertex -11.95 48.1813 12
    endloop
  endfacet
  facet normal 0 -0 1
    outer loop
      vertex -10.9 30 12
      vertex -10.9459 29.5634 12
      vertex -10.5 27.5 12
    endloop
  endfacet
  facet normal 0 0 1
    outer loop
      vertex -11.3011 28.7657 12
      vertex -10.5 27.5 12
      vertex -11.0816 29.1459 12
    endloop
  endfacet
  facet normal 0 0 1
    outer loop
      vertex -15.5 47.5 12
      vertex -13.6489 48.0028 12
      vertex -14.05 48.1813 12
    endloop
  endfacet
  facet normal -0 0 1
    outer loop
      vertex -33.6489 8.00278 12
      vertex -34.05 8.18135 12
      vertex -35.5 7.5 12
    endloop
  endfacet
  facet normal 0 0 1
    outer loop
      vertex -15.5 47.5 12
      vertex -14.05 48.1813 12
      vertex -14.4052 48.4394 12
    endloop
  endfacet
  facet normal 0 0 1
    outer loop
      vertex -30.5 7.5 12
      vertex -31.5948 8.4394 12
      vertex -31.95 8.18135 12
    endloop
  endfacet
  facet normal 0 -0 1
    outer loop
      vertex -35.5 7.5 12
      vertex -43 0 12
      vertex -30.5 7.5 12
    endloop
  endfacet
  facet normal 0 0 1
    outer loop
      vertex -15.5 32.5 12
      vertex -30.5 12.5 12
      vertex -15.5 27.5 12
    endloop
  endfacet
  facet normal 0 0 1
    outer loop
      vertex -32.7805 7.9115 12
      vertex -33.2195 7.9115 12
      vertex -35.5 7.5 12
    endloop
  endfacet
  facet normal 0 -0 1
    outer loop
      vertex -15.5 21 12
      vertex -15.5 12.5 12
      vertex -14.05 11.8187 12
    endloop
  endfacet
  facet normal 0 -0 1
    outer loop
      vertex -14.9184 9.14585 12
      vertex -15.5 7.5 12
      vertex -14.6989 8.76565 12
    endloop
  endfacet
  facet normal 0 -0 1
    outer loop
      vertex -14.05 8.18135 12
      vertex -15.5 7.5 12
      vertex -13.6489 8.00278 12
    endloop
  endfacet
  facet normal 0 0 1
    outer loop
      vertex -30.5 7.5 12
      vertex -31.95 8.18135 12
      vertex -32.3511 8.00278 12
    endloop
  endfacet
  facet normal -0 0 1
    outer loop
      vertex -35.0541 9.56338 12
      vertex -35.1 10 12
      vertex -35.5 7.5 12
    endloop
  endfacet
  facet normal 0 0 1
    outer loop
      vertex -35.5 7.5 12
      vertex -43 7.5 12
      vertex -43 0 12
    endloop
  endfacet
  facet normal 0 0 1
    outer loop
      vertex -15.5 27.5 12
      vertex -14.05 28.1813 12
      vertex -14.4052 28.4394 12
    endloop
  endfacet
  facet normal 0 0 1
    outer loop
      vertex -30.5 7.5 12
      vertex -30.9 10 12
      vertex -30.9459 9.56338 12
    endloop
  endfacet
  facet normal 0 0 1
    outer loop
      vertex -30.5 7.5 12
      vertex -30.9459 10.4366 12
      vertex -30.9 10 12
    endloop
  endfacet
  facet normal 0 0 1
    outer loop
      vertex -30.9459 10.4366 12
      vertex -30.5 12.5 12
      vertex -31.0816 10.8541 12
    endloop
  endfacet
  facet normal 0 0 1
    outer loop
      vertex -31.0816 10.8541 12
      vertex -30.5 12.5 12
      vertex -31.3011 11.2343 12
    endloop
  endfacet
  facet normal 0 0 1
    outer loop
      vertex -30.5 7.5 12
      vertex -30.5 12.5 12
      vertex -30.9459 10.4366 12
    endloop
  endfacet
  facet normal 0 0 1
    outer loop
      vertex -15.5 32.5 12
      vertex -31.95 11.8187 12
      vertex -30.5 12.5 12
    endloop
  endfacet
  facet normal -0 0 1
    outer loop
      vertex -34.6989 8.76565 12
      vertex -34.9184 9.14585 12
      vertex -35.5 7.5 12
    endloop
  endfacet
  facet normal 0 0 1
    outer loop
      vertex -31.95 11.8187 12
      vertex -31.5948 11.5606 12
      vertex -30.5 12.5 12
    endloop
  endfacet
  facet normal 0 0 1
    outer loop
      vertex -15.5 12.5 12
      vertex -14.9184 10.8541 12
      vertex -14.6989 11.2343 12
    endloop
  endfacet
  facet normal 0 0 1
    outer loop
      vertex -15.5 12.5 12
      vertex -14.6989 11.2343 12
      vertex -14.4052 11.5606 12
    endloop
  endfacet
  facet normal 0 0 1
    outer loop
      vertex -15.5 12.5 12
      vertex -15.0541 10.4366 12
      vertex -14.9184 10.8541 12
    endloop
  endfacet
  facet normal 0 0 1
    outer loop
      vertex -15.5 12.5 12
      vertex -15.1 10 12
      vertex -15.0541 10.4366 12
    endloop
  endfacet
  facet normal 0 0 1
    outer loop
      vertex -15.5 12.5 12
      vertex -15.0541 9.56338 12
      vertex -15.1 10 12
    endloop
  endfacet
  facet normal 0 -0 1
    outer loop
      vertex -14.4052 8.4394 12
      vertex -15.5 7.5 12
      vertex -14.05 8.18135 12
    endloop
  endfacet
  facet normal 0 -0 1
    outer loop
      vertex -15.5 12.5 12
      vertex -15.5 7.5 12
      vertex -15.0541 9.56338 12
    endloop
  endfacet
  facet normal 0 -0 1
    outer loop
      vertex -15.0541 9.56338 12
      vertex -15.5 7.5 12
      vertex -14.9184 9.14585 12
    endloop
  endfacet
  facet normal 0 0 1
    outer loop
      vertex -32.7805 7.9115 12
      vertex -30.5 7.5 12
      vertex -32.3511 8.00278 12
    endloop
  endfacet
  facet normal 0 0 1
    outer loop
      vertex -35.5 7.5 12
      vertex -30.5 7.5 12
      vertex -32.7805 7.9115 12
    endloop
  endfacet
  facet normal 0 -0 1
    outer loop
      vertex -14.6989 8.76565 12
      vertex -15.5 7.5 12
      vertex -14.4052 8.4394 12
    endloop
  endfacet
  facet normal -0 0 1
    outer loop
      vertex -34.05 8.18135 12
      vertex -34.4052 8.4394 12
      vertex -35.5 7.5 12
    endloop
  endfacet
  facet normal -0 0 1
    outer loop
      vertex -34.9184 9.14585 12
      vertex -35.0541 9.56338 12
      vertex -35.5 7.5 12
    endloop
  endfacet
  facet normal 0 0 1
    outer loop
      vertex -12.3511 11.9972 12
      vertex -11.95 11.8187 12
      vertex -10.5 12.5 12
    endloop
  endfacet
  facet normal -0 0 1
    outer loop
      vertex -14.6989 51.2343 12
      vertex -15.5 52.5 12
      vertex -14.9184 50.8541 12
    endloop
  endfacet
  facet normal -0 0 1
    outer loop
      vertex -14.4052 51.5606 12
      vertex -15.5 52.5 12
      vertex -14.6989 51.2343 12
    endloop
  endfacet
  facet normal -0 0 1
    outer loop
      vertex -14.05 51.8187 12
      vertex -15.5 52.5 12
      vertex -14.4052 51.5606 12
    endloop
  endfacet
  facet normal -0 0 1
    outer loop
      vertex -13.6489 51.9972 12
      vertex -15.5 52.5 12
      vertex -14.05 51.8187 12
    endloop
  endfacet
  facet normal -0 0 1
    outer loop
      vertex -13.2195 52.0885 12
      vertex -15.5 52.5 12
      vertex -13.6489 51.9972 12
    endloop
  endfacet
  facet normal 0 0 1
    outer loop
      vertex -10.5 52.5 12
      vertex -15.5 52.5 12
      vertex -13.2195 52.0885 12
    endloop
  endfacet
  facet normal 0 0 1
    outer loop
      vertex -30.5 7.5 12
      vertex -30.9459 9.56338 12
      vertex -31.0816 9.14585 12
    endloop
  endfacet
  facet normal 0 0 1
    outer loop
      vertex -35.5 12.5 12
      vertex -34.9184 10.8541 12
      vertex -34.6989 11.2343 12
    endloop
  endfacet
  facet normal 0 0 1
    outer loop
      vertex -35.5 12.5 12
      vertex -35.0541 10.4366 12
      vertex -34.9184 10.8541 12
    endloop
  endfacet
  facet normal 0 0 1
    outer loop
      vertex -35.5 12.5 12
      vertex -35.1 10 12
      vertex -35.0541 10.4366 12
    endloop
  endfacet
  facet normal 0 -0 1
    outer loop
      vertex -35.5 12.5 12
      vertex -35.5 7.5 12
      vertex -35.1 10 12
    endloop
  endfacet
  facet normal 0 0 1
    outer loop
      vertex -11.95 28.1813 12
      vertex -10.5 27.5 12
      vertex -11.5948 28.4394 12
    endloop
  endfacet
  facet normal 0 0 1
    outer loop
      vertex -12.3511 28.0028 12
      vertex -10.5 27.5 12
      vertex -11.95 28.1813 12
    endloop
  endfacet
  facet normal 0 0 1
    outer loop
      vertex -12.7805 27.9115 12
      vertex -10.5 27.5 12
      vertex -12.3511 28.0028 12
    endloop
  endfacet
  facet normal 0 0 1
    outer loop
      vertex -15.5 27.5 12
      vertex -10.5 27.5 12
      vertex -12.7805 27.9115 12
    endloop
  endfacet
  facet normal 0 0 1
    outer loop
      vertex -15.5 32.5 12
      vertex -34.05 11.8187 12
      vertex -33.6489 11.9972 12
    endloop
  endfacet
  facet normal 0 0 1
    outer loop
      vertex -15.5 32.5 12
      vertex -34.4052 11.5606 12
      vertex -34.05 11.8187 12
    endloop
  endfacet
  facet normal -0 0 1
    outer loop
      vertex -34.4052 11.5606 12
      vertex -35.5 12.5 12
      vertex -34.6989 11.2343 12
    endloop
  endfacet
  facet normal 0 0 1
    outer loop
      vertex -15.5 32.5 12
      vertex -35.5 12.5 12
      vertex -34.4052 11.5606 12
    endloop
  endfacet
  facet normal -0 0 1
    outer loop
      vertex -15.5 32.5 12
      vertex -15.5 47.5 12
      vertex -35.5 12.5 12
    endloop
  endfacet
  facet normal -0 -1 0
    outer loop
      vertex -10.5 7.5 12
      vertex -3 7.5 12
      vertex -3 7.5 14.01
    endloop
  endfacet
  facet normal 0 -1 0
    outer loop
      vertex -10.5 7.5 14.01
      vertex -10.5 7.5 12
      vertex -3 7.5 14.01
    endloop
  endfacet
  facet normal 0 0 1
    outer loop
      vertex -10.5 7.5 14.01
      vertex -3 7.5 14.01
      vertex -3 12.5 14.01
    endloop
  endfacet
  facet normal 0 -0 1
    outer loop
      vertex -10.5 12.5 14.01
      vertex -10.5 7.5 14.01
      vertex -3 12.5 14.01
    endloop
  endfacet
  facet normal 0 1 -0
    outer loop
      vertex -10.5 12.5 14.01
      vertex -3 12.5 14.01
      vertex -10.5 12.5 12
    endloop
  endfacet
  facet normal 0 1 0
    outer loop
      vertex -10.5 12.5 12
      vertex -3 12.5 14.01
      vertex -3 12.5 12
    endloop
  endfacet
  facet normal 0 1 -0
    outer loop
      vertex -22.9695 60 12
      vertex -15.5 60 12
      vertex -22.9695 60 0
    endloop
  endfacet
  facet normal 0 1 0
    outer loop
      vertex -10.5 60 14.01
      vertex -15.5 60 12
      vertex -15.5 60 14.01
    endloop
  endfacet
  facet normal 0 1 0
    outer loop
      vertex -22.9695 60 0
      vertex -15.5 60 12
      vertex -10.5 60 14.01
    endloop
  endfacet
  facet normal 0 1 0
    outer loop
      vertex -22.9695 60 0
      vertex -10.5 60 14.01
      vertex -10.5 60 12
    endloop
  endfacet
  facet normal 0 1 0
    outer loop
      vertex -22.9695 60 0
      vertex -10.5 60 12
      vertex -3 60 12
    endloop
  endfacet
  facet normal 0 1 0
    outer loop
      vertex -22.9695 60 0
      vertex -3 60 12
      vertex -3 60 0
    endloop
  endfacet
  facet normal -1 0 0
    outer loop
      vertex -43 0 12
      vertex -43 7.5 12
      vertex -43 0 0
    endloop
  endfacet
  facet normal -1 0 0
    outer loop
      vertex -43 12.5 14.01
      vertex -43 7.5 12
      vertex -43 7.5 14.01
    endloop
  endfacet
  facet normal -1 0 0
    outer loop
      vertex -43 0 0
      vertex -43 7.5 12
      vertex -43 12.5 14.01
    endloop
  endfacet
  facet normal -1 0 0
    outer loop
      vertex -43 0 0
      vertex -43 12.5 14.01
      vertex -43 12.5 12
    endloop
  endfacet
  facet normal -1 0 0
    outer loop
      vertex -43 0 0
      vertex -43 12.5 12
      vertex -43 20 12
    endloop
  endfacet
  facet normal -1 -0 0
    outer loop
      vertex -43 0 0
      vertex -43 20 12
      vertex -43 20 0
    endloop
  endfacet
  facet normal -0.894154 0.447759 0
    outer loop
      vertex -43 20 12
      vertex -22.9695 60 12
      vertex -43 20 0
    endloop
  endfacet
  facet normal -0.894154 0.447759 0
    outer loop
      vertex -43 20 0
      vertex -22.9695 60 12
      vertex -22.9695 60 0
    endloop
  endfacet
  facet normal 0.994522 -0.104528 0
    outer loop
      vertex -15.1 10 0
      vertex -15.0541 10.4366 0
      vertex -15.0541 10.4366 12
    endloop
  endfacet
  facet normal 0.994522 -0.104528 0
    outer loop
      vertex -15.1 10 12
      vertex -15.1 10 0
      vertex -15.0541 10.4366 12
    endloop
  endfacet
  facet normal 0.994522 0.104528 0
    outer loop
      vertex -15.1 10 0
      vertex -15.1 10 12
      vertex -15.0541 9.56338 12
    endloop
  endfacet
  facet normal 0.994522 0.104528 0
    outer loop
      vertex -15.0541 9.56338 0
      vertex -15.1 10 0
      vertex -15.0541 9.56338 12
    endloop
  endfacet
  facet normal 0.951056 -0.309018 0
    outer loop
      vertex -15.0541 10.4366 0
      vertex -14.9184 10.8541 0
      vertex -14.9184 10.8541 12
    endloop
  endfacet
  facet normal 0.951056 -0.309018 0
    outer loop
      vertex -15.0541 10.4366 12
      vertex -15.0541 10.4366 0
      vertex -14.9184 10.8541 12
    endloop
  endfacet
  facet normal 0.866026 -0.499999 0
    outer loop
      vertex -14.9184 10.8541 0
      vertex -14.6989 11.2343 0
      vertex -14.6989 11.2343 12
    endloop
  endfacet
  facet normal 0.866026 -0.499999 0
    outer loop
      vertex -14.9184 10.8541 12
      vertex -14.9184 10.8541 0
      vertex -14.6989 11.2343 12
    endloop
  endfacet
  facet normal 0.743144 -0.669131 0
    outer loop
      vertex -14.6989 11.2343 0
      vertex -14.4052 11.5606 0
      vertex -14.4052 11.5606 12
    endloop
  endfacet
  facet normal 0.743144 -0.669131 0
    outer loop
      vertex -14.6989 11.2343 12
      vertex -14.6989 11.2343 0
      vertex -14.4052 11.5606 12
    endloop
  endfacet
  facet normal 0.587785 -0.809017 0
    outer loop
      vertex -14.4052 11.5606 0
      vertex -14.05 11.8187 0
      vertex -14.05 11.8187 12
    endloop
  endfacet
  facet normal 0.587785 -0.809017 0
    outer loop
      vertex -14.4052 11.5606 12
      vertex -14.4052 11.5606 0
      vertex -14.05 11.8187 12
    endloop
  endfacet
  facet normal 0.406738 -0.913545 0
    outer loop
      vertex -14.05 11.8187 0
      vertex -13.6489 11.9972 0
      vertex -13.6489 11.9972 12
    endloop
  endfacet
  facet normal 0.406738 -0.913545 0
    outer loop
      vertex -14.05 11.8187 12
      vertex -14.05 11.8187 0
      vertex -13.6489 11.9972 12
    endloop
  endfacet
  facet normal 0.207911 -0.978148 0
    outer loop
      vertex -13.6489 11.9972 0
      vertex -13.2195 12.0885 0
      vertex -13.2195 12.0885 12
    endloop
  endfacet
  facet normal 0.207911 -0.978148 0
    outer loop
      vertex -13.6489 11.9972 12
      vertex -13.6489 11.9972 0
      vertex -13.2195 12.0885 12
    endloop
  endfacet
  facet normal -0 -1 0
    outer loop
      vertex -13.2195 12.0885 0
      vertex -12.7805 12.0885 0
      vertex -12.7805 12.0885 12
    endloop
  endfacet
  facet normal 0 -1 0
    outer loop
      vertex -13.2195 12.0885 12
      vertex -13.2195 12.0885 0
      vertex -12.7805 12.0885 12
    endloop
  endfacet
  facet normal -0.207911 -0.978148 0
    outer loop
      vertex -12.7805 12.0885 0
      vertex -12.3511 11.9972 0
      vertex -12.3511 11.9972 12
    endloop
  endfacet
  facet normal -0.207911 -0.978148 0
    outer loop
      vertex -12.7805 12.0885 12
      vertex -12.7805 12.0885 0
      vertex -12.3511 11.9972 12
    endloop
  endfacet
  facet normal -0.406738 -0.913545 0
    outer loop
      vertex -12.3511 11.9972 0
      vertex -11.95 11.8187 0
      vertex -11.95 11.8187 12
    endloop
  endfacet
  facet normal -0.406738 -0.913545 0
    outer loop
      vertex -12.3511 11.9972 12
      vertex -12.3511 11.9972 0
      vertex -11.95 11.8187 12
    endloop
  endfacet
  facet normal -0.587785 -0.809017 0
    outer loop
      vertex -11.95 11.8187 0
      vertex -11.5948 11.5606 0
      vertex -11.5948 11.5606 12
    endloop
  endfacet
  facet normal -0.587785 -0.809017 0
    outer loop
      vertex -11.95 11.8187 12
      vertex -11.95 11.8187 0
      vertex -11.5948 11.5606 12
    endloop
  endfacet
  facet normal -0.743144 -0.669131 -0
    outer loop
      vertex -11.3011 11.2343 0
      vertex -11.3011 11.2343 12
      vertex -11.5948 11.5606 0
    endloop
  endfacet
  facet normal -0.743144 -0.669131 -0
    outer loop
      vertex -11.5948 11.5606 0
      vertex -11.3011 11.2343 12
      vertex -11.5948 11.5606 12
    endloop
  endfacet
  facet normal -0.866026 -0.499999 -0
    outer loop
      vertex -11.0816 10.8541 0
      vertex -11.0816 10.8541 12
      vertex -11.3011 11.2343 0
    endloop
  endfacet
  facet normal -0.866026 -0.499999 -0
    outer loop
      vertex -11.3011 11.2343 0
      vertex -11.0816 10.8541 12
      vertex -11.3011 11.2343 12
    endloop
  endfacet
  facet normal -0.951056 -0.309018 -0
    outer loop
      vertex -10.9459 10.4366 0
      vertex -10.9459 10.4366 12
      vertex -11.0816 10.8541 0
    endloop
  endfacet
  facet normal -0.951056 -0.309018 -0
    outer loop
      vertex -11.0816 10.8541 0
      vertex -10.9459 10.4366 12
      vertex -11.0816 10.8541 12
    endloop
  endfacet
  facet normal -0.994522 -0.104528 -0
    outer loop
      vertex -10.9 10 0
      vertex -10.9 10 12
      vertex -10.9459 10.4366 0
    endloop
  endfacet
  facet normal -0.994522 -0.104528 -0
    outer loop
      vertex -10.9459 10.4366 0
      vertex -10.9 10 12
      vertex -10.9459 10.4366 12
    endloop
  endfacet
  facet normal -0.994522 0.104528 0
    outer loop
      vertex -10.9459 9.56338 12
      vertex -10.9 10 12
      vertex -10.9459 9.56338 0
    endloop
  endfacet
  facet normal -0.994522 0.104528 0
    outer loop
      vertex -10.9459 9.56338 0
      vertex -10.9 10 12
      vertex -10.9 10 0
    endloop
  endfacet
  facet normal -0.951056 0.309018 0
    outer loop
      vertex -11.0816 9.14585 12
      vertex -10.9459 9.56338 12
      vertex -11.0816 9.14585 0
    endloop
  endfacet
  facet normal -0.951056 0.309018 0
    outer loop
      vertex -11.0816 9.14585 0
      vertex -10.9459 9.56338 12
      vertex -10.9459 9.56338 0
    endloop
  endfacet
  facet normal -0.866026 0.499999 0
    outer loop
      vertex -11.3011 8.76565 12
      vertex -11.0816 9.14585 12
      vertex -11.3011 8.76565 0
    endloop
  endfacet
  facet normal -0.866026 0.499999 0
    outer loop
      vertex -11.3011 8.76565 0
      vertex -11.0816 9.14585 12
      vertex -11.0816 9.14585 0
    endloop
  endfacet
  facet normal -0.743144 0.669131 0
    outer loop
      vertex -11.5948 8.4394 12
      vertex -11.3011 8.76565 12
      vertex -11.5948 8.4394 0
    endloop
  endfacet
  facet normal -0.743144 0.669131 0
    outer loop
      vertex -11.5948 8.4394 0
      vertex -11.3011 8.76565 12
      vertex -11.3011 8.76565 0
    endloop
  endfacet
  facet normal -0.587785 0.809017 0
    outer loop
      vertex -11.95 8.18135 12
      vertex -11.5948 8.4394 12
      vertex -11.95 8.18135 0
    endloop
  endfacet
  facet normal -0.587785 0.809017 0
    outer loop
      vertex -11.95 8.18135 0
      vertex -11.5948 8.4394 12
      vertex -11.5948 8.4394 0
    endloop
  endfacet
  facet normal -0.406738 0.913545 0
    outer loop
      vertex -12.3511 8.00278 12
      vertex -11.95 8.18135 12
      vertex -12.3511 8.00278 0
    endloop
  endfacet
  facet normal -0.406738 0.913545 0
    outer loop
      vertex -12.3511 8.00278 0
      vertex -11.95 8.18135 12
      vertex -11.95 8.18135 0
    endloop
  endfacet
  facet normal -0.207911 0.978148 0
    outer loop
      vertex -12.7805 7.9115 12
      vertex -12.3511 8.00278 12
      vertex -12.7805 7.9115 0
    endloop
  endfacet
  facet normal -0.207911 0.978148 0
    outer loop
      vertex -12.7805 7.9115 0
      vertex -12.3511 8.00278 12
      vertex -12.3511 8.00278 0
    endloop
  endfacet
  facet normal 0 1 -0
    outer loop
      vertex -13.2195 7.9115 12
      vertex -12.7805 7.9115 12
      vertex -13.2195 7.9115 0
    endloop
  endfacet
  facet normal 0 1 0
    outer loop
      vertex -13.2195 7.9115 0
      vertex -12.7805 7.9115 12
      vertex -12.7805 7.9115 0
    endloop
  endfacet
  facet normal 0.207911 0.978148 -0
    outer loop
      vertex -13.6489 8.00278 12
      vertex -13.2195 7.9115 12
      vertex -13.6489 8.00278 0
    endloop
  endfacet
  facet normal 0.207911 0.978148 0
    outer loop
      vertex -13.6489 8.00278 0
      vertex -13.2195 7.9115 12
      vertex -13.2195 7.9115 0
    endloop
  endfacet
  facet normal 0.406738 0.913545 -0
    outer loop
      vertex -14.05 8.18135 12
      vertex -13.6489 8.00278 12
      vertex -14.05 8.18135 0
    endloop
  endfacet
  facet normal 0.406738 0.913545 0
    outer loop
      vertex -14.05 8.18135 0
      vertex -13.6489 8.00278 12
      vertex -13.6489 8.00278 0
    endloop
  endfacet
  facet normal 0.587785 0.809017 -0
    outer loop
      vertex -14.4052 8.4394 12
      vertex -14.05 8.18135 12
      vertex -14.4052 8.4394 0
    endloop
  endfacet
  facet normal 0.587785 0.809017 0
    outer loop
      vertex -14.4052 8.4394 0
      vertex -14.05 8.18135 12
      vertex -14.05 8.18135 0
    endloop
  endfacet
  facet normal 0.743144 0.669131 0
    outer loop
      vertex -14.6989 8.76565 0
      vertex -14.6989 8.76565 12
      vertex -14.4052 8.4394 12
    endloop
  endfacet
  facet normal 0.743144 0.669131 0
    outer loop
      vertex -14.4052 8.4394 0
      vertex -14.6989 8.76565 0
      vertex -14.4052 8.4394 12
    endloop
  endfacet
  facet normal 0.866026 0.499999 0
    outer loop
      vertex -14.9184 9.14585 0
      vertex -14.9184 9.14585 12
      vertex -14.6989 8.76565 12
    endloop
  endfacet
  facet normal 0.866026 0.499999 0
    outer loop
      vertex -14.6989 8.76565 0
      vertex -14.9184 9.14585 0
      vertex -14.6989 8.76565 12
    endloop
  endfacet
  facet normal 0.951056 0.309018 0
    outer loop
      vertex -15.0541 9.56338 0
      vertex -15.0541 9.56338 12
      vertex -14.9184 9.14585 12
    endloop
  endfacet
  facet normal 0.951056 0.309018 0
    outer loop
      vertex -14.9184 9.14585 0
      vertex -15.0541 9.56338 0
      vertex -14.9184 9.14585 12
    endloop
  endfacet
  facet normal 0.994522 -0.104528 0
    outer loop
      vertex -15.1 30 0
      vertex -15.0541 30.4366 0
      vertex -15.0541 30.4366 12
    endloop
  endfacet
  facet normal 0.994522 -0.104528 0
    outer loop
      vertex -15.1 30 12
      vertex -15.1 30 0
      vertex -15.0541 30.4366 12
    endloop
  endfacet
  facet normal 0.994522 0.104528 0
    outer loop
      vertex -15.1 30 0
      vertex -15.1 30 12
      vertex -15.0541 29.5634 12
    endloop
  endfacet
  facet normal 0.994522 0.104528 0
    outer loop
      vertex -15.0541 29.5634 0
      vertex -15.1 30 0
      vertex -15.0541 29.5634 12
    endloop
  endfacet
  facet normal 0.951056 -0.309018 0
    outer loop
      vertex -15.0541 30.4366 0
      vertex -14.9184 30.8541 0
      vertex -14.9184 30.8541 12
    endloop
  endfacet
  facet normal 0.951056 -0.309018 0
    outer loop
      vertex -15.0541 30.4366 12
      vertex -15.0541 30.4366 0
      vertex -14.9184 30.8541 12
    endloop
  endfacet
  facet normal 0.866026 -0.499999 0
    outer loop
      vertex -14.9184 30.8541 0
      vertex -14.6989 31.2343 0
      vertex -14.6989 31.2343 12
    endloop
  endfacet
  facet normal 0.866026 -0.499999 0
    outer loop
      vertex -14.9184 30.8541 12
      vertex -14.9184 30.8541 0
      vertex -14.6989 31.2343 12
    endloop
  endfacet
  facet normal 0.743144 -0.669131 0
    outer loop
      vertex -14.6989 31.2343 0
      vertex -14.4052 31.5606 0
      vertex -14.4052 31.5606 12
    endloop
  endfacet
  facet normal 0.743144 -0.669131 0
    outer loop
      vertex -14.6989 31.2343 12
      vertex -14.6989 31.2343 0
      vertex -14.4052 31.5606 12
    endloop
  endfacet
  facet normal 0.587785 -0.809017 0
    outer loop
      vertex -14.4052 31.5606 0
      vertex -14.05 31.8187 0
      vertex -14.05 31.8187 12
    endloop
  endfacet
  facet normal 0.587785 -0.809017 0
    outer loop
      vertex -14.4052 31.5606 12
      vertex -14.4052 31.5606 0
      vertex -14.05 31.8187 12
    endloop
  endfacet
  facet normal 0.406738 -0.913545 0
    outer loop
      vertex -14.05 31.8187 0
      vertex -13.6489 31.9972 0
      vertex -13.6489 31.9972 12
    endloop
  endfacet
  facet normal 0.406738 -0.913545 0
    outer loop
      vertex -14.05 31.8187 12
      vertex -14.05 31.8187 0
      vertex -13.6489 31.9972 12
    endloop
  endfacet
  facet normal 0.207911 -0.978148 0
    outer loop
      vertex -13.6489 31.9972 0
      vertex -13.2195 32.0885 0
      vertex -13.2195 32.0885 12
    endloop
  endfacet
  facet normal 0.207911 -0.978148 0
    outer loop
      vertex -13.6489 31.9972 12
      vertex -13.6489 31.9972 0
      vertex -13.2195 32.0885 12
    endloop
  endfacet
  facet normal -0 -1 0
    outer loop
      vertex -13.2195 32.0885 0
      vertex -12.7805 32.0885 0
      vertex -12.7805 32.0885 12
    endloop
  endfacet
  facet normal 0 -1 0
    outer loop
      vertex -13.2195 32.0885 12
      vertex -13.2195 32.0885 0
      vertex -12.7805 32.0885 12
    endloop
  endfacet
  facet normal -0.207911 -0.978148 0
    outer loop
      vertex -12.7805 32.0885 0
      vertex -12.3511 31.9972 0
      vertex -12.3511 31.9972 12
    endloop
  endfacet
  facet normal -0.207911 -0.978148 0
    outer loop
      vertex -12.7805 32.0885 12
      vertex -12.7805 32.0885 0
      vertex -12.3511 31.9972 12
    endloop
  endfacet
  facet normal -0.406738 -0.913545 0
    outer loop
      vertex -12.3511 31.9972 0
      vertex -11.95 31.8187 0
      vertex -11.95 31.8187 12
    endloop
  endfacet
  facet normal -0.406738 -0.913545 0
    outer loop
      vertex -12.3511 31.9972 12
      vertex -12.3511 31.9972 0
      vertex -11.95 31.8187 12
    endloop
  endfacet
  facet normal -0.587785 -0.809017 0
    outer loop
      vertex -11.95 31.8187 0
      vertex -11.5948 31.5606 0
      vertex -11.5948 31.5606 12
    endloop
  endfacet
  facet normal -0.587785 -0.809017 0
    outer loop
      vertex -11.95 31.8187 12
      vertex -11.95 31.8187 0
      vertex -11.5948 31.5606 12
    endloop
  endfacet
  facet normal -0.743144 -0.669131 -0
    outer loop
      vertex -11.3011 31.2343 0
      vertex -11.3011 31.2343 12
      vertex -11.5948 31.5606 0
    endloop
  endfacet
  facet normal -0.743144 -0.669131 -0
    outer loop
      vertex -11.5948 31.5606 0
      vertex -11.3011 31.2343 12
      vertex -11.5948 31.5606 12
    endloop
  endfacet
  facet normal -0.866026 -0.499999 -0
    outer loop
      vertex -11.0816 30.8541 0
      vertex -11.0816 30.8541 12
      vertex -11.3011 31.2343 0
    endloop
  endfacet
  facet normal -0.866026 -0.499999 -0
    outer loop
      vertex -11.3011 31.2343 0
      vertex -11.0816 30.8541 12
      vertex -11.3011 31.2343 12
    endloop
  endfacet
  facet normal -0.951056 -0.309018 -0
    outer loop
      vertex -10.9459 30.4366 0
      vertex -10.9459 30.4366 12
      vertex -11.0816 30.8541 0
    endloop
  endfacet
  facet normal -0.951056 -0.309018 -0
    outer loop
      vertex -11.0816 30.8541 0
      vertex -10.9459 30.4366 12
      vertex -11.0816 30.8541 12
    endloop
  endfacet
  facet normal -0.994522 -0.104528 -0
    outer loop
      vertex -10.9 30 0
      vertex -10.9 30 12
      vertex -10.9459 30.4366 0
    endloop
  endfacet
  facet normal -0.994522 -0.104528 -0
    outer loop
      vertex -10.9459 30.4366 0
      vertex -10.9 30 12
      vertex -10.9459 30.4366 12
    endloop
  endfacet
  facet normal -0.994522 0.104528 0
    outer loop
      vertex -10.9459 29.5634 12
      vertex -10.9 30 12
      vertex -10.9459 29.5634 0
    endloop
  endfacet
  facet normal -0.994522 0.104528 0
    outer loop
      vertex -10.9459 29.5634 0
      vertex -10.9 30 12
      vertex -10.9 30 0
    endloop
  endfacet
  facet normal -0.951056 0.309018 0
    outer loop
      vertex -11.0816 29.1459 12
      vertex -10.9459 29.5634 12
      vertex -11.0816 29.1459 0
    endloop
  endfacet
  facet normal -0.951056 0.309018 0
    outer loop
      vertex -11.0816 29.1459 0
      vertex -10.9459 29.5634 12
      vertex -10.9459 29.5634 0
    endloop
  endfacet
  facet normal -0.866026 0.499999 0
    outer loop
      vertex -11.3011 28.7657 12
      vertex -11.0816 29.1459 12
      vertex -11.3011 28.7657 0
    endloop
  endfacet
  facet normal -0.866026 0.499999 0
    outer loop
      vertex -11.3011 28.7657 0
      vertex -11.0816 29.1459 12
      vertex -11.0816 29.1459 0
    endloop
  endfacet
  facet normal -0.743144 0.669131 0
    outer loop
      vertex -11.5948 28.4394 12
      vertex -11.3011 28.7657 12
      vertex -11.5948 28.4394 0
    endloop
  endfacet
  facet normal -0.743144 0.669131 0
    outer loop
      vertex -11.5948 28.4394 0
      vertex -11.3011 28.7657 12
      vertex -11.3011 28.7657 0
    endloop
  endfacet
  facet normal -0.587785 0.809017 0
    outer loop
      vertex -11.95 28.1813 12
      vertex -11.5948 28.4394 12
      vertex -11.95 28.1813 0
    endloop
  endfacet
  facet normal -0.587785 0.809017 0
    outer loop
      vertex -11.95 28.1813 0
      vertex -11.5948 28.4394 12
      vertex -11.5948 28.4394 0
    endloop
  endfacet
  facet normal -0.406738 0.913545 0
    outer loop
      vertex -12.3511 28.0028 12
      vertex -11.95 28.1813 12
      vertex -12.3511 28.0028 0
    endloop
  endfacet
  facet normal -0.406738 0.913545 0
    outer loop
      vertex -12.3511 28.0028 0
      vertex -11.95 28.1813 12
      vertex -11.95 28.1813 0
    endloop
  endfacet
  facet normal -0.207911 0.978148 0
    outer loop
      vertex -12.7805 27.9115 12
      vertex -12.3511 28.0028 12
      vertex -12.7805 27.9115 0
    endloop
  endfacet
  facet normal -0.207911 0.978148 0
    outer loop
      vertex -12.7805 27.9115 0
      vertex -12.3511 28.0028 12
      vertex -12.3511 28.0028 0
    endloop
  endfacet
  facet normal 0 1 -0
    outer loop
      vertex -13.2195 27.9115 12
      vertex -12.7805 27.9115 12
      vertex -13.2195 27.9115 0
    endloop
  endfacet
  facet normal 0 1 0
    outer loop
      vertex -13.2195 27.9115 0
      vertex -12.7805 27.9115 12
      vertex -12.7805 27.9115 0
    endloop
  endfacet
  facet normal 0.207911 0.978148 -0
    outer loop
      vertex -13.6489 28.0028 12
      vertex -13.2195 27.9115 12
      vertex -13.6489 28.0028 0
    endloop
  endfacet
  facet normal 0.207911 0.978148 0
    outer loop
      vertex -13.6489 28.0028 0
      vertex -13.2195 27.9115 12
      vertex -13.2195 27.9115 0
    endloop
  endfacet
  facet normal 0.406738 0.913545 -0
    outer loop
      vertex -14.05 28.1813 12
      vertex -13.6489 28.0028 12
      vertex -14.05 28.1813 0
    endloop
  endfacet
  facet normal 0.406738 0.913545 0
    outer loop
      vertex -14.05 28.1813 0
      vertex -13.6489 28.0028 12
      vertex -13.6489 28.0028 0
    endloop
  endfacet
  facet normal 0.587785 0.809017 -0
    outer loop
      vertex -14.4052 28.4394 12
      vertex -14.05 28.1813 12
      vertex -14.4052 28.4394 0
    endloop
  endfacet
  facet normal 0.587785 0.809017 0
    outer loop
      vertex -14.4052 28.4394 0
      vertex -14.05 28.1813 12
      vertex -14.05 28.1813 0
    endloop
  endfacet
  facet normal 0.743144 0.669131 0
    outer loop
      vertex -14.6989 28.7657 0
      vertex -14.6989 28.7657 12
      vertex -14.4052 28.4394 12
    endloop
  endfacet
  facet normal 0.743144 0.669131 0
    outer loop
      vertex -14.4052 28.4394 0
      vertex -14.6989 28.7657 0
      vertex -14.4052 28.4394 12
    endloop
  endfacet
  facet normal 0.866026 0.499999 0
    outer loop
      vertex -14.9184 29.1459 0
      vertex -14.9184 29.1459 12
      vertex -14.6989 28.7657 12
    endloop
  endfacet
  facet normal 0.866026 0.499999 0
    outer loop
      vertex -14.6989 28.7657 0
      vertex -14.9184 29.1459 0
      vertex -14.6989 28.7657 12
    endloop
  endfacet
  facet normal 0.951056 0.309018 0
    outer loop
      vertex -15.0541 29.5634 0
      vertex -15.0541 29.5634 12
      vertex -14.9184 29.1459 12
    endloop
  endfacet
  facet normal 0.951056 0.309018 0
    outer loop
      vertex -14.9184 29.1459 0
      vertex -15.0541 29.5634 0
      vertex -14.9184 29.1459 12
    endloop
  endfacet
  facet normal 0.994522 -0.104528 0
    outer loop
      vertex -15.1 50 0
      vertex -15.0541 50.4366 0
      vertex -15.0541 50.4366 12
    endloop
  endfacet
  facet normal 0.994522 -0.104528 0
    outer loop
      vertex -15.1 50 12
      vertex -15.1 50 0
      vertex -15.0541 50.4366 12
    endloop
  endfacet
  facet normal 0.994522 0.104528 0
    outer loop
      vertex -15.1 50 0
      vertex -15.1 50 12
      vertex -15.0541 49.5634 12
    endloop
  endfacet
  facet normal 0.994522 0.104528 0
    outer loop
      vertex -15.0541 49.5634 0
      vertex -15.1 50 0
      vertex -15.0541 49.5634 12
    endloop
  endfacet
  facet normal 0.951056 -0.309018 0
    outer loop
      vertex -15.0541 50.4366 0
      vertex -14.9184 50.8541 0
      vertex -14.9184 50.8541 12
    endloop
  endfacet
  facet normal 0.951056 -0.309018 0
    outer loop
      vertex -15.0541 50.4366 12
      vertex -15.0541 50.4366 0
      vertex -14.9184 50.8541 12
    endloop
  endfacet
  facet normal 0.866026 -0.499999 0
    outer loop
      vertex -14.9184 50.8541 0
      vertex -14.6989 51.2343 0
      vertex -14.6989 51.2343 12
    endloop
  endfacet
  facet normal 0.866026 -0.499999 0
    outer loop
      vertex -14.9184 50.8541 12
      vertex -14.9184 50.8541 0
      vertex -14.6989 51.2343 12
    endloop
  endfacet
  facet normal 0.743144 -0.669131 0
    outer loop
      vertex -14.6989 51.2343 0
      vertex -14.4052 51.5606 0
      vertex -14.4052 51.5606 12
    endloop
  endfacet
  facet normal 0.743144 -0.669131 0
    outer loop
      vertex -14.6989 51.2343 12
      vertex -14.6989 51.2343 0
      vertex -14.4052 51.5606 12
    endloop
  endfacet
  facet normal 0.587785 -0.809017 0
    outer loop
      vertex -14.4052 51.5606 0
      vertex -14.05 51.8187 0
      vertex -14.05 51.8187 12
    endloop
  endfacet
  facet normal 0.587785 -0.809017 0
    outer loop
      vertex -14.4052 51.5606 12
      vertex -14.4052 51.5606 0
      vertex -14.05 51.8187 12
    endloop
  endfacet
  facet normal 0.406738 -0.913545 0
    outer loop
      vertex -14.05 51.8187 0
      vertex -13.6489 51.9972 0
      vertex -13.6489 51.9972 12
    endloop
  endfacet
  facet normal 0.406738 -0.913545 0
    outer loop
      vertex -14.05 51.8187 12
      vertex -14.05 51.8187 0
      vertex -13.6489 51.9972 12
    endloop
  endfacet
  facet normal 0.207911 -0.978148 0
    outer loop
      vertex -13.6489 51.9972 0
      vertex -13.2195 52.0885 0
      vertex -13.2195 52.0885 12
    endloop
  endfacet
  facet normal 0.207911 -0.978148 0
    outer loop
      vertex -13.6489 51.9972 12
      vertex -13.6489 51.9972 0
      vertex -13.2195 52.0885 12
    endloop
  endfacet
  facet normal -0 -1 0
    outer loop
      vertex -13.2195 52.0885 0
      vertex -12.7805 52.0885 0
      vertex -12.7805 52.0885 12
    endloop
  endfacet
  facet normal 0 -1 0
    outer loop
      vertex -13.2195 52.0885 12
      vertex -13.2195 52.0885 0
      vertex -12.7805 52.0885 12
    endloop
  endfacet
  facet normal -0.207911 -0.978148 0
    outer loop
      vertex -12.7805 52.0885 0
      vertex -12.3511 51.9972 0
      vertex -12.3511 51.9972 12
    endloop
  endfacet
  facet normal -0.207911 -0.978148 0
    outer loop
      vertex -12.7805 52.0885 12
      vertex -12.7805 52.0885 0
      vertex -12.3511 51.9972 12
    endloop
  endfacet
  facet normal -0.406738 -0.913545 0
    outer loop
      vertex -12.3511 51.9972 0
      vertex -11.95 51.8187 0
      vertex -11.95 51.8187 12
    endloop
  endfacet
  facet normal -0.406738 -0.913545 0
    outer loop
      vertex -12.3511 51.9972 12
      vertex -12.3511 51.9972 0
      vertex -11.95 51.8187 12
    endloop
  endfacet
  facet normal -0.587785 -0.809017 0
    outer loop
      vertex -11.95 51.8187 0
      vertex -11.5948 51.5606 0
      vertex -11.5948 51.5606 12
    endloop
  endfacet
  facet normal -0.587785 -0.809017 0
    outer loop
      vertex -11.95 51.8187 12
      vertex -11.95 51.8187 0
      vertex -11.5948 51.5606 12
    endloop
  endfacet
  facet normal -0.743144 -0.669131 -0
    outer loop
      vertex -11.3011 51.2343 0
      vertex -11.3011 51.2343 12
      vertex -11.5948 51.5606 0
    endloop
  endfacet
  facet normal -0.743144 -0.669131 -0
    outer loop
      vertex -11.5948 51.5606 0
      vertex -11.3011 51.2343 12
      vertex -11.5948 51.5606 12
    endloop
  endfacet
  facet normal -0.866026 -0.499999 -0
    outer loop
      vertex -11.0816 50.8541 0
      vertex -11.0816 50.8541 12
      vertex -11.3011 51.2343 0
    endloop
  endfacet
  facet normal -0.866026 -0.499999 -0
    outer loop
      vertex -11.3011 51.2343 0
      vertex -11.0816 50.8541 12
      vertex -11.3011 51.2343 12
    endloop
  endfacet
  facet normal -0.951056 -0.309018 -0
    outer loop
      vertex -10.9459 50.4366 0
      vertex -10.9459 50.4366 12
      vertex -11.0816 50.8541 0
    endloop
  endfacet
  facet normal -0.951056 -0.309018 -0
    outer loop
      vertex -11.0816 50.8541 0
      vertex -10.9459 50.4366 12
      vertex -11.0816 50.8541 12
    endloop
  endfacet
  facet normal -0.994522 -0.104528 -0
    outer loop
      vertex -10.9 50 0
      vertex -10.9 50 12
      vertex -10.9459 50.4366 0
    endloop
  endfacet
  facet normal -0.994522 -0.104528 -0
    outer loop
      vertex -10.9459 50.4366 0
      vertex -10.9 50 12
      vertex -10.9459 50.4366 12
    endloop
  endfacet
  facet normal -0.994522 0.104528 0
    outer loop
      vertex -10.9459 49.5634 12
      vertex -10.9 50 12
      vertex -10.9459 49.5634 0
    endloop
  endfacet
  facet normal -0.994522 0.104528 0
    outer loop
      vertex -10.9459 49.5634 0
      vertex -10.9 50 12
      vertex -10.9 50 0
    endloop
  endfacet
  facet normal -0.951056 0.309018 0
    outer loop
      vertex -11.0816 49.1459 12
      vertex -10.9459 49.5634 12
      vertex -11.0816 49.1459 0
    endloop
  endfacet
  facet normal -0.951056 0.309018 0
    outer loop
      vertex -11.0816 49.1459 0
      vertex -10.9459 49.5634 12
      vertex -10.9459 49.5634 0
    endloop
  endfacet
  facet normal -0.866026 0.499999 0
    outer loop
      vertex -11.3011 48.7657 12
      vertex -11.0816 49.1459 12
      vertex -11.3011 48.7657 0
    endloop
  endfacet
  facet normal -0.866026 0.499999 0
    outer loop
      vertex -11.3011 48.7657 0
      vertex -11.0816 49.1459 12
      vertex -11.0816 49.1459 0
    endloop
  endfacet
  facet normal -0.743144 0.669131 0
    outer loop
      vertex -11.5948 48.4394 12
      vertex -11.3011 48.7657 12
      vertex -11.5948 48.4394 0
    endloop
  endfacet
  facet normal -0.743144 0.669131 0
    outer loop
      vertex -11.5948 48.4394 0
      vertex -11.3011 48.7657 12
      vertex -11.3011 48.7657 0
    endloop
  endfacet
  facet normal -0.587785 0.809017 0
    outer loop
      vertex -11.95 48.1813 12
      vertex -11.5948 48.4394 12
      vertex -11.95 48.1813 0
    endloop
  endfacet
  facet normal -0.587785 0.809017 0
    outer loop
      vertex -11.95 48.1813 0
      vertex -11.5948 48.4394 12
      vertex -11.5948 48.4394 0
    endloop
  endfacet
  facet normal -0.406738 0.913545 0
    outer loop
      vertex -12.3511 48.0028 12
      vertex -11.95 48.1813 12
      vertex -12.3511 48.0028 0
    endloop
  endfacet
  facet normal -0.406738 0.913545 0
    outer loop
      vertex -12.3511 48.0028 0
      vertex -11.95 48.1813 12
      vertex -11.95 48.1813 0
    endloop
  endfacet
  facet normal -0.207911 0.978148 0
    outer loop
      vertex -12.7805 47.9115 12
      vertex -12.3511 48.0028 12
      vertex -12.7805 47.9115 0
    endloop
  endfacet
  facet normal -0.207911 0.978148 0
    outer loop
      vertex -12.7805 47.9115 0
      vertex -12.3511 48.0028 12
      vertex -12.3511 48.0028 0
    endloop
  endfacet
  facet normal 0 1 -0
    outer loop
      vertex -13.2195 47.9115 12
      vertex -12.7805 47.9115 12
      vertex -13.2195 47.9115 0
    endloop
  endfacet
  facet normal 0 1 0
    outer loop
      vertex -13.2195 47.9115 0
      vertex -12.7805 47.9115 12
      vertex -12.7805 47.9115 0
    endloop
  endfacet
  facet normal 0.207911 0.978148 -0
    outer loop
      vertex -13.6489 48.0028 12
      vertex -13.2195 47.9115 12
      vertex -13.6489 48.0028 0
    endloop
  endfacet
  facet normal 0.207911 0.978148 0
    outer loop
      vertex -13.6489 48.0028 0
      vertex -13.2195 47.9115 12
      vertex -13.2195 47.9115 0
    endloop
  endfacet
  facet normal 0.406738 0.913545 -0
    outer loop
      vertex -14.05 48.1813 12
      vertex -13.6489 48.0028 12
      vertex -14.05 48.1813 0
    endloop
  endfacet
  facet normal 0.406738 0.913545 0
    outer loop
      vertex -14.05 48.1813 0
      vertex -13.6489 48.0028 12
      vertex -13.6489 48.0028 0
    endloop
  endfacet
  facet normal 0.587785 0.809017 -0
    outer loop
      vertex -14.4052 48.4394 12
      vertex -14.05 48.1813 12
      vertex -14.4052 48.4394 0
    endloop
  endfacet
  facet normal 0.587785 0.809017 0
    outer loop
      vertex -14.4052 48.4394 0
      vertex -14.05 48.1813 12
      vertex -14.05 48.1813 0
    endloop
  endfacet
  facet normal 0.743144 0.669131 0
    outer loop
      vertex -14.6989 48.7657 0
      vertex -14.6989 48.7657 12
      vertex -14.4052 48.4394 12
    endloop
  endfacet
  facet normal 0.743144 0.669131 0
    outer loop
      vertex -14.4052 48.4394 0
      vertex -14.6989 48.7657 0
      vertex -14.4052 48.4394 12
    endloop
  endfacet
  facet normal 0.866026 0.499999 0
    outer loop
      vertex -14.9184 49.1459 0
      vertex -14.9184 49.1459 12
      vertex -14.6989 48.7657 12
    endloop
  endfacet
  facet normal 0.866026 0.499999 0
    outer loop
      vertex -14.6989 48.7657 0
      vertex -14.9184 49.1459 0
      vertex -14.6989 48.7657 12
    endloop
  endfacet
  facet normal 0.951056 0.309018 0
    outer loop
      vertex -15.0541 49.5634 0
      vertex -15.0541 49.5634 12
      vertex -14.9184 49.1459 12
    endloop
  endfacet
  facet normal 0.951056 0.309018 0
    outer loop
      vertex -14.9184 49.1459 0
      vertex -15.0541 49.5634 0
      vertex -14.9184 49.1459 12
    endloop
  endfacet
  facet normal 0.994522 -0.104528 0
    outer loop
      vertex -35.1 10 0
      vertex -35.0541 10.4366 0
      vertex -35.0541 10.4366 12
    endloop
  endfacet
  facet normal 0.994522 -0.104528 0
    outer loop
      vertex -35.1 10 12
      vertex -35.1 10 0
      vertex -35.0541 10.4366 12
    endloop
  endfacet
  facet normal 0.994522 0.104528 0
    outer loop
      vertex -35.1 10 0
      vertex -35.1 10 12
      vertex -35.0541 9.56338 12
    endloop
  endfacet
  facet normal 0.994522 0.104528 0
    outer loop
      vertex -35.0541 9.56338 0
      vertex -35.1 10 0
      vertex -35.0541 9.56338 12
    endloop
  endfacet
  facet normal 0.951056 -0.309018 0
    outer loop
      vertex -35.0541 10.4366 0
      vertex -34.9184 10.8541 0
      vertex -34.9184 10.8541 12
    endloop
  endfacet
  facet normal 0.951056 -0.309018 0
    outer loop
      vertex -35.0541 10.4366 12
      vertex -35.0541 10.4366 0
      vertex -34.9184 10.8541 12
    endloop
  endfacet
  facet normal 0.866026 -0.499999 0
    outer loop
      vertex -34.9184 10.8541 0
      vertex -34.6989 11.2343 0
      vertex -34.6989 11.2343 12
    endloop
  endfacet
  facet normal 0.866026 -0.499999 0
    outer loop
      vertex -34.9184 10.8541 12
      vertex -34.9184 10.8541 0
      vertex -34.6989 11.2343 12
    endloop
  endfacet
  facet normal 0.743144 -0.669131 0
    outer loop
      vertex -34.6989 11.2343 0
      vertex -34.4052 11.5606 0
      vertex -34.4052 11.5606 12
    endloop
  endfacet
  facet normal 0.743144 -0.669131 0
    outer loop
      vertex -34.6989 11.2343 12
      vertex -34.6989 11.2343 0
      vertex -34.4052 11.5606 12
    endloop
  endfacet
  facet normal 0.587785 -0.809017 0
    outer loop
      vertex -34.4052 11.5606 0
      vertex -34.05 11.8187 0
      vertex -34.05 11.8187 12
    endloop
  endfacet
  facet normal 0.587785 -0.809017 0
    outer loop
      vertex -34.4052 11.5606 12
      vertex -34.4052 11.5606 0
      vertex -34.05 11.8187 12
    endloop
  endfacet
  facet normal 0.406738 -0.913545 0
    outer loop
      vertex -34.05 11.8187 0
      vertex -33.6489 11.9972 0
      vertex -33.6489 11.9972 12
    endloop
  endfacet
  facet normal 0.406738 -0.913545 0
    outer loop
      vertex -34.05 11.8187 12
      vertex -34.05 11.8187 0
      vertex -33.6489 11.9972 12
    endloop
  endfacet
  facet normal 0.207911 -0.978148 0
    outer loop
      vertex -33.6489 11.9972 0
      vertex -33.2195 12.0885 0
      vertex -33.2195 12.0885 12
    endloop
  endfacet
  facet normal 0.207911 -0.978148 0
    outer loop
      vertex -33.6489 11.9972 12
      vertex -33.6489 11.9972 0
      vertex -33.2195 12.0885 12
    endloop
  endfacet
  facet normal -0 -1 0
    outer loop
      vertex -33.2195 12.0885 0
      vertex -32.7805 12.0885 0
      vertex -32.7805 12.0885 12
    endloop
  endfacet
  facet normal 0 -1 0
    outer loop
      vertex -33.2195 12.0885 12
      vertex -33.2195 12.0885 0
      vertex -32.7805 12.0885 12
    endloop
  endfacet
  facet normal -0.207911 -0.978148 0
    outer loop
      vertex -32.7805 12.0885 0
      vertex -32.3511 11.9972 0
      vertex -32.3511 11.9972 12
    endloop
  endfacet
  facet normal -0.207911 -0.978148 0
    outer loop
      vertex -32.7805 12.0885 12
      vertex -32.7805 12.0885 0
      vertex -32.3511 11.9972 12
    endloop
  endfacet
  facet normal -0.406738 -0.913545 0
    outer loop
      vertex -32.3511 11.9972 0
      vertex -31.95 11.8187 0
      vertex -31.95 11.8187 12
    endloop
  endfacet
  facet normal -0.406738 -0.913545 0
    outer loop
      vertex -32.3511 11.9972 12
      vertex -32.3511 11.9972 0
      vertex -31.95 11.8187 12
    endloop
  endfacet
  facet normal -0.587785 -0.809017 0
    outer loop
      vertex -31.95 11.8187 0
      vertex -31.5948 11.5606 0
      vertex -31.5948 11.5606 12
    endloop
  endfacet
  facet normal -0.587785 -0.809017 0
    outer loop
      vertex -31.95 11.8187 12
      vertex -31.95 11.8187 0
      vertex -31.5948 11.5606 12
    endloop
  endfacet
  facet normal -0.743144 -0.669131 -0
    outer loop
      vertex -31.3011 11.2343 0
      vertex -31.3011 11.2343 12
      vertex -31.5948 11.5606 0
    endloop
  endfacet
  facet normal -0.743144 -0.669131 -0
    outer loop
      vertex -31.5948 11.5606 0
      vertex -31.3011 11.2343 12
      vertex -31.5948 11.5606 12
    endloop
  endfacet
  facet normal -0.866026 -0.499999 -0
    outer loop
      vertex -31.0816 10.8541 0
      vertex -31.0816 10.8541 12
      vertex -31.3011 11.2343 0
    endloop
  endfacet
  facet normal -0.866026 -0.499999 -0
    outer loop
      vertex -31.3011 11.2343 0
      vertex -31.0816 10.8541 12
      vertex -31.3011 11.2343 12
    endloop
  endfacet
  facet normal -0.951056 -0.309018 -0
    outer loop
      vertex -30.9459 10.4366 0
      vertex -30.9459 10.4366 12
      vertex -31.0816 10.8541 0
    endloop
  endfacet
  facet normal -0.951056 -0.309018 -0
    outer loop
      vertex -31.0816 10.8541 0
      vertex -30.9459 10.4366 12
      vertex -31.0816 10.8541 12
    endloop
  endfacet
  facet normal -0.994522 -0.104528 -0
    outer loop
      vertex -30.9 10 0
      vertex -30.9 10 12
      vertex -30.9459 10.4366 0
    endloop
  endfacet
  facet normal -0.994522 -0.104528 -0
    outer loop
      vertex -30.9459 10.4366 0
      vertex -30.9 10 12
      vertex -30.9459 10.4366 12
    endloop
  endfacet
  facet normal -0.994522 0.104528 0
    outer loop
      vertex -30.9459 9.56338 12
      vertex -30.9 10 12
      vertex -30.9459 9.56338 0
    endloop
  endfacet
  facet normal -0.994522 0.104528 0
    outer loop
      vertex -30.9459 9.56338 0
      vertex -30.9 10 12
      vertex -30.9 10 0
    endloop
  endfacet
  facet normal -0.951056 0.309018 0
    outer loop
      vertex -31.0816 9.14585 12
      vertex -30.9459 9.56338 12
      vertex -31.0816 9.14585 0
    endloop
  endfacet
  facet normal -0.951056 0.309018 0
    outer loop
      vertex -31.0816 9.14585 0
      vertex -30.9459 9.56338 12
      vertex -30.9459 9.56338 0
    endloop
  endfacet
  facet normal -0.866026 0.499999 0
    outer loop
      vertex -31.3011 8.76565 12
      vertex -31.0816 9.14585 12
      vertex -31.3011 8.76565 0
    endloop
  endfacet
  facet normal -0.866026 0.499999 0
    outer loop
      vertex -31.3011 8.76565 0
      vertex -31.0816 9.14585 12
      vertex -31.0816 9.14585 0
    endloop
  endfacet
  facet normal -0.743144 0.669131 0
    outer loop
      vertex -31.5948 8.4394 12
      vertex -31.3011 8.76565 12
      vertex -31.5948 8.4394 0
    endloop
  endfacet
  facet normal -0.743144 0.669131 0
    outer loop
      vertex -31.5948 8.4394 0
      vertex -31.3011 8.76565 12
      vertex -31.3011 8.76565 0
    endloop
  endfacet
  facet normal -0.587785 0.809017 0
    outer loop
      vertex -31.95 8.18135 12
      vertex -31.5948 8.4394 12
      vertex -31.95 8.18135 0
    endloop
  endfacet
  facet normal -0.587785 0.809017 0
    outer loop
      vertex -31.95 8.18135 0
      vertex -31.5948 8.4394 12
      vertex -31.5948 8.4394 0
    endloop
  endfacet
  facet normal -0.406738 0.913545 0
    outer loop
      vertex -32.3511 8.00278 12
      vertex -31.95 8.18135 12
      vertex -32.3511 8.00278 0
    endloop
  endfacet
  facet normal -0.406738 0.913545 0
    outer loop
      vertex -32.3511 8.00278 0
      vertex -31.95 8.18135 12
      vertex -31.95 8.18135 0
    endloop
  endfacet
  facet normal -0.207911 0.978148 0
    outer loop
      vertex -32.7805 7.9115 12
      vertex -32.3511 8.00278 12
      vertex -32.7805 7.9115 0
    endloop
  endfacet
  facet normal -0.207911 0.978148 0
    outer loop
      vertex -32.7805 7.9115 0
      vertex -32.3511 8.00278 12
      vertex -32.3511 8.00278 0
    endloop
  endfacet
  facet normal 0 1 -0
    outer loop
      vertex -33.2195 7.9115 12
      vertex -32.7805 7.9115 12
      vertex -33.2195 7.9115 0
    endloop
  endfacet
  facet normal 0 1 0
    outer loop
      vertex -33.2195 7.9115 0
      vertex -32.7805 7.9115 12
      vertex -32.7805 7.9115 0
    endloop
  endfacet
  facet normal 0.207911 0.978148 -0
    outer loop
      vertex -33.6489 8.00278 12
      vertex -33.2195 7.9115 12
      vertex -33.6489 8.00278 0
    endloop
  endfacet
  facet normal 0.207911 0.978148 0
    outer loop
      vertex -33.6489 8.00278 0
      vertex -33.2195 7.9115 12
      vertex -33.2195 7.9115 0
    endloop
  endfacet
  facet normal 0.406738 0.913545 -0
    outer loop
      vertex -34.05 8.18135 12
      vertex -33.6489 8.00278 12
      vertex -34.05 8.18135 0
    endloop
  endfacet
  facet normal 0.406738 0.913545 0
    outer loop
      vertex -34.05 8.18135 0
      vertex -33.6489 8.00278 12
      vertex -33.6489 8.00278 0
    endloop
  endfacet
  facet normal 0.587785 0.809017 -0
    outer loop
      vertex -34.4052 8.4394 12
      vertex -34.05 8.18135 12
      vertex -34.4052 8.4394 0
    endloop
  endfacet
  facet normal 0.587785 0.809017 0
    outer loop
      vertex -34.4052 8.4394 0
      vertex -34.05 8.18135 12
      vertex -34.05 8.18135 0
    endloop
  endfacet
  facet normal 0.743144 0.669131 0
    outer loop
      vertex -34.6989 8.76565 0
      vertex -34.6989 8.76565 12
      vertex -34.4052 8.4394 12
    endloop
  endfacet
  facet normal 0.743144 0.669131 0
    outer loop
      vertex -34.4052 8.4394 0
      vertex -34.6989 8.76565 0
      vertex -34.4052 8.4394 12
    endloop
  endfacet
  facet normal 0.866026 0.499999 0
    outer loop
      vertex -34.9184 9.14585 0
      vertex -34.9184 9.14585 12
      vertex -34.6989 8.76565 12
    endloop
  endfacet
  facet normal 0.866026 0.499999 0
    outer loop
      vertex -34.6989 8.76565 0
      vertex -34.9184 9.14585 0
      vertex -34.6989 8.76565 12
    endloop
  endfacet
  facet normal 0.951056 0.309018 0
    outer loop
      vertex -35.0541 9.56338 0
      vertex -35.0541 9.56338 12
      vertex -34.9184 9.14585 12
    endloop
  endfacet
  facet normal 0.951056 0.309018 0
    outer loop
      vertex -34.9184 9.14585 0
      vertex -35.0541 9.56338 0
      vertex -34.9184 9.14585 12
    endloop
  endfacet
  facet normal -0 -1 0
    outer loop
      vertex -43 7.5 12
      vertex -35.5 7.5 12
      vertex -35.5 7.5 14.01
    endloop
  endfacet
  facet normal 0 -1 0
    outer loop
      vertex -43 7.5 14.01
      vertex -43 7.5 12
      vertex -35.5 7.5 14.01
    endloop
  endfacet
  facet normal 1 0 0
    outer loop
      vertex -35.5 7.5 12
      vertex -35.5 12.5 12
      vertex -35.5 12.5 14.01
    endloop
  endfacet
  facet normal 1 0 -0
    outer loop
      vertex -35.5 7.5 14.01
      vertex -35.5 7.5 12
      vertex -35.5 12.5 14.01
    endloop
  endfacet
  facet normal 0 1 -0
    outer loop
      vertex -43 12.5 14.01
      vertex -35.5 12.5 14.01
      vertex -43 12.5 12
    endloop
  endfacet
  facet normal 0 1 0
    outer loop
      vertex -43 12.5 12
      vertex -35.5 12.5 14.01
      vertex -35.5 12.5 12
    endloop
  endfacet
  facet normal -1 0 0
    outer loop
      vertex -15.5 52.5 14.01
      vertex -15.5 60 14.01
      vertex -15.5 52.5 12
    endloop
  endfacet
  facet normal -1 -0 0
    outer loop
      vertex -15.5 52.5 12
      vertex -15.5 60 14.01
      vertex -15.5 60 12
    endloop
  endfacet
  facet normal -0 -1 0
    outer loop
      vertex -15.5 52.5 12
      vertex -10.5 52.5 12
      vertex -10.5 52.5 14.01
    endloop
  endfacet
  facet normal 0 -1 0
    outer loop
      vertex -15.5 52.5 14.01
      vertex -15.5 52.5 12
      vertex -10.5 52.5 14.01
    endloop
  endfacet
  facet normal 1 0 0
    outer loop
      vertex -10.5 52.5 12
      vertex -10.5 60 12
      vertex -10.5 60 14.01
    endloop
  endfacet
  facet normal 1 0 -0
    outer loop
      vertex -10.5 52.5 14.01
      vertex -10.5 52.5 12
      vertex -10.5 60 14.01
    endloop
  endfacet
  facet normal -1 0 0
    outer loop
      vertex -10.5 7.5 14.01
      vertex -10.5 12.5 14.01
      vertex -10.5 7.5 12
    endloop
  endfacet
  facet normal -1 -0 0
    outer loop
      vertex -10.5 7.5 12
      vertex -10.5 12.5 14.01
      vertex -10.5 12.5 12
    endloop
  endfacet
  facet normal -1 0 0
    outer loop
      vertex -15.5 21 14.01
      vertex -15.5 27.5 14.01
      vertex -15.5 21 12
    endloop
  endfacet
  facet normal -1 -0 0
    outer loop
      vertex -15.5 21 12
      vertex -15.5 27.5 14.01
      vertex -15.5 27.5 12
    endloop
  endfacet
  facet normal -0 -1 0
    outer loop
      vertex -15.5 21 12
      vertex -10.5 21 12
      vertex -10.5 21 14.01
    endloop
  endfacet
  facet normal 0 -1 0
    outer loop
      vertex -15.5 21 14.01
      vertex -15.5 21 12
      vertex -10.5 21 14.01
    endloop
  endfacet
  facet normal 1 0 0
    outer loop
      vertex -10.5 21 12
      vertex -10.5 27.5 12
      vertex -10.5 27.5 14.01
    endloop
  endfacet
  facet normal 1 0 -0
    outer loop
      vertex -10.5 21 14.01
      vertex -10.5 21 12
      vertex -10.5 27.5 14.01
    endloop
  endfacet
  facet normal 0 1 -0
    outer loop
      vertex -15.5 27.5 14.01
      vertex -10.5 27.5 14.01
      vertex -15.5 27.5 12
    endloop
  endfacet
  facet normal 0 1 0
    outer loop
      vertex -15.5 27.5 12
      vertex -10.5 27.5 14.01
      vertex -10.5 27.5 12
    endloop
  endfacet
  facet normal -1 0 0
    outer loop
      vertex -15.5 32.5 14.01
      vertex -15.5 47.5 14.01
      vertex -15.5 32.5 12
    endloop
  endfacet
  facet normal -1 -0 0
    outer loop
      vertex -15.5 32.5 12
      vertex -15.5 47.5 14.01
      vertex -15.5 47.5 12
    endloop
  endfacet
  facet normal -0 -1 0
    outer loop
      vertex -15.5 32.5 12
      vertex -10.5 32.5 12
      vertex -10.5 32.5 14.01
    endloop
  endfacet
  facet normal 0 -1 0
    outer loop
      vertex -15.5 32.5 14.01
      vertex -15.5 32.5 12
      vertex -10.5 32.5 14.01
    endloop
  endfacet
  facet normal 1 0 0
    outer loop
      vertex -10.5 32.5 12
      vertex -10.5 47.5 12
      vertex -10.5 47.5 14.01
    endloop
  endfacet
  facet normal 1 0 -0
    outer loop
      vertex -10.5 32.5 14.01
      vertex -10.5 32.5 12
      vertex -10.5 47.5 14.01
    endloop
  endfacet
  facet normal 0 1 -0
    outer loop
      vertex -15.5 47.5 14.01
      vertex -10.5 47.5 14.01
      vertex -15.5 47.5 12
    endloop
  endfacet
  facet normal 0 1 0
    outer loop
      vertex -15.5 47.5 12
      vertex -10.5 47.5 14.01
      vertex -10.5 47.5 12
    endloop
  endfacet
  facet normal -1 0 0
    outer loop
      vertex -30.5 7.5 14.01
      vertex -30.5 12.5 14.01
      vertex -30.5 7.5 12
    endloop
  endfacet
  facet normal -1 -0 0
    outer loop
      vertex -30.5 7.5 12
      vertex -30.5 12.5 14.01
      vertex -30.5 12.5 12
    endloop
  endfacet
  facet normal -0 -1 0
    outer loop
      vertex -30.5 7.5 12
      vertex -15.5 7.5 12
      vertex -15.5 7.5 14.01
    endloop
  endfacet
  facet normal 0 -1 0
    outer loop
      vertex -30.5 7.5 14.01
      vertex -30.5 7.5 12
      vertex -15.5 7.5 14.01
    endloop
  endfacet
  facet normal 1 0 0
    outer loop
      vertex -15.5 7.5 12
      vertex -15.5 12.5 12
      vertex -15.5 12.5 14.01
    endloop
  endfacet
  facet normal 1 0 -0
    outer loop
      vertex -15.5 7.5 14.01
      vertex -15.5 7.5 12
      vertex -15.5 12.5 14.01
    endloop
  endfacet
  facet normal 0 1 -0
    outer loop
      vertex -30.5 12.5 14.01
      vertex -15.5 12.5 14.01
      vertex -30.5 12.5 12
    endloop
  endfacet
  facet normal 0 1 0
    outer loop
      vertex -30.5 12.5 12
      vertex -15.5 12.5 14.01
      vertex -15.5 12.5 12
    endloop
  endfacet
  facet normal 0 0 1
    outer loop
      vertex -15.5 52.5 14.01
      vertex -10.5 52.5 14.01
      vertex -10.5 60 14.01
    endloop
  endfacet
  facet normal 0 -0 1
    outer loop
      vertex -15.5 60 14.01
      vertex -15.5 52.5 14.01
      vertex -10.5 60 14.01
    endloop
  endfacet
  facet normal 0 0 1
    outer loop
      vertex -43 7.5 14.01
      vertex -35.5 7.5 14.01
      vertex -35.5 12.5 14.01
    endloop
  endfacet
  facet normal 0 -0 1
    outer loop
      vertex -43 12.5 14.01
      vertex -43 7.5 14.01
      vertex -35.5 12.5 14.01
    endloop
  endfacet
  facet normal 0 0 1
    outer loop
      vertex -15.5 21 14.01
      vertex -10.5 21 14.01
      vertex -10.5 27.5 14.01
    endloop
  endfacet
  facet normal 0 -0 1
    outer loop
      vertex -15.5 27.5 14.01
      vertex -15.5 21 14.01
      vertex -10.5 27.5 14.01
    endloop
  endfacet
  facet normal 0 0 1
    outer loop
      vertex -15.5 32.5 14.01
      vertex -10.5 32.5 14.01
      vertex -10.5 47.5 14.01
    endloop
  endfacet
  facet normal 0 -0 1
    outer loop
      vertex -15.5 47.5 14.01
      vertex -15.5 32.5 14.01
      vertex -10.5 47.5 14.01
    endloop
  endfacet
  facet normal 0 0 1
    outer loop
      vertex -30.5 7.5 14.01
      vertex -15.5 7.5 14.01
      vertex -15.5 12.5 14.01
    endloop
  endfacet
  facet normal 0 -0 1
    outer loop
      vertex -30.5 12.5 14.01
      vertex -30.5 7.5 14.01
      vertex -15.5 12.5 14.01
    endloop
  endfacet
endsolid OpenSCAD_Model
