solid OpenSCAD_Model
  facet normal 1 0 0
    outer loop
      vertex -3 0 0
      vertex -3 60 0
      vertex -3 60 12
    endloop
  endfacet
  facet normal 1 0 0
    outer loop
      vertex -3 12.5 14.1
      vertex -3 0 0
      vertex -3 12.5 12
    endloop
  endfacet
  facet normal 1 0 0
    outer loop
      vertex -3 12.5 12
      vertex -3 0 0
      vertex -3 60 12
    endloop
  endfacet
  facet normal 1 0 0
    outer loop
      vertex -3 7.5 12
      vertex -3 0 0
      vertex -3 12.5 14.1
    endloop
  endfacet
  facet normal 1 0 0
    outer loop
      vertex -3 7.5 14.1
      vertex -3 7.5 12
      vertex -3 12.5 14.1
    endloop
  endfacet
  facet normal 1 0 0
    outer loop
      vertex -3 7.5 12
      vertex -3 0 12
      vertex -3 0 0
    endloop
  endfacet
  facet normal 0 0 -1
    outer loop
      vertex -43 20 0
      vertex -22.9695 60 0
      vertex -43 0 0
    endloop
  endfacet
  facet normal 0 0 -1
    outer loop
      vertex -12.7387 52.4863 0
      vertex -22.9695 60 0
      vertex -3 60 0
    endloop
  endfacet
  facet normal 0 0 -1
    outer loop
      vertex -10.5546 9.48022 0
      vertex -3 60 0
      vertex -3 0 0
    endloop
  endfacet
  facet normal 0 0 -1
    outer loop
      vertex -10.7161 28.9832 0
      vertex -15.2839 11.0168 0
      vertex -10.9775 28.5305 0
    endloop
  endfacet
  facet normal 0 0 -1
    outer loop
      vertex -43 0 0
      vertex -15.5 10 0
      vertex -15.4454 9.48022 0
    endloop
  endfacet
  facet normal 0 0 -1
    outer loop
      vertex -43 0 0
      vertex -15.4454 9.48022 0
      vertex -15.2839 8.98316 0
    endloop
  endfacet
  facet normal 0 0 -1
    outer loop
      vertex -43 0 0
      vertex -15.2839 8.98316 0
      vertex -15.0225 8.53054 0
    endloop
  endfacet
  facet normal 0 0 -1
    outer loop
      vertex -43 0 0
      vertex -15.0225 8.53054 0
      vertex -14.6728 8.14214 0
    endloop
  endfacet
  facet normal 0 0 -1
    outer loop
      vertex -43 0 0
      vertex -14.6728 8.14214 0
      vertex -14.25 7.83494 0
    endloop
  endfacet
  facet normal 0 0 -1
    outer loop
      vertex -43 0 0
      vertex -14.25 7.83494 0
      vertex -3 0 0
    endloop
  endfacet
  facet normal 0 0 -1
    outer loop
      vertex -13.2613 7.5137 0
      vertex -3 0 0
      vertex -13.7725 7.62236 0
    endloop
  endfacet
  facet normal 0 0 -1
    outer loop
      vertex -12.7387 7.5137 0
      vertex -3 0 0
      vertex -13.2613 7.5137 0
    endloop
  endfacet
  facet normal 0 0 -1
    outer loop
      vertex -12.2275 7.62236 0
      vertex -3 0 0
      vertex -12.7387 7.5137 0
    endloop
  endfacet
  facet normal 0 0 -1
    outer loop
      vertex -10.5546 29.4802 0
      vertex -15.0225 11.4695 0
      vertex -10.7161 28.9832 0
    endloop
  endfacet
  facet normal 0 0 -1
    outer loop
      vertex -10.5546 10.5198 0
      vertex -3 60 0
      vertex -10.5 10 0
    endloop
  endfacet
  facet normal 0 0 -1
    outer loop
      vertex -11.75 12.1651 0
      vertex -3 60 0
      vertex -11.3272 11.8579 0
    endloop
  endfacet
  facet normal 0 0 -1
    outer loop
      vertex -12.2275 7.62236 0
      vertex -11.75 7.83494 0
      vertex -3 0 0
    endloop
  endfacet
  facet normal 0 0 -1
    outer loop
      vertex -11.3272 11.8579 0
      vertex -3 60 0
      vertex -10.9775 11.4695 0
    endloop
  endfacet
  facet normal 0 0 -1
    outer loop
      vertex -11.75 7.83494 0
      vertex -11.3272 8.14214 0
      vertex -3 0 0
    endloop
  endfacet
  facet normal 0 0 -1
    outer loop
      vertex -10.9775 11.4695 0
      vertex -3 60 0
      vertex -10.7161 11.0168 0
    endloop
  endfacet
  facet normal 0 0 -1
    outer loop
      vertex -11.3272 8.14214 0
      vertex -10.9775 8.53054 0
      vertex -3 0 0
    endloop
  endfacet
  facet normal 0 0 -1
    outer loop
      vertex -10.7161 11.0168 0
      vertex -3 60 0
      vertex -10.5546 10.5198 0
    endloop
  endfacet
  facet normal 0 0 -1
    outer loop
      vertex -10.9775 8.53054 0
      vertex -10.7161 8.98316 0
      vertex -3 0 0
    endloop
  endfacet
  facet normal 0 0 -1
    outer loop
      vertex -10.5 10 0
      vertex -3 60 0
      vertex -10.5546 9.48022 0
    endloop
  endfacet
  facet normal 0 0 -1
    outer loop
      vertex -10.7161 8.98316 0
      vertex -10.5546 9.48022 0
      vertex -3 0 0
    endloop
  endfacet
  facet normal 0 0 -1
    outer loop
      vertex -15.2839 11.0168 0
      vertex -10.7161 28.9832 0
      vertex -15.0225 11.4695 0
    endloop
  endfacet
  facet normal 0 0 -1
    outer loop
      vertex -12.2275 12.3776 0
      vertex -3 60 0
      vertex -11.75 12.1651 0
    endloop
  endfacet
  facet normal 0 0 -1
    outer loop
      vertex -12.7387 12.4863 0
      vertex -3 60 0
      vertex -12.2275 12.3776 0
    endloop
  endfacet
  facet normal 0 0 -1
    outer loop
      vertex -13.2613 12.4863 0
      vertex -3 60 0
      vertex -12.7387 12.4863 0
    endloop
  endfacet
  facet normal 0 0 -1
    outer loop
      vertex -13.7725 12.3776 0
      vertex -3 60 0
      vertex -13.2613 12.4863 0
    endloop
  endfacet
  facet normal 0 0 -1
    outer loop
      vertex -14.25 12.1651 0
      vertex -3 60 0
      vertex -13.7725 12.3776 0
    endloop
  endfacet
  facet normal 0 0 -1
    outer loop
      vertex -14.6728 11.8579 0
      vertex -3 60 0
      vertex -14.25 12.1651 0
    endloop
  endfacet
  facet normal 0 0 -1
    outer loop
      vertex -10.5546 29.4802 0
      vertex -3 60 0
      vertex -14.6728 11.8579 0
    endloop
  endfacet
  facet normal 0 0 -1
    outer loop
      vertex -43 0 0
      vertex -15.2839 11.0168 0
      vertex -15.4454 10.5198 0
    endloop
  endfacet
  facet normal 0 0 -1
    outer loop
      vertex -43 0 0
      vertex -15.4454 10.5198 0
      vertex -15.5 10 0
    endloop
  endfacet
  facet normal 0 0 -1
    outer loop
      vertex -10.5546 49.4802 0
      vertex -3 60 0
      vertex -10.7161 48.9832 0
    endloop
  endfacet
  facet normal 0 0 -1
    outer loop
      vertex -30.5546 9.48022 0
      vertex -15.5 30 0
      vertex -15.2839 11.0168 0
    endloop
  endfacet
  facet normal 0 0 -1
    outer loop
      vertex -15.0225 31.4695 0
      vertex -3 60 0
      vertex -14.6728 31.8579 0
    endloop
  endfacet
  facet normal 0 0 -1
    outer loop
      vertex -15.5 30 0
      vertex -15.4454 29.4802 0
      vertex -15.2839 11.0168 0
    endloop
  endfacet
  facet normal 0 0 -1
    outer loop
      vertex -14.6728 31.8579 0
      vertex -3 60 0
      vertex -14.25 32.1651 0
    endloop
  endfacet
  facet normal 0 0 -1
    outer loop
      vertex -15.4454 29.4802 0
      vertex -15.2839 28.9832 0
      vertex -15.2839 11.0168 0
    endloop
  endfacet
  facet normal 0 0 -1
    outer loop
      vertex -14.25 32.1651 0
      vertex -3 60 0
      vertex -13.7725 32.3776 0
    endloop
  endfacet
  facet normal 0 0 -1
    outer loop
      vertex -15.2839 28.9832 0
      vertex -15.0225 28.5305 0
      vertex -15.2839 11.0168 0
    endloop
  endfacet
  facet normal 0 0 -1
    outer loop
      vertex -13.7725 32.3776 0
      vertex -3 60 0
      vertex -13.2613 32.4863 0
    endloop
  endfacet
  facet normal 0 0 -1
    outer loop
      vertex -15.0225 28.5305 0
      vertex -14.6728 28.1421 0
      vertex -15.2839 11.0168 0
    endloop
  endfacet
  facet normal 0 0 -1
    outer loop
      vertex -13.2613 32.4863 0
      vertex -3 60 0
      vertex -12.7387 32.4863 0
    endloop
  endfacet
  facet normal 0 0 -1
    outer loop
      vertex -14.6728 28.1421 0
      vertex -14.25 27.8349 0
      vertex -15.2839 11.0168 0
    endloop
  endfacet
  facet normal 0 0 -1
    outer loop
      vertex -12.7387 32.4863 0
      vertex -3 60 0
      vertex -12.2275 32.3776 0
    endloop
  endfacet
  facet normal 0 0 -1
    outer loop
      vertex -14.25 27.8349 0
      vertex -13.7725 27.6224 0
      vertex -15.2839 11.0168 0
    endloop
  endfacet
  facet normal 0 0 -1
    outer loop
      vertex -13.7725 27.6224 0
      vertex -13.2613 27.5137 0
      vertex -15.2839 11.0168 0
    endloop
  endfacet
  facet normal 0 0 -1
    outer loop
      vertex -12.2275 32.3776 0
      vertex -3 60 0
      vertex -11.75 32.1651 0
    endloop
  endfacet
  facet normal 0 0 -1
    outer loop
      vertex -13.2613 27.5137 0
      vertex -12.7387 27.5137 0
      vertex -15.2839 11.0168 0
    endloop
  endfacet
  facet normal 0 0 -1
    outer loop
      vertex -11.75 32.1651 0
      vertex -3 60 0
      vertex -11.3272 31.8579 0
    endloop
  endfacet
  facet normal 0 0 -1
    outer loop
      vertex -12.7387 27.5137 0
      vertex -12.2275 27.6224 0
      vertex -15.2839 11.0168 0
    endloop
  endfacet
  facet normal 0 0 -1
    outer loop
      vertex -11.3272 31.8579 0
      vertex -3 60 0
      vertex -10.9775 31.4695 0
    endloop
  endfacet
  facet normal 0 0 -1
    outer loop
      vertex -12.2275 27.6224 0
      vertex -11.75 27.8349 0
      vertex -15.2839 11.0168 0
    endloop
  endfacet
  facet normal 0 0 -1
    outer loop
      vertex -10.9775 31.4695 0
      vertex -3 60 0
      vertex -10.7161 31.0168 0
    endloop
  endfacet
  facet normal 0 0 -1
    outer loop
      vertex -11.75 27.8349 0
      vertex -11.3272 28.1421 0
      vertex -15.2839 11.0168 0
    endloop
  endfacet
  facet normal 0 0 -1
    outer loop
      vertex -10.7161 31.0168 0
      vertex -3 60 0
      vertex -10.5546 30.5198 0
    endloop
  endfacet
  facet normal 0 0 -1
    outer loop
      vertex -11.3272 28.1421 0
      vertex -10.9775 28.5305 0
      vertex -15.2839 11.0168 0
    endloop
  endfacet
  facet normal 0 0 -1
    outer loop
      vertex -10.5546 30.5198 0
      vertex -3 60 0
      vertex -10.5 30 0
    endloop
  endfacet
  facet normal 0 0 -1
    outer loop
      vertex -10.5 30 0
      vertex -3 60 0
      vertex -10.5546 29.4802 0
    endloop
  endfacet
  facet normal 0 0 -1
    outer loop
      vertex -15.0225 11.4695 0
      vertex -10.5546 29.4802 0
      vertex -14.6728 11.8579 0
    endloop
  endfacet
  facet normal 0 0 -1
    outer loop
      vertex -33.2613 12.4863 0
      vertex -3 60 0
      vertex -15.0225 31.4695 0
    endloop
  endfacet
  facet normal 0 0 -1
    outer loop
      vertex -32.2275 12.3776 0
      vertex -15.5 30 0
      vertex -31.75 12.1651 0
    endloop
  endfacet
  facet normal 0 0 -1
    outer loop
      vertex -32.2275 12.3776 0
      vertex -15.4454 30.5198 0
      vertex -15.5 30 0
    endloop
  endfacet
  facet normal 0 0 -1
    outer loop
      vertex -43 0 0
      vertex -22.9695 60 0
      vertex -15.5 50 0
    endloop
  endfacet
  facet normal 0 0 -1
    outer loop
      vertex -43 0 0
      vertex -15.5 50 0
      vertex -15.4454 49.4802 0
    endloop
  endfacet
  facet normal 0 0 -1
    outer loop
      vertex -43 0 0
      vertex -15.4454 49.4802 0
      vertex -15.2839 48.9832 0
    endloop
  endfacet
  facet normal 0 0 -1
    outer loop
      vertex -43 0 0
      vertex -15.2839 48.9832 0
      vertex -15.0225 48.5305 0
    endloop
  endfacet
  facet normal 0 0 -1
    outer loop
      vertex -43 0 0
      vertex -15.0225 48.5305 0
      vertex -14.6728 48.1421 0
    endloop
  endfacet
  facet normal 0 0 -1
    outer loop
      vertex -43 0 0
      vertex -14.6728 48.1421 0
      vertex -14.25 47.8349 0
    endloop
  endfacet
  facet normal 0 0 -1
    outer loop
      vertex -43 0 0
      vertex -14.25 47.8349 0
      vertex -13.7725 47.6224 0
    endloop
  endfacet
  facet normal 0 0 -1
    outer loop
      vertex -43 0 0
      vertex -13.7725 47.6224 0
      vertex -13.2613 47.5137 0
    endloop
  endfacet
  facet normal 0 0 -1
    outer loop
      vertex -43 0 0
      vertex -13.2613 47.5137 0
      vertex -12.7387 47.5137 0
    endloop
  endfacet
  facet normal 0 0 -1
    outer loop
      vertex -43 0 0
      vertex -12.7387 47.5137 0
      vertex -12.2275 47.6224 0
    endloop
  endfacet
  facet normal 0 0 -1
    outer loop
      vertex -43 0 0
      vertex -12.2275 47.6224 0
      vertex -11.75 47.8349 0
    endloop
  endfacet
  facet normal 0 0 -1
    outer loop
      vertex -43 0 0
      vertex -11.75 47.8349 0
      vertex -11.3272 48.1421 0
    endloop
  endfacet
  facet normal 0 0 -1
    outer loop
      vertex -43 0 0
      vertex -11.3272 48.1421 0
      vertex -10.9775 48.5305 0
    endloop
  endfacet
  facet normal 0 0 -1
    outer loop
      vertex -43 0 0
      vertex -10.9775 48.5305 0
      vertex -3 60 0
    endloop
  endfacet
  facet normal 0 0 -1
    outer loop
      vertex -10.9775 48.5305 0
      vertex -10.7161 48.9832 0
      vertex -3 60 0
    endloop
  endfacet
  facet normal 0 0 -1
    outer loop
      vertex -10.5 50 0
      vertex -3 60 0
      vertex -10.5546 49.4802 0
    endloop
  endfacet
  facet normal 0 0 -1
    outer loop
      vertex -10.5546 50.5198 0
      vertex -3 60 0
      vertex -10.5 50 0
    endloop
  endfacet
  facet normal 0 0 -1
    outer loop
      vertex -10.7161 51.0168 0
      vertex -3 60 0
      vertex -10.5546 50.5198 0
    endloop
  endfacet
  facet normal 0 0 -1
    outer loop
      vertex -10.9775 51.4695 0
      vertex -3 60 0
      vertex -10.7161 51.0168 0
    endloop
  endfacet
  facet normal 0 0 -1
    outer loop
      vertex -11.3272 51.8579 0
      vertex -3 60 0
      vertex -10.9775 51.4695 0
    endloop
  endfacet
  facet normal 0 0 -1
    outer loop
      vertex -11.75 52.1651 0
      vertex -3 60 0
      vertex -11.3272 51.8579 0
    endloop
  endfacet
  facet normal 0 0 -1
    outer loop
      vertex -12.2275 52.3776 0
      vertex -3 60 0
      vertex -11.75 52.1651 0
    endloop
  endfacet
  facet normal 0 0 -1
    outer loop
      vertex -12.7387 52.4863 0
      vertex -3 60 0
      vertex -12.2275 52.3776 0
    endloop
  endfacet
  facet normal 0 0 -1
    outer loop
      vertex -13.2613 52.4863 0
      vertex -22.9695 60 0
      vertex -12.7387 52.4863 0
    endloop
  endfacet
  facet normal 0 0 -1
    outer loop
      vertex -35.5 10 0
      vertex -43 0 0
      vertex -35.4454 10.5198 0
    endloop
  endfacet
  facet normal 0 0 -1
    outer loop
      vertex -13.7725 52.3776 0
      vertex -22.9695 60 0
      vertex -13.2613 52.4863 0
    endloop
  endfacet
  facet normal 0 0 -1
    outer loop
      vertex -14.25 52.1651 0
      vertex -22.9695 60 0
      vertex -13.7725 52.3776 0
    endloop
  endfacet
  facet normal 0 0 -1
    outer loop
      vertex -14.6728 51.8579 0
      vertex -22.9695 60 0
      vertex -14.25 52.1651 0
    endloop
  endfacet
  facet normal 0 0 -1
    outer loop
      vertex -15.0225 51.4695 0
      vertex -22.9695 60 0
      vertex -14.6728 51.8579 0
    endloop
  endfacet
  facet normal 0 0 -1
    outer loop
      vertex -15.2839 51.0168 0
      vertex -22.9695 60 0
      vertex -15.0225 51.4695 0
    endloop
  endfacet
  facet normal 0 0 -1
    outer loop
      vertex -15.4454 50.5198 0
      vertex -22.9695 60 0
      vertex -15.2839 51.0168 0
    endloop
  endfacet
  facet normal 0 0 -1
    outer loop
      vertex -15.5 50 0
      vertex -22.9695 60 0
      vertex -15.4454 50.5198 0
    endloop
  endfacet
  facet normal 0 0 -1
    outer loop
      vertex -35.4454 10.5198 0
      vertex -43 0 0
      vertex -35.2839 11.0168 0
    endloop
  endfacet
  facet normal 0 0 -1
    outer loop
      vertex -43 0 0
      vertex -35.5 10 0
      vertex -35.4454 9.48022 0
    endloop
  endfacet
  facet normal 0 0 -1
    outer loop
      vertex -43 0 0
      vertex -35.4454 9.48022 0
      vertex -35.2839 8.98316 0
    endloop
  endfacet
  facet normal 0 0 -1
    outer loop
      vertex -32.2275 12.3776 0
      vertex -15.0225 31.4695 0
      vertex -15.2839 31.0168 0
    endloop
  endfacet
  facet normal 0 0 -1
    outer loop
      vertex -43 0 0
      vertex -35.0225 8.53054 0
      vertex -34.6728 8.14214 0
    endloop
  endfacet
  facet normal 0 0 -1
    outer loop
      vertex -43 0 0
      vertex -34.6728 8.14214 0
      vertex -34.25 7.83494 0
    endloop
  endfacet
  facet normal 0 0 -1
    outer loop
      vertex -43 0 0
      vertex -34.25 7.83494 0
      vertex -33.7725 7.62236 0
    endloop
  endfacet
  facet normal 0 0 -1
    outer loop
      vertex -43 0 0
      vertex -33.7725 7.62236 0
      vertex -33.2613 7.5137 0
    endloop
  endfacet
  facet normal 0 0 -1
    outer loop
      vertex -43 0 0
      vertex -33.2613 7.5137 0
      vertex -32.7387 7.5137 0
    endloop
  endfacet
  facet normal 0 0 -1
    outer loop
      vertex -43 0 0
      vertex -32.7387 7.5137 0
      vertex -15.2839 11.0168 0
    endloop
  endfacet
  facet normal 0 0 -1
    outer loop
      vertex -32.7387 7.5137 0
      vertex -32.2275 7.62236 0
      vertex -15.2839 11.0168 0
    endloop
  endfacet
  facet normal 0 0 -1
    outer loop
      vertex -31.3272 8.14214 0
      vertex -15.2839 11.0168 0
      vertex -31.75 7.83494 0
    endloop
  endfacet
  facet normal 0 0 -1
    outer loop
      vertex -30.9775 8.53054 0
      vertex -15.2839 11.0168 0
      vertex -31.3272 8.14214 0
    endloop
  endfacet
  facet normal 0 0 -1
    outer loop
      vertex -30.7161 8.98316 0
      vertex -15.2839 11.0168 0
      vertex -30.9775 8.53054 0
    endloop
  endfacet
  facet normal 0 0 -1
    outer loop
      vertex -30.5546 9.48022 0
      vertex -15.2839 11.0168 0
      vertex -30.7161 8.98316 0
    endloop
  endfacet
  facet normal 0 0 -1
    outer loop
      vertex -30.5 10 0
      vertex -15.5 30 0
      vertex -30.5546 9.48022 0
    endloop
  endfacet
  facet normal 0 0 -1
    outer loop
      vertex -31.75 12.1651 0
      vertex -15.5 30 0
      vertex -31.3272 11.8579 0
    endloop
  endfacet
  facet normal 0 0 -1
    outer loop
      vertex -30.5546 10.5198 0
      vertex -15.5 30 0
      vertex -30.5 10 0
    endloop
  endfacet
  facet normal 0 0 -1
    outer loop
      vertex -30.7161 11.0168 0
      vertex -15.5 30 0
      vertex -30.5546 10.5198 0
    endloop
  endfacet
  facet normal 0 0 -1
    outer loop
      vertex -30.9775 11.4695 0
      vertex -15.5 30 0
      vertex -30.7161 11.0168 0
    endloop
  endfacet
  facet normal 0 0 -1
    outer loop
      vertex -31.3272 11.8579 0
      vertex -15.5 30 0
      vertex -30.9775 11.4695 0
    endloop
  endfacet
  facet normal 0 0 -1
    outer loop
      vertex -32.2275 12.3776 0
      vertex -15.2839 31.0168 0
      vertex -15.4454 30.5198 0
    endloop
  endfacet
  facet normal 0 0 -1
    outer loop
      vertex -31.75 7.83494 0
      vertex -15.2839 11.0168 0
      vertex -32.2275 7.62236 0
    endloop
  endfacet
  facet normal 0 0 -1
    outer loop
      vertex -32.7387 12.4863 0
      vertex -15.0225 31.4695 0
      vertex -32.2275 12.3776 0
    endloop
  endfacet
  facet normal 0 0 -1
    outer loop
      vertex -33.2613 12.4863 0
      vertex -15.0225 31.4695 0
      vertex -32.7387 12.4863 0
    endloop
  endfacet
  facet normal 0 0 -1
    outer loop
      vertex -33.7725 12.3776 0
      vertex -3 60 0
      vertex -33.2613 12.4863 0
    endloop
  endfacet
  facet normal 0 0 -1
    outer loop
      vertex -34.25 12.1651 0
      vertex -3 60 0
      vertex -33.7725 12.3776 0
    endloop
  endfacet
  facet normal 0 0 -1
    outer loop
      vertex -34.6728 11.8579 0
      vertex -3 60 0
      vertex -34.25 12.1651 0
    endloop
  endfacet
  facet normal 0 0 -1
    outer loop
      vertex -35.0225 8.53054 0
      vertex -43 0 0
      vertex -35.2839 8.98316 0
    endloop
  endfacet
  facet normal 0 0 -1
    outer loop
      vertex -35.0225 11.4695 0
      vertex -3 60 0
      vertex -34.6728 11.8579 0
    endloop
  endfacet
  facet normal 0 0 -1
    outer loop
      vertex -43 0 0
      vertex -3 60 0
      vertex -35.0225 11.4695 0
    endloop
  endfacet
  facet normal 0 0 -1
    outer loop
      vertex -43 0 0
      vertex -35.0225 11.4695 0
      vertex -35.2839 11.0168 0
    endloop
  endfacet
  facet normal 0 0 -1
    outer loop
      vertex -13.7725 7.62236 0
      vertex -3 0 0
      vertex -14.25 7.83494 0
    endloop
  endfacet
  facet normal 0 -1 0
    outer loop
      vertex -43 0 0
      vertex -3 0 0
      vertex -3 0 12
    endloop
  endfacet
  facet normal 0 -1 0
    outer loop
      vertex -43 0 12
      vertex -43 0 0
      vertex -3 0 12
    endloop
  endfacet
  facet normal 0 0 1
    outer loop
      vertex -43 0 12
      vertex -3 0 12
      vertex -3 7.5 12
    endloop
  endfacet
  facet normal 0 0 1
    outer loop
      vertex -12.2275 7.62236 12
      vertex -43 0 12
      vertex -10.5 7.5 12
    endloop
  endfacet
  facet normal 0 0 1
    outer loop
      vertex -10.5 7.5 12
      vertex -43 0 12
      vertex -3 7.5 12
    endloop
  endfacet
  facet normal 0 0 1
    outer loop
      vertex -31.75 7.83494 12
      vertex -32.2275 7.62236 12
      vertex -43 0 12
    endloop
  endfacet
  facet normal 0 0 1
    outer loop
      vertex -10.5 10 12
      vertex -10.5546 9.48022 12
      vertex -10.5 7.5 12
    endloop
  endfacet
  facet normal 0 0 1
    outer loop
      vertex -10.5546 9.48022 12
      vertex -10.7161 8.98316 12
      vertex -10.5 7.5 12
    endloop
  endfacet
  facet normal 0 0 1
    outer loop
      vertex -10.7161 8.98316 12
      vertex -10.9775 8.53054 12
      vertex -10.5 7.5 12
    endloop
  endfacet
  facet normal 0 0 1
    outer loop
      vertex -10.9775 8.53054 12
      vertex -11.3272 8.14214 12
      vertex -10.5 7.5 12
    endloop
  endfacet
  facet normal 0 0 1
    outer loop
      vertex -11.3272 8.14214 12
      vertex -11.75 7.83494 12
      vertex -10.5 7.5 12
    endloop
  endfacet
  facet normal 0 0 1
    outer loop
      vertex -11.75 7.83494 12
      vertex -12.2275 7.62236 12
      vertex -10.5 7.5 12
    endloop
  endfacet
  facet normal 0 0 1
    outer loop
      vertex -12.7387 7.5137 12
      vertex -43 0 12
      vertex -12.2275 7.62236 12
    endloop
  endfacet
  facet normal 0 0 1
    outer loop
      vertex -13.2613 7.5137 12
      vertex -13.7725 7.62236 12
      vertex -43 0 12
    endloop
  endfacet
  facet normal 0 0 1
    outer loop
      vertex -13.7725 7.62236 12
      vertex -14.25 7.83494 12
      vertex -43 0 12
    endloop
  endfacet
  facet normal 0 0 1
    outer loop
      vertex -15.5 7.5 12
      vertex -43 0 12
      vertex -14.25 7.83494 12
    endloop
  endfacet
  facet normal 0 0 1
    outer loop
      vertex -32.2275 7.62236 12
      vertex -32.7387 7.5137 12
      vertex -43 0 12
    endloop
  endfacet
  facet normal 0 0 1
    outer loop
      vertex -15.0225 8.53054 12
      vertex -15.5 7.5 12
      vertex -14.6728 8.14214 12
    endloop
  endfacet
  facet normal 0 0 1
    outer loop
      vertex -35.5 10 12
      vertex -35.5 7.5 12
      vertex -35.4454 9.48022 12
    endloop
  endfacet
  facet normal 0 0 1
    outer loop
      vertex -15.2839 8.98316 12
      vertex -15.5 7.5 12
      vertex -15.0225 8.53054 12
    endloop
  endfacet
  facet normal 0 0 1
    outer loop
      vertex -15.5 7.5 12
      vertex -30.5 7.5 12
      vertex -43 0 12
    endloop
  endfacet
  facet normal 0 0 1
    outer loop
      vertex -31.75 7.83494 12
      vertex -43 0 12
      vertex -30.5 7.5 12
    endloop
  endfacet
  facet normal 0 0 1
    outer loop
      vertex -30.5 10 12
      vertex -30.5546 9.48022 12
      vertex -30.5 7.5 12
    endloop
  endfacet
  facet normal 0 0 1
    outer loop
      vertex -30.5546 9.48022 12
      vertex -30.7161 8.98316 12
      vertex -30.5 7.5 12
    endloop
  endfacet
  facet normal 0 0 1
    outer loop
      vertex -30.7161 8.98316 12
      vertex -30.9775 8.53054 12
      vertex -30.5 7.5 12
    endloop
  endfacet
  facet normal 0 0 1
    outer loop
      vertex -32.7387 7.5137 12
      vertex -33.2613 7.5137 12
      vertex -43 0 12
    endloop
  endfacet
  facet normal 0 0 1
    outer loop
      vertex -30.9775 8.53054 12
      vertex -31.3272 8.14214 12
      vertex -30.5 7.5 12
    endloop
  endfacet
  facet normal 0 0 1
    outer loop
      vertex -31.3272 8.14214 12
      vertex -31.75 7.83494 12
      vertex -30.5 7.5 12
    endloop
  endfacet
  facet normal 0 0 1
    outer loop
      vertex -35.4454 9.48022 12
      vertex -35.5 7.5 12
      vertex -35.2839 8.98316 12
    endloop
  endfacet
  facet normal 0 0 1
    outer loop
      vertex -33.2613 7.5137 12
      vertex -33.7725 7.62236 12
      vertex -43 0 12
    endloop
  endfacet
  facet normal 0 0 1
    outer loop
      vertex -35.2839 8.98316 12
      vertex -35.5 7.5 12
      vertex -35.0225 8.53054 12
    endloop
  endfacet
  facet normal 0 0 1
    outer loop
      vertex -34.25 7.83494 12
      vertex -43 0 12
      vertex -33.7725 7.62236 12
    endloop
  endfacet
  facet normal 0 0 1
    outer loop
      vertex -34.6728 8.14214 12
      vertex -43 0 12
      vertex -34.25 7.83494 12
    endloop
  endfacet
  facet normal 0 0 1
    outer loop
      vertex -35.5 7.5 12
      vertex -43 0 12
      vertex -34.6728 8.14214 12
    endloop
  endfacet
  facet normal 0 0 1
    outer loop
      vertex -35.5 7.5 12
      vertex -43 7.5 12
      vertex -43 0 12
    endloop
  endfacet
  facet normal 0 0 1
    outer loop
      vertex -35.0225 8.53054 12
      vertex -35.5 7.5 12
      vertex -34.6728 8.14214 12
    endloop
  endfacet
  facet normal 0 0 1
    outer loop
      vertex -12.7387 7.5137 12
      vertex -13.2613 7.5137 12
      vertex -43 0 12
    endloop
  endfacet
  facet normal 0 0 1
    outer loop
      vertex -14.25 7.83494 12
      vertex -14.6728 8.14214 12
      vertex -15.5 7.5 12
    endloop
  endfacet
  facet normal 0 0 1
    outer loop
      vertex -15.4454 9.48022 12
      vertex -15.5 7.5 12
      vertex -15.2839 8.98316 12
    endloop
  endfacet
  facet normal 0 0 1
    outer loop
      vertex -15.5 10 12
      vertex -15.5 7.5 12
      vertex -15.4454 9.48022 12
    endloop
  endfacet
  facet normal 0 -1 0
    outer loop
      vertex -10.5 7.5 12
      vertex -3 7.5 12
      vertex -3 7.5 14.1
    endloop
  endfacet
  facet normal 0 -1 0
    outer loop
      vertex -10.5 7.5 14.1
      vertex -10.5 7.5 12
      vertex -3 7.5 14.1
    endloop
  endfacet
  facet normal 0 0 1
    outer loop
      vertex -10.5 7.5 14.1
      vertex -3 7.5 14.1
      vertex -3 12.5 14.1
    endloop
  endfacet
  facet normal 0 0 1
    outer loop
      vertex -10.5 10 14.1
      vertex -10.5 7.5 14.1
      vertex -3 12.5 14.1
    endloop
  endfacet
  facet normal 0 0 1
    outer loop
      vertex -10.5 12.5 14.1
      vertex -10.5 10 14.1
      vertex -3 12.5 14.1
    endloop
  endfacet
  facet normal 0 1 0
    outer loop
      vertex -10.5 12.5 14.1
      vertex -3 12.5 14.1
      vertex -10.5 12.5 12
    endloop
  endfacet
  facet normal 0 1 0
    outer loop
      vertex -10.5 12.5 12
      vertex -3 12.5 14.1
      vertex -3 12.5 12
    endloop
  endfacet
  facet normal 0 0 1
    outer loop
      vertex -35.4454 10.5198 12
      vertex -35.5 12.5 12
      vertex -35.5 10 12
    endloop
  endfacet
  facet normal 0 0 1
    outer loop
      vertex -35.2839 11.0168 12
      vertex -35.5 12.5 12
      vertex -35.4454 10.5198 12
    endloop
  endfacet
  facet normal 0 0 1
    outer loop
      vertex -35.0225 11.4695 12
      vertex -35.5 12.5 12
      vertex -35.2839 11.0168 12
    endloop
  endfacet
  facet normal 0 0 1
    outer loop
      vertex -34.6728 11.8579 12
      vertex -35.5 12.5 12
      vertex -35.0225 11.4695 12
    endloop
  endfacet
  facet normal 0 0 1
    outer loop
      vertex -34.25 12.1651 12
      vertex -35.5 12.5 12
      vertex -34.6728 11.8579 12
    endloop
  endfacet
  facet normal 0 0 1
    outer loop
      vertex -33.7725 12.3776 12
      vertex -35.5 12.5 12
      vertex -34.25 12.1651 12
    endloop
  endfacet
  facet normal 0 0 1
    outer loop
      vertex -33.2613 12.4863 12
      vertex -35.5 12.5 12
      vertex -33.7725 12.3776 12
    endloop
  endfacet
  facet normal 0 0 1
    outer loop
      vertex -32.7387 12.4863 12
      vertex -35.5 12.5 12
      vertex -33.2613 12.4863 12
    endloop
  endfacet
  facet normal 0 0 1
    outer loop
      vertex -30.5 12.5 12
      vertex -35.5 12.5 12
      vertex -32.7387 12.4863 12
    endloop
  endfacet
  facet normal 0 0 1
    outer loop
      vertex -30.5 12.5 12
      vertex -32.7387 12.4863 12
      vertex -32.2275 12.3776 12
    endloop
  endfacet
  facet normal 0 0 1
    outer loop
      vertex -30.5 12.5 12
      vertex -32.2275 12.3776 12
      vertex -31.75 12.1651 12
    endloop
  endfacet
  facet normal 0 0 1
    outer loop
      vertex -30.5 12.5 12
      vertex -31.75 12.1651 12
      vertex -31.3272 11.8579 12
    endloop
  endfacet
  facet normal 0 0 1
    outer loop
      vertex -30.5 12.5 12
      vertex -31.3272 11.8579 12
      vertex -30.9775 11.4695 12
    endloop
  endfacet
  facet normal 0 0 1
    outer loop
      vertex -30.5 12.5 12
      vertex -30.9775 11.4695 12
      vertex -30.7161 11.0168 12
    endloop
  endfacet
  facet normal 0 0 1
    outer loop
      vertex -30.5 12.5 12
      vertex -30.7161 11.0168 12
      vertex -30.5546 10.5198 12
    endloop
  endfacet
  facet normal 0 0 1
    outer loop
      vertex -30.5 12.5 12
      vertex -30.5546 10.5198 12
      vertex -30.5 10 12
    endloop
  endfacet
  facet normal 0 0 1
    outer loop
      vertex -15.5 21 12
      vertex -30.5 12.5 12
      vertex -15.5 12.5 12
    endloop
  endfacet
  facet normal 0 0 1
    outer loop
      vertex -15.4454 10.5198 12
      vertex -15.5 12.5 12
      vertex -15.5 10 12
    endloop
  endfacet
  facet normal 0 0 1
    outer loop
      vertex -15.2839 11.0168 12
      vertex -15.5 12.5 12
      vertex -15.4454 10.5198 12
    endloop
  endfacet
  facet normal 0 0 1
    outer loop
      vertex -15.0225 11.4695 12
      vertex -15.5 12.5 12
      vertex -15.2839 11.0168 12
    endloop
  endfacet
  facet normal 0 0 1
    outer loop
      vertex -14.6728 11.8579 12
      vertex -15.5 12.5 12
      vertex -15.0225 11.4695 12
    endloop
  endfacet
  facet normal 0 0 1
    outer loop
      vertex -14.25 12.1651 12
      vertex -15.5 12.5 12
      vertex -14.6728 11.8579 12
    endloop
  endfacet
  facet normal 0 0 1
    outer loop
      vertex -13.7725 12.3776 12
      vertex -15.5 12.5 12
      vertex -14.25 12.1651 12
    endloop
  endfacet
  facet normal 0 0 1
    outer loop
      vertex -13.2613 12.4863 12
      vertex -15.5 12.5 12
      vertex -13.7725 12.3776 12
    endloop
  endfacet
  facet normal 0 0 1
    outer loop
      vertex -12.7387 12.4863 12
      vertex -15.5 12.5 12
      vertex -13.2613 12.4863 12
    endloop
  endfacet
  facet normal 0 0 1
    outer loop
      vertex -10.5 12.5 12
      vertex -15.5 12.5 12
      vertex -12.7387 12.4863 12
    endloop
  endfacet
  facet normal 0 0 1
    outer loop
      vertex -10.5 12.5 12
      vertex -12.7387 12.4863 12
      vertex -12.2275 12.3776 12
    endloop
  endfacet
  facet normal 0 0 1
    outer loop
      vertex -10.5 12.5 12
      vertex -12.2275 12.3776 12
      vertex -11.75 12.1651 12
    endloop
  endfacet
  facet normal 0 0 1
    outer loop
      vertex -10.5 12.5 12
      vertex -11.75 12.1651 12
      vertex -11.3272 11.8579 12
    endloop
  endfacet
  facet normal 0 0 1
    outer loop
      vertex -10.5 12.5 12
      vertex -11.3272 11.8579 12
      vertex -10.9775 11.4695 12
    endloop
  endfacet
  facet normal 0 0 1
    outer loop
      vertex -10.5 12.5 12
      vertex -10.9775 11.4695 12
      vertex -10.7161 11.0168 12
    endloop
  endfacet
  facet normal 0 0 1
    outer loop
      vertex -10.5 12.5 12
      vertex -10.7161 11.0168 12
      vertex -10.5546 10.5198 12
    endloop
  endfacet
  facet normal 0 0 1
    outer loop
      vertex -10.5 12.5 12
      vertex -10.5546 10.5198 12
      vertex -10.5 10 12
    endloop
  endfacet
  facet normal 0 0 1
    outer loop
      vertex -10.5 21 12
      vertex -15.5 12.5 12
      vertex -10.5 12.5 12
    endloop
  endfacet
  facet normal 0 0 1
    outer loop
      vertex -3 60 12
      vertex -10.5 12.5 12
      vertex -3 12.5 12
    endloop
  endfacet
  facet normal 0 0 1
    outer loop
      vertex -10.5 60 12
      vertex -10.5 52.5 12
      vertex -3 60 12
    endloop
  endfacet
  facet normal 0 0 1
    outer loop
      vertex -10.5 47.5 12
      vertex -10.5 32.5 12
      vertex -3 60 12
    endloop
  endfacet
  facet normal 0 0 1
    outer loop
      vertex -22.9695 60 12
      vertex -43 12.5 12
      vertex -15.5 60 12
    endloop
  endfacet
  facet normal 0 0 1
    outer loop
      vertex -43 20 12
      vertex -43 12.5 12
      vertex -22.9695 60 12
    endloop
  endfacet
  facet normal 0 0 1
    outer loop
      vertex -15.5 27.5 12
      vertex -30.5 12.5 12
      vertex -15.5 21 12
    endloop
  endfacet
  facet normal 0 0 1
    outer loop
      vertex -10.9775 48.5305 12
      vertex -10.5 47.5 12
      vertex -3 60 12
    endloop
  endfacet
  facet normal 0 0 1
    outer loop
      vertex -15.5 30 12
      vertex -30.5 12.5 12
      vertex -15.5 27.5 12
    endloop
  endfacet
  facet normal 0 0 1
    outer loop
      vertex -3 60 12
      vertex -10.5 27.5 12
      vertex -10.5 21 12
    endloop
  endfacet
  facet normal 0 0 1
    outer loop
      vertex -15.5 27.5 12
      vertex -10.5 27.5 12
      vertex -12.7387 27.5137 12
    endloop
  endfacet
  facet normal 0 0 1
    outer loop
      vertex -3 60 12
      vertex -10.5 21 12
      vertex -10.5 12.5 12
    endloop
  endfacet
  facet normal 0 0 1
    outer loop
      vertex -11.3272 48.1421 12
      vertex -10.5 47.5 12
      vertex -10.9775 48.5305 12
    endloop
  endfacet
  facet normal 0 0 1
    outer loop
      vertex -15.4454 29.4802 12
      vertex -15.5 30 12
      vertex -15.5 27.5 12
    endloop
  endfacet
  facet normal 0 0 1
    outer loop
      vertex -15.4454 30.5198 12
      vertex -30.5 12.5 12
      vertex -15.5 30 12
    endloop
  endfacet
  facet normal 0 0 1
    outer loop
      vertex -15.2839 31.0168 12
      vertex -30.5 12.5 12
      vertex -15.4454 30.5198 12
    endloop
  endfacet
  facet normal 0 0 1
    outer loop
      vertex -15.5 32.5 12
      vertex -30.5 12.5 12
      vertex -15.2839 31.0168 12
    endloop
  endfacet
  facet normal 0 0 1
    outer loop
      vertex -10.5 32.5 12
      vertex -11.3272 31.8579 12
      vertex -10.9775 31.4695 12
    endloop
  endfacet
  facet normal 0 0 1
    outer loop
      vertex -10.5 32.5 12
      vertex -12.2275 32.3776 12
      vertex -11.75 32.1651 12
    endloop
  endfacet
  facet normal 0 0 1
    outer loop
      vertex -10.5 32.5 12
      vertex -11.75 32.1651 12
      vertex -11.3272 31.8579 12
    endloop
  endfacet
  facet normal 0 0 1
    outer loop
      vertex -15.5 47.5 12
      vertex -13.7725 47.6224 12
      vertex -14.25 47.8349 12
    endloop
  endfacet
  facet normal 0 0 1
    outer loop
      vertex -15.5 47.5 12
      vertex -12.7387 47.5137 12
      vertex -13.2613 47.5137 12
    endloop
  endfacet
  facet normal 0 0 1
    outer loop
      vertex -10.5 32.5 12
      vertex -15.5 32.5 12
      vertex -13.2613 32.4863 12
    endloop
  endfacet
  facet normal 0 0 1
    outer loop
      vertex -13.2613 32.4863 12
      vertex -15.5 32.5 12
      vertex -13.7725 32.3776 12
    endloop
  endfacet
  facet normal 0 0 1
    outer loop
      vertex -15.5 47.5 12
      vertex -13.2613 47.5137 12
      vertex -13.7725 47.6224 12
    endloop
  endfacet
  facet normal 0 0 1
    outer loop
      vertex -14.25 32.1651 12
      vertex -15.5 32.5 12
      vertex -14.6728 31.8579 12
    endloop
  endfacet
  facet normal 0 0 1
    outer loop
      vertex -14.6728 31.8579 12
      vertex -15.5 32.5 12
      vertex -15.0225 31.4695 12
    endloop
  endfacet
  facet normal 0 0 1
    outer loop
      vertex -15.5 27.5 12
      vertex -13.7725 27.6224 12
      vertex -14.25 27.8349 12
    endloop
  endfacet
  facet normal 0 0 1
    outer loop
      vertex -15.5 27.5 12
      vertex -13.2613 27.5137 12
      vertex -13.7725 27.6224 12
    endloop
  endfacet
  facet normal 0 0 1
    outer loop
      vertex -10.5 32.5 12
      vertex -10.9775 31.4695 12
      vertex -10.7161 31.0168 12
    endloop
  endfacet
  facet normal 0 0 1
    outer loop
      vertex -11.3272 28.1421 12
      vertex -10.5 27.5 12
      vertex -10.9775 28.5305 12
    endloop
  endfacet
  facet normal 0 0 1
    outer loop
      vertex -3 60 12
      vertex -10.5 30 12
      vertex -10.5 27.5 12
    endloop
  endfacet
  facet normal 0 0 1
    outer loop
      vertex -3 60 12
      vertex -10.5546 30.5198 12
      vertex -10.5 30 12
    endloop
  endfacet
  facet normal 0 0 1
    outer loop
      vertex -12.7387 27.5137 12
      vertex -10.5 27.5 12
      vertex -12.2275 27.6224 12
    endloop
  endfacet
  facet normal 0 0 1
    outer loop
      vertex -12.2275 27.6224 12
      vertex -10.5 27.5 12
      vertex -11.75 27.8349 12
    endloop
  endfacet
  facet normal 0 0 1
    outer loop
      vertex -11.75 27.8349 12
      vertex -10.5 27.5 12
      vertex -11.3272 28.1421 12
    endloop
  endfacet
  facet normal 0 0 1
    outer loop
      vertex -15.5 27.5 12
      vertex -12.7387 27.5137 12
      vertex -13.2613 27.5137 12
    endloop
  endfacet
  facet normal 0 0 1
    outer loop
      vertex -10.7161 31.0168 12
      vertex -10.5546 30.5198 12
      vertex -3 60 12
    endloop
  endfacet
  facet normal 0 0 1
    outer loop
      vertex -10.5 32.5 12
      vertex -13.2613 32.4863 12
      vertex -12.7387 32.4863 12
    endloop
  endfacet
  facet normal 0 0 1
    outer loop
      vertex -15.0225 31.4695 12
      vertex -15.5 32.5 12
      vertex -15.2839 31.0168 12
    endloop
  endfacet
  facet normal 0 0 1
    outer loop
      vertex -13.7725 32.3776 12
      vertex -15.5 32.5 12
      vertex -14.25 32.1651 12
    endloop
  endfacet
  facet normal 0 0 1
    outer loop
      vertex -14.6728 28.1421 12
      vertex -15.5 27.5 12
      vertex -14.25 27.8349 12
    endloop
  endfacet
  facet normal 0 0 1
    outer loop
      vertex -15.0225 28.5305 12
      vertex -15.5 27.5 12
      vertex -14.6728 28.1421 12
    endloop
  endfacet
  facet normal 0 0 1
    outer loop
      vertex -10.5 32.5 12
      vertex -12.7387 32.4863 12
      vertex -12.2275 32.3776 12
    endloop
  endfacet
  facet normal 0 0 1
    outer loop
      vertex -15.2839 28.9832 12
      vertex -15.4454 29.4802 12
      vertex -15.5 27.5 12
    endloop
  endfacet
  facet normal 0 0 1
    outer loop
      vertex -10.7161 51.0168 12
      vertex -10.5546 50.5198 12
      vertex -3 60 12
    endloop
  endfacet
  facet normal 0 0 1
    outer loop
      vertex -15.5 50 12
      vertex -43 12.5 12
      vertex -15.5 47.5 12
    endloop
  endfacet
  facet normal 0 0 1
    outer loop
      vertex -3 60 12
      vertex -10.5 32.5 12
      vertex -10.7161 31.0168 12
    endloop
  endfacet
  facet normal 0 0 1
    outer loop
      vertex -15.5 52.5 12
      vertex -43 12.5 12
      vertex -15.5 50 12
    endloop
  endfacet
  facet normal 0 0 1
    outer loop
      vertex -15.5 52.5 12
      vertex -15.5 50 12
      vertex -15.4454 50.5198 12
    endloop
  endfacet
  facet normal 0 0 1
    outer loop
      vertex -11.3272 51.8579 12
      vertex -10.9775 51.4695 12
      vertex -10.5 52.5 12
    endloop
  endfacet
  facet normal 0 0 1
    outer loop
      vertex -15.5 52.5 12
      vertex -15.4454 50.5198 12
      vertex -15.2839 51.0168 12
    endloop
  endfacet
  facet normal 0 0 1
    outer loop
      vertex -15.5 52.5 12
      vertex -15.2839 51.0168 12
      vertex -15.0225 51.4695 12
    endloop
  endfacet
  facet normal 0 0 1
    outer loop
      vertex -15.5 52.5 12
      vertex -15.0225 51.4695 12
      vertex -14.6728 51.8579 12
    endloop
  endfacet
  facet normal 0 0 1
    outer loop
      vertex -11.75 52.1651 12
      vertex -11.3272 51.8579 12
      vertex -10.5 52.5 12
    endloop
  endfacet
  facet normal 0 0 1
    outer loop
      vertex -15.5 52.5 12
      vertex -14.6728 51.8579 12
      vertex -14.25 52.1651 12
    endloop
  endfacet
  facet normal 0 0 1
    outer loop
      vertex -15.5 52.5 12
      vertex -14.25 52.1651 12
      vertex -13.7725 52.3776 12
    endloop
  endfacet
  facet normal 0 0 1
    outer loop
      vertex -15.5 52.5 12
      vertex -13.2613 52.4863 12
      vertex -10.5 52.5 12
    endloop
  endfacet
  facet normal 0 0 1
    outer loop
      vertex -15.5 52.5 12
      vertex -13.7725 52.3776 12
      vertex -13.2613 52.4863 12
    endloop
  endfacet
  facet normal 0 0 1
    outer loop
      vertex -13.2613 52.4863 12
      vertex -12.7387 52.4863 12
      vertex -10.5 52.5 12
    endloop
  endfacet
  facet normal 0 0 1
    outer loop
      vertex -10.5 52.5 12
      vertex -10.9775 51.4695 12
      vertex -3 60 12
    endloop
  endfacet
  facet normal 0 0 1
    outer loop
      vertex -12.2275 52.3776 12
      vertex -11.75 52.1651 12
      vertex -10.5 52.5 12
    endloop
  endfacet
  facet normal 0 0 1
    outer loop
      vertex -10.9775 51.4695 12
      vertex -10.7161 51.0168 12
      vertex -3 60 12
    endloop
  endfacet
  facet normal 0 0 1
    outer loop
      vertex -10.5546 50.5198 12
      vertex -10.5 50 12
      vertex -3 60 12
    endloop
  endfacet
  facet normal 0 0 1
    outer loop
      vertex -10.5 50 12
      vertex -10.5546 49.4802 12
      vertex -3 60 12
    endloop
  endfacet
  facet normal 0 0 1
    outer loop
      vertex -10.5546 49.4802 12
      vertex -10.7161 48.9832 12
      vertex -3 60 12
    endloop
  endfacet
  facet normal 0 0 1
    outer loop
      vertex -10.7161 48.9832 12
      vertex -10.9775 48.5305 12
      vertex -3 60 12
    endloop
  endfacet
  facet normal 0 0 1
    outer loop
      vertex -14.6728 48.1421 12
      vertex -15.0225 48.5305 12
      vertex -15.5 47.5 12
    endloop
  endfacet
  facet normal 0 0 1
    outer loop
      vertex -15.2839 48.9832 12
      vertex -15.5 47.5 12
      vertex -15.0225 48.5305 12
    endloop
  endfacet
  facet normal 0 0 1
    outer loop
      vertex -15.4454 49.4802 12
      vertex -15.5 47.5 12
      vertex -15.2839 48.9832 12
    endloop
  endfacet
  facet normal 0 0 1
    outer loop
      vertex -15.5 50 12
      vertex -15.5 47.5 12
      vertex -15.4454 49.4802 12
    endloop
  endfacet
  facet normal 0 0 1
    outer loop
      vertex -15.5 52.5 12
      vertex -15.5 60 12
      vertex -43 12.5 12
    endloop
  endfacet
  facet normal 0 0 1
    outer loop
      vertex -15.0225 28.5305 12
      vertex -15.2839 28.9832 12
      vertex -15.5 27.5 12
    endloop
  endfacet
  facet normal 0 0 1
    outer loop
      vertex -10.5 30 12
      vertex -10.5546 29.4802 12
      vertex -10.5 27.5 12
    endloop
  endfacet
  facet normal 0 0 1
    outer loop
      vertex -15.5 47.5 12
      vertex -14.25 47.8349 12
      vertex -14.6728 48.1421 12
    endloop
  endfacet
  facet normal 0 0 1
    outer loop
      vertex -10.7161 28.9832 12
      vertex -10.5 27.5 12
      vertex -10.5546 29.4802 12
    endloop
  endfacet
  facet normal 0 0 1
    outer loop
      vertex -10.9775 28.5305 12
      vertex -10.5 27.5 12
      vertex -10.7161 28.9832 12
    endloop
  endfacet
  facet normal 0 0 1
    outer loop
      vertex -10.5 21 12
      vertex -15.5 21 12
      vertex -15.5 12.5 12
    endloop
  endfacet
  facet normal 0 0 1
    outer loop
      vertex -11.75 47.8349 12
      vertex -10.5 47.5 12
      vertex -11.3272 48.1421 12
    endloop
  endfacet
  facet normal 0 0 1
    outer loop
      vertex -12.2275 47.6224 12
      vertex -10.5 47.5 12
      vertex -11.75 47.8349 12
    endloop
  endfacet
  facet normal 0 0 1
    outer loop
      vertex -12.7387 47.5137 12
      vertex -10.5 47.5 12
      vertex -12.2275 47.6224 12
    endloop
  endfacet
  facet normal 0 0 1
    outer loop
      vertex -15.5 47.5 12
      vertex -10.5 47.5 12
      vertex -12.7387 47.5137 12
    endloop
  endfacet
  facet normal 0 0 1
    outer loop
      vertex -12.7387 52.4863 12
      vertex -12.2275 52.3776 12
      vertex -10.5 52.5 12
    endloop
  endfacet
  facet normal 0 0 1
    outer loop
      vertex -15.5 32.5 12
      vertex -35.5 12.5 12
      vertex -30.5 12.5 12
    endloop
  endfacet
  facet normal 0 0 1
    outer loop
      vertex -15.5 32.5 12
      vertex -43 12.5 12
      vertex -35.5 12.5 12
    endloop
  endfacet
  facet normal 0 0 1
    outer loop
      vertex -15.5 32.5 12
      vertex -15.5 47.5 12
      vertex -43 12.5 12
    endloop
  endfacet
  facet normal 0 1 0
    outer loop
      vertex -22.9695 60 12
      vertex -15.5 60 12
      vertex -22.9695 60 0
    endloop
  endfacet
  facet normal 0 1 0
    outer loop
      vertex -10.5 60 14.1
      vertex -15.5 60 12
      vertex -15.5 60 14.1
    endloop
  endfacet
  facet normal 0 1 0
    outer loop
      vertex -22.9695 60 0
      vertex -15.5 60 12
      vertex -10.5 60 14.1
    endloop
  endfacet
  facet normal 0 1 0
    outer loop
      vertex -22.9695 60 0
      vertex -10.5 60 14.1
      vertex -10.5 60 12
    endloop
  endfacet
  facet normal 0 1 0
    outer loop
      vertex -22.9695 60 0
      vertex -10.5 60 12
      vertex -3 60 12
    endloop
  endfacet
  facet normal 0 1 0
    outer loop
      vertex -22.9695 60 0
      vertex -3 60 12
      vertex -3 60 0
    endloop
  endfacet
  facet normal -1 0 0
    outer loop
      vertex -43 0 12
      vertex -43 7.5 12
      vertex -43 0 0
    endloop
  endfacet
  facet normal -1 0 0
    outer loop
      vertex -43 12.5 14.1
      vertex -43 7.5 12
      vertex -43 7.5 14.1
    endloop
  endfacet
  facet normal -1 0 0
    outer loop
      vertex -43 0 0
      vertex -43 7.5 12
      vertex -43 12.5 14.1
    endloop
  endfacet
  facet normal -1 0 0
    outer loop
      vertex -43 0 0
      vertex -43 12.5 14.1
      vertex -43 12.5 12
    endloop
  endfacet
  facet normal -1 0 0
    outer loop
      vertex -43 0 0
      vertex -43 12.5 12
      vertex -43 20 12
    endloop
  endfacet
  facet normal -1 0 0
    outer loop
      vertex -43 0 0
      vertex -43 20 12
      vertex -43 20 0
    endloop
  endfacet
  facet normal -0.894154 0.447759 0
    outer loop
      vertex -43 20 12
      vertex -22.9695 60 12
      vertex -43 20 0
    endloop
  endfacet
  facet normal -0.894154 0.447759 0
    outer loop
      vertex -43 20 0
      vertex -22.9695 60 12
      vertex -22.9695 60 0
    endloop
  endfacet
  facet normal 0.994522 -0.104529 0
    outer loop
      vertex -15.5 10 0
      vertex -15.4454 10.5198 0
      vertex -15.4454 10.5198 12
    endloop
  endfacet
  facet normal 0.994522 -0.104529 0
    outer loop
      vertex -15.5 10 12
      vertex -15.5 10 0
      vertex -15.4454 10.5198 12
    endloop
  endfacet
  facet normal 0.994522 0.104529 0
    outer loop
      vertex -15.5 10 0
      vertex -15.5 10 12
      vertex -15.4454 9.48022 12
    endloop
  endfacet
  facet normal 0.994522 0.104529 0
    outer loop
      vertex -15.4454 9.48022 0
      vertex -15.5 10 0
      vertex -15.4454 9.48022 12
    endloop
  endfacet
  facet normal 0.951057 -0.309016 0
    outer loop
      vertex -15.4454 10.5198 0
      vertex -15.2839 11.0168 0
      vertex -15.2839 11.0168 12
    endloop
  endfacet
  facet normal 0.951057 -0.309016 0
    outer loop
      vertex -15.4454 10.5198 12
      vertex -15.4454 10.5198 0
      vertex -15.2839 11.0168 12
    endloop
  endfacet
  facet normal 0.866024 -0.500002 0
    outer loop
      vertex -15.2839 11.0168 0
      vertex -15.0225 11.4695 0
      vertex -15.0225 11.4695 12
    endloop
  endfacet
  facet normal 0.866024 -0.500002 0
    outer loop
      vertex -15.2839 11.0168 12
      vertex -15.2839 11.0168 0
      vertex -15.0225 11.4695 12
    endloop
  endfacet
  facet normal 0.743146 -0.66913 0
    outer loop
      vertex -15.0225 11.4695 0
      vertex -14.6728 11.8579 0
      vertex -14.6728 11.8579 12
    endloop
  endfacet
  facet normal 0.743146 -0.66913 0
    outer loop
      vertex -15.0225 11.4695 12
      vertex -15.0225 11.4695 0
      vertex -14.6728 11.8579 12
    endloop
  endfacet
  facet normal 0.587786 -0.809017 0
    outer loop
      vertex -14.6728 11.8579 0
      vertex -14.25 12.1651 0
      vertex -14.25 12.1651 12
    endloop
  endfacet
  facet normal 0.587786 -0.809017 0
    outer loop
      vertex -14.6728 11.8579 12
      vertex -14.6728 11.8579 0
      vertex -14.25 12.1651 12
    endloop
  endfacet
  facet normal 0.406735 -0.913546 0
    outer loop
      vertex -14.25 12.1651 0
      vertex -13.7725 12.3776 0
      vertex -13.7725 12.3776 12
    endloop
  endfacet
  facet normal 0.406735 -0.913546 0
    outer loop
      vertex -14.25 12.1651 12
      vertex -14.25 12.1651 0
      vertex -13.7725 12.3776 12
    endloop
  endfacet
  facet normal 0.207913 -0.978147 0
    outer loop
      vertex -13.7725 12.3776 0
      vertex -13.2613 12.4863 0
      vertex -13.2613 12.4863 12
    endloop
  endfacet
  facet normal 0.207913 -0.978147 0
    outer loop
      vertex -13.7725 12.3776 12
      vertex -13.7725 12.3776 0
      vertex -13.2613 12.4863 12
    endloop
  endfacet
  facet normal 0 -1 0
    outer loop
      vertex -13.2613 12.4863 0
      vertex -12.7387 12.4863 0
      vertex -12.7387 12.4863 12
    endloop
  endfacet
  facet normal 0 -1 0
    outer loop
      vertex -13.2613 12.4863 12
      vertex -13.2613 12.4863 0
      vertex -12.7387 12.4863 12
    endloop
  endfacet
  facet normal -0.207913 -0.978147 0
    outer loop
      vertex -12.7387 12.4863 0
      vertex -12.2275 12.3776 0
      vertex -12.2275 12.3776 12
    endloop
  endfacet
  facet normal -0.207913 -0.978147 0
    outer loop
      vertex -12.7387 12.4863 12
      vertex -12.7387 12.4863 0
      vertex -12.2275 12.3776 12
    endloop
  endfacet
  facet normal -0.406735 -0.913546 0
    outer loop
      vertex -12.2275 12.3776 0
      vertex -11.75 12.1651 0
      vertex -11.75 12.1651 12
    endloop
  endfacet
  facet normal -0.406735 -0.913546 0
    outer loop
      vertex -12.2275 12.3776 12
      vertex -12.2275 12.3776 0
      vertex -11.75 12.1651 12
    endloop
  endfacet
  facet normal -0.587786 -0.809017 0
    outer loop
      vertex -11.75 12.1651 0
      vertex -11.3272 11.8579 0
      vertex -11.3272 11.8579 12
    endloop
  endfacet
  facet normal -0.587786 -0.809017 0
    outer loop
      vertex -11.75 12.1651 12
      vertex -11.75 12.1651 0
      vertex -11.3272 11.8579 12
    endloop
  endfacet
  facet normal -0.743146 -0.66913 0
    outer loop
      vertex -10.9775 11.4695 0
      vertex -10.9775 11.4695 12
      vertex -11.3272 11.8579 0
    endloop
  endfacet
  facet normal -0.743146 -0.66913 0
    outer loop
      vertex -11.3272 11.8579 0
      vertex -10.9775 11.4695 12
      vertex -11.3272 11.8579 12
    endloop
  endfacet
  facet normal -0.866024 -0.500002 0
    outer loop
      vertex -10.7161 11.0168 0
      vertex -10.7161 11.0168 12
      vertex -10.9775 11.4695 0
    endloop
  endfacet
  facet normal -0.866024 -0.500002 0
    outer loop
      vertex -10.9775 11.4695 0
      vertex -10.7161 11.0168 12
      vertex -10.9775 11.4695 12
    endloop
  endfacet
  facet normal -0.951057 -0.309016 0
    outer loop
      vertex -10.5546 10.5198 0
      vertex -10.5546 10.5198 12
      vertex -10.7161 11.0168 0
    endloop
  endfacet
  facet normal -0.951057 -0.309016 0
    outer loop
      vertex -10.7161 11.0168 0
      vertex -10.5546 10.5198 12
      vertex -10.7161 11.0168 12
    endloop
  endfacet
  facet normal -0.994522 -0.104529 0
    outer loop
      vertex -10.5 10 0
      vertex -10.5 10 12
      vertex -10.5546 10.5198 0
    endloop
  endfacet
  facet normal -0.994522 -0.104529 0
    outer loop
      vertex -10.5546 10.5198 0
      vertex -10.5 10 12
      vertex -10.5546 10.5198 12
    endloop
  endfacet
  facet normal -0.994522 0.104529 0
    outer loop
      vertex -10.5546 9.48022 12
      vertex -10.5 10 12
      vertex -10.5546 9.48022 0
    endloop
  endfacet
  facet normal -0.994522 0.104529 0
    outer loop
      vertex -10.5546 9.48022 0
      vertex -10.5 10 12
      vertex -10.5 10 0
    endloop
  endfacet
  facet normal -0.951057 0.309016 0
    outer loop
      vertex -10.7161 8.98316 12
      vertex -10.5546 9.48022 12
      vertex -10.7161 8.98316 0
    endloop
  endfacet
  facet normal -0.951057 0.309016 0
    outer loop
      vertex -10.7161 8.98316 0
      vertex -10.5546 9.48022 12
      vertex -10.5546 9.48022 0
    endloop
  endfacet
  facet normal -0.866024 0.500002 0
    outer loop
      vertex -10.9775 8.53054 12
      vertex -10.7161 8.98316 12
      vertex -10.9775 8.53054 0
    endloop
  endfacet
  facet normal -0.866024 0.500002 0
    outer loop
      vertex -10.9775 8.53054 0
      vertex -10.7161 8.98316 12
      vertex -10.7161 8.98316 0
    endloop
  endfacet
  facet normal -0.743146 0.66913 0
    outer loop
      vertex -11.3272 8.14214 12
      vertex -10.9775 8.53054 12
      vertex -11.3272 8.14214 0
    endloop
  endfacet
  facet normal -0.743146 0.66913 0
    outer loop
      vertex -11.3272 8.14214 0
      vertex -10.9775 8.53054 12
      vertex -10.9775 8.53054 0
    endloop
  endfacet
  facet normal -0.587786 0.809017 0
    outer loop
      vertex -11.75 7.83494 12
      vertex -11.3272 8.14214 12
      vertex -11.75 7.83494 0
    endloop
  endfacet
  facet normal -0.587786 0.809017 0
    outer loop
      vertex -11.75 7.83494 0
      vertex -11.3272 8.14214 12
      vertex -11.3272 8.14214 0
    endloop
  endfacet
  facet normal -0.406735 0.913546 0
    outer loop
      vertex -12.2275 7.62236 12
      vertex -11.75 7.83494 12
      vertex -12.2275 7.62236 0
    endloop
  endfacet
  facet normal -0.406735 0.913546 0
    outer loop
      vertex -12.2275 7.62236 0
      vertex -11.75 7.83494 12
      vertex -11.75 7.83494 0
    endloop
  endfacet
  facet normal -0.207913 0.978147 0
    outer loop
      vertex -12.7387 7.5137 12
      vertex -12.2275 7.62236 12
      vertex -12.7387 7.5137 0
    endloop
  endfacet
  facet normal -0.207913 0.978147 0
    outer loop
      vertex -12.7387 7.5137 0
      vertex -12.2275 7.62236 12
      vertex -12.2275 7.62236 0
    endloop
  endfacet
  facet normal 0 1 0
    outer loop
      vertex -13.2613 7.5137 12
      vertex -12.7387 7.5137 12
      vertex -13.2613 7.5137 0
    endloop
  endfacet
  facet normal 0 1 0
    outer loop
      vertex -13.2613 7.5137 0
      vertex -12.7387 7.5137 12
      vertex -12.7387 7.5137 0
    endloop
  endfacet
  facet normal 0.207913 0.978147 0
    outer loop
      vertex -13.7725 7.62236 12
      vertex -13.2613 7.5137 12
      vertex -13.7725 7.62236 0
    endloop
  endfacet
  facet normal 0.207913 0.978147 0
    outer loop
      vertex -13.7725 7.62236 0
      vertex -13.2613 7.5137 12
      vertex -13.2613 7.5137 0
    endloop
  endfacet
  facet normal 0.406735 0.913546 0
    outer loop
      vertex -14.25 7.83494 12
      vertex -13.7725 7.62236 12
      vertex -14.25 7.83494 0
    endloop
  endfacet
  facet normal 0.406735 0.913546 0
    outer loop
      vertex -14.25 7.83494 0
      vertex -13.7725 7.62236 12
      vertex -13.7725 7.62236 0
    endloop
  endfacet
  facet normal 0.587786 0.809017 0
    outer loop
      vertex -14.6728 8.14214 12
      vertex -14.25 7.83494 12
      vertex -14.6728 8.14214 0
    endloop
  endfacet
  facet normal 0.587786 0.809017 0
    outer loop
      vertex -14.6728 8.14214 0
      vertex -14.25 7.83494 12
      vertex -14.25 7.83494 0
    endloop
  endfacet
  facet normal 0.743146 0.66913 0
    outer loop
      vertex -15.0225 8.53054 0
      vertex -15.0225 8.53054 12
      vertex -14.6728 8.14214 12
    endloop
  endfacet
  facet normal 0.743146 0.66913 0
    outer loop
      vertex -14.6728 8.14214 0
      vertex -15.0225 8.53054 0
      vertex -14.6728 8.14214 12
    endloop
  endfacet
  facet normal 0.866024 0.500002 0
    outer loop
      vertex -15.2839 8.98316 0
      vertex -15.2839 8.98316 12
      vertex -15.0225 8.53054 12
    endloop
  endfacet
  facet normal 0.866024 0.500002 0
    outer loop
      vertex -15.0225 8.53054 0
      vertex -15.2839 8.98316 0
      vertex -15.0225 8.53054 12
    endloop
  endfacet
  facet normal 0.951057 0.309016 0
    outer loop
      vertex -15.4454 9.48022 0
      vertex -15.4454 9.48022 12
      vertex -15.2839 8.98316 12
    endloop
  endfacet
  facet normal 0.951057 0.309016 0
    outer loop
      vertex -15.2839 8.98316 0
      vertex -15.4454 9.48022 0
      vertex -15.2839 8.98316 12
    endloop
  endfacet
  facet normal 0.994522 -0.104529 0
    outer loop
      vertex -15.5 30 0
      vertex -15.4454 30.5198 0
      vertex -15.4454 30.5198 12
    endloop
  endfacet
  facet normal 0.994522 -0.104529 0
    outer loop
      vertex -15.5 30 12
      vertex -15.5 30 0
      vertex -15.4454 30.5198 12
    endloop
  endfacet
  facet normal 0.994522 0.104529 0
    outer loop
      vertex -15.5 30 0
      vertex -15.5 30 12
      vertex -15.4454 29.4802 12
    endloop
  endfacet
  facet normal 0.994522 0.104529 0
    outer loop
      vertex -15.4454 29.4802 0
      vertex -15.5 30 0
      vertex -15.4454 29.4802 12
    endloop
  endfacet
  facet normal 0.951057 -0.309016 0
    outer loop
      vertex -15.4454 30.5198 0
      vertex -15.2839 31.0168 0
      vertex -15.2839 31.0168 12
    endloop
  endfacet
  facet normal 0.951057 -0.309016 0
    outer loop
      vertex -15.4454 30.5198 12
      vertex -15.4454 30.5198 0
      vertex -15.2839 31.0168 12
    endloop
  endfacet
  facet normal 0.866024 -0.500002 0
    outer loop
      vertex -15.2839 31.0168 0
      vertex -15.0225 31.4695 0
      vertex -15.0225 31.4695 12
    endloop
  endfacet
  facet normal 0.866024 -0.500002 0
    outer loop
      vertex -15.2839 31.0168 12
      vertex -15.2839 31.0168 0
      vertex -15.0225 31.4695 12
    endloop
  endfacet
  facet normal 0.743146 -0.66913 0
    outer loop
      vertex -15.0225 31.4695 0
      vertex -14.6728 31.8579 0
      vertex -14.6728 31.8579 12
    endloop
  endfacet
  facet normal 0.743146 -0.66913 0
    outer loop
      vertex -15.0225 31.4695 12
      vertex -15.0225 31.4695 0
      vertex -14.6728 31.8579 12
    endloop
  endfacet
  facet normal 0.587786 -0.809017 0
    outer loop
      vertex -14.6728 31.8579 0
      vertex -14.25 32.1651 0
      vertex -14.25 32.1651 12
    endloop
  endfacet
  facet normal 0.587786 -0.809017 0
    outer loop
      vertex -14.6728 31.8579 12
      vertex -14.6728 31.8579 0
      vertex -14.25 32.1651 12
    endloop
  endfacet
  facet normal 0.406735 -0.913546 0
    outer loop
      vertex -14.25 32.1651 0
      vertex -13.7725 32.3776 0
      vertex -13.7725 32.3776 12
    endloop
  endfacet
  facet normal 0.406735 -0.913546 0
    outer loop
      vertex -14.25 32.1651 12
      vertex -14.25 32.1651 0
      vertex -13.7725 32.3776 12
    endloop
  endfacet
  facet normal 0.207913 -0.978147 0
    outer loop
      vertex -13.7725 32.3776 0
      vertex -13.2613 32.4863 0
      vertex -13.2613 32.4863 12
    endloop
  endfacet
  facet normal 0.207913 -0.978147 0
    outer loop
      vertex -13.7725 32.3776 12
      vertex -13.7725 32.3776 0
      vertex -13.2613 32.4863 12
    endloop
  endfacet
  facet normal 0 -1 0
    outer loop
      vertex -13.2613 32.4863 0
      vertex -12.7387 32.4863 0
      vertex -12.7387 32.4863 12
    endloop
  endfacet
  facet normal 0 -1 0
    outer loop
      vertex -13.2613 32.4863 12
      vertex -13.2613 32.4863 0
      vertex -12.7387 32.4863 12
    endloop
  endfacet
  facet normal -0.207913 -0.978147 0
    outer loop
      vertex -12.7387 32.4863 0
      vertex -12.2275 32.3776 0
      vertex -12.2275 32.3776 12
    endloop
  endfacet
  facet normal -0.207913 -0.978147 0
    outer loop
      vertex -12.7387 32.4863 12
      vertex -12.7387 32.4863 0
      vertex -12.2275 32.3776 12
    endloop
  endfacet
  facet normal -0.406735 -0.913546 0
    outer loop
      vertex -12.2275 32.3776 0
      vertex -11.75 32.1651 0
      vertex -11.75 32.1651 12
    endloop
  endfacet
  facet normal -0.406735 -0.913546 0
    outer loop
      vertex -12.2275 32.3776 12
      vertex -12.2275 32.3776 0
      vertex -11.75 32.1651 12
    endloop
  endfacet
  facet normal -0.587786 -0.809017 0
    outer loop
      vertex -11.75 32.1651 0
      vertex -11.3272 31.8579 0
      vertex -11.3272 31.8579 12
    endloop
  endfacet
  facet normal -0.587786 -0.809017 0
    outer loop
      vertex -11.75 32.1651 12
      vertex -11.75 32.1651 0
      vertex -11.3272 31.8579 12
    endloop
  endfacet
  facet normal -0.743146 -0.66913 0
    outer loop
      vertex -10.9775 31.4695 0
      vertex -10.9775 31.4695 12
      vertex -11.3272 31.8579 0
    endloop
  endfacet
  facet normal -0.743146 -0.66913 0
    outer loop
      vertex -11.3272 31.8579 0
      vertex -10.9775 31.4695 12
      vertex -11.3272 31.8579 12
    endloop
  endfacet
  facet normal -0.866024 -0.500002 0
    outer loop
      vertex -10.7161 31.0168 0
      vertex -10.7161 31.0168 12
      vertex -10.9775 31.4695 0
    endloop
  endfacet
  facet normal -0.866024 -0.500002 0
    outer loop
      vertex -10.9775 31.4695 0
      vertex -10.7161 31.0168 12
      vertex -10.9775 31.4695 12
    endloop
  endfacet
  facet normal -0.951057 -0.309016 0
    outer loop
      vertex -10.5546 30.5198 0
      vertex -10.5546 30.5198 12
      vertex -10.7161 31.0168 0
    endloop
  endfacet
  facet normal -0.951057 -0.309016 0
    outer loop
      vertex -10.7161 31.0168 0
      vertex -10.5546 30.5198 12
      vertex -10.7161 31.0168 12
    endloop
  endfacet
  facet normal -0.994522 -0.104529 0
    outer loop
      vertex -10.5 30 0
      vertex -10.5 30 12
      vertex -10.5546 30.5198 0
    endloop
  endfacet
  facet normal -0.994522 -0.104529 0
    outer loop
      vertex -10.5546 30.5198 0
      vertex -10.5 30 12
      vertex -10.5546 30.5198 12
    endloop
  endfacet
  facet normal -0.994522 0.104529 0
    outer loop
      vertex -10.5546 29.4802 12
      vertex -10.5 30 12
      vertex -10.5546 29.4802 0
    endloop
  endfacet
  facet normal -0.994522 0.104529 0
    outer loop
      vertex -10.5546 29.4802 0
      vertex -10.5 30 12
      vertex -10.5 30 0
    endloop
  endfacet
  facet normal -0.951057 0.309016 0
    outer loop
      vertex -10.7161 28.9832 12
      vertex -10.5546 29.4802 12
      vertex -10.7161 28.9832 0
    endloop
  endfacet
  facet normal -0.951057 0.309016 0
    outer loop
      vertex -10.7161 28.9832 0
      vertex -10.5546 29.4802 12
      vertex -10.5546 29.4802 0
    endloop
  endfacet
  facet normal -0.866024 0.500002 0
    outer loop
      vertex -10.9775 28.5305 12
      vertex -10.7161 28.9832 12
      vertex -10.9775 28.5305 0
    endloop
  endfacet
  facet normal -0.866024 0.500002 0
    outer loop
      vertex -10.9775 28.5305 0
      vertex -10.7161 28.9832 12
      vertex -10.7161 28.9832 0
    endloop
  endfacet
  facet normal -0.743146 0.66913 0
    outer loop
      vertex -11.3272 28.1421 12
      vertex -10.9775 28.5305 12
      vertex -11.3272 28.1421 0
    endloop
  endfacet
  facet normal -0.743146 0.66913 0
    outer loop
      vertex -11.3272 28.1421 0
      vertex -10.9775 28.5305 12
      vertex -10.9775 28.5305 0
    endloop
  endfacet
  facet normal -0.587786 0.809017 0
    outer loop
      vertex -11.75 27.8349 12
      vertex -11.3272 28.1421 12
      vertex -11.75 27.8349 0
    endloop
  endfacet
  facet normal -0.587786 0.809017 0
    outer loop
      vertex -11.75 27.8349 0
      vertex -11.3272 28.1421 12
      vertex -11.3272 28.1421 0
    endloop
  endfacet
  facet normal -0.406735 0.913546 0
    outer loop
      vertex -12.2275 27.6224 12
      vertex -11.75 27.8349 12
      vertex -12.2275 27.6224 0
    endloop
  endfacet
  facet normal -0.406735 0.913546 0
    outer loop
      vertex -12.2275 27.6224 0
      vertex -11.75 27.8349 12
      vertex -11.75 27.8349 0
    endloop
  endfacet
  facet normal -0.207913 0.978147 0
    outer loop
      vertex -12.7387 27.5137 12
      vertex -12.2275 27.6224 12
      vertex -12.7387 27.5137 0
    endloop
  endfacet
  facet normal -0.207913 0.978147 0
    outer loop
      vertex -12.7387 27.5137 0
      vertex -12.2275 27.6224 12
      vertex -12.2275 27.6224 0
    endloop
  endfacet
  facet normal 0 1 0
    outer loop
      vertex -13.2613 27.5137 12
      vertex -12.7387 27.5137 12
      vertex -13.2613 27.5137 0
    endloop
  endfacet
  facet normal 0 1 0
    outer loop
      vertex -13.2613 27.5137 0
      vertex -12.7387 27.5137 12
      vertex -12.7387 27.5137 0
    endloop
  endfacet
  facet normal 0.207913 0.978147 0
    outer loop
      vertex -13.7725 27.6224 12
      vertex -13.2613 27.5137 12
      vertex -13.7725 27.6224 0
    endloop
  endfacet
  facet normal 0.207913 0.978147 0
    outer loop
      vertex -13.7725 27.6224 0
      vertex -13.2613 27.5137 12
      vertex -13.2613 27.5137 0
    endloop
  endfacet
  facet normal 0.406735 0.913546 0
    outer loop
      vertex -14.25 27.8349 12
      vertex -13.7725 27.6224 12
      vertex -14.25 27.8349 0
    endloop
  endfacet
  facet normal 0.406735 0.913546 0
    outer loop
      vertex -14.25 27.8349 0
      vertex -13.7725 27.6224 12
      vertex -13.7725 27.6224 0
    endloop
  endfacet
  facet normal 0.587786 0.809017 0
    outer loop
      vertex -14.6728 28.1421 12
      vertex -14.25 27.8349 12
      vertex -14.6728 28.1421 0
    endloop
  endfacet
  facet normal 0.587786 0.809017 0
    outer loop
      vertex -14.6728 28.1421 0
      vertex -14.25 27.8349 12
      vertex -14.25 27.8349 0
    endloop
  endfacet
  facet normal 0.743146 0.66913 0
    outer loop
      vertex -15.0225 28.5305 0
      vertex -15.0225 28.5305 12
      vertex -14.6728 28.1421 12
    endloop
  endfacet
  facet normal 0.743146 0.66913 0
    outer loop
      vertex -14.6728 28.1421 0
      vertex -15.0225 28.5305 0
      vertex -14.6728 28.1421 12
    endloop
  endfacet
  facet normal 0.866024 0.500002 0
    outer loop
      vertex -15.2839 28.9832 0
      vertex -15.2839 28.9832 12
      vertex -15.0225 28.5305 12
    endloop
  endfacet
  facet normal 0.866024 0.500002 0
    outer loop
      vertex -15.0225 28.5305 0
      vertex -15.2839 28.9832 0
      vertex -15.0225 28.5305 12
    endloop
  endfacet
  facet normal 0.951057 0.309016 0
    outer loop
      vertex -15.4454 29.4802 0
      vertex -15.4454 29.4802 12
      vertex -15.2839 28.9832 12
    endloop
  endfacet
  facet normal 0.951057 0.309016 0
    outer loop
      vertex -15.2839 28.9832 0
      vertex -15.4454 29.4802 0
      vertex -15.2839 28.9832 12
    endloop
  endfacet
  facet normal 0.994522 -0.104529 0
    outer loop
      vertex -15.5 50 0
      vertex -15.4454 50.5198 0
      vertex -15.4454 50.5198 12
    endloop
  endfacet
  facet normal 0.994522 -0.104529 0
    outer loop
      vertex -15.5 50 12
      vertex -15.5 50 0
      vertex -15.4454 50.5198 12
    endloop
  endfacet
  facet normal 0.994522 0.104529 0
    outer loop
      vertex -15.5 50 0
      vertex -15.5 50 12
      vertex -15.4454 49.4802 12
    endloop
  endfacet
  facet normal 0.994522 0.104529 0
    outer loop
      vertex -15.4454 49.4802 0
      vertex -15.5 50 0
      vertex -15.4454 49.4802 12
    endloop
  endfacet
  facet normal 0.951057 -0.309016 0
    outer loop
      vertex -15.4454 50.5198 0
      vertex -15.2839 51.0168 0
      vertex -15.2839 51.0168 12
    endloop
  endfacet
  facet normal 0.951057 -0.309016 0
    outer loop
      vertex -15.4454 50.5198 12
      vertex -15.4454 50.5198 0
      vertex -15.2839 51.0168 12
    endloop
  endfacet
  facet normal 0.866024 -0.500002 0
    outer loop
      vertex -15.2839 51.0168 0
      vertex -15.0225 51.4695 0
      vertex -15.0225 51.4695 12
    endloop
  endfacet
  facet normal 0.866024 -0.500002 0
    outer loop
      vertex -15.2839 51.0168 12
      vertex -15.2839 51.0168 0
      vertex -15.0225 51.4695 12
    endloop
  endfacet
  facet normal 0.743146 -0.66913 0
    outer loop
      vertex -15.0225 51.4695 0
      vertex -14.6728 51.8579 0
      vertex -14.6728 51.8579 12
    endloop
  endfacet
  facet normal 0.743146 -0.66913 0
    outer loop
      vertex -15.0225 51.4695 12
      vertex -15.0225 51.4695 0
      vertex -14.6728 51.8579 12
    endloop
  endfacet
  facet normal 0.587786 -0.809017 0
    outer loop
      vertex -14.6728 51.8579 0
      vertex -14.25 52.1651 0
      vertex -14.25 52.1651 12
    endloop
  endfacet
  facet normal 0.587786 -0.809017 0
    outer loop
      vertex -14.6728 51.8579 12
      vertex -14.6728 51.8579 0
      vertex -14.25 52.1651 12
    endloop
  endfacet
  facet normal 0.406735 -0.913546 0
    outer loop
      vertex -14.25 52.1651 0
      vertex -13.7725 52.3776 0
      vertex -13.7725 52.3776 12
    endloop
  endfacet
  facet normal 0.406735 -0.913546 0
    outer loop
      vertex -14.25 52.1651 12
      vertex -14.25 52.1651 0
      vertex -13.7725 52.3776 12
    endloop
  endfacet
  facet normal 0.207913 -0.978147 0
    outer loop
      vertex -13.7725 52.3776 0
      vertex -13.2613 52.4863 0
      vertex -13.2613 52.4863 12
    endloop
  endfacet
  facet normal 0.207913 -0.978147 0
    outer loop
      vertex -13.7725 52.3776 12
      vertex -13.7725 52.3776 0
      vertex -13.2613 52.4863 12
    endloop
  endfacet
  facet normal 0 -1 0
    outer loop
      vertex -13.2613 52.4863 0
      vertex -12.7387 52.4863 0
      vertex -12.7387 52.4863 12
    endloop
  endfacet
  facet normal 0 -1 0
    outer loop
      vertex -13.2613 52.4863 12
      vertex -13.2613 52.4863 0
      vertex -12.7387 52.4863 12
    endloop
  endfacet
  facet normal -0.207913 -0.978147 0
    outer loop
      vertex -12.7387 52.4863 0
      vertex -12.2275 52.3776 0
      vertex -12.2275 52.3776 12
    endloop
  endfacet
  facet normal -0.207913 -0.978147 0
    outer loop
      vertex -12.7387 52.4863 12
      vertex -12.7387 52.4863 0
      vertex -12.2275 52.3776 12
    endloop
  endfacet
  facet normal -0.406735 -0.913546 0
    outer loop
      vertex -12.2275 52.3776 0
      vertex -11.75 52.1651 0
      vertex -11.75 52.1651 12
    endloop
  endfacet
  facet normal -0.406735 -0.913546 0
    outer loop
      vertex -12.2275 52.3776 12
      vertex -12.2275 52.3776 0
      vertex -11.75 52.1651 12
    endloop
  endfacet
  facet normal -0.587786 -0.809017 0
    outer loop
      vertex -11.75 52.1651 0
      vertex -11.3272 51.8579 0
      vertex -11.3272 51.8579 12
    endloop
  endfacet
  facet normal -0.587786 -0.809017 0
    outer loop
      vertex -11.75 52.1651 12
      vertex -11.75 52.1651 0
      vertex -11.3272 51.8579 12
    endloop
  endfacet
  facet normal -0.743146 -0.66913 0
    outer loop
      vertex -10.9775 51.4695 0
      vertex -10.9775 51.4695 12
      vertex -11.3272 51.8579 0
    endloop
  endfacet
  facet normal -0.743146 -0.66913 0
    outer loop
      vertex -11.3272 51.8579 0
      vertex -10.9775 51.4695 12
      vertex -11.3272 51.8579 12
    endloop
  endfacet
  facet normal -0.866024 -0.500002 0
    outer loop
      vertex -10.7161 51.0168 0
      vertex -10.7161 51.0168 12
      vertex -10.9775 51.4695 0
    endloop
  endfacet
  facet normal -0.866024 -0.500002 0
    outer loop
      vertex -10.9775 51.4695 0
      vertex -10.7161 51.0168 12
      vertex -10.9775 51.4695 12
    endloop
  endfacet
  facet normal -0.951057 -0.309016 0
    outer loop
      vertex -10.5546 50.5198 0
      vertex -10.5546 50.5198 12
      vertex -10.7161 51.0168 0
    endloop
  endfacet
  facet normal -0.951057 -0.309016 0
    outer loop
      vertex -10.7161 51.0168 0
      vertex -10.5546 50.5198 12
      vertex -10.7161 51.0168 12
    endloop
  endfacet
  facet normal -0.994522 -0.104529 0
    outer loop
      vertex -10.5 50 0
      vertex -10.5 50 12
      vertex -10.5546 50.5198 0
    endloop
  endfacet
  facet normal -0.994522 -0.104529 0
    outer loop
      vertex -10.5546 50.5198 0
      vertex -10.5 50 12
      vertex -10.5546 50.5198 12
    endloop
  endfacet
  facet normal -0.994522 0.104529 0
    outer loop
      vertex -10.5546 49.4802 12
      vertex -10.5 50 12
      vertex -10.5546 49.4802 0
    endloop
  endfacet
  facet normal -0.994522 0.104529 0
    outer loop
      vertex -10.5546 49.4802 0
      vertex -10.5 50 12
      vertex -10.5 50 0
    endloop
  endfacet
  facet normal -0.951057 0.309016 0
    outer loop
      vertex -10.7161 48.9832 12
      vertex -10.5546 49.4802 12
      vertex -10.7161 48.9832 0
    endloop
  endfacet
  facet normal -0.951057 0.309016 0
    outer loop
      vertex -10.7161 48.9832 0
      vertex -10.5546 49.4802 12
      vertex -10.5546 49.4802 0
    endloop
  endfacet
  facet normal -0.866024 0.500002 0
    outer loop
      vertex -10.9775 48.5305 12
      vertex -10.7161 48.9832 12
      vertex -10.9775 48.5305 0
    endloop
  endfacet
  facet normal -0.866024 0.500002 0
    outer loop
      vertex -10.9775 48.5305 0
      vertex -10.7161 48.9832 12
      vertex -10.7161 48.9832 0
    endloop
  endfacet
  facet normal -0.743146 0.66913 0
    outer loop
      vertex -11.3272 48.1421 12
      vertex -10.9775 48.5305 12
      vertex -11.3272 48.1421 0
    endloop
  endfacet
  facet normal -0.743146 0.66913 0
    outer loop
      vertex -11.3272 48.1421 0
      vertex -10.9775 48.5305 12
      vertex -10.9775 48.5305 0
    endloop
  endfacet
  facet normal -0.587786 0.809017 0
    outer loop
      vertex -11.75 47.8349 12
      vertex -11.3272 48.1421 12
      vertex -11.75 47.8349 0
    endloop
  endfacet
  facet normal -0.587786 0.809017 0
    outer loop
      vertex -11.75 47.8349 0
      vertex -11.3272 48.1421 12
      vertex -11.3272 48.1421 0
    endloop
  endfacet
  facet normal -0.406735 0.913546 0
    outer loop
      vertex -12.2275 47.6224 12
      vertex -11.75 47.8349 12
      vertex -12.2275 47.6224 0
    endloop
  endfacet
  facet normal -0.406735 0.913546 0
    outer loop
      vertex -12.2275 47.6224 0
      vertex -11.75 47.8349 12
      vertex -11.75 47.8349 0
    endloop
  endfacet
  facet normal -0.207913 0.978147 0
    outer loop
      vertex -12.7387 47.5137 12
      vertex -12.2275 47.6224 12
      vertex -12.7387 47.5137 0
    endloop
  endfacet
  facet normal -0.207913 0.978147 0
    outer loop
      vertex -12.7387 47.5137 0
      vertex -12.2275 47.6224 12
      vertex -12.2275 47.6224 0
    endloop
  endfacet
  facet normal 0 1 0
    outer loop
      vertex -13.2613 47.5137 12
      vertex -12.7387 47.5137 12
      vertex -13.2613 47.5137 0
    endloop
  endfacet
  facet normal 0 1 0
    outer loop
      vertex -13.2613 47.5137 0
      vertex -12.7387 47.5137 12
      vertex -12.7387 47.5137 0
    endloop
  endfacet
  facet normal 0.207913 0.978147 0
    outer loop
      vertex -13.7725 47.6224 12
      vertex -13.2613 47.5137 12
      vertex -13.7725 47.6224 0
    endloop
  endfacet
  facet normal 0.207913 0.978147 0
    outer loop
      vertex -13.7725 47.6224 0
      vertex -13.2613 47.5137 12
      vertex -13.2613 47.5137 0
    endloop
  endfacet
  facet normal 0.406735 0.913546 0
    outer loop
      vertex -14.25 47.8349 12
      vertex -13.7725 47.6224 12
      vertex -14.25 47.8349 0
    endloop
  endfacet
  facet normal 0.406735 0.913546 0
    outer loop
      vertex -14.25 47.8349 0
      vertex -13.7725 47.6224 12
      vertex -13.7725 47.6224 0
    endloop
  endfacet
  facet normal 0.587786 0.809017 0
    outer loop
      vertex -14.6728 48.1421 12
      vertex -14.25 47.8349 12
      vertex -14.6728 48.1421 0
    endloop
  endfacet
  facet normal 0.587786 0.809017 0
    outer loop
      vertex -14.6728 48.1421 0
      vertex -14.25 47.8349 12
      vertex -14.25 47.8349 0
    endloop
  endfacet
  facet normal 0.743146 0.66913 0
    outer loop
      vertex -15.0225 48.5305 0
      vertex -15.0225 48.5305 12
      vertex -14.6728 48.1421 12
    endloop
  endfacet
  facet normal 0.743146 0.66913 0
    outer loop
      vertex -14.6728 48.1421 0
      vertex -15.0225 48.5305 0
      vertex -14.6728 48.1421 12
    endloop
  endfacet
  facet normal 0.866024 0.500002 0
    outer loop
      vertex -15.2839 48.9832 0
      vertex -15.2839 48.9832 12
      vertex -15.0225 48.5305 12
    endloop
  endfacet
  facet normal 0.866024 0.500002 0
    outer loop
      vertex -15.0225 48.5305 0
      vertex -15.2839 48.9832 0
      vertex -15.0225 48.5305 12
    endloop
  endfacet
  facet normal 0.951057 0.309016 0
    outer loop
      vertex -15.4454 49.4802 0
      vertex -15.4454 49.4802 12
      vertex -15.2839 48.9832 12
    endloop
  endfacet
  facet normal 0.951057 0.309016 0
    outer loop
      vertex -15.2839 48.9832 0
      vertex -15.4454 49.4802 0
      vertex -15.2839 48.9832 12
    endloop
  endfacet
  facet normal 0.994522 -0.104529 0
    outer loop
      vertex -35.5 10 0
      vertex -35.4454 10.5198 0
      vertex -35.4454 10.5198 12
    endloop
  endfacet
  facet normal 0.994522 -0.104529 0
    outer loop
      vertex -35.5 10 12
      vertex -35.5 10 0
      vertex -35.4454 10.5198 12
    endloop
  endfacet
  facet normal 0.994522 0.104529 0
    outer loop
      vertex -35.5 10 0
      vertex -35.5 10 12
      vertex -35.4454 9.48022 12
    endloop
  endfacet
  facet normal 0.994522 0.104529 0
    outer loop
      vertex -35.4454 9.48022 0
      vertex -35.5 10 0
      vertex -35.4454 9.48022 12
    endloop
  endfacet
  facet normal 0.951057 -0.309016 0
    outer loop
      vertex -35.4454 10.5198 0
      vertex -35.2839 11.0168 0
      vertex -35.2839 11.0168 12
    endloop
  endfacet
  facet normal 0.951057 -0.309016 0
    outer loop
      vertex -35.4454 10.5198 12
      vertex -35.4454 10.5198 0
      vertex -35.2839 11.0168 12
    endloop
  endfacet
  facet normal 0.866024 -0.500002 0
    outer loop
      vertex -35.2839 11.0168 0
      vertex -35.0225 11.4695 0
      vertex -35.0225 11.4695 12
    endloop
  endfacet
  facet normal 0.866024 -0.500002 0
    outer loop
      vertex -35.2839 11.0168 12
      vertex -35.2839 11.0168 0
      vertex -35.0225 11.4695 12
    endloop
  endfacet
  facet normal 0.743146 -0.66913 0
    outer loop
      vertex -35.0225 11.4695 0
      vertex -34.6728 11.8579 0
      vertex -34.6728 11.8579 12
    endloop
  endfacet
  facet normal 0.743146 -0.66913 0
    outer loop
      vertex -35.0225 11.4695 12
      vertex -35.0225 11.4695 0
      vertex -34.6728 11.8579 12
    endloop
  endfacet
  facet normal 0.587786 -0.809017 0
    outer loop
      vertex -34.6728 11.8579 0
      vertex -34.25 12.1651 0
      vertex -34.25 12.1651 12
    endloop
  endfacet
  facet normal 0.587786 -0.809017 0
    outer loop
      vertex -34.6728 11.8579 12
      vertex -34.6728 11.8579 0
      vertex -34.25 12.1651 12
    endloop
  endfacet
  facet normal 0.406735 -0.913546 0
    outer loop
      vertex -34.25 12.1651 0
      vertex -33.7725 12.3776 0
      vertex -33.7725 12.3776 12
    endloop
  endfacet
  facet normal 0.406735 -0.913546 0
    outer loop
      vertex -34.25 12.1651 12
      vertex -34.25 12.1651 0
      vertex -33.7725 12.3776 12
    endloop
  endfacet
  facet normal 0.207913 -0.978147 0
    outer loop
      vertex -33.7725 12.3776 0
      vertex -33.2613 12.4863 0
      vertex -33.2613 12.4863 12
    endloop
  endfacet
  facet normal 0.207913 -0.978147 0
    outer loop
      vertex -33.7725 12.3776 12
      vertex -33.7725 12.3776 0
      vertex -33.2613 12.4863 12
    endloop
  endfacet
  facet normal 0 -1 0
    outer loop
      vertex -33.2613 12.4863 0
      vertex -32.7387 12.4863 0
      vertex -32.7387 12.4863 12
    endloop
  endfacet
  facet normal 0 -1 0
    outer loop
      vertex -33.2613 12.4863 12
      vertex -33.2613 12.4863 0
      vertex -32.7387 12.4863 12
    endloop
  endfacet
  facet normal -0.207913 -0.978147 0
    outer loop
      vertex -32.7387 12.4863 0
      vertex -32.2275 12.3776 0
      vertex -32.2275 12.3776 12
    endloop
  endfacet
  facet normal -0.207913 -0.978147 0
    outer loop
      vertex -32.7387 12.4863 12
      vertex -32.7387 12.4863 0
      vertex -32.2275 12.3776 12
    endloop
  endfacet
  facet normal -0.406735 -0.913546 0
    outer loop
      vertex -32.2275 12.3776 0
      vertex -31.75 12.1651 0
      vertex -31.75 12.1651 12
    endloop
  endfacet
  facet normal -0.406735 -0.913546 0
    outer loop
      vertex -32.2275 12.3776 12
      vertex -32.2275 12.3776 0
      vertex -31.75 12.1651 12
    endloop
  endfacet
  facet normal -0.587786 -0.809017 0
    outer loop
      vertex -31.75 12.1651 0
      vertex -31.3272 11.8579 0
      vertex -31.3272 11.8579 12
    endloop
  endfacet
  facet normal -0.587786 -0.809017 0
    outer loop
      vertex -31.75 12.1651 12
      vertex -31.75 12.1651 0
      vertex -31.3272 11.8579 12
    endloop
  endfacet
  facet normal -0.743146 -0.66913 0
    outer loop
      vertex -30.9775 11.4695 0
      vertex -30.9775 11.4695 12
      vertex -31.3272 11.8579 0
    endloop
  endfacet
  facet normal -0.743146 -0.66913 0
    outer loop
      vertex -31.3272 11.8579 0
      vertex -30.9775 11.4695 12
      vertex -31.3272 11.8579 12
    endloop
  endfacet
  facet normal -0.866024 -0.500002 0
    outer loop
      vertex -30.7161 11.0168 0
      vertex -30.7161 11.0168 12
      vertex -30.9775 11.4695 0
    endloop
  endfacet
  facet normal -0.866024 -0.500002 0
    outer loop
      vertex -30.9775 11.4695 0
      vertex -30.7161 11.0168 12
      vertex -30.9775 11.4695 12
    endloop
  endfacet
  facet normal -0.951057 -0.309016 0
    outer loop
      vertex -30.5546 10.5198 0
      vertex -30.5546 10.5198 12
      vertex -30.7161 11.0168 0
    endloop
  endfacet
  facet normal -0.951057 -0.309016 0
    outer loop
      vertex -30.7161 11.0168 0
      vertex -30.5546 10.5198 12
      vertex -30.7161 11.0168 12
    endloop
  endfacet
  facet normal -0.994522 -0.104529 0
    outer loop
      vertex -30.5 10 0
      vertex -30.5 10 12
      vertex -30.5546 10.5198 0
    endloop
  endfacet
  facet normal -0.994522 -0.104529 0
    outer loop
      vertex -30.5546 10.5198 0
      vertex -30.5 10 12
      vertex -30.5546 10.5198 12
    endloop
  endfacet
  facet normal -0.994522 0.104529 0
    outer loop
      vertex -30.5546 9.48022 12
      vertex -30.5 10 12
      vertex -30.5546 9.48022 0
    endloop
  endfacet
  facet normal -0.994522 0.104529 0
    outer loop
      vertex -30.5546 9.48022 0
      vertex -30.5 10 12
      vertex -30.5 10 0
    endloop
  endfacet
  facet normal -0.951057 0.309016 0
    outer loop
      vertex -30.7161 8.98316 12
      vertex -30.5546 9.48022 12
      vertex -30.7161 8.98316 0
    endloop
  endfacet
  facet normal -0.951057 0.309016 0
    outer loop
      vertex -30.7161 8.98316 0
      vertex -30.5546 9.48022 12
      vertex -30.5546 9.48022 0
    endloop
  endfacet
  facet normal -0.866024 0.500002 0
    outer loop
      vertex -30.9775 8.53054 12
      vertex -30.7161 8.98316 12
      vertex -30.9775 8.53054 0
    endloop
  endfacet
  facet normal -0.866024 0.500002 0
    outer loop
      vertex -30.9775 8.53054 0
      vertex -30.7161 8.98316 12
      vertex -30.7161 8.98316 0
    endloop
  endfacet
  facet normal -0.743146 0.66913 0
    outer loop
      vertex -31.3272 8.14214 12
      vertex -30.9775 8.53054 12
      vertex -31.3272 8.14214 0
    endloop
  endfacet
  facet normal -0.743146 0.66913 0
    outer loop
      vertex -31.3272 8.14214 0
      vertex -30.9775 8.53054 12
      vertex -30.9775 8.53054 0
    endloop
  endfacet
  facet normal -0.587786 0.809017 0
    outer loop
      vertex -31.75 7.83494 12
      vertex -31.3272 8.14214 12
      vertex -31.75 7.83494 0
    endloop
  endfacet
  facet normal -0.587786 0.809017 0
    outer loop
      vertex -31.75 7.83494 0
      vertex -31.3272 8.14214 12
      vertex -31.3272 8.14214 0
    endloop
  endfacet
  facet normal -0.406735 0.913546 0
    outer loop
      vertex -32.2275 7.62236 12
      vertex -31.75 7.83494 12
      vertex -32.2275 7.62236 0
    endloop
  endfacet
  facet normal -0.406735 0.913546 0
    outer loop
      vertex -32.2275 7.62236 0
      vertex -31.75 7.83494 12
      vertex -31.75 7.83494 0
    endloop
  endfacet
  facet normal -0.207913 0.978147 0
    outer loop
      vertex -32.7387 7.5137 12
      vertex -32.2275 7.62236 12
      vertex -32.7387 7.5137 0
    endloop
  endfacet
  facet normal -0.207913 0.978147 0
    outer loop
      vertex -32.7387 7.5137 0
      vertex -32.2275 7.62236 12
      vertex -32.2275 7.62236 0
    endloop
  endfacet
  facet normal 0 1 0
    outer loop
      vertex -33.2613 7.5137 12
      vertex -32.7387 7.5137 12
      vertex -33.2613 7.5137 0
    endloop
  endfacet
  facet normal 0 1 0
    outer loop
      vertex -33.2613 7.5137 0
      vertex -32.7387 7.5137 12
      vertex -32.7387 7.5137 0
    endloop
  endfacet
  facet normal 0.207913 0.978147 0
    outer loop
      vertex -33.7725 7.62236 12
      vertex -33.2613 7.5137 12
      vertex -33.7725 7.62236 0
    endloop
  endfacet
  facet normal 0.207913 0.978147 0
    outer loop
      vertex -33.7725 7.62236 0
      vertex -33.2613 7.5137 12
      vertex -33.2613 7.5137 0
    endloop
  endfacet
  facet normal 0.406735 0.913546 0
    outer loop
      vertex -34.25 7.83494 12
      vertex -33.7725 7.62236 12
      vertex -34.25 7.83494 0
    endloop
  endfacet
  facet normal 0.406735 0.913546 0
    outer loop
      vertex -34.25 7.83494 0
      vertex -33.7725 7.62236 12
      vertex -33.7725 7.62236 0
    endloop
  endfacet
  facet normal 0.587786 0.809017 0
    outer loop
      vertex -34.6728 8.14214 12
      vertex -34.25 7.83494 12
      vertex -34.6728 8.14214 0
    endloop
  endfacet
  facet normal 0.587786 0.809017 0
    outer loop
      vertex -34.6728 8.14214 0
      vertex -34.25 7.83494 12
      vertex -34.25 7.83494 0
    endloop
  endfacet
  facet normal 0.743146 0.66913 0
    outer loop
      vertex -35.0225 8.53054 0
      vertex -35.0225 8.53054 12
      vertex -34.6728 8.14214 12
    endloop
  endfacet
  facet normal 0.743146 0.66913 0
    outer loop
      vertex -34.6728 8.14214 0
      vertex -35.0225 8.53054 0
      vertex -34.6728 8.14214 12
    endloop
  endfacet
  facet normal 0.866024 0.500002 0
    outer loop
      vertex -35.2839 8.98316 0
      vertex -35.2839 8.98316 12
      vertex -35.0225 8.53054 12
    endloop
  endfacet
  facet normal 0.866024 0.500002 0
    outer loop
      vertex -35.0225 8.53054 0
      vertex -35.2839 8.98316 0
      vertex -35.0225 8.53054 12
    endloop
  endfacet
  facet normal 0.951057 0.309016 0
    outer loop
      vertex -35.4454 9.48022 0
      vertex -35.4454 9.48022 12
      vertex -35.2839 8.98316 12
    endloop
  endfacet
  facet normal 0.951057 0.309016 0
    outer loop
      vertex -35.2839 8.98316 0
      vertex -35.4454 9.48022 0
      vertex -35.2839 8.98316 12
    endloop
  endfacet
  facet normal 0 -1 0
    outer loop
      vertex -43 7.5 12
      vertex -35.5 7.5 12
      vertex -35.5 7.5 14.1
    endloop
  endfacet
  facet normal 0 -1 0
    outer loop
      vertex -43 7.5 14.1
      vertex -43 7.5 12
      vertex -35.5 7.5 14.1
    endloop
  endfacet
  facet normal 1 0 0
    outer loop
      vertex -35.5 7.5 12
      vertex -35.5 10 12
      vertex -35.5 10 14.1
    endloop
  endfacet
  facet normal 1 0 0
    outer loop
      vertex -35.5 7.5 14.1
      vertex -35.5 7.5 12
      vertex -35.5 10 14.1
    endloop
  endfacet
  facet normal 1 0 0
    outer loop
      vertex -35.5 10 12
      vertex -35.5 12.5 12
      vertex -35.5 12.5 14.1
    endloop
  endfacet
  facet normal 1 0 0
    outer loop
      vertex -35.5 10 14.1
      vertex -35.5 10 12
      vertex -35.5 12.5 14.1
    endloop
  endfacet
  facet normal -1 0 0
    outer loop
      vertex -30.5 7.5 14.1
      vertex -30.5 10 14.1
      vertex -30.5 7.5 12
    endloop
  endfacet
  facet normal -1 0 0
    outer loop
      vertex -30.5 7.5 12
      vertex -30.5 10 14.1
      vertex -30.5 10 12
    endloop
  endfacet
  facet normal -1 0 0
    outer loop
      vertex -30.5 10 14.1
      vertex -30.5 12.5 14.1
      vertex -30.5 10 12
    endloop
  endfacet
  facet normal -1 0 0
    outer loop
      vertex -30.5 10 12
      vertex -30.5 12.5 14.1
      vertex -30.5 12.5 12
    endloop
  endfacet
  facet normal 0 -1 0
    outer loop
      vertex -30.5 7.5 12
      vertex -15.5 7.5 12
      vertex -15.5 7.5 14.1
    endloop
  endfacet
  facet normal 0 -1 0
    outer loop
      vertex -30.5 7.5 14.1
      vertex -30.5 7.5 12
      vertex -15.5 7.5 14.1
    endloop
  endfacet
  facet normal 1 0 0
    outer loop
      vertex -15.5 7.5 12
      vertex -15.5 10 12
      vertex -15.5 10 14.1
    endloop
  endfacet
  facet normal 1 0 0
    outer loop
      vertex -15.5 7.5 14.1
      vertex -15.5 7.5 12
      vertex -15.5 10 14.1
    endloop
  endfacet
  facet normal 1 0 0
    outer loop
      vertex -15.5 10 12
      vertex -15.5 12.5 12
      vertex -15.5 12.5 14.1
    endloop
  endfacet
  facet normal 1 0 0
    outer loop
      vertex -15.5 10 14.1
      vertex -15.5 10 12
      vertex -15.5 12.5 14.1
    endloop
  endfacet
  facet normal -1 0 0
    outer loop
      vertex -10.5 7.5 14.1
      vertex -10.5 10 14.1
      vertex -10.5 7.5 12
    endloop
  endfacet
  facet normal -1 0 0
    outer loop
      vertex -10.5 7.5 12
      vertex -10.5 10 14.1
      vertex -10.5 10 12
    endloop
  endfacet
  facet normal -1 0 0
    outer loop
      vertex -10.5 10 14.1
      vertex -10.5 12.5 14.1
      vertex -10.5 10 12
    endloop
  endfacet
  facet normal -1 0 0
    outer loop
      vertex -10.5 10 12
      vertex -10.5 12.5 14.1
      vertex -10.5 12.5 12
    endloop
  endfacet
  facet normal 0 1 0
    outer loop
      vertex -43 12.5 14.1
      vertex -35.5 12.5 14.1
      vertex -43 12.5 12
    endloop
  endfacet
  facet normal 0 1 0
    outer loop
      vertex -43 12.5 12
      vertex -35.5 12.5 14.1
      vertex -35.5 12.5 12
    endloop
  endfacet
  facet normal -1 0 0
    outer loop
      vertex -15.5 52.5 14.1
      vertex -15.5 60 14.1
      vertex -15.5 52.5 12
    endloop
  endfacet
  facet normal -1 0 0
    outer loop
      vertex -15.5 52.5 12
      vertex -15.5 60 14.1
      vertex -15.5 60 12
    endloop
  endfacet
  facet normal 0 -1 0
    outer loop
      vertex -15.5 52.5 12
      vertex -10.5 52.5 12
      vertex -10.5 52.5 14.1
    endloop
  endfacet
  facet normal 0 -1 0
    outer loop
      vertex -15.5 52.5 14.1
      vertex -15.5 52.5 12
      vertex -10.5 52.5 14.1
    endloop
  endfacet
  facet normal 1 0 0
    outer loop
      vertex -10.5 52.5 12
      vertex -10.5 60 12
      vertex -10.5 60 14.1
    endloop
  endfacet
  facet normal 1 0 0
    outer loop
      vertex -10.5 52.5 14.1
      vertex -10.5 52.5 12
      vertex -10.5 60 14.1
    endloop
  endfacet
  facet normal 0 1 0
    outer loop
      vertex -30.5 12.5 14.1
      vertex -15.5 12.5 14.1
      vertex -30.5 12.5 12
    endloop
  endfacet
  facet normal 0 1 0
    outer loop
      vertex -30.5 12.5 12
      vertex -15.5 12.5 14.1
      vertex -15.5 12.5 12
    endloop
  endfacet
  facet normal -1 0 0
    outer loop
      vertex -15.5 21 14.1
      vertex -15.5 27.5 14.1
      vertex -15.5 21 12
    endloop
  endfacet
  facet normal -1 0 0
    outer loop
      vertex -15.5 21 12
      vertex -15.5 27.5 14.1
      vertex -15.5 27.5 12
    endloop
  endfacet
  facet normal 0 -1 0
    outer loop
      vertex -15.5 21 12
      vertex -10.5 21 12
      vertex -10.5 21 14.1
    endloop
  endfacet
  facet normal 0 -1 0
    outer loop
      vertex -15.5 21 14.1
      vertex -15.5 21 12
      vertex -10.5 21 14.1
    endloop
  endfacet
  facet normal 1 0 0
    outer loop
      vertex -10.5 21 12
      vertex -10.5 27.5 12
      vertex -10.5 27.5 14.1
    endloop
  endfacet
  facet normal 1 0 0
    outer loop
      vertex -10.5 21 14.1
      vertex -10.5 21 12
      vertex -10.5 27.5 14.1
    endloop
  endfacet
  facet normal 0 1 0
    outer loop
      vertex -15.5 27.5 14.1
      vertex -10.5 27.5 14.1
      vertex -15.5 27.5 12
    endloop
  endfacet
  facet normal 0 1 0
    outer loop
      vertex -15.5 27.5 12
      vertex -10.5 27.5 14.1
      vertex -10.5 27.5 12
    endloop
  endfacet
  facet normal -1 0 0
    outer loop
      vertex -15.5 32.5 14.1
      vertex -15.5 47.5 14.1
      vertex -15.5 32.5 12
    endloop
  endfacet
  facet normal -1 0 0
    outer loop
      vertex -15.5 32.5 12
      vertex -15.5 47.5 14.1
      vertex -15.5 47.5 12
    endloop
  endfacet
  facet normal 0 -1 0
    outer loop
      vertex -15.5 32.5 12
      vertex -10.5 32.5 12
      vertex -10.5 32.5 14.1
    endloop
  endfacet
  facet normal 0 -1 0
    outer loop
      vertex -15.5 32.5 14.1
      vertex -15.5 32.5 12
      vertex -10.5 32.5 14.1
    endloop
  endfacet
  facet normal 1 0 0
    outer loop
      vertex -10.5 32.5 12
      vertex -10.5 47.5 12
      vertex -10.5 47.5 14.1
    endloop
  endfacet
  facet normal 1 0 0
    outer loop
      vertex -10.5 32.5 14.1
      vertex -10.5 32.5 12
      vertex -10.5 47.5 14.1
    endloop
  endfacet
  facet normal 0 1 0
    outer loop
      vertex -15.5 47.5 14.1
      vertex -10.5 47.5 14.1
      vertex -15.5 47.5 12
    endloop
  endfacet
  facet normal 0 1 0
    outer loop
      vertex -15.5 47.5 12
      vertex -10.5 47.5 14.1
      vertex -10.5 47.5 12
    endloop
  endfacet
  facet normal 0 0 1
    outer loop
      vertex -15.5 52.5 14.1
      vertex -10.5 52.5 14.1
      vertex -10.5 60 14.1
    endloop
  endfacet
  facet normal 0 0 1
    outer loop
      vertex -15.5 60 14.1
      vertex -15.5 52.5 14.1
      vertex -10.5 60 14.1
    endloop
  endfacet
  facet normal 0 0 1
    outer loop
      vertex -43 7.5 14.1
      vertex -35.5 7.5 14.1
      vertex -35.5 10 14.1
    endloop
  endfacet
  facet normal 0 0 1
    outer loop
      vertex -43 12.5 14.1
      vertex -43 7.5 14.1
      vertex -35.5 12.5 14.1
    endloop
  endfacet
  facet normal 0 0 1
    outer loop
      vertex -35.5 12.5 14.1
      vertex -43 7.5 14.1
      vertex -35.5 10 14.1
    endloop
  endfacet
  facet normal 0 0 1
    outer loop
      vertex -30.5 7.5 14.1
      vertex -15.5 7.5 14.1
      vertex -15.5 10 14.1
    endloop
  endfacet
  facet normal 0 0 1
    outer loop
      vertex -30.5 10 14.1
      vertex -30.5 7.5 14.1
      vertex -15.5 12.5 14.1
    endloop
  endfacet
  facet normal 0 0 1
    outer loop
      vertex -15.5 12.5 14.1
      vertex -30.5 7.5 14.1
      vertex -15.5 10 14.1
    endloop
  endfacet
  facet normal 0 0 1
    outer loop
      vertex -30.5 12.5 14.1
      vertex -30.5 10 14.1
      vertex -15.5 12.5 14.1
    endloop
  endfacet
  facet normal 0 0 1
    outer loop
      vertex -15.5 21 14.1
      vertex -10.5 21 14.1
      vertex -10.5 27.5 14.1
    endloop
  endfacet
  facet normal 0 0 1
    outer loop
      vertex -15.5 27.5 14.1
      vertex -15.5 21 14.1
      vertex -10.5 27.5 14.1
    endloop
  endfacet
  facet normal 0 0 1
    outer loop
      vertex -15.5 32.5 14.1
      vertex -10.5 32.5 14.1
      vertex -10.5 47.5 14.1
    endloop
  endfacet
  facet normal 0 0 1
    outer loop
      vertex -15.5 47.5 14.1
      vertex -15.5 32.5 14.1
      vertex -10.5 47.5 14.1
    endloop
  endfacet
endsolid OpenSCAD_Model
