solid OpenSCAD_Model
  facet normal -1 -0 -0
    outer loop
      vertex 0 0 0
      vertex 0 0 10
      vertex 0 42 0
    endloop
  endfacet
  facet normal -1 0 0
    outer loop
      vertex 0 42 0
      vertex 0 0 10
      vertex 0 37 10
    endloop
  endfacet
  facet normal -1 0 0
    outer loop
      vertex 0 42 0
      vertex 0 37 10
      vertex 0 37 36.8301
    endloop
  endfacet
  facet normal -1 0 -0
    outer loop
      vertex 0 42 0
      vertex 0 37 36.8301
      vertex 0 42 36.8301
    endloop
  endfacet
  facet normal 0 -1 0
    outer loop
      vertex 0 0 10
      vertex 0 0 0
      vertex 45 0 0
    endloop
  endfacet
  facet normal 0 -1 0
    outer loop
      vertex 45 0 10
      vertex 0 0 10
      vertex 45 0 0
    endloop
  endfacet
  facet normal 0 0 -1
    outer loop
      vertex 36.608 5.58884 0
      vertex 6.03271 25.9527 0
      vertex 7.80933 26.3582 0
    endloop
  endfacet
  facet normal 0 -0 -1
    outer loop
      vertex 36.608 28.9112 0
      vertex 0 42 0
      vertex 45 42 0
    endloop
  endfacet
  facet normal 0 -0 -1
    outer loop
      vertex 0 0 0
      vertex 0 42 0
      vertex 4.60797 7.41116 0
    endloop
  endfacet
  facet normal 0 0 -1
    outer loop
      vertex 0 0 0
      vertex 4.60797 7.41116 0
      vertex 4.60797 5.58884 0
    endloop
  endfacet
  facet normal 0 0 -1
    outer loop
      vertex 0 0 0
      vertex 4.60797 5.58884 0
      vertex 6.03271 4.45265 0
    endloop
  endfacet
  facet normal -0 0 -1
    outer loop
      vertex 0 0 0
      vertex 6.03271 4.45265 0
      vertex 45 0 0
    endloop
  endfacet
  facet normal -0 0 -1
    outer loop
      vertex 6.03271 4.45265 0
      vertex 7.80933 4.85815 0
      vertex 45 0 0
    endloop
  endfacet
  facet normal 0 0 -1
    outer loop
      vertex 7.80933 8.14185 0
      vertex 45 0 0
      vertex 8.6 6.5 0
    endloop
  endfacet
  facet normal -0 -0 -1
    outer loop
      vertex 6.03271 8.54735 0
      vertex 0 42 0
      vertex 7.80933 8.14185 0
    endloop
  endfacet
  facet normal 0 0 -1
    outer loop
      vertex 6.03271 25.9527 0
      vertex 7.80933 8.14185 0
      vertex 4.60797 27.0888 0
    endloop
  endfacet
  facet normal 0 -0 -1
    outer loop
      vertex 4.60797 7.41116 0
      vertex 0 42 0
      vertex 6.03271 8.54735 0
    endloop
  endfacet
  facet normal 0 0 -1
    outer loop
      vertex 4.60797 27.0888 0
      vertex 0 42 0
      vertex 4.60797 28.9112 0
    endloop
  endfacet
  facet normal 0 0 -1
    outer loop
      vertex 7.80933 8.14185 0
      vertex 0 42 0
      vertex 4.60797 27.0888 0
    endloop
  endfacet
  facet normal 0 0 -1
    outer loop
      vertex 39.8093 4.85815 0
      vertex 45 0 0
      vertex 38.0327 4.45265 0
    endloop
  endfacet
  facet normal 0 -0 -1
    outer loop
      vertex 36.608 7.41116 0
      vertex 0 42 0
      vertex 38.0327 8.54735 0
    endloop
  endfacet
  facet normal -0 -0 -1
    outer loop
      vertex 6.03271 30.0473 0
      vertex 0 42 0
      vertex 7.80933 29.6418 0
    endloop
  endfacet
  facet normal -0 0 -1
    outer loop
      vertex 39.8093 8.14185 0
      vertex 45 42 0
      vertex 40.6 6.5 0
    endloop
  endfacet
  facet normal 0 -0 -1
    outer loop
      vertex 4.60797 28.9112 0
      vertex 0 42 0
      vertex 6.03271 30.0473 0
    endloop
  endfacet
  facet normal -0 -0 -1
    outer loop
      vertex 7.80933 29.6418 0
      vertex 0 42 0
      vertex 36.608 7.41116 0
    endloop
  endfacet
  facet normal -0 -0 -1
    outer loop
      vertex 7.80933 8.14185 0
      vertex 6.03271 25.9527 0
      vertex 36.608 5.58884 0
    endloop
  endfacet
  facet normal 0 0 -1
    outer loop
      vertex 7.80933 8.14185 0
      vertex 36.608 5.58884 0
      vertex 38.0327 4.45265 0
    endloop
  endfacet
  facet normal 0 0 -1
    outer loop
      vertex 7.80933 8.14185 0
      vertex 38.0327 4.45265 0
      vertex 45 0 0
    endloop
  endfacet
  facet normal 0 0 -1
    outer loop
      vertex 36.608 5.58884 0
      vertex 7.80933 26.3582 0
      vertex 8.6 28 0
    endloop
  endfacet
  facet normal 0 0 -1
    outer loop
      vertex 45 0 0
      vertex 39.8093 4.85815 0
      vertex 40.6 6.5 0
    endloop
  endfacet
  facet normal 0 0 -1
    outer loop
      vertex 45 0 0
      vertex 40.6 6.5 0
      vertex 45 42 0
    endloop
  endfacet
  facet normal -0 -0 -1
    outer loop
      vertex 38.0327 8.54735 0
      vertex 0 42 0
      vertex 39.8093 8.14185 0
    endloop
  endfacet
  facet normal 0 0 -1
    outer loop
      vertex 38.0327 25.9527 0
      vertex 39.8093 8.14185 0
      vertex 36.608 27.0888 0
    endloop
  endfacet
  facet normal 0 0 -1
    outer loop
      vertex 36.608 5.58884 0
      vertex 8.6 28 0
      vertex 7.80933 29.6418 0
    endloop
  endfacet
  facet normal 0 0 -1
    outer loop
      vertex 36.608 27.0888 0
      vertex 0 42 0
      vertex 36.608 28.9112 0
    endloop
  endfacet
  facet normal 0 -0 -1
    outer loop
      vertex 38.0327 30.0473 0
      vertex 36.608 28.9112 0
      vertex 45 42 0
    endloop
  endfacet
  facet normal 0 0 -1
    outer loop
      vertex 39.8093 8.14185 0
      vertex 0 42 0
      vertex 36.608 27.0888 0
    endloop
  endfacet
  facet normal -0 0 -1
    outer loop
      vertex 39.8093 29.6418 0
      vertex 45 42 0
      vertex 40.6 28 0
    endloop
  endfacet
  facet normal 0 0 -1
    outer loop
      vertex 39.8093 8.14185 0
      vertex 38.0327 25.9527 0
      vertex 39.8093 26.3582 0
    endloop
  endfacet
  facet normal 0 -0 -1
    outer loop
      vertex 39.8093 8.14185 0
      vertex 39.8093 26.3582 0
      vertex 40.6 28 0
    endloop
  endfacet
  facet normal 0 0 -1
    outer loop
      vertex 39.8093 8.14185 0
      vertex 40.6 28 0
      vertex 45 42 0
    endloop
  endfacet
  facet normal -0 0 -1
    outer loop
      vertex 38.0327 30.0473 0
      vertex 45 42 0
      vertex 39.8093 29.6418 0
    endloop
  endfacet
  facet normal 0 0 -1
    outer loop
      vertex 8.6 6.5 0
      vertex 45 0 0
      vertex 7.80933 4.85815 0
    endloop
  endfacet
  facet normal 0 0 -1
    outer loop
      vertex 36.608 5.58884 0
      vertex 7.80933 29.6418 0
      vertex 36.608 7.41116 0
    endloop
  endfacet
  facet normal 0 1 -1.92924e-16
    outer loop
      vertex 0 42 0
      vertex 0 42 36.8301
      vertex 45 42 0
    endloop
  endfacet
  facet normal 3.08073e-16 1 -5.33598e-16
    outer loop
      vertex 12.1 42 30.5
      vertex 0 42 36.8301
      vertex 14.1506 42 45
    endloop
  endfacet
  facet normal 0 1 0
    outer loop
      vertex 28.5 42 34.9
      vertex 14.1506 42 45
      vertex 29.8205 42 45
    endloop
  endfacet
  facet normal -1.13211e-16 1 -1.96087e-16
    outer loop
      vertex 45 42 0
      vertex 29.8205 42 45
      vertex 45 42 36.2361
    endloop
  endfacet
  facet normal 6.66851e-16 1 1.52205e-16
    outer loop
      vertex 12.5357 42 28.5909
      vertex 0 42 36.8301
      vertex 12.1 42 30.5
    endloop
  endfacet
  facet normal -3.72247e-14 1 4.77441e-15
    outer loop
      vertex 12.5357 42 32.4091
      vertex 12.1 42 30.5
      vertex 14.1506 42 45
    endloop
  endfacet
  facet normal 1.19115e-15 1 9.49909e-16
    outer loop
      vertex 13.7566 42 27.0599
      vertex 0 42 36.8301
      vertex 12.5357 42 28.5909
    endloop
  endfacet
  facet normal 2.86971e-15 1 3.31336e-15
    outer loop
      vertex 45 42 0
      vertex 0 42 36.8301
      vertex 13.7566 42 27.0599
    endloop
  endfacet
  facet normal 0 1 -0
    outer loop
      vertex 28.5 42 26.1
      vertex 45 42 0
      vertex 16.5 42 26.1
    endloop
  endfacet
  facet normal 0 1 0
    outer loop
      vertex 16.5 42 26.1
      vertex 15.5209 42 26.2103
      vertex 16.5 42 26.2103
    endloop
  endfacet
  facet normal 0 1 0
    outer loop
      vertex 45 42 0
      vertex 15.5209 42 26.2103
      vertex 16.5 42 26.1
    endloop
  endfacet
  facet normal 0 1 0
    outer loop
      vertex 29.4791 42 26.2103
      vertex 28.5 42 26.1
      vertex 28.5 42 26.2103
    endloop
  endfacet
  facet normal 0 1 0
    outer loop
      vertex 45 42 0
      vertex 28.5 42 26.1
      vertex 29.4791 42 26.2103
    endloop
  endfacet
  facet normal 0 1 0
    outer loop
      vertex 45 42 0
      vertex 29.4791 42 26.2103
      vertex 31.2434 42 27.0599
    endloop
  endfacet
  facet normal 0 1 0
    outer loop
      vertex 45 42 0
      vertex 31.2434 42 27.0599
      vertex 32.4643 42 28.5909
    endloop
  endfacet
  facet normal 0 1 0
    outer loop
      vertex 45 42 0
      vertex 32.4643 42 28.5909
      vertex 32.9 42 30.5
    endloop
  endfacet
  facet normal -2.65825e-15 1 -1.05459e-15
    outer loop
      vertex 45 42 0
      vertex 32.9 42 30.5
      vertex 29.8205 42 45
    endloop
  endfacet
  facet normal 2.03713e-13 1 4.27743e-14
    outer loop
      vertex 32.9 42 30.5
      vertex 32.4643 42 32.4091
      vertex 29.8205 42 45
    endloop
  endfacet
  facet normal 0 1 0
    outer loop
      vertex 29.4791 42 34.7897
      vertex 29.8205 42 45
      vertex 31.2434 42 33.9401
    endloop
  endfacet
  facet normal 0 1 0
    outer loop
      vertex 31.2434 42 33.9401
      vertex 29.8205 42 45
      vertex 32.4643 42 32.4091
    endloop
  endfacet
  facet normal 0 1 0
    outer loop
      vertex 28.5 42 34.7897
      vertex 29.8205 42 45
      vertex 29.4791 42 34.7897
    endloop
  endfacet
  facet normal 0 1 0
    outer loop
      vertex 16.5 42 34.9
      vertex 14.1506 42 45
      vertex 28.5 42 34.9
    endloop
  endfacet
  facet normal 0 1 0
    outer loop
      vertex 28.5 42 34.7897
      vertex 28.5 42 34.9
      vertex 29.8205 42 45
    endloop
  endfacet
  facet normal -0 1 0
    outer loop
      vertex 16.5 42 34.9
      vertex 15.5209 42 34.7897
      vertex 14.1506 42 45
    endloop
  endfacet
  facet normal -0 1 0
    outer loop
      vertex 15.5209 42 34.7897
      vertex 13.7566 42 33.9401
      vertex 14.1506 42 45
    endloop
  endfacet
  facet normal -0 1 0
    outer loop
      vertex 13.7566 42 33.9401
      vertex 12.5357 42 32.4091
      vertex 14.1506 42 45
    endloop
  endfacet
  facet normal -0 1 -0
    outer loop
      vertex 15.5209 42 26.2103
      vertex 45 42 0
      vertex 13.7566 42 27.0599
    endloop
  endfacet
  facet normal 0 1 0
    outer loop
      vertex 15.5209 42 34.7897
      vertex 16.5 42 34.9
      vertex 16.5 42 34.7897
    endloop
  endfacet
  facet normal -0.5 -1.77636e-16 0.866025
    outer loop
      vertex 14.1506 37 45
      vertex 14.1506 42 45
      vertex 0 42 36.8301
    endloop
  endfacet
  facet normal -0.5 0 0.866025
    outer loop
      vertex 0 37 36.8301
      vertex 14.1506 37 45
      vertex 0 42 36.8301
    endloop
  endfacet
  facet normal 0 -1 2.6483e-16
    outer loop
      vertex 0 37 36.8301
      vertex 0 37 10
      vertex 15.6213 37 10
    endloop
  endfacet
  facet normal -3.37422e-15 -1 -4.02372e-15
    outer loop
      vertex 13.7566 37 27.0599
      vertex 0 37 36.8301
      vertex 22.5 37 19.7279
    endloop
  endfacet
  facet normal -2.054e-16 -1 1.4524e-16
    outer loop
      vertex 22.5 37 19.7279
      vertex 0 37 36.8301
      vertex 15.6213 37 10
    endloop
  endfacet
  facet normal 0 -1 0
    outer loop
      vertex 45 37 10
      vertex 22.5 37 19.7279
      vertex 29.3787 37 10
    endloop
  endfacet
  facet normal 0 -1 0
    outer loop
      vertex 29.8205 37 45
      vertex 0 37 36.8301
      vertex 45 37 36.2361
    endloop
  endfacet
  facet normal 0 -1 0
    outer loop
      vertex 14.1506 37 45
      vertex 0 37 36.8301
      vertex 29.8205 37 45
    endloop
  endfacet
  facet normal 0 -1 0
    outer loop
      vertex 16.5 37 34.7897
      vertex 16.5 37 34.9
      vertex 15.5209 37 34.7897
    endloop
  endfacet
  facet normal 1.21483e-15 -1 3.44462e-15
    outer loop
      vertex 12.5357 37 32.4091
      vertex 0 37 36.8301
      vertex 12.1 37 30.5
    endloop
  endfacet
  facet normal 0 -1 0
    outer loop
      vertex 13.7566 37 33.9401
      vertex 0 37 36.8301
      vertex 12.5357 37 32.4091
    endloop
  endfacet
  facet normal 0 -1 0
    outer loop
      vertex 15.5209 37 34.7897
      vertex 0 37 36.8301
      vertex 13.7566 37 33.9401
    endloop
  endfacet
  facet normal 0 -1 0
    outer loop
      vertex 16.5 37 34.9
      vertex 0 37 36.8301
      vertex 15.5209 37 34.7897
    endloop
  endfacet
  facet normal -0 -1 0
    outer loop
      vertex 29.4791 37 34.7897
      vertex 31.2434 37 33.9401
      vertex 45 37 36.2361
    endloop
  endfacet
  facet normal 0 -1 0
    outer loop
      vertex 45 37 36.2361
      vertex 0 37 36.8301
      vertex 16.5 37 34.9
    endloop
  endfacet
  facet normal 0 -1 0
    outer loop
      vertex 45 37 36.2361
      vertex 28.5 37 34.9
      vertex 28.5 37 34.7897
    endloop
  endfacet
  facet normal -0 -1 0
    outer loop
      vertex 31.2434 37 33.9401
      vertex 32.4643 37 32.4091
      vertex 45 37 36.2361
    endloop
  endfacet
  facet normal 0 -1 0
    outer loop
      vertex 45 37 36.2361
      vertex 28.5 37 34.7897
      vertex 29.4791 37 34.7897
    endloop
  endfacet
  facet normal -8.26804e-17 -1 2.70826e-16
    outer loop
      vertex 45 37 36.2361
      vertex 32.4643 37 32.4091
      vertex 45 37 10
    endloop
  endfacet
  facet normal 1.02815e-14 -1 6.06858e-15
    outer loop
      vertex 32.4643 37 32.4091
      vertex 32.9 37 30.5
      vertex 45 37 10
    endloop
  endfacet
  facet normal 0 -1 0
    outer loop
      vertex 32.9 37 30.5
      vertex 32.4643 37 28.5909
      vertex 45 37 10
    endloop
  endfacet
  facet normal 0 -1 0
    outer loop
      vertex 32.4643 37 28.5909
      vertex 31.2434 37 27.0599
      vertex 45 37 10
    endloop
  endfacet
  facet normal 0 -1 0
    outer loop
      vertex 31.2434 37 27.0599
      vertex 29.4791 37 26.2103
      vertex 45 37 10
    endloop
  endfacet
  facet normal 0 -1 0
    outer loop
      vertex 29.4791 37 26.2103
      vertex 28.5 37 26.2103
      vertex 45 37 10
    endloop
  endfacet
  facet normal 0 -1 0
    outer loop
      vertex 28.5 37 26.2103
      vertex 28.5 37 26.1
      vertex 45 37 10
    endloop
  endfacet
  facet normal 0 -1 0
    outer loop
      vertex 45 37 10
      vertex 16.5 37 26.1
      vertex 22.5 37 19.7279
    endloop
  endfacet
  facet normal 0 -1 0
    outer loop
      vertex 15.5209 37 26.2103
      vertex 13.7566 37 27.0599
      vertex 22.5 37 19.7279
    endloop
  endfacet
  facet normal 0 -1 0
    outer loop
      vertex 16.5 37 26.2103
      vertex 15.5209 37 26.2103
      vertex 16.5 37 26.1
    endloop
  endfacet
  facet normal 0 -1 0
    outer loop
      vertex 16.5 37 26.1
      vertex 15.5209 37 26.2103
      vertex 22.5 37 19.7279
    endloop
  endfacet
  facet normal -1.19115e-15 -1 -9.49909e-16
    outer loop
      vertex 12.5357 37 28.5909
      vertex 0 37 36.8301
      vertex 13.7566 37 27.0599
    endloop
  endfacet
  facet normal -6.66851e-16 -1 -1.52205e-16
    outer loop
      vertex 12.5357 37 28.5909
      vertex 12.1 37 30.5
      vertex 0 37 36.8301
    endloop
  endfacet
  facet normal -0 -1 0
    outer loop
      vertex 16.5 37 34.9
      vertex 28.5 37 34.9
      vertex 45 37 36.2361
    endloop
  endfacet
  facet normal 0 -1 0
    outer loop
      vertex 28.5 37 26.1
      vertex 16.5 37 26.1
      vertex 45 37 10
    endloop
  endfacet
  facet normal 0 -0 1
    outer loop
      vertex 8.35601 2.01918 10
      vertex 0 0 10
      vertex 45 0 10
    endloop
  endfacet
  facet normal 0 0 1
    outer loop
      vertex 8.35601 32.4808 10
      vertex 9.92947 31.4295 10
      vertex 22.5 27.2721 10
    endloop
  endfacet
  facet normal 0 -0 1
    outer loop
      vertex 15.6213 37 10
      vertex 0 37 10
      vertex 22.5 27.2721 10
    endloop
  endfacet
  facet normal -0 0 1
    outer loop
      vertex 6.5 1.65 10
      vertex 4.64398 2.01918 10
      vertex 0 0 10
    endloop
  endfacet
  facet normal 0 -0 1
    outer loop
      vertex 1.65 6.5 10
      vertex 0 0 10
      vertex 2.01918 4.64398 10
    endloop
  endfacet
  facet normal -0 -0 1
    outer loop
      vertex 38.5 1.65 10
      vertex 36.644 2.01918 10
      vertex 45 0 10
    endloop
  endfacet
  facet normal 0 -0 1
    outer loop
      vertex 0 37 10
      vertex 0 0 10
      vertex 1.65 6.5 10
    endloop
  endfacet
  facet normal 0 -0 1
    outer loop
      vertex 10.9808 4.64398 10
      vertex 9.92947 3.07053 10
      vertex 45 0 10
    endloop
  endfacet
  facet normal 0 0 1
    outer loop
      vertex 0 37 10
      vertex 2.01918 8.35601 10
      vertex 3.07053 9.92947 10
    endloop
  endfacet
  facet normal -0 -0 1
    outer loop
      vertex 36.644 2.01918 10
      vertex 11.35 6.5 10
      vertex 45 0 10
    endloop
  endfacet
  facet normal 0 0 1
    outer loop
      vertex 0 37 10
      vertex 3.07053 9.92947 10
      vertex 4.64398 10.9808 10
    endloop
  endfacet
  facet normal 0 0 1
    outer loop
      vertex 2.01918 26.144 10
      vertex 4.64398 10.9808 10
      vertex 6.5 11.35 10
    endloop
  endfacet
  facet normal 0 0 1
    outer loop
      vertex 36.644 2.01918 10
      vertex 8.35601 10.9808 10
      vertex 9.92947 9.92947 10
    endloop
  endfacet
  facet normal 0 0 1
    outer loop
      vertex 33.65 6.5 10
      vertex 34.0192 8.35601 10
      vertex 9.92947 24.5705 10
    endloop
  endfacet
  facet normal 0 0 1
    outer loop
      vertex 36.644 2.01918 10
      vertex 9.92947 9.92947 10
      vertex 10.9808 8.35601 10
    endloop
  endfacet
  facet normal 0 -0 1
    outer loop
      vertex 11.35 6.5 10
      vertex 10.9808 4.64398 10
      vertex 45 0 10
    endloop
  endfacet
  facet normal 0 -0 1
    outer loop
      vertex 9.92947 3.07053 10
      vertex 8.35601 2.01918 10
      vertex 45 0 10
    endloop
  endfacet
  facet normal 0 -0 1
    outer loop
      vertex 6.5 1.65 10
      vertex 0 0 10
      vertex 8.35601 2.01918 10
    endloop
  endfacet
  facet normal 0 -0 1
    outer loop
      vertex 3.07053 3.07053 10
      vertex 0 0 10
      vertex 4.64398 2.01918 10
    endloop
  endfacet
  facet normal 0 -0 1
    outer loop
      vertex 2.01918 4.64398 10
      vertex 0 0 10
      vertex 3.07053 3.07053 10
    endloop
  endfacet
  facet normal -0 -0 1
    outer loop
      vertex 3.07053 24.5705 10
      vertex 2.01918 26.144 10
      vertex 6.5 11.35 10
    endloop
  endfacet
  facet normal 0 0 1
    outer loop
      vertex 1.65 28 10
      vertex 4.64398 10.9808 10
      vertex 2.01918 26.144 10
    endloop
  endfacet
  facet normal 0 0 1
    outer loop
      vertex 34.0192 8.35601 10
      vertex 10.9808 29.856 10
      vertex 11.35 28 10
    endloop
  endfacet
  facet normal 0 0 1
    outer loop
      vertex 0 37 10
      vertex 4.64398 10.9808 10
      vertex 1.65 28 10
    endloop
  endfacet
  facet normal 0 0 1
    outer loop
      vertex 4.64398 32.4808 10
      vertex 6.5 32.85 10
      vertex 0 37 10
    endloop
  endfacet
  facet normal 0 0 1
    outer loop
      vertex 34.0192 8.35601 10
      vertex 11.35 28 10
      vertex 10.9808 26.144 10
    endloop
  endfacet
  facet normal -0 -0 1
    outer loop
      vertex 6.5 23.15 10
      vertex 4.64398 23.5192 10
      vertex 8.35601 10.9808 10
    endloop
  endfacet
  facet normal 0 -0 1
    outer loop
      vertex 10.9808 26.144 10
      vertex 9.92947 24.5705 10
      vertex 34.0192 8.35601 10
    endloop
  endfacet
  facet normal 0 0 1
    outer loop
      vertex 0 37 10
      vertex 3.07053 31.4295 10
      vertex 4.64398 32.4808 10
    endloop
  endfacet
  facet normal 0 -0 1
    outer loop
      vertex 40.356 2.01918 10
      vertex 38.5 1.65 10
      vertex 45 0 10
    endloop
  endfacet
  facet normal 0 0 1
    outer loop
      vertex 8.35601 32.4808 10
      vertex 0 37 10
      vertex 6.5 32.85 10
    endloop
  endfacet
  facet normal 0 0 1
    outer loop
      vertex 22.5 27.2721 10
      vertex 0 37 10
      vertex 8.35601 32.4808 10
    endloop
  endfacet
  facet normal 0 0 1
    outer loop
      vertex 35.0705 9.92947 10
      vertex 36.644 10.9808 10
      vertex 22.5 27.2721 10
    endloop
  endfacet
  facet normal 0 -0 1
    outer loop
      vertex 8.35601 23.5192 10
      vertex 8.35601 10.9808 10
      vertex 9.92947 24.5705 10
    endloop
  endfacet
  facet normal 0 0 1
    outer loop
      vertex 6.5 23.15 10
      vertex 8.35601 10.9808 10
      vertex 8.35601 23.5192 10
    endloop
  endfacet
  facet normal 0 0 1
    outer loop
      vertex 4.64398 23.5192 10
      vertex 6.5 11.35 10
      vertex 8.35601 10.9808 10
    endloop
  endfacet
  facet normal 0 0 1
    outer loop
      vertex 2.01918 29.856 10
      vertex 3.07053 31.4295 10
      vertex 0 37 10
    endloop
  endfacet
  facet normal 0 -0 1
    outer loop
      vertex 9.92947 24.5705 10
      vertex 8.35601 10.9808 10
      vertex 34.0192 4.64398 10
    endloop
  endfacet
  facet normal 0 0 1
    outer loop
      vertex 9.92947 24.5705 10
      vertex 34.0192 4.64398 10
      vertex 33.65 6.5 10
    endloop
  endfacet
  facet normal -0 -0 1
    outer loop
      vertex 4.64398 23.5192 10
      vertex 3.07053 24.5705 10
      vertex 6.5 11.35 10
    endloop
  endfacet
  facet normal -0 -0 1
    outer loop
      vertex 22.5 27.2721 10
      vertex 9.92947 31.4295 10
      vertex 35.0705 9.92947 10
    endloop
  endfacet
  facet normal 0 -0 1
    outer loop
      vertex 29.3787 37 10
      vertex 22.5 27.2721 10
      vertex 36.644 10.9808 10
    endloop
  endfacet
  facet normal 0 -0 1
    outer loop
      vertex 41.9295 3.07053 10
      vertex 40.356 2.01918 10
      vertex 45 0 10
    endloop
  endfacet
  facet normal 0 0 1
    outer loop
      vertex 29.3787 37 10
      vertex 36.644 10.9808 10
      vertex 38.5 11.35 10
    endloop
  endfacet
  facet normal 0 -0 1
    outer loop
      vertex 43.35 6.5 10
      vertex 42.9808 4.64398 10
      vertex 45 0 10
    endloop
  endfacet
  facet normal 0 0 1
    outer loop
      vertex 29.3787 37 10
      vertex 38.5 11.35 10
      vertex 40.356 10.9808 10
    endloop
  endfacet
  facet normal 0 -0 1
    outer loop
      vertex 42.9808 4.64398 10
      vertex 41.9295 3.07053 10
      vertex 45 0 10
    endloop
  endfacet
  facet normal 0 0 1
    outer loop
      vertex 45 37 10
      vertex 42.9808 8.35601 10
      vertex 45 0 10
    endloop
  endfacet
  facet normal 0 0 1
    outer loop
      vertex 45 37 10
      vertex 41.9295 9.92947 10
      vertex 42.9808 8.35601 10
    endloop
  endfacet
  facet normal 0 0 1
    outer loop
      vertex 42.9808 8.35601 10
      vertex 43.35 6.5 10
      vertex 45 0 10
    endloop
  endfacet
  facet normal 0 0 1
    outer loop
      vertex 40.356 10.9808 10
      vertex 34.0192 26.144 10
      vertex 29.3787 37 10
    endloop
  endfacet
  facet normal 0 0 1
    outer loop
      vertex 40.356 10.9808 10
      vertex 41.9295 9.92947 10
      vertex 34.0192 26.144 10
    endloop
  endfacet
  facet normal 0 0 1
    outer loop
      vertex 1.65 28 10
      vertex 2.01918 29.856 10
      vertex 0 37 10
    endloop
  endfacet
  facet normal 0 0 1
    outer loop
      vertex 36.644 2.01918 10
      vertex 35.0705 3.07053 10
      vertex 8.35601 10.9808 10
    endloop
  endfacet
  facet normal -0 -0 1
    outer loop
      vertex 34.0192 4.64398 10
      vertex 8.35601 10.9808 10
      vertex 35.0705 3.07053 10
    endloop
  endfacet
  facet normal 0 0 1
    outer loop
      vertex 38.5 32.85 10
      vertex 40.356 32.4808 10
      vertex 45 37 10
    endloop
  endfacet
  facet normal -0 0 1
    outer loop
      vertex 34.0192 29.856 10
      vertex 29.3787 37 10
      vertex 33.65 28 10
    endloop
  endfacet
  facet normal 0 0 1
    outer loop
      vertex 42.9808 26.144 10
      vertex 41.9295 24.5705 10
      vertex 41.9295 9.92947 10
    endloop
  endfacet
  facet normal -0 0 1
    outer loop
      vertex 35.0705 31.4295 10
      vertex 29.3787 37 10
      vertex 34.0192 29.856 10
    endloop
  endfacet
  facet normal -0 0 1
    outer loop
      vertex 36.644 32.4808 10
      vertex 29.3787 37 10
      vertex 35.0705 31.4295 10
    endloop
  endfacet
  facet normal 0 0 1
    outer loop
      vertex 45 37 10
      vertex 29.3787 37 10
      vertex 36.644 32.4808 10
    endloop
  endfacet
  facet normal -0 -0 1
    outer loop
      vertex 36.644 23.5192 10
      vertex 35.0705 24.5705 10
      vertex 41.9295 9.92947 10
    endloop
  endfacet
  facet normal 0 0 1
    outer loop
      vertex 45 37 10
      vertex 40.356 32.4808 10
      vertex 41.9295 31.4295 10
    endloop
  endfacet
  facet normal 0 0 1
    outer loop
      vertex 41.9295 24.5705 10
      vertex 40.356 23.5192 10
      vertex 41.9295 9.92947 10
    endloop
  endfacet
  facet normal 0 0 1
    outer loop
      vertex 45 37 10
      vertex 41.9295 31.4295 10
      vertex 42.9808 29.856 10
    endloop
  endfacet
  facet normal 0 0 1
    outer loop
      vertex 45 37 10
      vertex 43.35 28 10
      vertex 41.9295 9.92947 10
    endloop
  endfacet
  facet normal 0 0 1
    outer loop
      vertex 45 37 10
      vertex 42.9808 29.856 10
      vertex 43.35 28 10
    endloop
  endfacet
  facet normal 0 0 1
    outer loop
      vertex 43.35 28 10
      vertex 42.9808 26.144 10
      vertex 41.9295 9.92947 10
    endloop
  endfacet
  facet normal 0 -0 1
    outer loop
      vertex 40.356 23.5192 10
      vertex 38.5 23.15 10
      vertex 41.9295 9.92947 10
    endloop
  endfacet
  facet normal -0 -0 1
    outer loop
      vertex 38.5 23.15 10
      vertex 36.644 23.5192 10
      vertex 41.9295 9.92947 10
    endloop
  endfacet
  facet normal 0 0 1
    outer loop
      vertex 41.9295 9.92947 10
      vertex 35.0705 24.5705 10
      vertex 34.0192 26.144 10
    endloop
  endfacet
  facet normal 0 0 1
    outer loop
      vertex 36.644 32.4808 10
      vertex 38.5 32.85 10
      vertex 45 37 10
    endloop
  endfacet
  facet normal 0 0 1
    outer loop
      vertex 1.65 6.5 10
      vertex 2.01918 8.35601 10
      vertex 0 37 10
    endloop
  endfacet
  facet normal 0 0 1
    outer loop
      vertex 34.0192 26.144 10
      vertex 33.65 28 10
      vertex 29.3787 37 10
    endloop
  endfacet
  facet normal 0 0 1
    outer loop
      vertex 10.9808 8.35601 10
      vertex 11.35 6.5 10
      vertex 36.644 2.01918 10
    endloop
  endfacet
  facet normal 0 0 1
    outer loop
      vertex 34.0192 8.35601 10
      vertex 9.92947 31.4295 10
      vertex 10.9808 29.856 10
    endloop
  endfacet
  facet normal 0 0 1
    outer loop
      vertex 34.0192 8.35601 10
      vertex 35.0705 9.92947 10
      vertex 9.92947 31.4295 10
    endloop
  endfacet
  facet normal 1 0 -0
    outer loop
      vertex 45 0 10
      vertex 45 0 0
      vertex 45 42 0
    endloop
  endfacet
  facet normal 1 0 -0
    outer loop
      vertex 45 37 10
      vertex 45 0 10
      vertex 45 42 0
    endloop
  endfacet
  facet normal 1 0 0
    outer loop
      vertex 45 42 36.2361
      vertex 45 37 10
      vertex 45 42 0
    endloop
  endfacet
  facet normal 1 0 -0
    outer loop
      vertex 45 37 36.2361
      vertex 45 37 10
      vertex 45 42 36.2361
    endloop
  endfacet
  facet normal 1 0 0
    outer loop
      vertex 4.60797 7.41116 0
      vertex 4.60797 7.41116 3.01
      vertex 4.60797 5.58884 3.01
    endloop
  endfacet
  facet normal 1 0 0
    outer loop
      vertex 4.60797 5.58884 0
      vertex 4.60797 7.41116 0
      vertex 4.60797 5.58884 3.01
    endloop
  endfacet
  facet normal 0.62349 -0.781831 0
    outer loop
      vertex 6.03271 8.54735 0
      vertex 6.03271 8.54735 3.01
      vertex 4.60797 7.41116 3.01
    endloop
  endfacet
  facet normal 0.62349 -0.781831 0
    outer loop
      vertex 4.60797 7.41116 0
      vertex 6.03271 8.54735 0
      vertex 4.60797 7.41116 3.01
    endloop
  endfacet
  facet normal -0.222521 -0.974928 -0
    outer loop
      vertex 7.80933 8.14185 0
      vertex 7.80933 8.14185 3.01
      vertex 6.03271 8.54735 3.01
    endloop
  endfacet
  facet normal -0.222521 -0.974928 -0
    outer loop
      vertex 6.03271 8.54735 0
      vertex 7.80933 8.14185 0
      vertex 6.03271 8.54735 3.01
    endloop
  endfacet
  facet normal -0.900969 -0.433884 0
    outer loop
      vertex 8.6 6.5 3.01
      vertex 7.80933 8.14185 3.01
      vertex 8.6 6.5 0
    endloop
  endfacet
  facet normal -0.900969 -0.433884 0
    outer loop
      vertex 8.6 6.5 0
      vertex 7.80933 8.14185 3.01
      vertex 7.80933 8.14185 0
    endloop
  endfacet
  facet normal -0.900969 0.433884 0
    outer loop
      vertex 8.6 6.5 3.01
      vertex 8.6 6.5 0
      vertex 7.80933 4.85815 3.01
    endloop
  endfacet
  facet normal -0.900969 0.433884 0
    outer loop
      vertex 7.80933 4.85815 3.01
      vertex 8.6 6.5 0
      vertex 7.80933 4.85815 0
    endloop
  endfacet
  facet normal -0.222521 0.974928 0
    outer loop
      vertex 7.80933 4.85815 3.01
      vertex 7.80933 4.85815 0
      vertex 6.03271 4.45265 3.01
    endloop
  endfacet
  facet normal -0.222521 0.974928 0
    outer loop
      vertex 6.03271 4.45265 3.01
      vertex 7.80933 4.85815 0
      vertex 6.03271 4.45265 0
    endloop
  endfacet
  facet normal 0.62349 0.781831 -0
    outer loop
      vertex 6.03271 4.45265 3.01
      vertex 6.03271 4.45265 0
      vertex 4.60797 5.58884 3.01
    endloop
  endfacet
  facet normal 0.62349 0.781831 -0
    outer loop
      vertex 4.60797 5.58884 3.01
      vertex 6.03271 4.45265 0
      vertex 4.60797 5.58884 0
    endloop
  endfacet
  facet normal 1 0 0
    outer loop
      vertex 4.60797 28.9112 0
      vertex 4.60797 28.9112 3.01
      vertex 4.60797 27.0888 3.01
    endloop
  endfacet
  facet normal 1 0 0
    outer loop
      vertex 4.60797 27.0888 0
      vertex 4.60797 28.9112 0
      vertex 4.60797 27.0888 3.01
    endloop
  endfacet
  facet normal 0.62349 -0.781831 0
    outer loop
      vertex 6.03271 30.0473 0
      vertex 6.03271 30.0473 3.01
      vertex 4.60797 28.9112 3.01
    endloop
  endfacet
  facet normal 0.62349 -0.781831 0
    outer loop
      vertex 4.60797 28.9112 0
      vertex 6.03271 30.0473 0
      vertex 4.60797 28.9112 3.01
    endloop
  endfacet
  facet normal -0.222521 -0.974928 -0
    outer loop
      vertex 7.80933 29.6418 0
      vertex 7.80933 29.6418 3.01
      vertex 6.03271 30.0473 3.01
    endloop
  endfacet
  facet normal -0.222521 -0.974928 -0
    outer loop
      vertex 6.03271 30.0473 0
      vertex 7.80933 29.6418 0
      vertex 6.03271 30.0473 3.01
    endloop
  endfacet
  facet normal -0.900969 -0.433884 0
    outer loop
      vertex 8.6 28 3.01
      vertex 7.80933 29.6418 3.01
      vertex 8.6 28 0
    endloop
  endfacet
  facet normal -0.900969 -0.433884 0
    outer loop
      vertex 8.6 28 0
      vertex 7.80933 29.6418 3.01
      vertex 7.80933 29.6418 0
    endloop
  endfacet
  facet normal -0.900969 0.433884 0
    outer loop
      vertex 8.6 28 3.01
      vertex 8.6 28 0
      vertex 7.80933 26.3582 3.01
    endloop
  endfacet
  facet normal -0.900969 0.433884 0
    outer loop
      vertex 7.80933 26.3582 3.01
      vertex 8.6 28 0
      vertex 7.80933 26.3582 0
    endloop
  endfacet
  facet normal -0.222521 0.974928 0
    outer loop
      vertex 7.80933 26.3582 3.01
      vertex 7.80933 26.3582 0
      vertex 6.03271 25.9527 3.01
    endloop
  endfacet
  facet normal -0.222521 0.974928 0
    outer loop
      vertex 6.03271 25.9527 3.01
      vertex 7.80933 26.3582 0
      vertex 6.03271 25.9527 0
    endloop
  endfacet
  facet normal 0.62349 0.781831 -0
    outer loop
      vertex 6.03271 25.9527 3.01
      vertex 6.03271 25.9527 0
      vertex 4.60797 27.0888 3.01
    endloop
  endfacet
  facet normal 0.62349 0.781831 -0
    outer loop
      vertex 4.60797 27.0888 3.01
      vertex 6.03271 25.9527 0
      vertex 4.60797 27.0888 0
    endloop
  endfacet
  facet normal 0.62349 -0.781831 0
    outer loop
      vertex 38.0327 8.54735 0
      vertex 38.0327 8.54735 3.01
      vertex 36.608 7.41116 3.01
    endloop
  endfacet
  facet normal 0.62349 -0.781831 0
    outer loop
      vertex 36.608 7.41116 0
      vertex 38.0327 8.54735 0
      vertex 36.608 7.41116 3.01
    endloop
  endfacet
  facet normal 1 0 0
    outer loop
      vertex 36.608 7.41116 0
      vertex 36.608 7.41116 3.01
      vertex 36.608 5.58884 3.01
    endloop
  endfacet
  facet normal 1 0 0
    outer loop
      vertex 36.608 5.58884 0
      vertex 36.608 7.41116 0
      vertex 36.608 5.58884 3.01
    endloop
  endfacet
  facet normal -0.222521 -0.974928 -0
    outer loop
      vertex 39.8093 8.14185 0
      vertex 39.8093 8.14185 3.01
      vertex 38.0327 8.54735 3.01
    endloop
  endfacet
  facet normal -0.222521 -0.974928 -0
    outer loop
      vertex 38.0327 8.54735 0
      vertex 39.8093 8.14185 0
      vertex 38.0327 8.54735 3.01
    endloop
  endfacet
  facet normal -0.900969 -0.433884 0
    outer loop
      vertex 40.6 6.5 3.01
      vertex 39.8093 8.14185 3.01
      vertex 40.6 6.5 0
    endloop
  endfacet
  facet normal -0.900969 -0.433884 0
    outer loop
      vertex 40.6 6.5 0
      vertex 39.8093 8.14185 3.01
      vertex 39.8093 8.14185 0
    endloop
  endfacet
  facet normal -0.900969 0.433884 0
    outer loop
      vertex 40.6 6.5 3.01
      vertex 40.6 6.5 0
      vertex 39.8093 4.85815 3.01
    endloop
  endfacet
  facet normal -0.900969 0.433884 0
    outer loop
      vertex 39.8093 4.85815 3.01
      vertex 40.6 6.5 0
      vertex 39.8093 4.85815 0
    endloop
  endfacet
  facet normal -0.222521 0.974928 0
    outer loop
      vertex 39.8093 4.85815 3.01
      vertex 39.8093 4.85815 0
      vertex 38.0327 4.45265 3.01
    endloop
  endfacet
  facet normal -0.222521 0.974928 0
    outer loop
      vertex 38.0327 4.45265 3.01
      vertex 39.8093 4.85815 0
      vertex 38.0327 4.45265 0
    endloop
  endfacet
  facet normal 0.62349 0.781831 -0
    outer loop
      vertex 38.0327 4.45265 3.01
      vertex 38.0327 4.45265 0
      vertex 36.608 5.58884 3.01
    endloop
  endfacet
  facet normal 0.62349 0.781831 -0
    outer loop
      vertex 36.608 5.58884 3.01
      vertex 38.0327 4.45265 0
      vertex 36.608 5.58884 0
    endloop
  endfacet
  facet normal 0.62349 -0.781831 0
    outer loop
      vertex 38.0327 30.0473 0
      vertex 38.0327 30.0473 3.01
      vertex 36.608 28.9112 3.01
    endloop
  endfacet
  facet normal 0.62349 -0.781831 0
    outer loop
      vertex 36.608 28.9112 0
      vertex 38.0327 30.0473 0
      vertex 36.608 28.9112 3.01
    endloop
  endfacet
  facet normal 1 0 0
    outer loop
      vertex 36.608 28.9112 0
      vertex 36.608 28.9112 3.01
      vertex 36.608 27.0888 3.01
    endloop
  endfacet
  facet normal 1 0 0
    outer loop
      vertex 36.608 27.0888 0
      vertex 36.608 28.9112 0
      vertex 36.608 27.0888 3.01
    endloop
  endfacet
  facet normal -0.222521 -0.974928 -0
    outer loop
      vertex 39.8093 29.6418 0
      vertex 39.8093 29.6418 3.01
      vertex 38.0327 30.0473 3.01
    endloop
  endfacet
  facet normal -0.222521 -0.974928 -0
    outer loop
      vertex 38.0327 30.0473 0
      vertex 39.8093 29.6418 0
      vertex 38.0327 30.0473 3.01
    endloop
  endfacet
  facet normal -0.900969 -0.433884 0
    outer loop
      vertex 40.6 28 3.01
      vertex 39.8093 29.6418 3.01
      vertex 40.6 28 0
    endloop
  endfacet
  facet normal -0.900969 -0.433884 0
    outer loop
      vertex 40.6 28 0
      vertex 39.8093 29.6418 3.01
      vertex 39.8093 29.6418 0
    endloop
  endfacet
  facet normal -0.900969 0.433884 0
    outer loop
      vertex 40.6 28 3.01
      vertex 40.6 28 0
      vertex 39.8093 26.3582 3.01
    endloop
  endfacet
  facet normal -0.900969 0.433884 0
    outer loop
      vertex 39.8093 26.3582 3.01
      vertex 40.6 28 0
      vertex 39.8093 26.3582 0
    endloop
  endfacet
  facet normal -0.222521 0.974928 0
    outer loop
      vertex 39.8093 26.3582 3.01
      vertex 39.8093 26.3582 0
      vertex 38.0327 25.9527 3.01
    endloop
  endfacet
  facet normal -0.222521 0.974928 0
    outer loop
      vertex 38.0327 25.9527 3.01
      vertex 39.8093 26.3582 0
      vertex 38.0327 25.9527 0
    endloop
  endfacet
  facet normal 0.62349 0.781831 -0
    outer loop
      vertex 38.0327 25.9527 3.01
      vertex 38.0327 25.9527 0
      vertex 36.608 27.0888 3.01
    endloop
  endfacet
  facet normal 0.62349 0.781831 -0
    outer loop
      vertex 36.608 27.0888 3.01
      vertex 38.0327 25.9527 0
      vertex 36.608 27.0888 0
    endloop
  endfacet
  facet normal 0.5 0 0.866025
    outer loop
      vertex 45 37 36.2361
      vertex 45 42 36.2361
      vertex 29.8205 42 45
    endloop
  endfacet
  facet normal 0.5 -3.55271e-16 0.866025
    outer loop
      vertex 29.8205 37 45
      vertex 45 37 36.2361
      vertex 29.8205 42 45
    endloop
  endfacet
  facet normal 0 0 1
    outer loop
      vertex 29.8205 42 45
      vertex 14.1506 42 45
      vertex 14.1506 37 45
    endloop
  endfacet
  facet normal -0 0 1
    outer loop
      vertex 29.8205 37 45
      vertex 29.8205 42 45
      vertex 14.1506 37 45
    endloop
  endfacet
  facet normal 0.974928 -3.01201e-16 -0.222521
    outer loop
      vertex 12.1 42 30.5
      vertex 12.5357 42 32.4091
      vertex 12.5357 37 32.4091
    endloop
  endfacet
  facet normal 0.974928 0 -0.222521
    outer loop
      vertex 12.1 37 30.5
      vertex 12.1 42 30.5
      vertex 12.5357 37 32.4091
    endloop
  endfacet
  facet normal 0.974928 0 0.222521
    outer loop
      vertex 12.5357 37 28.5909
      vertex 12.5357 42 28.5909
      vertex 12.1 42 30.5
    endloop
  endfacet
  facet normal 0.974928 0 0.222521
    outer loop
      vertex 12.1 37 30.5
      vertex 12.5357 37 28.5909
      vertex 12.1 42 30.5
    endloop
  endfacet
  facet normal 0.781832 0 -0.62349
    outer loop
      vertex 12.5357 42 32.4091
      vertex 13.7566 42 33.9401
      vertex 13.7566 37 33.9401
    endloop
  endfacet
  facet normal 0.781832 -8.86032e-16 -0.62349
    outer loop
      vertex 12.5357 37 32.4091
      vertex 12.5357 42 32.4091
      vertex 13.7566 37 33.9401
    endloop
  endfacet
  facet normal 0.433884 0 -0.900969
    outer loop
      vertex 15.5209 42 34.7897
      vertex 15.5209 37 34.7897
      vertex 13.7566 42 33.9401
    endloop
  endfacet
  facet normal 0.433884 0 -0.900969
    outer loop
      vertex 13.7566 42 33.9401
      vertex 15.5209 37 34.7897
      vertex 13.7566 37 33.9401
    endloop
  endfacet
  facet normal 0 0 -1
    outer loop
      vertex 16.5 42 34.7897
      vertex 16.5 37 34.7897
      vertex 15.5209 42 34.7897
    endloop
  endfacet
  facet normal 0 0 -1
    outer loop
      vertex 15.5209 42 34.7897
      vertex 16.5 37 34.7897
      vertex 15.5209 37 34.7897
    endloop
  endfacet
  facet normal 1 0 0
    outer loop
      vertex 16.5 42 34.7897
      vertex 16.5 42 34.9
      vertex 16.5 37 34.9
    endloop
  endfacet
  facet normal 1 0 0
    outer loop
      vertex 16.5 37 34.7897
      vertex 16.5 42 34.7897
      vertex 16.5 37 34.9
    endloop
  endfacet
  facet normal 0 0 -1
    outer loop
      vertex 28.5 42 34.9
      vertex 28.5 37 34.9
      vertex 16.5 42 34.9
    endloop
  endfacet
  facet normal 0 0 -1
    outer loop
      vertex 16.5 42 34.9
      vertex 28.5 37 34.9
      vertex 16.5 37 34.9
    endloop
  endfacet
  facet normal -1 0 0
    outer loop
      vertex 28.5 42 34.9
      vertex 28.5 42 34.7897
      vertex 28.5 37 34.9
    endloop
  endfacet
  facet normal -1 0 0
    outer loop
      vertex 28.5 37 34.9
      vertex 28.5 42 34.7897
      vertex 28.5 37 34.7897
    endloop
  endfacet
  facet normal 0 0 -1
    outer loop
      vertex 29.4791 42 34.7897
      vertex 29.4791 37 34.7897
      vertex 28.5 42 34.7897
    endloop
  endfacet
  facet normal 0 0 -1
    outer loop
      vertex 28.5 42 34.7897
      vertex 29.4791 37 34.7897
      vertex 28.5 37 34.7897
    endloop
  endfacet
  facet normal -0.433884 0 -0.900969
    outer loop
      vertex 31.2434 42 33.9401
      vertex 31.2434 37 33.9401
      vertex 29.4791 42 34.7897
    endloop
  endfacet
  facet normal -0.433884 0 -0.900969
    outer loop
      vertex 29.4791 42 34.7897
      vertex 31.2434 37 33.9401
      vertex 29.4791 37 34.7897
    endloop
  endfacet
  facet normal -0.781832 -8.86032e-16 -0.62349
    outer loop
      vertex 32.4643 42 32.4091
      vertex 32.4643 37 32.4091
      vertex 31.2434 42 33.9401
    endloop
  endfacet
  facet normal -0.781832 0 -0.62349
    outer loop
      vertex 31.2434 42 33.9401
      vertex 32.4643 37 32.4091
      vertex 31.2434 37 33.9401
    endloop
  endfacet
  facet normal -0.974928 0 -0.222521
    outer loop
      vertex 32.9 42 30.5
      vertex 32.9 37 30.5
      vertex 32.4643 42 32.4091
    endloop
  endfacet
  facet normal -0.974928 -3.16221e-16 -0.222521
    outer loop
      vertex 32.4643 42 32.4091
      vertex 32.9 37 30.5
      vertex 32.4643 37 32.4091
    endloop
  endfacet
  facet normal -0.974928 0 0.222521
    outer loop
      vertex 32.9 42 30.5
      vertex 32.4643 42 28.5909
      vertex 32.9 37 30.5
    endloop
  endfacet
  facet normal -0.974928 0 0.222521
    outer loop
      vertex 32.9 37 30.5
      vertex 32.4643 42 28.5909
      vertex 32.4643 37 28.5909
    endloop
  endfacet
  facet normal -0.781832 0 0.62349
    outer loop
      vertex 32.4643 42 28.5909
      vertex 31.2434 42 27.0599
      vertex 32.4643 37 28.5909
    endloop
  endfacet
  facet normal -0.781832 0 0.62349
    outer loop
      vertex 32.4643 37 28.5909
      vertex 31.2434 42 27.0599
      vertex 31.2434 37 27.0599
    endloop
  endfacet
  facet normal -0.433884 0 0.900969
    outer loop
      vertex 31.2434 37 27.0599
      vertex 31.2434 42 27.0599
      vertex 29.4791 42 26.2103
    endloop
  endfacet
  facet normal -0.433884 0 0.900969
    outer loop
      vertex 29.4791 37 26.2103
      vertex 31.2434 37 27.0599
      vertex 29.4791 42 26.2103
    endloop
  endfacet
  facet normal 0 0 1
    outer loop
      vertex 29.4791 37 26.2103
      vertex 29.4791 42 26.2103
      vertex 28.5 42 26.2103
    endloop
  endfacet
  facet normal 0 0 1
    outer loop
      vertex 28.5 37 26.2103
      vertex 29.4791 37 26.2103
      vertex 28.5 42 26.2103
    endloop
  endfacet
  facet normal -1 0 0
    outer loop
      vertex 28.5 42 26.2103
      vertex 28.5 42 26.1
      vertex 28.5 37 26.2103
    endloop
  endfacet
  facet normal -1 0 0
    outer loop
      vertex 28.5 37 26.2103
      vertex 28.5 42 26.1
      vertex 28.5 37 26.1
    endloop
  endfacet
  facet normal 0 0 1
    outer loop
      vertex 28.5 37 26.1
      vertex 28.5 42 26.1
      vertex 16.5 42 26.1
    endloop
  endfacet
  facet normal 0 0 1
    outer loop
      vertex 16.5 37 26.1
      vertex 28.5 37 26.1
      vertex 16.5 42 26.1
    endloop
  endfacet
  facet normal 1 0 0
    outer loop
      vertex 16.5 42 26.1
      vertex 16.5 42 26.2103
      vertex 16.5 37 26.2103
    endloop
  endfacet
  facet normal 1 0 0
    outer loop
      vertex 16.5 37 26.1
      vertex 16.5 42 26.1
      vertex 16.5 37 26.2103
    endloop
  endfacet
  facet normal 0 0 1
    outer loop
      vertex 16.5 37 26.2103
      vertex 16.5 42 26.2103
      vertex 15.5209 42 26.2103
    endloop
  endfacet
  facet normal 0 0 1
    outer loop
      vertex 15.5209 37 26.2103
      vertex 16.5 37 26.2103
      vertex 15.5209 42 26.2103
    endloop
  endfacet
  facet normal 0.433884 0 0.900969
    outer loop
      vertex 15.5209 37 26.2103
      vertex 15.5209 42 26.2103
      vertex 13.7566 42 27.0599
    endloop
  endfacet
  facet normal 0.433884 0 0.900969
    outer loop
      vertex 13.7566 37 27.0599
      vertex 15.5209 37 26.2103
      vertex 13.7566 42 27.0599
    endloop
  endfacet
  facet normal 0.781832 0 0.62349
    outer loop
      vertex 13.7566 37 27.0599
      vertex 13.7566 42 27.0599
      vertex 12.5357 42 28.5909
    endloop
  endfacet
  facet normal 0.781832 0 0.62349
    outer loop
      vertex 12.5357 37 28.5909
      vertex 13.7566 37 27.0599
      vertex 12.5357 42 28.5909
    endloop
  endfacet
  facet normal 0.707107 -0.5 0.5
    outer loop
      vertex 22.5 37 19.7279
      vertex 22.5 27.2721 10
      vertex 29.3787 37 10
    endloop
  endfacet
  facet normal -0.707107 -0.5 0.5
    outer loop
      vertex 22.5 37 19.7279
      vertex 15.6213 37 10
      vertex 22.5 27.2721 10
    endloop
  endfacet
  facet normal 0.980785 0.19509 0
    outer loop
      vertex 1.65 6.5 10
      vertex 2.01918 4.64398 10
      vertex 2.01918 4.64398 3.01
    endloop
  endfacet
  facet normal 0.980785 0.19509 0
    outer loop
      vertex 1.65 6.5 3.01
      vertex 1.65 6.5 10
      vertex 2.01918 4.64398 3.01
    endloop
  endfacet
  facet normal 0.83147 0.55557 0
    outer loop
      vertex 2.01918 4.64398 10
      vertex 3.07053 3.07053 10
      vertex 3.07053 3.07053 3.01
    endloop
  endfacet
  facet normal 0.83147 0.55557 0
    outer loop
      vertex 2.01918 4.64398 3.01
      vertex 2.01918 4.64398 10
      vertex 3.07053 3.07053 3.01
    endloop
  endfacet
  facet normal 0.55557 0.83147 -0
    outer loop
      vertex 4.64398 2.01918 10
      vertex 4.64398 2.01918 3.01
      vertex 3.07053 3.07053 10
    endloop
  endfacet
  facet normal 0.55557 0.83147 -0
    outer loop
      vertex 3.07053 3.07053 10
      vertex 4.64398 2.01918 3.01
      vertex 3.07053 3.07053 3.01
    endloop
  endfacet
  facet normal 0.19509 0.980785 -0
    outer loop
      vertex 6.5 1.65 10
      vertex 6.5 1.65 3.01
      vertex 4.64398 2.01918 10
    endloop
  endfacet
  facet normal 0.19509 0.980785 -0
    outer loop
      vertex 4.64398 2.01918 10
      vertex 6.5 1.65 3.01
      vertex 4.64398 2.01918 3.01
    endloop
  endfacet
  facet normal -0.19509 0.980785 0
    outer loop
      vertex 8.35601 2.01918 10
      vertex 8.35601 2.01918 3.01
      vertex 6.5 1.65 10
    endloop
  endfacet
  facet normal -0.19509 0.980785 0
    outer loop
      vertex 6.5 1.65 10
      vertex 8.35601 2.01918 3.01
      vertex 6.5 1.65 3.01
    endloop
  endfacet
  facet normal -0.55557 0.83147 0
    outer loop
      vertex 9.92947 3.07053 10
      vertex 9.92947 3.07053 3.01
      vertex 8.35601 2.01918 10
    endloop
  endfacet
  facet normal -0.55557 0.83147 0
    outer loop
      vertex 8.35601 2.01918 10
      vertex 9.92947 3.07053 3.01
      vertex 8.35601 2.01918 3.01
    endloop
  endfacet
  facet normal -0.83147 0.55557 0
    outer loop
      vertex 10.9808 4.64398 10
      vertex 10.9808 4.64398 3.01
      vertex 9.92947 3.07053 10
    endloop
  endfacet
  facet normal -0.83147 0.55557 0
    outer loop
      vertex 9.92947 3.07053 10
      vertex 10.9808 4.64398 3.01
      vertex 9.92947 3.07053 3.01
    endloop
  endfacet
  facet normal -0.980785 0.19509 0
    outer loop
      vertex 11.35 6.5 10
      vertex 11.35 6.5 3.01
      vertex 10.9808 4.64398 10
    endloop
  endfacet
  facet normal -0.980785 0.19509 0
    outer loop
      vertex 10.9808 4.64398 10
      vertex 11.35 6.5 3.01
      vertex 10.9808 4.64398 3.01
    endloop
  endfacet
  facet normal -0.980785 -0.19509 0
    outer loop
      vertex 11.35 6.5 10
      vertex 10.9808 8.35601 10
      vertex 11.35 6.5 3.01
    endloop
  endfacet
  facet normal -0.980785 -0.19509 0
    outer loop
      vertex 11.35 6.5 3.01
      vertex 10.9808 8.35601 10
      vertex 10.9808 8.35601 3.01
    endloop
  endfacet
  facet normal -0.83147 -0.55557 0
    outer loop
      vertex 10.9808 8.35601 10
      vertex 9.92947 9.92947 10
      vertex 10.9808 8.35601 3.01
    endloop
  endfacet
  facet normal -0.83147 -0.55557 0
    outer loop
      vertex 10.9808 8.35601 3.01
      vertex 9.92947 9.92947 10
      vertex 9.92947 9.92947 3.01
    endloop
  endfacet
  facet normal -0.55557 -0.83147 -0
    outer loop
      vertex 9.92947 9.92947 3.01
      vertex 9.92947 9.92947 10
      vertex 8.35601 10.9808 10
    endloop
  endfacet
  facet normal -0.55557 -0.83147 -0
    outer loop
      vertex 8.35601 10.9808 3.01
      vertex 9.92947 9.92947 3.01
      vertex 8.35601 10.9808 10
    endloop
  endfacet
  facet normal -0.19509 -0.980785 -0
    outer loop
      vertex 8.35601 10.9808 3.01
      vertex 8.35601 10.9808 10
      vertex 6.5 11.35 10
    endloop
  endfacet
  facet normal -0.19509 -0.980785 -0
    outer loop
      vertex 6.5 11.35 3.01
      vertex 8.35601 10.9808 3.01
      vertex 6.5 11.35 10
    endloop
  endfacet
  facet normal 0.19509 -0.980785 0
    outer loop
      vertex 6.5 11.35 3.01
      vertex 6.5 11.35 10
      vertex 4.64398 10.9808 10
    endloop
  endfacet
  facet normal 0.19509 -0.980785 0
    outer loop
      vertex 4.64398 10.9808 3.01
      vertex 6.5 11.35 3.01
      vertex 4.64398 10.9808 10
    endloop
  endfacet
  facet normal 0.55557 -0.83147 0
    outer loop
      vertex 4.64398 10.9808 3.01
      vertex 4.64398 10.9808 10
      vertex 3.07053 9.92947 10
    endloop
  endfacet
  facet normal 0.55557 -0.83147 0
    outer loop
      vertex 3.07053 9.92947 3.01
      vertex 4.64398 10.9808 3.01
      vertex 3.07053 9.92947 10
    endloop
  endfacet
  facet normal 0.83147 -0.55557 0
    outer loop
      vertex 3.07053 9.92947 3.01
      vertex 3.07053 9.92947 10
      vertex 2.01918 8.35601 10
    endloop
  endfacet
  facet normal 0.83147 -0.55557 0
    outer loop
      vertex 2.01918 8.35601 3.01
      vertex 3.07053 9.92947 3.01
      vertex 2.01918 8.35601 10
    endloop
  endfacet
  facet normal 0.980785 -0.19509 0
    outer loop
      vertex 2.01918 8.35601 3.01
      vertex 2.01918 8.35601 10
      vertex 1.65 6.5 10
    endloop
  endfacet
  facet normal 0.980785 -0.19509 0
    outer loop
      vertex 1.65 6.5 3.01
      vertex 2.01918 8.35601 3.01
      vertex 1.65 6.5 10
    endloop
  endfacet
  facet normal 0.980785 0.19509 0
    outer loop
      vertex 1.65 28 10
      vertex 2.01918 26.144 10
      vertex 2.01918 26.144 3.01
    endloop
  endfacet
  facet normal 0.980785 0.19509 0
    outer loop
      vertex 1.65 28 3.01
      vertex 1.65 28 10
      vertex 2.01918 26.144 3.01
    endloop
  endfacet
  facet normal 0.83147 0.55557 0
    outer loop
      vertex 2.01918 26.144 10
      vertex 3.07053 24.5705 10
      vertex 3.07053 24.5705 3.01
    endloop
  endfacet
  facet normal 0.83147 0.55557 0
    outer loop
      vertex 2.01918 26.144 3.01
      vertex 2.01918 26.144 10
      vertex 3.07053 24.5705 3.01
    endloop
  endfacet
  facet normal 0.55557 0.83147 -0
    outer loop
      vertex 4.64398 23.5192 10
      vertex 4.64398 23.5192 3.01
      vertex 3.07053 24.5705 10
    endloop
  endfacet
  facet normal 0.55557 0.83147 -0
    outer loop
      vertex 3.07053 24.5705 10
      vertex 4.64398 23.5192 3.01
      vertex 3.07053 24.5705 3.01
    endloop
  endfacet
  facet normal 0.19509 0.980785 -0
    outer loop
      vertex 6.5 23.15 10
      vertex 6.5 23.15 3.01
      vertex 4.64398 23.5192 10
    endloop
  endfacet
  facet normal 0.19509 0.980785 -0
    outer loop
      vertex 4.64398 23.5192 10
      vertex 6.5 23.15 3.01
      vertex 4.64398 23.5192 3.01
    endloop
  endfacet
  facet normal -0.19509 0.980785 0
    outer loop
      vertex 8.35601 23.5192 10
      vertex 8.35601 23.5192 3.01
      vertex 6.5 23.15 10
    endloop
  endfacet
  facet normal -0.19509 0.980785 0
    outer loop
      vertex 6.5 23.15 10
      vertex 8.35601 23.5192 3.01
      vertex 6.5 23.15 3.01
    endloop
  endfacet
  facet normal -0.55557 0.83147 0
    outer loop
      vertex 9.92947 24.5705 10
      vertex 9.92947 24.5705 3.01
      vertex 8.35601 23.5192 10
    endloop
  endfacet
  facet normal -0.55557 0.83147 0
    outer loop
      vertex 8.35601 23.5192 10
      vertex 9.92947 24.5705 3.01
      vertex 8.35601 23.5192 3.01
    endloop
  endfacet
  facet normal -0.83147 0.55557 0
    outer loop
      vertex 10.9808 26.144 10
      vertex 10.9808 26.144 3.01
      vertex 9.92947 24.5705 10
    endloop
  endfacet
  facet normal -0.83147 0.55557 0
    outer loop
      vertex 9.92947 24.5705 10
      vertex 10.9808 26.144 3.01
      vertex 9.92947 24.5705 3.01
    endloop
  endfacet
  facet normal -0.980785 0.19509 0
    outer loop
      vertex 11.35 28 10
      vertex 11.35 28 3.01
      vertex 10.9808 26.144 10
    endloop
  endfacet
  facet normal -0.980785 0.19509 0
    outer loop
      vertex 10.9808 26.144 10
      vertex 11.35 28 3.01
      vertex 10.9808 26.144 3.01
    endloop
  endfacet
  facet normal -0.980785 -0.19509 0
    outer loop
      vertex 11.35 28 10
      vertex 10.9808 29.856 10
      vertex 11.35 28 3.01
    endloop
  endfacet
  facet normal -0.980785 -0.19509 0
    outer loop
      vertex 11.35 28 3.01
      vertex 10.9808 29.856 10
      vertex 10.9808 29.856 3.01
    endloop
  endfacet
  facet normal -0.83147 -0.55557 0
    outer loop
      vertex 10.9808 29.856 10
      vertex 9.92947 31.4295 10
      vertex 10.9808 29.856 3.01
    endloop
  endfacet
  facet normal -0.83147 -0.55557 0
    outer loop
      vertex 10.9808 29.856 3.01
      vertex 9.92947 31.4295 10
      vertex 9.92947 31.4295 3.01
    endloop
  endfacet
  facet normal -0.55557 -0.83147 -0
    outer loop
      vertex 9.92947 31.4295 3.01
      vertex 9.92947 31.4295 10
      vertex 8.35601 32.4808 10
    endloop
  endfacet
  facet normal -0.55557 -0.83147 -0
    outer loop
      vertex 8.35601 32.4808 3.01
      vertex 9.92947 31.4295 3.01
      vertex 8.35601 32.4808 10
    endloop
  endfacet
  facet normal -0.19509 -0.980785 -0
    outer loop
      vertex 8.35601 32.4808 3.01
      vertex 8.35601 32.4808 10
      vertex 6.5 32.85 10
    endloop
  endfacet
  facet normal -0.19509 -0.980785 -0
    outer loop
      vertex 6.5 32.85 3.01
      vertex 8.35601 32.4808 3.01
      vertex 6.5 32.85 10
    endloop
  endfacet
  facet normal 0.19509 -0.980785 0
    outer loop
      vertex 6.5 32.85 3.01
      vertex 6.5 32.85 10
      vertex 4.64398 32.4808 10
    endloop
  endfacet
  facet normal 0.19509 -0.980785 0
    outer loop
      vertex 4.64398 32.4808 3.01
      vertex 6.5 32.85 3.01
      vertex 4.64398 32.4808 10
    endloop
  endfacet
  facet normal 0.55557 -0.83147 0
    outer loop
      vertex 4.64398 32.4808 3.01
      vertex 4.64398 32.4808 10
      vertex 3.07053 31.4295 10
    endloop
  endfacet
  facet normal 0.55557 -0.83147 0
    outer loop
      vertex 3.07053 31.4295 3.01
      vertex 4.64398 32.4808 3.01
      vertex 3.07053 31.4295 10
    endloop
  endfacet
  facet normal 0.83147 -0.55557 0
    outer loop
      vertex 3.07053 31.4295 3.01
      vertex 3.07053 31.4295 10
      vertex 2.01918 29.856 10
    endloop
  endfacet
  facet normal 0.83147 -0.55557 0
    outer loop
      vertex 2.01918 29.856 3.01
      vertex 3.07053 31.4295 3.01
      vertex 2.01918 29.856 10
    endloop
  endfacet
  facet normal 0.980785 -0.19509 0
    outer loop
      vertex 2.01918 29.856 3.01
      vertex 2.01918 29.856 10
      vertex 1.65 28 10
    endloop
  endfacet
  facet normal 0.980785 -0.19509 0
    outer loop
      vertex 1.65 28 3.01
      vertex 2.01918 29.856 3.01
      vertex 1.65 28 10
    endloop
  endfacet
  facet normal 0.980785 0.19509 0
    outer loop
      vertex 33.65 6.5 10
      vertex 34.0192 4.64398 10
      vertex 34.0192 4.64398 3.01
    endloop
  endfacet
  facet normal 0.980785 0.19509 0
    outer loop
      vertex 33.65 6.5 3.01
      vertex 33.65 6.5 10
      vertex 34.0192 4.64398 3.01
    endloop
  endfacet
  facet normal 0.83147 0.55557 0
    outer loop
      vertex 34.0192 4.64398 10
      vertex 35.0705 3.07053 10
      vertex 35.0705 3.07053 3.01
    endloop
  endfacet
  facet normal 0.83147 0.55557 0
    outer loop
      vertex 34.0192 4.64398 3.01
      vertex 34.0192 4.64398 10
      vertex 35.0705 3.07053 3.01
    endloop
  endfacet
  facet normal 0.55557 0.83147 -0
    outer loop
      vertex 36.644 2.01918 10
      vertex 36.644 2.01918 3.01
      vertex 35.0705 3.07053 10
    endloop
  endfacet
  facet normal 0.55557 0.83147 -0
    outer loop
      vertex 35.0705 3.07053 10
      vertex 36.644 2.01918 3.01
      vertex 35.0705 3.07053 3.01
    endloop
  endfacet
  facet normal 0.19509 0.980785 -0
    outer loop
      vertex 38.5 1.65 10
      vertex 38.5 1.65 3.01
      vertex 36.644 2.01918 10
    endloop
  endfacet
  facet normal 0.19509 0.980785 -0
    outer loop
      vertex 36.644 2.01918 10
      vertex 38.5 1.65 3.01
      vertex 36.644 2.01918 3.01
    endloop
  endfacet
  facet normal -0.19509 0.980785 0
    outer loop
      vertex 40.356 2.01918 10
      vertex 40.356 2.01918 3.01
      vertex 38.5 1.65 10
    endloop
  endfacet
  facet normal -0.19509 0.980785 0
    outer loop
      vertex 38.5 1.65 10
      vertex 40.356 2.01918 3.01
      vertex 38.5 1.65 3.01
    endloop
  endfacet
  facet normal -0.55557 0.83147 0
    outer loop
      vertex 41.9295 3.07053 10
      vertex 41.9295 3.07053 3.01
      vertex 40.356 2.01918 10
    endloop
  endfacet
  facet normal -0.55557 0.83147 0
    outer loop
      vertex 40.356 2.01918 10
      vertex 41.9295 3.07053 3.01
      vertex 40.356 2.01918 3.01
    endloop
  endfacet
  facet normal -0.83147 0.55557 0
    outer loop
      vertex 42.9808 4.64398 10
      vertex 42.9808 4.64398 3.01
      vertex 41.9295 3.07053 10
    endloop
  endfacet
  facet normal -0.83147 0.55557 0
    outer loop
      vertex 41.9295 3.07053 10
      vertex 42.9808 4.64398 3.01
      vertex 41.9295 3.07053 3.01
    endloop
  endfacet
  facet normal -0.980785 0.19509 0
    outer loop
      vertex 43.35 6.5 10
      vertex 43.35 6.5 3.01
      vertex 42.9808 4.64398 10
    endloop
  endfacet
  facet normal -0.980785 0.19509 0
    outer loop
      vertex 42.9808 4.64398 10
      vertex 43.35 6.5 3.01
      vertex 42.9808 4.64398 3.01
    endloop
  endfacet
  facet normal -0.980785 -0.19509 0
    outer loop
      vertex 43.35 6.5 10
      vertex 42.9808 8.35601 10
      vertex 43.35 6.5 3.01
    endloop
  endfacet
  facet normal -0.980785 -0.19509 0
    outer loop
      vertex 43.35 6.5 3.01
      vertex 42.9808 8.35601 10
      vertex 42.9808 8.35601 3.01
    endloop
  endfacet
  facet normal -0.83147 -0.55557 0
    outer loop
      vertex 42.9808 8.35601 10
      vertex 41.9295 9.92947 10
      vertex 42.9808 8.35601 3.01
    endloop
  endfacet
  facet normal -0.83147 -0.55557 0
    outer loop
      vertex 42.9808 8.35601 3.01
      vertex 41.9295 9.92947 10
      vertex 41.9295 9.92947 3.01
    endloop
  endfacet
  facet normal -0.55557 -0.83147 -0
    outer loop
      vertex 41.9295 9.92947 3.01
      vertex 41.9295 9.92947 10
      vertex 40.356 10.9808 10
    endloop
  endfacet
  facet normal -0.55557 -0.83147 -0
    outer loop
      vertex 40.356 10.9808 3.01
      vertex 41.9295 9.92947 3.01
      vertex 40.356 10.9808 10
    endloop
  endfacet
  facet normal -0.19509 -0.980785 -0
    outer loop
      vertex 40.356 10.9808 3.01
      vertex 40.356 10.9808 10
      vertex 38.5 11.35 10
    endloop
  endfacet
  facet normal -0.19509 -0.980785 -0
    outer loop
      vertex 38.5 11.35 3.01
      vertex 40.356 10.9808 3.01
      vertex 38.5 11.35 10
    endloop
  endfacet
  facet normal 0.19509 -0.980785 0
    outer loop
      vertex 38.5 11.35 3.01
      vertex 38.5 11.35 10
      vertex 36.644 10.9808 10
    endloop
  endfacet
  facet normal 0.19509 -0.980785 0
    outer loop
      vertex 36.644 10.9808 3.01
      vertex 38.5 11.35 3.01
      vertex 36.644 10.9808 10
    endloop
  endfacet
  facet normal 0.55557 -0.83147 0
    outer loop
      vertex 36.644 10.9808 3.01
      vertex 36.644 10.9808 10
      vertex 35.0705 9.92947 10
    endloop
  endfacet
  facet normal 0.55557 -0.83147 0
    outer loop
      vertex 35.0705 9.92947 3.01
      vertex 36.644 10.9808 3.01
      vertex 35.0705 9.92947 10
    endloop
  endfacet
  facet normal 0.83147 -0.55557 0
    outer loop
      vertex 35.0705 9.92947 3.01
      vertex 35.0705 9.92947 10
      vertex 34.0192 8.35601 10
    endloop
  endfacet
  facet normal 0.83147 -0.55557 0
    outer loop
      vertex 34.0192 8.35601 3.01
      vertex 35.0705 9.92947 3.01
      vertex 34.0192 8.35601 10
    endloop
  endfacet
  facet normal 0.980785 -0.19509 0
    outer loop
      vertex 34.0192 8.35601 3.01
      vertex 34.0192 8.35601 10
      vertex 33.65 6.5 10
    endloop
  endfacet
  facet normal 0.980785 -0.19509 0
    outer loop
      vertex 33.65 6.5 3.01
      vertex 34.0192 8.35601 3.01
      vertex 33.65 6.5 10
    endloop
  endfacet
  facet normal 0.980785 0.19509 0
    outer loop
      vertex 33.65 28 10
      vertex 34.0192 26.144 10
      vertex 34.0192 26.144 3.01
    endloop
  endfacet
  facet normal 0.980785 0.19509 0
    outer loop
      vertex 33.65 28 3.01
      vertex 33.65 28 10
      vertex 34.0192 26.144 3.01
    endloop
  endfacet
  facet normal 0.83147 0.55557 0
    outer loop
      vertex 34.0192 26.144 10
      vertex 35.0705 24.5705 10
      vertex 35.0705 24.5705 3.01
    endloop
  endfacet
  facet normal 0.83147 0.55557 0
    outer loop
      vertex 34.0192 26.144 3.01
      vertex 34.0192 26.144 10
      vertex 35.0705 24.5705 3.01
    endloop
  endfacet
  facet normal 0.55557 0.83147 -0
    outer loop
      vertex 36.644 23.5192 10
      vertex 36.644 23.5192 3.01
      vertex 35.0705 24.5705 10
    endloop
  endfacet
  facet normal 0.55557 0.83147 -0
    outer loop
      vertex 35.0705 24.5705 10
      vertex 36.644 23.5192 3.01
      vertex 35.0705 24.5705 3.01
    endloop
  endfacet
  facet normal 0.19509 0.980785 -0
    outer loop
      vertex 38.5 23.15 10
      vertex 38.5 23.15 3.01
      vertex 36.644 23.5192 10
    endloop
  endfacet
  facet normal 0.19509 0.980785 -0
    outer loop
      vertex 36.644 23.5192 10
      vertex 38.5 23.15 3.01
      vertex 36.644 23.5192 3.01
    endloop
  endfacet
  facet normal -0.19509 0.980785 0
    outer loop
      vertex 40.356 23.5192 10
      vertex 40.356 23.5192 3.01
      vertex 38.5 23.15 10
    endloop
  endfacet
  facet normal -0.19509 0.980785 0
    outer loop
      vertex 38.5 23.15 10
      vertex 40.356 23.5192 3.01
      vertex 38.5 23.15 3.01
    endloop
  endfacet
  facet normal -0.55557 0.83147 0
    outer loop
      vertex 41.9295 24.5705 10
      vertex 41.9295 24.5705 3.01
      vertex 40.356 23.5192 10
    endloop
  endfacet
  facet normal -0.55557 0.83147 0
    outer loop
      vertex 40.356 23.5192 10
      vertex 41.9295 24.5705 3.01
      vertex 40.356 23.5192 3.01
    endloop
  endfacet
  facet normal -0.83147 0.55557 0
    outer loop
      vertex 42.9808 26.144 10
      vertex 42.9808 26.144 3.01
      vertex 41.9295 24.5705 10
    endloop
  endfacet
  facet normal -0.83147 0.55557 0
    outer loop
      vertex 41.9295 24.5705 10
      vertex 42.9808 26.144 3.01
      vertex 41.9295 24.5705 3.01
    endloop
  endfacet
  facet normal -0.980785 0.19509 0
    outer loop
      vertex 43.35 28 10
      vertex 43.35 28 3.01
      vertex 42.9808 26.144 10
    endloop
  endfacet
  facet normal -0.980785 0.19509 0
    outer loop
      vertex 42.9808 26.144 10
      vertex 43.35 28 3.01
      vertex 42.9808 26.144 3.01
    endloop
  endfacet
  facet normal -0.980785 -0.19509 0
    outer loop
      vertex 43.35 28 10
      vertex 42.9808 29.856 10
      vertex 43.35 28 3.01
    endloop
  endfacet
  facet normal -0.980785 -0.19509 0
    outer loop
      vertex 43.35 28 3.01
      vertex 42.9808 29.856 10
      vertex 42.9808 29.856 3.01
    endloop
  endfacet
  facet normal -0.83147 -0.55557 0
    outer loop
      vertex 42.9808 29.856 10
      vertex 41.9295 31.4295 10
      vertex 42.9808 29.856 3.01
    endloop
  endfacet
  facet normal -0.83147 -0.55557 0
    outer loop
      vertex 42.9808 29.856 3.01
      vertex 41.9295 31.4295 10
      vertex 41.9295 31.4295 3.01
    endloop
  endfacet
  facet normal -0.55557 -0.83147 -0
    outer loop
      vertex 41.9295 31.4295 3.01
      vertex 41.9295 31.4295 10
      vertex 40.356 32.4808 10
    endloop
  endfacet
  facet normal -0.55557 -0.83147 -0
    outer loop
      vertex 40.356 32.4808 3.01
      vertex 41.9295 31.4295 3.01
      vertex 40.356 32.4808 10
    endloop
  endfacet
  facet normal -0.19509 -0.980785 -0
    outer loop
      vertex 40.356 32.4808 3.01
      vertex 40.356 32.4808 10
      vertex 38.5 32.85 10
    endloop
  endfacet
  facet normal -0.19509 -0.980785 -0
    outer loop
      vertex 38.5 32.85 3.01
      vertex 40.356 32.4808 3.01
      vertex 38.5 32.85 10
    endloop
  endfacet
  facet normal 0.19509 -0.980785 0
    outer loop
      vertex 38.5 32.85 3.01
      vertex 38.5 32.85 10
      vertex 36.644 32.4808 10
    endloop
  endfacet
  facet normal 0.19509 -0.980785 0
    outer loop
      vertex 36.644 32.4808 3.01
      vertex 38.5 32.85 3.01
      vertex 36.644 32.4808 10
    endloop
  endfacet
  facet normal 0.55557 -0.83147 0
    outer loop
      vertex 36.644 32.4808 3.01
      vertex 36.644 32.4808 10
      vertex 35.0705 31.4295 10
    endloop
  endfacet
  facet normal 0.55557 -0.83147 0
    outer loop
      vertex 35.0705 31.4295 3.01
      vertex 36.644 32.4808 3.01
      vertex 35.0705 31.4295 10
    endloop
  endfacet
  facet normal 0.83147 -0.55557 0
    outer loop
      vertex 35.0705 31.4295 3.01
      vertex 35.0705 31.4295 10
      vertex 34.0192 29.856 10
    endloop
  endfacet
  facet normal 0.83147 -0.55557 0
    outer loop
      vertex 34.0192 29.856 3.01
      vertex 35.0705 31.4295 3.01
      vertex 34.0192 29.856 10
    endloop
  endfacet
  facet normal 0.980785 -0.19509 0
    outer loop
      vertex 34.0192 29.856 3.01
      vertex 34.0192 29.856 10
      vertex 33.65 28 10
    endloop
  endfacet
  facet normal 0.980785 -0.19509 0
    outer loop
      vertex 33.65 28 3.01
      vertex 34.0192 29.856 3.01
      vertex 33.65 28 10
    endloop
  endfacet
  facet normal 0 0 1
    outer loop
      vertex 2.01918 4.64398 3.01
      vertex 3.07053 3.07053 3.01
      vertex 4.64398 2.01918 3.01
    endloop
  endfacet
  facet normal -0 0 1
    outer loop
      vertex 8.35601 2.01918 3.01
      vertex 2.01918 4.64398 3.01
      vertex 6.5 1.65 3.01
    endloop
  endfacet
  facet normal 0 0 1
    outer loop
      vertex 6.5 1.65 3.01
      vertex 2.01918 4.64398 3.01
      vertex 4.64398 2.01918 3.01
    endloop
  endfacet
  facet normal -0 0 1
    outer loop
      vertex 9.92947 3.07053 3.01
      vertex 2.01918 4.64398 3.01
      vertex 8.35601 2.01918 3.01
    endloop
  endfacet
  facet normal -0 -0 1
    outer loop
      vertex 6.03271 4.45265 3.01
      vertex 2.01918 4.64398 3.01
      vertex 9.92947 3.07053 3.01
    endloop
  endfacet
  facet normal 0 -0 1
    outer loop
      vertex 7.80933 4.85815 3.01
      vertex 6.03271 4.45265 3.01
      vertex 10.9808 4.64398 3.01
    endloop
  endfacet
  facet normal 0 0 1
    outer loop
      vertex 7.80933 8.14185 3.01
      vertex 8.6 6.5 3.01
      vertex 10.9808 8.35601 3.01
    endloop
  endfacet
  facet normal 0 -0 1
    outer loop
      vertex 4.64398 10.9808 3.01
      vertex 2.01918 4.64398 3.01
      vertex 6.5 11.35 3.01
    endloop
  endfacet
  facet normal 0 -0 1
    outer loop
      vertex 3.07053 9.92947 3.01
      vertex 2.01918 4.64398 3.01
      vertex 4.64398 10.9808 3.01
    endloop
  endfacet
  facet normal 0 -0 1
    outer loop
      vertex 2.01918 8.35601 3.01
      vertex 2.01918 4.64398 3.01
      vertex 3.07053 9.92947 3.01
    endloop
  endfacet
  facet normal 0 0 1
    outer loop
      vertex 1.65 6.5 3.01
      vertex 2.01918 4.64398 3.01
      vertex 2.01918 8.35601 3.01
    endloop
  endfacet
  facet normal 0 -0 1
    outer loop
      vertex 6.5 11.35 3.01
      vertex 4.60797 7.41116 3.01
      vertex 8.35601 10.9808 3.01
    endloop
  endfacet
  facet normal 0 0 1
    outer loop
      vertex 6.5 11.35 3.01
      vertex 2.01918 4.64398 3.01
      vertex 4.60797 7.41116 3.01
    endloop
  endfacet
  facet normal 0 -0 1
    outer loop
      vertex 8.35601 10.9808 3.01
      vertex 6.03271 8.54735 3.01
      vertex 9.92947 9.92947 3.01
    endloop
  endfacet
  facet normal 0 0 1
    outer loop
      vertex 6.03271 8.54735 3.01
      vertex 7.80933 8.14185 3.01
      vertex 9.92947 9.92947 3.01
    endloop
  endfacet
  facet normal 0 -0 1
    outer loop
      vertex 9.92947 9.92947 3.01
      vertex 7.80933 8.14185 3.01
      vertex 10.9808 8.35601 3.01
    endloop
  endfacet
  facet normal 0 -0 1
    outer loop
      vertex 10.9808 8.35601 3.01
      vertex 8.6 6.5 3.01
      vertex 11.35 6.5 3.01
    endloop
  endfacet
  facet normal 0 0 1
    outer loop
      vertex 11.35 6.5 3.01
      vertex 7.80933 4.85815 3.01
      vertex 10.9808 4.64398 3.01
    endloop
  endfacet
  facet normal 0 0 1
    outer loop
      vertex 10.9808 4.64398 3.01
      vertex 6.03271 4.45265 3.01
      vertex 9.92947 3.07053 3.01
    endloop
  endfacet
  facet normal 0 0 1
    outer loop
      vertex 4.60797 7.41116 3.01
      vertex 6.03271 8.54735 3.01
      vertex 8.35601 10.9808 3.01
    endloop
  endfacet
  facet normal 0 0 1
    outer loop
      vertex 6.03271 4.45265 3.01
      vertex 4.60797 5.58884 3.01
      vertex 2.01918 4.64398 3.01
    endloop
  endfacet
  facet normal 0 -0 1
    outer loop
      vertex 8.6 6.5 3.01
      vertex 7.80933 4.85815 3.01
      vertex 11.35 6.5 3.01
    endloop
  endfacet
  facet normal -0 0 1
    outer loop
      vertex 4.60797 5.58884 3.01
      vertex 4.60797 7.41116 3.01
      vertex 2.01918 4.64398 3.01
    endloop
  endfacet
  facet normal 0 0 1
    outer loop
      vertex 2.01918 26.144 3.01
      vertex 3.07053 24.5705 3.01
      vertex 4.64398 23.5192 3.01
    endloop
  endfacet
  facet normal -0 0 1
    outer loop
      vertex 8.35601 23.5192 3.01
      vertex 2.01918 26.144 3.01
      vertex 6.5 23.15 3.01
    endloop
  endfacet
  facet normal 0 0 1
    outer loop
      vertex 6.5 23.15 3.01
      vertex 2.01918 26.144 3.01
      vertex 4.64398 23.5192 3.01
    endloop
  endfacet
  facet normal -0 0 1
    outer loop
      vertex 9.92947 24.5705 3.01
      vertex 2.01918 26.144 3.01
      vertex 8.35601 23.5192 3.01
    endloop
  endfacet
  facet normal -0 -0 1
    outer loop
      vertex 6.03271 25.9527 3.01
      vertex 2.01918 26.144 3.01
      vertex 9.92947 24.5705 3.01
    endloop
  endfacet
  facet normal 0 -0 1
    outer loop
      vertex 7.80933 26.3582 3.01
      vertex 6.03271 25.9527 3.01
      vertex 10.9808 26.144 3.01
    endloop
  endfacet
  facet normal 0 0 1
    outer loop
      vertex 7.80933 29.6418 3.01
      vertex 8.6 28 3.01
      vertex 10.9808 29.856 3.01
    endloop
  endfacet
  facet normal 0 -0 1
    outer loop
      vertex 4.64398 32.4808 3.01
      vertex 2.01918 26.144 3.01
      vertex 6.5 32.85 3.01
    endloop
  endfacet
  facet normal 0 -0 1
    outer loop
      vertex 3.07053 31.4295 3.01
      vertex 2.01918 26.144 3.01
      vertex 4.64398 32.4808 3.01
    endloop
  endfacet
  facet normal 0 -0 1
    outer loop
      vertex 2.01918 29.856 3.01
      vertex 2.01918 26.144 3.01
      vertex 3.07053 31.4295 3.01
    endloop
  endfacet
  facet normal 0 0 1
    outer loop
      vertex 1.65 28 3.01
      vertex 2.01918 26.144 3.01
      vertex 2.01918 29.856 3.01
    endloop
  endfacet
  facet normal 0 -0 1
    outer loop
      vertex 6.5 32.85 3.01
      vertex 4.60797 28.9112 3.01
      vertex 8.35601 32.4808 3.01
    endloop
  endfacet
  facet normal 0 0 1
    outer loop
      vertex 6.5 32.85 3.01
      vertex 2.01918 26.144 3.01
      vertex 4.60797 28.9112 3.01
    endloop
  endfacet
  facet normal 0 -0 1
    outer loop
      vertex 8.35601 32.4808 3.01
      vertex 6.03271 30.0473 3.01
      vertex 9.92947 31.4295 3.01
    endloop
  endfacet
  facet normal 0 0 1
    outer loop
      vertex 6.03271 30.0473 3.01
      vertex 7.80933 29.6418 3.01
      vertex 9.92947 31.4295 3.01
    endloop
  endfacet
  facet normal 0 -0 1
    outer loop
      vertex 9.92947 31.4295 3.01
      vertex 7.80933 29.6418 3.01
      vertex 10.9808 29.856 3.01
    endloop
  endfacet
  facet normal 0 -0 1
    outer loop
      vertex 10.9808 29.856 3.01
      vertex 8.6 28 3.01
      vertex 11.35 28 3.01
    endloop
  endfacet
  facet normal 0 0 1
    outer loop
      vertex 11.35 28 3.01
      vertex 7.80933 26.3582 3.01
      vertex 10.9808 26.144 3.01
    endloop
  endfacet
  facet normal 0 0 1
    outer loop
      vertex 10.9808 26.144 3.01
      vertex 6.03271 25.9527 3.01
      vertex 9.92947 24.5705 3.01
    endloop
  endfacet
  facet normal 0 0 1
    outer loop
      vertex 4.60797 28.9112 3.01
      vertex 6.03271 30.0473 3.01
      vertex 8.35601 32.4808 3.01
    endloop
  endfacet
  facet normal 0 0 1
    outer loop
      vertex 6.03271 25.9527 3.01
      vertex 4.60797 27.0888 3.01
      vertex 2.01918 26.144 3.01
    endloop
  endfacet
  facet normal 0 -0 1
    outer loop
      vertex 8.6 28 3.01
      vertex 7.80933 26.3582 3.01
      vertex 11.35 28 3.01
    endloop
  endfacet
  facet normal -0 0 1
    outer loop
      vertex 4.60797 27.0888 3.01
      vertex 4.60797 28.9112 3.01
      vertex 2.01918 26.144 3.01
    endloop
  endfacet
  facet normal 0 0 1
    outer loop
      vertex 34.0192 4.64398 3.01
      vertex 35.0705 3.07053 3.01
      vertex 36.644 2.01918 3.01
    endloop
  endfacet
  facet normal -0 0 1
    outer loop
      vertex 40.356 2.01918 3.01
      vertex 34.0192 4.64398 3.01
      vertex 38.5 1.65 3.01
    endloop
  endfacet
  facet normal 0 0 1
    outer loop
      vertex 38.5 1.65 3.01
      vertex 34.0192 4.64398 3.01
      vertex 36.644 2.01918 3.01
    endloop
  endfacet
  facet normal -0 0 1
    outer loop
      vertex 41.9295 3.07053 3.01
      vertex 34.0192 4.64398 3.01
      vertex 40.356 2.01918 3.01
    endloop
  endfacet
  facet normal -0 -0 1
    outer loop
      vertex 38.0327 4.45265 3.01
      vertex 34.0192 4.64398 3.01
      vertex 41.9295 3.07053 3.01
    endloop
  endfacet
  facet normal 0 -0 1
    outer loop
      vertex 39.8093 4.85815 3.01
      vertex 38.0327 4.45265 3.01
      vertex 42.9808 4.64398 3.01
    endloop
  endfacet
  facet normal 0 0 1
    outer loop
      vertex 39.8093 8.14185 3.01
      vertex 40.6 6.5 3.01
      vertex 42.9808 8.35601 3.01
    endloop
  endfacet
  facet normal 0 -0 1
    outer loop
      vertex 36.644 10.9808 3.01
      vertex 34.0192 4.64398 3.01
      vertex 38.5 11.35 3.01
    endloop
  endfacet
  facet normal 0 -0 1
    outer loop
      vertex 35.0705 9.92947 3.01
      vertex 34.0192 4.64398 3.01
      vertex 36.644 10.9808 3.01
    endloop
  endfacet
  facet normal 0 -0 1
    outer loop
      vertex 34.0192 8.35601 3.01
      vertex 34.0192 4.64398 3.01
      vertex 35.0705 9.92947 3.01
    endloop
  endfacet
  facet normal 0 0 1
    outer loop
      vertex 33.65 6.5 3.01
      vertex 34.0192 4.64398 3.01
      vertex 34.0192 8.35601 3.01
    endloop
  endfacet
  facet normal 0 -0 1
    outer loop
      vertex 38.5 11.35 3.01
      vertex 36.608 7.41116 3.01
      vertex 40.356 10.9808 3.01
    endloop
  endfacet
  facet normal 0 0 1
    outer loop
      vertex 38.5 11.35 3.01
      vertex 34.0192 4.64398 3.01
      vertex 36.608 7.41116 3.01
    endloop
  endfacet
  facet normal 0 -0 1
    outer loop
      vertex 40.356 10.9808 3.01
      vertex 38.0327 8.54735 3.01
      vertex 41.9295 9.92947 3.01
    endloop
  endfacet
  facet normal 0 0 1
    outer loop
      vertex 38.0327 8.54735 3.01
      vertex 39.8093 8.14185 3.01
      vertex 41.9295 9.92947 3.01
    endloop
  endfacet
  facet normal 0 -0 1
    outer loop
      vertex 41.9295 9.92947 3.01
      vertex 39.8093 8.14185 3.01
      vertex 42.9808 8.35601 3.01
    endloop
  endfacet
  facet normal 0 -0 1
    outer loop
      vertex 42.9808 8.35601 3.01
      vertex 40.6 6.5 3.01
      vertex 43.35 6.5 3.01
    endloop
  endfacet
  facet normal 0 0 1
    outer loop
      vertex 43.35 6.5 3.01
      vertex 39.8093 4.85815 3.01
      vertex 42.9808 4.64398 3.01
    endloop
  endfacet
  facet normal 0 0 1
    outer loop
      vertex 42.9808 4.64398 3.01
      vertex 38.0327 4.45265 3.01
      vertex 41.9295 3.07053 3.01
    endloop
  endfacet
  facet normal 0 0 1
    outer loop
      vertex 36.608 7.41116 3.01
      vertex 38.0327 8.54735 3.01
      vertex 40.356 10.9808 3.01
    endloop
  endfacet
  facet normal 0 0 1
    outer loop
      vertex 38.0327 4.45265 3.01
      vertex 36.608 5.58884 3.01
      vertex 34.0192 4.64398 3.01
    endloop
  endfacet
  facet normal 0 -0 1
    outer loop
      vertex 40.6 6.5 3.01
      vertex 39.8093 4.85815 3.01
      vertex 43.35 6.5 3.01
    endloop
  endfacet
  facet normal -0 0 1
    outer loop
      vertex 36.608 5.58884 3.01
      vertex 36.608 7.41116 3.01
      vertex 34.0192 4.64398 3.01
    endloop
  endfacet
  facet normal 0 0 1
    outer loop
      vertex 34.0192 26.144 3.01
      vertex 35.0705 24.5705 3.01
      vertex 36.644 23.5192 3.01
    endloop
  endfacet
  facet normal -0 0 1
    outer loop
      vertex 40.356 23.5192 3.01
      vertex 34.0192 26.144 3.01
      vertex 38.5 23.15 3.01
    endloop
  endfacet
  facet normal 0 0 1
    outer loop
      vertex 38.5 23.15 3.01
      vertex 34.0192 26.144 3.01
      vertex 36.644 23.5192 3.01
    endloop
  endfacet
  facet normal -0 0 1
    outer loop
      vertex 41.9295 24.5705 3.01
      vertex 34.0192 26.144 3.01
      vertex 40.356 23.5192 3.01
    endloop
  endfacet
  facet normal -0 -0 1
    outer loop
      vertex 38.0327 25.9527 3.01
      vertex 34.0192 26.144 3.01
      vertex 41.9295 24.5705 3.01
    endloop
  endfacet
  facet normal 0 -0 1
    outer loop
      vertex 39.8093 26.3582 3.01
      vertex 38.0327 25.9527 3.01
      vertex 42.9808 26.144 3.01
    endloop
  endfacet
  facet normal 0 0 1
    outer loop
      vertex 39.8093 29.6418 3.01
      vertex 40.6 28 3.01
      vertex 42.9808 29.856 3.01
    endloop
  endfacet
  facet normal 0 -0 1
    outer loop
      vertex 36.644 32.4808 3.01
      vertex 34.0192 26.144 3.01
      vertex 38.5 32.85 3.01
    endloop
  endfacet
  facet normal 0 -0 1
    outer loop
      vertex 35.0705 31.4295 3.01
      vertex 34.0192 26.144 3.01
      vertex 36.644 32.4808 3.01
    endloop
  endfacet
  facet normal 0 -0 1
    outer loop
      vertex 34.0192 29.856 3.01
      vertex 34.0192 26.144 3.01
      vertex 35.0705 31.4295 3.01
    endloop
  endfacet
  facet normal 0 0 1
    outer loop
      vertex 33.65 28 3.01
      vertex 34.0192 26.144 3.01
      vertex 34.0192 29.856 3.01
    endloop
  endfacet
  facet normal 0 -0 1
    outer loop
      vertex 38.5 32.85 3.01
      vertex 36.608 28.9112 3.01
      vertex 40.356 32.4808 3.01
    endloop
  endfacet
  facet normal 0 0 1
    outer loop
      vertex 38.5 32.85 3.01
      vertex 34.0192 26.144 3.01
      vertex 36.608 28.9112 3.01
    endloop
  endfacet
  facet normal 0 -0 1
    outer loop
      vertex 40.356 32.4808 3.01
      vertex 38.0327 30.0473 3.01
      vertex 41.9295 31.4295 3.01
    endloop
  endfacet
  facet normal 0 0 1
    outer loop
      vertex 38.0327 30.0473 3.01
      vertex 39.8093 29.6418 3.01
      vertex 41.9295 31.4295 3.01
    endloop
  endfacet
  facet normal 0 -0 1
    outer loop
      vertex 41.9295 31.4295 3.01
      vertex 39.8093 29.6418 3.01
      vertex 42.9808 29.856 3.01
    endloop
  endfacet
  facet normal 0 -0 1
    outer loop
      vertex 42.9808 29.856 3.01
      vertex 40.6 28 3.01
      vertex 43.35 28 3.01
    endloop
  endfacet
  facet normal 0 0 1
    outer loop
      vertex 43.35 28 3.01
      vertex 39.8093 26.3582 3.01
      vertex 42.9808 26.144 3.01
    endloop
  endfacet
  facet normal 0 0 1
    outer loop
      vertex 42.9808 26.144 3.01
      vertex 38.0327 25.9527 3.01
      vertex 41.9295 24.5705 3.01
    endloop
  endfacet
  facet normal 0 0 1
    outer loop
      vertex 36.608 28.9112 3.01
      vertex 38.0327 30.0473 3.01
      vertex 40.356 32.4808 3.01
    endloop
  endfacet
  facet normal 0 0 1
    outer loop
      vertex 38.0327 25.9527 3.01
      vertex 36.608 27.0888 3.01
      vertex 34.0192 26.144 3.01
    endloop
  endfacet
  facet normal 0 -0 1
    outer loop
      vertex 40.6 28 3.01
      vertex 39.8093 26.3582 3.01
      vertex 43.35 28 3.01
    endloop
  endfacet
  facet normal -0 0 1
    outer loop
      vertex 36.608 27.0888 3.01
      vertex 36.608 28.9112 3.01
      vertex 34.0192 26.144 3.01
    endloop
  endfacet
endsolid OpenSCAD_Model
