solid OpenSCAD_Model
  facet normal -1 0 0
    outer loop
      vertex 0 0 0
      vertex 0 0 10
      vertex 0 42 0
    endloop
  endfacet
  facet normal -1 0 0
    outer loop
      vertex 0 42 0
      vertex 0 0 10
      vertex 0 37 10
    endloop
  endfacet
  facet normal -1 0 0
    outer loop
      vertex 0 42 0
      vertex 0 37 10
      vertex 0 37 36.8301
    endloop
  endfacet
  facet normal -1 0 0
    outer loop
      vertex 0 42 0
      vertex 0 37 36.8301
      vertex 0 42 36.8301
    endloop
  endfacet
  facet normal 0 -1 0
    outer loop
      vertex 0 0 10
      vertex 0 0 0
      vertex 45 0 0
    endloop
  endfacet
  facet normal 0 -1 0
    outer loop
      vertex 45 0 10
      vertex 0 0 10
      vertex 45 0 0
    endloop
  endfacet
  facet normal 0 0 -1
    outer loop
      vertex 37.4628 4.07655 0
      vertex 7.06832 27.7645 0
      vertex 37.4628 5.92345 0
    endloop
  endfacet
  facet normal 0 0 -1
    outer loop
      vertex 37.4628 30.4235 0
      vertex 0 42 0
      vertex 45 42 0
    endloop
  endfacet
  facet normal 0 0 -1
    outer loop
      vertex 0 0 0
      vertex 0 42 0
      vertex 2.46283 5.92345 0
    endloop
  endfacet
  facet normal 0 0 -1
    outer loop
      vertex 0 0 0
      vertex 2.46283 5.92345 0
      vertex 2.46283 4.07655 0
    endloop
  endfacet
  facet normal 0 0 -1
    outer loop
      vertex 0 0 0
      vertex 2.46283 4.07655 0
      vertex 3.65 2.66173 0
    endloop
  endfacet
  facet normal 0 0 -1
    outer loop
      vertex 0 0 0
      vertex 3.65 2.66173 0
      vertex 5.46885 2.34102 0
    endloop
  endfacet
  facet normal 0 0 -1
    outer loop
      vertex 0 0 0
      vertex 5.46885 2.34102 0
      vertex 45 0 0
    endloop
  endfacet
  facet normal 0 0 -1
    outer loop
      vertex 7.7 5 0
      vertex 45 0 0
      vertex 7.06832 3.26447 0
    endloop
  endfacet
  facet normal 0 0 -1
    outer loop
      vertex 7.06832 6.73553 0
      vertex 45 0 0
      vertex 7.7 5 0
    endloop
  endfacet
  facet normal 0 0 -1
    outer loop
      vertex 3.65 27.1617 0
      vertex 7.06832 6.73553 0
      vertex 2.46283 28.5765 0
    endloop
  endfacet
  facet normal 0 0 -1
    outer loop
      vertex 2.46283 28.5765 0
      vertex 0 42 0
      vertex 2.46283 30.4235 0
    endloop
  endfacet
  facet normal 0 0 -1
    outer loop
      vertex 3.65 7.33827 0
      vertex 0 42 0
      vertex 5.46885 7.65898 0
    endloop
  endfacet
  facet normal 0 0 -1
    outer loop
      vertex 2.46283 5.92345 0
      vertex 0 42 0
      vertex 3.65 7.33827 0
    endloop
  endfacet
  facet normal 0 0 -1
    outer loop
      vertex 5.46885 7.65898 0
      vertex 0 42 0
      vertex 2.46283 28.5765 0
    endloop
  endfacet
  facet normal 0 0 -1
    outer loop
      vertex 5.46885 7.65898 0
      vertex 2.46283 28.5765 0
      vertex 7.06832 6.73553 0
    endloop
  endfacet
  facet normal 0 0 -1
    outer loop
      vertex 42.0683 3.26447 0
      vertex 45 0 0
      vertex 40.4688 2.34102 0
    endloop
  endfacet
  facet normal 0 0 -1
    outer loop
      vertex 37.4628 5.92345 0
      vertex 7.7 29.5 0
      vertex 7.06832 31.2355 0
    endloop
  endfacet
  facet normal 0 0 -1
    outer loop
      vertex 5.46885 32.159 0
      vertex 0 42 0
      vertex 7.06832 31.2355 0
    endloop
  endfacet
  facet normal 0 0 -1
    outer loop
      vertex 3.65 31.8383 0
      vertex 0 42 0
      vertex 5.46885 32.159 0
    endloop
  endfacet
  facet normal 0 0 -1
    outer loop
      vertex 37.4628 4.07655 0
      vertex 3.65 27.1617 0
      vertex 5.46885 26.841 0
    endloop
  endfacet
  facet normal 0 0 -1
    outer loop
      vertex 37.4628 4.07655 0
      vertex 5.46885 26.841 0
      vertex 7.06832 27.7645 0
    endloop
  endfacet
  facet normal 0 0 -1
    outer loop
      vertex 37.4628 5.92345 0
      vertex 7.06832 31.2355 0
      vertex 0 42 0
    endloop
  endfacet
  facet normal 0 0 -1
    outer loop
      vertex 2.46283 30.4235 0
      vertex 0 42 0
      vertex 3.65 31.8383 0
    endloop
  endfacet
  facet normal 0 0 -1
    outer loop
      vertex 7.06832 27.7645 0
      vertex 7.7 29.5 0
      vertex 37.4628 5.92345 0
    endloop
  endfacet
  facet normal 0 0 -1
    outer loop
      vertex 7.06832 6.73553 0
      vertex 3.65 27.1617 0
      vertex 37.4628 4.07655 0
    endloop
  endfacet
  facet normal 0 0 -1
    outer loop
      vertex 7.06832 6.73553 0
      vertex 37.4628 4.07655 0
      vertex 38.65 2.66173 0
    endloop
  endfacet
  facet normal 0 0 -1
    outer loop
      vertex 7.06832 6.73553 0
      vertex 38.65 2.66173 0
      vertex 45 0 0
    endloop
  endfacet
  facet normal 0 0 -1
    outer loop
      vertex 38.65 2.66173 0
      vertex 40.4688 2.34102 0
      vertex 45 0 0
    endloop
  endfacet
  facet normal 0 0 -1
    outer loop
      vertex 45 0 0
      vertex 42.0683 3.26447 0
      vertex 42.7 5 0
    endloop
  endfacet
  facet normal 0 0 -1
    outer loop
      vertex 45 0 0
      vertex 42.7 5 0
      vertex 45 42 0
    endloop
  endfacet
  facet normal 0 0 -1
    outer loop
      vertex 40.4688 7.65898 0
      vertex 0 42 0
      vertex 42.0683 6.73553 0
    endloop
  endfacet
  facet normal 0 0 -1
    outer loop
      vertex 38.65 27.1617 0
      vertex 42.0683 6.73553 0
      vertex 37.4628 28.5765 0
    endloop
  endfacet
  facet normal 0 0 -1
    outer loop
      vertex 38.65 7.33827 0
      vertex 0 42 0
      vertex 40.4688 7.65898 0
    endloop
  endfacet
  facet normal 0 0 -1
    outer loop
      vertex 37.4628 28.5765 0
      vertex 0 42 0
      vertex 37.4628 30.4235 0
    endloop
  endfacet
  facet normal 0 0 -1
    outer loop
      vertex 38.65 31.8383 0
      vertex 37.4628 30.4235 0
      vertex 45 42 0
    endloop
  endfacet
  facet normal 0 0 -1
    outer loop
      vertex 42.0683 6.73553 0
      vertex 0 42 0
      vertex 37.4628 28.5765 0
    endloop
  endfacet
  facet normal 0 0 -1
    outer loop
      vertex 42.0683 31.2355 0
      vertex 45 42 0
      vertex 42.7 29.5 0
    endloop
  endfacet
  facet normal 0 0 -1
    outer loop
      vertex 42.0683 6.73553 0
      vertex 38.65 27.1617 0
      vertex 40.4688 26.841 0
    endloop
  endfacet
  facet normal 0 0 -1
    outer loop
      vertex 42.0683 6.73553 0
      vertex 40.4688 26.841 0
      vertex 42.0683 27.7645 0
    endloop
  endfacet
  facet normal 0 0 -1
    outer loop
      vertex 42.0683 6.73553 0
      vertex 42.0683 27.7645 0
      vertex 42.7 29.5 0
    endloop
  endfacet
  facet normal 0 0 -1
    outer loop
      vertex 42.0683 6.73553 0
      vertex 42.7 29.5 0
      vertex 45 42 0
    endloop
  endfacet
  facet normal 0 0 -1
    outer loop
      vertex 40.4688 32.159 0
      vertex 45 42 0
      vertex 42.0683 31.2355 0
    endloop
  endfacet
  facet normal 0 0 -1
    outer loop
      vertex 40.4688 32.159 0
      vertex 38.65 31.8383 0
      vertex 45 42 0
    endloop
  endfacet
  facet normal 0 0 -1
    outer loop
      vertex 7.06832 3.26447 0
      vertex 45 0 0
      vertex 5.46885 2.34102 0
    endloop
  endfacet
  facet normal 0 0 -1
    outer loop
      vertex 37.4628 5.92345 0
      vertex 0 42 0
      vertex 38.65 7.33827 0
    endloop
  endfacet
  facet normal 0 0 -1
    outer loop
      vertex 42.0683 6.73553 0
      vertex 45 42 0
      vertex 42.7 5 0
    endloop
  endfacet
  facet normal 0 1 -2.22045e-16
    outer loop
      vertex 0 42 0
      vertex 0 42 36.8301
      vertex 45 42 0
    endloop
  endfacet
  facet normal 0 1 -2.22045e-16
    outer loop
      vertex 11.55 42 30.5
      vertex 0 42 36.8301
      vertex 14.1506 42 45
    endloop
  endfacet
  facet normal 0 1 -2.22045e-16
    outer loop
      vertex 28.5 42 35.45
      vertex 14.1506 42 45
      vertex 29.8205 42 45
    endloop
  endfacet
  facet normal 0 1 -2.22045e-16
    outer loop
      vertex 45 42 0
      vertex 29.8205 42 45
      vertex 45 42 36.2361
    endloop
  endfacet
  facet normal 0 1 -2.22045e-16
    outer loop
      vertex 11.9268 42 28.6057
      vertex 0 42 36.8301
      vertex 11.55 42 30.5
    endloop
  endfacet
  facet normal 0 1 -2.22045e-16
    outer loop
      vertex 11.9268 42 32.3943
      vertex 11.55 42 30.5
      vertex 14.1506 42 45
    endloop
  endfacet
  facet normal 0 1 -2.22045e-16
    outer loop
      vertex 12.9998 42 26.9998
      vertex 0 42 36.8301
      vertex 11.9268 42 28.6057
    endloop
  endfacet
  facet normal 0 1 -2.22045e-16
    outer loop
      vertex 45 42 0
      vertex 0 42 36.8301
      vertex 12.9998 42 26.9998
    endloop
  endfacet
  facet normal 0 1 -2.22045e-16
    outer loop
      vertex 45 42 0
      vertex 12.9998 42 26.9998
      vertex 14.6057 42 25.9268
    endloop
  endfacet
  facet normal 0 1 -2.22045e-16
    outer loop
      vertex 28.5 42 25.55
      vertex 45 42 0
      vertex 16.5 42 25.55
    endloop
  endfacet
  facet normal 0 1 -2.22045e-16
    outer loop
      vertex 32.0002 42 34.0002
      vertex 29.8205 42 45
      vertex 33.0732 42 32.3943
    endloop
  endfacet
  facet normal 0 1 -2.22045e-16
    outer loop
      vertex 45 42 0
      vertex 28.5 42 25.55
      vertex 30.3943 42 25.9268
    endloop
  endfacet
  facet normal 0 1 -2.22045e-16
    outer loop
      vertex 45 42 0
      vertex 30.3943 42 25.9268
      vertex 32.0002 42 26.9998
    endloop
  endfacet
  facet normal 0 1 -2.22045e-16
    outer loop
      vertex 45 42 0
      vertex 32.0002 42 26.9998
      vertex 33.0732 42 28.6057
    endloop
  endfacet
  facet normal 0 1 -2.22045e-16
    outer loop
      vertex 45 42 0
      vertex 33.0732 42 28.6057
      vertex 33.45 42 30.5
    endloop
  endfacet
  facet normal 0 1 -2.22045e-16
    outer loop
      vertex 45 42 0
      vertex 33.45 42 30.5
      vertex 33.0732 42 32.3943
    endloop
  endfacet
  facet normal 0 1 -2.22045e-16
    outer loop
      vertex 45 42 0
      vertex 33.0732 42 32.3943
      vertex 29.8205 42 45
    endloop
  endfacet
  facet normal 0 1 -2.22045e-16
    outer loop
      vertex 30.3943 42 35.0732
      vertex 29.8205 42 45
      vertex 32.0002 42 34.0002
    endloop
  endfacet
  facet normal 0 1 -2.22045e-16
    outer loop
      vertex 28.5 42 35.45
      vertex 29.8205 42 45
      vertex 30.3943 42 35.0732
    endloop
  endfacet
  facet normal 0 1 -2.22045e-16
    outer loop
      vertex 16.5 42 35.45
      vertex 14.1506 42 45
      vertex 28.5 42 35.45
    endloop
  endfacet
  facet normal 0 1 -2.22045e-16
    outer loop
      vertex 16.5 42 35.45
      vertex 14.6057 42 35.0732
      vertex 14.1506 42 45
    endloop
  endfacet
  facet normal 0 1 -2.22045e-16
    outer loop
      vertex 14.6057 42 35.0732
      vertex 12.9998 42 34.0002
      vertex 14.1506 42 45
    endloop
  endfacet
  facet normal 0 1 -2.22045e-16
    outer loop
      vertex 12.9998 42 34.0002
      vertex 11.9268 42 32.3943
      vertex 14.1506 42 45
    endloop
  endfacet
  facet normal 0 1 -2.22045e-16
    outer loop
      vertex 16.5 42 25.55
      vertex 45 42 0
      vertex 14.6057 42 25.9268
    endloop
  endfacet
  facet normal -0.5 0 0.866025
    outer loop
      vertex 14.1506 37 45
      vertex 14.1506 42 45
      vertex 0 42 36.8301
    endloop
  endfacet
  facet normal -0.5 0 0.866025
    outer loop
      vertex 0 37 36.8301
      vertex 14.1506 37 45
      vertex 0 42 36.8301
    endloop
  endfacet
  facet normal 0 -1 2.22045e-16
    outer loop
      vertex 16.5 37 25.55
      vertex 0 37 10
      vertex 45 37 10
    endloop
  endfacet
  facet normal 0 -1 2.22045e-16
    outer loop
      vertex 29.8205 37 45
      vertex 0 37 36.8301
      vertex 45 37 36.2361
    endloop
  endfacet
  facet normal 0 -1 2.22045e-16
    outer loop
      vertex 14.1506 37 45
      vertex 0 37 36.8301
      vertex 29.8205 37 45
    endloop
  endfacet
  facet normal 0 -1 2.22045e-16
    outer loop
      vertex 0 37 36.8301
      vertex 0 37 10
      vertex 11.9268 37 28.6057
    endloop
  endfacet
  facet normal 0 -1 2.22045e-16
    outer loop
      vertex 11.9268 37 32.3943
      vertex 0 37 36.8301
      vertex 11.55 37 30.5
    endloop
  endfacet
  facet normal 0 -1 2.22045e-16
    outer loop
      vertex 33.0732 37 32.3943
      vertex 33.45 37 30.5
      vertex 45 37 10
    endloop
  endfacet
  facet normal 0 -1 2.22045e-16
    outer loop
      vertex 12.9998 37 34.0002
      vertex 0 37 36.8301
      vertex 11.9268 37 32.3943
    endloop
  endfacet
  facet normal 0 -1 2.22045e-16
    outer loop
      vertex 14.6057 37 35.0732
      vertex 0 37 36.8301
      vertex 12.9998 37 34.0002
    endloop
  endfacet
  facet normal 0 -1 2.22045e-16
    outer loop
      vertex 16.5 37 35.45
      vertex 0 37 36.8301
      vertex 14.6057 37 35.0732
    endloop
  endfacet
  facet normal 0 -1 2.22045e-16
    outer loop
      vertex 28.5 37 35.45
      vertex 30.3943 37 35.0732
      vertex 45 37 36.2361
    endloop
  endfacet
  facet normal 0 -1 2.22045e-16
    outer loop
      vertex 30.3943 37 35.0732
      vertex 32.0002 37 34.0002
      vertex 45 37 36.2361
    endloop
  endfacet
  facet normal 0 -1 2.22045e-16
    outer loop
      vertex 45 37 36.2361
      vertex 0 37 36.8301
      vertex 16.5 37 35.45
    endloop
  endfacet
  facet normal 0 -1 2.22045e-16
    outer loop
      vertex 28.5 37 25.55
      vertex 16.5 37 25.55
      vertex 45 37 10
    endloop
  endfacet
  facet normal 0 -1 2.22045e-16
    outer loop
      vertex 45 37 36.2361
      vertex 33.0732 37 32.3943
      vertex 45 37 10
    endloop
  endfacet
  facet normal 0 -1 2.22045e-16
    outer loop
      vertex 45 37 36.2361
      vertex 32.0002 37 34.0002
      vertex 33.0732 37 32.3943
    endloop
  endfacet
  facet normal 0 -1 2.22045e-16
    outer loop
      vertex 33.45 37 30.5
      vertex 33.0732 37 28.6057
      vertex 45 37 10
    endloop
  endfacet
  facet normal 0 -1 2.22045e-16
    outer loop
      vertex 33.0732 37 28.6057
      vertex 32.0002 37 26.9998
      vertex 45 37 10
    endloop
  endfacet
  facet normal 0 -1 2.22045e-16
    outer loop
      vertex 32.0002 37 26.9998
      vertex 30.3943 37 25.9268
      vertex 45 37 10
    endloop
  endfacet
  facet normal 0 -1 2.22045e-16
    outer loop
      vertex 30.3943 37 25.9268
      vertex 28.5 37 25.55
      vertex 45 37 10
    endloop
  endfacet
  facet normal 0 -1 2.22045e-16
    outer loop
      vertex 14.6057 37 25.9268
      vertex 0 37 10
      vertex 16.5 37 25.55
    endloop
  endfacet
  facet normal 0 -1 2.22045e-16
    outer loop
      vertex 12.9998 37 26.9998
      vertex 0 37 10
      vertex 14.6057 37 25.9268
    endloop
  endfacet
  facet normal 0 -1 2.22045e-16
    outer loop
      vertex 11.9268 37 28.6057
      vertex 0 37 10
      vertex 12.9998 37 26.9998
    endloop
  endfacet
  facet normal 0 -1 2.22045e-16
    outer loop
      vertex 11.9268 37 28.6057
      vertex 11.55 37 30.5
      vertex 0 37 36.8301
    endloop
  endfacet
  facet normal 0 -1 2.22045e-16
    outer loop
      vertex 16.5 37 35.45
      vertex 28.5 37 35.45
      vertex 45 37 36.2361
    endloop
  endfacet
  facet normal 0 0 1
    outer loop
      vertex 4.50349 0.276021 10
      vertex 0 0 10
      vertex 45 0 10
    endloop
  endfacet
  facet normal 0 0 1
    outer loop
      vertex 44.75 5 10
      vertex 44.3393 3.068 10
      vertex 45 0 10
    endloop
  endfacet
  facet normal 0 0 1
    outer loop
      vertex 0 37 10
      vertex 0 0 10
      vertex 0.353799 4.01242 10
    endloop
  endfacet
  facet normal 0 0 1
    outer loop
      vertex 0.353799 30.4876 10
      vertex 1.15717 32.292 10
      vertex 0 37 10
    endloop
  endfacet
  facet normal 0 0 1
    outer loop
      vertex 0 37 10
      vertex 0.353799 4.01242 10
      vertex 0.353799 5.98758 10
    endloop
  endfacet
  facet normal 0 0 1
    outer loop
      vertex 0 37 10
      vertex 0.353799 5.98758 10
      vertex 1.15717 7.79198 10
    endloop
  endfacet
  facet normal 0 0 1
    outer loop
      vertex 0.353799 28.5124 10
      vertex 1.15717 7.79198 10
      vertex 2.625 9.11362 10
    endloop
  endfacet
  facet normal 0 0 1
    outer loop
      vertex 41.4678 0.482482 10
      vertex 39.5035 0.276021 10
      vertex 45 0 10
    endloop
  endfacet
  facet normal 0 0 1
    outer loop
      vertex 1.15717 26.708 10
      vertex 2.625 9.11362 10
      vertex 4.50349 9.72398 10
    endloop
  endfacet
  facet normal 0 0 1
    outer loop
      vertex 37.625 0.886379 10
      vertex 36.1572 2.20802 10
      vertex 6.46783 9.51752 10
    endloop
  endfacet
  facet normal 0 0 1
    outer loop
      vertex 2.625 25.3864 10
      vertex 4.50349 9.72398 10
      vertex 6.46783 9.51752 10
    endloop
  endfacet
  facet normal 0 0 1
    outer loop
      vertex 35.3538 5.98758 10
      vertex 9.75 29.5 10
      vertex 9.33934 27.568 10
    endloop
  endfacet
  facet normal 0 0 1
    outer loop
      vertex 39.5035 0.276021 10
      vertex 8.17837 1.47006 10
      vertex 45 0 10
    endloop
  endfacet
  facet normal 0 0 1
    outer loop
      vertex 8.17837 1.47006 10
      vertex 6.46783 0.482482 10
      vertex 45 0 10
    endloop
  endfacet
  facet normal 0 0 1
    outer loop
      vertex 1.15717 26.708 10
      vertex 0.353799 28.5124 10
      vertex 2.625 9.11362 10
    endloop
  endfacet
  facet normal 0 0 1
    outer loop
      vertex 6.46783 0.482482 10
      vertex 4.50349 0.276021 10
      vertex 45 0 10
    endloop
  endfacet
  facet normal 0 0 1
    outer loop
      vertex 1.15717 2.20802 10
      vertex 0 0 10
      vertex 2.625 0.886379 10
    endloop
  endfacet
  facet normal 0 0 1
    outer loop
      vertex 0.353799 4.01242 10
      vertex 0 0 10
      vertex 1.15717 2.20802 10
    endloop
  endfacet
  facet normal 0 0 1
    outer loop
      vertex 0 37 10
      vertex 1.15717 7.79198 10
      vertex 0.353799 28.5124 10
    endloop
  endfacet
  facet normal 0 0 1
    outer loop
      vertex 0 37 10
      vertex 0.353799 28.5124 10
      vertex 0.353799 30.4876 10
    endloop
  endfacet
  facet normal 0 0 1
    outer loop
      vertex 4.50349 24.776 10
      vertex 2.625 25.3864 10
      vertex 6.46783 9.51752 10
    endloop
  endfacet
  facet normal 0 0 1
    outer loop
      vertex 36.1572 7.79198 10
      vertex 8.17837 33.0299 10
      vertex 9.33934 31.432 10
    endloop
  endfacet
  facet normal 0 0 1
    outer loop
      vertex 44.3393 3.068 10
      vertex 43.1784 1.47006 10
      vertex 45 0 10
    endloop
  endfacet
  facet normal 0 0 1
    outer loop
      vertex 0 37 10
      vertex 1.15717 32.292 10
      vertex 2.625 33.6136 10
    endloop
  endfacet
  facet normal 0 0 1
    outer loop
      vertex 36.1572 7.79198 10
      vertex 37.625 9.11362 10
      vertex 22.5 27.2721 10
    endloop
  endfacet
  facet normal 0 0 1
    outer loop
      vertex 45 37 10
      vertex 0 37 10
      vertex 4.50349 34.224 10
    endloop
  endfacet
  facet normal 0 0 1
    outer loop
      vertex 39.5035 34.224 10
      vertex 41.4678 34.0175 10
      vertex 45 37 10
    endloop
  endfacet
  facet normal 0 0 1
    outer loop
      vertex 45 37 10
      vertex 4.50349 34.224 10
      vertex 6.46783 34.0175 10
    endloop
  endfacet
  facet normal 0 0 1
    outer loop
      vertex 17.3891 34.5 10
      vertex 6.46783 34.0175 10
      vertex 8.17837 33.0299 10
    endloop
  endfacet
  facet normal 0 0 1
    outer loop
      vertex 6.46783 24.9825 10
      vertex 6.46783 9.51752 10
      vertex 8.17837 25.9701 10
    endloop
  endfacet
  facet normal 0 0 1
    outer loop
      vertex 4.50349 24.776 10
      vertex 6.46783 9.51752 10
      vertex 6.46783 24.9825 10
    endloop
  endfacet
  facet normal 0 0 1
    outer loop
      vertex 2.625 25.3864 10
      vertex 1.15717 26.708 10
      vertex 4.50349 9.72398 10
    endloop
  endfacet
  facet normal 0 0 1
    outer loop
      vertex 22.5 27.2721 10
      vertex 17.3891 34.5 10
      vertex 8.17837 33.0299 10
    endloop
  endfacet
  facet normal 0 0 1
    outer loop
      vertex 2.625 33.6136 10
      vertex 4.50349 34.224 10
      vertex 0 37 10
    endloop
  endfacet
  facet normal 0 0 1
    outer loop
      vertex 17.3891 34.5 10
      vertex 27.6109 34.5 10
      vertex 45 37 10
    endloop
  endfacet
  facet normal 0 0 1
    outer loop
      vertex 45 37 10
      vertex 6.46783 34.0175 10
      vertex 17.3891 34.5 10
    endloop
  endfacet
  facet normal 0 0 1
    outer loop
      vertex 45 37 10
      vertex 27.6109 34.5 10
      vertex 22.5 27.2721 10
    endloop
  endfacet
  facet normal 0 0 1
    outer loop
      vertex 8.17837 25.9701 10
      vertex 6.46783 9.51752 10
      vertex 35.3538 4.01242 10
    endloop
  endfacet
  facet normal 0 0 1
    outer loop
      vertex 8.17837 25.9701 10
      vertex 35.3538 4.01242 10
      vertex 35.3538 5.98758 10
    endloop
  endfacet
  facet normal 0 0 1
    outer loop
      vertex 36.1572 7.79198 10
      vertex 22.5 27.2721 10
      vertex 8.17837 33.0299 10
    endloop
  endfacet
  facet normal 0 0 1
    outer loop
      vertex 35.3538 28.5124 10
      vertex 22.5 27.2721 10
      vertex 37.625 9.11362 10
    endloop
  endfacet
  facet normal 0 0 1
    outer loop
      vertex 43.1784 25.9701 10
      vertex 39.5035 9.72398 10
      vertex 41.4678 9.51752 10
    endloop
  endfacet
  facet normal 0 0 1
    outer loop
      vertex 43.1784 25.9701 10
      vertex 37.625 9.11362 10
      vertex 39.5035 9.72398 10
    endloop
  endfacet
  facet normal 0 0 1
    outer loop
      vertex 44.75 29.5 10
      vertex 43.1784 8.52994 10
      vertex 44.3393 6.932 10
    endloop
  endfacet
  facet normal 0 0 1
    outer loop
      vertex 45 37 10
      vertex 44.75 5 10
      vertex 45 0 10
    endloop
  endfacet
  facet normal 0 0 1
    outer loop
      vertex 45 37 10
      vertex 44.3393 6.932 10
      vertex 44.75 5 10
    endloop
  endfacet
  facet normal 0 0 1
    outer loop
      vertex 9.33934 31.432 10
      vertex 9.75 29.5 10
      vertex 36.1572 7.79198 10
    endloop
  endfacet
  facet normal 0 0 1
    outer loop
      vertex 35.3538 5.98758 10
      vertex 9.33934 27.568 10
      vertex 8.17837 25.9701 10
    endloop
  endfacet
  facet normal 0 0 1
    outer loop
      vertex 39.5035 0.276021 10
      vertex 37.625 0.886379 10
      vertex 9.33934 3.068 10
    endloop
  endfacet
  facet normal 0 0 1
    outer loop
      vertex 35.3538 5.98758 10
      vertex 36.1572 7.79198 10
      vertex 9.75 29.5 10
    endloop
  endfacet
  facet normal 0 0 1
    outer loop
      vertex 9.33934 3.068 10
      vertex 8.17837 1.47006 10
      vertex 39.5035 0.276021 10
    endloop
  endfacet
  facet normal 0 0 1
    outer loop
      vertex 4.50349 0.276021 10
      vertex 2.625 0.886379 10
      vertex 0 0 10
    endloop
  endfacet
  facet normal 0 0 1
    outer loop
      vertex 43.1784 33.0299 10
      vertex 44.3393 31.432 10
      vertex 45 37 10
    endloop
  endfacet
  facet normal 0 0 1
    outer loop
      vertex 35.3538 4.01242 10
      vertex 6.46783 9.51752 10
      vertex 36.1572 2.20802 10
    endloop
  endfacet
  facet normal 0 0 1
    outer loop
      vertex 36.1572 26.708 10
      vertex 35.3538 28.5124 10
      vertex 37.625 9.11362 10
    endloop
  endfacet
  facet normal 0 0 1
    outer loop
      vertex 35.3538 30.4876 10
      vertex 22.5 27.2721 10
      vertex 35.3538 28.5124 10
    endloop
  endfacet
  facet normal 0 0 1
    outer loop
      vertex 36.1572 32.292 10
      vertex 22.5 27.2721 10
      vertex 35.3538 30.4876 10
    endloop
  endfacet
  facet normal 0 0 1
    outer loop
      vertex 41.4678 34.0175 10
      vertex 43.1784 33.0299 10
      vertex 45 37 10
    endloop
  endfacet
  facet normal 0 0 1
    outer loop
      vertex 37.625 33.6136 10
      vertex 22.5 27.2721 10
      vertex 36.1572 32.292 10
    endloop
  endfacet
  facet normal 0 0 1
    outer loop
      vertex 45 37 10
      vertex 22.5 27.2721 10
      vertex 37.625 33.6136 10
    endloop
  endfacet
  facet normal 0 0 1
    outer loop
      vertex 41.4678 24.9825 10
      vertex 39.5035 24.776 10
      vertex 37.625 9.11362 10
    endloop
  endfacet
  facet normal 0 0 1
    outer loop
      vertex 45 37 10
      vertex 37.625 33.6136 10
      vertex 39.5035 34.224 10
    endloop
  endfacet
  facet normal 0 0 1
    outer loop
      vertex 43.1784 25.9701 10
      vertex 41.4678 24.9825 10
      vertex 37.625 9.11362 10
    endloop
  endfacet
  facet normal 0 0 1
    outer loop
      vertex 44.75 29.5 10
      vertex 44.3393 27.568 10
      vertex 43.1784 8.52994 10
    endloop
  endfacet
  facet normal 0 0 1
    outer loop
      vertex 45 37 10
      vertex 44.75 29.5 10
      vertex 44.3393 6.932 10
    endloop
  endfacet
  facet normal 0 0 1
    outer loop
      vertex 44.3393 27.568 10
      vertex 41.4678 9.51752 10
      vertex 43.1784 8.52994 10
    endloop
  endfacet
  facet normal 0 0 1
    outer loop
      vertex 44.3393 27.568 10
      vertex 43.1784 25.9701 10
      vertex 41.4678 9.51752 10
    endloop
  endfacet
  facet normal 0 0 1
    outer loop
      vertex 44.3393 31.432 10
      vertex 44.75 29.5 10
      vertex 45 37 10
    endloop
  endfacet
  facet normal 0 0 1
    outer loop
      vertex 39.5035 24.776 10
      vertex 37.625 25.3864 10
      vertex 37.625 9.11362 10
    endloop
  endfacet
  facet normal 0 0 1
    outer loop
      vertex 37.625 25.3864 10
      vertex 36.1572 26.708 10
      vertex 37.625 9.11362 10
    endloop
  endfacet
  facet normal 0 0 1
    outer loop
      vertex 37.625 0.886379 10
      vertex 6.46783 9.51752 10
      vertex 8.17837 8.52994 10
    endloop
  endfacet
  facet normal 0 0 1
    outer loop
      vertex 37.625 0.886379 10
      vertex 8.17837 8.52994 10
      vertex 9.33934 6.932 10
    endloop
  endfacet
  facet normal 0 0 1
    outer loop
      vertex 37.625 0.886379 10
      vertex 9.33934 6.932 10
      vertex 9.75 5 10
    endloop
  endfacet
  facet normal 0 0 1
    outer loop
      vertex 9.75 5 10
      vertex 9.33934 3.068 10
      vertex 37.625 0.886379 10
    endloop
  endfacet
  facet normal 0 0 1
    outer loop
      vertex 43.1784 1.47006 10
      vertex 41.4678 0.482482 10
      vertex 45 0 10
    endloop
  endfacet
  facet normal 1 0 0
    outer loop
      vertex 45 0 10
      vertex 45 0 0
      vertex 45 42 0
    endloop
  endfacet
  facet normal 1 0 0
    outer loop
      vertex 45 37 10
      vertex 45 0 10
      vertex 45 42 0
    endloop
  endfacet
  facet normal 1 0 0
    outer loop
      vertex 45 42 36.2361
      vertex 45 37 10
      vertex 45 42 0
    endloop
  endfacet
  facet normal 1 0 0
    outer loop
      vertex 45 37 36.2361
      vertex 45 37 10
      vertex 45 42 36.2361
    endloop
  endfacet
  facet normal 1 0 0
    outer loop
      vertex 2.46283 5.92345 0
      vertex 2.46283 5.92345 3.01
      vertex 2.46283 4.07655 3.01
    endloop
  endfacet
  facet normal 1 0 0
    outer loop
      vertex 2.46283 4.07655 0
      vertex 2.46283 5.92345 0
      vertex 2.46283 4.07655 3.01
    endloop
  endfacet
  facet normal 0.766045 -0.642787 0
    outer loop
      vertex 3.65 7.33827 0
      vertex 3.65 7.33827 3.01
      vertex 2.46283 5.92345 3.01
    endloop
  endfacet
  facet normal 0.766045 -0.642787 0
    outer loop
      vertex 2.46283 5.92345 0
      vertex 3.65 7.33827 0
      vertex 2.46283 5.92345 3.01
    endloop
  endfacet
  facet normal 0.173648 -0.984808 0
    outer loop
      vertex 5.46885 7.65898 0
      vertex 5.46885 7.65898 3.01
      vertex 3.65 7.33827 3.01
    endloop
  endfacet
  facet normal 0.173648 -0.984808 0
    outer loop
      vertex 3.65 7.33827 0
      vertex 5.46885 7.65898 0
      vertex 3.65 7.33827 3.01
    endloop
  endfacet
  facet normal -0.5 -0.866026 0
    outer loop
      vertex 7.06832 6.73553 0
      vertex 7.06832 6.73553 3.01
      vertex 5.46885 7.65898 3.01
    endloop
  endfacet
  facet normal -0.5 -0.866026 0
    outer loop
      vertex 5.46885 7.65898 0
      vertex 7.06832 6.73553 0
      vertex 5.46885 7.65898 3.01
    endloop
  endfacet
  facet normal -0.939693 -0.34202 0
    outer loop
      vertex 7.7 5 3.01
      vertex 7.06832 6.73553 3.01
      vertex 7.7 5 0
    endloop
  endfacet
  facet normal -0.939693 -0.34202 0
    outer loop
      vertex 7.7 5 0
      vertex 7.06832 6.73553 3.01
      vertex 7.06832 6.73553 0
    endloop
  endfacet
  facet normal -0.939693 0.34202 0
    outer loop
      vertex 7.7 5 3.01
      vertex 7.7 5 0
      vertex 7.06832 3.26447 3.01
    endloop
  endfacet
  facet normal -0.939693 0.34202 0
    outer loop
      vertex 7.06832 3.26447 3.01
      vertex 7.7 5 0
      vertex 7.06832 3.26447 0
    endloop
  endfacet
  facet normal -0.5 0.866026 0
    outer loop
      vertex 7.06832 3.26447 3.01
      vertex 7.06832 3.26447 0
      vertex 5.46885 2.34102 3.01
    endloop
  endfacet
  facet normal -0.5 0.866026 0
    outer loop
      vertex 5.46885 2.34102 3.01
      vertex 7.06832 3.26447 0
      vertex 5.46885 2.34102 0
    endloop
  endfacet
  facet normal 0.173648 0.984808 0
    outer loop
      vertex 5.46885 2.34102 3.01
      vertex 5.46885 2.34102 0
      vertex 3.65 2.66173 3.01
    endloop
  endfacet
  facet normal 0.173648 0.984808 0
    outer loop
      vertex 3.65 2.66173 3.01
      vertex 5.46885 2.34102 0
      vertex 3.65 2.66173 0
    endloop
  endfacet
  facet normal 0.766045 0.642787 0
    outer loop
      vertex 2.46283 4.07655 3.01
      vertex 3.65 2.66173 3.01
      vertex 3.65 2.66173 0
    endloop
  endfacet
  facet normal 0.766045 0.642787 0
    outer loop
      vertex 2.46283 4.07655 0
      vertex 2.46283 4.07655 3.01
      vertex 3.65 2.66173 0
    endloop
  endfacet
  facet normal 0.766045 -0.642787 0
    outer loop
      vertex 3.65 31.8383 0
      vertex 3.65 31.8383 3.01
      vertex 2.46283 30.4235 3.01
    endloop
  endfacet
  facet normal 0.766045 -0.642787 0
    outer loop
      vertex 2.46283 30.4235 0
      vertex 3.65 31.8383 0
      vertex 2.46283 30.4235 3.01
    endloop
  endfacet
  facet normal 1 0 0
    outer loop
      vertex 2.46283 30.4235 0
      vertex 2.46283 30.4235 3.01
      vertex 2.46283 28.5765 3.01
    endloop
  endfacet
  facet normal 1 0 0
    outer loop
      vertex 2.46283 28.5765 0
      vertex 2.46283 30.4235 0
      vertex 2.46283 28.5765 3.01
    endloop
  endfacet
  facet normal 0.173648 -0.984808 0
    outer loop
      vertex 5.46885 32.159 0
      vertex 5.46885 32.159 3.01
      vertex 3.65 31.8383 3.01
    endloop
  endfacet
  facet normal 0.173648 -0.984808 0
    outer loop
      vertex 3.65 31.8383 0
      vertex 5.46885 32.159 0
      vertex 3.65 31.8383 3.01
    endloop
  endfacet
  facet normal -0.5 -0.866026 0
    outer loop
      vertex 7.06832 31.2355 0
      vertex 7.06832 31.2355 3.01
      vertex 5.46885 32.159 3.01
    endloop
  endfacet
  facet normal -0.5 -0.866026 0
    outer loop
      vertex 5.46885 32.159 0
      vertex 7.06832 31.2355 0
      vertex 5.46885 32.159 3.01
    endloop
  endfacet
  facet normal -0.939693 -0.34202 0
    outer loop
      vertex 7.7 29.5 3.01
      vertex 7.06832 31.2355 3.01
      vertex 7.7 29.5 0
    endloop
  endfacet
  facet normal -0.939693 -0.34202 0
    outer loop
      vertex 7.7 29.5 0
      vertex 7.06832 31.2355 3.01
      vertex 7.06832 31.2355 0
    endloop
  endfacet
  facet normal -0.939693 0.34202 0
    outer loop
      vertex 7.7 29.5 3.01
      vertex 7.7 29.5 0
      vertex 7.06832 27.7645 3.01
    endloop
  endfacet
  facet normal -0.939693 0.34202 0
    outer loop
      vertex 7.06832 27.7645 3.01
      vertex 7.7 29.5 0
      vertex 7.06832 27.7645 0
    endloop
  endfacet
  facet normal -0.5 0.866026 0
    outer loop
      vertex 7.06832 27.7645 3.01
      vertex 7.06832 27.7645 0
      vertex 5.46885 26.841 3.01
    endloop
  endfacet
  facet normal -0.5 0.866026 0
    outer loop
      vertex 5.46885 26.841 3.01
      vertex 7.06832 27.7645 0
      vertex 5.46885 26.841 0
    endloop
  endfacet
  facet normal 0.173648 0.984808 0
    outer loop
      vertex 5.46885 26.841 3.01
      vertex 5.46885 26.841 0
      vertex 3.65 27.1617 3.01
    endloop
  endfacet
  facet normal 0.173648 0.984808 0
    outer loop
      vertex 3.65 27.1617 3.01
      vertex 5.46885 26.841 0
      vertex 3.65 27.1617 0
    endloop
  endfacet
  facet normal 0.766045 0.642787 0
    outer loop
      vertex 2.46283 28.5765 3.01
      vertex 3.65 27.1617 3.01
      vertex 3.65 27.1617 0
    endloop
  endfacet
  facet normal 0.766045 0.642787 0
    outer loop
      vertex 2.46283 28.5765 0
      vertex 2.46283 28.5765 3.01
      vertex 3.65 27.1617 0
    endloop
  endfacet
  facet normal 0.766045 -0.642787 0
    outer loop
      vertex 38.65 7.33827 0
      vertex 38.65 7.33827 3.01
      vertex 37.4628 5.92345 3.01
    endloop
  endfacet
  facet normal 0.766045 -0.642787 0
    outer loop
      vertex 37.4628 5.92345 0
      vertex 38.65 7.33827 0
      vertex 37.4628 5.92345 3.01
    endloop
  endfacet
  facet normal 1 0 0
    outer loop
      vertex 37.4628 5.92345 0
      vertex 37.4628 5.92345 3.01
      vertex 37.4628 4.07655 3.01
    endloop
  endfacet
  facet normal 1 0 0
    outer loop
      vertex 37.4628 4.07655 0
      vertex 37.4628 5.92345 0
      vertex 37.4628 4.07655 3.01
    endloop
  endfacet
  facet normal 0.173648 -0.984808 0
    outer loop
      vertex 40.4688 7.65898 0
      vertex 40.4688 7.65898 3.01
      vertex 38.65 7.33827 3.01
    endloop
  endfacet
  facet normal 0.173648 -0.984808 0
    outer loop
      vertex 38.65 7.33827 0
      vertex 40.4688 7.65898 0
      vertex 38.65 7.33827 3.01
    endloop
  endfacet
  facet normal -0.5 -0.866026 0
    outer loop
      vertex 42.0683 6.73553 0
      vertex 42.0683 6.73553 3.01
      vertex 40.4688 7.65898 3.01
    endloop
  endfacet
  facet normal -0.5 -0.866026 0
    outer loop
      vertex 40.4688 7.65898 0
      vertex 42.0683 6.73553 0
      vertex 40.4688 7.65898 3.01
    endloop
  endfacet
  facet normal -0.939693 -0.34202 0
    outer loop
      vertex 42.7 5 3.01
      vertex 42.0683 6.73553 3.01
      vertex 42.7 5 0
    endloop
  endfacet
  facet normal -0.939693 -0.34202 0
    outer loop
      vertex 42.7 5 0
      vertex 42.0683 6.73553 3.01
      vertex 42.0683 6.73553 0
    endloop
  endfacet
  facet normal -0.939693 0.34202 0
    outer loop
      vertex 42.7 5 3.01
      vertex 42.7 5 0
      vertex 42.0683 3.26447 3.01
    endloop
  endfacet
  facet normal -0.939693 0.34202 0
    outer loop
      vertex 42.0683 3.26447 3.01
      vertex 42.7 5 0
      vertex 42.0683 3.26447 0
    endloop
  endfacet
  facet normal -0.5 0.866026 0
    outer loop
      vertex 42.0683 3.26447 3.01
      vertex 42.0683 3.26447 0
      vertex 40.4688 2.34102 3.01
    endloop
  endfacet
  facet normal -0.5 0.866026 0
    outer loop
      vertex 40.4688 2.34102 3.01
      vertex 42.0683 3.26447 0
      vertex 40.4688 2.34102 0
    endloop
  endfacet
  facet normal 0.173648 0.984808 0
    outer loop
      vertex 40.4688 2.34102 3.01
      vertex 40.4688 2.34102 0
      vertex 38.65 2.66173 3.01
    endloop
  endfacet
  facet normal 0.173648 0.984808 0
    outer loop
      vertex 38.65 2.66173 3.01
      vertex 40.4688 2.34102 0
      vertex 38.65 2.66173 0
    endloop
  endfacet
  facet normal 0.766045 0.642787 0
    outer loop
      vertex 37.4628 4.07655 3.01
      vertex 38.65 2.66173 3.01
      vertex 38.65 2.66173 0
    endloop
  endfacet
  facet normal 0.766045 0.642787 0
    outer loop
      vertex 37.4628 4.07655 0
      vertex 37.4628 4.07655 3.01
      vertex 38.65 2.66173 0
    endloop
  endfacet
  facet normal 0.766045 -0.642787 0
    outer loop
      vertex 38.65 31.8383 0
      vertex 38.65 31.8383 3.01
      vertex 37.4628 30.4235 3.01
    endloop
  endfacet
  facet normal 0.766045 -0.642787 0
    outer loop
      vertex 37.4628 30.4235 0
      vertex 38.65 31.8383 0
      vertex 37.4628 30.4235 3.01
    endloop
  endfacet
  facet normal 1 0 0
    outer loop
      vertex 37.4628 30.4235 0
      vertex 37.4628 30.4235 3.01
      vertex 37.4628 28.5765 3.01
    endloop
  endfacet
  facet normal 1 0 0
    outer loop
      vertex 37.4628 28.5765 0
      vertex 37.4628 30.4235 0
      vertex 37.4628 28.5765 3.01
    endloop
  endfacet
  facet normal 0.173648 -0.984808 0
    outer loop
      vertex 40.4688 32.159 0
      vertex 40.4688 32.159 3.01
      vertex 38.65 31.8383 3.01
    endloop
  endfacet
  facet normal 0.173648 -0.984808 0
    outer loop
      vertex 38.65 31.8383 0
      vertex 40.4688 32.159 0
      vertex 38.65 31.8383 3.01
    endloop
  endfacet
  facet normal -0.5 -0.866026 0
    outer loop
      vertex 42.0683 31.2355 0
      vertex 42.0683 31.2355 3.01
      vertex 40.4688 32.159 3.01
    endloop
  endfacet
  facet normal -0.5 -0.866026 0
    outer loop
      vertex 40.4688 32.159 0
      vertex 42.0683 31.2355 0
      vertex 40.4688 32.159 3.01
    endloop
  endfacet
  facet normal -0.939693 -0.34202 0
    outer loop
      vertex 42.7 29.5 3.01
      vertex 42.0683 31.2355 3.01
      vertex 42.7 29.5 0
    endloop
  endfacet
  facet normal -0.939693 -0.34202 0
    outer loop
      vertex 42.7 29.5 0
      vertex 42.0683 31.2355 3.01
      vertex 42.0683 31.2355 0
    endloop
  endfacet
  facet normal -0.939693 0.34202 0
    outer loop
      vertex 42.7 29.5 3.01
      vertex 42.7 29.5 0
      vertex 42.0683 27.7645 3.01
    endloop
  endfacet
  facet normal -0.939693 0.34202 0
    outer loop
      vertex 42.0683 27.7645 3.01
      vertex 42.7 29.5 0
      vertex 42.0683 27.7645 0
    endloop
  endfacet
  facet normal -0.5 0.866026 0
    outer loop
      vertex 42.0683 27.7645 3.01
      vertex 42.0683 27.7645 0
      vertex 40.4688 26.841 3.01
    endloop
  endfacet
  facet normal -0.5 0.866026 0
    outer loop
      vertex 40.4688 26.841 3.01
      vertex 42.0683 27.7645 0
      vertex 40.4688 26.841 0
    endloop
  endfacet
  facet normal 0.173648 0.984808 0
    outer loop
      vertex 40.4688 26.841 3.01
      vertex 40.4688 26.841 0
      vertex 38.65 27.1617 3.01
    endloop
  endfacet
  facet normal 0.173648 0.984808 0
    outer loop
      vertex 38.65 27.1617 3.01
      vertex 40.4688 26.841 0
      vertex 38.65 27.1617 0
    endloop
  endfacet
  facet normal 0.766045 0.642787 0
    outer loop
      vertex 37.4628 28.5765 3.01
      vertex 38.65 27.1617 3.01
      vertex 38.65 27.1617 0
    endloop
  endfacet
  facet normal 0.766045 0.642787 0
    outer loop
      vertex 37.4628 28.5765 0
      vertex 37.4628 28.5765 3.01
      vertex 38.65 27.1617 0
    endloop
  endfacet
  facet normal 0.5 0 0.866025
    outer loop
      vertex 45 37 36.2361
      vertex 45 42 36.2361
      vertex 29.8205 42 45
    endloop
  endfacet
  facet normal 0.5 0 0.866025
    outer loop
      vertex 29.8205 37 45
      vertex 45 37 36.2361
      vertex 29.8205 42 45
    endloop
  endfacet
  facet normal 0 2.22045e-16 1
    outer loop
      vertex 29.8205 42 45
      vertex 14.1506 42 45
      vertex 14.1506 37 45
    endloop
  endfacet
  facet normal 0 2.22045e-16 1
    outer loop
      vertex 29.8205 37 45
      vertex 29.8205 42 45
      vertex 14.1506 37 45
    endloop
  endfacet
  facet normal 0.980785 -4.33187e-17 -0.19509
    outer loop
      vertex 11.55 42 30.5
      vertex 11.9268 42 32.3943
      vertex 11.9268 37 32.3943
    endloop
  endfacet
  facet normal 0.980785 -4.33187e-17 -0.19509
    outer loop
      vertex 11.55 37 30.5
      vertex 11.55 42 30.5
      vertex 11.9268 37 32.3943
    endloop
  endfacet
  facet normal 0.980785 4.33187e-17 0.19509
    outer loop
      vertex 11.9268 37 28.6057
      vertex 11.9268 42 28.6057
      vertex 11.55 42 30.5
    endloop
  endfacet
  facet normal 0.980785 4.33187e-17 0.19509
    outer loop
      vertex 11.55 37 30.5
      vertex 11.9268 37 28.6057
      vertex 11.55 42 30.5
    endloop
  endfacet
  facet normal 0.83147 -1.23361e-16 -0.55557
    outer loop
      vertex 11.9268 42 32.3943
      vertex 12.9998 42 34.0002
      vertex 12.9998 37 34.0002
    endloop
  endfacet
  facet normal 0.83147 -1.23361e-16 -0.55557
    outer loop
      vertex 11.9268 37 32.3943
      vertex 11.9268 42 32.3943
      vertex 12.9998 37 34.0002
    endloop
  endfacet
  facet normal 0.55557 -1.84623e-16 -0.83147
    outer loop
      vertex 14.6057 42 35.0732
      vertex 14.6057 37 35.0732
      vertex 12.9998 42 34.0002
    endloop
  endfacet
  facet normal 0.55557 -1.84623e-16 -0.83147
    outer loop
      vertex 12.9998 42 34.0002
      vertex 14.6057 37 35.0732
      vertex 12.9998 37 34.0002
    endloop
  endfacet
  facet normal 0.19509 -2.17778e-16 -0.980785
    outer loop
      vertex 16.5 42 35.45
      vertex 16.5 37 35.45
      vertex 14.6057 42 35.0732
    endloop
  endfacet
  facet normal 0.19509 -2.17778e-16 -0.980785
    outer loop
      vertex 14.6057 42 35.0732
      vertex 16.5 37 35.45
      vertex 14.6057 37 35.0732
    endloop
  endfacet
  facet normal 0 -2.22045e-16 -1
    outer loop
      vertex 28.5 42 35.45
      vertex 28.5 37 35.45
      vertex 16.5 42 35.45
    endloop
  endfacet
  facet normal 0 -2.22045e-16 -1
    outer loop
      vertex 16.5 42 35.45
      vertex 28.5 37 35.45
      vertex 16.5 37 35.45
    endloop
  endfacet
  facet normal -0.19509 -2.17778e-16 -0.980785
    outer loop
      vertex 30.3943 42 35.0732
      vertex 30.3943 37 35.0732
      vertex 28.5 42 35.45
    endloop
  endfacet
  facet normal -0.19509 -2.17778e-16 -0.980785
    outer loop
      vertex 28.5 42 35.45
      vertex 30.3943 37 35.0732
      vertex 28.5 37 35.45
    endloop
  endfacet
  facet normal -0.55557 -1.84623e-16 -0.83147
    outer loop
      vertex 32.0002 42 34.0002
      vertex 32.0002 37 34.0002
      vertex 30.3943 42 35.0732
    endloop
  endfacet
  facet normal -0.55557 -1.84623e-16 -0.83147
    outer loop
      vertex 30.3943 42 35.0732
      vertex 32.0002 37 34.0002
      vertex 30.3943 37 35.0732
    endloop
  endfacet
  facet normal -0.83147 -1.23361e-16 -0.55557
    outer loop
      vertex 33.0732 42 32.3943
      vertex 33.0732 37 32.3943
      vertex 32.0002 42 34.0002
    endloop
  endfacet
  facet normal -0.83147 -1.23361e-16 -0.55557
    outer loop
      vertex 32.0002 42 34.0002
      vertex 33.0732 37 32.3943
      vertex 32.0002 37 34.0002
    endloop
  endfacet
  facet normal -0.980785 -4.33187e-17 -0.19509
    outer loop
      vertex 33.45 42 30.5
      vertex 33.45 37 30.5
      vertex 33.0732 42 32.3943
    endloop
  endfacet
  facet normal -0.980785 -4.33187e-17 -0.19509
    outer loop
      vertex 33.0732 42 32.3943
      vertex 33.45 37 30.5
      vertex 33.0732 37 32.3943
    endloop
  endfacet
  facet normal -0.980785 4.33187e-17 0.19509
    outer loop
      vertex 33.45 42 30.5
      vertex 33.0732 42 28.6057
      vertex 33.45 37 30.5
    endloop
  endfacet
  facet normal -0.980785 4.33187e-17 0.19509
    outer loop
      vertex 33.45 37 30.5
      vertex 33.0732 42 28.6057
      vertex 33.0732 37 28.6057
    endloop
  endfacet
  facet normal -0.83147 1.23361e-16 0.55557
    outer loop
      vertex 33.0732 42 28.6057
      vertex 32.0002 42 26.9998
      vertex 33.0732 37 28.6057
    endloop
  endfacet
  facet normal -0.83147 1.23361e-16 0.55557
    outer loop
      vertex 33.0732 37 28.6057
      vertex 32.0002 42 26.9998
      vertex 32.0002 37 26.9998
    endloop
  endfacet
  facet normal -0.55557 1.84623e-16 0.83147
    outer loop
      vertex 32.0002 37 26.9998
      vertex 32.0002 42 26.9998
      vertex 30.3943 42 25.9268
    endloop
  endfacet
  facet normal -0.55557 1.84623e-16 0.83147
    outer loop
      vertex 30.3943 37 25.9268
      vertex 32.0002 37 26.9998
      vertex 30.3943 42 25.9268
    endloop
  endfacet
  facet normal -0.19509 2.17778e-16 0.980785
    outer loop
      vertex 30.3943 37 25.9268
      vertex 30.3943 42 25.9268
      vertex 28.5 42 25.55
    endloop
  endfacet
  facet normal -0.19509 2.17778e-16 0.980785
    outer loop
      vertex 28.5 37 25.55
      vertex 30.3943 37 25.9268
      vertex 28.5 42 25.55
    endloop
  endfacet
  facet normal 0 2.22045e-16 1
    outer loop
      vertex 28.5 37 25.55
      vertex 28.5 42 25.55
      vertex 16.5 42 25.55
    endloop
  endfacet
  facet normal 0 2.22045e-16 1
    outer loop
      vertex 16.5 37 25.55
      vertex 28.5 37 25.55
      vertex 16.5 42 25.55
    endloop
  endfacet
  facet normal 0.19509 2.17778e-16 0.980785
    outer loop
      vertex 16.5 37 25.55
      vertex 16.5 42 25.55
      vertex 14.6057 42 25.9268
    endloop
  endfacet
  facet normal 0.19509 2.17778e-16 0.980785
    outer loop
      vertex 14.6057 37 25.9268
      vertex 16.5 37 25.55
      vertex 14.6057 42 25.9268
    endloop
  endfacet
  facet normal 0.55557 1.84623e-16 0.83147
    outer loop
      vertex 14.6057 37 25.9268
      vertex 14.6057 42 25.9268
      vertex 12.9998 42 26.9998
    endloop
  endfacet
  facet normal 0.55557 1.84623e-16 0.83147
    outer loop
      vertex 12.9998 37 26.9998
      vertex 14.6057 37 25.9268
      vertex 12.9998 42 26.9998
    endloop
  endfacet
  facet normal 0.83147 1.23361e-16 0.55557
    outer loop
      vertex 12.9998 37 26.9998
      vertex 12.9998 42 26.9998
      vertex 11.9268 42 28.6057
    endloop
  endfacet
  facet normal 0.83147 1.23361e-16 0.55557
    outer loop
      vertex 11.9268 37 28.6057
      vertex 12.9998 37 26.9998
      vertex 11.9268 42 28.6057
    endloop
  endfacet
  facet normal 1 0 0
    outer loop
      vertex 0.353799 5.98758 3.01
      vertex 0.353799 5.98758 10
      vertex 0.353799 4.01242 10
    endloop
  endfacet
  facet normal 1 0 0
    outer loop
      vertex 0.353799 4.01242 3.01
      vertex 0.353799 5.98758 3.01
      vertex 0.353799 4.01242 10
    endloop
  endfacet
  facet normal 0.913545 0.406737 0
    outer loop
      vertex 0.353799 4.01242 10
      vertex 1.15717 2.20802 10
      vertex 1.15717 2.20802 3.01
    endloop
  endfacet
  facet normal 0.913545 0.406737 0
    outer loop
      vertex 0.353799 4.01242 3.01
      vertex 0.353799 4.01242 10
      vertex 1.15717 2.20802 3.01
    endloop
  endfacet
  facet normal 0.669131 0.743145 0
    outer loop
      vertex 2.625 0.886379 10
      vertex 2.625 0.886379 3.01
      vertex 1.15717 2.20802 10
    endloop
  endfacet
  facet normal 0.669131 0.743145 0
    outer loop
      vertex 1.15717 2.20802 10
      vertex 2.625 0.886379 3.01
      vertex 1.15717 2.20802 3.01
    endloop
  endfacet
  facet normal 0.309017 0.951057 0
    outer loop
      vertex 4.50349 0.276021 10
      vertex 4.50349 0.276021 3.01
      vertex 2.625 0.886379 10
    endloop
  endfacet
  facet normal 0.309017 0.951057 0
    outer loop
      vertex 2.625 0.886379 10
      vertex 4.50349 0.276021 3.01
      vertex 2.625 0.886379 3.01
    endloop
  endfacet
  facet normal -0.104529 0.994522 0
    outer loop
      vertex 6.46783 0.482482 10
      vertex 6.46783 0.482482 3.01
      vertex 4.50349 0.276021 10
    endloop
  endfacet
  facet normal -0.104529 0.994522 0
    outer loop
      vertex 4.50349 0.276021 10
      vertex 6.46783 0.482482 3.01
      vertex 4.50349 0.276021 3.01
    endloop
  endfacet
  facet normal -0.5 0.866025 0
    outer loop
      vertex 8.17837 1.47006 10
      vertex 8.17837 1.47006 3.01
      vertex 6.46783 0.482482 10
    endloop
  endfacet
  facet normal -0.5 0.866025 0
    outer loop
      vertex 6.46783 0.482482 10
      vertex 8.17837 1.47006 3.01
      vertex 6.46783 0.482482 3.01
    endloop
  endfacet
  facet normal -0.809017 0.587785 0
    outer loop
      vertex 9.33934 3.068 10
      vertex 9.33934 3.068 3.01
      vertex 8.17837 1.47006 10
    endloop
  endfacet
  facet normal -0.809017 0.587785 0
    outer loop
      vertex 8.17837 1.47006 10
      vertex 9.33934 3.068 3.01
      vertex 8.17837 1.47006 3.01
    endloop
  endfacet
  facet normal -0.978148 0.207912 0
    outer loop
      vertex 9.75 5 10
      vertex 9.75 5 3.01
      vertex 9.33934 3.068 10
    endloop
  endfacet
  facet normal -0.978148 0.207912 0
    outer loop
      vertex 9.33934 3.068 10
      vertex 9.75 5 3.01
      vertex 9.33934 3.068 3.01
    endloop
  endfacet
  facet normal -0.978148 -0.207912 0
    outer loop
      vertex 9.75 5 10
      vertex 9.33934 6.932 10
      vertex 9.75 5 3.01
    endloop
  endfacet
  facet normal -0.978148 -0.207912 0
    outer loop
      vertex 9.75 5 3.01
      vertex 9.33934 6.932 10
      vertex 9.33934 6.932 3.01
    endloop
  endfacet
  facet normal -0.809017 -0.587785 0
    outer loop
      vertex 9.33934 6.932 10
      vertex 8.17837 8.52994 10
      vertex 9.33934 6.932 3.01
    endloop
  endfacet
  facet normal -0.809017 -0.587785 0
    outer loop
      vertex 9.33934 6.932 3.01
      vertex 8.17837 8.52994 10
      vertex 8.17837 8.52994 3.01
    endloop
  endfacet
  facet normal -0.5 -0.866025 0
    outer loop
      vertex 8.17837 8.52994 3.01
      vertex 8.17837 8.52994 10
      vertex 6.46783 9.51752 10
    endloop
  endfacet
  facet normal -0.5 -0.866025 0
    outer loop
      vertex 6.46783 9.51752 3.01
      vertex 8.17837 8.52994 3.01
      vertex 6.46783 9.51752 10
    endloop
  endfacet
  facet normal -0.104529 -0.994522 0
    outer loop
      vertex 6.46783 9.51752 3.01
      vertex 6.46783 9.51752 10
      vertex 4.50349 9.72398 10
    endloop
  endfacet
  facet normal -0.104529 -0.994522 0
    outer loop
      vertex 4.50349 9.72398 3.01
      vertex 6.46783 9.51752 3.01
      vertex 4.50349 9.72398 10
    endloop
  endfacet
  facet normal 0.309017 -0.951057 0
    outer loop
      vertex 4.50349 9.72398 3.01
      vertex 4.50349 9.72398 10
      vertex 2.625 9.11362 10
    endloop
  endfacet
  facet normal 0.309017 -0.951057 0
    outer loop
      vertex 2.625 9.11362 3.01
      vertex 4.50349 9.72398 3.01
      vertex 2.625 9.11362 10
    endloop
  endfacet
  facet normal 0.669131 -0.743145 0
    outer loop
      vertex 2.625 9.11362 3.01
      vertex 2.625 9.11362 10
      vertex 1.15717 7.79198 10
    endloop
  endfacet
  facet normal 0.669131 -0.743145 0
    outer loop
      vertex 1.15717 7.79198 3.01
      vertex 2.625 9.11362 3.01
      vertex 1.15717 7.79198 10
    endloop
  endfacet
  facet normal 0.913545 -0.406737 0
    outer loop
      vertex 1.15717 7.79198 3.01
      vertex 1.15717 7.79198 10
      vertex 0.353799 5.98758 10
    endloop
  endfacet
  facet normal 0.913545 -0.406737 0
    outer loop
      vertex 0.353799 5.98758 3.01
      vertex 1.15717 7.79198 3.01
      vertex 0.353799 5.98758 10
    endloop
  endfacet
  facet normal 1 0 0
    outer loop
      vertex 0.353799 30.4876 3.01
      vertex 0.353799 30.4876 10
      vertex 0.353799 28.5124 10
    endloop
  endfacet
  facet normal 1 0 0
    outer loop
      vertex 0.353799 28.5124 3.01
      vertex 0.353799 30.4876 3.01
      vertex 0.353799 28.5124 10
    endloop
  endfacet
  facet normal 0.913545 0.406737 0
    outer loop
      vertex 0.353799 28.5124 10
      vertex 1.15717 26.708 10
      vertex 1.15717 26.708 3.01
    endloop
  endfacet
  facet normal 0.913545 0.406737 0
    outer loop
      vertex 0.353799 28.5124 3.01
      vertex 0.353799 28.5124 10
      vertex 1.15717 26.708 3.01
    endloop
  endfacet
  facet normal 0.669131 0.743145 0
    outer loop
      vertex 2.625 25.3864 10
      vertex 2.625 25.3864 3.01
      vertex 1.15717 26.708 10
    endloop
  endfacet
  facet normal 0.669131 0.743145 0
    outer loop
      vertex 1.15717 26.708 10
      vertex 2.625 25.3864 3.01
      vertex 1.15717 26.708 3.01
    endloop
  endfacet
  facet normal 0.309017 0.951057 0
    outer loop
      vertex 4.50349 24.776 10
      vertex 4.50349 24.776 3.01
      vertex 2.625 25.3864 10
    endloop
  endfacet
  facet normal 0.309017 0.951057 0
    outer loop
      vertex 2.625 25.3864 10
      vertex 4.50349 24.776 3.01
      vertex 2.625 25.3864 3.01
    endloop
  endfacet
  facet normal -0.104529 0.994522 0
    outer loop
      vertex 6.46783 24.9825 10
      vertex 6.46783 24.9825 3.01
      vertex 4.50349 24.776 10
    endloop
  endfacet
  facet normal -0.104529 0.994522 0
    outer loop
      vertex 4.50349 24.776 10
      vertex 6.46783 24.9825 3.01
      vertex 4.50349 24.776 3.01
    endloop
  endfacet
  facet normal -0.5 0.866025 0
    outer loop
      vertex 8.17837 25.9701 10
      vertex 8.17837 25.9701 3.01
      vertex 6.46783 24.9825 10
    endloop
  endfacet
  facet normal -0.5 0.866025 0
    outer loop
      vertex 6.46783 24.9825 10
      vertex 8.17837 25.9701 3.01
      vertex 6.46783 24.9825 3.01
    endloop
  endfacet
  facet normal -0.809017 0.587785 0
    outer loop
      vertex 9.33934 27.568 10
      vertex 9.33934 27.568 3.01
      vertex 8.17837 25.9701 10
    endloop
  endfacet
  facet normal -0.809017 0.587785 0
    outer loop
      vertex 8.17837 25.9701 10
      vertex 9.33934 27.568 3.01
      vertex 8.17837 25.9701 3.01
    endloop
  endfacet
  facet normal -0.978148 0.207912 0
    outer loop
      vertex 9.75 29.5 10
      vertex 9.75 29.5 3.01
      vertex 9.33934 27.568 10
    endloop
  endfacet
  facet normal -0.978148 0.207912 0
    outer loop
      vertex 9.33934 27.568 10
      vertex 9.75 29.5 3.01
      vertex 9.33934 27.568 3.01
    endloop
  endfacet
  facet normal -0.978148 -0.207912 0
    outer loop
      vertex 9.75 29.5 10
      vertex 9.33934 31.432 10
      vertex 9.75 29.5 3.01
    endloop
  endfacet
  facet normal -0.978148 -0.207912 0
    outer loop
      vertex 9.75 29.5 3.01
      vertex 9.33934 31.432 10
      vertex 9.33934 31.432 3.01
    endloop
  endfacet
  facet normal -0.809017 -0.587785 0
    outer loop
      vertex 9.33934 31.432 10
      vertex 8.17837 33.0299 10
      vertex 9.33934 31.432 3.01
    endloop
  endfacet
  facet normal -0.809017 -0.587785 0
    outer loop
      vertex 9.33934 31.432 3.01
      vertex 8.17837 33.0299 10
      vertex 8.17837 33.0299 3.01
    endloop
  endfacet
  facet normal -0.5 -0.866025 0
    outer loop
      vertex 8.17837 33.0299 3.01
      vertex 8.17837 33.0299 10
      vertex 6.46783 34.0175 10
    endloop
  endfacet
  facet normal -0.5 -0.866025 0
    outer loop
      vertex 6.46783 34.0175 3.01
      vertex 8.17837 33.0299 3.01
      vertex 6.46783 34.0175 10
    endloop
  endfacet
  facet normal -0.104529 -0.994522 0
    outer loop
      vertex 6.46783 34.0175 3.01
      vertex 6.46783 34.0175 10
      vertex 4.50349 34.224 10
    endloop
  endfacet
  facet normal -0.104529 -0.994522 0
    outer loop
      vertex 4.50349 34.224 3.01
      vertex 6.46783 34.0175 3.01
      vertex 4.50349 34.224 10
    endloop
  endfacet
  facet normal 0.309017 -0.951057 0
    outer loop
      vertex 4.50349 34.224 3.01
      vertex 4.50349 34.224 10
      vertex 2.625 33.6136 10
    endloop
  endfacet
  facet normal 0.309017 -0.951057 0
    outer loop
      vertex 2.625 33.6136 3.01
      vertex 4.50349 34.224 3.01
      vertex 2.625 33.6136 10
    endloop
  endfacet
  facet normal 0.669131 -0.743145 0
    outer loop
      vertex 2.625 33.6136 3.01
      vertex 2.625 33.6136 10
      vertex 1.15717 32.292 10
    endloop
  endfacet
  facet normal 0.669131 -0.743145 0
    outer loop
      vertex 1.15717 32.292 3.01
      vertex 2.625 33.6136 3.01
      vertex 1.15717 32.292 10
    endloop
  endfacet
  facet normal 0.913545 -0.406737 0
    outer loop
      vertex 1.15717 32.292 3.01
      vertex 1.15717 32.292 10
      vertex 0.353799 30.4876 10
    endloop
  endfacet
  facet normal 0.913545 -0.406737 0
    outer loop
      vertex 0.353799 30.4876 3.01
      vertex 1.15717 32.292 3.01
      vertex 0.353799 30.4876 10
    endloop
  endfacet
  facet normal -0.707107 -0.5 0.5
    outer loop
      vertex 22.5 34.5 17.2279
      vertex 17.3891 34.5 10
      vertex 22.5 27.2721 10
    endloop
  endfacet
  facet normal 0.707107 -0.5 0.5
    outer loop
      vertex 22.5 34.5 17.2279
      vertex 22.5 27.2721 10
      vertex 27.6109 34.5 10
    endloop
  endfacet
  facet normal 0 1 -2.22045e-16
    outer loop
      vertex 22.5 34.5 17.2279
      vertex 27.6109 34.5 10
      vertex 17.3891 34.5 10
    endloop
  endfacet
  facet normal 0.913545 0.406737 0
    outer loop
      vertex 35.3538 4.01242 10
      vertex 36.1572 2.20802 10
      vertex 36.1572 2.20802 3.01
    endloop
  endfacet
  facet normal 0.913545 0.406737 0
    outer loop
      vertex 35.3538 4.01242 3.01
      vertex 35.3538 4.01242 10
      vertex 36.1572 2.20802 3.01
    endloop
  endfacet
  facet normal 1 0 0
    outer loop
      vertex 35.3538 5.98758 3.01
      vertex 35.3538 5.98758 10
      vertex 35.3538 4.01242 10
    endloop
  endfacet
  facet normal 1 0 0
    outer loop
      vertex 35.3538 4.01242 3.01
      vertex 35.3538 5.98758 3.01
      vertex 35.3538 4.01242 10
    endloop
  endfacet
  facet normal 0.669131 0.743145 0
    outer loop
      vertex 37.625 0.886379 10
      vertex 37.625 0.886379 3.01
      vertex 36.1572 2.20802 10
    endloop
  endfacet
  facet normal 0.669131 0.743145 0
    outer loop
      vertex 36.1572 2.20802 10
      vertex 37.625 0.886379 3.01
      vertex 36.1572 2.20802 3.01
    endloop
  endfacet
  facet normal 0.309017 0.951057 0
    outer loop
      vertex 39.5035 0.276021 10
      vertex 39.5035 0.276021 3.01
      vertex 37.625 0.886379 10
    endloop
  endfacet
  facet normal 0.309017 0.951057 0
    outer loop
      vertex 37.625 0.886379 10
      vertex 39.5035 0.276021 3.01
      vertex 37.625 0.886379 3.01
    endloop
  endfacet
  facet normal -0.104529 0.994522 0
    outer loop
      vertex 41.4678 0.482482 10
      vertex 41.4678 0.482482 3.01
      vertex 39.5035 0.276021 10
    endloop
  endfacet
  facet normal -0.104529 0.994522 0
    outer loop
      vertex 39.5035 0.276021 10
      vertex 41.4678 0.482482 3.01
      vertex 39.5035 0.276021 3.01
    endloop
  endfacet
  facet normal -0.5 0.866025 0
    outer loop
      vertex 43.1784 1.47006 10
      vertex 43.1784 1.47006 3.01
      vertex 41.4678 0.482482 10
    endloop
  endfacet
  facet normal -0.5 0.866025 0
    outer loop
      vertex 41.4678 0.482482 10
      vertex 43.1784 1.47006 3.01
      vertex 41.4678 0.482482 3.01
    endloop
  endfacet
  facet normal -0.809017 0.587785 0
    outer loop
      vertex 44.3393 3.068 10
      vertex 44.3393 3.068 3.01
      vertex 43.1784 1.47006 10
    endloop
  endfacet
  facet normal -0.809017 0.587785 0
    outer loop
      vertex 43.1784 1.47006 10
      vertex 44.3393 3.068 3.01
      vertex 43.1784 1.47006 3.01
    endloop
  endfacet
  facet normal -0.978148 0.207912 0
    outer loop
      vertex 44.75 5 10
      vertex 44.75 5 3.01
      vertex 44.3393 3.068 10
    endloop
  endfacet
  facet normal -0.978148 0.207912 0
    outer loop
      vertex 44.3393 3.068 10
      vertex 44.75 5 3.01
      vertex 44.3393 3.068 3.01
    endloop
  endfacet
  facet normal -0.978148 -0.207912 0
    outer loop
      vertex 44.75 5 10
      vertex 44.3393 6.932 10
      vertex 44.75 5 3.01
    endloop
  endfacet
  facet normal -0.978148 -0.207912 0
    outer loop
      vertex 44.75 5 3.01
      vertex 44.3393 6.932 10
      vertex 44.3393 6.932 3.01
    endloop
  endfacet
  facet normal -0.809017 -0.587785 0
    outer loop
      vertex 44.3393 6.932 10
      vertex 43.1784 8.52994 10
      vertex 44.3393 6.932 3.01
    endloop
  endfacet
  facet normal -0.809017 -0.587785 0
    outer loop
      vertex 44.3393 6.932 3.01
      vertex 43.1784 8.52994 10
      vertex 43.1784 8.52994 3.01
    endloop
  endfacet
  facet normal -0.5 -0.866025 0
    outer loop
      vertex 43.1784 8.52994 3.01
      vertex 43.1784 8.52994 10
      vertex 41.4678 9.51752 10
    endloop
  endfacet
  facet normal -0.5 -0.866025 0
    outer loop
      vertex 41.4678 9.51752 3.01
      vertex 43.1784 8.52994 3.01
      vertex 41.4678 9.51752 10
    endloop
  endfacet
  facet normal -0.104529 -0.994522 0
    outer loop
      vertex 41.4678 9.51752 3.01
      vertex 41.4678 9.51752 10
      vertex 39.5035 9.72398 10
    endloop
  endfacet
  facet normal -0.104529 -0.994522 0
    outer loop
      vertex 39.5035 9.72398 3.01
      vertex 41.4678 9.51752 3.01
      vertex 39.5035 9.72398 10
    endloop
  endfacet
  facet normal 0.309017 -0.951057 0
    outer loop
      vertex 39.5035 9.72398 3.01
      vertex 39.5035 9.72398 10
      vertex 37.625 9.11362 10
    endloop
  endfacet
  facet normal 0.309017 -0.951057 0
    outer loop
      vertex 37.625 9.11362 3.01
      vertex 39.5035 9.72398 3.01
      vertex 37.625 9.11362 10
    endloop
  endfacet
  facet normal 0.669131 -0.743145 0
    outer loop
      vertex 37.625 9.11362 3.01
      vertex 37.625 9.11362 10
      vertex 36.1572 7.79198 10
    endloop
  endfacet
  facet normal 0.669131 -0.743145 0
    outer loop
      vertex 36.1572 7.79198 3.01
      vertex 37.625 9.11362 3.01
      vertex 36.1572 7.79198 10
    endloop
  endfacet
  facet normal 0.913545 -0.406737 0
    outer loop
      vertex 36.1572 7.79198 3.01
      vertex 36.1572 7.79198 10
      vertex 35.3538 5.98758 10
    endloop
  endfacet
  facet normal 0.913545 -0.406737 0
    outer loop
      vertex 35.3538 5.98758 3.01
      vertex 36.1572 7.79198 3.01
      vertex 35.3538 5.98758 10
    endloop
  endfacet
  facet normal 0.913545 0.406737 0
    outer loop
      vertex 35.3538 28.5124 10
      vertex 36.1572 26.708 10
      vertex 36.1572 26.708 3.01
    endloop
  endfacet
  facet normal 0.913545 0.406737 0
    outer loop
      vertex 35.3538 28.5124 3.01
      vertex 35.3538 28.5124 10
      vertex 36.1572 26.708 3.01
    endloop
  endfacet
  facet normal 1 0 0
    outer loop
      vertex 35.3538 30.4876 3.01
      vertex 35.3538 30.4876 10
      vertex 35.3538 28.5124 10
    endloop
  endfacet
  facet normal 1 0 0
    outer loop
      vertex 35.3538 28.5124 3.01
      vertex 35.3538 30.4876 3.01
      vertex 35.3538 28.5124 10
    endloop
  endfacet
  facet normal 0.669131 0.743145 0
    outer loop
      vertex 37.625 25.3864 10
      vertex 37.625 25.3864 3.01
      vertex 36.1572 26.708 10
    endloop
  endfacet
  facet normal 0.669131 0.743145 0
    outer loop
      vertex 36.1572 26.708 10
      vertex 37.625 25.3864 3.01
      vertex 36.1572 26.708 3.01
    endloop
  endfacet
  facet normal 0.309017 0.951057 0
    outer loop
      vertex 39.5035 24.776 10
      vertex 39.5035 24.776 3.01
      vertex 37.625 25.3864 10
    endloop
  endfacet
  facet normal 0.309017 0.951057 0
    outer loop
      vertex 37.625 25.3864 10
      vertex 39.5035 24.776 3.01
      vertex 37.625 25.3864 3.01
    endloop
  endfacet
  facet normal -0.104529 0.994522 0
    outer loop
      vertex 41.4678 24.9825 10
      vertex 41.4678 24.9825 3.01
      vertex 39.5035 24.776 10
    endloop
  endfacet
  facet normal -0.104529 0.994522 0
    outer loop
      vertex 39.5035 24.776 10
      vertex 41.4678 24.9825 3.01
      vertex 39.5035 24.776 3.01
    endloop
  endfacet
  facet normal -0.5 0.866025 0
    outer loop
      vertex 43.1784 25.9701 10
      vertex 43.1784 25.9701 3.01
      vertex 41.4678 24.9825 10
    endloop
  endfacet
  facet normal -0.5 0.866025 0
    outer loop
      vertex 41.4678 24.9825 10
      vertex 43.1784 25.9701 3.01
      vertex 41.4678 24.9825 3.01
    endloop
  endfacet
  facet normal -0.809017 0.587785 0
    outer loop
      vertex 44.3393 27.568 10
      vertex 44.3393 27.568 3.01
      vertex 43.1784 25.9701 10
    endloop
  endfacet
  facet normal -0.809017 0.587785 0
    outer loop
      vertex 43.1784 25.9701 10
      vertex 44.3393 27.568 3.01
      vertex 43.1784 25.9701 3.01
    endloop
  endfacet
  facet normal -0.978148 0.207912 0
    outer loop
      vertex 44.75 29.5 10
      vertex 44.75 29.5 3.01
      vertex 44.3393 27.568 10
    endloop
  endfacet
  facet normal -0.978148 0.207912 0
    outer loop
      vertex 44.3393 27.568 10
      vertex 44.75 29.5 3.01
      vertex 44.3393 27.568 3.01
    endloop
  endfacet
  facet normal -0.978148 -0.207912 0
    outer loop
      vertex 44.75 29.5 10
      vertex 44.3393 31.432 10
      vertex 44.75 29.5 3.01
    endloop
  endfacet
  facet normal -0.978148 -0.207912 0
    outer loop
      vertex 44.75 29.5 3.01
      vertex 44.3393 31.432 10
      vertex 44.3393 31.432 3.01
    endloop
  endfacet
  facet normal -0.809017 -0.587785 0
    outer loop
      vertex 44.3393 31.432 10
      vertex 43.1784 33.0299 10
      vertex 44.3393 31.432 3.01
    endloop
  endfacet
  facet normal -0.809017 -0.587785 0
    outer loop
      vertex 44.3393 31.432 3.01
      vertex 43.1784 33.0299 10
      vertex 43.1784 33.0299 3.01
    endloop
  endfacet
  facet normal -0.5 -0.866025 0
    outer loop
      vertex 43.1784 33.0299 3.01
      vertex 43.1784 33.0299 10
      vertex 41.4678 34.0175 10
    endloop
  endfacet
  facet normal -0.5 -0.866025 0
    outer loop
      vertex 41.4678 34.0175 3.01
      vertex 43.1784 33.0299 3.01
      vertex 41.4678 34.0175 10
    endloop
  endfacet
  facet normal -0.104529 -0.994522 0
    outer loop
      vertex 41.4678 34.0175 3.01
      vertex 41.4678 34.0175 10
      vertex 39.5035 34.224 10
    endloop
  endfacet
  facet normal -0.104529 -0.994522 0
    outer loop
      vertex 39.5035 34.224 3.01
      vertex 41.4678 34.0175 3.01
      vertex 39.5035 34.224 10
    endloop
  endfacet
  facet normal 0.309017 -0.951057 0
    outer loop
      vertex 39.5035 34.224 3.01
      vertex 39.5035 34.224 10
      vertex 37.625 33.6136 10
    endloop
  endfacet
  facet normal 0.309017 -0.951057 0
    outer loop
      vertex 37.625 33.6136 3.01
      vertex 39.5035 34.224 3.01
      vertex 37.625 33.6136 10
    endloop
  endfacet
  facet normal 0.669131 -0.743145 0
    outer loop
      vertex 37.625 33.6136 3.01
      vertex 37.625 33.6136 10
      vertex 36.1572 32.292 10
    endloop
  endfacet
  facet normal 0.669131 -0.743145 0
    outer loop
      vertex 36.1572 32.292 3.01
      vertex 37.625 33.6136 3.01
      vertex 36.1572 32.292 10
    endloop
  endfacet
  facet normal 0.913545 -0.406737 0
    outer loop
      vertex 36.1572 32.292 3.01
      vertex 36.1572 32.292 10
      vertex 35.3538 30.4876 10
    endloop
  endfacet
  facet normal 0.913545 -0.406737 0
    outer loop
      vertex 35.3538 30.4876 3.01
      vertex 36.1572 32.292 3.01
      vertex 35.3538 30.4876 10
    endloop
  endfacet
  facet normal 0 0 1
    outer loop
      vertex 1.15717 2.20802 3.01
      vertex 2.625 0.886379 3.01
      vertex 4.50349 0.276021 3.01
    endloop
  endfacet
  facet normal 0 0 1
    outer loop
      vertex 8.17837 1.47006 3.01
      vertex 1.15717 2.20802 3.01
      vertex 6.46783 0.482482 3.01
    endloop
  endfacet
  facet normal 0 0 1
    outer loop
      vertex 6.46783 0.482482 3.01
      vertex 1.15717 2.20802 3.01
      vertex 4.50349 0.276021 3.01
    endloop
  endfacet
  facet normal 0 0 1
    outer loop
      vertex 5.46885 2.34102 3.01
      vertex 1.15717 2.20802 3.01
      vertex 8.17837 1.47006 3.01
    endloop
  endfacet
  facet normal 0 0 1
    outer loop
      vertex 5.46885 2.34102 3.01
      vertex 3.65 2.66173 3.01
      vertex 1.15717 2.20802 3.01
    endloop
  endfacet
  facet normal 0 0 1
    outer loop
      vertex 7.06832 6.73553 3.01
      vertex 7.7 5 3.01
      vertex 9.33934 6.932 3.01
    endloop
  endfacet
  facet normal 0 0 1
    outer loop
      vertex 5.46885 7.65898 3.01
      vertex 7.06832 6.73553 3.01
      vertex 8.17837 8.52994 3.01
    endloop
  endfacet
  facet normal 0 0 1
    outer loop
      vertex 1.15717 7.79198 3.01
      vertex 1.15717 2.20802 3.01
      vertex 2.625 9.11362 3.01
    endloop
  endfacet
  facet normal 0 0 1
    outer loop
      vertex 0.353799 5.98758 3.01
      vertex 1.15717 2.20802 3.01
      vertex 1.15717 7.79198 3.01
    endloop
  endfacet
  facet normal 0 0 1
    outer loop
      vertex 0.353799 4.01242 3.01
      vertex 1.15717 2.20802 3.01
      vertex 0.353799 5.98758 3.01
    endloop
  endfacet
  facet normal 0 0 1
    outer loop
      vertex 2.625 9.11362 3.01
      vertex 2.46283 5.92345 3.01
      vertex 4.50349 9.72398 3.01
    endloop
  endfacet
  facet normal 0 0 1
    outer loop
      vertex 2.625 9.11362 3.01
      vertex 1.15717 2.20802 3.01
      vertex 2.46283 5.92345 3.01
    endloop
  endfacet
  facet normal 0 0 1
    outer loop
      vertex 4.50349 9.72398 3.01
      vertex 3.65 7.33827 3.01
      vertex 6.46783 9.51752 3.01
    endloop
  endfacet
  facet normal 0 0 1
    outer loop
      vertex 6.46783 9.51752 3.01
      vertex 5.46885 7.65898 3.01
      vertex 8.17837 8.52994 3.01
    endloop
  endfacet
  facet normal 0 0 1
    outer loop
      vertex 8.17837 8.52994 3.01
      vertex 7.06832 6.73553 3.01
      vertex 9.33934 6.932 3.01
    endloop
  endfacet
  facet normal 0 0 1
    outer loop
      vertex 9.33934 6.932 3.01
      vertex 7.7 5 3.01
      vertex 9.75 5 3.01
    endloop
  endfacet
  facet normal 0 0 1
    outer loop
      vertex 9.75 5 3.01
      vertex 7.06832 3.26447 3.01
      vertex 9.33934 3.068 3.01
    endloop
  endfacet
  facet normal 0 0 1
    outer loop
      vertex 9.33934 3.068 3.01
      vertex 5.46885 2.34102 3.01
      vertex 8.17837 1.47006 3.01
    endloop
  endfacet
  facet normal 0 0 1
    outer loop
      vertex 7.06832 3.26447 3.01
      vertex 5.46885 2.34102 3.01
      vertex 9.33934 3.068 3.01
    endloop
  endfacet
  facet normal 0 0 1
    outer loop
      vertex 7.7 5 3.01
      vertex 7.06832 3.26447 3.01
      vertex 9.75 5 3.01
    endloop
  endfacet
  facet normal 0 0 1
    outer loop
      vertex 3.65 7.33827 3.01
      vertex 5.46885 7.65898 3.01
      vertex 6.46783 9.51752 3.01
    endloop
  endfacet
  facet normal 0 0 1
    outer loop
      vertex 2.46283 5.92345 3.01
      vertex 3.65 7.33827 3.01
      vertex 4.50349 9.72398 3.01
    endloop
  endfacet
  facet normal 0 0 1
    outer loop
      vertex 2.46283 4.07655 3.01
      vertex 2.46283 5.92345 3.01
      vertex 1.15717 2.20802 3.01
    endloop
  endfacet
  facet normal 0 0 1
    outer loop
      vertex 3.65 2.66173 3.01
      vertex 2.46283 4.07655 3.01
      vertex 1.15717 2.20802 3.01
    endloop
  endfacet
  facet normal 0 0 1
    outer loop
      vertex 1.15717 26.708 3.01
      vertex 2.625 25.3864 3.01
      vertex 4.50349 24.776 3.01
    endloop
  endfacet
  facet normal 0 0 1
    outer loop
      vertex 8.17837 25.9701 3.01
      vertex 1.15717 26.708 3.01
      vertex 6.46783 24.9825 3.01
    endloop
  endfacet
  facet normal 0 0 1
    outer loop
      vertex 6.46783 24.9825 3.01
      vertex 1.15717 26.708 3.01
      vertex 4.50349 24.776 3.01
    endloop
  endfacet
  facet normal 0 0 1
    outer loop
      vertex 5.46885 26.841 3.01
      vertex 1.15717 26.708 3.01
      vertex 8.17837 25.9701 3.01
    endloop
  endfacet
  facet normal 0 0 1
    outer loop
      vertex 5.46885 26.841 3.01
      vertex 3.65 27.1617 3.01
      vertex 1.15717 26.708 3.01
    endloop
  endfacet
  facet normal 0 0 1
    outer loop
      vertex 7.06832 31.2355 3.01
      vertex 7.7 29.5 3.01
      vertex 9.33934 31.432 3.01
    endloop
  endfacet
  facet normal 0 0 1
    outer loop
      vertex 5.46885 32.159 3.01
      vertex 7.06832 31.2355 3.01
      vertex 8.17837 33.0299 3.01
    endloop
  endfacet
  facet normal 0 0 1
    outer loop
      vertex 1.15717 32.292 3.01
      vertex 1.15717 26.708 3.01
      vertex 2.625 33.6136 3.01
    endloop
  endfacet
  facet normal 0 0 1
    outer loop
      vertex 0.353799 30.4876 3.01
      vertex 1.15717 26.708 3.01
      vertex 1.15717 32.292 3.01
    endloop
  endfacet
  facet normal 0 0 1
    outer loop
      vertex 0.353799 28.5124 3.01
      vertex 1.15717 26.708 3.01
      vertex 0.353799 30.4876 3.01
    endloop
  endfacet
  facet normal 0 0 1
    outer loop
      vertex 2.625 33.6136 3.01
      vertex 2.46283 30.4235 3.01
      vertex 4.50349 34.224 3.01
    endloop
  endfacet
  facet normal 0 0 1
    outer loop
      vertex 2.625 33.6136 3.01
      vertex 1.15717 26.708 3.01
      vertex 2.46283 30.4235 3.01
    endloop
  endfacet
  facet normal 0 0 1
    outer loop
      vertex 4.50349 34.224 3.01
      vertex 3.65 31.8383 3.01
      vertex 6.46783 34.0175 3.01
    endloop
  endfacet
  facet normal 0 0 1
    outer loop
      vertex 6.46783 34.0175 3.01
      vertex 5.46885 32.159 3.01
      vertex 8.17837 33.0299 3.01
    endloop
  endfacet
  facet normal 0 0 1
    outer loop
      vertex 8.17837 33.0299 3.01
      vertex 7.06832 31.2355 3.01
      vertex 9.33934 31.432 3.01
    endloop
  endfacet
  facet normal 0 0 1
    outer loop
      vertex 9.33934 31.432 3.01
      vertex 7.7 29.5 3.01
      vertex 9.75 29.5 3.01
    endloop
  endfacet
  facet normal 0 0 1
    outer loop
      vertex 9.75 29.5 3.01
      vertex 7.06832 27.7645 3.01
      vertex 9.33934 27.568 3.01
    endloop
  endfacet
  facet normal 0 0 1
    outer loop
      vertex 9.33934 27.568 3.01
      vertex 5.46885 26.841 3.01
      vertex 8.17837 25.9701 3.01
    endloop
  endfacet
  facet normal 0 0 1
    outer loop
      vertex 7.06832 27.7645 3.01
      vertex 5.46885 26.841 3.01
      vertex 9.33934 27.568 3.01
    endloop
  endfacet
  facet normal 0 0 1
    outer loop
      vertex 7.7 29.5 3.01
      vertex 7.06832 27.7645 3.01
      vertex 9.75 29.5 3.01
    endloop
  endfacet
  facet normal 0 0 1
    outer loop
      vertex 3.65 31.8383 3.01
      vertex 5.46885 32.159 3.01
      vertex 6.46783 34.0175 3.01
    endloop
  endfacet
  facet normal 0 0 1
    outer loop
      vertex 2.46283 30.4235 3.01
      vertex 3.65 31.8383 3.01
      vertex 4.50349 34.224 3.01
    endloop
  endfacet
  facet normal 0 0 1
    outer loop
      vertex 2.46283 28.5765 3.01
      vertex 2.46283 30.4235 3.01
      vertex 1.15717 26.708 3.01
    endloop
  endfacet
  facet normal 0 0 1
    outer loop
      vertex 3.65 27.1617 3.01
      vertex 2.46283 28.5765 3.01
      vertex 1.15717 26.708 3.01
    endloop
  endfacet
  facet normal 0 0 1
    outer loop
      vertex 36.1572 2.20802 3.01
      vertex 37.625 0.886379 3.01
      vertex 39.5035 0.276021 3.01
    endloop
  endfacet
  facet normal 0 0 1
    outer loop
      vertex 43.1784 1.47006 3.01
      vertex 36.1572 2.20802 3.01
      vertex 41.4678 0.482482 3.01
    endloop
  endfacet
  facet normal 0 0 1
    outer loop
      vertex 41.4678 0.482482 3.01
      vertex 36.1572 2.20802 3.01
      vertex 39.5035 0.276021 3.01
    endloop
  endfacet
  facet normal 0 0 1
    outer loop
      vertex 40.4688 2.34102 3.01
      vertex 36.1572 2.20802 3.01
      vertex 43.1784 1.47006 3.01
    endloop
  endfacet
  facet normal 0 0 1
    outer loop
      vertex 40.4688 2.34102 3.01
      vertex 38.65 2.66173 3.01
      vertex 36.1572 2.20802 3.01
    endloop
  endfacet
  facet normal 0 0 1
    outer loop
      vertex 42.0683 6.73553 3.01
      vertex 42.7 5 3.01
      vertex 44.3393 6.932 3.01
    endloop
  endfacet
  facet normal 0 0 1
    outer loop
      vertex 40.4688 7.65898 3.01
      vertex 42.0683 6.73553 3.01
      vertex 43.1784 8.52994 3.01
    endloop
  endfacet
  facet normal 0 0 1
    outer loop
      vertex 36.1572 7.79198 3.01
      vertex 36.1572 2.20802 3.01
      vertex 37.625 9.11362 3.01
    endloop
  endfacet
  facet normal 0 0 1
    outer loop
      vertex 35.3538 5.98758 3.01
      vertex 36.1572 2.20802 3.01
      vertex 36.1572 7.79198 3.01
    endloop
  endfacet
  facet normal 0 0 1
    outer loop
      vertex 35.3538 4.01242 3.01
      vertex 36.1572 2.20802 3.01
      vertex 35.3538 5.98758 3.01
    endloop
  endfacet
  facet normal 0 0 1
    outer loop
      vertex 37.625 9.11362 3.01
      vertex 37.4628 5.92345 3.01
      vertex 39.5035 9.72398 3.01
    endloop
  endfacet
  facet normal 0 0 1
    outer loop
      vertex 37.625 9.11362 3.01
      vertex 36.1572 2.20802 3.01
      vertex 37.4628 5.92345 3.01
    endloop
  endfacet
  facet normal 0 0 1
    outer loop
      vertex 39.5035 9.72398 3.01
      vertex 38.65 7.33827 3.01
      vertex 41.4678 9.51752 3.01
    endloop
  endfacet
  facet normal 0 0 1
    outer loop
      vertex 41.4678 9.51752 3.01
      vertex 40.4688 7.65898 3.01
      vertex 43.1784 8.52994 3.01
    endloop
  endfacet
  facet normal 0 0 1
    outer loop
      vertex 43.1784 8.52994 3.01
      vertex 42.0683 6.73553 3.01
      vertex 44.3393 6.932 3.01
    endloop
  endfacet
  facet normal 0 0 1
    outer loop
      vertex 44.3393 6.932 3.01
      vertex 42.7 5 3.01
      vertex 44.75 5 3.01
    endloop
  endfacet
  facet normal 0 0 1
    outer loop
      vertex 44.75 5 3.01
      vertex 42.0683 3.26447 3.01
      vertex 44.3393 3.068 3.01
    endloop
  endfacet
  facet normal 0 0 1
    outer loop
      vertex 44.3393 3.068 3.01
      vertex 40.4688 2.34102 3.01
      vertex 43.1784 1.47006 3.01
    endloop
  endfacet
  facet normal 0 0 1
    outer loop
      vertex 42.0683 3.26447 3.01
      vertex 40.4688 2.34102 3.01
      vertex 44.3393 3.068 3.01
    endloop
  endfacet
  facet normal 0 0 1
    outer loop
      vertex 42.7 5 3.01
      vertex 42.0683 3.26447 3.01
      vertex 44.75 5 3.01
    endloop
  endfacet
  facet normal 0 0 1
    outer loop
      vertex 38.65 7.33827 3.01
      vertex 40.4688 7.65898 3.01
      vertex 41.4678 9.51752 3.01
    endloop
  endfacet
  facet normal 0 0 1
    outer loop
      vertex 37.4628 5.92345 3.01
      vertex 38.65 7.33827 3.01
      vertex 39.5035 9.72398 3.01
    endloop
  endfacet
  facet normal 0 0 1
    outer loop
      vertex 37.4628 4.07655 3.01
      vertex 37.4628 5.92345 3.01
      vertex 36.1572 2.20802 3.01
    endloop
  endfacet
  facet normal 0 0 1
    outer loop
      vertex 38.65 2.66173 3.01
      vertex 37.4628 4.07655 3.01
      vertex 36.1572 2.20802 3.01
    endloop
  endfacet
  facet normal 0 0 1
    outer loop
      vertex 36.1572 26.708 3.01
      vertex 37.625 25.3864 3.01
      vertex 39.5035 24.776 3.01
    endloop
  endfacet
  facet normal 0 0 1
    outer loop
      vertex 43.1784 25.9701 3.01
      vertex 36.1572 26.708 3.01
      vertex 41.4678 24.9825 3.01
    endloop
  endfacet
  facet normal 0 0 1
    outer loop
      vertex 41.4678 24.9825 3.01
      vertex 36.1572 26.708 3.01
      vertex 39.5035 24.776 3.01
    endloop
  endfacet
  facet normal 0 0 1
    outer loop
      vertex 40.4688 26.841 3.01
      vertex 36.1572 26.708 3.01
      vertex 43.1784 25.9701 3.01
    endloop
  endfacet
  facet normal 0 0 1
    outer loop
      vertex 40.4688 26.841 3.01
      vertex 38.65 27.1617 3.01
      vertex 36.1572 26.708 3.01
    endloop
  endfacet
  facet normal 0 0 1
    outer loop
      vertex 42.0683 31.2355 3.01
      vertex 42.7 29.5 3.01
      vertex 44.3393 31.432 3.01
    endloop
  endfacet
  facet normal 0 0 1
    outer loop
      vertex 40.4688 32.159 3.01
      vertex 42.0683 31.2355 3.01
      vertex 43.1784 33.0299 3.01
    endloop
  endfacet
  facet normal 0 0 1
    outer loop
      vertex 36.1572 32.292 3.01
      vertex 36.1572 26.708 3.01
      vertex 37.625 33.6136 3.01
    endloop
  endfacet
  facet normal 0 0 1
    outer loop
      vertex 35.3538 30.4876 3.01
      vertex 36.1572 26.708 3.01
      vertex 36.1572 32.292 3.01
    endloop
  endfacet
  facet normal 0 0 1
    outer loop
      vertex 35.3538 28.5124 3.01
      vertex 36.1572 26.708 3.01
      vertex 35.3538 30.4876 3.01
    endloop
  endfacet
  facet normal 0 0 1
    outer loop
      vertex 37.625 33.6136 3.01
      vertex 37.4628 30.4235 3.01
      vertex 39.5035 34.224 3.01
    endloop
  endfacet
  facet normal 0 0 1
    outer loop
      vertex 37.625 33.6136 3.01
      vertex 36.1572 26.708 3.01
      vertex 37.4628 30.4235 3.01
    endloop
  endfacet
  facet normal 0 0 1
    outer loop
      vertex 39.5035 34.224 3.01
      vertex 38.65 31.8383 3.01
      vertex 41.4678 34.0175 3.01
    endloop
  endfacet
  facet normal 0 0 1
    outer loop
      vertex 41.4678 34.0175 3.01
      vertex 40.4688 32.159 3.01
      vertex 43.1784 33.0299 3.01
    endloop
  endfacet
  facet normal 0 0 1
    outer loop
      vertex 43.1784 33.0299 3.01
      vertex 42.0683 31.2355 3.01
      vertex 44.3393 31.432 3.01
    endloop
  endfacet
  facet normal 0 0 1
    outer loop
      vertex 44.3393 31.432 3.01
      vertex 42.7 29.5 3.01
      vertex 44.75 29.5 3.01
    endloop
  endfacet
  facet normal 0 0 1
    outer loop
      vertex 44.75 29.5 3.01
      vertex 42.0683 27.7645 3.01
      vertex 44.3393 27.568 3.01
    endloop
  endfacet
  facet normal 0 0 1
    outer loop
      vertex 44.3393 27.568 3.01
      vertex 40.4688 26.841 3.01
      vertex 43.1784 25.9701 3.01
    endloop
  endfacet
  facet normal 0 0 1
    outer loop
      vertex 42.0683 27.7645 3.01
      vertex 40.4688 26.841 3.01
      vertex 44.3393 27.568 3.01
    endloop
  endfacet
  facet normal 0 0 1
    outer loop
      vertex 42.7 29.5 3.01
      vertex 42.0683 27.7645 3.01
      vertex 44.75 29.5 3.01
    endloop
  endfacet
  facet normal 0 0 1
    outer loop
      vertex 38.65 31.8383 3.01
      vertex 40.4688 32.159 3.01
      vertex 41.4678 34.0175 3.01
    endloop
  endfacet
  facet normal 0 0 1
    outer loop
      vertex 37.4628 30.4235 3.01
      vertex 38.65 31.8383 3.01
      vertex 39.5035 34.224 3.01
    endloop
  endfacet
  facet normal 0 0 1
    outer loop
      vertex 37.4628 28.5765 3.01
      vertex 37.4628 30.4235 3.01
      vertex 36.1572 26.708 3.01
    endloop
  endfacet
  facet normal 0 0 1
    outer loop
      vertex 38.65 27.1617 3.01
      vertex 37.4628 28.5765 3.01
      vertex 36.1572 26.708 3.01
    endloop
  endfacet
endsolid OpenSCAD_Model
