solid OpenSCAD_Model
  facet normal -1 0 0
    outer loop
      vertex 0 11.0219 6.58189
      vertex 0 0 7
      vertex 0 11.0219 7
    endloop
  endfacet
  facet normal -1 0 0
    outer loop
      vertex 0 11.1958 5.76393
      vertex 0 0 7
      vertex 0 11.0219 6.58189
    endloop
  endfacet
  facet normal -1 0 0
    outer loop
      vertex 0 11.5359 5
      vertex 0 0 7
      vertex 0 11.1958 5.76393
    endloop
  endfacet
  facet normal -1 0 0
    outer loop
      vertex 0 12.0274 4.32348
      vertex 0 0 7
      vertex 0 11.5359 5
    endloop
  endfacet
  facet normal -1 0 -0
    outer loop
      vertex 0 0 0
      vertex 0 0 7
      vertex 0 12.6489 3.76393
    endloop
  endfacet
  facet normal -1 0 0
    outer loop
      vertex 0 0 0
      vertex 0 12.6489 3.76393
      vertex 0 13.3731 3.34582
    endloop
  endfacet
  facet normal -1 0 0
    outer loop
      vertex 0 0 0
      vertex 0 13.3731 3.34582
      vertex 0 14.1684 3.08741
    endloop
  endfacet
  facet normal -1 -0 0
    outer loop
      vertex 0 0 0
      vertex 0 14.1684 3.08741
      vertex 0 30 0
    endloop
  endfacet
  facet normal -1 0 0
    outer loop
      vertex 0 14.1684 3.08741
      vertex 0 15 3
      vertex 0 30 0
    endloop
  endfacet
  facet normal -1 0 0
    outer loop
      vertex 0 15.8316 3.08741
      vertex 0 30 0
      vertex 0 15 3
    endloop
  endfacet
  facet normal -1 0 0
    outer loop
      vertex 0 16.6269 3.34582
      vertex 0 30 0
      vertex 0 15.8316 3.08741
    endloop
  endfacet
  facet normal -1 0 0
    outer loop
      vertex 0 17.3511 3.76393
      vertex 0 30 0
      vertex 0 16.6269 3.34582
    endloop
  endfacet
  facet normal -1 0 0
    outer loop
      vertex 0 17.9726 4.32348
      vertex 0 30 0
      vertex 0 17.3511 3.76393
    endloop
  endfacet
  facet normal -1 0 0
    outer loop
      vertex 0 18.4641 5
      vertex 0 30 0
      vertex 0 17.9726 4.32348
    endloop
  endfacet
  facet normal -1 0 0
    outer loop
      vertex 0 30 0
      vertex 0 18.4641 5
      vertex 0 18.8042 5.76393
    endloop
  endfacet
  facet normal -1 -0 0
    outer loop
      vertex 0 18.8042 5.76393
      vertex 0 18.9781 6.58189
      vertex 0 30 0
    endloop
  endfacet
  facet normal -1 -0 -0
    outer loop
      vertex 0 18.9781 6.58189
      vertex 0 18.9781 7
      vertex 0 30 0
    endloop
  endfacet
  facet normal -1 0 0
    outer loop
      vertex 0 30 0
      vertex 0 18.9781 7
      vertex 0 30 7
    endloop
  endfacet
  facet normal -1 0 0
    outer loop
      vertex 0 12.6489 3.76393
      vertex 0 0 7
      vertex 0 12.0274 4.32348
    endloop
  endfacet
  facet normal 0 -1 0
    outer loop
      vertex 0 0 7
      vertex 0 0 0
      vertex 22 0 0
    endloop
  endfacet
  facet normal 0 -1 0
    outer loop
      vertex 22 0 7
      vertex 0 0 7
      vertex 22 0 0
    endloop
  endfacet
  facet normal -0 -0 -1
    outer loop
      vertex 11.9184 7.25415 0
      vertex 0 30 0
      vertex 22 0 0
    endloop
  endfacet
  facet normal 0 -0 -1
    outer loop
      vertex 10.6489 25.5972 0
      vertex 0 30 0
      vertex 22 30 0
    endloop
  endfacet
  facet normal 0 -0 -1
    outer loop
      vertex 0 0 0
      vertex 0 30 0
      vertex 7.9 6.4 0
    endloop
  endfacet
  facet normal 0 0 -1
    outer loop
      vertex 0 0 0
      vertex 7.9 6.4 0
      vertex 7.94589 5.96338 0
    endloop
  endfacet
  facet normal 0 0 -1
    outer loop
      vertex 0 0 0
      vertex 7.94589 5.96338 0
      vertex 8.08155 5.54585 0
    endloop
  endfacet
  facet normal 0 0 -1
    outer loop
      vertex 0 0 0
      vertex 8.08155 5.54585 0
      vertex 8.30106 5.16565 0
    endloop
  endfacet
  facet normal 0 0 -1
    outer loop
      vertex 0 0 0
      vertex 8.30106 5.16565 0
      vertex 8.59483 4.8394 0
    endloop
  endfacet
  facet normal 0 0 -1
    outer loop
      vertex 0 0 0
      vertex 8.59483 4.8394 0
      vertex 8.95 4.58135 0
    endloop
  endfacet
  facet normal 0 0 -1
    outer loop
      vertex 0 0 0
      vertex 8.95 4.58135 0
      vertex 9.35106 4.40278 0
    endloop
  endfacet
  facet normal -0 0 -1
    outer loop
      vertex 0 0 0
      vertex 9.35106 4.40278 0
      vertex 22 0 0
    endloop
  endfacet
  facet normal 0 0 -1
    outer loop
      vertex 10.2195 4.3115 0
      vertex 22 0 0
      vertex 9.78049 4.3115 0
    endloop
  endfacet
  facet normal 0 0 -1
    outer loop
      vertex 10.6489 4.40278 0
      vertex 22 0 0
      vertex 10.2195 4.3115 0
    endloop
  endfacet
  facet normal 0 0 -1
    outer loop
      vertex 11.05 4.58135 0
      vertex 22 0 0
      vertex 10.6489 4.40278 0
    endloop
  endfacet
  facet normal 0 0 -1
    outer loop
      vertex 11.4052 4.8394 0
      vertex 22 0 0
      vertex 11.05 4.58135 0
    endloop
  endfacet
  facet normal 0 0 -1
    outer loop
      vertex 8.59483 22.0394 0
      vertex 22 0 0
      vertex 8.30106 22.3657 0
    endloop
  endfacet
  facet normal -0 -0 -1
    outer loop
      vertex 11.4052 7.9606 0
      vertex 0 30 0
      vertex 11.6989 7.63435 0
    endloop
  endfacet
  facet normal 0 -0 -1
    outer loop
      vertex 9.35106 8.39722 0
      vertex 0 30 0
      vertex 9.78049 8.4885 0
    endloop
  endfacet
  facet normal -0 0 -1
    outer loop
      vertex 11.4052 4.8394 0
      vertex 11.6989 5.16565 0
      vertex 22 0 0
    endloop
  endfacet
  facet normal -0 -0 -1
    outer loop
      vertex 9.78049 8.4885 0
      vertex 0 30 0
      vertex 10.2195 8.4885 0
    endloop
  endfacet
  facet normal -0 0 -1
    outer loop
      vertex 11.6989 5.16565 0
      vertex 11.9184 5.54585 0
      vertex 22 0 0
    endloop
  endfacet
  facet normal -0 -0 -1
    outer loop
      vertex 10.2195 8.4885 0
      vertex 0 30 0
      vertex 10.6489 8.39722 0
    endloop
  endfacet
  facet normal -0 0 -1
    outer loop
      vertex 11.9184 5.54585 0
      vertex 12.0541 5.96338 0
      vertex 22 0 0
    endloop
  endfacet
  facet normal -0 -0 -1
    outer loop
      vertex 10.6489 8.39722 0
      vertex 0 30 0
      vertex 11.05 8.21865 0
    endloop
  endfacet
  facet normal -0 0 -1
    outer loop
      vertex 12.0541 5.96338 0
      vertex 12.1 6.4 0
      vertex 22 0 0
    endloop
  endfacet
  facet normal -0 -0 -1
    outer loop
      vertex 11.05 8.21865 0
      vertex 0 30 0
      vertex 11.4052 7.9606 0
    endloop
  endfacet
  facet normal -0 -0 -1
    outer loop
      vertex 12.1 6.4 0
      vertex 12.0541 6.83661 0
      vertex 22 0 0
    endloop
  endfacet
  facet normal -0 -0 -1
    outer loop
      vertex 11.6989 7.63435 0
      vertex 0 30 0
      vertex 11.9184 7.25415 0
    endloop
  endfacet
  facet normal -0 -0 -1
    outer loop
      vertex 12.0541 6.83661 0
      vertex 11.9184 7.25415 0
      vertex 22 0 0
    endloop
  endfacet
  facet normal 0 -0 -1
    outer loop
      vertex 8.95 8.21865 0
      vertex 0 30 0
      vertex 9.35106 8.39722 0
    endloop
  endfacet
  facet normal 0 -0 -1
    outer loop
      vertex 8.59483 7.9606 0
      vertex 0 30 0
      vertex 8.95 8.21865 0
    endloop
  endfacet
  facet normal 0 -0 -1
    outer loop
      vertex 8.30106 7.63435 0
      vertex 0 30 0
      vertex 8.59483 7.9606 0
    endloop
  endfacet
  facet normal 0 -0 -1
    outer loop
      vertex 8.08155 7.25415 0
      vertex 0 30 0
      vertex 8.30106 7.63435 0
    endloop
  endfacet
  facet normal 0 -0 -1
    outer loop
      vertex 7.94589 6.83661 0
      vertex 0 30 0
      vertex 8.08155 7.25415 0
    endloop
  endfacet
  facet normal 0 -0 -1
    outer loop
      vertex 7.9 6.4 0
      vertex 0 30 0
      vertex 7.94589 6.83661 0
    endloop
  endfacet
  facet normal 0 0 -1
    outer loop
      vertex 7.94589 23.1634 0
      vertex 0 30 0
      vertex 7.9 23.6 0
    endloop
  endfacet
  facet normal 0 0 -1
    outer loop
      vertex 8.08155 22.7459 0
      vertex 0 30 0
      vertex 7.94589 23.1634 0
    endloop
  endfacet
  facet normal 0 0 -1
    outer loop
      vertex 8.30106 22.3657 0
      vertex 0 30 0
      vertex 8.08155 22.7459 0
    endloop
  endfacet
  facet normal 0 0 -1
    outer loop
      vertex 22 0 0
      vertex 0 30 0
      vertex 8.30106 22.3657 0
    endloop
  endfacet
  facet normal 0 0 -1
    outer loop
      vertex 8.95 21.7813 0
      vertex 22 0 0
      vertex 8.59483 22.0394 0
    endloop
  endfacet
  facet normal 0 0 -1
    outer loop
      vertex 9.35106 21.6028 0
      vertex 22 0 0
      vertex 8.95 21.7813 0
    endloop
  endfacet
  facet normal -0 0 -1
    outer loop
      vertex 11.6989 22.3657 0
      vertex 22 30 0
      vertex 11.4052 22.0394 0
    endloop
  endfacet
  facet normal 0 0 -1
    outer loop
      vertex 22 0 0
      vertex 9.35106 21.6028 0
      vertex 9.78049 21.5115 0
    endloop
  endfacet
  facet normal 0 0 -1
    outer loop
      vertex 22 0 0
      vertex 9.78049 21.5115 0
      vertex 10.2195 21.5115 0
    endloop
  endfacet
  facet normal 0 0 -1
    outer loop
      vertex 22 0 0
      vertex 10.2195 21.5115 0
      vertex 10.6489 21.6028 0
    endloop
  endfacet
  facet normal 0 0 -1
    outer loop
      vertex 22 0 0
      vertex 10.6489 21.6028 0
      vertex 11.05 21.7813 0
    endloop
  endfacet
  facet normal 0 0 -1
    outer loop
      vertex 22 0 0
      vertex 11.05 21.7813 0
      vertex 11.4052 22.0394 0
    endloop
  endfacet
  facet normal 0 0 -1
    outer loop
      vertex 22 0 0
      vertex 11.4052 22.0394 0
      vertex 22 30 0
    endloop
  endfacet
  facet normal -0 0 -1
    outer loop
      vertex 11.9184 22.7459 0
      vertex 22 30 0
      vertex 11.6989 22.3657 0
    endloop
  endfacet
  facet normal -0 0 -1
    outer loop
      vertex 12.0541 23.1634 0
      vertex 22 30 0
      vertex 11.9184 22.7459 0
    endloop
  endfacet
  facet normal -0 0 -1
    outer loop
      vertex 12.1 23.6 0
      vertex 22 30 0
      vertex 12.0541 23.1634 0
    endloop
  endfacet
  facet normal -0 0 -1
    outer loop
      vertex 11.05 25.4187 0
      vertex 22 30 0
      vertex 11.4052 25.1606 0
    endloop
  endfacet
  facet normal 0 -0 -1
    outer loop
      vertex 12.1 23.6 0
      vertex 12.0541 24.0366 0
      vertex 22 30 0
    endloop
  endfacet
  facet normal 0 -0 -1
    outer loop
      vertex 12.0541 24.0366 0
      vertex 11.9184 24.4541 0
      vertex 22 30 0
    endloop
  endfacet
  facet normal 0 -0 -1
    outer loop
      vertex 11.9184 24.4541 0
      vertex 11.6989 24.8343 0
      vertex 22 30 0
    endloop
  endfacet
  facet normal 0 -0 -1
    outer loop
      vertex 11.6989 24.8343 0
      vertex 11.4052 25.1606 0
      vertex 22 30 0
    endloop
  endfacet
  facet normal -0 -0 -1
    outer loop
      vertex 10.2195 25.6885 0
      vertex 0 30 0
      vertex 10.6489 25.5972 0
    endloop
  endfacet
  facet normal 0 -0 -1
    outer loop
      vertex 11.05 25.4187 0
      vertex 10.6489 25.5972 0
      vertex 22 30 0
    endloop
  endfacet
  facet normal -0 -0 -1
    outer loop
      vertex 9.78049 25.6885 0
      vertex 0 30 0
      vertex 10.2195 25.6885 0
    endloop
  endfacet
  facet normal 0 -0 -1
    outer loop
      vertex 9.35106 25.5972 0
      vertex 0 30 0
      vertex 9.78049 25.6885 0
    endloop
  endfacet
  facet normal 0 -0 -1
    outer loop
      vertex 8.95 25.4187 0
      vertex 0 30 0
      vertex 9.35106 25.5972 0
    endloop
  endfacet
  facet normal 0 -0 -1
    outer loop
      vertex 8.59483 25.1606 0
      vertex 0 30 0
      vertex 8.95 25.4187 0
    endloop
  endfacet
  facet normal 0 -0 -1
    outer loop
      vertex 8.30106 24.8343 0
      vertex 0 30 0
      vertex 8.59483 25.1606 0
    endloop
  endfacet
  facet normal 0 -0 -1
    outer loop
      vertex 8.08155 24.4541 0
      vertex 0 30 0
      vertex 8.30106 24.8343 0
    endloop
  endfacet
  facet normal 0 -0 -1
    outer loop
      vertex 7.94589 24.0366 0
      vertex 0 30 0
      vertex 8.08155 24.4541 0
    endloop
  endfacet
  facet normal 0 -0 -1
    outer loop
      vertex 7.9 23.6 0
      vertex 0 30 0
      vertex 7.94589 24.0366 0
    endloop
  endfacet
  facet normal 0 0 -1
    outer loop
      vertex 9.78049 4.3115 0
      vertex 22 0 0
      vertex 9.35106 4.40278 0
    endloop
  endfacet
  facet normal 0 1 0
    outer loop
      vertex 0 30 0
      vertex 0 30 7
      vertex 22 30 0
    endloop
  endfacet
  facet normal 0 1 0
    outer loop
      vertex 22 30 0
      vertex 0 30 7
      vertex 22 30 7
    endloop
  endfacet
  facet normal 0 -0 1
    outer loop
      vertex 10.6489 21.6028 7
      vertex 0 18.9781 7
      vertex 22 18.9781 7
    endloop
  endfacet
  facet normal 0 0 1
    outer loop
      vertex 10.2195 21.5115 7
      vertex 9.78049 21.5115 7
      vertex 0 18.9781 7
    endloop
  endfacet
  facet normal 0 -0 1
    outer loop
      vertex 0 30 7
      vertex 0 18.9781 7
      vertex 7.94589 23.1634 7
    endloop
  endfacet
  facet normal 0 0 1
    outer loop
      vertex 0 30 7
      vertex 7.94589 23.1634 7
      vertex 7.9 23.6 7
    endloop
  endfacet
  facet normal 0 0 1
    outer loop
      vertex 0 30 7
      vertex 7.9 23.6 7
      vertex 7.94589 24.0366 7
    endloop
  endfacet
  facet normal 0 -0 1
    outer loop
      vertex 11.9184 22.7459 7
      vertex 11.6989 22.3657 7
      vertex 22 18.9781 7
    endloop
  endfacet
  facet normal 0 0 1
    outer loop
      vertex 0 30 7
      vertex 7.94589 24.0366 7
      vertex 8.08155 24.4541 7
    endloop
  endfacet
  facet normal 0 -0 1
    outer loop
      vertex 12.0541 23.1634 7
      vertex 11.9184 22.7459 7
      vertex 22 18.9781 7
    endloop
  endfacet
  facet normal 0 0 1
    outer loop
      vertex 0 30 7
      vertex 8.08155 24.4541 7
      vertex 8.30106 24.8343 7
    endloop
  endfacet
  facet normal 0 -0 1
    outer loop
      vertex 11.6989 22.3657 7
      vertex 11.4052 22.0394 7
      vertex 22 18.9781 7
    endloop
  endfacet
  facet normal 0 0 1
    outer loop
      vertex 0 30 7
      vertex 8.30106 24.8343 7
      vertex 8.59483 25.1606 7
    endloop
  endfacet
  facet normal 0 0 1
    outer loop
      vertex 11.4052 25.1606 7
      vertex 11.6989 24.8343 7
      vertex 22 18.9781 7
    endloop
  endfacet
  facet normal 0 0 1
    outer loop
      vertex 0 30 7
      vertex 8.59483 25.1606 7
      vertex 8.95 25.4187 7
    endloop
  endfacet
  facet normal 0 0 1
    outer loop
      vertex 12.0541 24.0366 7
      vertex 12.1 23.6 7
      vertex 22 18.9781 7
    endloop
  endfacet
  facet normal 0 0 1
    outer loop
      vertex 22 30 7
      vertex 0 30 7
      vertex 9.35106 25.5972 7
    endloop
  endfacet
  facet normal 0 0 1
    outer loop
      vertex 11.9184 24.4541 7
      vertex 12.0541 24.0366 7
      vertex 22 18.9781 7
    endloop
  endfacet
  facet normal 0 0 1
    outer loop
      vertex 22 30 7
      vertex 9.35106 25.5972 7
      vertex 9.78049 25.6885 7
    endloop
  endfacet
  facet normal 0 0 1
    outer loop
      vertex 11.6989 24.8343 7
      vertex 11.9184 24.4541 7
      vertex 22 18.9781 7
    endloop
  endfacet
  facet normal 0 0 1
    outer loop
      vertex 22 30 7
      vertex 9.78049 25.6885 7
      vertex 10.2195 25.6885 7
    endloop
  endfacet
  facet normal 0 -0 1
    outer loop
      vertex 12.1 23.6 7
      vertex 12.0541 23.1634 7
      vertex 22 18.9781 7
    endloop
  endfacet
  facet normal 0 0 1
    outer loop
      vertex 22 30 7
      vertex 10.2195 25.6885 7
      vertex 10.6489 25.5972 7
    endloop
  endfacet
  facet normal 0 0 1
    outer loop
      vertex 22 30 7
      vertex 11.05 25.4187 7
      vertex 22 18.9781 7
    endloop
  endfacet
  facet normal 0 0 1
    outer loop
      vertex 22 30 7
      vertex 10.6489 25.5972 7
      vertex 11.05 25.4187 7
    endloop
  endfacet
  facet normal 0 0 1
    outer loop
      vertex 11.05 25.4187 7
      vertex 11.4052 25.1606 7
      vertex 22 18.9781 7
    endloop
  endfacet
  facet normal 0 -0 1
    outer loop
      vertex 11.4052 22.0394 7
      vertex 11.05 21.7813 7
      vertex 22 18.9781 7
    endloop
  endfacet
  facet normal 0 -0 1
    outer loop
      vertex 11.05 21.7813 7
      vertex 10.6489 21.6028 7
      vertex 22 18.9781 7
    endloop
  endfacet
  facet normal 0 -0 1
    outer loop
      vertex 10.2195 21.5115 7
      vertex 0 18.9781 7
      vertex 10.6489 21.6028 7
    endloop
  endfacet
  facet normal -0 0 1
    outer loop
      vertex 9.78049 21.5115 7
      vertex 9.35106 21.6028 7
      vertex 0 18.9781 7
    endloop
  endfacet
  facet normal 0 -0 1
    outer loop
      vertex 8.95 21.7813 7
      vertex 0 18.9781 7
      vertex 9.35106 21.6028 7
    endloop
  endfacet
  facet normal 0 -0 1
    outer loop
      vertex 8.59483 22.0394 7
      vertex 0 18.9781 7
      vertex 8.95 21.7813 7
    endloop
  endfacet
  facet normal 0 -0 1
    outer loop
      vertex 8.30106 22.3657 7
      vertex 0 18.9781 7
      vertex 8.59483 22.0394 7
    endloop
  endfacet
  facet normal 0 -0 1
    outer loop
      vertex 8.08155 22.7459 7
      vertex 0 18.9781 7
      vertex 8.30106 22.3657 7
    endloop
  endfacet
  facet normal 0 -0 1
    outer loop
      vertex 7.94589 23.1634 7
      vertex 0 18.9781 7
      vertex 8.08155 22.7459 7
    endloop
  endfacet
  facet normal 0 0 1
    outer loop
      vertex 8.95 25.4187 7
      vertex 9.35106 25.5972 7
      vertex 0 30 7
    endloop
  endfacet
  facet normal 0 -1 0
    outer loop
      vertex 22 18.9781 6.58189
      vertex 22 18.9781 7
      vertex 0 18.9781 7
    endloop
  endfacet
  facet normal 0 -1 -0
    outer loop
      vertex 0 18.9781 6.58189
      vertex 22 18.9781 6.58189
      vertex 0 18.9781 7
    endloop
  endfacet
  facet normal -4.13596e-17 -0.978147 0.207912
    outer loop
      vertex 22 18.8042 5.76393
      vertex 22 18.9781 6.58189
      vertex 0 18.9781 6.58189
    endloop
  endfacet
  facet normal -5.03627e-17 -0.978147 0.207912
    outer loop
      vertex 0 18.8042 5.76393
      vertex 22 18.8042 5.76393
      vertex 0 18.9781 6.58189
    endloop
  endfacet
  facet normal -9.98336e-17 -0.913546 0.406736
    outer loop
      vertex 22 18.4641 5
      vertex 22 18.8042 5.76393
      vertex 0 18.8042 5.76393
    endloop
  endfacet
  facet normal -8.21033e-17 -0.913546 0.406736
    outer loop
      vertex 0 18.4641 5
      vertex 22 18.4641 5
      vertex 0 18.8042 5.76393
    endloop
  endfacet
  facet normal -1.16948e-16 -0.809016 0.587786
    outer loop
      vertex 22 17.9726 4.32348
      vertex 22 18.4641 5
      vertex 0 18.4641 5
    endloop
  endfacet
  facet normal -1.4238e-16 -0.809016 0.587786
    outer loop
      vertex 0 17.9726 4.32348
      vertex 22 17.9726 4.32348
      vertex 0 18.4641 5
    endloop
  endfacet
  facet normal -1.797e-16 -0.669131 0.743144
    outer loop
      vertex 22 17.3511 3.76393
      vertex 22 17.9726 4.32348
      vertex 0 17.9726 4.32348
    endloop
  endfacet
  facet normal -1.65011e-16 -0.669131 0.743144
    outer loop
      vertex 0 17.3511 3.76393
      vertex 22 17.3511 3.76393
      vertex 0 17.9726 4.32348
    endloop
  endfacet
  facet normal -1.93962e-16 -0.5 0.866025
    outer loop
      vertex 22 16.6269 3.34582
      vertex 22 17.3511 3.76393
      vertex 0 17.3511 3.76393
    endloop
  endfacet
  facet normal -1.92296e-16 -0.5 0.866025
    outer loop
      vertex 0 16.6269 3.34582
      vertex 22 16.6269 3.34582
      vertex 0 17.3511 3.76393
    endloop
  endfacet
  facet normal -2.12503e-16 -0.309016 0.951057
    outer loop
      vertex 22 15.8316 3.08741
      vertex 22 16.6269 3.34582
      vertex 0 16.6269 3.34582
    endloop
  endfacet
  facet normal -2.11177e-16 -0.309016 0.951057
    outer loop
      vertex 0 15.8316 3.08741
      vertex 22 15.8316 3.08741
      vertex 0 16.6269 3.34582
    endloop
  endfacet
  facet normal -2.2106e-16 -0.104529 0.994522
    outer loop
      vertex 22 15 3
      vertex 22 15.8316 3.08741
      vertex 0 15.8316 3.08741
    endloop
  endfacet
  facet normal -2.20828e-16 -0.104529 0.994522
    outer loop
      vertex 0 15 3
      vertex 22 15 3
      vertex 0 15.8316 3.08741
    endloop
  endfacet
  facet normal -2.2106e-16 0.104529 0.994522
    outer loop
      vertex 22 14.1684 3.08741
      vertex 22 15 3
      vertex 0 15 3
    endloop
  endfacet
  facet normal -2.20828e-16 0.104529 0.994522
    outer loop
      vertex 0 14.1684 3.08741
      vertex 22 14.1684 3.08741
      vertex 0 15 3
    endloop
  endfacet
  facet normal -2.11077e-16 0.309016 0.951057
    outer loop
      vertex 22 13.3731 3.34582
      vertex 22 14.1684 3.08741
      vertex 0 14.1684 3.08741
    endloop
  endfacet
  facet normal -2.11177e-16 0.309016 0.951057
    outer loop
      vertex 0 13.3731 3.34582
      vertex 22 13.3731 3.34582
      vertex 0 14.1684 3.08741
    endloop
  endfacet
  facet normal -1.93962e-16 0.5 0.866025
    outer loop
      vertex 22 12.6489 3.76393
      vertex 22 13.3731 3.34582
      vertex 0 13.3731 3.34582
    endloop
  endfacet
  facet normal -1.92296e-16 0.5 0.866025
    outer loop
      vertex 0 12.6489 3.76393
      vertex 22 12.6489 3.76393
      vertex 0 13.3731 3.34582
    endloop
  endfacet
  facet normal -1.65438e-16 0.669131 0.743144
    outer loop
      vertex 22 12.0274 4.32348
      vertex 22 12.6489 3.76393
      vertex 0 12.6489 3.76393
    endloop
  endfacet
  facet normal -1.80012e-16 0.669131 0.743144
    outer loop
      vertex 0 12.0274 4.32348
      vertex 22 12.0274 4.32348
      vertex 0 12.6489 3.76393
    endloop
  endfacet
  facet normal -1.4238e-16 0.809016 0.587786
    outer loop
      vertex 22 12.0274 4.32348
      vertex 0 12.0274 4.32348
      vertex 22 11.5359 5
    endloop
  endfacet
  facet normal -1.1865e-16 0.809016 0.587786
    outer loop
      vertex 22 11.5359 5
      vertex 0 12.0274 4.32348
      vertex 0 11.5359 5
    endloop
  endfacet
  facet normal -8.21033e-17 0.913546 0.406736
    outer loop
      vertex 22 11.5359 5
      vertex 0 11.5359 5
      vertex 22 11.1958 5.76393
    endloop
  endfacet
  facet normal -9.85239e-17 0.913546 0.406736
    outer loop
      vertex 22 11.1958 5.76393
      vertex 0 11.5359 5
      vertex 0 11.1958 5.76393
    endloop
  endfacet
  facet normal -5.03627e-17 0.978147 0.207912
    outer loop
      vertex 22 11.1958 5.76393
      vertex 0 11.1958 5.76393
      vertex 22 11.0219 6.58189
    endloop
  endfacet
  facet normal -4.19689e-17 0.978147 0.207912
    outer loop
      vertex 22 11.0219 6.58189
      vertex 0 11.1958 5.76393
      vertex 0 11.0219 6.58189
    endloop
  endfacet
  facet normal 0 1 0
    outer loop
      vertex 22 11.0219 7
      vertex 22 11.0219 6.58189
      vertex 0 11.0219 7
    endloop
  endfacet
  facet normal 0 1 -0
    outer loop
      vertex 0 11.0219 7
      vertex 22 11.0219 6.58189
      vertex 0 11.0219 6.58189
    endloop
  endfacet
  facet normal 0 -0 1
    outer loop
      vertex 10.6489 4.40278 7
      vertex 0 0 7
      vertex 22 0 7
    endloop
  endfacet
  facet normal 0 0 1
    outer loop
      vertex 10.6489 4.40278 7
      vertex 10.2195 4.3115 7
      vertex 0 0 7
    endloop
  endfacet
  facet normal 0 -0 1
    outer loop
      vertex 0 11.0219 7
      vertex 0 0 7
      vertex 7.94589 5.96338 7
    endloop
  endfacet
  facet normal 0 0 1
    outer loop
      vertex 0 11.0219 7
      vertex 7.94589 5.96338 7
      vertex 7.9 6.4 7
    endloop
  endfacet
  facet normal 0 0 1
    outer loop
      vertex 9.78049 8.4885 7
      vertex 10.2195 8.4885 7
      vertex 22 11.0219 7
    endloop
  endfacet
  facet normal 0 0 1
    outer loop
      vertex 0 11.0219 7
      vertex 7.9 6.4 7
      vertex 7.94589 6.83661 7
    endloop
  endfacet
  facet normal 0 -0 1
    outer loop
      vertex 11.6989 5.16565 7
      vertex 11.4052 4.8394 7
      vertex 22 0 7
    endloop
  endfacet
  facet normal -0 0 1
    outer loop
      vertex 8.30106 7.63435 7
      vertex 0 11.0219 7
      vertex 8.08155 7.25415 7
    endloop
  endfacet
  facet normal -0 0 1
    outer loop
      vertex 8.59483 7.9606 7
      vertex 0 11.0219 7
      vertex 8.30106 7.63435 7
    endloop
  endfacet
  facet normal -0 0 1
    outer loop
      vertex 8.95 8.21865 7
      vertex 0 11.0219 7
      vertex 8.59483 7.9606 7
    endloop
  endfacet
  facet normal -0 0 1
    outer loop
      vertex 9.35106 8.39722 7
      vertex 0 11.0219 7
      vertex 8.95 8.21865 7
    endloop
  endfacet
  facet normal 0 0 1
    outer loop
      vertex 10.2195 8.4885 7
      vertex 10.6489 8.39722 7
      vertex 22 11.0219 7
    endloop
  endfacet
  facet normal -0 0 1
    outer loop
      vertex 9.78049 8.4885 7
      vertex 0 11.0219 7
      vertex 9.35106 8.39722 7
    endloop
  endfacet
  facet normal 0 -0 1
    outer loop
      vertex 11.4052 4.8394 7
      vertex 11.05 4.58135 7
      vertex 22 0 7
    endloop
  endfacet
  facet normal 0 0 1
    outer loop
      vertex 22 11.0219 7
      vertex 0 11.0219 7
      vertex 9.78049 8.4885 7
    endloop
  endfacet
  facet normal 0 0 1
    outer loop
      vertex 10.6489 8.39722 7
      vertex 11.05 8.21865 7
      vertex 22 11.0219 7
    endloop
  endfacet
  facet normal 0 0 1
    outer loop
      vertex 11.05 8.21865 7
      vertex 11.4052 7.9606 7
      vertex 22 11.0219 7
    endloop
  endfacet
  facet normal 0 -0 1
    outer loop
      vertex 11.9184 5.54585 7
      vertex 11.6989 5.16565 7
      vertex 22 0 7
    endloop
  endfacet
  facet normal 0 0 1
    outer loop
      vertex 22 11.0219 7
      vertex 11.4052 7.9606 7
      vertex 22 0 7
    endloop
  endfacet
  facet normal 0 0 1
    outer loop
      vertex 11.4052 7.9606 7
      vertex 11.6989 7.63435 7
      vertex 22 0 7
    endloop
  endfacet
  facet normal 0 0 1
    outer loop
      vertex 11.6989 7.63435 7
      vertex 11.9184 7.25415 7
      vertex 22 0 7
    endloop
  endfacet
  facet normal 0 0 1
    outer loop
      vertex 11.9184 7.25415 7
      vertex 12.0541 6.83661 7
      vertex 22 0 7
    endloop
  endfacet
  facet normal 0 0 1
    outer loop
      vertex 12.0541 6.83661 7
      vertex 12.1 6.4 7
      vertex 22 0 7
    endloop
  endfacet
  facet normal 0 -0 1
    outer loop
      vertex 12.1 6.4 7
      vertex 12.0541 5.96338 7
      vertex 22 0 7
    endloop
  endfacet
  facet normal 0 -0 1
    outer loop
      vertex 12.0541 5.96338 7
      vertex 11.9184 5.54585 7
      vertex 22 0 7
    endloop
  endfacet
  facet normal 0 -0 1
    outer loop
      vertex 11.05 4.58135 7
      vertex 10.6489 4.40278 7
      vertex 22 0 7
    endloop
  endfacet
  facet normal 0 -0 1
    outer loop
      vertex 9.78049 4.3115 7
      vertex 0 0 7
      vertex 10.2195 4.3115 7
    endloop
  endfacet
  facet normal 0 -0 1
    outer loop
      vertex 9.35106 4.40278 7
      vertex 0 0 7
      vertex 9.78049 4.3115 7
    endloop
  endfacet
  facet normal 0 -0 1
    outer loop
      vertex 8.95 4.58135 7
      vertex 0 0 7
      vertex 9.35106 4.40278 7
    endloop
  endfacet
  facet normal 0 -0 1
    outer loop
      vertex 8.59483 4.8394 7
      vertex 0 0 7
      vertex 8.95 4.58135 7
    endloop
  endfacet
  facet normal 0 -0 1
    outer loop
      vertex 8.30106 5.16565 7
      vertex 0 0 7
      vertex 8.59483 4.8394 7
    endloop
  endfacet
  facet normal 0 -0 1
    outer loop
      vertex 8.08155 5.54585 7
      vertex 0 0 7
      vertex 8.30106 5.16565 7
    endloop
  endfacet
  facet normal 0 -0 1
    outer loop
      vertex 7.94589 5.96338 7
      vertex 0 0 7
      vertex 8.08155 5.54585 7
    endloop
  endfacet
  facet normal 0 0 1
    outer loop
      vertex 7.94589 6.83661 7
      vertex 8.08155 7.25415 7
      vertex 0 11.0219 7
    endloop
  endfacet
  facet normal 1 0 -0
    outer loop
      vertex 22 15.8316 3.08741
      vertex 22 0 0
      vertex 22 30 0
    endloop
  endfacet
  facet normal 1 0 0
    outer loop
      vertex 22 13.3731 3.34582
      vertex 22 12.6489 3.76393
      vertex 22 0 7
    endloop
  endfacet
  facet normal 1 0 0
    outer loop
      vertex 22 30 7
      vertex 22 18.9781 7
      vertex 22 30 0
    endloop
  endfacet
  facet normal 1 0 -0
    outer loop
      vertex 22 18.9781 7
      vertex 22 18.9781 6.58189
      vertex 22 30 0
    endloop
  endfacet
  facet normal 1 0 -0
    outer loop
      vertex 22 18.9781 6.58189
      vertex 22 18.8042 5.76393
      vertex 22 30 0
    endloop
  endfacet
  facet normal 1 0 -0
    outer loop
      vertex 22 18.8042 5.76393
      vertex 22 18.4641 5
      vertex 22 30 0
    endloop
  endfacet
  facet normal 1 0 0
    outer loop
      vertex 22 11.0219 6.58189
      vertex 22 11.0219 7
      vertex 22 0 7
    endloop
  endfacet
  facet normal 1 0 -0
    outer loop
      vertex 22 18.4641 5
      vertex 22 17.9726 4.32348
      vertex 22 30 0
    endloop
  endfacet
  facet normal 1 0 -0
    outer loop
      vertex 22 17.9726 4.32348
      vertex 22 17.3511 3.76393
      vertex 22 30 0
    endloop
  endfacet
  facet normal 1 0 -0
    outer loop
      vertex 22 17.3511 3.76393
      vertex 22 16.6269 3.34582
      vertex 22 30 0
    endloop
  endfacet
  facet normal 1 0 0
    outer loop
      vertex 22 11.5359 5
      vertex 22 11.1958 5.76393
      vertex 22 0 7
    endloop
  endfacet
  facet normal 1 0 -0
    outer loop
      vertex 22 15 3
      vertex 22 0 0
      vertex 22 15.8316 3.08741
    endloop
  endfacet
  facet normal 1 0 -0
    outer loop
      vertex 22 14.1684 3.08741
      vertex 22 0 0
      vertex 22 15 3
    endloop
  endfacet
  facet normal 1 0 -0
    outer loop
      vertex 22 0 7
      vertex 22 0 0
      vertex 22 14.1684 3.08741
    endloop
  endfacet
  facet normal 1 0 0
    outer loop
      vertex 22 12.6489 3.76393
      vertex 22 12.0274 4.32348
      vertex 22 0 7
    endloop
  endfacet
  facet normal 1 0 0
    outer loop
      vertex 22 0 7
      vertex 22 14.1684 3.08741
      vertex 22 13.3731 3.34582
    endloop
  endfacet
  facet normal 1 0 0
    outer loop
      vertex 22 12.0274 4.32348
      vertex 22 11.5359 5
      vertex 22 0 7
    endloop
  endfacet
  facet normal 1 0 0
    outer loop
      vertex 22 11.1958 5.76393
      vertex 22 11.0219 6.58189
      vertex 22 0 7
    endloop
  endfacet
  facet normal 1 0 -0
    outer loop
      vertex 22 16.6269 3.34582
      vertex 22 15.8316 3.08741
      vertex 22 30 0
    endloop
  endfacet
  facet normal 0.994522 -0.104528 0
    outer loop
      vertex 7.94589 6.83661 0
      vertex 7.94589 6.83661 7
      vertex 7.9 6.4 7
    endloop
  endfacet
  facet normal 0.994522 -0.104528 0
    outer loop
      vertex 7.9 6.4 0
      vertex 7.94589 6.83661 0
      vertex 7.9 6.4 7
    endloop
  endfacet
  facet normal 0.994522 0.104528 0
    outer loop
      vertex 7.9 6.4 7
      vertex 7.94589 5.96338 7
      vertex 7.94589 5.96338 0
    endloop
  endfacet
  facet normal 0.994522 0.104528 0
    outer loop
      vertex 7.9 6.4 0
      vertex 7.9 6.4 7
      vertex 7.94589 5.96338 0
    endloop
  endfacet
  facet normal 0.951056 -0.309018 0
    outer loop
      vertex 8.08155 7.25415 0
      vertex 8.08155 7.25415 7
      vertex 7.94589 6.83661 7
    endloop
  endfacet
  facet normal 0.951056 -0.309018 0
    outer loop
      vertex 7.94589 6.83661 0
      vertex 8.08155 7.25415 0
      vertex 7.94589 6.83661 7
    endloop
  endfacet
  facet normal 0.866026 -0.499999 0
    outer loop
      vertex 8.30106 7.63435 0
      vertex 8.30106 7.63435 7
      vertex 8.08155 7.25415 7
    endloop
  endfacet
  facet normal 0.866026 -0.499999 0
    outer loop
      vertex 8.08155 7.25415 0
      vertex 8.30106 7.63435 0
      vertex 8.08155 7.25415 7
    endloop
  endfacet
  facet normal 0.743144 -0.669131 0
    outer loop
      vertex 8.59483 7.9606 0
      vertex 8.59483 7.9606 7
      vertex 8.30106 7.63435 7
    endloop
  endfacet
  facet normal 0.743144 -0.669131 0
    outer loop
      vertex 8.30106 7.63435 0
      vertex 8.59483 7.9606 0
      vertex 8.30106 7.63435 7
    endloop
  endfacet
  facet normal 0.587785 -0.809017 0
    outer loop
      vertex 8.95 8.21865 0
      vertex 8.95 8.21865 7
      vertex 8.59483 7.9606 7
    endloop
  endfacet
  facet normal 0.587785 -0.809017 0
    outer loop
      vertex 8.59483 7.9606 0
      vertex 8.95 8.21865 0
      vertex 8.59483 7.9606 7
    endloop
  endfacet
  facet normal 0.406738 -0.913545 0
    outer loop
      vertex 9.35106 8.39722 0
      vertex 9.35106 8.39722 7
      vertex 8.95 8.21865 7
    endloop
  endfacet
  facet normal 0.406738 -0.913545 0
    outer loop
      vertex 8.95 8.21865 0
      vertex 9.35106 8.39722 0
      vertex 8.95 8.21865 7
    endloop
  endfacet
  facet normal 0.207911 -0.978148 0
    outer loop
      vertex 9.78049 8.4885 0
      vertex 9.78049 8.4885 7
      vertex 9.35106 8.39722 7
    endloop
  endfacet
  facet normal 0.207911 -0.978148 0
    outer loop
      vertex 9.35106 8.39722 0
      vertex 9.78049 8.4885 0
      vertex 9.35106 8.39722 7
    endloop
  endfacet
  facet normal 0 -1 0
    outer loop
      vertex 10.2195 8.4885 0
      vertex 10.2195 8.4885 7
      vertex 9.78049 8.4885 7
    endloop
  endfacet
  facet normal -0 -1 -0
    outer loop
      vertex 9.78049 8.4885 0
      vertex 10.2195 8.4885 0
      vertex 9.78049 8.4885 7
    endloop
  endfacet
  facet normal -0.207911 -0.978148 -0
    outer loop
      vertex 10.6489 8.39722 0
      vertex 10.6489 8.39722 7
      vertex 10.2195 8.4885 7
    endloop
  endfacet
  facet normal -0.207911 -0.978148 -0
    outer loop
      vertex 10.2195 8.4885 0
      vertex 10.6489 8.39722 0
      vertex 10.2195 8.4885 7
    endloop
  endfacet
  facet normal -0.406738 -0.913545 -0
    outer loop
      vertex 11.05 8.21865 0
      vertex 11.05 8.21865 7
      vertex 10.6489 8.39722 7
    endloop
  endfacet
  facet normal -0.406738 -0.913545 -0
    outer loop
      vertex 10.6489 8.39722 0
      vertex 11.05 8.21865 0
      vertex 10.6489 8.39722 7
    endloop
  endfacet
  facet normal -0.587785 -0.809017 -0
    outer loop
      vertex 11.4052 7.9606 0
      vertex 11.4052 7.9606 7
      vertex 11.05 8.21865 7
    endloop
  endfacet
  facet normal -0.587785 -0.809017 -0
    outer loop
      vertex 11.05 8.21865 0
      vertex 11.4052 7.9606 0
      vertex 11.05 8.21865 7
    endloop
  endfacet
  facet normal -0.743144 -0.669131 0
    outer loop
      vertex 11.6989 7.63435 7
      vertex 11.4052 7.9606 7
      vertex 11.6989 7.63435 0
    endloop
  endfacet
  facet normal -0.743144 -0.669131 0
    outer loop
      vertex 11.6989 7.63435 0
      vertex 11.4052 7.9606 7
      vertex 11.4052 7.9606 0
    endloop
  endfacet
  facet normal -0.866026 -0.499999 0
    outer loop
      vertex 11.9184 7.25415 7
      vertex 11.6989 7.63435 7
      vertex 11.9184 7.25415 0
    endloop
  endfacet
  facet normal -0.866026 -0.499999 0
    outer loop
      vertex 11.9184 7.25415 0
      vertex 11.6989 7.63435 7
      vertex 11.6989 7.63435 0
    endloop
  endfacet
  facet normal -0.951056 -0.309018 0
    outer loop
      vertex 12.0541 6.83661 7
      vertex 11.9184 7.25415 7
      vertex 12.0541 6.83661 0
    endloop
  endfacet
  facet normal -0.951056 -0.309018 0
    outer loop
      vertex 12.0541 6.83661 0
      vertex 11.9184 7.25415 7
      vertex 11.9184 7.25415 0
    endloop
  endfacet
  facet normal -0.994522 -0.104528 0
    outer loop
      vertex 12.1 6.4 7
      vertex 12.0541 6.83661 7
      vertex 12.1 6.4 0
    endloop
  endfacet
  facet normal -0.994522 -0.104528 0
    outer loop
      vertex 12.1 6.4 0
      vertex 12.0541 6.83661 7
      vertex 12.0541 6.83661 0
    endloop
  endfacet
  facet normal -0.994522 0.104528 0
    outer loop
      vertex 12.1 6.4 7
      vertex 12.1 6.4 0
      vertex 12.0541 5.96338 7
    endloop
  endfacet
  facet normal -0.994522 0.104528 0
    outer loop
      vertex 12.0541 5.96338 7
      vertex 12.1 6.4 0
      vertex 12.0541 5.96338 0
    endloop
  endfacet
  facet normal -0.951056 0.309018 0
    outer loop
      vertex 12.0541 5.96338 7
      vertex 12.0541 5.96338 0
      vertex 11.9184 5.54585 7
    endloop
  endfacet
  facet normal -0.951056 0.309018 0
    outer loop
      vertex 11.9184 5.54585 7
      vertex 12.0541 5.96338 0
      vertex 11.9184 5.54585 0
    endloop
  endfacet
  facet normal -0.866026 0.499999 0
    outer loop
      vertex 11.9184 5.54585 7
      vertex 11.9184 5.54585 0
      vertex 11.6989 5.16565 7
    endloop
  endfacet
  facet normal -0.866026 0.499999 0
    outer loop
      vertex 11.6989 5.16565 7
      vertex 11.9184 5.54585 0
      vertex 11.6989 5.16565 0
    endloop
  endfacet
  facet normal -0.743144 0.669131 0
    outer loop
      vertex 11.6989 5.16565 7
      vertex 11.6989 5.16565 0
      vertex 11.4052 4.8394 7
    endloop
  endfacet
  facet normal -0.743144 0.669131 0
    outer loop
      vertex 11.4052 4.8394 7
      vertex 11.6989 5.16565 0
      vertex 11.4052 4.8394 0
    endloop
  endfacet
  facet normal -0.587785 0.809017 0
    outer loop
      vertex 11.4052 4.8394 7
      vertex 11.4052 4.8394 0
      vertex 11.05 4.58135 7
    endloop
  endfacet
  facet normal -0.587785 0.809017 0
    outer loop
      vertex 11.05 4.58135 7
      vertex 11.4052 4.8394 0
      vertex 11.05 4.58135 0
    endloop
  endfacet
  facet normal -0.406738 0.913545 0
    outer loop
      vertex 11.05 4.58135 7
      vertex 11.05 4.58135 0
      vertex 10.6489 4.40278 7
    endloop
  endfacet
  facet normal -0.406738 0.913545 0
    outer loop
      vertex 10.6489 4.40278 7
      vertex 11.05 4.58135 0
      vertex 10.6489 4.40278 0
    endloop
  endfacet
  facet normal -0.207911 0.978148 0
    outer loop
      vertex 10.6489 4.40278 7
      vertex 10.6489 4.40278 0
      vertex 10.2195 4.3115 7
    endloop
  endfacet
  facet normal -0.207911 0.978148 0
    outer loop
      vertex 10.2195 4.3115 7
      vertex 10.6489 4.40278 0
      vertex 10.2195 4.3115 0
    endloop
  endfacet
  facet normal 0 1 0
    outer loop
      vertex 10.2195 4.3115 7
      vertex 10.2195 4.3115 0
      vertex 9.78049 4.3115 7
    endloop
  endfacet
  facet normal 0 1 -0
    outer loop
      vertex 9.78049 4.3115 7
      vertex 10.2195 4.3115 0
      vertex 9.78049 4.3115 0
    endloop
  endfacet
  facet normal 0.207911 0.978148 -0
    outer loop
      vertex 9.78049 4.3115 7
      vertex 9.78049 4.3115 0
      vertex 9.35106 4.40278 7
    endloop
  endfacet
  facet normal 0.207911 0.978148 -0
    outer loop
      vertex 9.35106 4.40278 7
      vertex 9.78049 4.3115 0
      vertex 9.35106 4.40278 0
    endloop
  endfacet
  facet normal 0.406738 0.913545 -0
    outer loop
      vertex 9.35106 4.40278 7
      vertex 9.35106 4.40278 0
      vertex 8.95 4.58135 7
    endloop
  endfacet
  facet normal 0.406738 0.913545 -0
    outer loop
      vertex 8.95 4.58135 7
      vertex 9.35106 4.40278 0
      vertex 8.95 4.58135 0
    endloop
  endfacet
  facet normal 0.587785 0.809017 -0
    outer loop
      vertex 8.95 4.58135 7
      vertex 8.95 4.58135 0
      vertex 8.59483 4.8394 7
    endloop
  endfacet
  facet normal 0.587785 0.809017 -0
    outer loop
      vertex 8.59483 4.8394 7
      vertex 8.95 4.58135 0
      vertex 8.59483 4.8394 0
    endloop
  endfacet
  facet normal 0.743144 0.669131 0
    outer loop
      vertex 8.30106 5.16565 7
      vertex 8.59483 4.8394 7
      vertex 8.59483 4.8394 0
    endloop
  endfacet
  facet normal 0.743144 0.669131 0
    outer loop
      vertex 8.30106 5.16565 0
      vertex 8.30106 5.16565 7
      vertex 8.59483 4.8394 0
    endloop
  endfacet
  facet normal 0.866026 0.499999 0
    outer loop
      vertex 8.08155 5.54585 7
      vertex 8.30106 5.16565 7
      vertex 8.30106 5.16565 0
    endloop
  endfacet
  facet normal 0.866026 0.499999 0
    outer loop
      vertex 8.08155 5.54585 0
      vertex 8.08155 5.54585 7
      vertex 8.30106 5.16565 0
    endloop
  endfacet
  facet normal 0.951056 0.309018 0
    outer loop
      vertex 7.94589 5.96338 7
      vertex 8.08155 5.54585 7
      vertex 8.08155 5.54585 0
    endloop
  endfacet
  facet normal 0.951056 0.309018 0
    outer loop
      vertex 7.94589 5.96338 0
      vertex 7.94589 5.96338 7
      vertex 8.08155 5.54585 0
    endloop
  endfacet
  facet normal 0.994522 -0.104528 0
    outer loop
      vertex 7.94589 24.0366 0
      vertex 7.94589 24.0366 7
      vertex 7.9 23.6 7
    endloop
  endfacet
  facet normal 0.994522 -0.104528 0
    outer loop
      vertex 7.9 23.6 0
      vertex 7.94589 24.0366 0
      vertex 7.9 23.6 7
    endloop
  endfacet
  facet normal 0.994522 0.104528 0
    outer loop
      vertex 7.9 23.6 7
      vertex 7.94589 23.1634 7
      vertex 7.94589 23.1634 0
    endloop
  endfacet
  facet normal 0.994522 0.104528 0
    outer loop
      vertex 7.9 23.6 0
      vertex 7.9 23.6 7
      vertex 7.94589 23.1634 0
    endloop
  endfacet
  facet normal 0.951056 -0.309018 0
    outer loop
      vertex 8.08155 24.4541 0
      vertex 8.08155 24.4541 7
      vertex 7.94589 24.0366 7
    endloop
  endfacet
  facet normal 0.951056 -0.309018 0
    outer loop
      vertex 7.94589 24.0366 0
      vertex 8.08155 24.4541 0
      vertex 7.94589 24.0366 7
    endloop
  endfacet
  facet normal 0.866026 -0.499999 0
    outer loop
      vertex 8.30106 24.8343 0
      vertex 8.30106 24.8343 7
      vertex 8.08155 24.4541 7
    endloop
  endfacet
  facet normal 0.866026 -0.499999 0
    outer loop
      vertex 8.08155 24.4541 0
      vertex 8.30106 24.8343 0
      vertex 8.08155 24.4541 7
    endloop
  endfacet
  facet normal 0.743144 -0.669131 0
    outer loop
      vertex 8.59483 25.1606 0
      vertex 8.59483 25.1606 7
      vertex 8.30106 24.8343 7
    endloop
  endfacet
  facet normal 0.743144 -0.669131 0
    outer loop
      vertex 8.30106 24.8343 0
      vertex 8.59483 25.1606 0
      vertex 8.30106 24.8343 7
    endloop
  endfacet
  facet normal 0.587785 -0.809017 0
    outer loop
      vertex 8.95 25.4187 0
      vertex 8.95 25.4187 7
      vertex 8.59483 25.1606 7
    endloop
  endfacet
  facet normal 0.587785 -0.809017 0
    outer loop
      vertex 8.59483 25.1606 0
      vertex 8.95 25.4187 0
      vertex 8.59483 25.1606 7
    endloop
  endfacet
  facet normal 0.406738 -0.913545 0
    outer loop
      vertex 9.35106 25.5972 0
      vertex 9.35106 25.5972 7
      vertex 8.95 25.4187 7
    endloop
  endfacet
  facet normal 0.406738 -0.913545 0
    outer loop
      vertex 8.95 25.4187 0
      vertex 9.35106 25.5972 0
      vertex 8.95 25.4187 7
    endloop
  endfacet
  facet normal 0.207911 -0.978148 0
    outer loop
      vertex 9.78049 25.6885 0
      vertex 9.78049 25.6885 7
      vertex 9.35106 25.5972 7
    endloop
  endfacet
  facet normal 0.207911 -0.978148 0
    outer loop
      vertex 9.35106 25.5972 0
      vertex 9.78049 25.6885 0
      vertex 9.35106 25.5972 7
    endloop
  endfacet
  facet normal 0 -1 0
    outer loop
      vertex 10.2195 25.6885 0
      vertex 10.2195 25.6885 7
      vertex 9.78049 25.6885 7
    endloop
  endfacet
  facet normal -0 -1 -0
    outer loop
      vertex 9.78049 25.6885 0
      vertex 10.2195 25.6885 0
      vertex 9.78049 25.6885 7
    endloop
  endfacet
  facet normal -0.207911 -0.978148 -0
    outer loop
      vertex 10.6489 25.5972 0
      vertex 10.6489 25.5972 7
      vertex 10.2195 25.6885 7
    endloop
  endfacet
  facet normal -0.207911 -0.978148 -0
    outer loop
      vertex 10.2195 25.6885 0
      vertex 10.6489 25.5972 0
      vertex 10.2195 25.6885 7
    endloop
  endfacet
  facet normal -0.406738 -0.913545 -0
    outer loop
      vertex 11.05 25.4187 0
      vertex 11.05 25.4187 7
      vertex 10.6489 25.5972 7
    endloop
  endfacet
  facet normal -0.406738 -0.913545 -0
    outer loop
      vertex 10.6489 25.5972 0
      vertex 11.05 25.4187 0
      vertex 10.6489 25.5972 7
    endloop
  endfacet
  facet normal -0.587785 -0.809017 -0
    outer loop
      vertex 11.4052 25.1606 0
      vertex 11.4052 25.1606 7
      vertex 11.05 25.4187 7
    endloop
  endfacet
  facet normal -0.587785 -0.809017 -0
    outer loop
      vertex 11.05 25.4187 0
      vertex 11.4052 25.1606 0
      vertex 11.05 25.4187 7
    endloop
  endfacet
  facet normal -0.743144 -0.669131 0
    outer loop
      vertex 11.6989 24.8343 7
      vertex 11.4052 25.1606 7
      vertex 11.6989 24.8343 0
    endloop
  endfacet
  facet normal -0.743144 -0.669131 0
    outer loop
      vertex 11.6989 24.8343 0
      vertex 11.4052 25.1606 7
      vertex 11.4052 25.1606 0
    endloop
  endfacet
  facet normal -0.866026 -0.499999 0
    outer loop
      vertex 11.9184 24.4541 7
      vertex 11.6989 24.8343 7
      vertex 11.9184 24.4541 0
    endloop
  endfacet
  facet normal -0.866026 -0.499999 0
    outer loop
      vertex 11.9184 24.4541 0
      vertex 11.6989 24.8343 7
      vertex 11.6989 24.8343 0
    endloop
  endfacet
  facet normal -0.951056 -0.309018 0
    outer loop
      vertex 12.0541 24.0366 7
      vertex 11.9184 24.4541 7
      vertex 12.0541 24.0366 0
    endloop
  endfacet
  facet normal -0.951056 -0.309018 0
    outer loop
      vertex 12.0541 24.0366 0
      vertex 11.9184 24.4541 7
      vertex 11.9184 24.4541 0
    endloop
  endfacet
  facet normal -0.994522 -0.104528 0
    outer loop
      vertex 12.1 23.6 7
      vertex 12.0541 24.0366 7
      vertex 12.1 23.6 0
    endloop
  endfacet
  facet normal -0.994522 -0.104528 0
    outer loop
      vertex 12.1 23.6 0
      vertex 12.0541 24.0366 7
      vertex 12.0541 24.0366 0
    endloop
  endfacet
  facet normal -0.994522 0.104528 0
    outer loop
      vertex 12.1 23.6 7
      vertex 12.1 23.6 0
      vertex 12.0541 23.1634 7
    endloop
  endfacet
  facet normal -0.994522 0.104528 0
    outer loop
      vertex 12.0541 23.1634 7
      vertex 12.1 23.6 0
      vertex 12.0541 23.1634 0
    endloop
  endfacet
  facet normal -0.951056 0.309018 0
    outer loop
      vertex 12.0541 23.1634 7
      vertex 12.0541 23.1634 0
      vertex 11.9184 22.7459 7
    endloop
  endfacet
  facet normal -0.951056 0.309018 0
    outer loop
      vertex 11.9184 22.7459 7
      vertex 12.0541 23.1634 0
      vertex 11.9184 22.7459 0
    endloop
  endfacet
  facet normal -0.866026 0.499999 0
    outer loop
      vertex 11.9184 22.7459 7
      vertex 11.9184 22.7459 0
      vertex 11.6989 22.3657 7
    endloop
  endfacet
  facet normal -0.866026 0.499999 0
    outer loop
      vertex 11.6989 22.3657 7
      vertex 11.9184 22.7459 0
      vertex 11.6989 22.3657 0
    endloop
  endfacet
  facet normal -0.743144 0.669131 0
    outer loop
      vertex 11.6989 22.3657 7
      vertex 11.6989 22.3657 0
      vertex 11.4052 22.0394 7
    endloop
  endfacet
  facet normal -0.743144 0.669131 0
    outer loop
      vertex 11.4052 22.0394 7
      vertex 11.6989 22.3657 0
      vertex 11.4052 22.0394 0
    endloop
  endfacet
  facet normal -0.587785 0.809017 0
    outer loop
      vertex 11.4052 22.0394 7
      vertex 11.4052 22.0394 0
      vertex 11.05 21.7813 7
    endloop
  endfacet
  facet normal -0.587785 0.809017 0
    outer loop
      vertex 11.05 21.7813 7
      vertex 11.4052 22.0394 0
      vertex 11.05 21.7813 0
    endloop
  endfacet
  facet normal -0.406738 0.913545 0
    outer loop
      vertex 11.05 21.7813 7
      vertex 11.05 21.7813 0
      vertex 10.6489 21.6028 7
    endloop
  endfacet
  facet normal -0.406738 0.913545 0
    outer loop
      vertex 10.6489 21.6028 7
      vertex 11.05 21.7813 0
      vertex 10.6489 21.6028 0
    endloop
  endfacet
  facet normal -0.207911 0.978148 0
    outer loop
      vertex 10.6489 21.6028 7
      vertex 10.6489 21.6028 0
      vertex 10.2195 21.5115 7
    endloop
  endfacet
  facet normal -0.207911 0.978148 0
    outer loop
      vertex 10.2195 21.5115 7
      vertex 10.6489 21.6028 0
      vertex 10.2195 21.5115 0
    endloop
  endfacet
  facet normal 0 1 0
    outer loop
      vertex 10.2195 21.5115 7
      vertex 10.2195 21.5115 0
      vertex 9.78049 21.5115 7
    endloop
  endfacet
  facet normal 0 1 -0
    outer loop
      vertex 9.78049 21.5115 7
      vertex 10.2195 21.5115 0
      vertex 9.78049 21.5115 0
    endloop
  endfacet
  facet normal 0.207911 0.978148 -0
    outer loop
      vertex 9.78049 21.5115 7
      vertex 9.78049 21.5115 0
      vertex 9.35106 21.6028 7
    endloop
  endfacet
  facet normal 0.207911 0.978148 -0
    outer loop
      vertex 9.35106 21.6028 7
      vertex 9.78049 21.5115 0
      vertex 9.35106 21.6028 0
    endloop
  endfacet
  facet normal 0.406738 0.913545 -0
    outer loop
      vertex 9.35106 21.6028 7
      vertex 9.35106 21.6028 0
      vertex 8.95 21.7813 7
    endloop
  endfacet
  facet normal 0.406738 0.913545 -0
    outer loop
      vertex 8.95 21.7813 7
      vertex 9.35106 21.6028 0
      vertex 8.95 21.7813 0
    endloop
  endfacet
  facet normal 0.587785 0.809017 -0
    outer loop
      vertex 8.95 21.7813 7
      vertex 8.95 21.7813 0
      vertex 8.59483 22.0394 7
    endloop
  endfacet
  facet normal 0.587785 0.809017 -0
    outer loop
      vertex 8.59483 22.0394 7
      vertex 8.95 21.7813 0
      vertex 8.59483 22.0394 0
    endloop
  endfacet
  facet normal 0.743144 0.669131 0
    outer loop
      vertex 8.30106 22.3657 7
      vertex 8.59483 22.0394 7
      vertex 8.59483 22.0394 0
    endloop
  endfacet
  facet normal 0.743144 0.669131 0
    outer loop
      vertex 8.30106 22.3657 0
      vertex 8.30106 22.3657 7
      vertex 8.59483 22.0394 0
    endloop
  endfacet
  facet normal 0.866026 0.499999 0
    outer loop
      vertex 8.08155 22.7459 7
      vertex 8.30106 22.3657 7
      vertex 8.30106 22.3657 0
    endloop
  endfacet
  facet normal 0.866026 0.499999 0
    outer loop
      vertex 8.08155 22.7459 0
      vertex 8.08155 22.7459 7
      vertex 8.30106 22.3657 0
    endloop
  endfacet
  facet normal 0.951056 0.309018 0
    outer loop
      vertex 7.94589 23.1634 7
      vertex 8.08155 22.7459 7
      vertex 8.08155 22.7459 0
    endloop
  endfacet
  facet normal 0.951056 0.309018 0
    outer loop
      vertex 7.94589 23.1634 0
      vertex 7.94589 23.1634 7
      vertex 8.08155 22.7459 0
    endloop
  endfacet
endsolid OpenSCAD_Model
