solid OpenSCAD_Model
  facet normal -1 -0 -0
    outer loop
      vertex 0 0 0
      vertex 0 0 9.95
      vertex 0 30 0
    endloop
  endfacet
  facet normal -1 0 0
    outer loop
      vertex 0 11.1214 9.54234
      vertex 0 0 9.95
      vertex 0 11.1214 9.95
    endloop
  endfacet
  facet normal -1 0 0
    outer loop
      vertex 0 11.2909 8.74483
      vertex 0 0 9.95
      vertex 0 11.1214 9.54234
    endloop
  endfacet
  facet normal -1 0 0
    outer loop
      vertex 0 11.6225 8
      vertex 0 0 9.95
      vertex 0 11.2909 8.74483
    endloop
  endfacet
  facet normal -1 0 0
    outer loop
      vertex 0 12.1017 7.34039
      vertex 0 0 9.95
      vertex 0 11.6225 8
    endloop
  endfacet
  facet normal -1 0 0
    outer loop
      vertex 0 12.7076 6.79483
      vertex 0 0 9.95
      vertex 0 12.1017 7.34039
    endloop
  endfacet
  facet normal -1 0 0
    outer loop
      vertex 0 13.4137 6.38717
      vertex 0 0 9.95
      vertex 0 12.7076 6.79483
    endloop
  endfacet
  facet normal -1 0 0
    outer loop
      vertex 0 30 0
      vertex 0 0 9.95
      vertex 0 13.4137 6.38717
    endloop
  endfacet
  facet normal -1 0 0
    outer loop
      vertex 0 30 0
      vertex 0 13.4137 6.38717
      vertex 0 14.1891 6.13522
    endloop
  endfacet
  facet normal -1 0 0
    outer loop
      vertex 0 15.8109 6.13522
      vertex 0 30 0
      vertex 0 15 6.05
    endloop
  endfacet
  facet normal -1 0 0
    outer loop
      vertex 0 16.5863 6.38717
      vertex 0 30 0
      vertex 0 15.8109 6.13522
    endloop
  endfacet
  facet normal -1 0 0
    outer loop
      vertex 0 17.2924 6.79483
      vertex 0 30 0
      vertex 0 16.5863 6.38717
    endloop
  endfacet
  facet normal -1 0 0
    outer loop
      vertex 0 30 0
      vertex 0 17.2924 6.79483
      vertex 0 17.8983 7.34039
    endloop
  endfacet
  facet normal -1 -0 0
    outer loop
      vertex 0 17.8983 7.34039
      vertex 0 18.3775 8
      vertex 0 30 0
    endloop
  endfacet
  facet normal -1 -0 0
    outer loop
      vertex 0 18.3775 8
      vertex 0 18.7091 8.74483
      vertex 0 30 0
    endloop
  endfacet
  facet normal -1 -0 0
    outer loop
      vertex 0 18.7091 8.74483
      vertex 0 18.8786 9.54234
      vertex 0 30 0
    endloop
  endfacet
  facet normal -1 -0 -0
    outer loop
      vertex 0 18.8786 9.54234
      vertex 0 18.8786 9.95
      vertex 0 30 0
    endloop
  endfacet
  facet normal -1 0 0
    outer loop
      vertex 0 30 0
      vertex 0 18.8786 9.95
      vertex 0 30 9.95
    endloop
  endfacet
  facet normal -1 0 0
    outer loop
      vertex 0 15 6.05
      vertex 0 30 0
      vertex 0 14.1891 6.13522
    endloop
  endfacet
  facet normal 0 -1 0
    outer loop
      vertex 0 0 9.95
      vertex 0 0 0
      vertex 22 0 0
    endloop
  endfacet
  facet normal 0 -1 0
    outer loop
      vertex 22 0 9.95
      vertex 0 0 9.95
      vertex 22 0 0
    endloop
  endfacet
  facet normal -0 -0 -1
    outer loop
      vertex 12.0555 7.14016 0
      vertex 0 30 0
      vertex 22 0 0
    endloop
  endfacet
  facet normal 0 -0 -1
    outer loop
      vertex 10.6953 25.9149 0
      vertex 0 30 0
      vertex 22 30 0
    endloop
  endfacet
  facet normal 0 -0 -1
    outer loop
      vertex 0 0 0
      vertex 0 30 0
      vertex 7.75 6.225 0
    endloop
  endfacet
  facet normal 0 0 -1
    outer loop
      vertex 0 0 0
      vertex 7.75 6.225 0
      vertex 7.79917 5.7572 0
    endloop
  endfacet
  facet normal 0 0 -1
    outer loop
      vertex 0 0 0
      vertex 7.79917 5.7572 0
      vertex 7.94452 5.30984 0
    endloop
  endfacet
  facet normal 0 0 -1
    outer loop
      vertex 0 0 0
      vertex 7.94452 5.30984 0
      vertex 8.17971 4.90248 0
    endloop
  endfacet
  facet normal 0 0 -1
    outer loop
      vertex 0 0 0
      vertex 8.17971 4.90248 0
      vertex 8.49446 4.55292 0
    endloop
  endfacet
  facet normal 0 0 -1
    outer loop
      vertex 0 0 0
      vertex 8.49446 4.55292 0
      vertex 8.875 4.27644 0
    endloop
  endfacet
  facet normal 0 0 -1
    outer loop
      vertex 0 0 0
      vertex 8.875 4.27644 0
      vertex 9.30471 4.08512 0
    endloop
  endfacet
  facet normal -0 0 -1
    outer loop
      vertex 0 0 0
      vertex 9.30471 4.08512 0
      vertex 22 0 0
    endloop
  endfacet
  facet normal 0 0 -1
    outer loop
      vertex 10.2352 3.98733 0
      vertex 22 0 0
      vertex 9.76481 3.98733 0
    endloop
  endfacet
  facet normal 0 0 -1
    outer loop
      vertex 10.6953 4.08512 0
      vertex 22 0 0
      vertex 10.2352 3.98733 0
    endloop
  endfacet
  facet normal 0 0 -1
    outer loop
      vertex 11.125 4.27644 0
      vertex 22 0 0
      vertex 10.6953 4.08512 0
    endloop
  endfacet
  facet normal 0 0 -1
    outer loop
      vertex 11.5055 4.55292 0
      vertex 22 0 0
      vertex 11.125 4.27644 0
    endloop
  endfacet
  facet normal 0 0 -1
    outer loop
      vertex 11.8203 4.90248 0
      vertex 22 0 0
      vertex 11.5055 4.55292 0
    endloop
  endfacet
  facet normal 0 0 -1
    outer loop
      vertex 8.49446 22.1029 0
      vertex 22 0 0
      vertex 8.17971 22.4525 0
    endloop
  endfacet
  facet normal -0 -0 -1
    outer loop
      vertex 11.5055 7.89708 0
      vertex 0 30 0
      vertex 11.8203 7.54752 0
    endloop
  endfacet
  facet normal -0 -0 -1
    outer loop
      vertex 9.76481 8.46267 0
      vertex 0 30 0
      vertex 10.2352 8.46267 0
    endloop
  endfacet
  facet normal -0 0 -1
    outer loop
      vertex 11.8203 4.90248 0
      vertex 12.0555 5.30984 0
      vertex 22 0 0
    endloop
  endfacet
  facet normal -0 -0 -1
    outer loop
      vertex 10.2352 8.46267 0
      vertex 0 30 0
      vertex 10.6953 8.36488 0
    endloop
  endfacet
  facet normal -0 0 -1
    outer loop
      vertex 12.0555 5.30984 0
      vertex 12.2008 5.7572 0
      vertex 22 0 0
    endloop
  endfacet
  facet normal -0 -0 -1
    outer loop
      vertex 10.6953 8.36488 0
      vertex 0 30 0
      vertex 11.125 8.17356 0
    endloop
  endfacet
  facet normal -0 0 -1
    outer loop
      vertex 12.2008 5.7572 0
      vertex 12.25 6.225 0
      vertex 22 0 0
    endloop
  endfacet
  facet normal -0 -0 -1
    outer loop
      vertex 11.125 8.17356 0
      vertex 0 30 0
      vertex 11.5055 7.89708 0
    endloop
  endfacet
  facet normal -0 -0 -1
    outer loop
      vertex 12.25 6.225 0
      vertex 12.2008 6.6928 0
      vertex 22 0 0
    endloop
  endfacet
  facet normal -0 -0 -1
    outer loop
      vertex 11.8203 7.54752 0
      vertex 0 30 0
      vertex 12.0555 7.14016 0
    endloop
  endfacet
  facet normal -0 -0 -1
    outer loop
      vertex 12.2008 6.6928 0
      vertex 12.0555 7.14016 0
      vertex 22 0 0
    endloop
  endfacet
  facet normal 0 -0 -1
    outer loop
      vertex 9.30471 8.36488 0
      vertex 0 30 0
      vertex 9.76481 8.46267 0
    endloop
  endfacet
  facet normal 0 -0 -1
    outer loop
      vertex 8.875 8.17356 0
      vertex 0 30 0
      vertex 9.30471 8.36488 0
    endloop
  endfacet
  facet normal 0 -0 -1
    outer loop
      vertex 8.49446 7.89708 0
      vertex 0 30 0
      vertex 8.875 8.17356 0
    endloop
  endfacet
  facet normal 0 -0 -1
    outer loop
      vertex 8.17971 7.54752 0
      vertex 0 30 0
      vertex 8.49446 7.89708 0
    endloop
  endfacet
  facet normal 0 -0 -1
    outer loop
      vertex 7.94452 7.14016 0
      vertex 0 30 0
      vertex 8.17971 7.54752 0
    endloop
  endfacet
  facet normal 0 -0 -1
    outer loop
      vertex 7.79917 6.6928 0
      vertex 0 30 0
      vertex 7.94452 7.14016 0
    endloop
  endfacet
  facet normal 0 -0 -1
    outer loop
      vertex 7.75 6.225 0
      vertex 0 30 0
      vertex 7.79917 6.6928 0
    endloop
  endfacet
  facet normal 0 0 -1
    outer loop
      vertex 7.79917 23.3072 0
      vertex 0 30 0
      vertex 7.75 23.775 0
    endloop
  endfacet
  facet normal 0 0 -1
    outer loop
      vertex 7.94452 22.8598 0
      vertex 0 30 0
      vertex 7.79917 23.3072 0
    endloop
  endfacet
  facet normal 0 0 -1
    outer loop
      vertex 8.17971 22.4525 0
      vertex 0 30 0
      vertex 7.94452 22.8598 0
    endloop
  endfacet
  facet normal 0 0 -1
    outer loop
      vertex 22 0 0
      vertex 0 30 0
      vertex 8.17971 22.4525 0
    endloop
  endfacet
  facet normal 0 0 -1
    outer loop
      vertex 8.875 21.8264 0
      vertex 22 0 0
      vertex 8.49446 22.1029 0
    endloop
  endfacet
  facet normal 0 0 -1
    outer loop
      vertex 9.30471 21.6351 0
      vertex 22 0 0
      vertex 8.875 21.8264 0
    endloop
  endfacet
  facet normal -0 0 -1
    outer loop
      vertex 11.8203 22.4525 0
      vertex 22 30 0
      vertex 11.5055 22.1029 0
    endloop
  endfacet
  facet normal 0 0 -1
    outer loop
      vertex 22 0 0
      vertex 9.30471 21.6351 0
      vertex 9.76481 21.5373 0
    endloop
  endfacet
  facet normal 0 0 -1
    outer loop
      vertex 22 0 0
      vertex 9.76481 21.5373 0
      vertex 10.2352 21.5373 0
    endloop
  endfacet
  facet normal 0 0 -1
    outer loop
      vertex 22 0 0
      vertex 10.2352 21.5373 0
      vertex 10.6953 21.6351 0
    endloop
  endfacet
  facet normal 0 0 -1
    outer loop
      vertex 22 0 0
      vertex 10.6953 21.6351 0
      vertex 11.125 21.8264 0
    endloop
  endfacet
  facet normal 0 0 -1
    outer loop
      vertex 22 0 0
      vertex 11.125 21.8264 0
      vertex 11.5055 22.1029 0
    endloop
  endfacet
  facet normal 0 0 -1
    outer loop
      vertex 22 0 0
      vertex 11.5055 22.1029 0
      vertex 22 30 0
    endloop
  endfacet
  facet normal -0 0 -1
    outer loop
      vertex 12.0555 22.8598 0
      vertex 22 30 0
      vertex 11.8203 22.4525 0
    endloop
  endfacet
  facet normal -0 0 -1
    outer loop
      vertex 12.2008 23.3072 0
      vertex 22 30 0
      vertex 12.0555 22.8598 0
    endloop
  endfacet
  facet normal -0 0 -1
    outer loop
      vertex 12.25 23.775 0
      vertex 22 30 0
      vertex 12.2008 23.3072 0
    endloop
  endfacet
  facet normal -0 0 -1
    outer loop
      vertex 11.5055 25.4471 0
      vertex 22 30 0
      vertex 11.8203 25.0975 0
    endloop
  endfacet
  facet normal 0 -0 -1
    outer loop
      vertex 12.25 23.775 0
      vertex 12.2008 24.2428 0
      vertex 22 30 0
    endloop
  endfacet
  facet normal 0 -0 -1
    outer loop
      vertex 12.2008 24.2428 0
      vertex 12.0555 24.6902 0
      vertex 22 30 0
    endloop
  endfacet
  facet normal 0 -0 -1
    outer loop
      vertex 12.0555 24.6902 0
      vertex 11.8203 25.0975 0
      vertex 22 30 0
    endloop
  endfacet
  facet normal -0 -0 -1
    outer loop
      vertex 10.2352 26.0127 0
      vertex 0 30 0
      vertex 10.6953 25.9149 0
    endloop
  endfacet
  facet normal -0 -0 -1
    outer loop
      vertex 9.76481 26.0127 0
      vertex 0 30 0
      vertex 10.2352 26.0127 0
    endloop
  endfacet
  facet normal 0 -0 -1
    outer loop
      vertex 11.5055 25.4471 0
      vertex 11.125 25.7236 0
      vertex 22 30 0
    endloop
  endfacet
  facet normal 0 -0 -1
    outer loop
      vertex 11.125 25.7236 0
      vertex 10.6953 25.9149 0
      vertex 22 30 0
    endloop
  endfacet
  facet normal 0 -0 -1
    outer loop
      vertex 9.30471 25.9149 0
      vertex 0 30 0
      vertex 9.76481 26.0127 0
    endloop
  endfacet
  facet normal 0 -0 -1
    outer loop
      vertex 8.875 25.7236 0
      vertex 0 30 0
      vertex 9.30471 25.9149 0
    endloop
  endfacet
  facet normal 0 -0 -1
    outer loop
      vertex 8.49446 25.4471 0
      vertex 0 30 0
      vertex 8.875 25.7236 0
    endloop
  endfacet
  facet normal 0 -0 -1
    outer loop
      vertex 8.17971 25.0975 0
      vertex 0 30 0
      vertex 8.49446 25.4471 0
    endloop
  endfacet
  facet normal 0 -0 -1
    outer loop
      vertex 7.94452 24.6902 0
      vertex 0 30 0
      vertex 8.17971 25.0975 0
    endloop
  endfacet
  facet normal 0 -0 -1
    outer loop
      vertex 7.79917 24.2428 0
      vertex 0 30 0
      vertex 7.94452 24.6902 0
    endloop
  endfacet
  facet normal 0 -0 -1
    outer loop
      vertex 7.75 23.775 0
      vertex 0 30 0
      vertex 7.79917 24.2428 0
    endloop
  endfacet
  facet normal 0 0 -1
    outer loop
      vertex 9.76481 3.98733 0
      vertex 22 0 0
      vertex 9.30471 4.08512 0
    endloop
  endfacet
  facet normal 0 1 0
    outer loop
      vertex 0 30 0
      vertex 0 30 9.95
      vertex 22 30 0
    endloop
  endfacet
  facet normal 0 1 0
    outer loop
      vertex 22 30 0
      vertex 0 30 9.95
      vertex 22 30 9.95
    endloop
  endfacet
  facet normal 0 -0 1
    outer loop
      vertex 10.6953 21.6351 9.95
      vertex 0 18.8786 9.95
      vertex 22 18.8786 9.95
    endloop
  endfacet
  facet normal 0 0 1
    outer loop
      vertex 10.2352 21.5373 9.95
      vertex 9.76481 21.5373 9.95
      vertex 0 18.8786 9.95
    endloop
  endfacet
  facet normal 0 -0 1
    outer loop
      vertex 0 30 9.95
      vertex 0 18.8786 9.95
      vertex 7.79917 23.3072 9.95
    endloop
  endfacet
  facet normal 0 0 1
    outer loop
      vertex 0 30 9.95
      vertex 7.79917 23.3072 9.95
      vertex 7.75 23.775 9.95
    endloop
  endfacet
  facet normal 0 0 1
    outer loop
      vertex 0 30 9.95
      vertex 7.75 23.775 9.95
      vertex 7.79917 24.2428 9.95
    endloop
  endfacet
  facet normal 0 -0 1
    outer loop
      vertex 12.0555 22.8598 9.95
      vertex 11.8203 22.4525 9.95
      vertex 22 18.8786 9.95
    endloop
  endfacet
  facet normal 0 0 1
    outer loop
      vertex 0 30 9.95
      vertex 7.79917 24.2428 9.95
      vertex 7.94452 24.6902 9.95
    endloop
  endfacet
  facet normal 0 -0 1
    outer loop
      vertex 11.8203 22.4525 9.95
      vertex 11.5055 22.1029 9.95
      vertex 22 18.8786 9.95
    endloop
  endfacet
  facet normal 0 0 1
    outer loop
      vertex 0 30 9.95
      vertex 7.94452 24.6902 9.95
      vertex 8.17971 25.0975 9.95
    endloop
  endfacet
  facet normal 0 0 1
    outer loop
      vertex 0 30 9.95
      vertex 8.17971 25.0975 9.95
      vertex 8.49446 25.4471 9.95
    endloop
  endfacet
  facet normal 0 -0 1
    outer loop
      vertex 12.25 23.775 9.95
      vertex 12.2008 23.3072 9.95
      vertex 22 18.8786 9.95
    endloop
  endfacet
  facet normal -0 0 1
    outer loop
      vertex 9.30471 25.9149 9.95
      vertex 0 30 9.95
      vertex 8.875 25.7236 9.95
    endloop
  endfacet
  facet normal 0 0 1
    outer loop
      vertex 11.5055 25.4471 9.95
      vertex 11.8203 25.0975 9.95
      vertex 22 18.8786 9.95
    endloop
  endfacet
  facet normal 0 0 1
    outer loop
      vertex 22 30 9.95
      vertex 0 30 9.95
      vertex 9.30471 25.9149 9.95
    endloop
  endfacet
  facet normal 0 0 1
    outer loop
      vertex 12.2008 24.2428 9.95
      vertex 12.25 23.775 9.95
      vertex 22 18.8786 9.95
    endloop
  endfacet
  facet normal 0 0 1
    outer loop
      vertex 12.0555 24.6902 9.95
      vertex 12.2008 24.2428 9.95
      vertex 22 18.8786 9.95
    endloop
  endfacet
  facet normal 0 0 1
    outer loop
      vertex 22 30 9.95
      vertex 9.76481 26.0127 9.95
      vertex 10.2352 26.0127 9.95
    endloop
  endfacet
  facet normal 0 0 1
    outer loop
      vertex 11.8203 25.0975 9.95
      vertex 12.0555 24.6902 9.95
      vertex 22 18.8786 9.95
    endloop
  endfacet
  facet normal 0 0 1
    outer loop
      vertex 22 30 9.95
      vertex 10.2352 26.0127 9.95
      vertex 10.6953 25.9149 9.95
    endloop
  endfacet
  facet normal 0 0 1
    outer loop
      vertex 22 30 9.95
      vertex 11.125 25.7236 9.95
      vertex 22 18.8786 9.95
    endloop
  endfacet
  facet normal 0 0 1
    outer loop
      vertex 22 30 9.95
      vertex 10.6953 25.9149 9.95
      vertex 11.125 25.7236 9.95
    endloop
  endfacet
  facet normal 0 0 1
    outer loop
      vertex 11.125 25.7236 9.95
      vertex 11.5055 25.4471 9.95
      vertex 22 18.8786 9.95
    endloop
  endfacet
  facet normal 0 0 1
    outer loop
      vertex 9.30471 25.9149 9.95
      vertex 9.76481 26.0127 9.95
      vertex 22 30 9.95
    endloop
  endfacet
  facet normal 0 -0 1
    outer loop
      vertex 12.2008 23.3072 9.95
      vertex 12.0555 22.8598 9.95
      vertex 22 18.8786 9.95
    endloop
  endfacet
  facet normal 0 -0 1
    outer loop
      vertex 11.5055 22.1029 9.95
      vertex 11.125 21.8264 9.95
      vertex 22 18.8786 9.95
    endloop
  endfacet
  facet normal 0 -0 1
    outer loop
      vertex 11.125 21.8264 9.95
      vertex 10.6953 21.6351 9.95
      vertex 22 18.8786 9.95
    endloop
  endfacet
  facet normal 0 -0 1
    outer loop
      vertex 10.2352 21.5373 9.95
      vertex 0 18.8786 9.95
      vertex 10.6953 21.6351 9.95
    endloop
  endfacet
  facet normal -0 0 1
    outer loop
      vertex 9.76481 21.5373 9.95
      vertex 9.30471 21.6351 9.95
      vertex 0 18.8786 9.95
    endloop
  endfacet
  facet normal 0 -0 1
    outer loop
      vertex 8.875 21.8264 9.95
      vertex 0 18.8786 9.95
      vertex 9.30471 21.6351 9.95
    endloop
  endfacet
  facet normal 0 -0 1
    outer loop
      vertex 8.49446 22.1029 9.95
      vertex 0 18.8786 9.95
      vertex 8.875 21.8264 9.95
    endloop
  endfacet
  facet normal 0 -0 1
    outer loop
      vertex 8.17971 22.4525 9.95
      vertex 0 18.8786 9.95
      vertex 8.49446 22.1029 9.95
    endloop
  endfacet
  facet normal 0 -0 1
    outer loop
      vertex 7.94452 22.8598 9.95
      vertex 0 18.8786 9.95
      vertex 8.17971 22.4525 9.95
    endloop
  endfacet
  facet normal 0 -0 1
    outer loop
      vertex 7.79917 23.3072 9.95
      vertex 0 18.8786 9.95
      vertex 7.94452 22.8598 9.95
    endloop
  endfacet
  facet normal 0 0 1
    outer loop
      vertex 8.49446 25.4471 9.95
      vertex 8.875 25.7236 9.95
      vertex 0 30 9.95
    endloop
  endfacet
  facet normal 0 -1 0
    outer loop
      vertex 22 18.8786 9.54234
      vertex 22 18.8786 9.95
      vertex 0 18.8786 9.95
    endloop
  endfacet
  facet normal 0 -1 -0
    outer loop
      vertex 0 18.8786 9.54234
      vertex 22 18.8786 9.54234
      vertex 0 18.8786 9.95
    endloop
  endfacet
  facet normal -4.97339e-17 -0.978148 0.207912
    outer loop
      vertex 22 18.7091 8.74483
      vertex 22 18.8786 9.54234
      vertex 0 18.8786 9.54234
    endloop
  endfacet
  facet normal -3.3575e-17 -0.978148 0.207912
    outer loop
      vertex 0 18.7091 8.74483
      vertex 22 18.7091 8.74483
      vertex 0 18.8786 9.54234
    endloop
  endfacet
  facet normal -6.72871e-17 -0.913546 0.406736
    outer loop
      vertex 22 18.3775 8
      vertex 22 18.7091 8.74483
      vertex 0 18.7091 8.74483
    endloop
  endfacet
  facet normal -8.21032e-17 -0.913546 0.406736
    outer loop
      vertex 0 18.3775 8
      vertex 22 18.3775 8
      vertex 0 18.7091 8.74483
    endloop
  endfacet
  facet normal -1.19947e-16 -0.809017 0.587785
    outer loop
      vertex 22 17.8983 7.34039
      vertex 22 18.3775 8
      vertex 0 18.3775 8
    endloop
  endfacet
  facet normal -1.1865e-16 -0.809017 0.587785
    outer loop
      vertex 0 17.8983 7.34039
      vertex 22 17.8983 7.34039
      vertex 0 18.3775 8
    endloop
  endfacet
  facet normal -1.49202e-16 -0.66913 0.743145
    outer loop
      vertex 22 17.2924 6.79483
      vertex 22 17.8983 7.34039
      vertex 0 17.8983 7.34039
    endloop
  endfacet
  facet normal -1.80012e-16 -0.66913 0.743145
    outer loop
      vertex 0 17.2924 6.79483
      vertex 22 17.2924 6.79483
      vertex 0 17.8983 7.34039
    endloop
  endfacet
  facet normal -2.07712e-16 -0.5 0.866025
    outer loop
      vertex 22 16.5863 6.38717
      vertex 22 17.2924 6.79483
      vertex 0 17.2924 6.79483
    endloop
  endfacet
  facet normal -2.09778e-16 -0.5 0.866025
    outer loop
      vertex 0 16.5863 6.38717
      vertex 22 16.5863 6.38717
      vertex 0 17.2924 6.79483
    endloop
  endfacet
  facet normal -2.31116e-16 -0.309018 0.951056
    outer loop
      vertex 22 15.8109 6.13522
      vertex 22 16.5863 6.38717
      vertex 0 16.5863 6.38717
    endloop
  endfacet
  facet normal -2.30375e-16 -0.309018 0.951056
    outer loop
      vertex 0 15.8109 6.13522
      vertex 22 15.8109 6.13522
      vertex 0 16.5863 6.38717
    endloop
  endfacet
  facet normal -2.41356e-16 -0.104528 0.994522
    outer loop
      vertex 22 15 6.05
      vertex 22 15.8109 6.13522
      vertex 0 15.8109 6.13522
    endloop
  endfacet
  facet normal -2.40904e-16 -0.104528 0.994522
    outer loop
      vertex 0 15 6.05
      vertex 22 15 6.05
      vertex 0 15.8109 6.13522
    endloop
  endfacet
  facet normal -2.41356e-16 0.104528 0.994522
    outer loop
      vertex 22 14.1891 6.13522
      vertex 22 15 6.05
      vertex 0 15 6.05
    endloop
  endfacet
  facet normal -2.40904e-16 0.104528 0.994522
    outer loop
      vertex 0 14.1891 6.13522
      vertex 22 14.1891 6.13522
      vertex 0 15 6.05
    endloop
  endfacet
  facet normal -2.29654e-16 0.309018 0.951056
    outer loop
      vertex 22 13.4137 6.38717
      vertex 22 14.1891 6.13522
      vertex 0 14.1891 6.13522
    endloop
  endfacet
  facet normal -2.30375e-16 0.309018 0.951056
    outer loop
      vertex 0 13.4137 6.38717
      vertex 22 13.4137 6.38717
      vertex 0 14.1891 6.13522
    endloop
  endfacet
  facet normal -2.10638e-16 0.5 0.866025
    outer loop
      vertex 22 12.7076 6.79483
      vertex 22 13.4137 6.38717
      vertex 0 13.4137 6.38717
    endloop
  endfacet
  facet normal -2.09778e-16 0.5 0.866025
    outer loop
      vertex 0 12.7076 6.79483
      vertex 22 12.7076 6.79483
      vertex 0 13.4137 6.38717
    endloop
  endfacet
  facet normal -1.78457e-16 0.66913 0.743145
    outer loop
      vertex 22 12.1017 7.34039
      vertex 22 12.7076 6.79483
      vertex 0 12.7076 6.79483
    endloop
  endfacet
  facet normal -1.5001e-16 0.66913 0.743145
    outer loop
      vertex 0 12.1017 7.34039
      vertex 22 12.1017 7.34039
      vertex 0 12.7076 6.79483
    endloop
  endfacet
  facet normal -1.1865e-16 0.809017 0.587785
    outer loop
      vertex 22 12.1017 7.34039
      vertex 0 12.1017 7.34039
      vertex 22 11.6225 8
    endloop
  endfacet
  facet normal -1.1865e-16 0.809017 0.587785
    outer loop
      vertex 22 11.6225 8
      vertex 0 12.1017 7.34039
      vertex 0 11.6225 8
    endloop
  endfacet
  facet normal -8.21032e-17 0.913546 0.406736
    outer loop
      vertex 22 11.6225 8
      vertex 0 11.6225 8
      vertex 22 11.2909 8.74483
    endloop
  endfacet
  facet normal -6.56826e-17 0.913546 0.406736
    outer loop
      vertex 22 11.2909 8.74483
      vertex 0 11.6225 8
      vertex 0 11.2909 8.74483
    endloop
  endfacet
  facet normal -3.3575e-17 0.978148 0.207912
    outer loop
      vertex 22 11.2909 8.74483
      vertex 0 11.2909 8.74483
      vertex 22 11.1214 9.54234
    endloop
  endfacet
  facet normal -5.03626e-17 0.978148 0.207912
    outer loop
      vertex 22 11.1214 9.54234
      vertex 0 11.2909 8.74483
      vertex 0 11.1214 9.54234
    endloop
  endfacet
  facet normal 0 1 0
    outer loop
      vertex 22 11.1214 9.95
      vertex 22 11.1214 9.54234
      vertex 0 11.1214 9.95
    endloop
  endfacet
  facet normal 0 1 -0
    outer loop
      vertex 0 11.1214 9.95
      vertex 22 11.1214 9.54234
      vertex 0 11.1214 9.54234
    endloop
  endfacet
  facet normal 0 -0 1
    outer loop
      vertex 10.6953 4.08512 9.95
      vertex 0 0 9.95
      vertex 22 0 9.95
    endloop
  endfacet
  facet normal 0 0 1
    outer loop
      vertex 10.6953 4.08512 9.95
      vertex 10.2352 3.98733 9.95
      vertex 0 0 9.95
    endloop
  endfacet
  facet normal 0 -0 1
    outer loop
      vertex 0 11.1214 9.95
      vertex 0 0 9.95
      vertex 7.79917 5.7572 9.95
    endloop
  endfacet
  facet normal 0 -0 1
    outer loop
      vertex 11.5055 4.55292 9.95
      vertex 11.125 4.27644 9.95
      vertex 22 0 9.95
    endloop
  endfacet
  facet normal 0 0 1
    outer loop
      vertex 0 11.1214 9.95
      vertex 7.79917 5.7572 9.95
      vertex 7.75 6.225 9.95
    endloop
  endfacet
  facet normal 0 0 1
    outer loop
      vertex 0 11.1214 9.95
      vertex 7.75 6.225 9.95
      vertex 7.79917 6.6928 9.95
    endloop
  endfacet
  facet normal -0 0 1
    outer loop
      vertex 8.17971 7.54752 9.95
      vertex 0 11.1214 9.95
      vertex 7.94452 7.14016 9.95
    endloop
  endfacet
  facet normal -0 0 1
    outer loop
      vertex 8.49446 7.89708 9.95
      vertex 0 11.1214 9.95
      vertex 8.17971 7.54752 9.95
    endloop
  endfacet
  facet normal -0 0 1
    outer loop
      vertex 8.875 8.17356 9.95
      vertex 0 11.1214 9.95
      vertex 8.49446 7.89708 9.95
    endloop
  endfacet
  facet normal -0 0 1
    outer loop
      vertex 9.30471 8.36488 9.95
      vertex 0 11.1214 9.95
      vertex 8.875 8.17356 9.95
    endloop
  endfacet
  facet normal 0 0 1
    outer loop
      vertex 22 11.1214 9.95
      vertex 0 11.1214 9.95
      vertex 9.30471 8.36488 9.95
    endloop
  endfacet
  facet normal 0 0 1
    outer loop
      vertex 10.2352 8.46267 9.95
      vertex 10.6953 8.36488 9.95
      vertex 22 11.1214 9.95
    endloop
  endfacet
  facet normal 0 0 1
    outer loop
      vertex 22 11.1214 9.95
      vertex 9.30471 8.36488 9.95
      vertex 9.76481 8.46267 9.95
    endloop
  endfacet
  facet normal 0 0 1
    outer loop
      vertex 10.6953 8.36488 9.95
      vertex 11.125 8.17356 9.95
      vertex 22 11.1214 9.95
    endloop
  endfacet
  facet normal 0 0 1
    outer loop
      vertex 11.125 8.17356 9.95
      vertex 11.5055 7.89708 9.95
      vertex 22 11.1214 9.95
    endloop
  endfacet
  facet normal 0 -0 1
    outer loop
      vertex 12.0555 5.30984 9.95
      vertex 11.8203 4.90248 9.95
      vertex 22 0 9.95
    endloop
  endfacet
  facet normal 0 0 1
    outer loop
      vertex 22 11.1214 9.95
      vertex 11.5055 7.89708 9.95
      vertex 22 0 9.95
    endloop
  endfacet
  facet normal 0 0 1
    outer loop
      vertex 11.5055 7.89708 9.95
      vertex 11.8203 7.54752 9.95
      vertex 22 0 9.95
    endloop
  endfacet
  facet normal 0 0 1
    outer loop
      vertex 11.8203 7.54752 9.95
      vertex 12.0555 7.14016 9.95
      vertex 22 0 9.95
    endloop
  endfacet
  facet normal 0 0 1
    outer loop
      vertex 12.0555 7.14016 9.95
      vertex 12.2008 6.6928 9.95
      vertex 22 0 9.95
    endloop
  endfacet
  facet normal 0 0 1
    outer loop
      vertex 12.2008 6.6928 9.95
      vertex 12.25 6.225 9.95
      vertex 22 0 9.95
    endloop
  endfacet
  facet normal 0 -0 1
    outer loop
      vertex 12.25 6.225 9.95
      vertex 12.2008 5.7572 9.95
      vertex 22 0 9.95
    endloop
  endfacet
  facet normal 0 -0 1
    outer loop
      vertex 12.2008 5.7572 9.95
      vertex 12.0555 5.30984 9.95
      vertex 22 0 9.95
    endloop
  endfacet
  facet normal 0 0 1
    outer loop
      vertex 9.76481 8.46267 9.95
      vertex 10.2352 8.46267 9.95
      vertex 22 11.1214 9.95
    endloop
  endfacet
  facet normal 0 -0 1
    outer loop
      vertex 11.8203 4.90248 9.95
      vertex 11.5055 4.55292 9.95
      vertex 22 0 9.95
    endloop
  endfacet
  facet normal 0 -0 1
    outer loop
      vertex 11.125 4.27644 9.95
      vertex 10.6953 4.08512 9.95
      vertex 22 0 9.95
    endloop
  endfacet
  facet normal 0 -0 1
    outer loop
      vertex 9.76481 3.98733 9.95
      vertex 0 0 9.95
      vertex 10.2352 3.98733 9.95
    endloop
  endfacet
  facet normal 0 -0 1
    outer loop
      vertex 9.30471 4.08512 9.95
      vertex 0 0 9.95
      vertex 9.76481 3.98733 9.95
    endloop
  endfacet
  facet normal 0 -0 1
    outer loop
      vertex 8.875 4.27644 9.95
      vertex 0 0 9.95
      vertex 9.30471 4.08512 9.95
    endloop
  endfacet
  facet normal 0 -0 1
    outer loop
      vertex 8.49446 4.55292 9.95
      vertex 0 0 9.95
      vertex 8.875 4.27644 9.95
    endloop
  endfacet
  facet normal 0 -0 1
    outer loop
      vertex 8.17971 4.90248 9.95
      vertex 0 0 9.95
      vertex 8.49446 4.55292 9.95
    endloop
  endfacet
  facet normal 0 -0 1
    outer loop
      vertex 7.94452 5.30984 9.95
      vertex 0 0 9.95
      vertex 8.17971 4.90248 9.95
    endloop
  endfacet
  facet normal 0 -0 1
    outer loop
      vertex 7.79917 5.7572 9.95
      vertex 0 0 9.95
      vertex 7.94452 5.30984 9.95
    endloop
  endfacet
  facet normal 0 0 1
    outer loop
      vertex 7.79917 6.6928 9.95
      vertex 7.94452 7.14016 9.95
      vertex 0 11.1214 9.95
    endloop
  endfacet
  facet normal 1 0 -0
    outer loop
      vertex 22 0 9.95
      vertex 22 0 0
      vertex 22 30 0
    endloop
  endfacet
  facet normal 1 -0 -0
    outer loop
      vertex 22 14.1891 6.13522
      vertex 22 0 9.95
      vertex 22 30 0
    endloop
  endfacet
  facet normal 1 0 0
    outer loop
      vertex 22 30 9.95
      vertex 22 18.8786 9.95
      vertex 22 30 0
    endloop
  endfacet
  facet normal 1 0 -0
    outer loop
      vertex 22 18.8786 9.95
      vertex 22 18.8786 9.54234
      vertex 22 30 0
    endloop
  endfacet
  facet normal 1 0 -0
    outer loop
      vertex 22 18.8786 9.54234
      vertex 22 18.7091 8.74483
      vertex 22 30 0
    endloop
  endfacet
  facet normal 1 0 -0
    outer loop
      vertex 22 18.7091 8.74483
      vertex 22 18.3775 8
      vertex 22 30 0
    endloop
  endfacet
  facet normal 1 0 0
    outer loop
      vertex 22 11.1214 9.54234
      vertex 22 11.1214 9.95
      vertex 22 0 9.95
    endloop
  endfacet
  facet normal 1 0 -0
    outer loop
      vertex 22 18.3775 8
      vertex 22 17.8983 7.34039
      vertex 22 30 0
    endloop
  endfacet
  facet normal 1 0 -0
    outer loop
      vertex 22 17.8983 7.34039
      vertex 22 17.2924 6.79483
      vertex 22 30 0
    endloop
  endfacet
  facet normal 1 0 -0
    outer loop
      vertex 22 17.2924 6.79483
      vertex 22 16.5863 6.38717
      vertex 22 30 0
    endloop
  endfacet
  facet normal 1 0 0
    outer loop
      vertex 22 11.6225 8
      vertex 22 11.2909 8.74483
      vertex 22 0 9.95
    endloop
  endfacet
  facet normal 1 0 -0
    outer loop
      vertex 22 16.5863 6.38717
      vertex 22 15.8109 6.13522
      vertex 22 30 0
    endloop
  endfacet
  facet normal 1 0 -0
    outer loop
      vertex 22 15.8109 6.13522
      vertex 22 15 6.05
      vertex 22 30 0
    endloop
  endfacet
  facet normal 1 -0 -0
    outer loop
      vertex 22 15 6.05
      vertex 22 14.1891 6.13522
      vertex 22 30 0
    endloop
  endfacet
  facet normal 1 -0 -0
    outer loop
      vertex 22 13.4137 6.38717
      vertex 22 0 9.95
      vertex 22 14.1891 6.13522
    endloop
  endfacet
  facet normal 1 0 0
    outer loop
      vertex 22 12.7076 6.79483
      vertex 22 12.1017 7.34039
      vertex 22 0 9.95
    endloop
  endfacet
  facet normal 1 0 0
    outer loop
      vertex 22 11.2909 8.74483
      vertex 22 11.1214 9.54234
      vertex 22 0 9.95
    endloop
  endfacet
  facet normal 1 0 0
    outer loop
      vertex 22 13.4137 6.38717
      vertex 22 12.7076 6.79483
      vertex 22 0 9.95
    endloop
  endfacet
  facet normal 1 0 0
    outer loop
      vertex 22 12.1017 7.34039
      vertex 22 11.6225 8
      vertex 22 0 9.95
    endloop
  endfacet
  facet normal 0.994522 -0.104529 0
    outer loop
      vertex 7.79917 6.6928 0
      vertex 7.79917 6.6928 9.95
      vertex 7.75 6.225 9.95
    endloop
  endfacet
  facet normal 0.994522 -0.104529 0
    outer loop
      vertex 7.75 6.225 0
      vertex 7.79917 6.6928 0
      vertex 7.75 6.225 9.95
    endloop
  endfacet
  facet normal 0.994522 0.104529 0
    outer loop
      vertex 7.75 6.225 9.95
      vertex 7.79917 5.7572 9.95
      vertex 7.79917 5.7572 0
    endloop
  endfacet
  facet normal 0.994522 0.104529 0
    outer loop
      vertex 7.75 6.225 0
      vertex 7.75 6.225 9.95
      vertex 7.79917 5.7572 0
    endloop
  endfacet
  facet normal 0.951056 -0.309017 0
    outer loop
      vertex 7.94452 7.14016 0
      vertex 7.94452 7.14016 9.95
      vertex 7.79917 6.6928 9.95
    endloop
  endfacet
  facet normal 0.951056 -0.309017 0
    outer loop
      vertex 7.79917 6.6928 0
      vertex 7.94452 7.14016 0
      vertex 7.79917 6.6928 9.95
    endloop
  endfacet
  facet normal 0.866026 -0.499999 0
    outer loop
      vertex 8.17971 7.54752 0
      vertex 8.17971 7.54752 9.95
      vertex 7.94452 7.14016 9.95
    endloop
  endfacet
  facet normal 0.866026 -0.499999 0
    outer loop
      vertex 7.94452 7.14016 0
      vertex 8.17971 7.54752 0
      vertex 7.94452 7.14016 9.95
    endloop
  endfacet
  facet normal 0.743145 -0.66913 0
    outer loop
      vertex 8.49446 7.89708 0
      vertex 8.49446 7.89708 9.95
      vertex 8.17971 7.54752 9.95
    endloop
  endfacet
  facet normal 0.743145 -0.66913 0
    outer loop
      vertex 8.17971 7.54752 0
      vertex 8.49446 7.89708 0
      vertex 8.17971 7.54752 9.95
    endloop
  endfacet
  facet normal 0.587785 -0.809017 0
    outer loop
      vertex 8.875 8.17356 0
      vertex 8.875 8.17356 9.95
      vertex 8.49446 7.89708 9.95
    endloop
  endfacet
  facet normal 0.587785 -0.809017 0
    outer loop
      vertex 8.49446 7.89708 0
      vertex 8.875 8.17356 0
      vertex 8.49446 7.89708 9.95
    endloop
  endfacet
  facet normal 0.406736 -0.913546 0
    outer loop
      vertex 9.30471 8.36488 0
      vertex 9.30471 8.36488 9.95
      vertex 8.875 8.17356 9.95
    endloop
  endfacet
  facet normal 0.406736 -0.913546 0
    outer loop
      vertex 8.875 8.17356 0
      vertex 9.30471 8.36488 0
      vertex 8.875 8.17356 9.95
    endloop
  endfacet
  facet normal 0.207912 -0.978148 0
    outer loop
      vertex 9.76481 8.46267 0
      vertex 9.76481 8.46267 9.95
      vertex 9.30471 8.36488 9.95
    endloop
  endfacet
  facet normal 0.207912 -0.978148 0
    outer loop
      vertex 9.30471 8.36488 0
      vertex 9.76481 8.46267 0
      vertex 9.30471 8.36488 9.95
    endloop
  endfacet
  facet normal 0 -1 0
    outer loop
      vertex 10.2352 8.46267 0
      vertex 10.2352 8.46267 9.95
      vertex 9.76481 8.46267 9.95
    endloop
  endfacet
  facet normal -0 -1 -0
    outer loop
      vertex 9.76481 8.46267 0
      vertex 10.2352 8.46267 0
      vertex 9.76481 8.46267 9.95
    endloop
  endfacet
  facet normal -0.207912 -0.978148 -0
    outer loop
      vertex 10.6953 8.36488 0
      vertex 10.6953 8.36488 9.95
      vertex 10.2352 8.46267 9.95
    endloop
  endfacet
  facet normal -0.207912 -0.978148 -0
    outer loop
      vertex 10.2352 8.46267 0
      vertex 10.6953 8.36488 0
      vertex 10.2352 8.46267 9.95
    endloop
  endfacet
  facet normal -0.406736 -0.913546 -0
    outer loop
      vertex 11.125 8.17356 0
      vertex 11.125 8.17356 9.95
      vertex 10.6953 8.36488 9.95
    endloop
  endfacet
  facet normal -0.406736 -0.913546 -0
    outer loop
      vertex 10.6953 8.36488 0
      vertex 11.125 8.17356 0
      vertex 10.6953 8.36488 9.95
    endloop
  endfacet
  facet normal -0.587785 -0.809017 -0
    outer loop
      vertex 11.5055 7.89708 0
      vertex 11.5055 7.89708 9.95
      vertex 11.125 8.17356 9.95
    endloop
  endfacet
  facet normal -0.587785 -0.809017 -0
    outer loop
      vertex 11.125 8.17356 0
      vertex 11.5055 7.89708 0
      vertex 11.125 8.17356 9.95
    endloop
  endfacet
  facet normal -0.743145 -0.66913 0
    outer loop
      vertex 11.8203 7.54752 9.95
      vertex 11.5055 7.89708 9.95
      vertex 11.8203 7.54752 0
    endloop
  endfacet
  facet normal -0.743145 -0.66913 0
    outer loop
      vertex 11.8203 7.54752 0
      vertex 11.5055 7.89708 9.95
      vertex 11.5055 7.89708 0
    endloop
  endfacet
  facet normal -0.866026 -0.499999 0
    outer loop
      vertex 12.0555 7.14016 9.95
      vertex 11.8203 7.54752 9.95
      vertex 12.0555 7.14016 0
    endloop
  endfacet
  facet normal -0.866026 -0.499999 0
    outer loop
      vertex 12.0555 7.14016 0
      vertex 11.8203 7.54752 9.95
      vertex 11.8203 7.54752 0
    endloop
  endfacet
  facet normal -0.951056 -0.309017 0
    outer loop
      vertex 12.2008 6.6928 9.95
      vertex 12.0555 7.14016 9.95
      vertex 12.2008 6.6928 0
    endloop
  endfacet
  facet normal -0.951056 -0.309017 0
    outer loop
      vertex 12.2008 6.6928 0
      vertex 12.0555 7.14016 9.95
      vertex 12.0555 7.14016 0
    endloop
  endfacet
  facet normal -0.994522 -0.104529 0
    outer loop
      vertex 12.25 6.225 9.95
      vertex 12.2008 6.6928 9.95
      vertex 12.25 6.225 0
    endloop
  endfacet
  facet normal -0.994522 -0.104529 0
    outer loop
      vertex 12.25 6.225 0
      vertex 12.2008 6.6928 9.95
      vertex 12.2008 6.6928 0
    endloop
  endfacet
  facet normal -0.994522 0.104529 0
    outer loop
      vertex 12.25 6.225 9.95
      vertex 12.25 6.225 0
      vertex 12.2008 5.7572 9.95
    endloop
  endfacet
  facet normal -0.994522 0.104529 0
    outer loop
      vertex 12.2008 5.7572 9.95
      vertex 12.25 6.225 0
      vertex 12.2008 5.7572 0
    endloop
  endfacet
  facet normal -0.951056 0.309017 0
    outer loop
      vertex 12.2008 5.7572 9.95
      vertex 12.2008 5.7572 0
      vertex 12.0555 5.30984 9.95
    endloop
  endfacet
  facet normal -0.951056 0.309017 0
    outer loop
      vertex 12.0555 5.30984 9.95
      vertex 12.2008 5.7572 0
      vertex 12.0555 5.30984 0
    endloop
  endfacet
  facet normal -0.866026 0.499999 0
    outer loop
      vertex 12.0555 5.30984 9.95
      vertex 12.0555 5.30984 0
      vertex 11.8203 4.90248 9.95
    endloop
  endfacet
  facet normal -0.866026 0.499999 0
    outer loop
      vertex 11.8203 4.90248 9.95
      vertex 12.0555 5.30984 0
      vertex 11.8203 4.90248 0
    endloop
  endfacet
  facet normal -0.743145 0.66913 0
    outer loop
      vertex 11.8203 4.90248 9.95
      vertex 11.8203 4.90248 0
      vertex 11.5055 4.55292 9.95
    endloop
  endfacet
  facet normal -0.743145 0.66913 0
    outer loop
      vertex 11.5055 4.55292 9.95
      vertex 11.8203 4.90248 0
      vertex 11.5055 4.55292 0
    endloop
  endfacet
  facet normal -0.587785 0.809017 0
    outer loop
      vertex 11.5055 4.55292 9.95
      vertex 11.5055 4.55292 0
      vertex 11.125 4.27644 9.95
    endloop
  endfacet
  facet normal -0.587785 0.809017 0
    outer loop
      vertex 11.125 4.27644 9.95
      vertex 11.5055 4.55292 0
      vertex 11.125 4.27644 0
    endloop
  endfacet
  facet normal -0.406736 0.913546 0
    outer loop
      vertex 11.125 4.27644 9.95
      vertex 11.125 4.27644 0
      vertex 10.6953 4.08512 9.95
    endloop
  endfacet
  facet normal -0.406736 0.913546 0
    outer loop
      vertex 10.6953 4.08512 9.95
      vertex 11.125 4.27644 0
      vertex 10.6953 4.08512 0
    endloop
  endfacet
  facet normal -0.207912 0.978148 0
    outer loop
      vertex 10.6953 4.08512 9.95
      vertex 10.6953 4.08512 0
      vertex 10.2352 3.98733 9.95
    endloop
  endfacet
  facet normal -0.207912 0.978148 0
    outer loop
      vertex 10.2352 3.98733 9.95
      vertex 10.6953 4.08512 0
      vertex 10.2352 3.98733 0
    endloop
  endfacet
  facet normal 0 1 0
    outer loop
      vertex 10.2352 3.98733 9.95
      vertex 10.2352 3.98733 0
      vertex 9.76481 3.98733 9.95
    endloop
  endfacet
  facet normal 0 1 -0
    outer loop
      vertex 9.76481 3.98733 9.95
      vertex 10.2352 3.98733 0
      vertex 9.76481 3.98733 0
    endloop
  endfacet
  facet normal 0.207912 0.978148 -0
    outer loop
      vertex 9.76481 3.98733 9.95
      vertex 9.76481 3.98733 0
      vertex 9.30471 4.08512 9.95
    endloop
  endfacet
  facet normal 0.207912 0.978148 -0
    outer loop
      vertex 9.30471 4.08512 9.95
      vertex 9.76481 3.98733 0
      vertex 9.30471 4.08512 0
    endloop
  endfacet
  facet normal 0.406736 0.913546 -0
    outer loop
      vertex 9.30471 4.08512 9.95
      vertex 9.30471 4.08512 0
      vertex 8.875 4.27644 9.95
    endloop
  endfacet
  facet normal 0.406736 0.913546 -0
    outer loop
      vertex 8.875 4.27644 9.95
      vertex 9.30471 4.08512 0
      vertex 8.875 4.27644 0
    endloop
  endfacet
  facet normal 0.587785 0.809017 -0
    outer loop
      vertex 8.875 4.27644 9.95
      vertex 8.875 4.27644 0
      vertex 8.49446 4.55292 9.95
    endloop
  endfacet
  facet normal 0.587785 0.809017 -0
    outer loop
      vertex 8.49446 4.55292 9.95
      vertex 8.875 4.27644 0
      vertex 8.49446 4.55292 0
    endloop
  endfacet
  facet normal 0.743145 0.66913 0
    outer loop
      vertex 8.17971 4.90248 9.95
      vertex 8.49446 4.55292 9.95
      vertex 8.49446 4.55292 0
    endloop
  endfacet
  facet normal 0.743145 0.66913 0
    outer loop
      vertex 8.17971 4.90248 0
      vertex 8.17971 4.90248 9.95
      vertex 8.49446 4.55292 0
    endloop
  endfacet
  facet normal 0.866026 0.499999 0
    outer loop
      vertex 7.94452 5.30984 9.95
      vertex 8.17971 4.90248 9.95
      vertex 8.17971 4.90248 0
    endloop
  endfacet
  facet normal 0.866026 0.499999 0
    outer loop
      vertex 7.94452 5.30984 0
      vertex 7.94452 5.30984 9.95
      vertex 8.17971 4.90248 0
    endloop
  endfacet
  facet normal 0.951056 0.309017 0
    outer loop
      vertex 7.79917 5.7572 9.95
      vertex 7.94452 5.30984 9.95
      vertex 7.94452 5.30984 0
    endloop
  endfacet
  facet normal 0.951056 0.309017 0
    outer loop
      vertex 7.79917 5.7572 0
      vertex 7.79917 5.7572 9.95
      vertex 7.94452 5.30984 0
    endloop
  endfacet
  facet normal 0.994522 -0.104529 0
    outer loop
      vertex 7.79917 24.2428 0
      vertex 7.79917 24.2428 9.95
      vertex 7.75 23.775 9.95
    endloop
  endfacet
  facet normal 0.994522 -0.104529 0
    outer loop
      vertex 7.75 23.775 0
      vertex 7.79917 24.2428 0
      vertex 7.75 23.775 9.95
    endloop
  endfacet
  facet normal 0.994522 0.104529 0
    outer loop
      vertex 7.75 23.775 9.95
      vertex 7.79917 23.3072 9.95
      vertex 7.79917 23.3072 0
    endloop
  endfacet
  facet normal 0.994522 0.104529 0
    outer loop
      vertex 7.75 23.775 0
      vertex 7.75 23.775 9.95
      vertex 7.79917 23.3072 0
    endloop
  endfacet
  facet normal 0.951056 -0.309017 0
    outer loop
      vertex 7.94452 24.6902 0
      vertex 7.94452 24.6902 9.95
      vertex 7.79917 24.2428 9.95
    endloop
  endfacet
  facet normal 0.951056 -0.309017 0
    outer loop
      vertex 7.79917 24.2428 0
      vertex 7.94452 24.6902 0
      vertex 7.79917 24.2428 9.95
    endloop
  endfacet
  facet normal 0.866026 -0.499999 0
    outer loop
      vertex 8.17971 25.0975 0
      vertex 8.17971 25.0975 9.95
      vertex 7.94452 24.6902 9.95
    endloop
  endfacet
  facet normal 0.866026 -0.499999 0
    outer loop
      vertex 7.94452 24.6902 0
      vertex 8.17971 25.0975 0
      vertex 7.94452 24.6902 9.95
    endloop
  endfacet
  facet normal 0.743145 -0.66913 0
    outer loop
      vertex 8.49446 25.4471 0
      vertex 8.49446 25.4471 9.95
      vertex 8.17971 25.0975 9.95
    endloop
  endfacet
  facet normal 0.743145 -0.66913 0
    outer loop
      vertex 8.17971 25.0975 0
      vertex 8.49446 25.4471 0
      vertex 8.17971 25.0975 9.95
    endloop
  endfacet
  facet normal 0.587785 -0.809017 0
    outer loop
      vertex 8.875 25.7236 0
      vertex 8.875 25.7236 9.95
      vertex 8.49446 25.4471 9.95
    endloop
  endfacet
  facet normal 0.587785 -0.809017 0
    outer loop
      vertex 8.49446 25.4471 0
      vertex 8.875 25.7236 0
      vertex 8.49446 25.4471 9.95
    endloop
  endfacet
  facet normal 0.406736 -0.913546 0
    outer loop
      vertex 9.30471 25.9149 0
      vertex 9.30471 25.9149 9.95
      vertex 8.875 25.7236 9.95
    endloop
  endfacet
  facet normal 0.406736 -0.913546 0
    outer loop
      vertex 8.875 25.7236 0
      vertex 9.30471 25.9149 0
      vertex 8.875 25.7236 9.95
    endloop
  endfacet
  facet normal 0.207912 -0.978148 0
    outer loop
      vertex 9.76481 26.0127 0
      vertex 9.76481 26.0127 9.95
      vertex 9.30471 25.9149 9.95
    endloop
  endfacet
  facet normal 0.207912 -0.978148 0
    outer loop
      vertex 9.30471 25.9149 0
      vertex 9.76481 26.0127 0
      vertex 9.30471 25.9149 9.95
    endloop
  endfacet
  facet normal 0 -1 0
    outer loop
      vertex 10.2352 26.0127 0
      vertex 10.2352 26.0127 9.95
      vertex 9.76481 26.0127 9.95
    endloop
  endfacet
  facet normal -0 -1 -0
    outer loop
      vertex 9.76481 26.0127 0
      vertex 10.2352 26.0127 0
      vertex 9.76481 26.0127 9.95
    endloop
  endfacet
  facet normal -0.207912 -0.978148 -0
    outer loop
      vertex 10.6953 25.9149 0
      vertex 10.6953 25.9149 9.95
      vertex 10.2352 26.0127 9.95
    endloop
  endfacet
  facet normal -0.207912 -0.978148 -0
    outer loop
      vertex 10.2352 26.0127 0
      vertex 10.6953 25.9149 0
      vertex 10.2352 26.0127 9.95
    endloop
  endfacet
  facet normal -0.406736 -0.913546 -0
    outer loop
      vertex 11.125 25.7236 0
      vertex 11.125 25.7236 9.95
      vertex 10.6953 25.9149 9.95
    endloop
  endfacet
  facet normal -0.406736 -0.913546 -0
    outer loop
      vertex 10.6953 25.9149 0
      vertex 11.125 25.7236 0
      vertex 10.6953 25.9149 9.95
    endloop
  endfacet
  facet normal -0.587785 -0.809017 -0
    outer loop
      vertex 11.5055 25.4471 0
      vertex 11.5055 25.4471 9.95
      vertex 11.125 25.7236 9.95
    endloop
  endfacet
  facet normal -0.587785 -0.809017 -0
    outer loop
      vertex 11.125 25.7236 0
      vertex 11.5055 25.4471 0
      vertex 11.125 25.7236 9.95
    endloop
  endfacet
  facet normal -0.743145 -0.66913 0
    outer loop
      vertex 11.8203 25.0975 9.95
      vertex 11.5055 25.4471 9.95
      vertex 11.8203 25.0975 0
    endloop
  endfacet
  facet normal -0.743145 -0.66913 0
    outer loop
      vertex 11.8203 25.0975 0
      vertex 11.5055 25.4471 9.95
      vertex 11.5055 25.4471 0
    endloop
  endfacet
  facet normal -0.866026 -0.499999 0
    outer loop
      vertex 12.0555 24.6902 9.95
      vertex 11.8203 25.0975 9.95
      vertex 12.0555 24.6902 0
    endloop
  endfacet
  facet normal -0.866026 -0.499999 0
    outer loop
      vertex 12.0555 24.6902 0
      vertex 11.8203 25.0975 9.95
      vertex 11.8203 25.0975 0
    endloop
  endfacet
  facet normal -0.951056 -0.309017 0
    outer loop
      vertex 12.2008 24.2428 9.95
      vertex 12.0555 24.6902 9.95
      vertex 12.2008 24.2428 0
    endloop
  endfacet
  facet normal -0.951056 -0.309017 0
    outer loop
      vertex 12.2008 24.2428 0
      vertex 12.0555 24.6902 9.95
      vertex 12.0555 24.6902 0
    endloop
  endfacet
  facet normal -0.994522 -0.104529 0
    outer loop
      vertex 12.25 23.775 9.95
      vertex 12.2008 24.2428 9.95
      vertex 12.25 23.775 0
    endloop
  endfacet
  facet normal -0.994522 -0.104529 0
    outer loop
      vertex 12.25 23.775 0
      vertex 12.2008 24.2428 9.95
      vertex 12.2008 24.2428 0
    endloop
  endfacet
  facet normal -0.994522 0.104529 0
    outer loop
      vertex 12.25 23.775 9.95
      vertex 12.25 23.775 0
      vertex 12.2008 23.3072 9.95
    endloop
  endfacet
  facet normal -0.994522 0.104529 0
    outer loop
      vertex 12.2008 23.3072 9.95
      vertex 12.25 23.775 0
      vertex 12.2008 23.3072 0
    endloop
  endfacet
  facet normal -0.951056 0.309017 0
    outer loop
      vertex 12.2008 23.3072 9.95
      vertex 12.2008 23.3072 0
      vertex 12.0555 22.8598 9.95
    endloop
  endfacet
  facet normal -0.951056 0.309017 0
    outer loop
      vertex 12.0555 22.8598 9.95
      vertex 12.2008 23.3072 0
      vertex 12.0555 22.8598 0
    endloop
  endfacet
  facet normal -0.866026 0.499999 0
    outer loop
      vertex 12.0555 22.8598 9.95
      vertex 12.0555 22.8598 0
      vertex 11.8203 22.4525 9.95
    endloop
  endfacet
  facet normal -0.866026 0.499999 0
    outer loop
      vertex 11.8203 22.4525 9.95
      vertex 12.0555 22.8598 0
      vertex 11.8203 22.4525 0
    endloop
  endfacet
  facet normal -0.743145 0.66913 0
    outer loop
      vertex 11.8203 22.4525 9.95
      vertex 11.8203 22.4525 0
      vertex 11.5055 22.1029 9.95
    endloop
  endfacet
  facet normal -0.743145 0.66913 0
    outer loop
      vertex 11.5055 22.1029 9.95
      vertex 11.8203 22.4525 0
      vertex 11.5055 22.1029 0
    endloop
  endfacet
  facet normal -0.587785 0.809017 0
    outer loop
      vertex 11.5055 22.1029 9.95
      vertex 11.5055 22.1029 0
      vertex 11.125 21.8264 9.95
    endloop
  endfacet
  facet normal -0.587785 0.809017 0
    outer loop
      vertex 11.125 21.8264 9.95
      vertex 11.5055 22.1029 0
      vertex 11.125 21.8264 0
    endloop
  endfacet
  facet normal -0.406736 0.913546 0
    outer loop
      vertex 11.125 21.8264 9.95
      vertex 11.125 21.8264 0
      vertex 10.6953 21.6351 9.95
    endloop
  endfacet
  facet normal -0.406736 0.913546 0
    outer loop
      vertex 10.6953 21.6351 9.95
      vertex 11.125 21.8264 0
      vertex 10.6953 21.6351 0
    endloop
  endfacet
  facet normal -0.207912 0.978148 0
    outer loop
      vertex 10.6953 21.6351 9.95
      vertex 10.6953 21.6351 0
      vertex 10.2352 21.5373 9.95
    endloop
  endfacet
  facet normal -0.207912 0.978148 0
    outer loop
      vertex 10.2352 21.5373 9.95
      vertex 10.6953 21.6351 0
      vertex 10.2352 21.5373 0
    endloop
  endfacet
  facet normal 0 1 0
    outer loop
      vertex 10.2352 21.5373 9.95
      vertex 10.2352 21.5373 0
      vertex 9.76481 21.5373 9.95
    endloop
  endfacet
  facet normal 0 1 -0
    outer loop
      vertex 9.76481 21.5373 9.95
      vertex 10.2352 21.5373 0
      vertex 9.76481 21.5373 0
    endloop
  endfacet
  facet normal 0.207912 0.978148 -0
    outer loop
      vertex 9.76481 21.5373 9.95
      vertex 9.76481 21.5373 0
      vertex 9.30471 21.6351 9.95
    endloop
  endfacet
  facet normal 0.207912 0.978148 -0
    outer loop
      vertex 9.30471 21.6351 9.95
      vertex 9.76481 21.5373 0
      vertex 9.30471 21.6351 0
    endloop
  endfacet
  facet normal 0.406736 0.913546 -0
    outer loop
      vertex 9.30471 21.6351 9.95
      vertex 9.30471 21.6351 0
      vertex 8.875 21.8264 9.95
    endloop
  endfacet
  facet normal 0.406736 0.913546 -0
    outer loop
      vertex 8.875 21.8264 9.95
      vertex 9.30471 21.6351 0
      vertex 8.875 21.8264 0
    endloop
  endfacet
  facet normal 0.587785 0.809017 -0
    outer loop
      vertex 8.875 21.8264 9.95
      vertex 8.875 21.8264 0
      vertex 8.49446 22.1029 9.95
    endloop
  endfacet
  facet normal 0.587785 0.809017 -0
    outer loop
      vertex 8.49446 22.1029 9.95
      vertex 8.875 21.8264 0
      vertex 8.49446 22.1029 0
    endloop
  endfacet
  facet normal 0.743145 0.66913 0
    outer loop
      vertex 8.17971 22.4525 9.95
      vertex 8.49446 22.1029 9.95
      vertex 8.49446 22.1029 0
    endloop
  endfacet
  facet normal 0.743145 0.66913 0
    outer loop
      vertex 8.17971 22.4525 0
      vertex 8.17971 22.4525 9.95
      vertex 8.49446 22.1029 0
    endloop
  endfacet
  facet normal 0.866026 0.499999 0
    outer loop
      vertex 7.94452 22.8598 9.95
      vertex 8.17971 22.4525 9.95
      vertex 8.17971 22.4525 0
    endloop
  endfacet
  facet normal 0.866026 0.499999 0
    outer loop
      vertex 7.94452 22.8598 0
      vertex 7.94452 22.8598 9.95
      vertex 8.17971 22.4525 0
    endloop
  endfacet
  facet normal 0.951056 0.309017 0
    outer loop
      vertex 7.79917 23.3072 9.95
      vertex 7.94452 22.8598 9.95
      vertex 7.94452 22.8598 0
    endloop
  endfacet
  facet normal 0.951056 0.309017 0
    outer loop
      vertex 7.79917 23.3072 0
      vertex 7.79917 23.3072 9.95
      vertex 7.94452 22.8598 0
    endloop
  endfacet
endsolid OpenSCAD_Model
