solid OpenSCAD_Model
  facet normal -1 -0 -0
    outer loop
      vertex -1.9 7.5 7.5
      vertex -1.9 7.5 12.5
      vertex -1.9 42.5 7.5
    endloop
  endfacet
  facet normal -1 0 0
    outer loop
      vertex -1.9 42.5 7.5
      vertex -1.9 7.5 12.5
      vertex -1.9 42.5 12.5
    endloop
  endfacet
  facet normal 0 -1 0
    outer loop
      vertex -1.9 7.5 12.5
      vertex -1.9 7.5 7.5
      vertex 0 7.5 7.5
    endloop
  endfacet
  facet normal 0 -1 0
    outer loop
      vertex -0.1 7.5 8.33952
      vertex -1.9 7.5 12.5
      vertex 0 7.5 7.5
    endloop
  endfacet
  facet normal 0 -1 0
    outer loop
      vertex 0 7.5 8.33952
      vertex -0.1 7.5 8.33952
      vertex 0 7.5 7.5
    endloop
  endfacet
  facet normal 0 -1 0
    outer loop
      vertex 0 7.5 11.6605
      vertex -1.9 7.5 12.5
      vertex -0.1 7.5 11.6605
    endloop
  endfacet
  facet normal 0 -1 0
    outer loop
      vertex 0 7.5 12.5
      vertex -1.9 7.5 12.5
      vertex 0 7.5 11.6605
    endloop
  endfacet
  facet normal 0 -1 0
    outer loop
      vertex -0.1 7.5 8.33952
      vertex -0.1 7.5 11.6605
      vertex -1.9 7.5 12.5
    endloop
  endfacet
  facet normal -0 -0 -1
    outer loop
      vertex -1.9 7.5 7.5
      vertex -1.9 42.5 7.5
      vertex 0 7.5 7.5
    endloop
  endfacet
  facet normal 0 0 -1
    outer loop
      vertex 0 7.5 7.5
      vertex -1.9 42.5 7.5
      vertex 0 42.5 7.5
    endloop
  endfacet
  facet normal 0 1 0
    outer loop
      vertex -1.9 42.5 7.5
      vertex -1.9 42.5 12.5
      vertex 0 42.5 7.5
    endloop
  endfacet
  facet normal 0 1 0
    outer loop
      vertex 0 42.5 11.6605
      vertex -1.9 42.5 12.5
      vertex 0 42.5 12.5
    endloop
  endfacet
  facet normal 0 1 0
    outer loop
      vertex -0.1 42.5 11.6605
      vertex -1.9 42.5 12.5
      vertex 0 42.5 11.6605
    endloop
  endfacet
  facet normal 0 1 0
    outer loop
      vertex -0.1 42.5 8.33952
      vertex -1.9 42.5 12.5
      vertex -0.1 42.5 11.6605
    endloop
  endfacet
  facet normal 0 1 0
    outer loop
      vertex 0 42.5 7.5
      vertex -1.9 42.5 12.5
      vertex -0.1 42.5 8.33952
    endloop
  endfacet
  facet normal 0 1 0
    outer loop
      vertex 0 42.5 8.33952
      vertex 0 42.5 7.5
      vertex -0.1 42.5 8.33952
    endloop
  endfacet
  facet normal 0 -0 1
    outer loop
      vertex -1.9 42.5 12.5
      vertex -1.9 7.5 12.5
      vertex 0 7.5 12.5
    endloop
  endfacet
  facet normal 0 0 1
    outer loop
      vertex 0 42.5 12.5
      vertex -1.9 42.5 12.5
      vertex 0 7.5 12.5
    endloop
  endfacet
  facet normal -1 0 -0
    outer loop
      vertex 0 44.4678 12.2008
      vertex 0 0 20
      vertex 0 50 20
    endloop
  endfacet
  facet normal -1 0 -0
    outer loop
      vertex 0 0 0
      vertex 0 0 20
      vertex 0 3.76233 10.2352
    endloop
  endfacet
  facet normal -1 0 0
    outer loop
      vertex 0 0 0
      vertex 0 3.76233 10.2352
      vertex 0 3.76233 9.76481
    endloop
  endfacet
  facet normal -1 0 0
    outer loop
      vertex 0 0 0
      vertex 0 3.76233 9.76481
      vertex 0 3.86012 9.30471
    endloop
  endfacet
  facet normal -1 0 0
    outer loop
      vertex 0 0 0
      vertex 0 3.86012 9.30471
      vertex 0 4.05144 8.875
    endloop
  endfacet
  facet normal -1 0 0
    outer loop
      vertex 0 7.5 7.5
      vertex 0 6.91516 7.94452
      vertex 0 7.32252 8.17971
    endloop
  endfacet
  facet normal -1 0 0
    outer loop
      vertex 0 0 0
      vertex 0 4.05144 8.875
      vertex 0 4.32792 8.49446
    endloop
  endfacet
  facet normal -1 0 0
    outer loop
      vertex 0 0 0
      vertex 0 4.32792 8.49446
      vertex 0 4.67748 8.17971
    endloop
  endfacet
  facet normal -1 0 0
    outer loop
      vertex 0 0 0
      vertex 0 4.67748 8.17971
      vertex 0 5.08484 7.94452
    endloop
  endfacet
  facet normal -1 0 0
    outer loop
      vertex 0 0 0
      vertex 0 5.08484 7.94452
      vertex 0 5.5322 7.79917
    endloop
  endfacet
  facet normal -1 -0 0
    outer loop
      vertex 0 0 0
      vertex 0 5.5322 7.79917
      vertex 0 50 0
    endloop
  endfacet
  facet normal -1 0 0
    outer loop
      vertex 0 5.5322 7.79917
      vertex 0 6 7.75
      vertex 0 50 0
    endloop
  endfacet
  facet normal -1 0 0
    outer loop
      vertex 0 7.5 7.5
      vertex 0 6.4678 7.79917
      vertex 0 6.91516 7.94452
    endloop
  endfacet
  facet normal -1 0 0
    outer loop
      vertex 0 7.5 7.5
      vertex 0 7.32252 8.17971
      vertex 0 7.5 8.33952
    endloop
  endfacet
  facet normal -1 0 0
    outer loop
      vertex 0 6 7.75
      vertex 0 7.5 7.5
      vertex 0 50 0
    endloop
  endfacet
  facet normal -1 0 0
    outer loop
      vertex 0 43.0848 7.94452
      vertex 0 42.5 7.5
      vertex 0 42.6775 8.17971
    endloop
  endfacet
  facet normal -1 -0 0
    outer loop
      vertex 0 46.2377 9.76481
      vertex 0 50 20
      vertex 0 46.1399 9.30471
    endloop
  endfacet
  facet normal -1 0 0
    outer loop
      vertex 0 42.5 12.5
      vertex 0 43.0848 12.0555
      vertex 0 42.6775 11.8203
    endloop
  endfacet
  facet normal -1 0 -0
    outer loop
      vertex 0 42.5 7.5
      vertex 0 42.5 8.33952
      vertex 0 42.6775 8.17971
    endloop
  endfacet
  facet normal -1 0 0
    outer loop
      vertex 0 50 0
      vertex 0 42.5 7.5
      vertex 0 43.0848 7.94452
    endloop
  endfacet
  facet normal -1 0 0
    outer loop
      vertex 0 42.5 12.5
      vertex 0 42.6775 11.8203
      vertex 0 42.5 11.6605
    endloop
  endfacet
  facet normal -1 0 0
    outer loop
      vertex 0 50 0
      vertex 0 43.0848 7.94452
      vertex 0 43.5322 7.79917
    endloop
  endfacet
  facet normal -1 0 0
    outer loop
      vertex 0 50 0
      vertex 0 43.5322 7.79917
      vertex 0 44 7.75
    endloop
  endfacet
  facet normal -1 0 0
    outer loop
      vertex 0 50 0
      vertex 0 44 7.75
      vertex 0 44.4678 7.79917
    endloop
  endfacet
  facet normal -1 0 0
    outer loop
      vertex 0 50 0
      vertex 0 44.4678 7.79917
      vertex 0 44.9152 7.94452
    endloop
  endfacet
  facet normal -1 0 0
    outer loop
      vertex 0 50 0
      vertex 0 44.9152 7.94452
      vertex 0 45.3225 8.17971
    endloop
  endfacet
  facet normal -1 0 0
    outer loop
      vertex 0 50 0
      vertex 0 45.3225 8.17971
      vertex 0 45.6721 8.49446
    endloop
  endfacet
  facet normal -1 0 0
    outer loop
      vertex 0 50 0
      vertex 0 45.6721 8.49446
      vertex 0 45.9486 8.875
    endloop
  endfacet
  facet normal -1 0 0
    outer loop
      vertex 0 50 0
      vertex 0 45.9486 8.875
      vertex 0 46.1399 9.30471
    endloop
  endfacet
  facet normal -1 0 0
    outer loop
      vertex 0 50 0
      vertex 0 46.1399 9.30471
      vertex 0 50 20
    endloop
  endfacet
  facet normal -1 -0 0
    outer loop
      vertex 0 46.2377 10.2352
      vertex 0 50 20
      vertex 0 46.2377 9.76481
    endloop
  endfacet
  facet normal -1 -0 0
    outer loop
      vertex 0 46.1399 10.6953
      vertex 0 50 20
      vertex 0 46.2377 10.2352
    endloop
  endfacet
  facet normal -1 -0 0
    outer loop
      vertex 0 45.9486 11.125
      vertex 0 50 20
      vertex 0 46.1399 10.6953
    endloop
  endfacet
  facet normal -1 -0 0
    outer loop
      vertex 0 45.6721 11.5055
      vertex 0 50 20
      vertex 0 45.9486 11.125
    endloop
  endfacet
  facet normal -1 -0 0
    outer loop
      vertex 0 45.3225 11.8203
      vertex 0 50 20
      vertex 0 45.6721 11.5055
    endloop
  endfacet
  facet normal -1 -0 0
    outer loop
      vertex 0 44.9152 12.0555
      vertex 0 50 20
      vertex 0 45.3225 11.8203
    endloop
  endfacet
  facet normal -1 -0 0
    outer loop
      vertex 0 44.4678 12.2008
      vertex 0 50 20
      vertex 0 44.9152 12.0555
    endloop
  endfacet
  facet normal -1 -0 -0
    outer loop
      vertex 0 44 12.25
      vertex 0 0 20
      vertex 0 44.4678 12.2008
    endloop
  endfacet
  facet normal -1 0 0
    outer loop
      vertex 0 42.5 12.5
      vertex 0 43.5322 12.2008
      vertex 0 43.0848 12.0555
    endloop
  endfacet
  facet normal -1 -0 -0
    outer loop
      vertex 0 42.5 12.5
      vertex 0 0 20
      vertex 0 44 12.25
    endloop
  endfacet
  facet normal -1 -0 -0
    outer loop
      vertex 0 7.5 12.5
      vertex 0 0 20
      vertex 0 42.5 12.5
    endloop
  endfacet
  facet normal -1 0 -0
    outer loop
      vertex 0 43.5322 12.2008
      vertex 0 42.5 12.5
      vertex 0 44 12.25
    endloop
  endfacet
  facet normal -1 0 -0
    outer loop
      vertex 0 6.4678 12.2008
      vertex 0 0 20
      vertex 0 7.5 12.5
    endloop
  endfacet
  facet normal -1 -0 0
    outer loop
      vertex 0 7.32252 11.8203
      vertex 0 7.5 12.5
      vertex 0 7.5 11.6605
    endloop
  endfacet
  facet normal -1 -0 0
    outer loop
      vertex 0 6.91516 12.0555
      vertex 0 7.5 12.5
      vertex 0 7.32252 11.8203
    endloop
  endfacet
  facet normal -1 -0 -0
    outer loop
      vertex 0 6 12.25
      vertex 0 0 20
      vertex 0 6.4678 12.2008
    endloop
  endfacet
  facet normal -1 0 -0
    outer loop
      vertex 0 5.5322 12.2008
      vertex 0 0 20
      vertex 0 6 12.25
    endloop
  endfacet
  facet normal -1 0 -0
    outer loop
      vertex 0 5.08484 12.0555
      vertex 0 0 20
      vertex 0 5.5322 12.2008
    endloop
  endfacet
  facet normal -1 0 -0
    outer loop
      vertex 0 4.67748 11.8203
      vertex 0 0 20
      vertex 0 5.08484 12.0555
    endloop
  endfacet
  facet normal -1 0 -0
    outer loop
      vertex 0 4.32792 11.5055
      vertex 0 0 20
      vertex 0 4.67748 11.8203
    endloop
  endfacet
  facet normal -1 0 -0
    outer loop
      vertex 0 4.05144 11.125
      vertex 0 0 20
      vertex 0 4.32792 11.5055
    endloop
  endfacet
  facet normal -1 0 -0
    outer loop
      vertex 0 3.86012 10.6953
      vertex 0 0 20
      vertex 0 4.05144 11.125
    endloop
  endfacet
  facet normal -1 0 -0
    outer loop
      vertex 0 3.76233 10.2352
      vertex 0 0 20
      vertex 0 3.86012 10.6953
    endloop
  endfacet
  facet normal -1 0 0
    outer loop
      vertex 0 42.5 7.5
      vertex 0 50 0
      vertex 0 7.5 7.5
    endloop
  endfacet
  facet normal -1 0 0
    outer loop
      vertex 0 6.4678 7.79917
      vertex 0 7.5 7.5
      vertex 0 6 7.75
    endloop
  endfacet
  facet normal -1 -0 0
    outer loop
      vertex 0 6.4678 12.2008
      vertex 0 7.5 12.5
      vertex 0 6.91516 12.0555
    endloop
  endfacet
  facet normal 2.16408e-16 -0.66913 -0.743145
    outer loop
      vertex 6 7.67208 11.5055
      vertex 6 7.32252 11.8203
      vertex -0.1 7.67208 11.5055
    endloop
  endfacet
  facet normal 0 -0.66913 -0.743145
    outer loop
      vertex 0 7.5 11.6605
      vertex 6 7.32252 11.8203
      vertex 0 7.32252 11.8203
    endloop
  endfacet
  facet normal 4.13648e-17 -0.66913 -0.743145
    outer loop
      vertex -0.1 7.67208 11.5055
      vertex 6 7.32252 11.8203
      vertex 0 7.5 11.6605
    endloop
  endfacet
  facet normal -0 -0.66913 -0.743145
    outer loop
      vertex -0.1 7.5 11.6605
      vertex -0.1 7.67208 11.5055
      vertex 0 7.5 11.6605
    endloop
  endfacet
  facet normal 1 -1.98238e-16 3.99306e-16
    outer loop
      vertex -0.1 7.5 8.33952
      vertex -0.1 7.67208 8.49446
      vertex -0.1 7.94856 8.875
    endloop
  endfacet
  facet normal 1 -5.68995e-17 2.53395e-16
    outer loop
      vertex -0.1 8.23767 9.76481
      vertex -0.1 7.5 8.33952
      vertex -0.1 8.13988 9.30471
    endloop
  endfacet
  facet normal 1 1.00588e-16 1.48989e-16
    outer loop
      vertex -0.1 8.13988 9.30471
      vertex -0.1 7.5 8.33952
      vertex -0.1 7.94856 8.875
    endloop
  endfacet
  facet normal 1 3.36618e-17 2.06524e-16
    outer loop
      vertex -0.1 8.23767 10.2352
      vertex -0.1 7.5 8.33952
      vertex -0.1 8.23767 9.76481
    endloop
  endfacet
  facet normal 1 -3.60276e-17 2.33643e-16
    outer loop
      vertex -0.1 8.13988 10.6953
      vertex -0.1 7.5 8.33952
      vertex -0.1 8.23767 10.2352
    endloop
  endfacet
  facet normal 1 -3.08534e-18 2.24695e-16
    outer loop
      vertex -0.1 7.94856 11.125
      vertex -0.1 7.5 8.33952
      vertex -0.1 8.13988 10.6953
    endloop
  endfacet
  facet normal 1 6.07119e-18 2.23221e-16
    outer loop
      vertex -0.1 7.67208 11.5055
      vertex -0.1 7.5 8.33952
      vertex -0.1 7.94856 11.125
    endloop
  endfacet
  facet normal 1 3.81218e-17 2.21479e-16
    outer loop
      vertex -0.1 7.5 11.6605
      vertex -0.1 7.5 8.33952
      vertex -0.1 7.67208 11.5055
    endloop
  endfacet
  facet normal -2.20015e-16 -0.66913 0.743145
    outer loop
      vertex 6 7.32252 8.17971
      vertex 0 7.5 8.33952
      vertex 0 7.32252 8.17971
    endloop
  endfacet
  facet normal -1.99149e-16 -0.66913 0.743145
    outer loop
      vertex 6 7.67208 8.49446
      vertex 0 7.5 8.33952
      vertex 6 7.32252 8.17971
    endloop
  endfacet
  facet normal 0 -0.66913 0.743145
    outer loop
      vertex -0.1 7.5 8.33952
      vertex 0 7.5 8.33952
      vertex 6 7.67208 8.49446
    endloop
  endfacet
  facet normal -2.16408e-16 -0.66913 0.743145
    outer loop
      vertex -0.1 7.67208 8.49446
      vertex -0.1 7.5 8.33952
      vertex 6 7.67208 8.49446
    endloop
  endfacet
  facet normal -2.21276e-16 0.66913 0.743145
    outer loop
      vertex 6 42.3279 8.49446
      vertex 6 42.6775 8.17971
      vertex 0 42.6775 8.17971
    endloop
  endfacet
  facet normal 0 0.66913 0.743145
    outer loop
      vertex -0.1 42.5 8.33952
      vertex 6 42.3279 8.49446
      vertex 0 42.5 8.33952
    endloop
  endfacet
  facet normal 8.90689e-16 0.66913 0.743145
    outer loop
      vertex 0 42.5 8.33952
      vertex 6 42.3279 8.49446
      vertex 0 42.6775 8.17971
    endloop
  endfacet
  facet normal -2.16408e-16 0.66913 0.743145
    outer loop
      vertex -0.1 42.3279 8.49446
      vertex 6 42.3279 8.49446
      vertex -0.1 42.5 8.33952
    endloop
  endfacet
  facet normal 1 -2.58046e-17 2.37558e-16
    outer loop
      vertex -0.1 42.3279 11.5055
      vertex -0.1 42.0514 11.125
      vertex -0.1 41.8601 10.6953
    endloop
  endfacet
  facet normal 1 5.14045e-17 2.06524e-16
    outer loop
      vertex -0.1 41.7623 9.76481
      vertex -0.1 42.3279 11.5055
      vertex -0.1 41.7623 10.2352
    endloop
  endfacet
  facet normal 1 -5.11011e-17 2.52163e-16
    outer loop
      vertex -0.1 41.7623 10.2352
      vertex -0.1 42.3279 11.5055
      vertex -0.1 41.8601 10.6953
    endloop
  endfacet
  facet normal 1 -3.3628e-17 2.34153e-16
    outer loop
      vertex -0.1 41.8601 9.30471
      vertex -0.1 42.3279 11.5055
      vertex -0.1 41.7623 9.76481
    endloop
  endfacet
  facet normal 1 5.05209e-17 2.16267e-16
    outer loop
      vertex -0.1 42.0514 8.875
      vertex -0.1 42.3279 11.5055
      vertex -0.1 41.8601 9.30471
    endloop
  endfacet
  facet normal 1 -4.05237e-17 2.25836e-16
    outer loop
      vertex -0.1 42.3279 8.49446
      vertex -0.1 42.3279 11.5055
      vertex -0.1 42.0514 8.875
    endloop
  endfacet
  facet normal 1 4.20449e-17 2.25836e-16
    outer loop
      vertex -0.1 42.5 8.33952
      vertex -0.1 42.3279 11.5055
      vertex -0.1 42.3279 8.49446
    endloop
  endfacet
  facet normal 1 -3.81218e-17 2.21479e-16
    outer loop
      vertex -0.1 42.5 11.6605
      vertex -0.1 42.3279 11.5055
      vertex -0.1 42.5 8.33952
    endloop
  endfacet
  facet normal 0 0.66913 -0.743145
    outer loop
      vertex 0 42.6775 11.8203
      vertex 6 42.6775 11.8203
      vertex 0 42.5 11.6605
    endloop
  endfacet
  facet normal 6.76275e-16 0.66913 -0.743145
    outer loop
      vertex 0 42.5 11.6605
      vertex 6 42.6775 11.8203
      vertex 6 42.3279 11.5055
    endloop
  endfacet
  facet normal 2.15542e-16 0.66913 -0.743145
    outer loop
      vertex 0 42.5 11.6605
      vertex 6 42.3279 11.5055
      vertex -0.1 42.3279 11.5055
    endloop
  endfacet
  facet normal 0 0.66913 -0.743145
    outer loop
      vertex 0 42.5 11.6605
      vertex -0.1 42.3279 11.5055
      vertex -0.1 42.5 11.6605
    endloop
  endfacet
  facet normal -0 -0 -1
    outer loop
      vertex 0 0 0
      vertex 0 50 0
      vertex 6 0 0
    endloop
  endfacet
  facet normal 0 0 -1
    outer loop
      vertex 6 37.5 0
      vertex 0 50 0
      vertex 6 50 0
    endloop
  endfacet
  facet normal 0 0 -1
    outer loop
      vertex 6 0 0
      vertex 0 50 0
      vertex 6 12.5 0
    endloop
  endfacet
  facet normal -0 0 -1
    outer loop
      vertex 11.2361 28.8042 0
      vertex 13.8955 38.4945 0
      vertex 12 28.4641 0
    endloop
  endfacet
  facet normal 0 0 -1
    outer loop
      vertex 13 37.5 0
      vertex 13.0219 37.7079 0
      vertex 13.0865 37.9067 0
    endloop
  endfacet
  facet normal 0 0 -1
    outer loop
      vertex 13.2361 27.3511 0
      vertex 13.8955 38.4945 0
      vertex 19.1045 38.4945 0
    endloop
  endfacet
  facet normal 0 0 -1
    outer loop
      vertex 13.8955 11.5055 0
      vertex 20 37.5 0
      vertex 20 12.5 0
    endloop
  endfacet
  facet normal 0 0 -1
    outer loop
      vertex 11.2361 28.8042 0
      vertex 13 37.5 0
      vertex 13.0865 37.9067 0
    endloop
  endfacet
  facet normal 0 0 -1
    outer loop
      vertex 19.1045 11.5055 0
      vertex 19.9781 12.2921 0
      vertex 19.9135 12.0933 0
    endloop
  endfacet
  facet normal 0 0 -1
    outer loop
      vertex 19.309 11.5489 0
      vertex 19.9135 12.0933 0
      vertex 19.809 11.9122 0
    endloop
  endfacet
  facet normal 0 0 -1
    outer loop
      vertex 19.5 11.634 0
      vertex 19.809 11.9122 0
      vertex 19.6691 11.7569 0
    endloop
  endfacet
  facet normal -0 0 -1
    outer loop
      vertex 13.8955 11.5055 0
      vertex 19.9781 12.2921 0
      vertex 19.1045 11.5055 0
    endloop
  endfacet
  facet normal 0 0 -1
    outer loop
      vertex 19.1045 11.5055 0
      vertex 19.9135 12.0933 0
      vertex 19.309 11.5489 0
    endloop
  endfacet
  facet normal 0 0 -1
    outer loop
      vertex 11.2361 28.8042 0
      vertex 13.0865 37.9067 0
      vertex 13.191 38.0878 0
    endloop
  endfacet
  facet normal 0 0 -1
    outer loop
      vertex 13.8955 11.5055 0
      vertex 20 12.5 0
      vertex 19.9781 12.2921 0
    endloop
  endfacet
  facet normal -0 0 -1
    outer loop
      vertex 13.691 11.5489 0
      vertex 20 37.5 0
      vertex 13.8955 11.5055 0
    endloop
  endfacet
  facet normal 0 0 -1
    outer loop
      vertex 6 12.5 0
      vertex 8.76393 21.1958 0
      vertex 9.58189 21.0219 0
    endloop
  endfacet
  facet normal -0 0 -1
    outer loop
      vertex 13.5 11.634 0
      vertex 20 37.5 0
      vertex 13.691 11.5489 0
    endloop
  endfacet
  facet normal -0 0 -1
    outer loop
      vertex 13.3309 11.7569 0
      vertex 20 37.5 0
      vertex 13.5 11.634 0
    endloop
  endfacet
  facet normal -0 0 -1
    outer loop
      vertex 13.191 11.9122 0
      vertex 20 37.5 0
      vertex 13.3309 11.7569 0
    endloop
  endfacet
  facet normal -0 0 -1
    outer loop
      vertex 13.0865 12.0933 0
      vertex 20 37.5 0
      vertex 13.191 11.9122 0
    endloop
  endfacet
  facet normal -0 0 -1
    outer loop
      vertex 13.0219 12.2921 0
      vertex 20 37.5 0
      vertex 13.0865 12.0933 0
    endloop
  endfacet
  facet normal -0 0 -1
    outer loop
      vertex 13 12.5 0
      vertex 20 37.5 0
      vertex 13.0219 12.2921 0
    endloop
  endfacet
  facet normal 0 0 -1
    outer loop
      vertex 6 25 0
      vertex 6 12.5 0
      vertex 0 50 0
    endloop
  endfacet
  facet normal 0 0 -1
    outer loop
      vertex 6 37.5 0
      vertex 6 25 0
      vertex 0 50 0
    endloop
  endfacet
  facet normal 0 0 -1
    outer loop
      vertex 7.32348 27.9726 0
      vertex 13 37.5 0
      vertex 8 28.4641 0
    endloop
  endfacet
  facet normal 0 0 -1
    outer loop
      vertex 6 25 0
      vertex 6.08741 24.1684 0
      vertex 6 12.5 0
    endloop
  endfacet
  facet normal 0 0 -1
    outer loop
      vertex 8 28.4641 0
      vertex 13 37.5 0
      vertex 8.76393 28.8042 0
    endloop
  endfacet
  facet normal 0 0 -1
    outer loop
      vertex 6.08741 24.1684 0
      vertex 6.34582 23.3731 0
      vertex 6 12.5 0
    endloop
  endfacet
  facet normal 0 0 -1
    outer loop
      vertex 6.34582 23.3731 0
      vertex 6.76393 22.6489 0
      vertex 6 12.5 0
    endloop
  endfacet
  facet normal 0 0 -1
    outer loop
      vertex 8.76393 28.8042 0
      vertex 13 37.5 0
      vertex 9.58189 28.9781 0
    endloop
  endfacet
  facet normal 0 0 -1
    outer loop
      vertex 6.76393 22.6489 0
      vertex 7.32348 22.0274 0
      vertex 6 12.5 0
    endloop
  endfacet
  facet normal 0 0 -1
    outer loop
      vertex 7.32348 22.0274 0
      vertex 8 21.5359 0
      vertex 6 12.5 0
    endloop
  endfacet
  facet normal -0 0 -1
    outer loop
      vertex 14 25 0
      vertex 19.1045 38.4945 0
      vertex 13.9126 24.1684 0
    endloop
  endfacet
  facet normal 0 0 -1
    outer loop
      vertex 8.76393 21.1958 0
      vertex 6 12.5 0
      vertex 8 21.5359 0
    endloop
  endfacet
  facet normal -0 0 -1
    outer loop
      vertex 9.58189 28.9781 0
      vertex 13 37.5 0
      vertex 10.4181 28.9781 0
    endloop
  endfacet
  facet normal 0 0 -1
    outer loop
      vertex 11.2361 28.8042 0
      vertex 13.5 38.366 0
      vertex 13.691 38.4511 0
    endloop
  endfacet
  facet normal 0 0 -1
    outer loop
      vertex 11.2361 28.8042 0
      vertex 13.691 38.4511 0
      vertex 13.8955 38.4945 0
    endloop
  endfacet
  facet normal 0 0 -1
    outer loop
      vertex 13.6542 23.3731 0
      vertex 13.9126 24.1684 0
      vertex 19.1045 38.4945 0
    endloop
  endfacet
  facet normal -0 0 -1
    outer loop
      vertex 13.9126 25.8316 0
      vertex 19.1045 38.4945 0
      vertex 14 25 0
    endloop
  endfacet
  facet normal -0 0 -1
    outer loop
      vertex 13.6542 26.6269 0
      vertex 19.1045 38.4945 0
      vertex 13.9126 25.8316 0
    endloop
  endfacet
  facet normal -0 0 -1
    outer loop
      vertex 13.2361 27.3511 0
      vertex 19.1045 38.4945 0
      vertex 13.6542 26.6269 0
    endloop
  endfacet
  facet normal -0 0 -1
    outer loop
      vertex 12.6765 27.9726 0
      vertex 13.8955 38.4945 0
      vertex 13.2361 27.3511 0
    endloop
  endfacet
  facet normal 0 0 -1
    outer loop
      vertex 11.2361 28.8042 0
      vertex 13.3309 38.2431 0
      vertex 13.5 38.366 0
    endloop
  endfacet
  facet normal -0 0 -1
    outer loop
      vertex 12 28.4641 0
      vertex 13.8955 38.4945 0
      vertex 12.6765 27.9726 0
    endloop
  endfacet
  facet normal 0 0 -1
    outer loop
      vertex 6 37.5 0
      vertex 13 37.5 0
      vertex 7.32348 27.9726 0
    endloop
  endfacet
  facet normal 0 0 -1
    outer loop
      vertex 6 37.5 0
      vertex 7.32348 27.9726 0
      vertex 6.76393 27.3511 0
    endloop
  endfacet
  facet normal 0 0 -1
    outer loop
      vertex 6 37.5 0
      vertex 6.76393 27.3511 0
      vertex 6.34582 26.6269 0
    endloop
  endfacet
  facet normal 0 0 -1
    outer loop
      vertex 6 37.5 0
      vertex 6.34582 26.6269 0
      vertex 6.08741 25.8316 0
    endloop
  endfacet
  facet normal 0 0 -1
    outer loop
      vertex 6 37.5 0
      vertex 6.08741 25.8316 0
      vertex 6 25 0
    endloop
  endfacet
  facet normal 0 0 -1
    outer loop
      vertex 19.309 11.5489 0
      vertex 19.809 11.9122 0
      vertex 19.5 11.634 0
    endloop
  endfacet
  facet normal 0 0 -1
    outer loop
      vertex 11.2361 28.8042 0
      vertex 13.191 38.0878 0
      vertex 13.3309 38.2431 0
    endloop
  endfacet
  facet normal -0 0 -1
    outer loop
      vertex 10.4181 28.9781 0
      vertex 13 37.5 0
      vertex 11.2361 28.8042 0
    endloop
  endfacet
  facet normal 0 0 -1
    outer loop
      vertex 6 12.5 0
      vertex 9.58189 21.0219 0
      vertex 10.4181 21.0219 0
    endloop
  endfacet
  facet normal 0 0 -1
    outer loop
      vertex 6 12.5 0
      vertex 10.4181 21.0219 0
      vertex 11.2361 21.1958 0
    endloop
  endfacet
  facet normal 0 0 -1
    outer loop
      vertex 6 12.5 0
      vertex 11.2361 21.1958 0
      vertex 12 21.5359 0
    endloop
  endfacet
  facet normal 0 0 -1
    outer loop
      vertex 6 12.5 0
      vertex 12 21.5359 0
      vertex 12.6765 22.0274 0
    endloop
  endfacet
  facet normal 0 0 -1
    outer loop
      vertex 6 12.5 0
      vertex 12.6765 22.0274 0
      vertex 13.2361 22.6489 0
    endloop
  endfacet
  facet normal 0 0 -1
    outer loop
      vertex 13.6542 23.3731 0
      vertex 19.1045 38.4945 0
      vertex 19.309 38.4511 0
    endloop
  endfacet
  facet normal 0 0 -1
    outer loop
      vertex 13.6542 23.3731 0
      vertex 19.309 38.4511 0
      vertex 19.5 38.366 0
    endloop
  endfacet
  facet normal 0 0 -1
    outer loop
      vertex 13.6542 23.3731 0
      vertex 19.5 38.366 0
      vertex 19.6691 38.2431 0
    endloop
  endfacet
  facet normal 0 0 -1
    outer loop
      vertex 13.6542 23.3731 0
      vertex 19.6691 38.2431 0
      vertex 19.809 38.0878 0
    endloop
  endfacet
  facet normal 0 0 -1
    outer loop
      vertex 13.6542 23.3731 0
      vertex 19.809 38.0878 0
      vertex 19.9135 37.9067 0
    endloop
  endfacet
  facet normal 0 0 -1
    outer loop
      vertex 13.6542 23.3731 0
      vertex 19.9135 37.9067 0
      vertex 19.9781 37.7079 0
    endloop
  endfacet
  facet normal 0 0 -1
    outer loop
      vertex 13.6542 23.3731 0
      vertex 19.9781 37.7079 0
      vertex 20 37.5 0
    endloop
  endfacet
  facet normal -0 0 -1
    outer loop
      vertex 13.6542 23.3731 0
      vertex 20 37.5 0
      vertex 13 12.5 0
    endloop
  endfacet
  facet normal -0 0 -1
    outer loop
      vertex 13.2361 22.6489 0
      vertex 13.6542 23.3731 0
      vertex 13 12.5 0
    endloop
  endfacet
  facet normal -0 0 -1
    outer loop
      vertex 6 12.5 0
      vertex 13.2361 22.6489 0
      vertex 13 12.5 0
    endloop
  endfacet
  facet normal 0 1 0
    outer loop
      vertex 0 50 0
      vertex 0 50 20
      vertex 6 50 0
    endloop
  endfacet
  facet normal 0 1 0
    outer loop
      vertex 6 50 0
      vertex 0 50 20
      vertex 6 50 20
    endloop
  endfacet
  facet normal 0 -0 1
    outer loop
      vertex 0 50 20
      vertex 0 0 20
      vertex 6 0 20
    endloop
  endfacet
  facet normal -0 0 1
    outer loop
      vertex 6.08741 24.1684 20
      vertex 0 50 20
      vertex 6 12.5 20
    endloop
  endfacet
  facet normal -0 0 1
    outer loop
      vertex 6 12.5 20
      vertex 0 50 20
      vertex 6 0 20
    endloop
  endfacet
  facet normal 0 0 1
    outer loop
      vertex 6.76393 27.3511 20
      vertex 7.32348 27.9726 20
      vertex 0 50 20
    endloop
  endfacet
  facet normal 0 0 1
    outer loop
      vertex 13 37.5 20
      vertex 12.6765 27.9726 20
      vertex 13 27.6133 20
    endloop
  endfacet
  facet normal 0 0 1
    outer loop
      vertex 13 22.3867 20
      vertex 12.6765 22.0274 20
      vertex 13 12.5 20
    endloop
  endfacet
  facet normal 0 -0 1
    outer loop
      vertex 12.6765 22.0274 20
      vertex 12 21.5359 20
      vertex 13 12.5 20
    endloop
  endfacet
  facet normal 0 0 1
    outer loop
      vertex 9.58189 28.9781 20
      vertex 6 37.5 20
      vertex 0 50 20
    endloop
  endfacet
  facet normal 0 -0 1
    outer loop
      vertex 12 21.5359 20
      vertex 11.2361 21.1958 20
      vertex 13 12.5 20
    endloop
  endfacet
  facet normal 0 -0 1
    outer loop
      vertex 11.2361 21.1958 20
      vertex 10.4181 21.0219 20
      vertex 13 12.5 20
    endloop
  endfacet
  facet normal -0 0 1
    outer loop
      vertex 13 12.5 20
      vertex 9.58189 21.0219 20
      vertex 6 12.5 20
    endloop
  endfacet
  facet normal -0 0 1
    outer loop
      vertex 9.58189 21.0219 20
      vertex 8.76393 21.1958 20
      vertex 6 12.5 20
    endloop
  endfacet
  facet normal 0 0 1
    outer loop
      vertex 7.32348 27.9726 20
      vertex 8 28.4641 20
      vertex 0 50 20
    endloop
  endfacet
  facet normal -0 0 1
    outer loop
      vertex 8.76393 21.1958 20
      vertex 8 21.5359 20
      vertex 6 12.5 20
    endloop
  endfacet
  facet normal -0 0 1
    outer loop
      vertex 8 21.5359 20
      vertex 7.32348 22.0274 20
      vertex 6 12.5 20
    endloop
  endfacet
  facet normal -0 0 1
    outer loop
      vertex 7.32348 22.0274 20
      vertex 6.76393 22.6489 20
      vertex 6 12.5 20
    endloop
  endfacet
  facet normal -0 0 1
    outer loop
      vertex 6.76393 22.6489 20
      vertex 6.34582 23.3731 20
      vertex 6 12.5 20
    endloop
  endfacet
  facet normal -0 0 1
    outer loop
      vertex 6.34582 23.3731 20
      vertex 6.08741 24.1684 20
      vertex 6 12.5 20
    endloop
  endfacet
  facet normal 0 0 1
    outer loop
      vertex 6 25 20
      vertex 6.08741 25.8316 20
      vertex 0 50 20
    endloop
  endfacet
  facet normal 0 0 1
    outer loop
      vertex 6.08741 25.8316 20
      vertex 6.34582 26.6269 20
      vertex 0 50 20
    endloop
  endfacet
  facet normal 0 0 1
    outer loop
      vertex 6.34582 26.6269 20
      vertex 6.76393 27.3511 20
      vertex 0 50 20
    endloop
  endfacet
  facet normal 0 0 1
    outer loop
      vertex 8.76393 28.8042 20
      vertex 9.58189 28.9781 20
      vertex 0 50 20
    endloop
  endfacet
  facet normal 0 0 1
    outer loop
      vertex 6.08741 24.1684 20
      vertex 6 25 20
      vertex 0 50 20
    endloop
  endfacet
  facet normal 0 0 1
    outer loop
      vertex 9.58189 28.9781 20
      vertex 10.4181 28.9781 20
      vertex 6 37.5 20
    endloop
  endfacet
  facet normal 0 0 1
    outer loop
      vertex 13 37.5 20
      vertex 12 28.4641 20
      vertex 12.6765 27.9726 20
    endloop
  endfacet
  facet normal 0 0 1
    outer loop
      vertex 6 37.5 20
      vertex 6 50 20
      vertex 0 50 20
    endloop
  endfacet
  facet normal 0 0 1
    outer loop
      vertex 8 28.4641 20
      vertex 8.76393 28.8042 20
      vertex 0 50 20
    endloop
  endfacet
  facet normal 0 -0 1
    outer loop
      vertex 10.4181 21.0219 20
      vertex 9.58189 21.0219 20
      vertex 13 12.5 20
    endloop
  endfacet
  facet normal 0 0 1
    outer loop
      vertex 13 37.5 20
      vertex 11.2361 28.8042 20
      vertex 12 28.4641 20
    endloop
  endfacet
  facet normal 0 0 1
    outer loop
      vertex 13 37.5 20
      vertex 10.4181 28.9781 20
      vertex 11.2361 28.8042 20
    endloop
  endfacet
  facet normal 0 0 1
    outer loop
      vertex 13 37.5 20
      vertex 6 37.5 20
      vertex 10.4181 28.9781 20
    endloop
  endfacet
  facet normal 0 -1 0
    outer loop
      vertex 0 0 20
      vertex 0 0 0
      vertex 6 0 0
    endloop
  endfacet
  facet normal 0 -1 0
    outer loop
      vertex 6 0 20
      vertex 0 0 20
      vertex 6 0 0
    endloop
  endfacet
  facet normal 0 0.978148 -0.207912
    outer loop
      vertex 6 3.86012 10.6953
      vertex 6 3.76233 10.2352
      vertex 0 3.86012 10.6953
    endloop
  endfacet
  facet normal 6.36169e-17 0.978148 -0.207912
    outer loop
      vertex 0 3.86012 10.6953
      vertex 6 3.76233 10.2352
      vertex 0 3.76233 10.2352
    endloop
  endfacet
  facet normal 0 1 0
    outer loop
      vertex 6 3.76233 10.2352
      vertex 6 3.76233 9.76481
      vertex 0 3.76233 10.2352
    endloop
  endfacet
  facet normal 0 1 -0
    outer loop
      vertex 0 3.76233 10.2352
      vertex 6 3.76233 9.76481
      vertex 0 3.76233 9.76481
    endloop
  endfacet
  facet normal 0 0.913546 -0.406736
    outer loop
      vertex 6 4.05144 11.125
      vertex 6 3.86012 10.6953
      vertex 0 4.05144 11.125
    endloop
  endfacet
  facet normal 0 0.913546 -0.406736
    outer loop
      vertex 0 4.05144 11.125
      vertex 6 3.86012 10.6953
      vertex 0 3.86012 10.6953
    endloop
  endfacet
  facet normal 1.74019e-16 0.809017 -0.587785
    outer loop
      vertex 6 4.32792 11.5055
      vertex 6 4.05144 11.125
      vertex 0 4.32792 11.5055
    endloop
  endfacet
  facet normal 0 0.809017 -0.587785
    outer loop
      vertex 0 4.32792 11.5055
      vertex 6 4.05144 11.125
      vertex 0 4.05144 11.125
    endloop
  endfacet
  facet normal 0 0.66913 -0.743145
    outer loop
      vertex 6 4.67748 11.8203
      vertex 6 4.32792 11.5055
      vertex 0 4.67748 11.8203
    endloop
  endfacet
  facet normal 2.21276e-16 0.66913 -0.743145
    outer loop
      vertex 0 4.67748 11.8203
      vertex 6 4.32792 11.5055
      vertex 0 4.32792 11.5055
    endloop
  endfacet
  facet normal 0 0.499999 -0.866026
    outer loop
      vertex 6 5.08484 12.0555
      vertex 6 4.67748 11.8203
      vertex 0 5.08484 12.0555
    endloop
  endfacet
  facet normal 0 0.499999 -0.866026
    outer loop
      vertex 0 5.08484 12.0555
      vertex 6 4.67748 11.8203
      vertex 0 4.67748 11.8203
    endloop
  endfacet
  facet normal 0 0.309017 -0.951056
    outer loop
      vertex 6 5.5322 12.2008
      vertex 6 5.08484 12.0555
      vertex 0 5.5322 12.2008
    endloop
  endfacet
  facet normal 0 0.309017 -0.951056
    outer loop
      vertex 0 5.5322 12.2008
      vertex 6 5.08484 12.0555
      vertex 0 5.08484 12.0555
    endloop
  endfacet
  facet normal 0 0.104529 -0.994522
    outer loop
      vertex 6 6 12.25
      vertex 6 5.5322 12.2008
      vertex 0 6 12.25
    endloop
  endfacet
  facet normal 0 0.104529 -0.994522
    outer loop
      vertex 0 6 12.25
      vertex 6 5.5322 12.2008
      vertex 0 5.5322 12.2008
    endloop
  endfacet
  facet normal 0 -0.104529 -0.994522
    outer loop
      vertex 6 6.4678 12.2008
      vertex 6 6 12.25
      vertex 0 6.4678 12.2008
    endloop
  endfacet
  facet normal 0 -0.104529 -0.994522
    outer loop
      vertex 0 6.4678 12.2008
      vertex 6 6 12.25
      vertex 0 6 12.25
    endloop
  endfacet
  facet normal 0 -0.309017 -0.951056
    outer loop
      vertex 6 6.91516 12.0555
      vertex 6 6.4678 12.2008
      vertex 0 6.91516 12.0555
    endloop
  endfacet
  facet normal 0 -0.309017 -0.951056
    outer loop
      vertex 0 6.91516 12.0555
      vertex 6 6.4678 12.2008
      vertex 0 6.4678 12.2008
    endloop
  endfacet
  facet normal 0 -0.499999 -0.866026
    outer loop
      vertex 6 7.32252 11.8203
      vertex 6 6.91516 12.0555
      vertex 0 7.32252 11.8203
    endloop
  endfacet
  facet normal 0 -0.499999 -0.866026
    outer loop
      vertex 0 7.32252 11.8203
      vertex 6 6.91516 12.0555
      vertex 0 6.91516 12.0555
    endloop
  endfacet
  facet normal 0 0.499999 -0.866026
    outer loop
      vertex 6 43.0848 12.0555
      vertex 6 42.6775 11.8203
      vertex 0 43.0848 12.0555
    endloop
  endfacet
  facet normal 0 0.499999 -0.866026
    outer loop
      vertex 0 43.0848 12.0555
      vertex 6 42.6775 11.8203
      vertex 0 42.6775 11.8203
    endloop
  endfacet
  facet normal 0 0.309017 -0.951056
    outer loop
      vertex 6 43.5322 12.2008
      vertex 6 43.0848 12.0555
      vertex 0 43.5322 12.2008
    endloop
  endfacet
  facet normal 0 0.309017 -0.951056
    outer loop
      vertex 0 43.5322 12.2008
      vertex 6 43.0848 12.0555
      vertex 0 43.0848 12.0555
    endloop
  endfacet
  facet normal 0 0.104529 -0.994522
    outer loop
      vertex 6 44 12.25
      vertex 6 43.5322 12.2008
      vertex 0 44 12.25
    endloop
  endfacet
  facet normal 0 0.104529 -0.994522
    outer loop
      vertex 0 44 12.25
      vertex 6 43.5322 12.2008
      vertex 0 43.5322 12.2008
    endloop
  endfacet
  facet normal 0 -0.104529 -0.994522
    outer loop
      vertex 6 44.4678 12.2008
      vertex 6 44 12.25
      vertex 0 44.4678 12.2008
    endloop
  endfacet
  facet normal 0 -0.104529 -0.994522
    outer loop
      vertex 0 44.4678 12.2008
      vertex 6 44 12.25
      vertex 0 44 12.25
    endloop
  endfacet
  facet normal 0 -0.309017 -0.951056
    outer loop
      vertex 6 44.9152 12.0555
      vertex 6 44.4678 12.2008
      vertex 0 44.9152 12.0555
    endloop
  endfacet
  facet normal 0 -0.309017 -0.951056
    outer loop
      vertex 0 44.9152 12.0555
      vertex 6 44.4678 12.2008
      vertex 0 44.4678 12.2008
    endloop
  endfacet
  facet normal 0 -0.499999 -0.866026
    outer loop
      vertex 6 45.3225 11.8203
      vertex 6 44.9152 12.0555
      vertex 0 45.3225 11.8203
    endloop
  endfacet
  facet normal 0 -0.499999 -0.866026
    outer loop
      vertex 0 45.3225 11.8203
      vertex 6 44.9152 12.0555
      vertex 0 44.9152 12.0555
    endloop
  endfacet
  facet normal 2.20015e-16 -0.66913 -0.743145
    outer loop
      vertex 6 45.6721 11.5055
      vertex 6 45.3225 11.8203
      vertex 0 45.6721 11.5055
    endloop
  endfacet
  facet normal 0 -0.66913 -0.743145
    outer loop
      vertex 0 45.6721 11.5055
      vertex 6 45.3225 11.8203
      vertex 0 45.3225 11.8203
    endloop
  endfacet
  facet normal -0 -0.809017 -0.587785
    outer loop
      vertex 0 45.9486 11.125
      vertex 6 45.9486 11.125
      vertex 6 45.6721 11.5055
    endloop
  endfacet
  facet normal 1.74019e-16 -0.809017 -0.587785
    outer loop
      vertex 0 45.6721 11.5055
      vertex 0 45.9486 11.125
      vertex 6 45.6721 11.5055
    endloop
  endfacet
  facet normal -0 -0.913546 -0.406736
    outer loop
      vertex 0 46.1399 10.6953
      vertex 6 46.1399 10.6953
      vertex 6 45.9486 11.125
    endloop
  endfacet
  facet normal -0 -0.913546 -0.406736
    outer loop
      vertex 0 45.9486 11.125
      vertex 0 46.1399 10.6953
      vertex 6 45.9486 11.125
    endloop
  endfacet
  facet normal 6.15542e-17 -0.978148 -0.207912
    outer loop
      vertex 0 46.2377 10.2352
      vertex 6 46.2377 10.2352
      vertex 6 46.1399 10.6953
    endloop
  endfacet
  facet normal -0 -0.978148 -0.207912
    outer loop
      vertex 0 46.1399 10.6953
      vertex 0 46.2377 10.2352
      vertex 6 46.1399 10.6953
    endloop
  endfacet
  facet normal 0 -1 0
    outer loop
      vertex 6 46.2377 9.76481
      vertex 6 46.2377 10.2352
      vertex 0 46.2377 10.2352
    endloop
  endfacet
  facet normal -0 -1 -0
    outer loop
      vertex 0 46.2377 9.76481
      vertex 6 46.2377 9.76481
      vertex 0 46.2377 10.2352
    endloop
  endfacet
  facet normal 0 -0.978148 0.207912
    outer loop
      vertex 6 46.1399 9.30471
      vertex 6 46.2377 9.76481
      vertex 0 46.2377 9.76481
    endloop
  endfacet
  facet normal -6.15542e-17 -0.978148 0.207912
    outer loop
      vertex 0 46.1399 9.30471
      vertex 6 46.1399 9.30471
      vertex 0 46.2377 9.76481
    endloop
  endfacet
  facet normal -1.1617e-16 -0.913546 0.406736
    outer loop
      vertex 6 45.9486 8.875
      vertex 6 46.1399 9.30471
      vertex 0 46.1399 9.30471
    endloop
  endfacet
  facet normal 0 -0.913546 0.406736
    outer loop
      vertex 0 45.9486 8.875
      vertex 6 45.9486 8.875
      vertex 0 46.1399 9.30471
    endloop
  endfacet
  facet normal 0 -0.809017 0.587785
    outer loop
      vertex 6 45.6721 8.49446
      vertex 6 45.9486 8.875
      vertex 0 45.9486 8.875
    endloop
  endfacet
  facet normal -1.74019e-16 -0.809017 0.587785
    outer loop
      vertex 0 45.6721 8.49446
      vertex 6 45.6721 8.49446
      vertex 0 45.9486 8.875
    endloop
  endfacet
  facet normal -2.15744e-16 -0.66913 0.743145
    outer loop
      vertex 6 45.3225 8.17971
      vertex 6 45.6721 8.49446
      vertex 0 45.6721 8.49446
    endloop
  endfacet
  facet normal -2.20015e-16 -0.66913 0.743145
    outer loop
      vertex 0 45.3225 8.17971
      vertex 6 45.3225 8.17971
      vertex 0 45.6721 8.49446
    endloop
  endfacet
  facet normal -2.59999e-16 -0.499999 0.866026
    outer loop
      vertex 6 44.9152 7.94452
      vertex 6 45.3225 8.17971
      vertex 0 45.3225 8.17971
    endloop
  endfacet
  facet normal -1.28198e-16 -0.499999 0.866026
    outer loop
      vertex 0 44.9152 7.94452
      vertex 6 44.9152 7.94452
      vertex 0 45.3225 8.17971
    endloop
  endfacet
  facet normal -1.41064e-16 -0.309017 0.951056
    outer loop
      vertex 6 44.4678 7.79917
      vertex 6 44.9152 7.94452
      vertex 0 44.9152 7.94452
    endloop
  endfacet
  facet normal -1.40785e-16 -0.309017 0.951056
    outer loop
      vertex 0 44.4678 7.79917
      vertex 6 44.4678 7.79917
      vertex 0 44.9152 7.94452
    endloop
  endfacet
  facet normal -1.47978e-16 -0.104529 0.994522
    outer loop
      vertex 6 44 7.75
      vertex 6 44.4678 7.79917
      vertex 0 44.4678 7.79917
    endloop
  endfacet
  facet normal -1.47219e-16 -0.104529 0.994522
    outer loop
      vertex 0 44 7.75
      vertex 6 44 7.75
      vertex 0 44.4678 7.79917
    endloop
  endfacet
  facet normal -1.46595e-16 0.104529 0.994522
    outer loop
      vertex 6 43.5322 7.79917
      vertex 6 44 7.75
      vertex 0 44 7.75
    endloop
  endfacet
  facet normal -1.47219e-16 0.104529 0.994522
    outer loop
      vertex 0 43.5322 7.79917
      vertex 6 43.5322 7.79917
      vertex 0 44 7.75
    endloop
  endfacet
  facet normal -1.41064e-16 0.309017 0.951056
    outer loop
      vertex 6 43.0848 7.94452
      vertex 6 43.5322 7.79917
      vertex 0 43.5322 7.79917
    endloop
  endfacet
  facet normal -1.40785e-16 0.309017 0.951056
    outer loop
      vertex 0 43.0848 7.94452
      vertex 6 43.0848 7.94452
      vertex 0 43.5322 7.79917
    endloop
  endfacet
  facet normal -1.27234e-16 0.499999 0.866026
    outer loop
      vertex 6 42.6775 8.17971
      vertex 6 43.0848 7.94452
      vertex 0 43.0848 7.94452
    endloop
  endfacet
  facet normal -2.56395e-16 0.499999 0.866026
    outer loop
      vertex 0 42.6775 8.17971
      vertex 6 42.6775 8.17971
      vertex 0 43.0848 7.94452
    endloop
  endfacet
  facet normal -2.59999e-16 -0.499999 0.866026
    outer loop
      vertex 6 6.91516 7.94452
      vertex 6 7.32252 8.17971
      vertex 0 7.32252 8.17971
    endloop
  endfacet
  facet normal -1.28198e-16 -0.499999 0.866026
    outer loop
      vertex 0 6.91516 7.94452
      vertex 6 6.91516 7.94452
      vertex 0 7.32252 8.17971
    endloop
  endfacet
  facet normal -1.41064e-16 -0.309017 0.951056
    outer loop
      vertex 6 6.4678 7.79917
      vertex 6 6.91516 7.94452
      vertex 0 6.91516 7.94452
    endloop
  endfacet
  facet normal -1.40785e-16 -0.309017 0.951056
    outer loop
      vertex 0 6.4678 7.79917
      vertex 6 6.4678 7.79917
      vertex 0 6.91516 7.94452
    endloop
  endfacet
  facet normal -1.47978e-16 -0.104529 0.994522
    outer loop
      vertex 6 6 7.75
      vertex 6 6.4678 7.79917
      vertex 0 6.4678 7.79917
    endloop
  endfacet
  facet normal -1.47219e-16 -0.104529 0.994522
    outer loop
      vertex 0 6 7.75
      vertex 6 6 7.75
      vertex 0 6.4678 7.79917
    endloop
  endfacet
  facet normal -1.46595e-16 0.104529 0.994522
    outer loop
      vertex 6 5.5322 7.79917
      vertex 6 6 7.75
      vertex 0 6 7.75
    endloop
  endfacet
  facet normal -1.47219e-16 0.104529 0.994522
    outer loop
      vertex 0 5.5322 7.79917
      vertex 6 5.5322 7.79917
      vertex 0 6 7.75
    endloop
  endfacet
  facet normal -1.41064e-16 0.309017 0.951056
    outer loop
      vertex 6 5.08484 7.94452
      vertex 6 5.5322 7.79917
      vertex 0 5.5322 7.79917
    endloop
  endfacet
  facet normal -1.40785e-16 0.309017 0.951056
    outer loop
      vertex 0 5.08484 7.94452
      vertex 6 5.08484 7.94452
      vertex 0 5.5322 7.79917
    endloop
  endfacet
  facet normal -1.21702e-16 0.499999 0.866026
    outer loop
      vertex 6 4.67748 8.17971
      vertex 6 5.08484 7.94452
      vertex 0 5.08484 7.94452
    endloop
  endfacet
  facet normal -2.56395e-16 0.499999 0.866026
    outer loop
      vertex 0 4.67748 8.17971
      vertex 6 4.67748 8.17971
      vertex 0 5.08484 7.94452
    endloop
  endfacet
  facet normal -2.21276e-16 0.66913 0.743145
    outer loop
      vertex 6 4.32792 8.49446
      vertex 6 4.67748 8.17971
      vertex 0 4.67748 8.17971
    endloop
  endfacet
  facet normal -2.20015e-16 0.66913 0.743145
    outer loop
      vertex 0 4.32792 8.49446
      vertex 6 4.32792 8.49446
      vertex 0 4.67748 8.17971
    endloop
  endfacet
  facet normal -1.74019e-16 0.809017 0.587785
    outer loop
      vertex 6 4.32792 8.49446
      vertex 0 4.32792 8.49446
      vertex 6 4.05144 8.875
    endloop
  endfacet
  facet normal -0 0.809017 0.587785
    outer loop
      vertex 6 4.05144 8.875
      vertex 0 4.32792 8.49446
      vertex 0 4.05144 8.875
    endloop
  endfacet
  facet normal -0 0.913546 0.406736
    outer loop
      vertex 6 4.05144 8.875
      vertex 0 4.05144 8.875
      vertex 6 3.86012 9.30471
    endloop
  endfacet
  facet normal -1.20418e-16 0.913546 0.406736
    outer loop
      vertex 6 3.86012 9.30471
      vertex 0 4.05144 8.875
      vertex 0 3.86012 9.30471
    endloop
  endfacet
  facet normal -6.15542e-17 0.978148 0.207912
    outer loop
      vertex 6 3.86012 9.30471
      vertex 0 3.86012 9.30471
      vertex 6 3.76233 9.76481
    endloop
  endfacet
  facet normal -0 0.978148 0.207912
    outer loop
      vertex 6 3.76233 9.76481
      vertex 0 3.86012 9.30471
      vertex 0 3.76233 9.76481
    endloop
  endfacet
  facet normal -0 -0.809017 -0.587785
    outer loop
      vertex -0.1 7.94856 11.125
      vertex 6 7.94856 11.125
      vertex 6 7.67208 11.5055
    endloop
  endfacet
  facet normal 1.71166e-16 -0.809017 -0.587785
    outer loop
      vertex -0.1 7.67208 11.5055
      vertex -0.1 7.94856 11.125
      vertex 6 7.67208 11.5055
    endloop
  endfacet
  facet normal 1 0 0
    outer loop
      vertex 6 5.08484 12.0555
      vertex 6 12.5 20
      vertex 6 0 20
    endloop
  endfacet
  facet normal 1 0 0
    outer loop
      vertex 6 8.13988 10.6953
      vertex 6 8.23767 10.2352
      vertex 6 12.5 0
    endloop
  endfacet
  facet normal 1 0 0
    outer loop
      vertex 6 0 0
      vertex 6 3.76233 10.2352
      vertex 6 0 20
    endloop
  endfacet
  facet normal 1 0 0
    outer loop
      vertex 6 3.76233 10.2352
      vertex 6 3.86012 10.6953
      vertex 6 0 20
    endloop
  endfacet
  facet normal 1 0 0
    outer loop
      vertex 6 3.86012 10.6953
      vertex 6 4.05144 11.125
      vertex 6 0 20
    endloop
  endfacet
  facet normal 1 0 0
    outer loop
      vertex 6 4.05144 11.125
      vertex 6 4.32792 11.5055
      vertex 6 0 20
    endloop
  endfacet
  facet normal 1 0 -0
    outer loop
      vertex 6 6.4678 7.79917
      vertex 6 6 7.75
      vertex 6 12.5 0
    endloop
  endfacet
  facet normal 1 0 0
    outer loop
      vertex 6 4.32792 11.5055
      vertex 6 4.67748 11.8203
      vertex 6 0 20
    endloop
  endfacet
  facet normal 1 -0 0
    outer loop
      vertex 6 5.5322 12.2008
      vertex 6 12.5 20
      vertex 6 5.08484 12.0555
    endloop
  endfacet
  facet normal 1 0 -0
    outer loop
      vertex 6 7.32252 8.17971
      vertex 6 6.91516 7.94452
      vertex 6 12.5 0
    endloop
  endfacet
  facet normal 1 -0 0
    outer loop
      vertex 6 6 12.25
      vertex 6 12.5 20
      vertex 6 5.5322 12.2008
    endloop
  endfacet
  facet normal 1 0 0
    outer loop
      vertex 6 6.4678 12.2008
      vertex 6 12.5 20
      vertex 6 6 12.25
    endloop
  endfacet
  facet normal 1 0 0
    outer loop
      vertex 6 6.91516 12.0555
      vertex 6 12.5 20
      vertex 6 6.4678 12.2008
    endloop
  endfacet
  facet normal 1 0 0
    outer loop
      vertex 6 7.32252 11.8203
      vertex 6 12.5 20
      vertex 6 6.91516 12.0555
    endloop
  endfacet
  facet normal 1 0 -0
    outer loop
      vertex 6 8.13988 9.30471
      vertex 6 7.94856 8.875
      vertex 6 12.5 0
    endloop
  endfacet
  facet normal 1 0 0
    outer loop
      vertex 6 7.67208 11.5055
      vertex 6 12.5 20
      vertex 6 7.32252 11.8203
    endloop
  endfacet
  facet normal 1 0 0
    outer loop
      vertex 6 7.94856 11.125
      vertex 6 12.5 20
      vertex 6 7.67208 11.5055
    endloop
  endfacet
  facet normal 1 0 0
    outer loop
      vertex 6 8.13988 10.6953
      vertex 6 12.5 20
      vertex 6 7.94856 11.125
    endloop
  endfacet
  facet normal 1 0 -0
    outer loop
      vertex 6 8.23767 10.2352
      vertex 6 8.23767 9.76481
      vertex 6 12.5 0
    endloop
  endfacet
  facet normal 1 0 0
    outer loop
      vertex 6 12.5 0
      vertex 6 12.5 20
      vertex 6 8.13988 10.6953
    endloop
  endfacet
  facet normal 1 0 -0
    outer loop
      vertex 6 7.67208 8.49446
      vertex 6 7.32252 8.17971
      vertex 6 12.5 0
    endloop
  endfacet
  facet normal 1 0 -0
    outer loop
      vertex 6 7.94856 8.875
      vertex 6 7.67208 8.49446
      vertex 6 12.5 0
    endloop
  endfacet
  facet normal 1 0 -0
    outer loop
      vertex 6 6.91516 7.94452
      vertex 6 6.4678 7.79917
      vertex 6 12.5 0
    endloop
  endfacet
  facet normal 1 0 -0
    outer loop
      vertex 6 8.23767 9.76481
      vertex 6 8.13988 9.30471
      vertex 6 12.5 0
    endloop
  endfacet
  facet normal 1 -0 -0
    outer loop
      vertex 6 6 7.75
      vertex 6 5.5322 7.79917
      vertex 6 12.5 0
    endloop
  endfacet
  facet normal 1 0 0
    outer loop
      vertex 6 0 0
      vertex 6 12.5 0
      vertex 6 5.5322 7.79917
    endloop
  endfacet
  facet normal 1 0 0
    outer loop
      vertex 6 0 0
      vertex 6 5.5322 7.79917
      vertex 6 5.08484 7.94452
    endloop
  endfacet
  facet normal 1 0 0
    outer loop
      vertex 6 0 0
      vertex 6 5.08484 7.94452
      vertex 6 4.67748 8.17971
    endloop
  endfacet
  facet normal 1 0 0
    outer loop
      vertex 6 0 0
      vertex 6 4.67748 8.17971
      vertex 6 4.32792 8.49446
    endloop
  endfacet
  facet normal 1 0 0
    outer loop
      vertex 6 0 0
      vertex 6 4.32792 8.49446
      vertex 6 4.05144 8.875
    endloop
  endfacet
  facet normal 1 0 0
    outer loop
      vertex 6 0 0
      vertex 6 4.05144 8.875
      vertex 6 3.86012 9.30471
    endloop
  endfacet
  facet normal 1 0 0
    outer loop
      vertex 6 0 0
      vertex 6 3.76233 9.76481
      vertex 6 3.76233 10.2352
    endloop
  endfacet
  facet normal 1 0 0
    outer loop
      vertex 6 0 0
      vertex 6 3.86012 9.30471
      vertex 6 3.76233 9.76481
    endloop
  endfacet
  facet normal 1 0 0
    outer loop
      vertex 6 4.67748 11.8203
      vertex 6 5.08484 12.0555
      vertex 6 0 20
    endloop
  endfacet
  facet normal -0 -0.913546 -0.406736
    outer loop
      vertex -0.1 8.13988 10.6953
      vertex 6 8.13988 10.6953
      vertex 6 7.94856 11.125
    endloop
  endfacet
  facet normal -0 -0.913546 -0.406736
    outer loop
      vertex -0.1 7.94856 11.125
      vertex -0.1 8.13988 10.6953
      vertex 6 7.94856 11.125
    endloop
  endfacet
  facet normal 6.05451e-17 -0.978148 -0.207912
    outer loop
      vertex -0.1 8.23767 10.2352
      vertex 6 8.23767 10.2352
      vertex 6 8.13988 10.6953
    endloop
  endfacet
  facet normal -0 -0.978148 -0.207912
    outer loop
      vertex -0.1 8.13988 10.6953
      vertex -0.1 8.23767 10.2352
      vertex 6 8.13988 10.6953
    endloop
  endfacet
  facet normal -0 -1 0
    outer loop
      vertex -0.1 8.23767 9.76481
      vertex 6 8.23767 9.76481
      vertex 6 8.23767 10.2352
    endloop
  endfacet
  facet normal -0 -1 0
    outer loop
      vertex -0.1 8.23767 10.2352
      vertex -0.1 8.23767 9.76481
      vertex 6 8.23767 10.2352
    endloop
  endfacet
  facet normal -6.05451e-17 -0.978148 0.207912
    outer loop
      vertex -0.1 8.13988 9.30471
      vertex 6 8.13988 9.30471
      vertex 6 8.23767 9.76481
    endloop
  endfacet
  facet normal 0 -0.978148 0.207912
    outer loop
      vertex -0.1 8.23767 9.76481
      vertex -0.1 8.13988 9.30471
      vertex 6 8.23767 9.76481
    endloop
  endfacet
  facet normal 0 -0.913546 0.406736
    outer loop
      vertex -0.1 7.94856 8.875
      vertex 6 7.94856 8.875
      vertex 6 8.13988 9.30471
    endloop
  endfacet
  facet normal -1.18444e-16 -0.913546 0.406736
    outer loop
      vertex -0.1 8.13988 9.30471
      vertex -0.1 7.94856 8.875
      vertex 6 8.13988 9.30471
    endloop
  endfacet
  facet normal -1.71166e-16 -0.809017 0.587785
    outer loop
      vertex -0.1 7.67208 8.49446
      vertex 6 7.67208 8.49446
      vertex 6 7.94856 8.875
    endloop
  endfacet
  facet normal 0 -0.809017 0.587785
    outer loop
      vertex -0.1 7.94856 8.875
      vertex -0.1 7.67208 8.49446
      vertex 6 7.94856 8.875
    endloop
  endfacet
  facet normal -1.71166e-16 0.809017 0.587785
    outer loop
      vertex 6 42.3279 8.49446
      vertex -0.1 42.3279 8.49446
      vertex 6 42.0514 8.875
    endloop
  endfacet
  facet normal -0 0.809017 0.587785
    outer loop
      vertex 6 42.0514 8.875
      vertex -0.1 42.3279 8.49446
      vertex -0.1 42.0514 8.875
    endloop
  endfacet
  facet normal 1 0 0
    outer loop
      vertex 6 42.6775 11.8203
      vertex 6 50 20
      vertex 6 37.5 20
    endloop
  endfacet
  facet normal 1 0 0
    outer loop
      vertex 6 46.1399 10.6953
      vertex 6 46.2377 10.2352
      vertex 6 50 0
    endloop
  endfacet
  facet normal 1 0 0
    outer loop
      vertex 6 37.5 0
      vertex 6 41.7623 10.2352
      vertex 6 37.5 20
    endloop
  endfacet
  facet normal 1 0 0
    outer loop
      vertex 6 41.7623 10.2352
      vertex 6 41.8601 10.6953
      vertex 6 37.5 20
    endloop
  endfacet
  facet normal 1 0 0
    outer loop
      vertex 6 41.8601 10.6953
      vertex 6 42.0514 11.125
      vertex 6 37.5 20
    endloop
  endfacet
  facet normal 1 -0 -0
    outer loop
      vertex 6 44 7.75
      vertex 6 43.5322 7.79917
      vertex 6 50 0
    endloop
  endfacet
  facet normal 1 0 0
    outer loop
      vertex 6 42.0514 11.125
      vertex 6 42.3279 11.5055
      vertex 6 37.5 20
    endloop
  endfacet
  facet normal 1 -0 0
    outer loop
      vertex 6 43.0848 12.0555
      vertex 6 50 20
      vertex 6 42.6775 11.8203
    endloop
  endfacet
  facet normal 1 0 -0
    outer loop
      vertex 6 44.9152 7.94452
      vertex 6 44.4678 7.79917
      vertex 6 50 0
    endloop
  endfacet
  facet normal 1 -0 0
    outer loop
      vertex 6 43.5322 12.2008
      vertex 6 50 20
      vertex 6 43.0848 12.0555
    endloop
  endfacet
  facet normal 1 -0 0
    outer loop
      vertex 6 44 12.25
      vertex 6 50 20
      vertex 6 43.5322 12.2008
    endloop
  endfacet
  facet normal 1 0 0
    outer loop
      vertex 6 44.4678 12.2008
      vertex 6 50 20
      vertex 6 44 12.25
    endloop
  endfacet
  facet normal 1 0 0
    outer loop
      vertex 6 44.9152 12.0555
      vertex 6 50 20
      vertex 6 44.4678 12.2008
    endloop
  endfacet
  facet normal 1 0 -0
    outer loop
      vertex 6 45.9486 8.875
      vertex 6 45.6721 8.49446
      vertex 6 50 0
    endloop
  endfacet
  facet normal 1 0 0
    outer loop
      vertex 6 45.3225 11.8203
      vertex 6 50 20
      vertex 6 44.9152 12.0555
    endloop
  endfacet
  facet normal 1 0 0
    outer loop
      vertex 6 45.6721 11.5055
      vertex 6 50 20
      vertex 6 45.3225 11.8203
    endloop
  endfacet
  facet normal 1 0 0
    outer loop
      vertex 6 45.9486 11.125
      vertex 6 50 20
      vertex 6 45.6721 11.5055
    endloop
  endfacet
  facet normal 1 0 0
    outer loop
      vertex 6 46.1399 10.6953
      vertex 6 50 20
      vertex 6 45.9486 11.125
    endloop
  endfacet
  facet normal 1 0 -0
    outer loop
      vertex 6 46.2377 10.2352
      vertex 6 46.2377 9.76481
      vertex 6 50 0
    endloop
  endfacet
  facet normal 1 0 0
    outer loop
      vertex 6 50 0
      vertex 6 50 20
      vertex 6 46.1399 10.6953
    endloop
  endfacet
  facet normal 1 0 -0
    outer loop
      vertex 6 46.2377 9.76481
      vertex 6 46.1399 9.30471
      vertex 6 50 0
    endloop
  endfacet
  facet normal 1 0 -0
    outer loop
      vertex 6 45.3225 8.17971
      vertex 6 44.9152 7.94452
      vertex 6 50 0
    endloop
  endfacet
  facet normal 1 0 -0
    outer loop
      vertex 6 45.6721 8.49446
      vertex 6 45.3225 8.17971
      vertex 6 50 0
    endloop
  endfacet
  facet normal 1 0 -0
    outer loop
      vertex 6 44.4678 7.79917
      vertex 6 44 7.75
      vertex 6 50 0
    endloop
  endfacet
  facet normal 1 0 -0
    outer loop
      vertex 6 46.1399 9.30471
      vertex 6 45.9486 8.875
      vertex 6 50 0
    endloop
  endfacet
  facet normal 1 0 0
    outer loop
      vertex 6 37.5 0
      vertex 6 50 0
      vertex 6 43.5322 7.79917
    endloop
  endfacet
  facet normal 1 0 0
    outer loop
      vertex 6 37.5 0
      vertex 6 43.5322 7.79917
      vertex 6 43.0848 7.94452
    endloop
  endfacet
  facet normal 1 0 0
    outer loop
      vertex 6 37.5 0
      vertex 6 43.0848 7.94452
      vertex 6 42.6775 8.17971
    endloop
  endfacet
  facet normal 1 0 0
    outer loop
      vertex 6 37.5 0
      vertex 6 42.6775 8.17971
      vertex 6 42.3279 8.49446
    endloop
  endfacet
  facet normal 1 0 0
    outer loop
      vertex 6 37.5 0
      vertex 6 42.3279 8.49446
      vertex 6 42.0514 8.875
    endloop
  endfacet
  facet normal 1 0 0
    outer loop
      vertex 6 37.5 0
      vertex 6 42.0514 8.875
      vertex 6 41.8601 9.30471
    endloop
  endfacet
  facet normal 1 0 0
    outer loop
      vertex 6 37.5 0
      vertex 6 41.7623 9.76481
      vertex 6 41.7623 10.2352
    endloop
  endfacet
  facet normal 1 0 0
    outer loop
      vertex 6 37.5 0
      vertex 6 41.8601 9.30471
      vertex 6 41.7623 9.76481
    endloop
  endfacet
  facet normal 1 0 0
    outer loop
      vertex 6 42.3279 11.5055
      vertex 6 42.6775 11.8203
      vertex 6 37.5 20
    endloop
  endfacet
  facet normal 0 0.809017 -0.587785
    outer loop
      vertex 6 42.0514 11.125
      vertex -0.1 42.0514 11.125
      vertex 6 42.3279 11.5055
    endloop
  endfacet
  facet normal 1.71166e-16 0.809017 -0.587785
    outer loop
      vertex 6 42.3279 11.5055
      vertex -0.1 42.0514 11.125
      vertex -0.1 42.3279 11.5055
    endloop
  endfacet
  facet normal -0 0.913546 0.406736
    outer loop
      vertex 6 42.0514 8.875
      vertex -0.1 42.0514 8.875
      vertex 6 41.8601 9.30471
    endloop
  endfacet
  facet normal -1.18444e-16 0.913546 0.406736
    outer loop
      vertex 6 41.8601 9.30471
      vertex -0.1 42.0514 8.875
      vertex -0.1 41.8601 9.30471
    endloop
  endfacet
  facet normal -6.05451e-17 0.978148 0.207912
    outer loop
      vertex 6 41.8601 9.30471
      vertex -0.1 41.8601 9.30471
      vertex 6 41.7623 9.76481
    endloop
  endfacet
  facet normal -0 0.978148 0.207912
    outer loop
      vertex 6 41.7623 9.76481
      vertex -0.1 41.8601 9.30471
      vertex -0.1 41.7623 9.76481
    endloop
  endfacet
  facet normal -0 1 0
    outer loop
      vertex 6 41.7623 9.76481
      vertex -0.1 41.7623 9.76481
      vertex 6 41.7623 10.2352
    endloop
  endfacet
  facet normal 0 1 0
    outer loop
      vertex 6 41.7623 10.2352
      vertex -0.1 41.7623 9.76481
      vertex -0.1 41.7623 10.2352
    endloop
  endfacet
  facet normal 6.05451e-17 0.978148 -0.207912
    outer loop
      vertex 6 41.7623 10.2352
      vertex -0.1 41.7623 10.2352
      vertex 6 41.8601 10.6953
    endloop
  endfacet
  facet normal 0 0.978148 -0.207912
    outer loop
      vertex 6 41.8601 10.6953
      vertex -0.1 41.7623 10.2352
      vertex -0.1 41.8601 10.6953
    endloop
  endfacet
  facet normal 0 0.913546 -0.406736
    outer loop
      vertex 6 41.8601 10.6953
      vertex -0.1 41.8601 10.6953
      vertex 6 42.0514 11.125
    endloop
  endfacet
  facet normal 0 0.913546 -0.406736
    outer loop
      vertex 6 42.0514 11.125
      vertex -0.1 41.8601 10.6953
      vertex -0.1 42.0514 11.125
    endloop
  endfacet
  facet normal 0 -1 0
    outer loop
      vertex 6 12.5 20
      vertex 6 12.5 0
      vertex 13 12.5 0
    endloop
  endfacet
  facet normal 0 -1 0
    outer loop
      vertex 13 12.5 20
      vertex 6 12.5 20
      vertex 13 12.5 0
    endloop
  endfacet
  facet normal -0.994522 -0.104526 -0
    outer loop
      vertex 13 12.5 0
      vertex 13.0219 12.2921 0
      vertex 13 12.5 20
    endloop
  endfacet
  facet normal -0.994522 -0.104526 0
    outer loop
      vertex 13 12.5 20
      vertex 13.0219 12.2921 0
      vertex 13.0219 12.2921 20.01
    endloop
  endfacet
  facet normal -0.994522 -0.104526 -0
    outer loop
      vertex 13 12.5 20
      vertex 13.0219 12.2921 20.01
      vertex 13 12.5 20.01
    endloop
  endfacet
  facet normal -0.951055 -0.309021 -0
    outer loop
      vertex 13.0219 12.2921 0
      vertex 13.0865 12.0933 0
      vertex 13.0219 12.2921 20.01
    endloop
  endfacet
  facet normal -0.951055 -0.309021 0
    outer loop
      vertex 13.0219 12.2921 20.01
      vertex 13.0865 12.0933 0
      vertex 13.0865 12.0933 20.01
    endloop
  endfacet
  facet normal -0.866026 -0.5 -0
    outer loop
      vertex 13.0865 12.0933 0
      vertex 13.191 11.9122 0
      vertex 13.0865 12.0933 20.01
    endloop
  endfacet
  facet normal -0.866026 -0.5 0
    outer loop
      vertex 13.0865 12.0933 20.01
      vertex 13.191 11.9122 0
      vertex 13.191 11.9122 20.01
    endloop
  endfacet
  facet normal -0.743147 -0.669129 -0
    outer loop
      vertex 13.191 11.9122 0
      vertex 13.3309 11.7569 0
      vertex 13.191 11.9122 20.01
    endloop
  endfacet
  facet normal -0.743147 -0.669129 0
    outer loop
      vertex 13.191 11.9122 20.01
      vertex 13.3309 11.7569 0
      vertex 13.3309 11.7569 20.01
    endloop
  endfacet
  facet normal -0.587783 -0.809019 0
    outer loop
      vertex 13.3309 11.7569 20.01
      vertex 13.3309 11.7569 0
      vertex 13.5 11.634 0
    endloop
  endfacet
  facet normal -0.587783 -0.809019 0
    outer loop
      vertex 13.5 11.634 20.01
      vertex 13.3309 11.7569 20.01
      vertex 13.5 11.634 0
    endloop
  endfacet
  facet normal -0.40674 -0.913544 0
    outer loop
      vertex 13.5 11.634 20.01
      vertex 13.5 11.634 0
      vertex 13.691 11.5489 0
    endloop
  endfacet
  facet normal -0.40674 -0.913544 0
    outer loop
      vertex 13.691 11.5489 20.01
      vertex 13.5 11.634 20.01
      vertex 13.691 11.5489 0
    endloop
  endfacet
  facet normal -0.207909 -0.978148 0
    outer loop
      vertex 13.691 11.5489 20.01
      vertex 13.691 11.5489 0
      vertex 13.8955 11.5055 0
    endloop
  endfacet
  facet normal -0.207909 -0.978148 0
    outer loop
      vertex 13.8955 11.5055 20.01
      vertex 13.691 11.5489 20.01
      vertex 13.8955 11.5055 0
    endloop
  endfacet
  facet normal 0 -1 0
    outer loop
      vertex 13.8955 11.5055 20.01
      vertex 13.8955 11.5055 0
      vertex 19.1045 11.5055 0
    endloop
  endfacet
  facet normal 0 -1 0
    outer loop
      vertex 19.1045 11.5055 20.01
      vertex 13.8955 11.5055 20.01
      vertex 19.1045 11.5055 0
    endloop
  endfacet
  facet normal 0.207909 -0.978148 0
    outer loop
      vertex 19.1045 11.5055 20.01
      vertex 19.1045 11.5055 0
      vertex 19.309 11.5489 0
    endloop
  endfacet
  facet normal 0.207909 -0.978148 0
    outer loop
      vertex 19.309 11.5489 20.01
      vertex 19.1045 11.5055 20.01
      vertex 19.309 11.5489 0
    endloop
  endfacet
  facet normal 0.40674 -0.913544 0
    outer loop
      vertex 19.309 11.5489 20.01
      vertex 19.309 11.5489 0
      vertex 19.5 11.634 0
    endloop
  endfacet
  facet normal 0.40674 -0.913544 0
    outer loop
      vertex 19.5 11.634 20.01
      vertex 19.309 11.5489 20.01
      vertex 19.5 11.634 0
    endloop
  endfacet
  facet normal 0.587783 -0.809019 0
    outer loop
      vertex 19.5 11.634 20.01
      vertex 19.5 11.634 0
      vertex 19.6691 11.7569 0
    endloop
  endfacet
  facet normal 0.587783 -0.809019 0
    outer loop
      vertex 19.6691 11.7569 20.01
      vertex 19.5 11.634 20.01
      vertex 19.6691 11.7569 0
    endloop
  endfacet
  facet normal 0.743147 -0.669129 0
    outer loop
      vertex 19.6691 11.7569 20.01
      vertex 19.6691 11.7569 0
      vertex 19.809 11.9122 0
    endloop
  endfacet
  facet normal 0.743147 -0.669129 0
    outer loop
      vertex 19.809 11.9122 20.01
      vertex 19.6691 11.7569 20.01
      vertex 19.809 11.9122 0
    endloop
  endfacet
  facet normal 0.866026 -0.5 0
    outer loop
      vertex 19.809 11.9122 20.01
      vertex 19.809 11.9122 0
      vertex 19.9135 12.0933 0
    endloop
  endfacet
  facet normal 0.866026 -0.5 0
    outer loop
      vertex 19.9135 12.0933 20.01
      vertex 19.809 11.9122 20.01
      vertex 19.9135 12.0933 0
    endloop
  endfacet
  facet normal 0.951055 -0.309021 0
    outer loop
      vertex 19.9135 12.0933 20.01
      vertex 19.9135 12.0933 0
      vertex 19.9781 12.2921 0
    endloop
  endfacet
  facet normal 0.951055 -0.309021 0
    outer loop
      vertex 19.9781 12.2921 20.01
      vertex 19.9135 12.0933 20.01
      vertex 19.9781 12.2921 0
    endloop
  endfacet
  facet normal 0.994522 -0.104526 0
    outer loop
      vertex 19.9781 12.2921 20.01
      vertex 19.9781 12.2921 0
      vertex 20 12.5 0
    endloop
  endfacet
  facet normal 0.994522 -0.104526 0
    outer loop
      vertex 20 12.5 20.01
      vertex 19.9781 12.2921 20.01
      vertex 20 12.5 0
    endloop
  endfacet
  facet normal 1 0 -0
    outer loop
      vertex 20 12.5 20.01
      vertex 20 12.5 0
      vertex 20 37.5 0
    endloop
  endfacet
  facet normal 1 0 0
    outer loop
      vertex 20 37.5 20.01
      vertex 20 12.5 20.01
      vertex 20 37.5 0
    endloop
  endfacet
  facet normal 0.994522 0.104526 0
    outer loop
      vertex 20 37.5 0
      vertex 19.9781 37.7079 0
      vertex 19.9781 37.7079 20.01
    endloop
  endfacet
  facet normal 0.994522 0.104526 -0
    outer loop
      vertex 20 37.5 20.01
      vertex 20 37.5 0
      vertex 19.9781 37.7079 20.01
    endloop
  endfacet
  facet normal 0.951055 0.309021 0
    outer loop
      vertex 19.9781 37.7079 0
      vertex 19.9135 37.9067 0
      vertex 19.9135 37.9067 20.01
    endloop
  endfacet
  facet normal 0.951055 0.309021 -0
    outer loop
      vertex 19.9781 37.7079 20.01
      vertex 19.9781 37.7079 0
      vertex 19.9135 37.9067 20.01
    endloop
  endfacet
  facet normal 0.866026 0.5 0
    outer loop
      vertex 19.9135 37.9067 0
      vertex 19.809 38.0878 0
      vertex 19.809 38.0878 20.01
    endloop
  endfacet
  facet normal 0.866026 0.5 -0
    outer loop
      vertex 19.9135 37.9067 20.01
      vertex 19.9135 37.9067 0
      vertex 19.809 38.0878 20.01
    endloop
  endfacet
  facet normal 0.743147 0.669129 0
    outer loop
      vertex 19.809 38.0878 0
      vertex 19.6691 38.2431 0
      vertex 19.6691 38.2431 20.01
    endloop
  endfacet
  facet normal 0.743147 0.669129 -0
    outer loop
      vertex 19.809 38.0878 20.01
      vertex 19.809 38.0878 0
      vertex 19.6691 38.2431 20.01
    endloop
  endfacet
  facet normal 0.587783 0.809019 0
    outer loop
      vertex 19.5 38.366 0
      vertex 19.5 38.366 20.01
      vertex 19.6691 38.2431 0
    endloop
  endfacet
  facet normal 0.587783 0.809019 0
    outer loop
      vertex 19.6691 38.2431 0
      vertex 19.5 38.366 20.01
      vertex 19.6691 38.2431 20.01
    endloop
  endfacet
  facet normal 0.40674 0.913544 0
    outer loop
      vertex 19.309 38.4511 0
      vertex 19.309 38.4511 20.01
      vertex 19.5 38.366 0
    endloop
  endfacet
  facet normal 0.40674 0.913544 0
    outer loop
      vertex 19.5 38.366 0
      vertex 19.309 38.4511 20.01
      vertex 19.5 38.366 20.01
    endloop
  endfacet
  facet normal 0.207909 0.978148 0
    outer loop
      vertex 19.1045 38.4945 0
      vertex 19.1045 38.4945 20.01
      vertex 19.309 38.4511 0
    endloop
  endfacet
  facet normal 0.207909 0.978148 0
    outer loop
      vertex 19.309 38.4511 0
      vertex 19.1045 38.4945 20.01
      vertex 19.309 38.4511 20.01
    endloop
  endfacet
  facet normal 0 1 0
    outer loop
      vertex 13.8955 38.4945 0
      vertex 13.8955 38.4945 20.01
      vertex 19.1045 38.4945 0
    endloop
  endfacet
  facet normal 0 1 0
    outer loop
      vertex 19.1045 38.4945 0
      vertex 13.8955 38.4945 20.01
      vertex 19.1045 38.4945 20.01
    endloop
  endfacet
  facet normal -0.207909 0.978148 0
    outer loop
      vertex 13.691 38.4511 0
      vertex 13.691 38.4511 20.01
      vertex 13.8955 38.4945 0
    endloop
  endfacet
  facet normal -0.207909 0.978148 0
    outer loop
      vertex 13.8955 38.4945 0
      vertex 13.691 38.4511 20.01
      vertex 13.8955 38.4945 20.01
    endloop
  endfacet
  facet normal -0.40674 0.913544 0
    outer loop
      vertex 13.5 38.366 0
      vertex 13.5 38.366 20.01
      vertex 13.691 38.4511 0
    endloop
  endfacet
  facet normal -0.40674 0.913544 0
    outer loop
      vertex 13.691 38.4511 0
      vertex 13.5 38.366 20.01
      vertex 13.691 38.4511 20.01
    endloop
  endfacet
  facet normal -0.587783 0.809019 0
    outer loop
      vertex 13.3309 38.2431 0
      vertex 13.3309 38.2431 20.01
      vertex 13.5 38.366 0
    endloop
  endfacet
  facet normal -0.587783 0.809019 0
    outer loop
      vertex 13.5 38.366 0
      vertex 13.3309 38.2431 20.01
      vertex 13.5 38.366 20.01
    endloop
  endfacet
  facet normal -0.743147 0.669129 0
    outer loop
      vertex 13.191 38.0878 0
      vertex 13.191 38.0878 20.01
      vertex 13.3309 38.2431 0
    endloop
  endfacet
  facet normal -0.743147 0.669129 0
    outer loop
      vertex 13.3309 38.2431 0
      vertex 13.191 38.0878 20.01
      vertex 13.3309 38.2431 20.01
    endloop
  endfacet
  facet normal -0.866026 0.5 0
    outer loop
      vertex 13.0865 37.9067 0
      vertex 13.0865 37.9067 20.01
      vertex 13.191 38.0878 0
    endloop
  endfacet
  facet normal -0.866026 0.5 0
    outer loop
      vertex 13.191 38.0878 0
      vertex 13.0865 37.9067 20.01
      vertex 13.191 38.0878 20.01
    endloop
  endfacet
  facet normal -0.951055 0.309021 0
    outer loop
      vertex 13.0219 37.7079 0
      vertex 13.0219 37.7079 20.01
      vertex 13.0865 37.9067 0
    endloop
  endfacet
  facet normal -0.951055 0.309021 0
    outer loop
      vertex 13.0865 37.9067 0
      vertex 13.0219 37.7079 20.01
      vertex 13.0865 37.9067 20.01
    endloop
  endfacet
  facet normal -0.994522 0.104526 0
    outer loop
      vertex 13 37.5 0
      vertex 13 37.5 20
      vertex 13.0219 37.7079 0
    endloop
  endfacet
  facet normal -0.994522 0.104526 0
    outer loop
      vertex 13.0219 37.7079 0
      vertex 13 37.5 20
      vertex 13 37.5 20.01
    endloop
  endfacet
  facet normal -0.994522 0.104526 0
    outer loop
      vertex 13.0219 37.7079 0
      vertex 13 37.5 20.01
      vertex 13.0219 37.7079 20.01
    endloop
  endfacet
  facet normal 0 1 0
    outer loop
      vertex 6 37.5 0
      vertex 6 37.5 20
      vertex 13 37.5 0
    endloop
  endfacet
  facet normal 0 1 0
    outer loop
      vertex 13 37.5 0
      vertex 6 37.5 20
      vertex 13 37.5 20
    endloop
  endfacet
  facet normal 0.994522 0.104529 0
    outer loop
      vertex 6 25 20
      vertex 6.08741 24.1684 20
      vertex 6.08741 24.1684 0
    endloop
  endfacet
  facet normal 0.994522 0.104529 0
    outer loop
      vertex 6 25 0
      vertex 6 25 20
      vertex 6.08741 24.1684 0
    endloop
  endfacet
  facet normal 0.994522 -0.104529 0
    outer loop
      vertex 6.08741 25.8316 0
      vertex 6.08741 25.8316 20
      vertex 6 25 20
    endloop
  endfacet
  facet normal 0.994522 -0.104529 0
    outer loop
      vertex 6 25 0
      vertex 6.08741 25.8316 0
      vertex 6 25 20
    endloop
  endfacet
  facet normal 0.951057 -0.309016 0
    outer loop
      vertex 6.34582 26.6269 0
      vertex 6.34582 26.6269 20
      vertex 6.08741 25.8316 20
    endloop
  endfacet
  facet normal 0.951057 -0.309016 0
    outer loop
      vertex 6.08741 25.8316 0
      vertex 6.34582 26.6269 0
      vertex 6.08741 25.8316 20
    endloop
  endfacet
  facet normal 0.866025 -0.5 0
    outer loop
      vertex 6.76393 27.3511 0
      vertex 6.76393 27.3511 20
      vertex 6.34582 26.6269 20
    endloop
  endfacet
  facet normal 0.866025 -0.5 0
    outer loop
      vertex 6.34582 26.6269 0
      vertex 6.76393 27.3511 0
      vertex 6.34582 26.6269 20
    endloop
  endfacet
  facet normal 0.743144 -0.669131 0
    outer loop
      vertex 7.32348 27.9726 0
      vertex 7.32348 27.9726 20
      vertex 6.76393 27.3511 20
    endloop
  endfacet
  facet normal 0.743144 -0.669131 0
    outer loop
      vertex 6.76393 27.3511 0
      vertex 7.32348 27.9726 0
      vertex 6.76393 27.3511 20
    endloop
  endfacet
  facet normal 0.587786 -0.809016 0
    outer loop
      vertex 8 28.4641 0
      vertex 8 28.4641 20
      vertex 7.32348 27.9726 20
    endloop
  endfacet
  facet normal 0.587786 -0.809016 0
    outer loop
      vertex 7.32348 27.9726 0
      vertex 8 28.4641 0
      vertex 7.32348 27.9726 20
    endloop
  endfacet
  facet normal 0.406736 -0.913546 0
    outer loop
      vertex 8.76393 28.8042 0
      vertex 8.76393 28.8042 20
      vertex 8 28.4641 20
    endloop
  endfacet
  facet normal 0.406736 -0.913546 0
    outer loop
      vertex 8 28.4641 0
      vertex 8.76393 28.8042 0
      vertex 8 28.4641 20
    endloop
  endfacet
  facet normal 0.207912 -0.978147 0
    outer loop
      vertex 9.58189 28.9781 0
      vertex 9.58189 28.9781 20
      vertex 8.76393 28.8042 20
    endloop
  endfacet
  facet normal 0.207912 -0.978147 0
    outer loop
      vertex 8.76393 28.8042 0
      vertex 9.58189 28.9781 0
      vertex 8.76393 28.8042 20
    endloop
  endfacet
  facet normal 0 -1 0
    outer loop
      vertex 10.4181 28.9781 0
      vertex 10.4181 28.9781 20
      vertex 9.58189 28.9781 20
    endloop
  endfacet
  facet normal -0 -1 -0
    outer loop
      vertex 9.58189 28.9781 0
      vertex 10.4181 28.9781 0
      vertex 9.58189 28.9781 20
    endloop
  endfacet
  facet normal -0.207912 -0.978147 -0
    outer loop
      vertex 11.2361 28.8042 0
      vertex 11.2361 28.8042 20
      vertex 10.4181 28.9781 20
    endloop
  endfacet
  facet normal -0.207912 -0.978147 -0
    outer loop
      vertex 10.4181 28.9781 0
      vertex 11.2361 28.8042 0
      vertex 10.4181 28.9781 20
    endloop
  endfacet
  facet normal -0.406736 -0.913546 -0
    outer loop
      vertex 12 28.4641 0
      vertex 12 28.4641 20
      vertex 11.2361 28.8042 20
    endloop
  endfacet
  facet normal -0.406736 -0.913546 -0
    outer loop
      vertex 11.2361 28.8042 0
      vertex 12 28.4641 0
      vertex 11.2361 28.8042 20
    endloop
  endfacet
  facet normal -0.587786 -0.809016 -0
    outer loop
      vertex 12.6765 27.9726 0
      vertex 12.6765 27.9726 20
      vertex 12 28.4641 20
    endloop
  endfacet
  facet normal -0.587786 -0.809016 -0
    outer loop
      vertex 12 28.4641 0
      vertex 12.6765 27.9726 0
      vertex 12 28.4641 20
    endloop
  endfacet
  facet normal -0.743144 -0.669131 0
    outer loop
      vertex 13.2361 27.3511 20.01
      vertex 13 27.6133 20.01
      vertex 13.2361 27.3511 0
    endloop
  endfacet
  facet normal -0.743144 -0.669131 0
    outer loop
      vertex 13.2361 27.3511 0
      vertex 13 27.6133 20.01
      vertex 13 27.6133 20
    endloop
  endfacet
  facet normal -0.743144 -0.669131 5.83109e-17
    outer loop
      vertex 13.2361 27.3511 0
      vertex 13 27.6133 20
      vertex 12.6765 27.9726 20
    endloop
  endfacet
  facet normal -0.743144 -0.669131 0
    outer loop
      vertex 13.2361 27.3511 0
      vertex 12.6765 27.9726 20
      vertex 12.6765 27.9726 0
    endloop
  endfacet
  facet normal -0.866025 -0.5 0
    outer loop
      vertex 13.6542 26.6269 20.01
      vertex 13.2361 27.3511 20.01
      vertex 13.6542 26.6269 0
    endloop
  endfacet
  facet normal -0.866025 -0.5 0
    outer loop
      vertex 13.6542 26.6269 0
      vertex 13.2361 27.3511 20.01
      vertex 13.2361 27.3511 0
    endloop
  endfacet
  facet normal -0.951057 -0.309016 0
    outer loop
      vertex 13.9126 25.8316 20.01
      vertex 13.6542 26.6269 20.01
      vertex 13.9126 25.8316 0
    endloop
  endfacet
  facet normal -0.951057 -0.309016 0
    outer loop
      vertex 13.9126 25.8316 0
      vertex 13.6542 26.6269 20.01
      vertex 13.6542 26.6269 0
    endloop
  endfacet
  facet normal -0.994522 -0.104529 0
    outer loop
      vertex 14 25 20.01
      vertex 13.9126 25.8316 20.01
      vertex 14 25 0
    endloop
  endfacet
  facet normal -0.994522 -0.104529 0
    outer loop
      vertex 14 25 0
      vertex 13.9126 25.8316 20.01
      vertex 13.9126 25.8316 0
    endloop
  endfacet
  facet normal -0.994522 0.104529 0
    outer loop
      vertex 14 25 20.01
      vertex 14 25 0
      vertex 13.9126 24.1684 20.01
    endloop
  endfacet
  facet normal -0.994522 0.104529 0
    outer loop
      vertex 13.9126 24.1684 20.01
      vertex 14 25 0
      vertex 13.9126 24.1684 0
    endloop
  endfacet
  facet normal -0.951057 0.309016 0
    outer loop
      vertex 13.9126 24.1684 20.01
      vertex 13.9126 24.1684 0
      vertex 13.6542 23.3731 20.01
    endloop
  endfacet
  facet normal -0.951057 0.309016 0
    outer loop
      vertex 13.6542 23.3731 20.01
      vertex 13.9126 24.1684 0
      vertex 13.6542 23.3731 0
    endloop
  endfacet
  facet normal -0.866025 0.5 0
    outer loop
      vertex 13.6542 23.3731 20.01
      vertex 13.6542 23.3731 0
      vertex 13.2361 22.6489 20.01
    endloop
  endfacet
  facet normal -0.866025 0.5 0
    outer loop
      vertex 13.2361 22.6489 20.01
      vertex 13.6542 23.3731 0
      vertex 13.2361 22.6489 0
    endloop
  endfacet
  facet normal -0.743144 0.669131 0
    outer loop
      vertex 13 22.3867 20
      vertex 13 22.3867 20.01
      vertex 13.2361 22.6489 20.01
    endloop
  endfacet
  facet normal -0.743144 0.669131 0
    outer loop
      vertex 13 22.3867 20
      vertex 13.2361 22.6489 20.01
      vertex 13.2361 22.6489 0
    endloop
  endfacet
  facet normal -0.743144 0.669131 5.94323e-17
    outer loop
      vertex 13 22.3867 20
      vertex 13.2361 22.6489 0
      vertex 12.6765 22.0274 20
    endloop
  endfacet
  facet normal -0.743144 0.669131 0
    outer loop
      vertex 13.2361 22.6489 0
      vertex 12.6765 22.0274 0
      vertex 12.6765 22.0274 20
    endloop
  endfacet
  facet normal -0.587786 0.809016 0
    outer loop
      vertex 12.6765 22.0274 20
      vertex 12.6765 22.0274 0
      vertex 12 21.5359 20
    endloop
  endfacet
  facet normal -0.587786 0.809016 0
    outer loop
      vertex 12 21.5359 20
      vertex 12.6765 22.0274 0
      vertex 12 21.5359 0
    endloop
  endfacet
  facet normal -0.406736 0.913546 0
    outer loop
      vertex 12 21.5359 20
      vertex 12 21.5359 0
      vertex 11.2361 21.1958 20
    endloop
  endfacet
  facet normal -0.406736 0.913546 0
    outer loop
      vertex 11.2361 21.1958 20
      vertex 12 21.5359 0
      vertex 11.2361 21.1958 0
    endloop
  endfacet
  facet normal -0.207912 0.978147 0
    outer loop
      vertex 11.2361 21.1958 20
      vertex 11.2361 21.1958 0
      vertex 10.4181 21.0219 20
    endloop
  endfacet
  facet normal -0.207912 0.978147 0
    outer loop
      vertex 10.4181 21.0219 20
      vertex 11.2361 21.1958 0
      vertex 10.4181 21.0219 0
    endloop
  endfacet
  facet normal 0 1 0
    outer loop
      vertex 10.4181 21.0219 20
      vertex 10.4181 21.0219 0
      vertex 9.58189 21.0219 20
    endloop
  endfacet
  facet normal 0 1 -0
    outer loop
      vertex 9.58189 21.0219 20
      vertex 10.4181 21.0219 0
      vertex 9.58189 21.0219 0
    endloop
  endfacet
  facet normal 0.207912 0.978147 -0
    outer loop
      vertex 9.58189 21.0219 20
      vertex 9.58189 21.0219 0
      vertex 8.76393 21.1958 20
    endloop
  endfacet
  facet normal 0.207912 0.978147 -0
    outer loop
      vertex 8.76393 21.1958 20
      vertex 9.58189 21.0219 0
      vertex 8.76393 21.1958 0
    endloop
  endfacet
  facet normal 0.406736 0.913546 -0
    outer loop
      vertex 8.76393 21.1958 20
      vertex 8.76393 21.1958 0
      vertex 8 21.5359 20
    endloop
  endfacet
  facet normal 0.406736 0.913546 -0
    outer loop
      vertex 8 21.5359 20
      vertex 8.76393 21.1958 0
      vertex 8 21.5359 0
    endloop
  endfacet
  facet normal 0.587786 0.809016 -0
    outer loop
      vertex 8 21.5359 20
      vertex 8 21.5359 0
      vertex 7.32348 22.0274 20
    endloop
  endfacet
  facet normal 0.587786 0.809016 -0
    outer loop
      vertex 7.32348 22.0274 20
      vertex 8 21.5359 0
      vertex 7.32348 22.0274 0
    endloop
  endfacet
  facet normal 0.743144 0.669131 0
    outer loop
      vertex 6.76393 22.6489 20
      vertex 7.32348 22.0274 20
      vertex 7.32348 22.0274 0
    endloop
  endfacet
  facet normal 0.743144 0.669131 0
    outer loop
      vertex 6.76393 22.6489 0
      vertex 6.76393 22.6489 20
      vertex 7.32348 22.0274 0
    endloop
  endfacet
  facet normal 0.866025 0.5 0
    outer loop
      vertex 6.34582 23.3731 20
      vertex 6.76393 22.6489 20
      vertex 6.76393 22.6489 0
    endloop
  endfacet
  facet normal 0.866025 0.5 0
    outer loop
      vertex 6.34582 23.3731 0
      vertex 6.34582 23.3731 20
      vertex 6.76393 22.6489 0
    endloop
  endfacet
  facet normal 0.951057 0.309016 0
    outer loop
      vertex 6.08741 24.1684 20
      vertex 6.34582 23.3731 20
      vertex 6.34582 23.3731 0
    endloop
  endfacet
  facet normal 0.951057 0.309016 0
    outer loop
      vertex 6.08741 24.1684 0
      vertex 6.08741 24.1684 20
      vertex 6.34582 23.3731 0
    endloop
  endfacet
  facet normal -1 -0 -0
    outer loop
      vertex 13 27.6133 20
      vertex 13 27.6133 20.01
      vertex 13 37.5 20
    endloop
  endfacet
  facet normal -1 0 0
    outer loop
      vertex 13 37.5 20
      vertex 13 27.6133 20.01
      vertex 13 37.5 20.01
    endloop
  endfacet
  facet normal -1 -0 -0
    outer loop
      vertex 13 12.5 20
      vertex 13 12.5 20.01
      vertex 13 22.3867 20
    endloop
  endfacet
  facet normal -1 0 0
    outer loop
      vertex 13 22.3867 20
      vertex 13 12.5 20.01
      vertex 13 22.3867 20.01
    endloop
  endfacet
  facet normal 0 -0 1
    outer loop
      vertex 13 22.3867 20.01
      vertex 13 12.5 20.01
      vertex 13.0219 12.2921 20.01
    endloop
  endfacet
  facet normal 0 0 1
    outer loop
      vertex 13.191 11.9122 20.01
      vertex 13 22.3867 20.01
      vertex 13.0865 12.0933 20.01
    endloop
  endfacet
  facet normal 0 0 1
    outer loop
      vertex 13.0865 12.0933 20.01
      vertex 13 22.3867 20.01
      vertex 13.0219 12.2921 20.01
    endloop
  endfacet
  facet normal 0 0 1
    outer loop
      vertex 13.3309 11.7569 20.01
      vertex 13 22.3867 20.01
      vertex 13.191 11.9122 20.01
    endloop
  endfacet
  facet normal 0 0 1
    outer loop
      vertex 13.5 11.634 20.01
      vertex 13 22.3867 20.01
      vertex 13.3309 11.7569 20.01
    endloop
  endfacet
  facet normal 0 0 1
    outer loop
      vertex 13.691 11.5489 20.01
      vertex 13 22.3867 20.01
      vertex 13.5 11.634 20.01
    endloop
  endfacet
  facet normal 0 0 1
    outer loop
      vertex 13.8955 11.5055 20.01
      vertex 13 22.3867 20.01
      vertex 13.691 11.5489 20.01
    endloop
  endfacet
  facet normal -0 0 1
    outer loop
      vertex 19.1045 11.5055 20.01
      vertex 13 22.3867 20.01
      vertex 13.8955 11.5055 20.01
    endloop
  endfacet
  facet normal -0 0 1
    outer loop
      vertex 19.309 11.5489 20.01
      vertex 13 22.3867 20.01
      vertex 19.1045 11.5055 20.01
    endloop
  endfacet
  facet normal -0 0 1
    outer loop
      vertex 19.5 11.634 20.01
      vertex 13 22.3867 20.01
      vertex 19.309 11.5489 20.01
    endloop
  endfacet
  facet normal -0 0 1
    outer loop
      vertex 19.6691 11.7569 20.01
      vertex 13 22.3867 20.01
      vertex 19.5 11.634 20.01
    endloop
  endfacet
  facet normal -0 0 1
    outer loop
      vertex 19.809 11.9122 20.01
      vertex 13 22.3867 20.01
      vertex 19.6691 11.7569 20.01
    endloop
  endfacet
  facet normal -0 0 1
    outer loop
      vertex 19.9135 12.0933 20.01
      vertex 13 22.3867 20.01
      vertex 19.809 11.9122 20.01
    endloop
  endfacet
  facet normal -0 0 1
    outer loop
      vertex 19.9781 12.2921 20.01
      vertex 13 22.3867 20.01
      vertex 19.9135 12.0933 20.01
    endloop
  endfacet
  facet normal -0 0 1
    outer loop
      vertex 20 12.5 20.01
      vertex 13 22.3867 20.01
      vertex 19.9781 12.2921 20.01
    endloop
  endfacet
  facet normal 0 -0 1
    outer loop
      vertex 13.2361 22.6489 20.01
      vertex 13 22.3867 20.01
      vertex 20 12.5 20.01
    endloop
  endfacet
  facet normal 0 0 1
    outer loop
      vertex 14 25 20.01
      vertex 19.5 38.366 20.01
      vertex 19.309 38.4511 20.01
    endloop
  endfacet
  facet normal 0 0 1
    outer loop
      vertex 13.9126 25.8316 20.01
      vertex 14 25 20.01
      vertex 19.1045 38.4945 20.01
    endloop
  endfacet
  facet normal 0 0 1
    outer loop
      vertex 13.2361 27.3511 20.01
      vertex 13.6542 26.6269 20.01
      vertex 13.8955 38.4945 20.01
    endloop
  endfacet
  facet normal 0 0 1
    outer loop
      vertex 14 25 20.01
      vertex 19.6691 38.2431 20.01
      vertex 19.5 38.366 20.01
    endloop
  endfacet
  facet normal 0 0 1
    outer loop
      vertex 14 25 20.01
      vertex 19.809 38.0878 20.01
      vertex 19.6691 38.2431 20.01
    endloop
  endfacet
  facet normal 0 0 1
    outer loop
      vertex 14 25 20.01
      vertex 19.9135 37.9067 20.01
      vertex 19.809 38.0878 20.01
    endloop
  endfacet
  facet normal 0 0 1
    outer loop
      vertex 14 25 20.01
      vertex 19.9781 37.7079 20.01
      vertex 19.9135 37.9067 20.01
    endloop
  endfacet
  facet normal 0 0 1
    outer loop
      vertex 14 25 20.01
      vertex 20 37.5 20.01
      vertex 19.9781 37.7079 20.01
    endloop
  endfacet
  facet normal 0 -0 1
    outer loop
      vertex 13 37.5 20.01
      vertex 13 27.6133 20.01
      vertex 13.0219 37.7079 20.01
    endloop
  endfacet
  facet normal 0 -0 1
    outer loop
      vertex 13.691 38.4511 20.01
      vertex 13.2361 27.3511 20.01
      vertex 13.8955 38.4945 20.01
    endloop
  endfacet
  facet normal 0 -0 1
    outer loop
      vertex 13.8955 38.4945 20.01
      vertex 13.6542 26.6269 20.01
      vertex 19.1045 38.4945 20.01
    endloop
  endfacet
  facet normal 0 0 1
    outer loop
      vertex 13.6542 26.6269 20.01
      vertex 13.9126 25.8316 20.01
      vertex 19.1045 38.4945 20.01
    endloop
  endfacet
  facet normal 0 -0 1
    outer loop
      vertex 19.1045 38.4945 20.01
      vertex 14 25 20.01
      vertex 19.309 38.4511 20.01
    endloop
  endfacet
  facet normal 0 0 1
    outer loop
      vertex 20 37.5 20.01
      vertex 13.9126 24.1684 20.01
      vertex 20 12.5 20.01
    endloop
  endfacet
  facet normal 0 -0 1
    outer loop
      vertex 13.9126 24.1684 20.01
      vertex 13.6542 23.3731 20.01
      vertex 20 12.5 20.01
    endloop
  endfacet
  facet normal 0 -0 1
    outer loop
      vertex 13.6542 23.3731 20.01
      vertex 13.2361 22.6489 20.01
      vertex 20 12.5 20.01
    endloop
  endfacet
  facet normal 0 0 1
    outer loop
      vertex 13 27.6133 20.01
      vertex 13.0865 37.9067 20.01
      vertex 13.0219 37.7079 20.01
    endloop
  endfacet
  facet normal 0 0 1
    outer loop
      vertex 13 27.6133 20.01
      vertex 13.191 38.0878 20.01
      vertex 13.0865 37.9067 20.01
    endloop
  endfacet
  facet normal 0 0 1
    outer loop
      vertex 13 27.6133 20.01
      vertex 13.3309 38.2431 20.01
      vertex 13.191 38.0878 20.01
    endloop
  endfacet
  facet normal 0 0 1
    outer loop
      vertex 13 27.6133 20.01
      vertex 13.5 38.366 20.01
      vertex 13.3309 38.2431 20.01
    endloop
  endfacet
  facet normal 0 0 1
    outer loop
      vertex 13 27.6133 20.01
      vertex 13.691 38.4511 20.01
      vertex 13.5 38.366 20.01
    endloop
  endfacet
  facet normal 0 0 1
    outer loop
      vertex 13 27.6133 20.01
      vertex 13.2361 27.3511 20.01
      vertex 13.691 38.4511 20.01
    endloop
  endfacet
  facet normal 0 -0 1
    outer loop
      vertex 14 25 20.01
      vertex 13.9126 24.1684 20.01
      vertex 20 37.5 20.01
    endloop
  endfacet
endsolid OpenSCAD_Model
